G04 #@! TF.GenerationSoftware,KiCad,Pcbnew,5.0.1*
G04 #@! TF.CreationDate,2019-10-25T00:23:11+02:00*
G04 #@! TF.ProjectId,OtterPill,4F7474657250696C6C2E6B696361645F,rev?*
G04 #@! TF.SameCoordinates,Original*
G04 #@! TF.FileFunction,Soldermask,Bot*
G04 #@! TF.FilePolarity,Negative*
%FSLAX46Y46*%
G04 Gerber Fmt 4.6, Leading zero omitted, Abs format (unit mm)*
G04 Created by KiCad (PCBNEW 5.0.1) date Fri 25 Oct 2019 12:23:11 AM CEST*
%MOMM*%
%LPD*%
G01*
G04 APERTURE LIST*
%ADD10C,0.050000*%
%ADD11C,0.100000*%
G04 APERTURE END LIST*
D10*
X63200000Y-37100000D02*
G75*
G02X62900000Y-37400000I-300000J0D01*
G01*
X62900000Y-19800000D02*
G75*
G02X63200000Y-20100000I0J-300000D01*
G01*
X20000000Y-20100000D02*
G75*
G02X20300000Y-19800000I300000J0D01*
G01*
X20300000Y-37400000D02*
G75*
G02X20000000Y-37100000I0J300000D01*
G01*
X20000000Y-37100000D02*
X20000000Y-20100000D01*
X62900000Y-37400000D02*
X20300000Y-37400000D01*
X63200000Y-20100000D02*
X63200000Y-37100000D01*
X20300000Y-19800000D02*
X62900000Y-19800000D01*
D11*
G36*
X63300000Y-37600000D02*
X61070000Y-37600000D01*
X61070000Y-19700000D01*
X63300000Y-19700000D01*
X63300000Y-37600000D01*
X63300000Y-37600000D01*
G37*
G36*
X34028589Y-35252444D02*
X34190700Y-35301619D01*
X34340102Y-35381476D01*
X34471054Y-35488946D01*
X34578524Y-35619898D01*
X34658381Y-35769300D01*
X34707556Y-35931411D01*
X34724161Y-36100000D01*
X34707556Y-36268589D01*
X34658381Y-36430700D01*
X34578524Y-36580102D01*
X34471054Y-36711054D01*
X34340102Y-36818524D01*
X34190700Y-36898381D01*
X34028589Y-36947556D01*
X33902246Y-36960000D01*
X33817754Y-36960000D01*
X33691411Y-36947556D01*
X33529300Y-36898381D01*
X33379898Y-36818524D01*
X33248946Y-36711054D01*
X33141476Y-36580102D01*
X33061619Y-36430700D01*
X33012444Y-36268589D01*
X32995839Y-36100000D01*
X33012444Y-35931411D01*
X33061619Y-35769300D01*
X33141476Y-35619898D01*
X33248946Y-35488946D01*
X33379898Y-35381476D01*
X33529300Y-35301619D01*
X33691411Y-35252444D01*
X33817754Y-35240000D01*
X33902246Y-35240000D01*
X34028589Y-35252444D01*
X34028589Y-35252444D01*
G37*
G36*
X24560000Y-36960000D02*
X22840000Y-36960000D01*
X22840000Y-35240000D01*
X24560000Y-35240000D01*
X24560000Y-36960000D01*
X24560000Y-36960000D01*
G37*
G36*
X26408589Y-35252444D02*
X26570700Y-35301619D01*
X26720102Y-35381476D01*
X26851054Y-35488946D01*
X26958524Y-35619898D01*
X27038381Y-35769300D01*
X27087556Y-35931411D01*
X27104161Y-36100000D01*
X27087556Y-36268589D01*
X27038381Y-36430700D01*
X26958524Y-36580102D01*
X26851054Y-36711054D01*
X26720102Y-36818524D01*
X26570700Y-36898381D01*
X26408589Y-36947556D01*
X26282246Y-36960000D01*
X26197754Y-36960000D01*
X26071411Y-36947556D01*
X25909300Y-36898381D01*
X25759898Y-36818524D01*
X25628946Y-36711054D01*
X25521476Y-36580102D01*
X25441619Y-36430700D01*
X25392444Y-36268589D01*
X25375839Y-36100000D01*
X25392444Y-35931411D01*
X25441619Y-35769300D01*
X25521476Y-35619898D01*
X25628946Y-35488946D01*
X25759898Y-35381476D01*
X25909300Y-35301619D01*
X26071411Y-35252444D01*
X26197754Y-35240000D01*
X26282246Y-35240000D01*
X26408589Y-35252444D01*
X26408589Y-35252444D01*
G37*
G36*
X28948589Y-35252444D02*
X29110700Y-35301619D01*
X29260102Y-35381476D01*
X29391054Y-35488946D01*
X29498524Y-35619898D01*
X29578381Y-35769300D01*
X29627556Y-35931411D01*
X29644161Y-36100000D01*
X29627556Y-36268589D01*
X29578381Y-36430700D01*
X29498524Y-36580102D01*
X29391054Y-36711054D01*
X29260102Y-36818524D01*
X29110700Y-36898381D01*
X28948589Y-36947556D01*
X28822246Y-36960000D01*
X28737754Y-36960000D01*
X28611411Y-36947556D01*
X28449300Y-36898381D01*
X28299898Y-36818524D01*
X28168946Y-36711054D01*
X28061476Y-36580102D01*
X27981619Y-36430700D01*
X27932444Y-36268589D01*
X27915839Y-36100000D01*
X27932444Y-35931411D01*
X27981619Y-35769300D01*
X28061476Y-35619898D01*
X28168946Y-35488946D01*
X28299898Y-35381476D01*
X28449300Y-35301619D01*
X28611411Y-35252444D01*
X28737754Y-35240000D01*
X28822246Y-35240000D01*
X28948589Y-35252444D01*
X28948589Y-35252444D01*
G37*
G36*
X31488589Y-35252444D02*
X31650700Y-35301619D01*
X31800102Y-35381476D01*
X31931054Y-35488946D01*
X32038524Y-35619898D01*
X32118381Y-35769300D01*
X32167556Y-35931411D01*
X32184161Y-36100000D01*
X32167556Y-36268589D01*
X32118381Y-36430700D01*
X32038524Y-36580102D01*
X31931054Y-36711054D01*
X31800102Y-36818524D01*
X31650700Y-36898381D01*
X31488589Y-36947556D01*
X31362246Y-36960000D01*
X31277754Y-36960000D01*
X31151411Y-36947556D01*
X30989300Y-36898381D01*
X30839898Y-36818524D01*
X30708946Y-36711054D01*
X30601476Y-36580102D01*
X30521619Y-36430700D01*
X30472444Y-36268589D01*
X30455839Y-36100000D01*
X30472444Y-35931411D01*
X30521619Y-35769300D01*
X30601476Y-35619898D01*
X30708946Y-35488946D01*
X30839898Y-35381476D01*
X30989300Y-35301619D01*
X31151411Y-35252444D01*
X31277754Y-35240000D01*
X31362246Y-35240000D01*
X31488589Y-35252444D01*
X31488589Y-35252444D01*
G37*
G36*
X36568589Y-35252444D02*
X36730700Y-35301619D01*
X36880102Y-35381476D01*
X37011054Y-35488946D01*
X37118524Y-35619898D01*
X37198381Y-35769300D01*
X37247556Y-35931411D01*
X37264161Y-36100000D01*
X37247556Y-36268589D01*
X37198381Y-36430700D01*
X37118524Y-36580102D01*
X37011054Y-36711054D01*
X36880102Y-36818524D01*
X36730700Y-36898381D01*
X36568589Y-36947556D01*
X36442246Y-36960000D01*
X36357754Y-36960000D01*
X36231411Y-36947556D01*
X36069300Y-36898381D01*
X35919898Y-36818524D01*
X35788946Y-36711054D01*
X35681476Y-36580102D01*
X35601619Y-36430700D01*
X35552444Y-36268589D01*
X35535839Y-36100000D01*
X35552444Y-35931411D01*
X35601619Y-35769300D01*
X35681476Y-35619898D01*
X35788946Y-35488946D01*
X35919898Y-35381476D01*
X36069300Y-35301619D01*
X36231411Y-35252444D01*
X36357754Y-35240000D01*
X36442246Y-35240000D01*
X36568589Y-35252444D01*
X36568589Y-35252444D01*
G37*
G36*
X39108589Y-35252444D02*
X39270700Y-35301619D01*
X39420102Y-35381476D01*
X39551054Y-35488946D01*
X39658524Y-35619898D01*
X39738381Y-35769300D01*
X39787556Y-35931411D01*
X39804161Y-36100000D01*
X39787556Y-36268589D01*
X39738381Y-36430700D01*
X39658524Y-36580102D01*
X39551054Y-36711054D01*
X39420102Y-36818524D01*
X39270700Y-36898381D01*
X39108589Y-36947556D01*
X38982246Y-36960000D01*
X38897754Y-36960000D01*
X38771411Y-36947556D01*
X38609300Y-36898381D01*
X38459898Y-36818524D01*
X38328946Y-36711054D01*
X38221476Y-36580102D01*
X38141619Y-36430700D01*
X38092444Y-36268589D01*
X38075839Y-36100000D01*
X38092444Y-35931411D01*
X38141619Y-35769300D01*
X38221476Y-35619898D01*
X38328946Y-35488946D01*
X38459898Y-35381476D01*
X38609300Y-35301619D01*
X38771411Y-35252444D01*
X38897754Y-35240000D01*
X38982246Y-35240000D01*
X39108589Y-35252444D01*
X39108589Y-35252444D01*
G37*
G36*
X41648589Y-35252444D02*
X41810700Y-35301619D01*
X41960102Y-35381476D01*
X42091054Y-35488946D01*
X42198524Y-35619898D01*
X42278381Y-35769300D01*
X42327556Y-35931411D01*
X42344161Y-36100000D01*
X42327556Y-36268589D01*
X42278381Y-36430700D01*
X42198524Y-36580102D01*
X42091054Y-36711054D01*
X41960102Y-36818524D01*
X41810700Y-36898381D01*
X41648589Y-36947556D01*
X41522246Y-36960000D01*
X41437754Y-36960000D01*
X41311411Y-36947556D01*
X41149300Y-36898381D01*
X40999898Y-36818524D01*
X40868946Y-36711054D01*
X40761476Y-36580102D01*
X40681619Y-36430700D01*
X40632444Y-36268589D01*
X40615839Y-36100000D01*
X40632444Y-35931411D01*
X40681619Y-35769300D01*
X40761476Y-35619898D01*
X40868946Y-35488946D01*
X40999898Y-35381476D01*
X41149300Y-35301619D01*
X41311411Y-35252444D01*
X41437754Y-35240000D01*
X41522246Y-35240000D01*
X41648589Y-35252444D01*
X41648589Y-35252444D01*
G37*
G36*
X44188589Y-35252444D02*
X44350700Y-35301619D01*
X44500102Y-35381476D01*
X44631054Y-35488946D01*
X44738524Y-35619898D01*
X44818381Y-35769300D01*
X44867556Y-35931411D01*
X44884161Y-36100000D01*
X44867556Y-36268589D01*
X44818381Y-36430700D01*
X44738524Y-36580102D01*
X44631054Y-36711054D01*
X44500102Y-36818524D01*
X44350700Y-36898381D01*
X44188589Y-36947556D01*
X44062246Y-36960000D01*
X43977754Y-36960000D01*
X43851411Y-36947556D01*
X43689300Y-36898381D01*
X43539898Y-36818524D01*
X43408946Y-36711054D01*
X43301476Y-36580102D01*
X43221619Y-36430700D01*
X43172444Y-36268589D01*
X43155839Y-36100000D01*
X43172444Y-35931411D01*
X43221619Y-35769300D01*
X43301476Y-35619898D01*
X43408946Y-35488946D01*
X43539898Y-35381476D01*
X43689300Y-35301619D01*
X43851411Y-35252444D01*
X43977754Y-35240000D01*
X44062246Y-35240000D01*
X44188589Y-35252444D01*
X44188589Y-35252444D01*
G37*
G36*
X46728589Y-35252444D02*
X46890700Y-35301619D01*
X47040102Y-35381476D01*
X47171054Y-35488946D01*
X47278524Y-35619898D01*
X47358381Y-35769300D01*
X47407556Y-35931411D01*
X47424161Y-36100000D01*
X47407556Y-36268589D01*
X47358381Y-36430700D01*
X47278524Y-36580102D01*
X47171054Y-36711054D01*
X47040102Y-36818524D01*
X46890700Y-36898381D01*
X46728589Y-36947556D01*
X46602246Y-36960000D01*
X46517754Y-36960000D01*
X46391411Y-36947556D01*
X46229300Y-36898381D01*
X46079898Y-36818524D01*
X45948946Y-36711054D01*
X45841476Y-36580102D01*
X45761619Y-36430700D01*
X45712444Y-36268589D01*
X45695839Y-36100000D01*
X45712444Y-35931411D01*
X45761619Y-35769300D01*
X45841476Y-35619898D01*
X45948946Y-35488946D01*
X46079898Y-35381476D01*
X46229300Y-35301619D01*
X46391411Y-35252444D01*
X46517754Y-35240000D01*
X46602246Y-35240000D01*
X46728589Y-35252444D01*
X46728589Y-35252444D01*
G37*
G36*
X49268589Y-35252444D02*
X49430700Y-35301619D01*
X49580102Y-35381476D01*
X49711054Y-35488946D01*
X49818524Y-35619898D01*
X49898381Y-35769300D01*
X49947556Y-35931411D01*
X49964161Y-36100000D01*
X49947556Y-36268589D01*
X49898381Y-36430700D01*
X49818524Y-36580102D01*
X49711054Y-36711054D01*
X49580102Y-36818524D01*
X49430700Y-36898381D01*
X49268589Y-36947556D01*
X49142246Y-36960000D01*
X49057754Y-36960000D01*
X48931411Y-36947556D01*
X48769300Y-36898381D01*
X48619898Y-36818524D01*
X48488946Y-36711054D01*
X48381476Y-36580102D01*
X48301619Y-36430700D01*
X48252444Y-36268589D01*
X48235839Y-36100000D01*
X48252444Y-35931411D01*
X48301619Y-35769300D01*
X48381476Y-35619898D01*
X48488946Y-35488946D01*
X48619898Y-35381476D01*
X48769300Y-35301619D01*
X48931411Y-35252444D01*
X49057754Y-35240000D01*
X49142246Y-35240000D01*
X49268589Y-35252444D01*
X49268589Y-35252444D01*
G37*
G36*
X51808589Y-35252444D02*
X51970700Y-35301619D01*
X52120102Y-35381476D01*
X52251054Y-35488946D01*
X52358524Y-35619898D01*
X52438381Y-35769300D01*
X52487556Y-35931411D01*
X52504161Y-36100000D01*
X52487556Y-36268589D01*
X52438381Y-36430700D01*
X52358524Y-36580102D01*
X52251054Y-36711054D01*
X52120102Y-36818524D01*
X51970700Y-36898381D01*
X51808589Y-36947556D01*
X51682246Y-36960000D01*
X51597754Y-36960000D01*
X51471411Y-36947556D01*
X51309300Y-36898381D01*
X51159898Y-36818524D01*
X51028946Y-36711054D01*
X50921476Y-36580102D01*
X50841619Y-36430700D01*
X50792444Y-36268589D01*
X50775839Y-36100000D01*
X50792444Y-35931411D01*
X50841619Y-35769300D01*
X50921476Y-35619898D01*
X51028946Y-35488946D01*
X51159898Y-35381476D01*
X51309300Y-35301619D01*
X51471411Y-35252444D01*
X51597754Y-35240000D01*
X51682246Y-35240000D01*
X51808589Y-35252444D01*
X51808589Y-35252444D01*
G37*
G36*
X54348589Y-35252444D02*
X54510700Y-35301619D01*
X54660102Y-35381476D01*
X54791054Y-35488946D01*
X54898524Y-35619898D01*
X54978381Y-35769300D01*
X55027556Y-35931411D01*
X55044161Y-36100000D01*
X55027556Y-36268589D01*
X54978381Y-36430700D01*
X54898524Y-36580102D01*
X54791054Y-36711054D01*
X54660102Y-36818524D01*
X54510700Y-36898381D01*
X54348589Y-36947556D01*
X54222246Y-36960000D01*
X54137754Y-36960000D01*
X54011411Y-36947556D01*
X53849300Y-36898381D01*
X53699898Y-36818524D01*
X53568946Y-36711054D01*
X53461476Y-36580102D01*
X53381619Y-36430700D01*
X53332444Y-36268589D01*
X53315839Y-36100000D01*
X53332444Y-35931411D01*
X53381619Y-35769300D01*
X53461476Y-35619898D01*
X53568946Y-35488946D01*
X53699898Y-35381476D01*
X53849300Y-35301619D01*
X54011411Y-35252444D01*
X54137754Y-35240000D01*
X54222246Y-35240000D01*
X54348589Y-35252444D01*
X54348589Y-35252444D01*
G37*
G36*
X56888589Y-35252444D02*
X57050700Y-35301619D01*
X57200102Y-35381476D01*
X57331054Y-35488946D01*
X57438524Y-35619898D01*
X57518381Y-35769300D01*
X57567556Y-35931411D01*
X57584161Y-36100000D01*
X57567556Y-36268589D01*
X57518381Y-36430700D01*
X57438524Y-36580102D01*
X57331054Y-36711054D01*
X57200102Y-36818524D01*
X57050700Y-36898381D01*
X56888589Y-36947556D01*
X56762246Y-36960000D01*
X56677754Y-36960000D01*
X56551411Y-36947556D01*
X56389300Y-36898381D01*
X56239898Y-36818524D01*
X56108946Y-36711054D01*
X56001476Y-36580102D01*
X55921619Y-36430700D01*
X55872444Y-36268589D01*
X55855839Y-36100000D01*
X55872444Y-35931411D01*
X55921619Y-35769300D01*
X56001476Y-35619898D01*
X56108946Y-35488946D01*
X56239898Y-35381476D01*
X56389300Y-35301619D01*
X56551411Y-35252444D01*
X56677754Y-35240000D01*
X56762246Y-35240000D01*
X56888589Y-35252444D01*
X56888589Y-35252444D01*
G37*
G36*
X59428589Y-35252444D02*
X59590700Y-35301619D01*
X59740102Y-35381476D01*
X59871054Y-35488946D01*
X59978524Y-35619898D01*
X60058381Y-35769300D01*
X60107556Y-35931411D01*
X60124161Y-36100000D01*
X60107556Y-36268589D01*
X60058381Y-36430700D01*
X59978524Y-36580102D01*
X59871054Y-36711054D01*
X59740102Y-36818524D01*
X59590700Y-36898381D01*
X59428589Y-36947556D01*
X59302246Y-36960000D01*
X59217754Y-36960000D01*
X59091411Y-36947556D01*
X58929300Y-36898381D01*
X58779898Y-36818524D01*
X58648946Y-36711054D01*
X58541476Y-36580102D01*
X58461619Y-36430700D01*
X58412444Y-36268589D01*
X58395839Y-36100000D01*
X58412444Y-35931411D01*
X58461619Y-35769300D01*
X58541476Y-35619898D01*
X58648946Y-35488946D01*
X58779898Y-35381476D01*
X58929300Y-35301619D01*
X59091411Y-35252444D01*
X59217754Y-35240000D01*
X59302246Y-35240000D01*
X59428589Y-35252444D01*
X59428589Y-35252444D01*
G37*
G36*
X22280000Y-36200000D02*
X20560000Y-36200000D01*
X20560000Y-34480000D01*
X22280000Y-34480000D01*
X22280000Y-36200000D01*
X22280000Y-36200000D01*
G37*
G36*
X54410000Y-33810000D02*
X53390000Y-33810000D01*
X53390000Y-32790000D01*
X54410000Y-32790000D01*
X54410000Y-33810000D01*
X54410000Y-33810000D01*
G37*
G36*
X26104976Y-32387380D02*
X26201112Y-32416542D01*
X26289710Y-32463899D01*
X26367368Y-32527631D01*
X26431100Y-32605289D01*
X26478457Y-32693887D01*
X26507619Y-32790023D01*
X26517466Y-32890000D01*
X26507619Y-32989977D01*
X26478457Y-33086113D01*
X26431100Y-33174711D01*
X26367368Y-33252369D01*
X26289710Y-33316101D01*
X26201112Y-33363458D01*
X26104976Y-33392620D01*
X26030047Y-33400000D01*
X24879951Y-33400000D01*
X24805022Y-33392620D01*
X24708886Y-33363458D01*
X24620288Y-33316101D01*
X24542630Y-33252369D01*
X24478898Y-33174711D01*
X24431541Y-33086113D01*
X24402379Y-32989977D01*
X24392532Y-32890000D01*
X24402379Y-32790023D01*
X24431541Y-32693887D01*
X24478898Y-32605289D01*
X24542630Y-32527631D01*
X24620288Y-32463899D01*
X24708886Y-32416542D01*
X24805022Y-32387380D01*
X24879951Y-32380000D01*
X26030047Y-32380000D01*
X26104976Y-32387380D01*
X26104976Y-32387380D01*
G37*
G36*
X21674976Y-32387380D02*
X21771112Y-32416542D01*
X21859710Y-32463899D01*
X21937368Y-32527631D01*
X22001100Y-32605289D01*
X22048457Y-32693887D01*
X22077619Y-32790023D01*
X22087466Y-32890000D01*
X22077619Y-32989977D01*
X22048457Y-33086113D01*
X22001100Y-33174711D01*
X21937368Y-33252369D01*
X21859710Y-33316101D01*
X21771112Y-33363458D01*
X21674976Y-33392620D01*
X21600047Y-33400000D01*
X20949951Y-33400000D01*
X20875022Y-33392620D01*
X20778886Y-33363458D01*
X20690288Y-33316101D01*
X20612630Y-33252369D01*
X20548898Y-33174711D01*
X20501541Y-33086113D01*
X20472379Y-32989977D01*
X20462532Y-32890000D01*
X20472379Y-32790023D01*
X20501541Y-32693887D01*
X20548898Y-32605289D01*
X20612630Y-32527631D01*
X20690288Y-32463899D01*
X20778886Y-32416542D01*
X20875022Y-32387380D01*
X20949951Y-32380000D01*
X21600047Y-32380000D01*
X21674976Y-32387380D01*
X21674976Y-32387380D01*
G37*
G36*
X59368589Y-31622444D02*
X59530700Y-31671619D01*
X59680102Y-31751476D01*
X59811054Y-31858946D01*
X59918524Y-31989898D01*
X59998381Y-32139300D01*
X60047556Y-32301411D01*
X60064161Y-32470000D01*
X60047556Y-32638589D01*
X59998381Y-32800700D01*
X59918524Y-32950102D01*
X59811054Y-33081054D01*
X59680102Y-33188524D01*
X59530700Y-33268381D01*
X59368589Y-33317556D01*
X59242246Y-33330000D01*
X59157754Y-33330000D01*
X59031411Y-33317556D01*
X58869300Y-33268381D01*
X58719898Y-33188524D01*
X58588946Y-33081054D01*
X58481476Y-32950102D01*
X58401619Y-32800700D01*
X58352444Y-32638589D01*
X58335839Y-32470000D01*
X58352444Y-32301411D01*
X58401619Y-32139300D01*
X58481476Y-31989898D01*
X58588946Y-31858946D01*
X58719898Y-31751476D01*
X58869300Y-31671619D01*
X59031411Y-31622444D01*
X59157754Y-31610000D01*
X59242246Y-31610000D01*
X59368589Y-31622444D01*
X59368589Y-31622444D01*
G37*
G36*
X25022717Y-31137874D02*
X25083679Y-31163126D01*
X25083681Y-31163127D01*
X25138549Y-31199788D01*
X25185211Y-31246450D01*
X25221872Y-31301318D01*
X25221873Y-31301320D01*
X25247125Y-31362282D01*
X25259999Y-31427005D01*
X25259999Y-31492995D01*
X25247125Y-31557718D01*
X25225468Y-31610000D01*
X25221872Y-31618682D01*
X25185211Y-31673550D01*
X25138549Y-31720212D01*
X25083681Y-31756873D01*
X25083680Y-31756874D01*
X25083679Y-31756874D01*
X25022717Y-31782126D01*
X24957994Y-31795000D01*
X24892004Y-31795000D01*
X24827281Y-31782126D01*
X24766319Y-31756874D01*
X24766318Y-31756874D01*
X24766317Y-31756873D01*
X24711449Y-31720212D01*
X24664787Y-31673550D01*
X24628126Y-31618682D01*
X24624530Y-31610000D01*
X24602873Y-31557718D01*
X24589999Y-31492995D01*
X24589999Y-31427005D01*
X24602873Y-31362282D01*
X24628125Y-31301320D01*
X24628126Y-31301318D01*
X24664787Y-31246450D01*
X24711449Y-31199788D01*
X24766317Y-31163127D01*
X24766319Y-31163126D01*
X24827281Y-31137874D01*
X24892004Y-31125000D01*
X24957994Y-31125000D01*
X25022717Y-31137874D01*
X25022717Y-31137874D01*
G37*
G36*
X59368589Y-29082444D02*
X59530700Y-29131619D01*
X59680102Y-29211476D01*
X59811054Y-29318946D01*
X59918524Y-29449898D01*
X59998381Y-29599300D01*
X60047556Y-29761411D01*
X60064161Y-29930000D01*
X60047556Y-30098589D01*
X59998381Y-30260700D01*
X59918524Y-30410102D01*
X59811054Y-30541054D01*
X59680102Y-30648524D01*
X59530700Y-30728381D01*
X59368589Y-30777556D01*
X59242246Y-30790000D01*
X59157754Y-30790000D01*
X59031411Y-30777556D01*
X58869300Y-30728381D01*
X58719898Y-30648524D01*
X58588946Y-30541054D01*
X58481476Y-30410102D01*
X58401619Y-30260700D01*
X58352444Y-30098589D01*
X58335839Y-29930000D01*
X58352444Y-29761411D01*
X58401619Y-29599300D01*
X58481476Y-29449898D01*
X58588946Y-29318946D01*
X58719898Y-29211476D01*
X58869300Y-29131619D01*
X59031411Y-29082444D01*
X59157754Y-29070000D01*
X59242246Y-29070000D01*
X59368589Y-29082444D01*
X59368589Y-29082444D01*
G37*
G36*
X59368589Y-26542444D02*
X59530700Y-26591619D01*
X59680102Y-26671476D01*
X59811054Y-26778946D01*
X59918524Y-26909898D01*
X59998381Y-27059300D01*
X60047556Y-27221411D01*
X60064161Y-27390000D01*
X60047556Y-27558589D01*
X59998381Y-27720700D01*
X59918524Y-27870102D01*
X59811054Y-28001054D01*
X59680102Y-28108524D01*
X59530700Y-28188381D01*
X59368589Y-28237556D01*
X59242246Y-28250000D01*
X59157754Y-28250000D01*
X59031411Y-28237556D01*
X58869300Y-28188381D01*
X58719898Y-28108524D01*
X58588946Y-28001054D01*
X58481476Y-27870102D01*
X58401619Y-27720700D01*
X58352444Y-27558589D01*
X58335839Y-27390000D01*
X58352444Y-27221411D01*
X58401619Y-27059300D01*
X58481476Y-26909898D01*
X58588946Y-26778946D01*
X58719898Y-26671476D01*
X58869300Y-26591619D01*
X59031411Y-26542444D01*
X59157754Y-26530000D01*
X59242246Y-26530000D01*
X59368589Y-26542444D01*
X59368589Y-26542444D01*
G37*
G36*
X25022717Y-25357874D02*
X25083679Y-25383126D01*
X25083681Y-25383127D01*
X25138549Y-25419788D01*
X25185211Y-25466450D01*
X25221872Y-25521318D01*
X25221873Y-25521320D01*
X25247125Y-25582282D01*
X25259999Y-25647005D01*
X25259999Y-25712995D01*
X25247125Y-25777718D01*
X25221873Y-25838680D01*
X25221872Y-25838682D01*
X25185211Y-25893550D01*
X25138549Y-25940212D01*
X25083681Y-25976873D01*
X25083680Y-25976874D01*
X25083679Y-25976874D01*
X25022717Y-26002126D01*
X24957994Y-26015000D01*
X24892004Y-26015000D01*
X24827281Y-26002126D01*
X24766319Y-25976874D01*
X24766318Y-25976874D01*
X24766317Y-25976873D01*
X24711449Y-25940212D01*
X24664787Y-25893550D01*
X24628126Y-25838682D01*
X24628125Y-25838680D01*
X24602873Y-25777718D01*
X24589999Y-25712995D01*
X24589999Y-25647005D01*
X24602873Y-25582282D01*
X24628125Y-25521320D01*
X24628126Y-25521318D01*
X24664787Y-25466450D01*
X24711449Y-25419788D01*
X24766317Y-25383127D01*
X24766319Y-25383126D01*
X24827281Y-25357874D01*
X24892004Y-25345000D01*
X24957994Y-25345000D01*
X25022717Y-25357874D01*
X25022717Y-25357874D01*
G37*
G36*
X60060000Y-25710000D02*
X58340000Y-25710000D01*
X58340000Y-23990000D01*
X60060000Y-23990000D01*
X60060000Y-25710000D01*
X60060000Y-25710000D01*
G37*
G36*
X26104976Y-23747380D02*
X26201112Y-23776542D01*
X26289710Y-23823899D01*
X26367368Y-23887631D01*
X26431100Y-23965289D01*
X26478457Y-24053887D01*
X26507619Y-24150023D01*
X26517466Y-24250000D01*
X26507619Y-24349977D01*
X26478457Y-24446113D01*
X26431100Y-24534711D01*
X26367368Y-24612369D01*
X26289710Y-24676101D01*
X26201112Y-24723458D01*
X26104976Y-24752620D01*
X26030047Y-24760000D01*
X24879951Y-24760000D01*
X24805022Y-24752620D01*
X24708886Y-24723458D01*
X24620288Y-24676101D01*
X24542630Y-24612369D01*
X24478898Y-24534711D01*
X24431541Y-24446113D01*
X24402379Y-24349977D01*
X24392532Y-24250000D01*
X24402379Y-24150023D01*
X24431541Y-24053887D01*
X24478898Y-23965289D01*
X24542630Y-23887631D01*
X24620288Y-23823899D01*
X24708886Y-23776542D01*
X24805022Y-23747380D01*
X24879951Y-23740000D01*
X26030047Y-23740000D01*
X26104976Y-23747380D01*
X26104976Y-23747380D01*
G37*
G36*
X21674976Y-23747380D02*
X21771112Y-23776542D01*
X21859710Y-23823899D01*
X21937368Y-23887631D01*
X22001100Y-23965289D01*
X22048457Y-24053887D01*
X22077619Y-24150023D01*
X22087466Y-24250000D01*
X22077619Y-24349977D01*
X22048457Y-24446113D01*
X22001100Y-24534711D01*
X21937368Y-24612369D01*
X21859710Y-24676101D01*
X21771112Y-24723458D01*
X21674976Y-24752620D01*
X21600047Y-24760000D01*
X20949951Y-24760000D01*
X20875022Y-24752620D01*
X20778886Y-24723458D01*
X20690288Y-24676101D01*
X20612630Y-24612369D01*
X20548898Y-24534711D01*
X20501541Y-24446113D01*
X20472379Y-24349977D01*
X20462532Y-24250000D01*
X20472379Y-24150023D01*
X20501541Y-24053887D01*
X20548898Y-23965289D01*
X20612630Y-23887631D01*
X20690288Y-23823899D01*
X20778886Y-23776542D01*
X20875022Y-23747380D01*
X20949951Y-23740000D01*
X21600047Y-23740000D01*
X21674976Y-23747380D01*
X21674976Y-23747380D01*
G37*
G36*
X22280000Y-22640000D02*
X20560000Y-22640000D01*
X20560000Y-20920000D01*
X22280000Y-20920000D01*
X22280000Y-22640000D01*
X22280000Y-22640000D01*
G37*
G36*
X34028589Y-20252444D02*
X34190700Y-20301619D01*
X34340102Y-20381476D01*
X34471054Y-20488946D01*
X34578524Y-20619898D01*
X34658381Y-20769300D01*
X34707556Y-20931411D01*
X34724161Y-21100000D01*
X34707556Y-21268589D01*
X34658381Y-21430700D01*
X34578524Y-21580102D01*
X34471054Y-21711054D01*
X34340102Y-21818524D01*
X34190700Y-21898381D01*
X34028589Y-21947556D01*
X33902246Y-21960000D01*
X33817754Y-21960000D01*
X33691411Y-21947556D01*
X33529300Y-21898381D01*
X33379898Y-21818524D01*
X33248946Y-21711054D01*
X33141476Y-21580102D01*
X33061619Y-21430700D01*
X33012444Y-21268589D01*
X32995839Y-21100000D01*
X33012444Y-20931411D01*
X33061619Y-20769300D01*
X33141476Y-20619898D01*
X33248946Y-20488946D01*
X33379898Y-20381476D01*
X33529300Y-20301619D01*
X33691411Y-20252444D01*
X33817754Y-20240000D01*
X33902246Y-20240000D01*
X34028589Y-20252444D01*
X34028589Y-20252444D01*
G37*
G36*
X41648589Y-20252444D02*
X41810700Y-20301619D01*
X41960102Y-20381476D01*
X42091054Y-20488946D01*
X42198524Y-20619898D01*
X42278381Y-20769300D01*
X42327556Y-20931411D01*
X42344161Y-21100000D01*
X42327556Y-21268589D01*
X42278381Y-21430700D01*
X42198524Y-21580102D01*
X42091054Y-21711054D01*
X41960102Y-21818524D01*
X41810700Y-21898381D01*
X41648589Y-21947556D01*
X41522246Y-21960000D01*
X41437754Y-21960000D01*
X41311411Y-21947556D01*
X41149300Y-21898381D01*
X40999898Y-21818524D01*
X40868946Y-21711054D01*
X40761476Y-21580102D01*
X40681619Y-21430700D01*
X40632444Y-21268589D01*
X40615839Y-21100000D01*
X40632444Y-20931411D01*
X40681619Y-20769300D01*
X40761476Y-20619898D01*
X40868946Y-20488946D01*
X40999898Y-20381476D01*
X41149300Y-20301619D01*
X41311411Y-20252444D01*
X41437754Y-20240000D01*
X41522246Y-20240000D01*
X41648589Y-20252444D01*
X41648589Y-20252444D01*
G37*
G36*
X39108589Y-20252444D02*
X39270700Y-20301619D01*
X39420102Y-20381476D01*
X39551054Y-20488946D01*
X39658524Y-20619898D01*
X39738381Y-20769300D01*
X39787556Y-20931411D01*
X39804161Y-21100000D01*
X39787556Y-21268589D01*
X39738381Y-21430700D01*
X39658524Y-21580102D01*
X39551054Y-21711054D01*
X39420102Y-21818524D01*
X39270700Y-21898381D01*
X39108589Y-21947556D01*
X38982246Y-21960000D01*
X38897754Y-21960000D01*
X38771411Y-21947556D01*
X38609300Y-21898381D01*
X38459898Y-21818524D01*
X38328946Y-21711054D01*
X38221476Y-21580102D01*
X38141619Y-21430700D01*
X38092444Y-21268589D01*
X38075839Y-21100000D01*
X38092444Y-20931411D01*
X38141619Y-20769300D01*
X38221476Y-20619898D01*
X38328946Y-20488946D01*
X38459898Y-20381476D01*
X38609300Y-20301619D01*
X38771411Y-20252444D01*
X38897754Y-20240000D01*
X38982246Y-20240000D01*
X39108589Y-20252444D01*
X39108589Y-20252444D01*
G37*
G36*
X36568589Y-20252444D02*
X36730700Y-20301619D01*
X36880102Y-20381476D01*
X37011054Y-20488946D01*
X37118524Y-20619898D01*
X37198381Y-20769300D01*
X37247556Y-20931411D01*
X37264161Y-21100000D01*
X37247556Y-21268589D01*
X37198381Y-21430700D01*
X37118524Y-21580102D01*
X37011054Y-21711054D01*
X36880102Y-21818524D01*
X36730700Y-21898381D01*
X36568589Y-21947556D01*
X36442246Y-21960000D01*
X36357754Y-21960000D01*
X36231411Y-21947556D01*
X36069300Y-21898381D01*
X35919898Y-21818524D01*
X35788946Y-21711054D01*
X35681476Y-21580102D01*
X35601619Y-21430700D01*
X35552444Y-21268589D01*
X35535839Y-21100000D01*
X35552444Y-20931411D01*
X35601619Y-20769300D01*
X35681476Y-20619898D01*
X35788946Y-20488946D01*
X35919898Y-20381476D01*
X36069300Y-20301619D01*
X36231411Y-20252444D01*
X36357754Y-20240000D01*
X36442246Y-20240000D01*
X36568589Y-20252444D01*
X36568589Y-20252444D01*
G37*
G36*
X24560000Y-21960000D02*
X22840000Y-21960000D01*
X22840000Y-20240000D01*
X24560000Y-20240000D01*
X24560000Y-21960000D01*
X24560000Y-21960000D01*
G37*
G36*
X26408589Y-20252444D02*
X26570700Y-20301619D01*
X26720102Y-20381476D01*
X26851054Y-20488946D01*
X26958524Y-20619898D01*
X27038381Y-20769300D01*
X27087556Y-20931411D01*
X27104161Y-21100000D01*
X27087556Y-21268589D01*
X27038381Y-21430700D01*
X26958524Y-21580102D01*
X26851054Y-21711054D01*
X26720102Y-21818524D01*
X26570700Y-21898381D01*
X26408589Y-21947556D01*
X26282246Y-21960000D01*
X26197754Y-21960000D01*
X26071411Y-21947556D01*
X25909300Y-21898381D01*
X25759898Y-21818524D01*
X25628946Y-21711054D01*
X25521476Y-21580102D01*
X25441619Y-21430700D01*
X25392444Y-21268589D01*
X25375839Y-21100000D01*
X25392444Y-20931411D01*
X25441619Y-20769300D01*
X25521476Y-20619898D01*
X25628946Y-20488946D01*
X25759898Y-20381476D01*
X25909300Y-20301619D01*
X26071411Y-20252444D01*
X26197754Y-20240000D01*
X26282246Y-20240000D01*
X26408589Y-20252444D01*
X26408589Y-20252444D01*
G37*
G36*
X31488589Y-20252444D02*
X31650700Y-20301619D01*
X31800102Y-20381476D01*
X31931054Y-20488946D01*
X32038524Y-20619898D01*
X32118381Y-20769300D01*
X32167556Y-20931411D01*
X32184161Y-21100000D01*
X32167556Y-21268589D01*
X32118381Y-21430700D01*
X32038524Y-21580102D01*
X31931054Y-21711054D01*
X31800102Y-21818524D01*
X31650700Y-21898381D01*
X31488589Y-21947556D01*
X31362246Y-21960000D01*
X31277754Y-21960000D01*
X31151411Y-21947556D01*
X30989300Y-21898381D01*
X30839898Y-21818524D01*
X30708946Y-21711054D01*
X30601476Y-21580102D01*
X30521619Y-21430700D01*
X30472444Y-21268589D01*
X30455839Y-21100000D01*
X30472444Y-20931411D01*
X30521619Y-20769300D01*
X30601476Y-20619898D01*
X30708946Y-20488946D01*
X30839898Y-20381476D01*
X30989300Y-20301619D01*
X31151411Y-20252444D01*
X31277754Y-20240000D01*
X31362246Y-20240000D01*
X31488589Y-20252444D01*
X31488589Y-20252444D01*
G37*
G36*
X44188589Y-20252444D02*
X44350700Y-20301619D01*
X44500102Y-20381476D01*
X44631054Y-20488946D01*
X44738524Y-20619898D01*
X44818381Y-20769300D01*
X44867556Y-20931411D01*
X44884161Y-21100000D01*
X44867556Y-21268589D01*
X44818381Y-21430700D01*
X44738524Y-21580102D01*
X44631054Y-21711054D01*
X44500102Y-21818524D01*
X44350700Y-21898381D01*
X44188589Y-21947556D01*
X44062246Y-21960000D01*
X43977754Y-21960000D01*
X43851411Y-21947556D01*
X43689300Y-21898381D01*
X43539898Y-21818524D01*
X43408946Y-21711054D01*
X43301476Y-21580102D01*
X43221619Y-21430700D01*
X43172444Y-21268589D01*
X43155839Y-21100000D01*
X43172444Y-20931411D01*
X43221619Y-20769300D01*
X43301476Y-20619898D01*
X43408946Y-20488946D01*
X43539898Y-20381476D01*
X43689300Y-20301619D01*
X43851411Y-20252444D01*
X43977754Y-20240000D01*
X44062246Y-20240000D01*
X44188589Y-20252444D01*
X44188589Y-20252444D01*
G37*
G36*
X46728589Y-20252444D02*
X46890700Y-20301619D01*
X47040102Y-20381476D01*
X47171054Y-20488946D01*
X47278524Y-20619898D01*
X47358381Y-20769300D01*
X47407556Y-20931411D01*
X47424161Y-21100000D01*
X47407556Y-21268589D01*
X47358381Y-21430700D01*
X47278524Y-21580102D01*
X47171054Y-21711054D01*
X47040102Y-21818524D01*
X46890700Y-21898381D01*
X46728589Y-21947556D01*
X46602246Y-21960000D01*
X46517754Y-21960000D01*
X46391411Y-21947556D01*
X46229300Y-21898381D01*
X46079898Y-21818524D01*
X45948946Y-21711054D01*
X45841476Y-21580102D01*
X45761619Y-21430700D01*
X45712444Y-21268589D01*
X45695839Y-21100000D01*
X45712444Y-20931411D01*
X45761619Y-20769300D01*
X45841476Y-20619898D01*
X45948946Y-20488946D01*
X46079898Y-20381476D01*
X46229300Y-20301619D01*
X46391411Y-20252444D01*
X46517754Y-20240000D01*
X46602246Y-20240000D01*
X46728589Y-20252444D01*
X46728589Y-20252444D01*
G37*
G36*
X49268589Y-20252444D02*
X49430700Y-20301619D01*
X49580102Y-20381476D01*
X49711054Y-20488946D01*
X49818524Y-20619898D01*
X49898381Y-20769300D01*
X49947556Y-20931411D01*
X49964161Y-21100000D01*
X49947556Y-21268589D01*
X49898381Y-21430700D01*
X49818524Y-21580102D01*
X49711054Y-21711054D01*
X49580102Y-21818524D01*
X49430700Y-21898381D01*
X49268589Y-21947556D01*
X49142246Y-21960000D01*
X49057754Y-21960000D01*
X48931411Y-21947556D01*
X48769300Y-21898381D01*
X48619898Y-21818524D01*
X48488946Y-21711054D01*
X48381476Y-21580102D01*
X48301619Y-21430700D01*
X48252444Y-21268589D01*
X48235839Y-21100000D01*
X48252444Y-20931411D01*
X48301619Y-20769300D01*
X48381476Y-20619898D01*
X48488946Y-20488946D01*
X48619898Y-20381476D01*
X48769300Y-20301619D01*
X48931411Y-20252444D01*
X49057754Y-20240000D01*
X49142246Y-20240000D01*
X49268589Y-20252444D01*
X49268589Y-20252444D01*
G37*
G36*
X51808589Y-20252444D02*
X51970700Y-20301619D01*
X52120102Y-20381476D01*
X52251054Y-20488946D01*
X52358524Y-20619898D01*
X52438381Y-20769300D01*
X52487556Y-20931411D01*
X52504161Y-21100000D01*
X52487556Y-21268589D01*
X52438381Y-21430700D01*
X52358524Y-21580102D01*
X52251054Y-21711054D01*
X52120102Y-21818524D01*
X51970700Y-21898381D01*
X51808589Y-21947556D01*
X51682246Y-21960000D01*
X51597754Y-21960000D01*
X51471411Y-21947556D01*
X51309300Y-21898381D01*
X51159898Y-21818524D01*
X51028946Y-21711054D01*
X50921476Y-21580102D01*
X50841619Y-21430700D01*
X50792444Y-21268589D01*
X50775839Y-21100000D01*
X50792444Y-20931411D01*
X50841619Y-20769300D01*
X50921476Y-20619898D01*
X51028946Y-20488946D01*
X51159898Y-20381476D01*
X51309300Y-20301619D01*
X51471411Y-20252444D01*
X51597754Y-20240000D01*
X51682246Y-20240000D01*
X51808589Y-20252444D01*
X51808589Y-20252444D01*
G37*
G36*
X54348589Y-20252444D02*
X54510700Y-20301619D01*
X54660102Y-20381476D01*
X54791054Y-20488946D01*
X54898524Y-20619898D01*
X54978381Y-20769300D01*
X55027556Y-20931411D01*
X55044161Y-21100000D01*
X55027556Y-21268589D01*
X54978381Y-21430700D01*
X54898524Y-21580102D01*
X54791054Y-21711054D01*
X54660102Y-21818524D01*
X54510700Y-21898381D01*
X54348589Y-21947556D01*
X54222246Y-21960000D01*
X54137754Y-21960000D01*
X54011411Y-21947556D01*
X53849300Y-21898381D01*
X53699898Y-21818524D01*
X53568946Y-21711054D01*
X53461476Y-21580102D01*
X53381619Y-21430700D01*
X53332444Y-21268589D01*
X53315839Y-21100000D01*
X53332444Y-20931411D01*
X53381619Y-20769300D01*
X53461476Y-20619898D01*
X53568946Y-20488946D01*
X53699898Y-20381476D01*
X53849300Y-20301619D01*
X54011411Y-20252444D01*
X54137754Y-20240000D01*
X54222246Y-20240000D01*
X54348589Y-20252444D01*
X54348589Y-20252444D01*
G37*
G36*
X56888589Y-20252444D02*
X57050700Y-20301619D01*
X57200102Y-20381476D01*
X57331054Y-20488946D01*
X57438524Y-20619898D01*
X57518381Y-20769300D01*
X57567556Y-20931411D01*
X57584161Y-21100000D01*
X57567556Y-21268589D01*
X57518381Y-21430700D01*
X57438524Y-21580102D01*
X57331054Y-21711054D01*
X57200102Y-21818524D01*
X57050700Y-21898381D01*
X56888589Y-21947556D01*
X56762246Y-21960000D01*
X56677754Y-21960000D01*
X56551411Y-21947556D01*
X56389300Y-21898381D01*
X56239898Y-21818524D01*
X56108946Y-21711054D01*
X56001476Y-21580102D01*
X55921619Y-21430700D01*
X55872444Y-21268589D01*
X55855839Y-21100000D01*
X55872444Y-20931411D01*
X55921619Y-20769300D01*
X56001476Y-20619898D01*
X56108946Y-20488946D01*
X56239898Y-20381476D01*
X56389300Y-20301619D01*
X56551411Y-20252444D01*
X56677754Y-20240000D01*
X56762246Y-20240000D01*
X56888589Y-20252444D01*
X56888589Y-20252444D01*
G37*
G36*
X59428589Y-20252444D02*
X59590700Y-20301619D01*
X59740102Y-20381476D01*
X59871054Y-20488946D01*
X59978524Y-20619898D01*
X60058381Y-20769300D01*
X60107556Y-20931411D01*
X60124161Y-21100000D01*
X60107556Y-21268589D01*
X60058381Y-21430700D01*
X59978524Y-21580102D01*
X59871054Y-21711054D01*
X59740102Y-21818524D01*
X59590700Y-21898381D01*
X59428589Y-21947556D01*
X59302246Y-21960000D01*
X59217754Y-21960000D01*
X59091411Y-21947556D01*
X58929300Y-21898381D01*
X58779898Y-21818524D01*
X58648946Y-21711054D01*
X58541476Y-21580102D01*
X58461619Y-21430700D01*
X58412444Y-21268589D01*
X58395839Y-21100000D01*
X58412444Y-20931411D01*
X58461619Y-20769300D01*
X58541476Y-20619898D01*
X58648946Y-20488946D01*
X58779898Y-20381476D01*
X58929300Y-20301619D01*
X59091411Y-20252444D01*
X59217754Y-20240000D01*
X59302246Y-20240000D01*
X59428589Y-20252444D01*
X59428589Y-20252444D01*
G37*
G36*
X28948589Y-20252444D02*
X29110700Y-20301619D01*
X29260102Y-20381476D01*
X29391054Y-20488946D01*
X29498524Y-20619898D01*
X29578381Y-20769300D01*
X29627556Y-20931411D01*
X29644161Y-21100000D01*
X29627556Y-21268589D01*
X29578381Y-21430700D01*
X29498524Y-21580102D01*
X29391054Y-21711054D01*
X29260102Y-21818524D01*
X29110700Y-21898381D01*
X28948589Y-21947556D01*
X28822246Y-21960000D01*
X28737754Y-21960000D01*
X28611411Y-21947556D01*
X28449300Y-21898381D01*
X28299898Y-21818524D01*
X28168946Y-21711054D01*
X28061476Y-21580102D01*
X27981619Y-21430700D01*
X27932444Y-21268589D01*
X27915839Y-21100000D01*
X27932444Y-20931411D01*
X27981619Y-20769300D01*
X28061476Y-20619898D01*
X28168946Y-20488946D01*
X28299898Y-20381476D01*
X28449300Y-20301619D01*
X28611411Y-20252444D01*
X28737754Y-20240000D01*
X28822246Y-20240000D01*
X28948589Y-20252444D01*
X28948589Y-20252444D01*
G37*
M02*
