M48
; DRILL file {KiCad 5.1.4+dfsg1-1} date Sa 16 Nov 2019 02:43:23 CET
; FORMAT={-:-/ absolute / inch / decimal}
; #@! TF.CreationDate,2019-11-16T02:43:23+01:00
; #@! TF.GenerationSoftware,Kicad,Pcbnew,5.1.4+dfsg1-1
; #@! TF.FileFunction,Plated,1,2,PTH
FMAT,2
INCH
T1C0.0118
T2C0.0236
T3C0.0394
%
G90
G05
T1
X0.9567Y-1.1988
X0.963Y-1.0555
X0.9646Y-1.0984
X0.9646Y-1.1339
X0.9752Y-1.1654
X0.987Y-0.8024
X0.9902Y-1.0709
X0.9902Y-1.1952
X0.9902Y-1.3868
X1.0831Y-0.8039
X1.0835Y-1.4484
X1.0906Y-1.2165
X1.0943Y-1.0164
X1.1257Y-1.122
X1.1606Y-1.2429
X1.1722Y-1.1575
X1.1732Y-1.0856
X1.1831Y-1.4488
X1.1926Y-1.018
X1.1941Y-1.1996
X1.1945Y-0.9516
X1.2152Y-1.274
X1.2409Y-1.3409
X1.2517Y-1.1132
X1.2697Y-1.2539
X1.2827Y-0.9289
X1.2827Y-1.45
X1.2843Y-0.8594
X1.2874Y-1.0551
X1.2929Y-1.1925
X1.3098Y-1.0355
X1.3413Y-1.0315
X1.3627Y-0.9289
X1.3826Y-1.0749
X1.3846Y-0.8031
X1.4179Y-1.1379
X1.4218Y-1.3279
X1.4386Y-0.9264
X1.4456Y-1.3059
X1.45Y-1.2012
X1.4567Y-1.1063
X1.4709Y-1.261
X1.4744Y-1.0183
X1.4839Y-0.8024
X1.487Y-0.9544
X1.5006Y-1.2634
X1.5433Y-1.0981
X1.5551Y-0.8858
X1.5786Y-1.3324
X1.5827Y-0.8031
X1.5839Y-1.4492
X1.6076Y-1.0653
X1.6086Y-1.1003
X1.6092Y-1.2219
X1.6161Y-1.1909
X1.6319Y-1.0311
X1.6373Y-1.2121
X1.6394Y-1.0811
X1.6811Y-1.0156
X1.6814Y-1.3362
X1.6823Y-0.8713
X1.6827Y-0.8039
X1.6839Y-1.4492
X1.6886Y-1.0937
X1.7007Y-1.252
X1.7023Y-1.3575
X1.7181Y-1.0142
X1.7279Y-1.2398
X1.7421Y-1.0445
X1.7603Y-1.2066
X1.7827Y-0.8039
X1.7843Y-1.3898
X1.7846Y-1.1894
X1.8003Y-1.1107
X1.8627Y-0.8989
X1.8762Y-1.3246
X1.8819Y-0.8035
X1.8819Y-1.4488
X1.8827Y-0.9289
X1.8898Y-0.9744
X1.9021Y-1.2822
X1.9094Y-1.1346
X1.9114Y-0.9528
X1.9127Y-0.8989
X1.9142Y-1.098
X1.9177Y-1.2378
X1.9331Y-1.122
X1.937Y-0.9803
X1.9508Y-1.0039
X1.9639Y-0.9798
X1.9803Y-1.4469
X1.9843Y-0.8055
X2.0028Y-1.0051
X2.0264Y-1.1606
X2.0276Y-1.2377
X2.0551Y-1.1969
X2.0596Y-1.1626
X2.0815Y-1.285
X2.0819Y-0.8043
X2.0827Y-1.4488
X2.0858Y-0.8878
X2.1083Y-1.1654
X2.1823Y-0.8028
X2.1831Y-1.2843
X2.1839Y-1.4496
X2.1886Y-1.1417
X2.189Y-1.2047
X2.25Y-1.1437
X2.2815Y-1.4492
X2.3031Y-0.9134
X2.3862Y-1.4472
X2.4283Y-0.8087
X2.4283Y-0.848
X2.4283Y-0.8874
X2.4283Y-0.9268
X2.4283Y-0.9661
X2.4283Y-1.0055
X2.4283Y-1.0449
X2.4283Y-1.0843
X2.4283Y-1.1236
X2.4283Y-1.163
X2.4283Y-1.2024
X2.4283Y-1.2417
X2.4283Y-1.2811
X2.4283Y-1.3205
X2.4283Y-1.3598
X2.4283Y-1.3992
X2.4283Y-1.4386
X2.4677Y-0.8087
X2.4677Y-0.848
X2.4677Y-0.8874
X2.4677Y-0.9268
X2.4677Y-0.9661
X2.4677Y-1.0055
X2.4677Y-1.0449
X2.4677Y-1.0843
X2.4677Y-1.1236
X2.4677Y-1.163
X2.4677Y-1.2024
X2.4677Y-1.2417
X2.4677Y-1.2811
X2.4677Y-1.3205
X2.4677Y-1.3598
X2.4677Y-1.3992
X2.4677Y-1.4386
T3
X2.3307Y-0.9783
X2.3307Y-1.0783
X2.3307Y-1.1783
X2.3307Y-1.2783
X0.9331Y-1.4213
X1.0331Y-1.4213
X1.1331Y-1.4213
X1.2331Y-1.4213
X1.3331Y-1.4213
X1.4331Y-1.4213
X1.5331Y-1.4213
X1.6331Y-1.4213
X1.7331Y-1.4213
X1.8331Y-1.4213
X1.9331Y-1.4213
X2.0331Y-1.4213
X2.1331Y-1.4213
X2.2331Y-1.4213
X2.3331Y-1.4213
X0.8433Y-1.3913
X0.9331Y-0.8307
X1.0331Y-0.8307
X1.1331Y-0.8307
X1.2331Y-0.8307
X1.3331Y-0.8307
X1.4331Y-0.8307
X1.5331Y-0.8307
X1.6331Y-0.8307
X1.7331Y-0.8307
X1.8331Y-0.8307
X1.9331Y-0.8307
X2.0331Y-0.8307
X2.1331Y-0.8307
X2.2331Y-0.8307
X2.3331Y-0.8307
X0.8433Y-0.8575
T2
G00X0.8494Y-0.9547
M15
G01X0.8258Y-0.9547
M16
G05
G00X0.8494Y-1.2949
M15
G01X0.8258Y-1.2949
M16
G05
G00X1.0238Y-0.9547
M15
G01X0.9805Y-0.9547
M16
G05
G00X1.0238Y-1.2949
M15
G01X0.9805Y-1.2949
M16
G05
T0
M30
