G04 #@! TF.GenerationSoftware,KiCad,Pcbnew,5.0.1*
G04 #@! TF.CreationDate,2019-10-18T03:38:24+02:00*
G04 #@! TF.ProjectId,OtterPill,4F7474657250696C6C2E6B696361645F,rev?*
G04 #@! TF.SameCoordinates,Original*
G04 #@! TF.FileFunction,Legend,Bot*
G04 #@! TF.FilePolarity,Positive*
%FSLAX46Y46*%
G04 Gerber Fmt 4.6, Leading zero omitted, Abs format (unit mm)*
G04 Created by KiCad (PCBNEW 5.0.1) date Fri 18 Oct 2019 03:38:24 AM CEST*
%MOMM*%
%LPD*%
G01*
G04 APERTURE LIST*
%ADD10C,0.100000*%
%ADD11C,0.300000*%
%ADD12C,0.050000*%
%ADD13C,0.010000*%
G04 APERTURE END LIST*
D10*
X45250000Y-28983333D02*
X45250000Y-28483333D01*
X45216666Y-28383333D01*
X45150000Y-28316666D01*
X45050000Y-28283333D01*
X44983333Y-28283333D01*
X45883333Y-28283333D02*
X45883333Y-28650000D01*
X45850000Y-28716666D01*
X45783333Y-28750000D01*
X45650000Y-28750000D01*
X45583333Y-28716666D01*
X45883333Y-28316666D02*
X45816666Y-28283333D01*
X45650000Y-28283333D01*
X45583333Y-28316666D01*
X45550000Y-28383333D01*
X45550000Y-28450000D01*
X45583333Y-28516666D01*
X45650000Y-28550000D01*
X45816666Y-28550000D01*
X45883333Y-28583333D01*
X46216666Y-28750000D02*
X46216666Y-28283333D01*
X46216666Y-28683333D02*
X46250000Y-28716666D01*
X46316666Y-28750000D01*
X46416666Y-28750000D01*
X46483333Y-28716666D01*
X46516666Y-28650000D01*
X46516666Y-28283333D01*
X47383333Y-28283333D02*
X47383333Y-28983333D01*
X47383333Y-28650000D02*
X47783333Y-28650000D01*
X47783333Y-28283333D02*
X47783333Y-28983333D01*
X48383333Y-28316666D02*
X48316666Y-28283333D01*
X48183333Y-28283333D01*
X48116666Y-28316666D01*
X48083333Y-28383333D01*
X48083333Y-28650000D01*
X48116666Y-28716666D01*
X48183333Y-28750000D01*
X48316666Y-28750000D01*
X48383333Y-28716666D01*
X48416666Y-28650000D01*
X48416666Y-28583333D01*
X48083333Y-28516666D01*
X48716666Y-28750000D02*
X48716666Y-28283333D01*
X48716666Y-28683333D02*
X48749999Y-28716666D01*
X48816666Y-28750000D01*
X48916666Y-28750000D01*
X48983333Y-28716666D01*
X49016666Y-28650000D01*
X49016666Y-28283333D01*
X49349999Y-28283333D02*
X49349999Y-28750000D01*
X49349999Y-28616666D02*
X49383333Y-28683333D01*
X49416666Y-28716666D01*
X49483333Y-28750000D01*
X49549999Y-28750000D01*
X49783333Y-28283333D02*
X49783333Y-28750000D01*
X49783333Y-28983333D02*
X49749999Y-28950000D01*
X49783333Y-28916666D01*
X49816666Y-28950000D01*
X49783333Y-28983333D01*
X49783333Y-28916666D01*
X50116666Y-28283333D02*
X50116666Y-28983333D01*
X50183333Y-28550000D02*
X50383333Y-28283333D01*
X50383333Y-28750000D02*
X50116666Y-28483333D01*
X51183333Y-28916666D02*
X51216666Y-28950000D01*
X51283333Y-28983333D01*
X51449999Y-28983333D01*
X51516666Y-28950000D01*
X51549999Y-28916666D01*
X51583333Y-28850000D01*
X51583333Y-28783333D01*
X51549999Y-28683333D01*
X51149999Y-28283333D01*
X51583333Y-28283333D01*
X52016666Y-28983333D02*
X52083333Y-28983333D01*
X52149999Y-28950000D01*
X52183333Y-28916666D01*
X52216666Y-28850000D01*
X52249999Y-28716666D01*
X52249999Y-28550000D01*
X52216666Y-28416666D01*
X52183333Y-28350000D01*
X52149999Y-28316666D01*
X52083333Y-28283333D01*
X52016666Y-28283333D01*
X51949999Y-28316666D01*
X51916666Y-28350000D01*
X51883333Y-28416666D01*
X51849999Y-28550000D01*
X51849999Y-28716666D01*
X51883333Y-28850000D01*
X51916666Y-28916666D01*
X51949999Y-28950000D01*
X52016666Y-28983333D01*
X52916666Y-28283333D02*
X52516666Y-28283333D01*
X52716666Y-28283333D02*
X52716666Y-28983333D01*
X52649999Y-28883333D01*
X52583333Y-28816666D01*
X52516666Y-28783333D01*
X53249999Y-28283333D02*
X53383333Y-28283333D01*
X53449999Y-28316666D01*
X53483333Y-28350000D01*
X53549999Y-28450000D01*
X53583333Y-28583333D01*
X53583333Y-28850000D01*
X53549999Y-28916666D01*
X53516666Y-28950000D01*
X53449999Y-28983333D01*
X53316666Y-28983333D01*
X53249999Y-28950000D01*
X53216666Y-28916666D01*
X53183333Y-28850000D01*
X53183333Y-28683333D01*
X53216666Y-28616666D01*
X53249999Y-28583333D01*
X53316666Y-28550000D01*
X53449999Y-28550000D01*
X53516666Y-28583333D01*
X53549999Y-28616666D01*
X53583333Y-28683333D01*
D11*
X44061904Y-32295238D02*
X44442857Y-32295238D01*
X44633333Y-32200000D01*
X44823809Y-32009523D01*
X44919047Y-31628571D01*
X44919047Y-30961904D01*
X44823809Y-30580952D01*
X44633333Y-30390476D01*
X44442857Y-30295238D01*
X44061904Y-30295238D01*
X43871428Y-30390476D01*
X43680952Y-30580952D01*
X43585714Y-30961904D01*
X43585714Y-31628571D01*
X43680952Y-32009523D01*
X43871428Y-32200000D01*
X44061904Y-32295238D01*
X45490476Y-31628571D02*
X46252380Y-31628571D01*
X45776190Y-32295238D02*
X45776190Y-30580952D01*
X45871428Y-30390476D01*
X46061904Y-30295238D01*
X46252380Y-30295238D01*
X46633333Y-31628571D02*
X47395238Y-31628571D01*
X46919047Y-32295238D02*
X46919047Y-30580952D01*
X47014285Y-30390476D01*
X47204761Y-30295238D01*
X47395238Y-30295238D01*
X48823809Y-30390476D02*
X48633333Y-30295238D01*
X48252380Y-30295238D01*
X48061904Y-30390476D01*
X47966666Y-30580952D01*
X47966666Y-31342857D01*
X48061904Y-31533333D01*
X48252380Y-31628571D01*
X48633333Y-31628571D01*
X48823809Y-31533333D01*
X48919047Y-31342857D01*
X48919047Y-31152380D01*
X47966666Y-30961904D01*
X49776190Y-30295238D02*
X49776190Y-31628571D01*
X49776190Y-31247619D02*
X49871428Y-31438095D01*
X49966666Y-31533333D01*
X50157142Y-31628571D01*
X50347619Y-31628571D01*
X51014285Y-31628571D02*
X51014285Y-29628571D01*
X51014285Y-31533333D02*
X51204761Y-31628571D01*
X51585714Y-31628571D01*
X51776190Y-31533333D01*
X51871428Y-31438095D01*
X51966666Y-31247619D01*
X51966666Y-30676190D01*
X51871428Y-30485714D01*
X51776190Y-30390476D01*
X51585714Y-30295238D01*
X51204761Y-30295238D01*
X51014285Y-30390476D01*
X52823809Y-30295238D02*
X52823809Y-31628571D01*
X52823809Y-32295238D02*
X52728571Y-32200000D01*
X52823809Y-32104761D01*
X52919047Y-32200000D01*
X52823809Y-32295238D01*
X52823809Y-32104761D01*
X54061904Y-30295238D02*
X53871428Y-30390476D01*
X53776190Y-30580952D01*
X53776190Y-32295238D01*
X55109523Y-30295238D02*
X54919047Y-30390476D01*
X54823809Y-30580952D01*
X54823809Y-32295238D01*
D10*
X60816666Y-23983333D02*
X60816666Y-24416666D01*
X61083333Y-24183333D01*
X61083333Y-24283333D01*
X61116666Y-24350000D01*
X61150000Y-24383333D01*
X61216666Y-24416666D01*
X61383333Y-24416666D01*
X61450000Y-24383333D01*
X61483333Y-24350000D01*
X61516666Y-24283333D01*
X61516666Y-24083333D01*
X61483333Y-24016666D01*
X61450000Y-23983333D01*
X60816666Y-24616666D02*
X61516666Y-24850000D01*
X60816666Y-25083333D01*
X60816666Y-25250000D02*
X60816666Y-25683333D01*
X61083333Y-25450000D01*
X61083333Y-25550000D01*
X61116666Y-25616666D01*
X61150000Y-25650000D01*
X61216666Y-25683333D01*
X61383333Y-25683333D01*
X61450000Y-25650000D01*
X61483333Y-25616666D01*
X61516666Y-25550000D01*
X61516666Y-25350000D01*
X61483333Y-25283333D01*
X61450000Y-25250000D01*
X61516666Y-26683333D02*
X60816666Y-26683333D01*
X60816666Y-26850000D01*
X60850000Y-26950000D01*
X60916666Y-27016666D01*
X60983333Y-27050000D01*
X61116666Y-27083333D01*
X61216666Y-27083333D01*
X61350000Y-27050000D01*
X61416666Y-27016666D01*
X61483333Y-26950000D01*
X61516666Y-26850000D01*
X61516666Y-26683333D01*
X61516666Y-27383333D02*
X60816666Y-27383333D01*
X60816666Y-27850000D02*
X60816666Y-27983333D01*
X60850000Y-28050000D01*
X60916666Y-28116666D01*
X61050000Y-28150000D01*
X61283333Y-28150000D01*
X61416666Y-28116666D01*
X61483333Y-28050000D01*
X61516666Y-27983333D01*
X61516666Y-27850000D01*
X61483333Y-27783333D01*
X61416666Y-27716666D01*
X61283333Y-27683333D01*
X61050000Y-27683333D01*
X60916666Y-27716666D01*
X60850000Y-27783333D01*
X60816666Y-27850000D01*
X61450000Y-29483333D02*
X61483333Y-29450000D01*
X61516666Y-29350000D01*
X61516666Y-29283333D01*
X61483333Y-29183333D01*
X61416666Y-29116666D01*
X61350000Y-29083333D01*
X61216666Y-29050000D01*
X61116666Y-29050000D01*
X60983333Y-29083333D01*
X60916666Y-29116666D01*
X60850000Y-29183333D01*
X60816666Y-29283333D01*
X60816666Y-29350000D01*
X60850000Y-29450000D01*
X60883333Y-29483333D01*
X61516666Y-30116666D02*
X61516666Y-29783333D01*
X60816666Y-29783333D01*
X61516666Y-30350000D02*
X60816666Y-30350000D01*
X61516666Y-30750000D02*
X61116666Y-30450000D01*
X60816666Y-30750000D02*
X61216666Y-30350000D01*
X60875000Y-31966666D02*
X60841666Y-31900000D01*
X60841666Y-31800000D01*
X60875000Y-31700000D01*
X60941666Y-31633333D01*
X61008333Y-31600000D01*
X61141666Y-31566666D01*
X61241666Y-31566666D01*
X61375000Y-31600000D01*
X61441666Y-31633333D01*
X61508333Y-31700000D01*
X61541666Y-31800000D01*
X61541666Y-31866666D01*
X61508333Y-31966666D01*
X61475000Y-32000000D01*
X61241666Y-32000000D01*
X61241666Y-31866666D01*
X61541666Y-32300000D02*
X60841666Y-32300000D01*
X61541666Y-32700000D01*
X60841666Y-32700000D01*
X61541666Y-33033333D02*
X60841666Y-33033333D01*
X60841666Y-33200000D01*
X60875000Y-33300000D01*
X60941666Y-33366666D01*
X61008333Y-33400000D01*
X61141666Y-33433333D01*
X61241666Y-33433333D01*
X61375000Y-33400000D01*
X61441666Y-33366666D01*
X61508333Y-33300000D01*
X61541666Y-33200000D01*
X61541666Y-33033333D01*
X51191666Y-22850000D02*
X51125000Y-22883333D01*
X51025000Y-22883333D01*
X50925000Y-22850000D01*
X50858333Y-22783333D01*
X50825000Y-22716666D01*
X50791666Y-22583333D01*
X50791666Y-22483333D01*
X50825000Y-22350000D01*
X50858333Y-22283333D01*
X50925000Y-22216666D01*
X51025000Y-22183333D01*
X51091666Y-22183333D01*
X51191666Y-22216666D01*
X51225000Y-22250000D01*
X51225000Y-22483333D01*
X51091666Y-22483333D01*
X51525000Y-22183333D02*
X51525000Y-22883333D01*
X51925000Y-22183333D01*
X51925000Y-22883333D01*
X52258333Y-22183333D02*
X52258333Y-22883333D01*
X52425000Y-22883333D01*
X52525000Y-22850000D01*
X52591666Y-22783333D01*
X52625000Y-22716666D01*
X52658333Y-22583333D01*
X52658333Y-22483333D01*
X52625000Y-22350000D01*
X52591666Y-22283333D01*
X52525000Y-22216666D01*
X52425000Y-22183333D01*
X52258333Y-22183333D01*
X28008333Y-22183333D02*
X28008333Y-22883333D01*
X28275000Y-22883333D01*
X28341666Y-22850000D01*
X28375000Y-22816666D01*
X28408333Y-22750000D01*
X28408333Y-22650000D01*
X28375000Y-22583333D01*
X28341666Y-22550000D01*
X28275000Y-22516666D01*
X28008333Y-22516666D01*
X28941666Y-22550000D02*
X29041666Y-22516666D01*
X29075000Y-22483333D01*
X29108333Y-22416666D01*
X29108333Y-22316666D01*
X29075000Y-22250000D01*
X29041666Y-22216666D01*
X28975000Y-22183333D01*
X28708333Y-22183333D01*
X28708333Y-22883333D01*
X28941666Y-22883333D01*
X29008333Y-22850000D01*
X29041666Y-22816666D01*
X29075000Y-22750000D01*
X29075000Y-22683333D01*
X29041666Y-22616666D01*
X29008333Y-22583333D01*
X28941666Y-22550000D01*
X28708333Y-22550000D01*
X29541666Y-22883333D02*
X29608333Y-22883333D01*
X29675000Y-22850000D01*
X29708333Y-22816666D01*
X29741666Y-22750000D01*
X29775000Y-22616666D01*
X29775000Y-22450000D01*
X29741666Y-22316666D01*
X29708333Y-22250000D01*
X29675000Y-22216666D01*
X29608333Y-22183333D01*
X29541666Y-22183333D01*
X29475000Y-22216666D01*
X29441666Y-22250000D01*
X29408333Y-22316666D01*
X29375000Y-22450000D01*
X29375000Y-22616666D01*
X29408333Y-22750000D01*
X29441666Y-22816666D01*
X29475000Y-22850000D01*
X29541666Y-22883333D01*
X53408333Y-22183333D02*
X53408333Y-22883333D01*
X53675000Y-22883333D01*
X53741666Y-22850000D01*
X53775000Y-22816666D01*
X53808333Y-22750000D01*
X53808333Y-22650000D01*
X53775000Y-22583333D01*
X53741666Y-22550000D01*
X53675000Y-22516666D01*
X53408333Y-22516666D01*
X54341666Y-22550000D02*
X54441666Y-22516666D01*
X54475000Y-22483333D01*
X54508333Y-22416666D01*
X54508333Y-22316666D01*
X54475000Y-22250000D01*
X54441666Y-22216666D01*
X54375000Y-22183333D01*
X54108333Y-22183333D01*
X54108333Y-22883333D01*
X54341666Y-22883333D01*
X54408333Y-22850000D01*
X54441666Y-22816666D01*
X54475000Y-22750000D01*
X54475000Y-22683333D01*
X54441666Y-22616666D01*
X54408333Y-22583333D01*
X54341666Y-22550000D01*
X54108333Y-22550000D01*
X54841666Y-22183333D02*
X54975000Y-22183333D01*
X55041666Y-22216666D01*
X55075000Y-22250000D01*
X55141666Y-22350000D01*
X55175000Y-22483333D01*
X55175000Y-22750000D01*
X55141666Y-22816666D01*
X55108333Y-22850000D01*
X55041666Y-22883333D01*
X54908333Y-22883333D01*
X54841666Y-22850000D01*
X54808333Y-22816666D01*
X54775000Y-22750000D01*
X54775000Y-22583333D01*
X54808333Y-22516666D01*
X54841666Y-22483333D01*
X54908333Y-22450000D01*
X55041666Y-22450000D01*
X55108333Y-22483333D01*
X55141666Y-22516666D01*
X55175000Y-22583333D01*
X30200000Y-22233333D02*
X30200000Y-22933333D01*
X30466666Y-22933333D01*
X30533333Y-22900000D01*
X30566666Y-22866666D01*
X30600000Y-22800000D01*
X30600000Y-22700000D01*
X30566666Y-22633333D01*
X30533333Y-22600000D01*
X30466666Y-22566666D01*
X30200000Y-22566666D01*
X31133333Y-22600000D02*
X31233333Y-22566666D01*
X31266666Y-22533333D01*
X31300000Y-22466666D01*
X31300000Y-22366666D01*
X31266666Y-22300000D01*
X31233333Y-22266666D01*
X31166666Y-22233333D01*
X30900000Y-22233333D01*
X30900000Y-22933333D01*
X31133333Y-22933333D01*
X31200000Y-22900000D01*
X31233333Y-22866666D01*
X31266666Y-22800000D01*
X31266666Y-22733333D01*
X31233333Y-22666666D01*
X31200000Y-22633333D01*
X31133333Y-22600000D01*
X30900000Y-22600000D01*
X31966666Y-22233333D02*
X31566666Y-22233333D01*
X31766666Y-22233333D02*
X31766666Y-22933333D01*
X31700000Y-22833333D01*
X31633333Y-22766666D01*
X31566666Y-22733333D01*
X32233333Y-22866666D02*
X32266666Y-22900000D01*
X32333333Y-22933333D01*
X32500000Y-22933333D01*
X32566666Y-22900000D01*
X32600000Y-22866666D01*
X32633333Y-22800000D01*
X32633333Y-22733333D01*
X32600000Y-22633333D01*
X32200000Y-22233333D01*
X32633333Y-22233333D01*
X35658333Y-22133333D02*
X35658333Y-22833333D01*
X35925000Y-22833333D01*
X35991666Y-22800000D01*
X36025000Y-22766666D01*
X36058333Y-22700000D01*
X36058333Y-22600000D01*
X36025000Y-22533333D01*
X35991666Y-22500000D01*
X35925000Y-22466666D01*
X35658333Y-22466666D01*
X36325000Y-22333333D02*
X36658333Y-22333333D01*
X36258333Y-22133333D02*
X36491666Y-22833333D01*
X36725000Y-22133333D01*
X37258333Y-22833333D02*
X37125000Y-22833333D01*
X37058333Y-22800000D01*
X37025000Y-22766666D01*
X36958333Y-22666666D01*
X36925000Y-22533333D01*
X36925000Y-22266666D01*
X36958333Y-22200000D01*
X36991666Y-22166666D01*
X37058333Y-22133333D01*
X37191666Y-22133333D01*
X37258333Y-22166666D01*
X37291666Y-22200000D01*
X37325000Y-22266666D01*
X37325000Y-22433333D01*
X37291666Y-22500000D01*
X37258333Y-22533333D01*
X37191666Y-22566666D01*
X37058333Y-22566666D01*
X36991666Y-22533333D01*
X36958333Y-22500000D01*
X36925000Y-22433333D01*
X55675000Y-22183333D02*
X55675000Y-22883333D01*
X55941666Y-22883333D01*
X56008333Y-22850000D01*
X56041666Y-22816666D01*
X56075000Y-22750000D01*
X56075000Y-22650000D01*
X56041666Y-22583333D01*
X56008333Y-22550000D01*
X55941666Y-22516666D01*
X55675000Y-22516666D01*
X56341666Y-22383333D02*
X56675000Y-22383333D01*
X56275000Y-22183333D02*
X56508333Y-22883333D01*
X56741666Y-22183333D01*
X57341666Y-22183333D02*
X56941666Y-22183333D01*
X57141666Y-22183333D02*
X57141666Y-22883333D01*
X57075000Y-22783333D01*
X57008333Y-22716666D01*
X56941666Y-22683333D01*
X57775000Y-22883333D02*
X57841666Y-22883333D01*
X57908333Y-22850000D01*
X57941666Y-22816666D01*
X57975000Y-22750000D01*
X58008333Y-22616666D01*
X58008333Y-22450000D01*
X57975000Y-22316666D01*
X57941666Y-22250000D01*
X57908333Y-22216666D01*
X57841666Y-22183333D01*
X57775000Y-22183333D01*
X57708333Y-22216666D01*
X57675000Y-22250000D01*
X57641666Y-22316666D01*
X57608333Y-22450000D01*
X57608333Y-22616666D01*
X57641666Y-22750000D01*
X57675000Y-22816666D01*
X57708333Y-22850000D01*
X57775000Y-22883333D01*
X48383333Y-22183333D02*
X48383333Y-22883333D01*
X48650000Y-22883333D01*
X48716666Y-22850000D01*
X48750000Y-22816666D01*
X48783333Y-22750000D01*
X48783333Y-22650000D01*
X48750000Y-22583333D01*
X48716666Y-22550000D01*
X48650000Y-22516666D01*
X48383333Y-22516666D01*
X49050000Y-22383333D02*
X49383333Y-22383333D01*
X48983333Y-22183333D02*
X49216666Y-22883333D01*
X49450000Y-22183333D01*
X50050000Y-22183333D02*
X49650000Y-22183333D01*
X49850000Y-22183333D02*
X49850000Y-22883333D01*
X49783333Y-22783333D01*
X49716666Y-22716666D01*
X49650000Y-22683333D01*
X38208333Y-22183333D02*
X38208333Y-22883333D01*
X38475000Y-22883333D01*
X38541666Y-22850000D01*
X38575000Y-22816666D01*
X38608333Y-22750000D01*
X38608333Y-22650000D01*
X38575000Y-22583333D01*
X38541666Y-22550000D01*
X38475000Y-22516666D01*
X38208333Y-22516666D01*
X38875000Y-22383333D02*
X39208333Y-22383333D01*
X38808333Y-22183333D02*
X39041666Y-22883333D01*
X39275000Y-22183333D01*
X39841666Y-22883333D02*
X39508333Y-22883333D01*
X39475000Y-22550000D01*
X39508333Y-22583333D01*
X39575000Y-22616666D01*
X39741666Y-22616666D01*
X39808333Y-22583333D01*
X39841666Y-22550000D01*
X39875000Y-22483333D01*
X39875000Y-22316666D01*
X39841666Y-22250000D01*
X39808333Y-22216666D01*
X39741666Y-22183333D01*
X39575000Y-22183333D01*
X39508333Y-22216666D01*
X39475000Y-22250000D01*
X22575000Y-22183333D02*
X22575000Y-22883333D01*
X22841666Y-22883333D01*
X22908333Y-22850000D01*
X22941666Y-22816666D01*
X22975000Y-22750000D01*
X22975000Y-22650000D01*
X22941666Y-22583333D01*
X22908333Y-22550000D01*
X22841666Y-22516666D01*
X22575000Y-22516666D01*
X23508333Y-22550000D02*
X23608333Y-22516666D01*
X23641666Y-22483333D01*
X23675000Y-22416666D01*
X23675000Y-22316666D01*
X23641666Y-22250000D01*
X23608333Y-22216666D01*
X23541666Y-22183333D01*
X23275000Y-22183333D01*
X23275000Y-22883333D01*
X23508333Y-22883333D01*
X23575000Y-22850000D01*
X23608333Y-22816666D01*
X23641666Y-22750000D01*
X23641666Y-22683333D01*
X23608333Y-22616666D01*
X23575000Y-22583333D01*
X23508333Y-22550000D01*
X23275000Y-22550000D01*
X24341666Y-22183333D02*
X23941666Y-22183333D01*
X24141666Y-22183333D02*
X24141666Y-22883333D01*
X24075000Y-22783333D01*
X24008333Y-22716666D01*
X23941666Y-22683333D01*
X24941666Y-22650000D02*
X24941666Y-22183333D01*
X24775000Y-22916666D02*
X24608333Y-22416666D01*
X25041666Y-22416666D01*
X43258333Y-22183333D02*
X43258333Y-22883333D01*
X43525000Y-22883333D01*
X43591666Y-22850000D01*
X43625000Y-22816666D01*
X43658333Y-22750000D01*
X43658333Y-22650000D01*
X43625000Y-22583333D01*
X43591666Y-22550000D01*
X43525000Y-22516666D01*
X43258333Y-22516666D01*
X43925000Y-22383333D02*
X44258333Y-22383333D01*
X43858333Y-22183333D02*
X44091666Y-22883333D01*
X44325000Y-22183333D01*
X44491666Y-22883333D02*
X44925000Y-22883333D01*
X44691666Y-22616666D01*
X44791666Y-22616666D01*
X44858333Y-22583333D01*
X44891666Y-22550000D01*
X44925000Y-22483333D01*
X44925000Y-22316666D01*
X44891666Y-22250000D01*
X44858333Y-22216666D01*
X44791666Y-22183333D01*
X44591666Y-22183333D01*
X44525000Y-22216666D01*
X44491666Y-22250000D01*
X58508333Y-22183333D02*
X58508333Y-22883333D01*
X58775000Y-22883333D01*
X58841666Y-22850000D01*
X58875000Y-22816666D01*
X58908333Y-22750000D01*
X58908333Y-22650000D01*
X58875000Y-22583333D01*
X58841666Y-22550000D01*
X58775000Y-22516666D01*
X58508333Y-22516666D01*
X59175000Y-22383333D02*
X59508333Y-22383333D01*
X59108333Y-22183333D02*
X59341666Y-22883333D01*
X59575000Y-22183333D01*
X59841666Y-22183333D02*
X59975000Y-22183333D01*
X60041666Y-22216666D01*
X60075000Y-22250000D01*
X60141666Y-22350000D01*
X60175000Y-22483333D01*
X60175000Y-22750000D01*
X60141666Y-22816666D01*
X60108333Y-22850000D01*
X60041666Y-22883333D01*
X59908333Y-22883333D01*
X59841666Y-22850000D01*
X59808333Y-22816666D01*
X59775000Y-22750000D01*
X59775000Y-22583333D01*
X59808333Y-22516666D01*
X59841666Y-22483333D01*
X59908333Y-22450000D01*
X60041666Y-22450000D01*
X60108333Y-22483333D01*
X60141666Y-22516666D01*
X60175000Y-22583333D01*
X25125000Y-22183333D02*
X25125000Y-22883333D01*
X25391666Y-22883333D01*
X25458333Y-22850000D01*
X25491666Y-22816666D01*
X25525000Y-22750000D01*
X25525000Y-22650000D01*
X25491666Y-22583333D01*
X25458333Y-22550000D01*
X25391666Y-22516666D01*
X25125000Y-22516666D01*
X26058333Y-22550000D02*
X26158333Y-22516666D01*
X26191666Y-22483333D01*
X26225000Y-22416666D01*
X26225000Y-22316666D01*
X26191666Y-22250000D01*
X26158333Y-22216666D01*
X26091666Y-22183333D01*
X25825000Y-22183333D01*
X25825000Y-22883333D01*
X26058333Y-22883333D01*
X26125000Y-22850000D01*
X26158333Y-22816666D01*
X26191666Y-22750000D01*
X26191666Y-22683333D01*
X26158333Y-22616666D01*
X26125000Y-22583333D01*
X26058333Y-22550000D01*
X25825000Y-22550000D01*
X26891666Y-22183333D02*
X26491666Y-22183333D01*
X26691666Y-22183333D02*
X26691666Y-22883333D01*
X26625000Y-22783333D01*
X26558333Y-22716666D01*
X26491666Y-22683333D01*
X27525000Y-22883333D02*
X27191666Y-22883333D01*
X27158333Y-22550000D01*
X27191666Y-22583333D01*
X27258333Y-22616666D01*
X27425000Y-22616666D01*
X27491666Y-22583333D01*
X27525000Y-22550000D01*
X27558333Y-22483333D01*
X27558333Y-22316666D01*
X27525000Y-22250000D01*
X27491666Y-22216666D01*
X27425000Y-22183333D01*
X27258333Y-22183333D01*
X27191666Y-22216666D01*
X27158333Y-22250000D01*
X40733333Y-22183333D02*
X40733333Y-22883333D01*
X41000000Y-22883333D01*
X41066666Y-22850000D01*
X41100000Y-22816666D01*
X41133333Y-22750000D01*
X41133333Y-22650000D01*
X41100000Y-22583333D01*
X41066666Y-22550000D01*
X41000000Y-22516666D01*
X40733333Y-22516666D01*
X41400000Y-22383333D02*
X41733333Y-22383333D01*
X41333333Y-22183333D02*
X41566666Y-22883333D01*
X41800000Y-22183333D01*
X42333333Y-22650000D02*
X42333333Y-22183333D01*
X42166666Y-22916666D02*
X42000000Y-22416666D01*
X42433333Y-22416666D01*
X33083333Y-22183333D02*
X33083333Y-22883333D01*
X33350000Y-22883333D01*
X33416666Y-22850000D01*
X33450000Y-22816666D01*
X33483333Y-22750000D01*
X33483333Y-22650000D01*
X33450000Y-22583333D01*
X33416666Y-22550000D01*
X33350000Y-22516666D01*
X33083333Y-22516666D01*
X33750000Y-22383333D02*
X34083333Y-22383333D01*
X33683333Y-22183333D02*
X33916666Y-22883333D01*
X34150000Y-22183333D01*
X34316666Y-22883333D02*
X34783333Y-22883333D01*
X34483333Y-22183333D01*
X45783333Y-22183333D02*
X45783333Y-22883333D01*
X46050000Y-22883333D01*
X46116666Y-22850000D01*
X46150000Y-22816666D01*
X46183333Y-22750000D01*
X46183333Y-22650000D01*
X46150000Y-22583333D01*
X46116666Y-22550000D01*
X46050000Y-22516666D01*
X45783333Y-22516666D01*
X46450000Y-22383333D02*
X46783333Y-22383333D01*
X46383333Y-22183333D02*
X46616666Y-22883333D01*
X46850000Y-22183333D01*
X47050000Y-22816666D02*
X47083333Y-22850000D01*
X47150000Y-22883333D01*
X47316666Y-22883333D01*
X47383333Y-22850000D01*
X47416666Y-22816666D01*
X47450000Y-22750000D01*
X47450000Y-22683333D01*
X47416666Y-22583333D01*
X47016666Y-22183333D01*
X47450000Y-22183333D01*
X42341666Y-35041666D02*
X42341666Y-34341666D01*
X42075000Y-34341666D01*
X42008333Y-34375000D01*
X41975000Y-34408333D01*
X41941666Y-34475000D01*
X41941666Y-34575000D01*
X41975000Y-34641666D01*
X42008333Y-34675000D01*
X42075000Y-34708333D01*
X42341666Y-34708333D01*
X41408333Y-34675000D02*
X41308333Y-34708333D01*
X41275000Y-34741666D01*
X41241666Y-34808333D01*
X41241666Y-34908333D01*
X41275000Y-34975000D01*
X41308333Y-35008333D01*
X41375000Y-35041666D01*
X41641666Y-35041666D01*
X41641666Y-34341666D01*
X41408333Y-34341666D01*
X41341666Y-34375000D01*
X41308333Y-34408333D01*
X41275000Y-34475000D01*
X41275000Y-34541666D01*
X41308333Y-34608333D01*
X41341666Y-34641666D01*
X41408333Y-34675000D01*
X41641666Y-34675000D01*
X41008333Y-34341666D02*
X40541666Y-34341666D01*
X40841666Y-35041666D01*
X57258333Y-34375000D02*
X57325000Y-34341666D01*
X57425000Y-34341666D01*
X57525000Y-34375000D01*
X57591666Y-34441666D01*
X57625000Y-34508333D01*
X57658333Y-34641666D01*
X57658333Y-34741666D01*
X57625000Y-34875000D01*
X57591666Y-34941666D01*
X57525000Y-35008333D01*
X57425000Y-35041666D01*
X57358333Y-35041666D01*
X57258333Y-35008333D01*
X57225000Y-34975000D01*
X57225000Y-34741666D01*
X57358333Y-34741666D01*
X56925000Y-35041666D02*
X56925000Y-34341666D01*
X56525000Y-35041666D01*
X56525000Y-34341666D01*
X56191666Y-35041666D02*
X56191666Y-34341666D01*
X56025000Y-34341666D01*
X55925000Y-34375000D01*
X55858333Y-34441666D01*
X55825000Y-34508333D01*
X55791666Y-34641666D01*
X55791666Y-34741666D01*
X55825000Y-34875000D01*
X55858333Y-34941666D01*
X55925000Y-35008333D01*
X56025000Y-35041666D01*
X56191666Y-35041666D01*
X32141666Y-35041666D02*
X32141666Y-34341666D01*
X31875000Y-34341666D01*
X31808333Y-34375000D01*
X31775000Y-34408333D01*
X31741666Y-34475000D01*
X31741666Y-34575000D01*
X31775000Y-34641666D01*
X31808333Y-34675000D01*
X31875000Y-34708333D01*
X32141666Y-34708333D01*
X31208333Y-34675000D02*
X31108333Y-34708333D01*
X31075000Y-34741666D01*
X31041666Y-34808333D01*
X31041666Y-34908333D01*
X31075000Y-34975000D01*
X31108333Y-35008333D01*
X31175000Y-35041666D01*
X31441666Y-35041666D01*
X31441666Y-34341666D01*
X31208333Y-34341666D01*
X31141666Y-34375000D01*
X31108333Y-34408333D01*
X31075000Y-34475000D01*
X31075000Y-34541666D01*
X31108333Y-34608333D01*
X31141666Y-34641666D01*
X31208333Y-34675000D01*
X31441666Y-34675000D01*
X30375000Y-35041666D02*
X30775000Y-35041666D01*
X30575000Y-35041666D02*
X30575000Y-34341666D01*
X30641666Y-34441666D01*
X30708333Y-34508333D01*
X30775000Y-34541666D01*
X29591666Y-35041666D02*
X29591666Y-34341666D01*
X29325000Y-34341666D01*
X29258333Y-34375000D01*
X29225000Y-34408333D01*
X29191666Y-34475000D01*
X29191666Y-34575000D01*
X29225000Y-34641666D01*
X29258333Y-34675000D01*
X29325000Y-34708333D01*
X29591666Y-34708333D01*
X28925000Y-34841666D02*
X28591666Y-34841666D01*
X28991666Y-35041666D02*
X28758333Y-34341666D01*
X28525000Y-35041666D01*
X28191666Y-34641666D02*
X28258333Y-34608333D01*
X28291666Y-34575000D01*
X28325000Y-34508333D01*
X28325000Y-34475000D01*
X28291666Y-34408333D01*
X28258333Y-34375000D01*
X28191666Y-34341666D01*
X28058333Y-34341666D01*
X27991666Y-34375000D01*
X27958333Y-34408333D01*
X27925000Y-34475000D01*
X27925000Y-34508333D01*
X27958333Y-34575000D01*
X27991666Y-34608333D01*
X28058333Y-34641666D01*
X28191666Y-34641666D01*
X28258333Y-34675000D01*
X28291666Y-34708333D01*
X28325000Y-34775000D01*
X28325000Y-34908333D01*
X28291666Y-34975000D01*
X28258333Y-35008333D01*
X28191666Y-35041666D01*
X28058333Y-35041666D01*
X27991666Y-35008333D01*
X27958333Y-34975000D01*
X27925000Y-34908333D01*
X27925000Y-34775000D01*
X27958333Y-34708333D01*
X27991666Y-34675000D01*
X28058333Y-34641666D01*
X47391666Y-35041666D02*
X47391666Y-34341666D01*
X47125000Y-34341666D01*
X47058333Y-34375000D01*
X47025000Y-34408333D01*
X46991666Y-34475000D01*
X46991666Y-34575000D01*
X47025000Y-34641666D01*
X47058333Y-34675000D01*
X47125000Y-34708333D01*
X47391666Y-34708333D01*
X46458333Y-34675000D02*
X46358333Y-34708333D01*
X46325000Y-34741666D01*
X46291666Y-34808333D01*
X46291666Y-34908333D01*
X46325000Y-34975000D01*
X46358333Y-35008333D01*
X46425000Y-35041666D01*
X46691666Y-35041666D01*
X46691666Y-34341666D01*
X46458333Y-34341666D01*
X46391666Y-34375000D01*
X46358333Y-34408333D01*
X46325000Y-34475000D01*
X46325000Y-34541666D01*
X46358333Y-34608333D01*
X46391666Y-34641666D01*
X46458333Y-34675000D01*
X46691666Y-34675000D01*
X46058333Y-34341666D02*
X45625000Y-34341666D01*
X45858333Y-34608333D01*
X45758333Y-34608333D01*
X45691666Y-34641666D01*
X45658333Y-34675000D01*
X45625000Y-34741666D01*
X45625000Y-34908333D01*
X45658333Y-34975000D01*
X45691666Y-35008333D01*
X45758333Y-35041666D01*
X45958333Y-35041666D01*
X46025000Y-35008333D01*
X46058333Y-34975000D01*
X52491666Y-34341666D02*
X52058333Y-34341666D01*
X52291666Y-34608333D01*
X52191666Y-34608333D01*
X52125000Y-34641666D01*
X52091666Y-34675000D01*
X52058333Y-34741666D01*
X52058333Y-34908333D01*
X52091666Y-34975000D01*
X52125000Y-35008333D01*
X52191666Y-35041666D01*
X52391666Y-35041666D01*
X52458333Y-35008333D01*
X52491666Y-34975000D01*
X51858333Y-34341666D02*
X51625000Y-35041666D01*
X51391666Y-34341666D01*
X51225000Y-34341666D02*
X50791666Y-34341666D01*
X51025000Y-34608333D01*
X50925000Y-34608333D01*
X50858333Y-34641666D01*
X50825000Y-34675000D01*
X50791666Y-34741666D01*
X50791666Y-34908333D01*
X50825000Y-34975000D01*
X50858333Y-35008333D01*
X50925000Y-35041666D01*
X51125000Y-35041666D01*
X51191666Y-35008333D01*
X51225000Y-34975000D01*
X55041666Y-35041666D02*
X55041666Y-34341666D01*
X54775000Y-34341666D01*
X54708333Y-34375000D01*
X54675000Y-34408333D01*
X54641666Y-34475000D01*
X54641666Y-34575000D01*
X54675000Y-34641666D01*
X54708333Y-34675000D01*
X54775000Y-34708333D01*
X55041666Y-34708333D01*
X54108333Y-34675000D02*
X54008333Y-34708333D01*
X53975000Y-34741666D01*
X53941666Y-34808333D01*
X53941666Y-34908333D01*
X53975000Y-34975000D01*
X54008333Y-35008333D01*
X54075000Y-35041666D01*
X54341666Y-35041666D01*
X54341666Y-34341666D01*
X54108333Y-34341666D01*
X54041666Y-34375000D01*
X54008333Y-34408333D01*
X53975000Y-34475000D01*
X53975000Y-34541666D01*
X54008333Y-34608333D01*
X54041666Y-34641666D01*
X54108333Y-34675000D01*
X54341666Y-34675000D01*
X53308333Y-34341666D02*
X53641666Y-34341666D01*
X53675000Y-34675000D01*
X53641666Y-34641666D01*
X53575000Y-34608333D01*
X53408333Y-34608333D01*
X53341666Y-34641666D01*
X53308333Y-34675000D01*
X53275000Y-34741666D01*
X53275000Y-34908333D01*
X53308333Y-34975000D01*
X53341666Y-35008333D01*
X53408333Y-35041666D01*
X53575000Y-35041666D01*
X53641666Y-35008333D01*
X53675000Y-34975000D01*
X49941666Y-35041666D02*
X49941666Y-34341666D01*
X49675000Y-34341666D01*
X49608333Y-34375000D01*
X49575000Y-34408333D01*
X49541666Y-34475000D01*
X49541666Y-34575000D01*
X49575000Y-34641666D01*
X49608333Y-34675000D01*
X49675000Y-34708333D01*
X49941666Y-34708333D01*
X49008333Y-34675000D02*
X48908333Y-34708333D01*
X48875000Y-34741666D01*
X48841666Y-34808333D01*
X48841666Y-34908333D01*
X48875000Y-34975000D01*
X48908333Y-35008333D01*
X48975000Y-35041666D01*
X49241666Y-35041666D01*
X49241666Y-34341666D01*
X49008333Y-34341666D01*
X48941666Y-34375000D01*
X48908333Y-34408333D01*
X48875000Y-34475000D01*
X48875000Y-34541666D01*
X48908333Y-34608333D01*
X48941666Y-34641666D01*
X49008333Y-34675000D01*
X49241666Y-34675000D01*
X48241666Y-34575000D02*
X48241666Y-35041666D01*
X48408333Y-34308333D02*
X48575000Y-34808333D01*
X48141666Y-34808333D01*
X37575000Y-35041666D02*
X37575000Y-34341666D01*
X37308333Y-34341666D01*
X37241666Y-34375000D01*
X37208333Y-34408333D01*
X37175000Y-34475000D01*
X37175000Y-34575000D01*
X37208333Y-34641666D01*
X37241666Y-34675000D01*
X37308333Y-34708333D01*
X37575000Y-34708333D01*
X36908333Y-34841666D02*
X36575000Y-34841666D01*
X36975000Y-35041666D02*
X36741666Y-34341666D01*
X36508333Y-35041666D01*
X35908333Y-35041666D02*
X36308333Y-35041666D01*
X36108333Y-35041666D02*
X36108333Y-34341666D01*
X36175000Y-34441666D01*
X36241666Y-34508333D01*
X36308333Y-34541666D01*
X35275000Y-34341666D02*
X35608333Y-34341666D01*
X35641666Y-34675000D01*
X35608333Y-34641666D01*
X35541666Y-34608333D01*
X35375000Y-34608333D01*
X35308333Y-34641666D01*
X35275000Y-34675000D01*
X35241666Y-34741666D01*
X35241666Y-34908333D01*
X35275000Y-34975000D01*
X35308333Y-35008333D01*
X35375000Y-35041666D01*
X35541666Y-35041666D01*
X35608333Y-35008333D01*
X35641666Y-34975000D01*
X39791666Y-35041666D02*
X39791666Y-34341666D01*
X39525000Y-34341666D01*
X39458333Y-34375000D01*
X39425000Y-34408333D01*
X39391666Y-34475000D01*
X39391666Y-34575000D01*
X39425000Y-34641666D01*
X39458333Y-34675000D01*
X39525000Y-34708333D01*
X39791666Y-34708333D01*
X38858333Y-34675000D02*
X38758333Y-34708333D01*
X38725000Y-34741666D01*
X38691666Y-34808333D01*
X38691666Y-34908333D01*
X38725000Y-34975000D01*
X38758333Y-35008333D01*
X38825000Y-35041666D01*
X39091666Y-35041666D01*
X39091666Y-34341666D01*
X38858333Y-34341666D01*
X38791666Y-34375000D01*
X38758333Y-34408333D01*
X38725000Y-34475000D01*
X38725000Y-34541666D01*
X38758333Y-34608333D01*
X38791666Y-34641666D01*
X38858333Y-34675000D01*
X39091666Y-34675000D01*
X38425000Y-34408333D02*
X38391666Y-34375000D01*
X38325000Y-34341666D01*
X38158333Y-34341666D01*
X38091666Y-34375000D01*
X38058333Y-34408333D01*
X38025000Y-34475000D01*
X38025000Y-34541666D01*
X38058333Y-34641666D01*
X38458333Y-35041666D01*
X38025000Y-35041666D01*
X60041666Y-34341666D02*
X59808333Y-35041666D01*
X59575000Y-34341666D01*
X59341666Y-35041666D02*
X59341666Y-34341666D01*
X59008333Y-35041666D02*
X59008333Y-34341666D01*
X58608333Y-35041666D01*
X58608333Y-34341666D01*
X34691666Y-35041666D02*
X34691666Y-34341666D01*
X34425000Y-34341666D01*
X34358333Y-34375000D01*
X34325000Y-34408333D01*
X34291666Y-34475000D01*
X34291666Y-34575000D01*
X34325000Y-34641666D01*
X34358333Y-34675000D01*
X34425000Y-34708333D01*
X34691666Y-34708333D01*
X33758333Y-34675000D02*
X33658333Y-34708333D01*
X33625000Y-34741666D01*
X33591666Y-34808333D01*
X33591666Y-34908333D01*
X33625000Y-34975000D01*
X33658333Y-35008333D01*
X33725000Y-35041666D01*
X33991666Y-35041666D01*
X33991666Y-34341666D01*
X33758333Y-34341666D01*
X33691666Y-34375000D01*
X33658333Y-34408333D01*
X33625000Y-34475000D01*
X33625000Y-34541666D01*
X33658333Y-34608333D01*
X33691666Y-34641666D01*
X33758333Y-34675000D01*
X33991666Y-34675000D01*
X33191666Y-34641666D02*
X33258333Y-34608333D01*
X33291666Y-34575000D01*
X33325000Y-34508333D01*
X33325000Y-34475000D01*
X33291666Y-34408333D01*
X33258333Y-34375000D01*
X33191666Y-34341666D01*
X33058333Y-34341666D01*
X32991666Y-34375000D01*
X32958333Y-34408333D01*
X32925000Y-34475000D01*
X32925000Y-34508333D01*
X32958333Y-34575000D01*
X32991666Y-34608333D01*
X33058333Y-34641666D01*
X33191666Y-34641666D01*
X33258333Y-34675000D01*
X33291666Y-34708333D01*
X33325000Y-34775000D01*
X33325000Y-34908333D01*
X33291666Y-34975000D01*
X33258333Y-35008333D01*
X33191666Y-35041666D01*
X33058333Y-35041666D01*
X32991666Y-35008333D01*
X32958333Y-34975000D01*
X32925000Y-34908333D01*
X32925000Y-34775000D01*
X32958333Y-34708333D01*
X32991666Y-34675000D01*
X33058333Y-34641666D01*
X44891666Y-35041666D02*
X44891666Y-34341666D01*
X44625000Y-34341666D01*
X44558333Y-34375000D01*
X44525000Y-34408333D01*
X44491666Y-34475000D01*
X44491666Y-34575000D01*
X44525000Y-34641666D01*
X44558333Y-34675000D01*
X44625000Y-34708333D01*
X44891666Y-34708333D01*
X43958333Y-34675000D02*
X43858333Y-34708333D01*
X43825000Y-34741666D01*
X43791666Y-34808333D01*
X43791666Y-34908333D01*
X43825000Y-34975000D01*
X43858333Y-35008333D01*
X43925000Y-35041666D01*
X44191666Y-35041666D01*
X44191666Y-34341666D01*
X43958333Y-34341666D01*
X43891666Y-34375000D01*
X43858333Y-34408333D01*
X43825000Y-34475000D01*
X43825000Y-34541666D01*
X43858333Y-34608333D01*
X43891666Y-34641666D01*
X43958333Y-34675000D01*
X44191666Y-34675000D01*
X43458333Y-35041666D02*
X43325000Y-35041666D01*
X43258333Y-35008333D01*
X43225000Y-34975000D01*
X43158333Y-34875000D01*
X43125000Y-34741666D01*
X43125000Y-34475000D01*
X43158333Y-34408333D01*
X43191666Y-34375000D01*
X43258333Y-34341666D01*
X43391666Y-34341666D01*
X43458333Y-34375000D01*
X43491666Y-34408333D01*
X43525000Y-34475000D01*
X43525000Y-34641666D01*
X43491666Y-34708333D01*
X43458333Y-34741666D01*
X43391666Y-34775000D01*
X43258333Y-34775000D01*
X43191666Y-34741666D01*
X43158333Y-34708333D01*
X43125000Y-34641666D01*
X24875000Y-35041666D02*
X24875000Y-34341666D01*
X24608333Y-34341666D01*
X24541666Y-34375000D01*
X24508333Y-34408333D01*
X24475000Y-34475000D01*
X24475000Y-34575000D01*
X24508333Y-34641666D01*
X24541666Y-34675000D01*
X24608333Y-34708333D01*
X24875000Y-34708333D01*
X23941666Y-34675000D02*
X23841666Y-34708333D01*
X23808333Y-34741666D01*
X23775000Y-34808333D01*
X23775000Y-34908333D01*
X23808333Y-34975000D01*
X23841666Y-35008333D01*
X23908333Y-35041666D01*
X24175000Y-35041666D01*
X24175000Y-34341666D01*
X23941666Y-34341666D01*
X23875000Y-34375000D01*
X23841666Y-34408333D01*
X23808333Y-34475000D01*
X23808333Y-34541666D01*
X23841666Y-34608333D01*
X23875000Y-34641666D01*
X23941666Y-34675000D01*
X24175000Y-34675000D01*
X23108333Y-35041666D02*
X23508333Y-35041666D01*
X23308333Y-35041666D02*
X23308333Y-34341666D01*
X23375000Y-34441666D01*
X23441666Y-34508333D01*
X23508333Y-34541666D01*
X22875000Y-34341666D02*
X22441666Y-34341666D01*
X22675000Y-34608333D01*
X22575000Y-34608333D01*
X22508333Y-34641666D01*
X22475000Y-34675000D01*
X22441666Y-34741666D01*
X22441666Y-34908333D01*
X22475000Y-34975000D01*
X22508333Y-35008333D01*
X22575000Y-35041666D01*
X22775000Y-35041666D01*
X22841666Y-35008333D01*
X22875000Y-34975000D01*
X27091666Y-34341666D02*
X26658333Y-34341666D01*
X26891666Y-34608333D01*
X26791666Y-34608333D01*
X26725000Y-34641666D01*
X26691666Y-34675000D01*
X26658333Y-34741666D01*
X26658333Y-34908333D01*
X26691666Y-34975000D01*
X26725000Y-35008333D01*
X26791666Y-35041666D01*
X26991666Y-35041666D01*
X27058333Y-35008333D01*
X27091666Y-34975000D01*
X26458333Y-34341666D02*
X26225000Y-35041666D01*
X25991666Y-34341666D01*
X25825000Y-34341666D02*
X25391666Y-34341666D01*
X25625000Y-34608333D01*
X25525000Y-34608333D01*
X25458333Y-34641666D01*
X25425000Y-34675000D01*
X25391666Y-34741666D01*
X25391666Y-34908333D01*
X25425000Y-34975000D01*
X25458333Y-35008333D01*
X25525000Y-35041666D01*
X25725000Y-35041666D01*
X25791666Y-35008333D01*
X25825000Y-34975000D01*
D12*
X63200000Y-37100000D02*
G75*
G02X62900000Y-37400000I-300000J0D01*
G01*
X62900000Y-19800000D02*
G75*
G02X63200000Y-20100000I0J-300000D01*
G01*
X20000000Y-20100000D02*
G75*
G02X20300000Y-19800000I300000J0D01*
G01*
X20300000Y-37400000D02*
G75*
G02X20000000Y-37100000I0J300000D01*
G01*
X20000000Y-37100000D02*
X20000000Y-20100000D01*
X62900000Y-37400000D02*
X20300000Y-37400000D01*
X63200000Y-20100000D02*
X63200000Y-37100000D01*
X20300000Y-19800000D02*
X62900000Y-19800000D01*
D13*
G04 #@! TO.C,G\002A\002A\002A*
G36*
X26433979Y-30230858D02*
X26537797Y-30178308D01*
X26568494Y-30097835D01*
X26521696Y-29995256D01*
X26484333Y-29953334D01*
X26388388Y-29900589D01*
X26250789Y-29871475D01*
X26105313Y-29868104D01*
X25985739Y-29892588D01*
X25942466Y-29919467D01*
X25896030Y-30014777D01*
X25900027Y-30059167D01*
X26215024Y-30059167D01*
X26222162Y-30006904D01*
X26290910Y-29997912D01*
X26374794Y-30021270D01*
X26420401Y-30061080D01*
X26418091Y-30084770D01*
X26354897Y-30120578D01*
X26271697Y-30110348D01*
X26215345Y-30059987D01*
X26215024Y-30059167D01*
X25900027Y-30059167D01*
X25905713Y-30122290D01*
X25967191Y-30202192D01*
X25973550Y-30205844D01*
X26064139Y-30232135D01*
X26198112Y-30247775D01*
X26261416Y-30249667D01*
X26433979Y-30230858D01*
X26433979Y-30230858D01*
G37*
X26433979Y-30230858D02*
X26537797Y-30178308D01*
X26568494Y-30097835D01*
X26521696Y-29995256D01*
X26484333Y-29953334D01*
X26388388Y-29900589D01*
X26250789Y-29871475D01*
X26105313Y-29868104D01*
X25985739Y-29892588D01*
X25942466Y-29919467D01*
X25896030Y-30014777D01*
X25900027Y-30059167D01*
X26215024Y-30059167D01*
X26222162Y-30006904D01*
X26290910Y-29997912D01*
X26374794Y-30021270D01*
X26420401Y-30061080D01*
X26418091Y-30084770D01*
X26354897Y-30120578D01*
X26271697Y-30110348D01*
X26215345Y-30059987D01*
X26215024Y-30059167D01*
X25900027Y-30059167D01*
X25905713Y-30122290D01*
X25967191Y-30202192D01*
X25973550Y-30205844D01*
X26064139Y-30232135D01*
X26198112Y-30247775D01*
X26261416Y-30249667D01*
X26433979Y-30230858D01*
G36*
X27125688Y-30629892D02*
X27837537Y-30602771D01*
X28492250Y-30522456D01*
X28987705Y-30417544D01*
X29238704Y-30346716D01*
X29434025Y-30271079D01*
X29601975Y-30175099D01*
X29770860Y-30043240D01*
X29922480Y-29904508D01*
X30092340Y-29750412D01*
X30282792Y-29588923D01*
X30456853Y-29451241D01*
X30481648Y-29432817D01*
X30606209Y-29329998D01*
X30768871Y-29179161D01*
X30952839Y-28996748D01*
X31141319Y-28799201D01*
X31244001Y-28686501D01*
X31422853Y-28487761D01*
X31557116Y-28343481D01*
X31657825Y-28244292D01*
X31736012Y-28180821D01*
X31802714Y-28143698D01*
X31868963Y-28123551D01*
X31916732Y-28115161D01*
X32074516Y-28078512D01*
X32226595Y-28023619D01*
X32252668Y-28011183D01*
X32312907Y-27982386D01*
X32369397Y-27965488D01*
X32437632Y-27961825D01*
X32533105Y-27972732D01*
X32671310Y-27999545D01*
X32867741Y-28043601D01*
X33009558Y-28076443D01*
X33407415Y-28171719D01*
X33799795Y-28272014D01*
X34203394Y-28382028D01*
X34634909Y-28506461D01*
X35111035Y-28650010D01*
X35648468Y-28817377D01*
X35702360Y-28834384D01*
X36412216Y-29050939D01*
X37077371Y-29238362D01*
X37692681Y-29395514D01*
X38253002Y-29521259D01*
X38753190Y-29614458D01*
X39188102Y-29673975D01*
X39552593Y-29698672D01*
X39613938Y-29699334D01*
X39790566Y-29694161D01*
X40031711Y-29679868D01*
X40317936Y-29658295D01*
X40629806Y-29631281D01*
X40947881Y-29600663D01*
X41252726Y-29568282D01*
X41524903Y-29535977D01*
X41744976Y-29505586D01*
X41851333Y-29487643D01*
X42002767Y-29466758D01*
X42136570Y-29461549D01*
X42192780Y-29467175D01*
X42296226Y-29462112D01*
X42457220Y-29412057D01*
X42658447Y-29326059D01*
X42833221Y-29239307D01*
X42981538Y-29148520D01*
X43126510Y-29036740D01*
X43291249Y-28887005D01*
X43396500Y-28784458D01*
X43584011Y-28604667D01*
X43791646Y-28414515D01*
X43990635Y-28239947D01*
X44116166Y-28135442D01*
X44311290Y-27977761D01*
X44532127Y-27798110D01*
X44739242Y-27628595D01*
X44793500Y-27583945D01*
X44949748Y-27458931D01*
X45095330Y-27349110D01*
X45209661Y-27269696D01*
X45255358Y-27242636D01*
X45336661Y-27189703D01*
X45462129Y-27094110D01*
X45613419Y-26970306D01*
X45745054Y-26856837D01*
X45960427Y-26680222D01*
X46185154Y-26518980D01*
X46389105Y-26394423D01*
X46426196Y-26375061D01*
X46623891Y-26272995D01*
X46848425Y-26153004D01*
X47053518Y-26039848D01*
X47066767Y-26032361D01*
X47745093Y-25672215D01*
X48504095Y-25314542D01*
X49105698Y-25056327D01*
X49870751Y-24739846D01*
X51713625Y-24789735D01*
X52161004Y-24800559D01*
X52633229Y-24809675D01*
X53112321Y-24816891D01*
X53580302Y-24822014D01*
X54019193Y-24824849D01*
X54411016Y-24825203D01*
X54737792Y-24822884D01*
X54763000Y-24822543D01*
X55115204Y-24817346D01*
X55395791Y-24812099D01*
X55617804Y-24805654D01*
X55794283Y-24796861D01*
X55938272Y-24784571D01*
X56062812Y-24767637D01*
X56180946Y-24744908D01*
X56305716Y-24715237D01*
X56450164Y-24677474D01*
X56470066Y-24672177D01*
X56703037Y-24603927D01*
X56941519Y-24523616D01*
X57153637Y-24442492D01*
X57277774Y-24387131D01*
X57462338Y-24288300D01*
X57624712Y-24187326D01*
X57751954Y-24093849D01*
X57831122Y-24017511D01*
X57849273Y-23967953D01*
X57846201Y-23963692D01*
X57795438Y-23961117D01*
X57683116Y-23978403D01*
X57529071Y-24012100D01*
X57444034Y-24033646D01*
X57131620Y-24093156D01*
X56752867Y-24127147D01*
X56321849Y-24136590D01*
X55852641Y-24122460D01*
X55359319Y-24085729D01*
X54855959Y-24027371D01*
X54356635Y-23948358D01*
X53875422Y-23849663D01*
X53535333Y-23763441D01*
X53298221Y-23699607D01*
X53090912Y-23649690D01*
X52895821Y-23611363D01*
X52695367Y-23582301D01*
X52471966Y-23560176D01*
X52208035Y-23542663D01*
X51885990Y-23527436D01*
X51693833Y-23519805D01*
X51400173Y-23506995D01*
X51127133Y-23492078D01*
X50888625Y-23476052D01*
X50698565Y-23459915D01*
X50570865Y-23444664D01*
X50529946Y-23436348D01*
X50392984Y-23411929D01*
X50197928Y-23398387D01*
X49970589Y-23395280D01*
X49736780Y-23402167D01*
X49522311Y-23418606D01*
X49352996Y-23444155D01*
X49302000Y-23457356D01*
X49144526Y-23488888D01*
X48911917Y-23509302D01*
X48613063Y-23517869D01*
X48561166Y-23518090D01*
X48360224Y-23524093D01*
X48093489Y-23540755D01*
X47772525Y-23566693D01*
X47408897Y-23600520D01*
X47014169Y-23640854D01*
X46599905Y-23686308D01*
X46177671Y-23735498D01*
X45759030Y-23787040D01*
X45355547Y-23839548D01*
X44978786Y-23891639D01*
X44640312Y-23941926D01*
X44351689Y-23989027D01*
X44124482Y-24031555D01*
X43972184Y-24067568D01*
X43893646Y-24083550D01*
X43814947Y-24078382D01*
X43714637Y-24046460D01*
X43571265Y-23982181D01*
X43485351Y-23940404D01*
X43293389Y-23855124D01*
X43092606Y-23780644D01*
X42920202Y-23730463D01*
X42888500Y-23723783D01*
X42772119Y-23710513D01*
X42575206Y-23698978D01*
X42301879Y-23689282D01*
X41956257Y-23681529D01*
X41542458Y-23675824D01*
X41064601Y-23672269D01*
X40808197Y-23671343D01*
X40363351Y-23670497D01*
X39995512Y-23670532D01*
X39697026Y-23671712D01*
X39460237Y-23674302D01*
X39277488Y-23678564D01*
X39141123Y-23684762D01*
X39043487Y-23693159D01*
X38976924Y-23704020D01*
X38933777Y-23717607D01*
X38906390Y-23734184D01*
X38903197Y-23736920D01*
X38891472Y-23749086D01*
X38881815Y-23759794D01*
X38869039Y-23769066D01*
X38847961Y-23776921D01*
X38813395Y-23783378D01*
X38760157Y-23788459D01*
X38683061Y-23792184D01*
X38576924Y-23794571D01*
X38436559Y-23795643D01*
X38256782Y-23795418D01*
X38032408Y-23793916D01*
X37758252Y-23791159D01*
X37429129Y-23787166D01*
X37039855Y-23781957D01*
X36585244Y-23775553D01*
X36060112Y-23767972D01*
X35459274Y-23759237D01*
X34972166Y-23752175D01*
X34589421Y-23747825D01*
X34221852Y-23745884D01*
X33881167Y-23746255D01*
X33579073Y-23748839D01*
X33327277Y-23753542D01*
X33137487Y-23760264D01*
X33026571Y-23768282D01*
X32856320Y-23786397D01*
X32746385Y-23790053D01*
X32673186Y-23776202D01*
X32613145Y-23741797D01*
X32573249Y-23709702D01*
X32443034Y-23635885D01*
X32276223Y-23588424D01*
X32254010Y-23585117D01*
X32167254Y-23579179D01*
X32006281Y-23573596D01*
X31781539Y-23568528D01*
X31503479Y-23564132D01*
X31182549Y-23560567D01*
X30829198Y-23557991D01*
X30453876Y-23556563D01*
X30357833Y-23556404D01*
X29965152Y-23555839D01*
X29580272Y-23555126D01*
X29215750Y-23554300D01*
X28884146Y-23553395D01*
X28598019Y-23552447D01*
X28369929Y-23551489D01*
X28212434Y-23550557D01*
X28198833Y-23550448D01*
X27949149Y-23552091D01*
X27674528Y-23559771D01*
X27419587Y-23572048D01*
X27322054Y-23578775D01*
X27126084Y-23596639D01*
X26999385Y-23615810D01*
X26926598Y-23640070D01*
X26892363Y-23673201D01*
X26887177Y-23685865D01*
X26877984Y-23780432D01*
X26918414Y-23866050D01*
X27014975Y-23946514D01*
X27174175Y-24025620D01*
X27402519Y-24107164D01*
X27706516Y-24194943D01*
X27803744Y-24220551D01*
X28049177Y-24289348D01*
X28305611Y-24369874D01*
X28540380Y-24451425D01*
X28700516Y-24514418D01*
X29061043Y-24669299D01*
X28919736Y-24866566D01*
X28843264Y-24987913D01*
X28735800Y-25180456D01*
X28600495Y-25437913D01*
X28440501Y-25754004D01*
X28258972Y-26122449D01*
X28059058Y-26536966D01*
X27843913Y-26991275D01*
X27715872Y-27265202D01*
X27361297Y-28027237D01*
X26933398Y-28225316D01*
X26705855Y-28323608D01*
X26436681Y-28429245D01*
X26165837Y-28526956D01*
X26007711Y-28579021D01*
X25698941Y-28689165D01*
X25408377Y-28818370D01*
X25150157Y-28958508D01*
X24938419Y-29101450D01*
X24787304Y-29239067D01*
X24734197Y-29311176D01*
X24679113Y-29452421D01*
X24667790Y-29509574D01*
X24798576Y-29509574D01*
X24834086Y-29423022D01*
X24892883Y-29340917D01*
X24998888Y-29235010D01*
X25161035Y-29125120D01*
X25385907Y-29007831D01*
X25680085Y-28879726D01*
X26050154Y-28737388D01*
X26068951Y-28730500D01*
X26436912Y-28593195D01*
X26733268Y-28475695D01*
X26967420Y-28373181D01*
X27148769Y-28280837D01*
X27286719Y-28193846D01*
X27390671Y-28107390D01*
X27470027Y-28016651D01*
X27474771Y-28010198D01*
X27562934Y-27884457D01*
X27635885Y-27766483D01*
X27702771Y-27637541D01*
X27772740Y-27478899D01*
X27854942Y-27271822D01*
X27923161Y-27092010D01*
X27977878Y-26947650D01*
X28027358Y-26822642D01*
X28077318Y-26705938D01*
X28133479Y-26586489D01*
X28201560Y-26453244D01*
X28287280Y-26295155D01*
X28396359Y-26101172D01*
X28534516Y-25860245D01*
X28707469Y-25561325D01*
X28781702Y-25433339D01*
X28938723Y-25166491D01*
X29060833Y-24968235D01*
X29152445Y-24832183D01*
X29217975Y-24751946D01*
X29261836Y-24721137D01*
X29273864Y-24721095D01*
X29362120Y-24742547D01*
X29480269Y-24767929D01*
X29482403Y-24768360D01*
X29579280Y-24800521D01*
X29602352Y-24847218D01*
X29598639Y-24860120D01*
X29549322Y-25042458D01*
X29555766Y-25217146D01*
X29574597Y-25301566D01*
X29620581Y-25443961D01*
X29687499Y-25610687D01*
X29766405Y-25783868D01*
X29848353Y-25945628D01*
X29924395Y-26078092D01*
X29985586Y-26163384D01*
X30017089Y-26185667D01*
X30032729Y-26158118D01*
X30012602Y-26071771D01*
X29954971Y-25921073D01*
X29881748Y-25752792D01*
X29799501Y-25555810D01*
X29730856Y-25365682D01*
X29684456Y-25207851D01*
X29669662Y-25128375D01*
X29665091Y-25005788D01*
X29689883Y-24920574D01*
X29759040Y-24834992D01*
X29803793Y-24790946D01*
X29891574Y-24700322D01*
X29946425Y-24631568D01*
X29955666Y-24611029D01*
X29923653Y-24580059D01*
X29851630Y-24581889D01*
X29775626Y-24612078D01*
X29747121Y-24636740D01*
X29713648Y-24660101D01*
X29656770Y-24663864D01*
X29561363Y-24645475D01*
X29412298Y-24602378D01*
X29265687Y-24555408D01*
X29048485Y-24484695D01*
X28785407Y-24399405D01*
X28511208Y-24310789D01*
X28283500Y-24237445D01*
X27972687Y-24134395D01*
X27699338Y-24037577D01*
X27471676Y-23950356D01*
X27297922Y-23876100D01*
X27186298Y-23818173D01*
X27145028Y-23779942D01*
X27147894Y-23772535D01*
X27215052Y-23748591D01*
X27352725Y-23726861D01*
X27546776Y-23708006D01*
X27783070Y-23692685D01*
X28047468Y-23681560D01*
X28325835Y-23675289D01*
X28604032Y-23674534D01*
X28867924Y-23679955D01*
X29003166Y-23685879D01*
X29236546Y-23695052D01*
X29533934Y-23701485D01*
X29874710Y-23705035D01*
X30238254Y-23705558D01*
X30603947Y-23702912D01*
X30865833Y-23698789D01*
X31303062Y-23691143D01*
X31661845Y-23688381D01*
X31948337Y-23692136D01*
X32168696Y-23704044D01*
X32329080Y-23725737D01*
X32435645Y-23758851D01*
X32494548Y-23805019D01*
X32503763Y-23837255D01*
X39094451Y-23837255D01*
X39117248Y-23819795D01*
X39163166Y-23806963D01*
X39251691Y-23796825D01*
X39413313Y-23789713D01*
X39636524Y-23785424D01*
X39909816Y-23783753D01*
X40221681Y-23784496D01*
X40560611Y-23787450D01*
X40915098Y-23792410D01*
X41273635Y-23799174D01*
X41624713Y-23807535D01*
X41956824Y-23817292D01*
X42258461Y-23828240D01*
X42518115Y-23840174D01*
X42724278Y-23852892D01*
X42865442Y-23866189D01*
X42909739Y-23873351D01*
X43079917Y-23915526D01*
X43239619Y-23963677D01*
X43333073Y-23998630D01*
X43402099Y-24030505D01*
X43423698Y-24048328D01*
X43388285Y-24054118D01*
X43286275Y-24049893D01*
X43137722Y-24039771D01*
X42942199Y-24033705D01*
X42683239Y-24036851D01*
X42381415Y-24047896D01*
X42057299Y-24065526D01*
X41731465Y-24088430D01*
X41424486Y-24115296D01*
X41156934Y-24144810D01*
X40949383Y-24175661D01*
X40920000Y-24181251D01*
X40743823Y-24223375D01*
X40582058Y-24274039D01*
X40468565Y-24322578D01*
X40465204Y-24324501D01*
X40327909Y-24404472D01*
X40020704Y-24240433D01*
X39819782Y-24141568D01*
X39587985Y-24039880D01*
X39375398Y-23957335D01*
X39374833Y-23957136D01*
X39213758Y-23899195D01*
X39123459Y-23861478D01*
X39094451Y-23837255D01*
X32503763Y-23837255D01*
X32511946Y-23865876D01*
X32493997Y-23943056D01*
X32446858Y-24038192D01*
X32405373Y-24107392D01*
X32332783Y-24228416D01*
X32301075Y-24304235D01*
X32305331Y-24360854D01*
X32340629Y-24424275D01*
X32344349Y-24429966D01*
X32427775Y-24526506D01*
X32510309Y-24573325D01*
X32567788Y-24561323D01*
X32563148Y-24514611D01*
X32523629Y-24457510D01*
X32471878Y-24388067D01*
X32460414Y-24320622D01*
X32492274Y-24231525D01*
X32569750Y-24098326D01*
X32686166Y-23910752D01*
X33173000Y-23884040D01*
X33305768Y-23879790D01*
X33513768Y-23877108D01*
X33787580Y-23875955D01*
X34117783Y-23876289D01*
X34494960Y-23878072D01*
X34909688Y-23881263D01*
X35352549Y-23885820D01*
X35814123Y-23891705D01*
X36157500Y-23896816D01*
X36709684Y-23905928D01*
X37183827Y-23914670D01*
X37586550Y-23923291D01*
X37924477Y-23932045D01*
X38204230Y-23941180D01*
X38432431Y-23950949D01*
X38615702Y-23961603D01*
X38760668Y-23973393D01*
X38873949Y-23986569D01*
X38962169Y-24001383D01*
X38972666Y-24003553D01*
X39329280Y-24088548D01*
X39628461Y-24184307D01*
X39897437Y-24302612D01*
X40163434Y-24455247D01*
X40420757Y-24630251D01*
X40632402Y-24771607D01*
X40837953Y-24890026D01*
X41021710Y-24977876D01*
X41167974Y-25027523D01*
X41251178Y-25033970D01*
X41250942Y-25007389D01*
X41182191Y-24944600D01*
X41050582Y-24850225D01*
X40930583Y-24771961D01*
X40772637Y-24670544D01*
X40645186Y-24586301D01*
X40562776Y-24529003D01*
X40539000Y-24508859D01*
X40573026Y-24482715D01*
X40659225Y-24433434D01*
X40712268Y-24405660D01*
X40886697Y-24333727D01*
X41104421Y-24276049D01*
X41374731Y-24231229D01*
X41706921Y-24197874D01*
X42110280Y-24174589D01*
X42298668Y-24167621D01*
X42734681Y-24160828D01*
X43095527Y-24172352D01*
X43389121Y-24204202D01*
X43623375Y-24258387D01*
X43806205Y-24336915D01*
X43945525Y-24441796D01*
X44049248Y-24575039D01*
X44073190Y-24618090D01*
X44137367Y-24707487D01*
X44224285Y-24789656D01*
X44310503Y-24846595D01*
X44372582Y-24860300D01*
X44381529Y-24854916D01*
X44370072Y-24812769D01*
X44312247Y-24734763D01*
X44272023Y-24690768D01*
X44190702Y-24595986D01*
X44142771Y-24519088D01*
X44137333Y-24498515D01*
X44108264Y-24439180D01*
X44035299Y-24353761D01*
X44000898Y-24320614D01*
X43923347Y-24245893D01*
X43885403Y-24201412D01*
X43885639Y-24196000D01*
X43932923Y-24190402D01*
X44048556Y-24175010D01*
X44217056Y-24151932D01*
X44422945Y-24123274D01*
X44510913Y-24110915D01*
X45159966Y-24020929D01*
X45772188Y-23938891D01*
X46341750Y-23865480D01*
X46862821Y-23801369D01*
X47329570Y-23747236D01*
X47736165Y-23703755D01*
X48076777Y-23671603D01*
X48345574Y-23651455D01*
X48536725Y-23643988D01*
X48540000Y-23643971D01*
X48766031Y-23637897D01*
X48990156Y-23623088D01*
X49181793Y-23601991D01*
X49280833Y-23584658D01*
X49526183Y-23546460D01*
X49819342Y-23527008D01*
X50125404Y-23526979D01*
X50409462Y-23547053D01*
X50508500Y-23560765D01*
X50639826Y-23576798D01*
X50834210Y-23593532D01*
X51070075Y-23609432D01*
X51325842Y-23622960D01*
X51461000Y-23628602D01*
X51712027Y-23640561D01*
X51952006Y-23658160D01*
X52198279Y-23683535D01*
X52468187Y-23718823D01*
X52779074Y-23766159D01*
X53148283Y-23827680D01*
X53323666Y-23858045D01*
X53810084Y-23942343D01*
X54224619Y-24012415D01*
X54578617Y-24069558D01*
X54883428Y-24115066D01*
X55150400Y-24150233D01*
X55390881Y-24176356D01*
X55616219Y-24194728D01*
X55837763Y-24206644D01*
X56066860Y-24213400D01*
X56314858Y-24216290D01*
X56466879Y-24216703D01*
X56729242Y-24217436D01*
X56960351Y-24219218D01*
X57147762Y-24221860D01*
X57279033Y-24225170D01*
X57341721Y-24228959D01*
X57345296Y-24230131D01*
X57305918Y-24263654D01*
X57195375Y-24311289D01*
X57025271Y-24369319D01*
X56807211Y-24434029D01*
X56552797Y-24501701D01*
X56325678Y-24556683D01*
X55673166Y-24707866D01*
X53090833Y-24675351D01*
X52467235Y-24667482D01*
X51922547Y-24660664D01*
X51451016Y-24654963D01*
X51046890Y-24650444D01*
X50704418Y-24647173D01*
X50417848Y-24645215D01*
X50181428Y-24644635D01*
X49989406Y-24645500D01*
X49836031Y-24647873D01*
X49715550Y-24651821D01*
X49622212Y-24657409D01*
X49550264Y-24664703D01*
X49493956Y-24673768D01*
X49447536Y-24684669D01*
X49405251Y-24697471D01*
X49361349Y-24712241D01*
X49344333Y-24717955D01*
X49083897Y-24817244D01*
X48765669Y-24959878D01*
X48400982Y-25140313D01*
X48001171Y-25353005D01*
X47693333Y-25525629D01*
X47435099Y-25673177D01*
X47152199Y-25834335D01*
X46874425Y-25992159D01*
X46631570Y-26129705D01*
X46571500Y-26163623D01*
X46269913Y-26337030D01*
X46000326Y-26500413D01*
X45749082Y-26663668D01*
X45502528Y-26836695D01*
X45247009Y-27029392D01*
X44968871Y-27251657D01*
X44654458Y-27513388D01*
X44342552Y-27779381D01*
X44162985Y-27931547D01*
X43940124Y-28117171D01*
X43697074Y-28317183D01*
X43456942Y-28512513D01*
X43347719Y-28600437D01*
X43043918Y-28836736D01*
X42772107Y-29028451D01*
X42517009Y-29181143D01*
X42263341Y-29300374D01*
X41995824Y-29391708D01*
X41699177Y-29460705D01*
X41358121Y-29512929D01*
X40957376Y-29553941D01*
X40666000Y-29576625D01*
X40138244Y-29602880D01*
X39665235Y-29599144D01*
X39221559Y-29562684D01*
X38781804Y-29490771D01*
X38320558Y-29380672D01*
X38009539Y-29291093D01*
X37797515Y-29229881D01*
X37528954Y-29157057D01*
X37229959Y-29079439D01*
X36926629Y-29003846D01*
X36729000Y-28956561D01*
X36424671Y-28880828D01*
X36094599Y-28791314D01*
X35769018Y-28696687D01*
X35478161Y-28605610D01*
X35334545Y-28556859D01*
X35066556Y-28465838D01*
X34773727Y-28372496D01*
X34489360Y-28287107D01*
X34246755Y-28219943D01*
X34220867Y-28213301D01*
X33991489Y-28158361D01*
X33725537Y-28099906D01*
X33438842Y-28040878D01*
X33147232Y-27984216D01*
X32866539Y-27932860D01*
X32612592Y-27889750D01*
X32401222Y-27857825D01*
X32248257Y-27840026D01*
X32196433Y-27837325D01*
X32040483Y-27849996D01*
X31882148Y-27884662D01*
X31736819Y-27934346D01*
X31619888Y-27992073D01*
X31546746Y-28050867D01*
X31532784Y-28103752D01*
X31555762Y-28127704D01*
X31542713Y-28165037D01*
X31477446Y-28250390D01*
X31369582Y-28373950D01*
X31228741Y-28525904D01*
X31064545Y-28696442D01*
X30886614Y-28875749D01*
X30704568Y-29054015D01*
X30528027Y-29221426D01*
X30366613Y-29368171D01*
X30229946Y-29484437D01*
X30209666Y-29500623D01*
X30046820Y-29635109D01*
X29872015Y-29788666D01*
X29765166Y-29887986D01*
X29632670Y-30007414D01*
X29507753Y-30096115D01*
X29368185Y-30164810D01*
X29191734Y-30224222D01*
X28956169Y-30285071D01*
X28927831Y-30291807D01*
X28136485Y-30437639D01*
X27342027Y-30500665D01*
X27123828Y-30503667D01*
X26535098Y-30503667D01*
X25800632Y-30252472D01*
X25537511Y-30159375D01*
X25317944Y-30075466D01*
X25152202Y-30005012D01*
X25050556Y-29952280D01*
X25023833Y-29929717D01*
X24973322Y-29848251D01*
X24902206Y-29737717D01*
X24886249Y-29713366D01*
X24816165Y-29595021D01*
X24798576Y-29509574D01*
X24667790Y-29509574D01*
X24641130Y-29644124D01*
X24632022Y-29734509D01*
X24611839Y-30016834D01*
X25543857Y-30323750D01*
X26475876Y-30630667D01*
X27125688Y-30629892D01*
X27125688Y-30629892D01*
G37*
X27125688Y-30629892D02*
X27837537Y-30602771D01*
X28492250Y-30522456D01*
X28987705Y-30417544D01*
X29238704Y-30346716D01*
X29434025Y-30271079D01*
X29601975Y-30175099D01*
X29770860Y-30043240D01*
X29922480Y-29904508D01*
X30092340Y-29750412D01*
X30282792Y-29588923D01*
X30456853Y-29451241D01*
X30481648Y-29432817D01*
X30606209Y-29329998D01*
X30768871Y-29179161D01*
X30952839Y-28996748D01*
X31141319Y-28799201D01*
X31244001Y-28686501D01*
X31422853Y-28487761D01*
X31557116Y-28343481D01*
X31657825Y-28244292D01*
X31736012Y-28180821D01*
X31802714Y-28143698D01*
X31868963Y-28123551D01*
X31916732Y-28115161D01*
X32074516Y-28078512D01*
X32226595Y-28023619D01*
X32252668Y-28011183D01*
X32312907Y-27982386D01*
X32369397Y-27965488D01*
X32437632Y-27961825D01*
X32533105Y-27972732D01*
X32671310Y-27999545D01*
X32867741Y-28043601D01*
X33009558Y-28076443D01*
X33407415Y-28171719D01*
X33799795Y-28272014D01*
X34203394Y-28382028D01*
X34634909Y-28506461D01*
X35111035Y-28650010D01*
X35648468Y-28817377D01*
X35702360Y-28834384D01*
X36412216Y-29050939D01*
X37077371Y-29238362D01*
X37692681Y-29395514D01*
X38253002Y-29521259D01*
X38753190Y-29614458D01*
X39188102Y-29673975D01*
X39552593Y-29698672D01*
X39613938Y-29699334D01*
X39790566Y-29694161D01*
X40031711Y-29679868D01*
X40317936Y-29658295D01*
X40629806Y-29631281D01*
X40947881Y-29600663D01*
X41252726Y-29568282D01*
X41524903Y-29535977D01*
X41744976Y-29505586D01*
X41851333Y-29487643D01*
X42002767Y-29466758D01*
X42136570Y-29461549D01*
X42192780Y-29467175D01*
X42296226Y-29462112D01*
X42457220Y-29412057D01*
X42658447Y-29326059D01*
X42833221Y-29239307D01*
X42981538Y-29148520D01*
X43126510Y-29036740D01*
X43291249Y-28887005D01*
X43396500Y-28784458D01*
X43584011Y-28604667D01*
X43791646Y-28414515D01*
X43990635Y-28239947D01*
X44116166Y-28135442D01*
X44311290Y-27977761D01*
X44532127Y-27798110D01*
X44739242Y-27628595D01*
X44793500Y-27583945D01*
X44949748Y-27458931D01*
X45095330Y-27349110D01*
X45209661Y-27269696D01*
X45255358Y-27242636D01*
X45336661Y-27189703D01*
X45462129Y-27094110D01*
X45613419Y-26970306D01*
X45745054Y-26856837D01*
X45960427Y-26680222D01*
X46185154Y-26518980D01*
X46389105Y-26394423D01*
X46426196Y-26375061D01*
X46623891Y-26272995D01*
X46848425Y-26153004D01*
X47053518Y-26039848D01*
X47066767Y-26032361D01*
X47745093Y-25672215D01*
X48504095Y-25314542D01*
X49105698Y-25056327D01*
X49870751Y-24739846D01*
X51713625Y-24789735D01*
X52161004Y-24800559D01*
X52633229Y-24809675D01*
X53112321Y-24816891D01*
X53580302Y-24822014D01*
X54019193Y-24824849D01*
X54411016Y-24825203D01*
X54737792Y-24822884D01*
X54763000Y-24822543D01*
X55115204Y-24817346D01*
X55395791Y-24812099D01*
X55617804Y-24805654D01*
X55794283Y-24796861D01*
X55938272Y-24784571D01*
X56062812Y-24767637D01*
X56180946Y-24744908D01*
X56305716Y-24715237D01*
X56450164Y-24677474D01*
X56470066Y-24672177D01*
X56703037Y-24603927D01*
X56941519Y-24523616D01*
X57153637Y-24442492D01*
X57277774Y-24387131D01*
X57462338Y-24288300D01*
X57624712Y-24187326D01*
X57751954Y-24093849D01*
X57831122Y-24017511D01*
X57849273Y-23967953D01*
X57846201Y-23963692D01*
X57795438Y-23961117D01*
X57683116Y-23978403D01*
X57529071Y-24012100D01*
X57444034Y-24033646D01*
X57131620Y-24093156D01*
X56752867Y-24127147D01*
X56321849Y-24136590D01*
X55852641Y-24122460D01*
X55359319Y-24085729D01*
X54855959Y-24027371D01*
X54356635Y-23948358D01*
X53875422Y-23849663D01*
X53535333Y-23763441D01*
X53298221Y-23699607D01*
X53090912Y-23649690D01*
X52895821Y-23611363D01*
X52695367Y-23582301D01*
X52471966Y-23560176D01*
X52208035Y-23542663D01*
X51885990Y-23527436D01*
X51693833Y-23519805D01*
X51400173Y-23506995D01*
X51127133Y-23492078D01*
X50888625Y-23476052D01*
X50698565Y-23459915D01*
X50570865Y-23444664D01*
X50529946Y-23436348D01*
X50392984Y-23411929D01*
X50197928Y-23398387D01*
X49970589Y-23395280D01*
X49736780Y-23402167D01*
X49522311Y-23418606D01*
X49352996Y-23444155D01*
X49302000Y-23457356D01*
X49144526Y-23488888D01*
X48911917Y-23509302D01*
X48613063Y-23517869D01*
X48561166Y-23518090D01*
X48360224Y-23524093D01*
X48093489Y-23540755D01*
X47772525Y-23566693D01*
X47408897Y-23600520D01*
X47014169Y-23640854D01*
X46599905Y-23686308D01*
X46177671Y-23735498D01*
X45759030Y-23787040D01*
X45355547Y-23839548D01*
X44978786Y-23891639D01*
X44640312Y-23941926D01*
X44351689Y-23989027D01*
X44124482Y-24031555D01*
X43972184Y-24067568D01*
X43893646Y-24083550D01*
X43814947Y-24078382D01*
X43714637Y-24046460D01*
X43571265Y-23982181D01*
X43485351Y-23940404D01*
X43293389Y-23855124D01*
X43092606Y-23780644D01*
X42920202Y-23730463D01*
X42888500Y-23723783D01*
X42772119Y-23710513D01*
X42575206Y-23698978D01*
X42301879Y-23689282D01*
X41956257Y-23681529D01*
X41542458Y-23675824D01*
X41064601Y-23672269D01*
X40808197Y-23671343D01*
X40363351Y-23670497D01*
X39995512Y-23670532D01*
X39697026Y-23671712D01*
X39460237Y-23674302D01*
X39277488Y-23678564D01*
X39141123Y-23684762D01*
X39043487Y-23693159D01*
X38976924Y-23704020D01*
X38933777Y-23717607D01*
X38906390Y-23734184D01*
X38903197Y-23736920D01*
X38891472Y-23749086D01*
X38881815Y-23759794D01*
X38869039Y-23769066D01*
X38847961Y-23776921D01*
X38813395Y-23783378D01*
X38760157Y-23788459D01*
X38683061Y-23792184D01*
X38576924Y-23794571D01*
X38436559Y-23795643D01*
X38256782Y-23795418D01*
X38032408Y-23793916D01*
X37758252Y-23791159D01*
X37429129Y-23787166D01*
X37039855Y-23781957D01*
X36585244Y-23775553D01*
X36060112Y-23767972D01*
X35459274Y-23759237D01*
X34972166Y-23752175D01*
X34589421Y-23747825D01*
X34221852Y-23745884D01*
X33881167Y-23746255D01*
X33579073Y-23748839D01*
X33327277Y-23753542D01*
X33137487Y-23760264D01*
X33026571Y-23768282D01*
X32856320Y-23786397D01*
X32746385Y-23790053D01*
X32673186Y-23776202D01*
X32613145Y-23741797D01*
X32573249Y-23709702D01*
X32443034Y-23635885D01*
X32276223Y-23588424D01*
X32254010Y-23585117D01*
X32167254Y-23579179D01*
X32006281Y-23573596D01*
X31781539Y-23568528D01*
X31503479Y-23564132D01*
X31182549Y-23560567D01*
X30829198Y-23557991D01*
X30453876Y-23556563D01*
X30357833Y-23556404D01*
X29965152Y-23555839D01*
X29580272Y-23555126D01*
X29215750Y-23554300D01*
X28884146Y-23553395D01*
X28598019Y-23552447D01*
X28369929Y-23551489D01*
X28212434Y-23550557D01*
X28198833Y-23550448D01*
X27949149Y-23552091D01*
X27674528Y-23559771D01*
X27419587Y-23572048D01*
X27322054Y-23578775D01*
X27126084Y-23596639D01*
X26999385Y-23615810D01*
X26926598Y-23640070D01*
X26892363Y-23673201D01*
X26887177Y-23685865D01*
X26877984Y-23780432D01*
X26918414Y-23866050D01*
X27014975Y-23946514D01*
X27174175Y-24025620D01*
X27402519Y-24107164D01*
X27706516Y-24194943D01*
X27803744Y-24220551D01*
X28049177Y-24289348D01*
X28305611Y-24369874D01*
X28540380Y-24451425D01*
X28700516Y-24514418D01*
X29061043Y-24669299D01*
X28919736Y-24866566D01*
X28843264Y-24987913D01*
X28735800Y-25180456D01*
X28600495Y-25437913D01*
X28440501Y-25754004D01*
X28258972Y-26122449D01*
X28059058Y-26536966D01*
X27843913Y-26991275D01*
X27715872Y-27265202D01*
X27361297Y-28027237D01*
X26933398Y-28225316D01*
X26705855Y-28323608D01*
X26436681Y-28429245D01*
X26165837Y-28526956D01*
X26007711Y-28579021D01*
X25698941Y-28689165D01*
X25408377Y-28818370D01*
X25150157Y-28958508D01*
X24938419Y-29101450D01*
X24787304Y-29239067D01*
X24734197Y-29311176D01*
X24679113Y-29452421D01*
X24667790Y-29509574D01*
X24798576Y-29509574D01*
X24834086Y-29423022D01*
X24892883Y-29340917D01*
X24998888Y-29235010D01*
X25161035Y-29125120D01*
X25385907Y-29007831D01*
X25680085Y-28879726D01*
X26050154Y-28737388D01*
X26068951Y-28730500D01*
X26436912Y-28593195D01*
X26733268Y-28475695D01*
X26967420Y-28373181D01*
X27148769Y-28280837D01*
X27286719Y-28193846D01*
X27390671Y-28107390D01*
X27470027Y-28016651D01*
X27474771Y-28010198D01*
X27562934Y-27884457D01*
X27635885Y-27766483D01*
X27702771Y-27637541D01*
X27772740Y-27478899D01*
X27854942Y-27271822D01*
X27923161Y-27092010D01*
X27977878Y-26947650D01*
X28027358Y-26822642D01*
X28077318Y-26705938D01*
X28133479Y-26586489D01*
X28201560Y-26453244D01*
X28287280Y-26295155D01*
X28396359Y-26101172D01*
X28534516Y-25860245D01*
X28707469Y-25561325D01*
X28781702Y-25433339D01*
X28938723Y-25166491D01*
X29060833Y-24968235D01*
X29152445Y-24832183D01*
X29217975Y-24751946D01*
X29261836Y-24721137D01*
X29273864Y-24721095D01*
X29362120Y-24742547D01*
X29480269Y-24767929D01*
X29482403Y-24768360D01*
X29579280Y-24800521D01*
X29602352Y-24847218D01*
X29598639Y-24860120D01*
X29549322Y-25042458D01*
X29555766Y-25217146D01*
X29574597Y-25301566D01*
X29620581Y-25443961D01*
X29687499Y-25610687D01*
X29766405Y-25783868D01*
X29848353Y-25945628D01*
X29924395Y-26078092D01*
X29985586Y-26163384D01*
X30017089Y-26185667D01*
X30032729Y-26158118D01*
X30012602Y-26071771D01*
X29954971Y-25921073D01*
X29881748Y-25752792D01*
X29799501Y-25555810D01*
X29730856Y-25365682D01*
X29684456Y-25207851D01*
X29669662Y-25128375D01*
X29665091Y-25005788D01*
X29689883Y-24920574D01*
X29759040Y-24834992D01*
X29803793Y-24790946D01*
X29891574Y-24700322D01*
X29946425Y-24631568D01*
X29955666Y-24611029D01*
X29923653Y-24580059D01*
X29851630Y-24581889D01*
X29775626Y-24612078D01*
X29747121Y-24636740D01*
X29713648Y-24660101D01*
X29656770Y-24663864D01*
X29561363Y-24645475D01*
X29412298Y-24602378D01*
X29265687Y-24555408D01*
X29048485Y-24484695D01*
X28785407Y-24399405D01*
X28511208Y-24310789D01*
X28283500Y-24237445D01*
X27972687Y-24134395D01*
X27699338Y-24037577D01*
X27471676Y-23950356D01*
X27297922Y-23876100D01*
X27186298Y-23818173D01*
X27145028Y-23779942D01*
X27147894Y-23772535D01*
X27215052Y-23748591D01*
X27352725Y-23726861D01*
X27546776Y-23708006D01*
X27783070Y-23692685D01*
X28047468Y-23681560D01*
X28325835Y-23675289D01*
X28604032Y-23674534D01*
X28867924Y-23679955D01*
X29003166Y-23685879D01*
X29236546Y-23695052D01*
X29533934Y-23701485D01*
X29874710Y-23705035D01*
X30238254Y-23705558D01*
X30603947Y-23702912D01*
X30865833Y-23698789D01*
X31303062Y-23691143D01*
X31661845Y-23688381D01*
X31948337Y-23692136D01*
X32168696Y-23704044D01*
X32329080Y-23725737D01*
X32435645Y-23758851D01*
X32494548Y-23805019D01*
X32503763Y-23837255D01*
X39094451Y-23837255D01*
X39117248Y-23819795D01*
X39163166Y-23806963D01*
X39251691Y-23796825D01*
X39413313Y-23789713D01*
X39636524Y-23785424D01*
X39909816Y-23783753D01*
X40221681Y-23784496D01*
X40560611Y-23787450D01*
X40915098Y-23792410D01*
X41273635Y-23799174D01*
X41624713Y-23807535D01*
X41956824Y-23817292D01*
X42258461Y-23828240D01*
X42518115Y-23840174D01*
X42724278Y-23852892D01*
X42865442Y-23866189D01*
X42909739Y-23873351D01*
X43079917Y-23915526D01*
X43239619Y-23963677D01*
X43333073Y-23998630D01*
X43402099Y-24030505D01*
X43423698Y-24048328D01*
X43388285Y-24054118D01*
X43286275Y-24049893D01*
X43137722Y-24039771D01*
X42942199Y-24033705D01*
X42683239Y-24036851D01*
X42381415Y-24047896D01*
X42057299Y-24065526D01*
X41731465Y-24088430D01*
X41424486Y-24115296D01*
X41156934Y-24144810D01*
X40949383Y-24175661D01*
X40920000Y-24181251D01*
X40743823Y-24223375D01*
X40582058Y-24274039D01*
X40468565Y-24322578D01*
X40465204Y-24324501D01*
X40327909Y-24404472D01*
X40020704Y-24240433D01*
X39819782Y-24141568D01*
X39587985Y-24039880D01*
X39375398Y-23957335D01*
X39374833Y-23957136D01*
X39213758Y-23899195D01*
X39123459Y-23861478D01*
X39094451Y-23837255D01*
X32503763Y-23837255D01*
X32511946Y-23865876D01*
X32493997Y-23943056D01*
X32446858Y-24038192D01*
X32405373Y-24107392D01*
X32332783Y-24228416D01*
X32301075Y-24304235D01*
X32305331Y-24360854D01*
X32340629Y-24424275D01*
X32344349Y-24429966D01*
X32427775Y-24526506D01*
X32510309Y-24573325D01*
X32567788Y-24561323D01*
X32563148Y-24514611D01*
X32523629Y-24457510D01*
X32471878Y-24388067D01*
X32460414Y-24320622D01*
X32492274Y-24231525D01*
X32569750Y-24098326D01*
X32686166Y-23910752D01*
X33173000Y-23884040D01*
X33305768Y-23879790D01*
X33513768Y-23877108D01*
X33787580Y-23875955D01*
X34117783Y-23876289D01*
X34494960Y-23878072D01*
X34909688Y-23881263D01*
X35352549Y-23885820D01*
X35814123Y-23891705D01*
X36157500Y-23896816D01*
X36709684Y-23905928D01*
X37183827Y-23914670D01*
X37586550Y-23923291D01*
X37924477Y-23932045D01*
X38204230Y-23941180D01*
X38432431Y-23950949D01*
X38615702Y-23961603D01*
X38760668Y-23973393D01*
X38873949Y-23986569D01*
X38962169Y-24001383D01*
X38972666Y-24003553D01*
X39329280Y-24088548D01*
X39628461Y-24184307D01*
X39897437Y-24302612D01*
X40163434Y-24455247D01*
X40420757Y-24630251D01*
X40632402Y-24771607D01*
X40837953Y-24890026D01*
X41021710Y-24977876D01*
X41167974Y-25027523D01*
X41251178Y-25033970D01*
X41250942Y-25007389D01*
X41182191Y-24944600D01*
X41050582Y-24850225D01*
X40930583Y-24771961D01*
X40772637Y-24670544D01*
X40645186Y-24586301D01*
X40562776Y-24529003D01*
X40539000Y-24508859D01*
X40573026Y-24482715D01*
X40659225Y-24433434D01*
X40712268Y-24405660D01*
X40886697Y-24333727D01*
X41104421Y-24276049D01*
X41374731Y-24231229D01*
X41706921Y-24197874D01*
X42110280Y-24174589D01*
X42298668Y-24167621D01*
X42734681Y-24160828D01*
X43095527Y-24172352D01*
X43389121Y-24204202D01*
X43623375Y-24258387D01*
X43806205Y-24336915D01*
X43945525Y-24441796D01*
X44049248Y-24575039D01*
X44073190Y-24618090D01*
X44137367Y-24707487D01*
X44224285Y-24789656D01*
X44310503Y-24846595D01*
X44372582Y-24860300D01*
X44381529Y-24854916D01*
X44370072Y-24812769D01*
X44312247Y-24734763D01*
X44272023Y-24690768D01*
X44190702Y-24595986D01*
X44142771Y-24519088D01*
X44137333Y-24498515D01*
X44108264Y-24439180D01*
X44035299Y-24353761D01*
X44000898Y-24320614D01*
X43923347Y-24245893D01*
X43885403Y-24201412D01*
X43885639Y-24196000D01*
X43932923Y-24190402D01*
X44048556Y-24175010D01*
X44217056Y-24151932D01*
X44422945Y-24123274D01*
X44510913Y-24110915D01*
X45159966Y-24020929D01*
X45772188Y-23938891D01*
X46341750Y-23865480D01*
X46862821Y-23801369D01*
X47329570Y-23747236D01*
X47736165Y-23703755D01*
X48076777Y-23671603D01*
X48345574Y-23651455D01*
X48536725Y-23643988D01*
X48540000Y-23643971D01*
X48766031Y-23637897D01*
X48990156Y-23623088D01*
X49181793Y-23601991D01*
X49280833Y-23584658D01*
X49526183Y-23546460D01*
X49819342Y-23527008D01*
X50125404Y-23526979D01*
X50409462Y-23547053D01*
X50508500Y-23560765D01*
X50639826Y-23576798D01*
X50834210Y-23593532D01*
X51070075Y-23609432D01*
X51325842Y-23622960D01*
X51461000Y-23628602D01*
X51712027Y-23640561D01*
X51952006Y-23658160D01*
X52198279Y-23683535D01*
X52468187Y-23718823D01*
X52779074Y-23766159D01*
X53148283Y-23827680D01*
X53323666Y-23858045D01*
X53810084Y-23942343D01*
X54224619Y-24012415D01*
X54578617Y-24069558D01*
X54883428Y-24115066D01*
X55150400Y-24150233D01*
X55390881Y-24176356D01*
X55616219Y-24194728D01*
X55837763Y-24206644D01*
X56066860Y-24213400D01*
X56314858Y-24216290D01*
X56466879Y-24216703D01*
X56729242Y-24217436D01*
X56960351Y-24219218D01*
X57147762Y-24221860D01*
X57279033Y-24225170D01*
X57341721Y-24228959D01*
X57345296Y-24230131D01*
X57305918Y-24263654D01*
X57195375Y-24311289D01*
X57025271Y-24369319D01*
X56807211Y-24434029D01*
X56552797Y-24501701D01*
X56325678Y-24556683D01*
X55673166Y-24707866D01*
X53090833Y-24675351D01*
X52467235Y-24667482D01*
X51922547Y-24660664D01*
X51451016Y-24654963D01*
X51046890Y-24650444D01*
X50704418Y-24647173D01*
X50417848Y-24645215D01*
X50181428Y-24644635D01*
X49989406Y-24645500D01*
X49836031Y-24647873D01*
X49715550Y-24651821D01*
X49622212Y-24657409D01*
X49550264Y-24664703D01*
X49493956Y-24673768D01*
X49447536Y-24684669D01*
X49405251Y-24697471D01*
X49361349Y-24712241D01*
X49344333Y-24717955D01*
X49083897Y-24817244D01*
X48765669Y-24959878D01*
X48400982Y-25140313D01*
X48001171Y-25353005D01*
X47693333Y-25525629D01*
X47435099Y-25673177D01*
X47152199Y-25834335D01*
X46874425Y-25992159D01*
X46631570Y-26129705D01*
X46571500Y-26163623D01*
X46269913Y-26337030D01*
X46000326Y-26500413D01*
X45749082Y-26663668D01*
X45502528Y-26836695D01*
X45247009Y-27029392D01*
X44968871Y-27251657D01*
X44654458Y-27513388D01*
X44342552Y-27779381D01*
X44162985Y-27931547D01*
X43940124Y-28117171D01*
X43697074Y-28317183D01*
X43456942Y-28512513D01*
X43347719Y-28600437D01*
X43043918Y-28836736D01*
X42772107Y-29028451D01*
X42517009Y-29181143D01*
X42263341Y-29300374D01*
X41995824Y-29391708D01*
X41699177Y-29460705D01*
X41358121Y-29512929D01*
X40957376Y-29553941D01*
X40666000Y-29576625D01*
X40138244Y-29602880D01*
X39665235Y-29599144D01*
X39221559Y-29562684D01*
X38781804Y-29490771D01*
X38320558Y-29380672D01*
X38009539Y-29291093D01*
X37797515Y-29229881D01*
X37528954Y-29157057D01*
X37229959Y-29079439D01*
X36926629Y-29003846D01*
X36729000Y-28956561D01*
X36424671Y-28880828D01*
X36094599Y-28791314D01*
X35769018Y-28696687D01*
X35478161Y-28605610D01*
X35334545Y-28556859D01*
X35066556Y-28465838D01*
X34773727Y-28372496D01*
X34489360Y-28287107D01*
X34246755Y-28219943D01*
X34220867Y-28213301D01*
X33991489Y-28158361D01*
X33725537Y-28099906D01*
X33438842Y-28040878D01*
X33147232Y-27984216D01*
X32866539Y-27932860D01*
X32612592Y-27889750D01*
X32401222Y-27857825D01*
X32248257Y-27840026D01*
X32196433Y-27837325D01*
X32040483Y-27849996D01*
X31882148Y-27884662D01*
X31736819Y-27934346D01*
X31619888Y-27992073D01*
X31546746Y-28050867D01*
X31532784Y-28103752D01*
X31555762Y-28127704D01*
X31542713Y-28165037D01*
X31477446Y-28250390D01*
X31369582Y-28373950D01*
X31228741Y-28525904D01*
X31064545Y-28696442D01*
X30886614Y-28875749D01*
X30704568Y-29054015D01*
X30528027Y-29221426D01*
X30366613Y-29368171D01*
X30229946Y-29484437D01*
X30209666Y-29500623D01*
X30046820Y-29635109D01*
X29872015Y-29788666D01*
X29765166Y-29887986D01*
X29632670Y-30007414D01*
X29507753Y-30096115D01*
X29368185Y-30164810D01*
X29191734Y-30224222D01*
X28956169Y-30285071D01*
X28927831Y-30291807D01*
X28136485Y-30437639D01*
X27342027Y-30500665D01*
X27123828Y-30503667D01*
X26535098Y-30503667D01*
X25800632Y-30252472D01*
X25537511Y-30159375D01*
X25317944Y-30075466D01*
X25152202Y-30005012D01*
X25050556Y-29952280D01*
X25023833Y-29929717D01*
X24973322Y-29848251D01*
X24902206Y-29737717D01*
X24886249Y-29713366D01*
X24816165Y-29595021D01*
X24798576Y-29509574D01*
X24667790Y-29509574D01*
X24641130Y-29644124D01*
X24632022Y-29734509D01*
X24611839Y-30016834D01*
X25543857Y-30323750D01*
X26475876Y-30630667D01*
X27125688Y-30629892D01*
G04 #@! TD*
M02*
