G04 #@! TF.GenerationSoftware,KiCad,Pcbnew,5.0.1*
G04 #@! TF.CreationDate,2019-10-18T03:38:24+02:00*
G04 #@! TF.ProjectId,OtterPill,4F7474657250696C6C2E6B696361645F,rev?*
G04 #@! TF.SameCoordinates,Original*
G04 #@! TF.FileFunction,Soldermask,Top*
G04 #@! TF.FilePolarity,Negative*
%FSLAX46Y46*%
G04 Gerber Fmt 4.6, Leading zero omitted, Abs format (unit mm)*
G04 Created by KiCad (PCBNEW 5.0.1) date Fri 18 Oct 2019 03:38:24 AM CEST*
%MOMM*%
%LPD*%
G01*
G04 APERTURE LIST*
%ADD10C,0.050000*%
%ADD11C,0.100000*%
G04 APERTURE END LIST*
D10*
X63200000Y-37100000D02*
G75*
G02X62900000Y-37400000I-300000J0D01*
G01*
X62900000Y-19800000D02*
G75*
G02X63200000Y-20100000I0J-300000D01*
G01*
X20000000Y-20100000D02*
G75*
G02X20300000Y-19800000I300000J0D01*
G01*
X20300000Y-37400000D02*
G75*
G02X20000000Y-37100000I0J300000D01*
G01*
X20000000Y-37100000D02*
X20000000Y-20100000D01*
X62900000Y-37400000D02*
X20300000Y-37400000D01*
X63200000Y-20100000D02*
X63200000Y-37100000D01*
X20300000Y-19800000D02*
X62900000Y-19800000D01*
D11*
G36*
X36510443Y-35205519D02*
X36576627Y-35212037D01*
X36689853Y-35246384D01*
X36746467Y-35263557D01*
X36885087Y-35337652D01*
X36902991Y-35347222D01*
X36938729Y-35376552D01*
X37040186Y-35459814D01*
X37123448Y-35561271D01*
X37152778Y-35597009D01*
X37152779Y-35597011D01*
X37236443Y-35753533D01*
X37236443Y-35753534D01*
X37287963Y-35923373D01*
X37305359Y-36100000D01*
X37287963Y-36276627D01*
X37253616Y-36389853D01*
X37236443Y-36446467D01*
X37162348Y-36585087D01*
X37152778Y-36602991D01*
X37123448Y-36638729D01*
X37040186Y-36740186D01*
X36938729Y-36823448D01*
X36902991Y-36852778D01*
X36902989Y-36852779D01*
X36746467Y-36936443D01*
X36689853Y-36953616D01*
X36576627Y-36987963D01*
X36510443Y-36994481D01*
X36444260Y-37001000D01*
X36355740Y-37001000D01*
X36289557Y-36994481D01*
X36223373Y-36987963D01*
X36110147Y-36953616D01*
X36053533Y-36936443D01*
X35897011Y-36852779D01*
X35897009Y-36852778D01*
X35861271Y-36823448D01*
X35759814Y-36740186D01*
X35676552Y-36638729D01*
X35647222Y-36602991D01*
X35637652Y-36585087D01*
X35563557Y-36446467D01*
X35546384Y-36389853D01*
X35512037Y-36276627D01*
X35494641Y-36100000D01*
X35512037Y-35923373D01*
X35563557Y-35753534D01*
X35563557Y-35753533D01*
X35647221Y-35597011D01*
X35647222Y-35597009D01*
X35676552Y-35561271D01*
X35759814Y-35459814D01*
X35861271Y-35376552D01*
X35897009Y-35347222D01*
X35914913Y-35337652D01*
X36053533Y-35263557D01*
X36110147Y-35246384D01*
X36223373Y-35212037D01*
X36289557Y-35205519D01*
X36355740Y-35199000D01*
X36444260Y-35199000D01*
X36510443Y-35205519D01*
X36510443Y-35205519D01*
G37*
G36*
X41590443Y-35205519D02*
X41656627Y-35212037D01*
X41769853Y-35246384D01*
X41826467Y-35263557D01*
X41965087Y-35337652D01*
X41982991Y-35347222D01*
X42018729Y-35376552D01*
X42120186Y-35459814D01*
X42203448Y-35561271D01*
X42232778Y-35597009D01*
X42232779Y-35597011D01*
X42316443Y-35753533D01*
X42316443Y-35753534D01*
X42367963Y-35923373D01*
X42385359Y-36100000D01*
X42367963Y-36276627D01*
X42333616Y-36389853D01*
X42316443Y-36446467D01*
X42242348Y-36585087D01*
X42232778Y-36602991D01*
X42203448Y-36638729D01*
X42120186Y-36740186D01*
X42018729Y-36823448D01*
X41982991Y-36852778D01*
X41982989Y-36852779D01*
X41826467Y-36936443D01*
X41769853Y-36953616D01*
X41656627Y-36987963D01*
X41590443Y-36994481D01*
X41524260Y-37001000D01*
X41435740Y-37001000D01*
X41369557Y-36994481D01*
X41303373Y-36987963D01*
X41190147Y-36953616D01*
X41133533Y-36936443D01*
X40977011Y-36852779D01*
X40977009Y-36852778D01*
X40941271Y-36823448D01*
X40839814Y-36740186D01*
X40756552Y-36638729D01*
X40727222Y-36602991D01*
X40717652Y-36585087D01*
X40643557Y-36446467D01*
X40626384Y-36389853D01*
X40592037Y-36276627D01*
X40574641Y-36100000D01*
X40592037Y-35923373D01*
X40643557Y-35753534D01*
X40643557Y-35753533D01*
X40727221Y-35597011D01*
X40727222Y-35597009D01*
X40756552Y-35561271D01*
X40839814Y-35459814D01*
X40941271Y-35376552D01*
X40977009Y-35347222D01*
X40994913Y-35337652D01*
X41133533Y-35263557D01*
X41190147Y-35246384D01*
X41303373Y-35212037D01*
X41369557Y-35205519D01*
X41435740Y-35199000D01*
X41524260Y-35199000D01*
X41590443Y-35205519D01*
X41590443Y-35205519D01*
G37*
G36*
X24601000Y-37001000D02*
X22799000Y-37001000D01*
X22799000Y-35199000D01*
X24601000Y-35199000D01*
X24601000Y-37001000D01*
X24601000Y-37001000D01*
G37*
G36*
X26350443Y-35205519D02*
X26416627Y-35212037D01*
X26529853Y-35246384D01*
X26586467Y-35263557D01*
X26725087Y-35337652D01*
X26742991Y-35347222D01*
X26778729Y-35376552D01*
X26880186Y-35459814D01*
X26963448Y-35561271D01*
X26992778Y-35597009D01*
X26992779Y-35597011D01*
X27076443Y-35753533D01*
X27076443Y-35753534D01*
X27127963Y-35923373D01*
X27145359Y-36100000D01*
X27127963Y-36276627D01*
X27093616Y-36389853D01*
X27076443Y-36446467D01*
X27002348Y-36585087D01*
X26992778Y-36602991D01*
X26963448Y-36638729D01*
X26880186Y-36740186D01*
X26778729Y-36823448D01*
X26742991Y-36852778D01*
X26742989Y-36852779D01*
X26586467Y-36936443D01*
X26529853Y-36953616D01*
X26416627Y-36987963D01*
X26350443Y-36994481D01*
X26284260Y-37001000D01*
X26195740Y-37001000D01*
X26129557Y-36994481D01*
X26063373Y-36987963D01*
X25950147Y-36953616D01*
X25893533Y-36936443D01*
X25737011Y-36852779D01*
X25737009Y-36852778D01*
X25701271Y-36823448D01*
X25599814Y-36740186D01*
X25516552Y-36638729D01*
X25487222Y-36602991D01*
X25477652Y-36585087D01*
X25403557Y-36446467D01*
X25386384Y-36389853D01*
X25352037Y-36276627D01*
X25334641Y-36100000D01*
X25352037Y-35923373D01*
X25403557Y-35753534D01*
X25403557Y-35753533D01*
X25487221Y-35597011D01*
X25487222Y-35597009D01*
X25516552Y-35561271D01*
X25599814Y-35459814D01*
X25701271Y-35376552D01*
X25737009Y-35347222D01*
X25754913Y-35337652D01*
X25893533Y-35263557D01*
X25950147Y-35246384D01*
X26063373Y-35212037D01*
X26129557Y-35205519D01*
X26195740Y-35199000D01*
X26284260Y-35199000D01*
X26350443Y-35205519D01*
X26350443Y-35205519D01*
G37*
G36*
X28890443Y-35205519D02*
X28956627Y-35212037D01*
X29069853Y-35246384D01*
X29126467Y-35263557D01*
X29265087Y-35337652D01*
X29282991Y-35347222D01*
X29318729Y-35376552D01*
X29420186Y-35459814D01*
X29503448Y-35561271D01*
X29532778Y-35597009D01*
X29532779Y-35597011D01*
X29616443Y-35753533D01*
X29616443Y-35753534D01*
X29667963Y-35923373D01*
X29685359Y-36100000D01*
X29667963Y-36276627D01*
X29633616Y-36389853D01*
X29616443Y-36446467D01*
X29542348Y-36585087D01*
X29532778Y-36602991D01*
X29503448Y-36638729D01*
X29420186Y-36740186D01*
X29318729Y-36823448D01*
X29282991Y-36852778D01*
X29282989Y-36852779D01*
X29126467Y-36936443D01*
X29069853Y-36953616D01*
X28956627Y-36987963D01*
X28890443Y-36994481D01*
X28824260Y-37001000D01*
X28735740Y-37001000D01*
X28669557Y-36994481D01*
X28603373Y-36987963D01*
X28490147Y-36953616D01*
X28433533Y-36936443D01*
X28277011Y-36852779D01*
X28277009Y-36852778D01*
X28241271Y-36823448D01*
X28139814Y-36740186D01*
X28056552Y-36638729D01*
X28027222Y-36602991D01*
X28017652Y-36585087D01*
X27943557Y-36446467D01*
X27926384Y-36389853D01*
X27892037Y-36276627D01*
X27874641Y-36100000D01*
X27892037Y-35923373D01*
X27943557Y-35753534D01*
X27943557Y-35753533D01*
X28027221Y-35597011D01*
X28027222Y-35597009D01*
X28056552Y-35561271D01*
X28139814Y-35459814D01*
X28241271Y-35376552D01*
X28277009Y-35347222D01*
X28294913Y-35337652D01*
X28433533Y-35263557D01*
X28490147Y-35246384D01*
X28603373Y-35212037D01*
X28669557Y-35205519D01*
X28735740Y-35199000D01*
X28824260Y-35199000D01*
X28890443Y-35205519D01*
X28890443Y-35205519D01*
G37*
G36*
X31430443Y-35205519D02*
X31496627Y-35212037D01*
X31609853Y-35246384D01*
X31666467Y-35263557D01*
X31805087Y-35337652D01*
X31822991Y-35347222D01*
X31858729Y-35376552D01*
X31960186Y-35459814D01*
X32043448Y-35561271D01*
X32072778Y-35597009D01*
X32072779Y-35597011D01*
X32156443Y-35753533D01*
X32156443Y-35753534D01*
X32207963Y-35923373D01*
X32225359Y-36100000D01*
X32207963Y-36276627D01*
X32173616Y-36389853D01*
X32156443Y-36446467D01*
X32082348Y-36585087D01*
X32072778Y-36602991D01*
X32043448Y-36638729D01*
X31960186Y-36740186D01*
X31858729Y-36823448D01*
X31822991Y-36852778D01*
X31822989Y-36852779D01*
X31666467Y-36936443D01*
X31609853Y-36953616D01*
X31496627Y-36987963D01*
X31430443Y-36994481D01*
X31364260Y-37001000D01*
X31275740Y-37001000D01*
X31209557Y-36994481D01*
X31143373Y-36987963D01*
X31030147Y-36953616D01*
X30973533Y-36936443D01*
X30817011Y-36852779D01*
X30817009Y-36852778D01*
X30781271Y-36823448D01*
X30679814Y-36740186D01*
X30596552Y-36638729D01*
X30567222Y-36602991D01*
X30557652Y-36585087D01*
X30483557Y-36446467D01*
X30466384Y-36389853D01*
X30432037Y-36276627D01*
X30414641Y-36100000D01*
X30432037Y-35923373D01*
X30483557Y-35753534D01*
X30483557Y-35753533D01*
X30567221Y-35597011D01*
X30567222Y-35597009D01*
X30596552Y-35561271D01*
X30679814Y-35459814D01*
X30781271Y-35376552D01*
X30817009Y-35347222D01*
X30834913Y-35337652D01*
X30973533Y-35263557D01*
X31030147Y-35246384D01*
X31143373Y-35212037D01*
X31209557Y-35205519D01*
X31275740Y-35199000D01*
X31364260Y-35199000D01*
X31430443Y-35205519D01*
X31430443Y-35205519D01*
G37*
G36*
X33970443Y-35205519D02*
X34036627Y-35212037D01*
X34149853Y-35246384D01*
X34206467Y-35263557D01*
X34345087Y-35337652D01*
X34362991Y-35347222D01*
X34398729Y-35376552D01*
X34500186Y-35459814D01*
X34583448Y-35561271D01*
X34612778Y-35597009D01*
X34612779Y-35597011D01*
X34696443Y-35753533D01*
X34696443Y-35753534D01*
X34747963Y-35923373D01*
X34765359Y-36100000D01*
X34747963Y-36276627D01*
X34713616Y-36389853D01*
X34696443Y-36446467D01*
X34622348Y-36585087D01*
X34612778Y-36602991D01*
X34583448Y-36638729D01*
X34500186Y-36740186D01*
X34398729Y-36823448D01*
X34362991Y-36852778D01*
X34362989Y-36852779D01*
X34206467Y-36936443D01*
X34149853Y-36953616D01*
X34036627Y-36987963D01*
X33970443Y-36994481D01*
X33904260Y-37001000D01*
X33815740Y-37001000D01*
X33749557Y-36994481D01*
X33683373Y-36987963D01*
X33570147Y-36953616D01*
X33513533Y-36936443D01*
X33357011Y-36852779D01*
X33357009Y-36852778D01*
X33321271Y-36823448D01*
X33219814Y-36740186D01*
X33136552Y-36638729D01*
X33107222Y-36602991D01*
X33097652Y-36585087D01*
X33023557Y-36446467D01*
X33006384Y-36389853D01*
X32972037Y-36276627D01*
X32954641Y-36100000D01*
X32972037Y-35923373D01*
X33023557Y-35753534D01*
X33023557Y-35753533D01*
X33107221Y-35597011D01*
X33107222Y-35597009D01*
X33136552Y-35561271D01*
X33219814Y-35459814D01*
X33321271Y-35376552D01*
X33357009Y-35347222D01*
X33374913Y-35337652D01*
X33513533Y-35263557D01*
X33570147Y-35246384D01*
X33683373Y-35212037D01*
X33749557Y-35205519D01*
X33815740Y-35199000D01*
X33904260Y-35199000D01*
X33970443Y-35205519D01*
X33970443Y-35205519D01*
G37*
G36*
X39050443Y-35205519D02*
X39116627Y-35212037D01*
X39229853Y-35246384D01*
X39286467Y-35263557D01*
X39425087Y-35337652D01*
X39442991Y-35347222D01*
X39478729Y-35376552D01*
X39580186Y-35459814D01*
X39663448Y-35561271D01*
X39692778Y-35597009D01*
X39692779Y-35597011D01*
X39776443Y-35753533D01*
X39776443Y-35753534D01*
X39827963Y-35923373D01*
X39845359Y-36100000D01*
X39827963Y-36276627D01*
X39793616Y-36389853D01*
X39776443Y-36446467D01*
X39702348Y-36585087D01*
X39692778Y-36602991D01*
X39663448Y-36638729D01*
X39580186Y-36740186D01*
X39478729Y-36823448D01*
X39442991Y-36852778D01*
X39442989Y-36852779D01*
X39286467Y-36936443D01*
X39229853Y-36953616D01*
X39116627Y-36987963D01*
X39050443Y-36994481D01*
X38984260Y-37001000D01*
X38895740Y-37001000D01*
X38829557Y-36994481D01*
X38763373Y-36987963D01*
X38650147Y-36953616D01*
X38593533Y-36936443D01*
X38437011Y-36852779D01*
X38437009Y-36852778D01*
X38401271Y-36823448D01*
X38299814Y-36740186D01*
X38216552Y-36638729D01*
X38187222Y-36602991D01*
X38177652Y-36585087D01*
X38103557Y-36446467D01*
X38086384Y-36389853D01*
X38052037Y-36276627D01*
X38034641Y-36100000D01*
X38052037Y-35923373D01*
X38103557Y-35753534D01*
X38103557Y-35753533D01*
X38187221Y-35597011D01*
X38187222Y-35597009D01*
X38216552Y-35561271D01*
X38299814Y-35459814D01*
X38401271Y-35376552D01*
X38437009Y-35347222D01*
X38454913Y-35337652D01*
X38593533Y-35263557D01*
X38650147Y-35246384D01*
X38763373Y-35212037D01*
X38829557Y-35205519D01*
X38895740Y-35199000D01*
X38984260Y-35199000D01*
X39050443Y-35205519D01*
X39050443Y-35205519D01*
G37*
G36*
X44130443Y-35205519D02*
X44196627Y-35212037D01*
X44309853Y-35246384D01*
X44366467Y-35263557D01*
X44505087Y-35337652D01*
X44522991Y-35347222D01*
X44558729Y-35376552D01*
X44660186Y-35459814D01*
X44743448Y-35561271D01*
X44772778Y-35597009D01*
X44772779Y-35597011D01*
X44856443Y-35753533D01*
X44856443Y-35753534D01*
X44907963Y-35923373D01*
X44925359Y-36100000D01*
X44907963Y-36276627D01*
X44873616Y-36389853D01*
X44856443Y-36446467D01*
X44782348Y-36585087D01*
X44772778Y-36602991D01*
X44743448Y-36638729D01*
X44660186Y-36740186D01*
X44558729Y-36823448D01*
X44522991Y-36852778D01*
X44522989Y-36852779D01*
X44366467Y-36936443D01*
X44309853Y-36953616D01*
X44196627Y-36987963D01*
X44130443Y-36994481D01*
X44064260Y-37001000D01*
X43975740Y-37001000D01*
X43909557Y-36994481D01*
X43843373Y-36987963D01*
X43730147Y-36953616D01*
X43673533Y-36936443D01*
X43517011Y-36852779D01*
X43517009Y-36852778D01*
X43481271Y-36823448D01*
X43379814Y-36740186D01*
X43296552Y-36638729D01*
X43267222Y-36602991D01*
X43257652Y-36585087D01*
X43183557Y-36446467D01*
X43166384Y-36389853D01*
X43132037Y-36276627D01*
X43114641Y-36100000D01*
X43132037Y-35923373D01*
X43183557Y-35753534D01*
X43183557Y-35753533D01*
X43267221Y-35597011D01*
X43267222Y-35597009D01*
X43296552Y-35561271D01*
X43379814Y-35459814D01*
X43481271Y-35376552D01*
X43517009Y-35347222D01*
X43534913Y-35337652D01*
X43673533Y-35263557D01*
X43730147Y-35246384D01*
X43843373Y-35212037D01*
X43909557Y-35205519D01*
X43975740Y-35199000D01*
X44064260Y-35199000D01*
X44130443Y-35205519D01*
X44130443Y-35205519D01*
G37*
G36*
X46670443Y-35205519D02*
X46736627Y-35212037D01*
X46849853Y-35246384D01*
X46906467Y-35263557D01*
X47045087Y-35337652D01*
X47062991Y-35347222D01*
X47098729Y-35376552D01*
X47200186Y-35459814D01*
X47283448Y-35561271D01*
X47312778Y-35597009D01*
X47312779Y-35597011D01*
X47396443Y-35753533D01*
X47396443Y-35753534D01*
X47447963Y-35923373D01*
X47465359Y-36100000D01*
X47447963Y-36276627D01*
X47413616Y-36389853D01*
X47396443Y-36446467D01*
X47322348Y-36585087D01*
X47312778Y-36602991D01*
X47283448Y-36638729D01*
X47200186Y-36740186D01*
X47098729Y-36823448D01*
X47062991Y-36852778D01*
X47062989Y-36852779D01*
X46906467Y-36936443D01*
X46849853Y-36953616D01*
X46736627Y-36987963D01*
X46670443Y-36994481D01*
X46604260Y-37001000D01*
X46515740Y-37001000D01*
X46449557Y-36994481D01*
X46383373Y-36987963D01*
X46270147Y-36953616D01*
X46213533Y-36936443D01*
X46057011Y-36852779D01*
X46057009Y-36852778D01*
X46021271Y-36823448D01*
X45919814Y-36740186D01*
X45836552Y-36638729D01*
X45807222Y-36602991D01*
X45797652Y-36585087D01*
X45723557Y-36446467D01*
X45706384Y-36389853D01*
X45672037Y-36276627D01*
X45654641Y-36100000D01*
X45672037Y-35923373D01*
X45723557Y-35753534D01*
X45723557Y-35753533D01*
X45807221Y-35597011D01*
X45807222Y-35597009D01*
X45836552Y-35561271D01*
X45919814Y-35459814D01*
X46021271Y-35376552D01*
X46057009Y-35347222D01*
X46074913Y-35337652D01*
X46213533Y-35263557D01*
X46270147Y-35246384D01*
X46383373Y-35212037D01*
X46449557Y-35205519D01*
X46515740Y-35199000D01*
X46604260Y-35199000D01*
X46670443Y-35205519D01*
X46670443Y-35205519D01*
G37*
G36*
X49210443Y-35205519D02*
X49276627Y-35212037D01*
X49389853Y-35246384D01*
X49446467Y-35263557D01*
X49585087Y-35337652D01*
X49602991Y-35347222D01*
X49638729Y-35376552D01*
X49740186Y-35459814D01*
X49823448Y-35561271D01*
X49852778Y-35597009D01*
X49852779Y-35597011D01*
X49936443Y-35753533D01*
X49936443Y-35753534D01*
X49987963Y-35923373D01*
X50005359Y-36100000D01*
X49987963Y-36276627D01*
X49953616Y-36389853D01*
X49936443Y-36446467D01*
X49862348Y-36585087D01*
X49852778Y-36602991D01*
X49823448Y-36638729D01*
X49740186Y-36740186D01*
X49638729Y-36823448D01*
X49602991Y-36852778D01*
X49602989Y-36852779D01*
X49446467Y-36936443D01*
X49389853Y-36953616D01*
X49276627Y-36987963D01*
X49210443Y-36994481D01*
X49144260Y-37001000D01*
X49055740Y-37001000D01*
X48989557Y-36994481D01*
X48923373Y-36987963D01*
X48810147Y-36953616D01*
X48753533Y-36936443D01*
X48597011Y-36852779D01*
X48597009Y-36852778D01*
X48561271Y-36823448D01*
X48459814Y-36740186D01*
X48376552Y-36638729D01*
X48347222Y-36602991D01*
X48337652Y-36585087D01*
X48263557Y-36446467D01*
X48246384Y-36389853D01*
X48212037Y-36276627D01*
X48194641Y-36100000D01*
X48212037Y-35923373D01*
X48263557Y-35753534D01*
X48263557Y-35753533D01*
X48347221Y-35597011D01*
X48347222Y-35597009D01*
X48376552Y-35561271D01*
X48459814Y-35459814D01*
X48561271Y-35376552D01*
X48597009Y-35347222D01*
X48614913Y-35337652D01*
X48753533Y-35263557D01*
X48810147Y-35246384D01*
X48923373Y-35212037D01*
X48989557Y-35205519D01*
X49055740Y-35199000D01*
X49144260Y-35199000D01*
X49210443Y-35205519D01*
X49210443Y-35205519D01*
G37*
G36*
X51750443Y-35205519D02*
X51816627Y-35212037D01*
X51929853Y-35246384D01*
X51986467Y-35263557D01*
X52125087Y-35337652D01*
X52142991Y-35347222D01*
X52178729Y-35376552D01*
X52280186Y-35459814D01*
X52363448Y-35561271D01*
X52392778Y-35597009D01*
X52392779Y-35597011D01*
X52476443Y-35753533D01*
X52476443Y-35753534D01*
X52527963Y-35923373D01*
X52545359Y-36100000D01*
X52527963Y-36276627D01*
X52493616Y-36389853D01*
X52476443Y-36446467D01*
X52402348Y-36585087D01*
X52392778Y-36602991D01*
X52363448Y-36638729D01*
X52280186Y-36740186D01*
X52178729Y-36823448D01*
X52142991Y-36852778D01*
X52142989Y-36852779D01*
X51986467Y-36936443D01*
X51929853Y-36953616D01*
X51816627Y-36987963D01*
X51750443Y-36994481D01*
X51684260Y-37001000D01*
X51595740Y-37001000D01*
X51529557Y-36994481D01*
X51463373Y-36987963D01*
X51350147Y-36953616D01*
X51293533Y-36936443D01*
X51137011Y-36852779D01*
X51137009Y-36852778D01*
X51101271Y-36823448D01*
X50999814Y-36740186D01*
X50916552Y-36638729D01*
X50887222Y-36602991D01*
X50877652Y-36585087D01*
X50803557Y-36446467D01*
X50786384Y-36389853D01*
X50752037Y-36276627D01*
X50734641Y-36100000D01*
X50752037Y-35923373D01*
X50803557Y-35753534D01*
X50803557Y-35753533D01*
X50887221Y-35597011D01*
X50887222Y-35597009D01*
X50916552Y-35561271D01*
X50999814Y-35459814D01*
X51101271Y-35376552D01*
X51137009Y-35347222D01*
X51154913Y-35337652D01*
X51293533Y-35263557D01*
X51350147Y-35246384D01*
X51463373Y-35212037D01*
X51529557Y-35205519D01*
X51595740Y-35199000D01*
X51684260Y-35199000D01*
X51750443Y-35205519D01*
X51750443Y-35205519D01*
G37*
G36*
X54290443Y-35205519D02*
X54356627Y-35212037D01*
X54469853Y-35246384D01*
X54526467Y-35263557D01*
X54665087Y-35337652D01*
X54682991Y-35347222D01*
X54718729Y-35376552D01*
X54820186Y-35459814D01*
X54903448Y-35561271D01*
X54932778Y-35597009D01*
X54932779Y-35597011D01*
X55016443Y-35753533D01*
X55016443Y-35753534D01*
X55067963Y-35923373D01*
X55085359Y-36100000D01*
X55067963Y-36276627D01*
X55033616Y-36389853D01*
X55016443Y-36446467D01*
X54942348Y-36585087D01*
X54932778Y-36602991D01*
X54903448Y-36638729D01*
X54820186Y-36740186D01*
X54718729Y-36823448D01*
X54682991Y-36852778D01*
X54682989Y-36852779D01*
X54526467Y-36936443D01*
X54469853Y-36953616D01*
X54356627Y-36987963D01*
X54290443Y-36994481D01*
X54224260Y-37001000D01*
X54135740Y-37001000D01*
X54069557Y-36994481D01*
X54003373Y-36987963D01*
X53890147Y-36953616D01*
X53833533Y-36936443D01*
X53677011Y-36852779D01*
X53677009Y-36852778D01*
X53641271Y-36823448D01*
X53539814Y-36740186D01*
X53456552Y-36638729D01*
X53427222Y-36602991D01*
X53417652Y-36585087D01*
X53343557Y-36446467D01*
X53326384Y-36389853D01*
X53292037Y-36276627D01*
X53274641Y-36100000D01*
X53292037Y-35923373D01*
X53343557Y-35753534D01*
X53343557Y-35753533D01*
X53427221Y-35597011D01*
X53427222Y-35597009D01*
X53456552Y-35561271D01*
X53539814Y-35459814D01*
X53641271Y-35376552D01*
X53677009Y-35347222D01*
X53694913Y-35337652D01*
X53833533Y-35263557D01*
X53890147Y-35246384D01*
X54003373Y-35212037D01*
X54069557Y-35205519D01*
X54135740Y-35199000D01*
X54224260Y-35199000D01*
X54290443Y-35205519D01*
X54290443Y-35205519D01*
G37*
G36*
X56830443Y-35205519D02*
X56896627Y-35212037D01*
X57009853Y-35246384D01*
X57066467Y-35263557D01*
X57205087Y-35337652D01*
X57222991Y-35347222D01*
X57258729Y-35376552D01*
X57360186Y-35459814D01*
X57443448Y-35561271D01*
X57472778Y-35597009D01*
X57472779Y-35597011D01*
X57556443Y-35753533D01*
X57556443Y-35753534D01*
X57607963Y-35923373D01*
X57625359Y-36100000D01*
X57607963Y-36276627D01*
X57573616Y-36389853D01*
X57556443Y-36446467D01*
X57482348Y-36585087D01*
X57472778Y-36602991D01*
X57443448Y-36638729D01*
X57360186Y-36740186D01*
X57258729Y-36823448D01*
X57222991Y-36852778D01*
X57222989Y-36852779D01*
X57066467Y-36936443D01*
X57009853Y-36953616D01*
X56896627Y-36987963D01*
X56830443Y-36994481D01*
X56764260Y-37001000D01*
X56675740Y-37001000D01*
X56609557Y-36994481D01*
X56543373Y-36987963D01*
X56430147Y-36953616D01*
X56373533Y-36936443D01*
X56217011Y-36852779D01*
X56217009Y-36852778D01*
X56181271Y-36823448D01*
X56079814Y-36740186D01*
X55996552Y-36638729D01*
X55967222Y-36602991D01*
X55957652Y-36585087D01*
X55883557Y-36446467D01*
X55866384Y-36389853D01*
X55832037Y-36276627D01*
X55814641Y-36100000D01*
X55832037Y-35923373D01*
X55883557Y-35753534D01*
X55883557Y-35753533D01*
X55967221Y-35597011D01*
X55967222Y-35597009D01*
X55996552Y-35561271D01*
X56079814Y-35459814D01*
X56181271Y-35376552D01*
X56217009Y-35347222D01*
X56234913Y-35337652D01*
X56373533Y-35263557D01*
X56430147Y-35246384D01*
X56543373Y-35212037D01*
X56609557Y-35205519D01*
X56675740Y-35199000D01*
X56764260Y-35199000D01*
X56830443Y-35205519D01*
X56830443Y-35205519D01*
G37*
G36*
X59370443Y-35205519D02*
X59436627Y-35212037D01*
X59549853Y-35246384D01*
X59606467Y-35263557D01*
X59745087Y-35337652D01*
X59762991Y-35347222D01*
X59798729Y-35376552D01*
X59900186Y-35459814D01*
X59983448Y-35561271D01*
X60012778Y-35597009D01*
X60012779Y-35597011D01*
X60096443Y-35753533D01*
X60096443Y-35753534D01*
X60147963Y-35923373D01*
X60165359Y-36100000D01*
X60147963Y-36276627D01*
X60113616Y-36389853D01*
X60096443Y-36446467D01*
X60022348Y-36585087D01*
X60012778Y-36602991D01*
X59983448Y-36638729D01*
X59900186Y-36740186D01*
X59798729Y-36823448D01*
X59762991Y-36852778D01*
X59762989Y-36852779D01*
X59606467Y-36936443D01*
X59549853Y-36953616D01*
X59436627Y-36987963D01*
X59370443Y-36994481D01*
X59304260Y-37001000D01*
X59215740Y-37001000D01*
X59149557Y-36994481D01*
X59083373Y-36987963D01*
X58970147Y-36953616D01*
X58913533Y-36936443D01*
X58757011Y-36852779D01*
X58757009Y-36852778D01*
X58721271Y-36823448D01*
X58619814Y-36740186D01*
X58536552Y-36638729D01*
X58507222Y-36602991D01*
X58497652Y-36585087D01*
X58423557Y-36446467D01*
X58406384Y-36389853D01*
X58372037Y-36276627D01*
X58354641Y-36100000D01*
X58372037Y-35923373D01*
X58423557Y-35753534D01*
X58423557Y-35753533D01*
X58507221Y-35597011D01*
X58507222Y-35597009D01*
X58536552Y-35561271D01*
X58619814Y-35459814D01*
X58721271Y-35376552D01*
X58757009Y-35347222D01*
X58774913Y-35337652D01*
X58913533Y-35263557D01*
X58970147Y-35246384D01*
X59083373Y-35212037D01*
X59149557Y-35205519D01*
X59215740Y-35199000D01*
X59304260Y-35199000D01*
X59370443Y-35205519D01*
X59370443Y-35205519D01*
G37*
G36*
X41725010Y-33727385D02*
X41745628Y-33733639D01*
X41764628Y-33743795D01*
X41786053Y-33761378D01*
X42110410Y-34085735D01*
X42127993Y-34107160D01*
X42138149Y-34126160D01*
X42144403Y-34146778D01*
X42146514Y-34168216D01*
X42144403Y-34189654D01*
X42138149Y-34210272D01*
X42127993Y-34229272D01*
X42110410Y-34250697D01*
X41750697Y-34610410D01*
X41729272Y-34627993D01*
X41710272Y-34638149D01*
X41689654Y-34644403D01*
X41668216Y-34646514D01*
X41646778Y-34644403D01*
X41626160Y-34638149D01*
X41607160Y-34627993D01*
X41585735Y-34610410D01*
X41261378Y-34286053D01*
X41243795Y-34264628D01*
X41233639Y-34245628D01*
X41227385Y-34225010D01*
X41225274Y-34203572D01*
X41227385Y-34182134D01*
X41233639Y-34161516D01*
X41243795Y-34142516D01*
X41261378Y-34121091D01*
X41621091Y-33761378D01*
X41642516Y-33743795D01*
X41661516Y-33733639D01*
X41682134Y-33727385D01*
X41703572Y-33725274D01*
X41725010Y-33727385D01*
X41725010Y-33727385D01*
G37*
G36*
X29629591Y-33078085D02*
X29663569Y-33088393D01*
X29694887Y-33105133D01*
X29722339Y-33127661D01*
X29744867Y-33155113D01*
X29761607Y-33186431D01*
X29771915Y-33220409D01*
X29776000Y-33261890D01*
X29776000Y-33938110D01*
X29771915Y-33979591D01*
X29761607Y-34013569D01*
X29744867Y-34044887D01*
X29722339Y-34072339D01*
X29694887Y-34094867D01*
X29663569Y-34111607D01*
X29629591Y-34121915D01*
X29588110Y-34126000D01*
X28986890Y-34126000D01*
X28945409Y-34121915D01*
X28911431Y-34111607D01*
X28880113Y-34094867D01*
X28852661Y-34072339D01*
X28830133Y-34044887D01*
X28813393Y-34013569D01*
X28803085Y-33979591D01*
X28799000Y-33938110D01*
X28799000Y-33261890D01*
X28803085Y-33220409D01*
X28813393Y-33186431D01*
X28830133Y-33155113D01*
X28852661Y-33127661D01*
X28880113Y-33105133D01*
X28911431Y-33088393D01*
X28945409Y-33078085D01*
X28986890Y-33074000D01*
X29588110Y-33074000D01*
X29629591Y-33078085D01*
X29629591Y-33078085D01*
G37*
G36*
X28054591Y-33078085D02*
X28088569Y-33088393D01*
X28119887Y-33105133D01*
X28147339Y-33127661D01*
X28169867Y-33155113D01*
X28186607Y-33186431D01*
X28196915Y-33220409D01*
X28201000Y-33261890D01*
X28201000Y-33938110D01*
X28196915Y-33979591D01*
X28186607Y-34013569D01*
X28169867Y-34044887D01*
X28147339Y-34072339D01*
X28119887Y-34094867D01*
X28088569Y-34111607D01*
X28054591Y-34121915D01*
X28013110Y-34126000D01*
X27411890Y-34126000D01*
X27370409Y-34121915D01*
X27336431Y-34111607D01*
X27305113Y-34094867D01*
X27277661Y-34072339D01*
X27255133Y-34044887D01*
X27238393Y-34013569D01*
X27228085Y-33979591D01*
X27224000Y-33938110D01*
X27224000Y-33261890D01*
X27228085Y-33220409D01*
X27238393Y-33186431D01*
X27255133Y-33155113D01*
X27277661Y-33127661D01*
X27305113Y-33105133D01*
X27336431Y-33088393D01*
X27370409Y-33078085D01*
X27411890Y-33074000D01*
X28013110Y-33074000D01*
X28054591Y-33078085D01*
X28054591Y-33078085D01*
G37*
G36*
X57351000Y-33963000D02*
X56199000Y-33963000D01*
X56199000Y-33211000D01*
X57351000Y-33211000D01*
X57351000Y-33963000D01*
X57351000Y-33963000D01*
G37*
G36*
X53201000Y-33963000D02*
X52049000Y-33963000D01*
X52049000Y-33211000D01*
X53201000Y-33211000D01*
X53201000Y-33963000D01*
X53201000Y-33963000D01*
G37*
G36*
X41039116Y-33041491D02*
X41059734Y-33047745D01*
X41078734Y-33057901D01*
X41100159Y-33075484D01*
X41424516Y-33399841D01*
X41442099Y-33421266D01*
X41452255Y-33440266D01*
X41458509Y-33460884D01*
X41460620Y-33482322D01*
X41458509Y-33503760D01*
X41452255Y-33524378D01*
X41442099Y-33543378D01*
X41424516Y-33564803D01*
X41064803Y-33924516D01*
X41043378Y-33942099D01*
X41024378Y-33952255D01*
X41003760Y-33958509D01*
X40982322Y-33960620D01*
X40960884Y-33958509D01*
X40940266Y-33952255D01*
X40921266Y-33942099D01*
X40899841Y-33924516D01*
X40575484Y-33600159D01*
X40557901Y-33578734D01*
X40547745Y-33559734D01*
X40541491Y-33539116D01*
X40539380Y-33517678D01*
X40541491Y-33496240D01*
X40547745Y-33475622D01*
X40557901Y-33456622D01*
X40575484Y-33435197D01*
X40935197Y-33075484D01*
X40956622Y-33057901D01*
X40975622Y-33047745D01*
X40996240Y-33041491D01*
X41017678Y-33039380D01*
X41039116Y-33041491D01*
X41039116Y-33041491D01*
G37*
G36*
X51281938Y-33241716D02*
X51302556Y-33247970D01*
X51321556Y-33258126D01*
X51338208Y-33271792D01*
X51351874Y-33288444D01*
X51362030Y-33307444D01*
X51368284Y-33328062D01*
X51371000Y-33355640D01*
X51371000Y-33814360D01*
X51368284Y-33841938D01*
X51362030Y-33862556D01*
X51351874Y-33881556D01*
X51338208Y-33898208D01*
X51321556Y-33911874D01*
X51302556Y-33922030D01*
X51281938Y-33928284D01*
X51254360Y-33931000D01*
X50745640Y-33931000D01*
X50718062Y-33928284D01*
X50697444Y-33922030D01*
X50678444Y-33911874D01*
X50661792Y-33898208D01*
X50648126Y-33881556D01*
X50637970Y-33862556D01*
X50631716Y-33841938D01*
X50629000Y-33814360D01*
X50629000Y-33355640D01*
X50631716Y-33328062D01*
X50637970Y-33307444D01*
X50648126Y-33288444D01*
X50661792Y-33271792D01*
X50678444Y-33258126D01*
X50697444Y-33247970D01*
X50718062Y-33241716D01*
X50745640Y-33239000D01*
X51254360Y-33239000D01*
X51281938Y-33241716D01*
X51281938Y-33241716D01*
G37*
G36*
X21683014Y-32346973D02*
X21786878Y-32378479D01*
X21882599Y-32429644D01*
X21966500Y-32498499D01*
X22035355Y-32582400D01*
X22086520Y-32678121D01*
X22118026Y-32781985D01*
X22128665Y-32890000D01*
X22118026Y-32998015D01*
X22086520Y-33101879D01*
X22035355Y-33197600D01*
X21966500Y-33281501D01*
X21882599Y-33350356D01*
X21786878Y-33401521D01*
X21683014Y-33433027D01*
X21602066Y-33441000D01*
X20947932Y-33441000D01*
X20866984Y-33433027D01*
X20763120Y-33401521D01*
X20667399Y-33350356D01*
X20583498Y-33281501D01*
X20514643Y-33197600D01*
X20463478Y-33101879D01*
X20431972Y-32998015D01*
X20421333Y-32890000D01*
X20431972Y-32781985D01*
X20463478Y-32678121D01*
X20514643Y-32582400D01*
X20583498Y-32498499D01*
X20667399Y-32429644D01*
X20763120Y-32378479D01*
X20866984Y-32346973D01*
X20947932Y-32339000D01*
X21602066Y-32339000D01*
X21683014Y-32346973D01*
X21683014Y-32346973D01*
G37*
G36*
X26113014Y-23706973D02*
X26216878Y-23738479D01*
X26312599Y-23789644D01*
X26396500Y-23858499D01*
X26465355Y-23942400D01*
X26516520Y-24038121D01*
X26548026Y-24141985D01*
X26558665Y-24250000D01*
X26548026Y-24358015D01*
X26516520Y-24461879D01*
X26465355Y-24557600D01*
X26396500Y-24641501D01*
X26312599Y-24710356D01*
X26216878Y-24761521D01*
X26174465Y-24774386D01*
X26151837Y-24783760D01*
X26131462Y-24797373D01*
X26114135Y-24814700D01*
X26100521Y-24835075D01*
X26091144Y-24857714D01*
X26086363Y-24881747D01*
X26086363Y-24906252D01*
X26091143Y-24930285D01*
X26100521Y-24952924D01*
X26114134Y-24973299D01*
X26131461Y-24990626D01*
X26151836Y-25004240D01*
X26174475Y-25013617D01*
X26198508Y-25018398D01*
X26210761Y-25019000D01*
X27145999Y-25019000D01*
X27145999Y-32121000D01*
X26210761Y-32121000D01*
X26186375Y-32123402D01*
X26162926Y-32130515D01*
X26141315Y-32142066D01*
X26122373Y-32157612D01*
X26106827Y-32176554D01*
X26095276Y-32198165D01*
X26088163Y-32221614D01*
X26085761Y-32246000D01*
X26088163Y-32270386D01*
X26095276Y-32293835D01*
X26106827Y-32315446D01*
X26122373Y-32334388D01*
X26141315Y-32349934D01*
X26162926Y-32361485D01*
X26174454Y-32365610D01*
X26216878Y-32378479D01*
X26312599Y-32429644D01*
X26396500Y-32498499D01*
X26465355Y-32582400D01*
X26516520Y-32678121D01*
X26548026Y-32781985D01*
X26558665Y-32890000D01*
X26548026Y-32998015D01*
X26516520Y-33101879D01*
X26465355Y-33197600D01*
X26396500Y-33281501D01*
X26312599Y-33350356D01*
X26216878Y-33401521D01*
X26113014Y-33433027D01*
X26032066Y-33441000D01*
X24877932Y-33441000D01*
X24796984Y-33433027D01*
X24693120Y-33401521D01*
X24597399Y-33350356D01*
X24513498Y-33281501D01*
X24444643Y-33197600D01*
X24393478Y-33101879D01*
X24361972Y-32998015D01*
X24351333Y-32890000D01*
X24361972Y-32781985D01*
X24393478Y-32678121D01*
X24444643Y-32582400D01*
X24513498Y-32498499D01*
X24597399Y-32429644D01*
X24693120Y-32378479D01*
X24796984Y-32346973D01*
X24877932Y-32339000D01*
X25468999Y-32339000D01*
X25493385Y-32336598D01*
X25516834Y-32329485D01*
X25538445Y-32317934D01*
X25557387Y-32302388D01*
X25572933Y-32283446D01*
X25584484Y-32261835D01*
X25591597Y-32238386D01*
X25593999Y-32214000D01*
X25593999Y-24926000D01*
X25591597Y-24901614D01*
X25584484Y-24878165D01*
X25572933Y-24856554D01*
X25557387Y-24837612D01*
X25538445Y-24822066D01*
X25516834Y-24810515D01*
X25493385Y-24803402D01*
X25468999Y-24801000D01*
X24877932Y-24801000D01*
X24796984Y-24793027D01*
X24693120Y-24761521D01*
X24597399Y-24710356D01*
X24513498Y-24641501D01*
X24444643Y-24557600D01*
X24393478Y-24461879D01*
X24361972Y-24358015D01*
X24351333Y-24250000D01*
X24361972Y-24141985D01*
X24393478Y-24038121D01*
X24444643Y-23942400D01*
X24513498Y-23858499D01*
X24597399Y-23789644D01*
X24693120Y-23738479D01*
X24796984Y-23706973D01*
X24877932Y-23699000D01*
X26032066Y-23699000D01*
X26113014Y-23706973D01*
X26113014Y-23706973D01*
G37*
G36*
X43411964Y-23756499D02*
X43416635Y-23757916D01*
X43420937Y-23760216D01*
X43429487Y-23767232D01*
X43633630Y-23971375D01*
X43640646Y-23979925D01*
X43642946Y-23984227D01*
X43644363Y-23988898D01*
X43645171Y-23997102D01*
X43649953Y-24021135D01*
X43659331Y-24043774D01*
X43672945Y-24064148D01*
X43690273Y-24081475D01*
X43710648Y-24095088D01*
X43733287Y-24104465D01*
X43757313Y-24109244D01*
X43765517Y-24110052D01*
X43770188Y-24111469D01*
X43774490Y-24113769D01*
X43783040Y-24120785D01*
X43987183Y-24324928D01*
X43994199Y-24333478D01*
X43996499Y-24337780D01*
X43997916Y-24342451D01*
X43998724Y-24350655D01*
X44003505Y-24374689D01*
X44012883Y-24397328D01*
X44026498Y-24417702D01*
X44043825Y-24435028D01*
X44064200Y-24448642D01*
X44086840Y-24458019D01*
X44110867Y-24462798D01*
X44119071Y-24463606D01*
X44123742Y-24465023D01*
X44128044Y-24467323D01*
X44136594Y-24474339D01*
X44340737Y-24678482D01*
X44347753Y-24687032D01*
X44350053Y-24691334D01*
X44351470Y-24696005D01*
X44352278Y-24704209D01*
X44357060Y-24728242D01*
X44366438Y-24750881D01*
X44380052Y-24771255D01*
X44397380Y-24788582D01*
X44417755Y-24802195D01*
X44440394Y-24811572D01*
X44464420Y-24816351D01*
X44472624Y-24817159D01*
X44477295Y-24818576D01*
X44481597Y-24820876D01*
X44490147Y-24827892D01*
X44694290Y-25032035D01*
X44701306Y-25040585D01*
X44703606Y-25044887D01*
X44705023Y-25049558D01*
X44705831Y-25057762D01*
X44710613Y-25081795D01*
X44719991Y-25104434D01*
X44733605Y-25124808D01*
X44750933Y-25142135D01*
X44771308Y-25155748D01*
X44793947Y-25165125D01*
X44817973Y-25169904D01*
X44826177Y-25170712D01*
X44830848Y-25172129D01*
X44835150Y-25174429D01*
X44843700Y-25181445D01*
X45047843Y-25385588D01*
X45054859Y-25394138D01*
X45057159Y-25398440D01*
X45058576Y-25403111D01*
X45059384Y-25411315D01*
X45064165Y-25435349D01*
X45073543Y-25457988D01*
X45087158Y-25478362D01*
X45104485Y-25495688D01*
X45124860Y-25509302D01*
X45147500Y-25518679D01*
X45171527Y-25523458D01*
X45179731Y-25524266D01*
X45184402Y-25525683D01*
X45188704Y-25527983D01*
X45197254Y-25534999D01*
X45401397Y-25739142D01*
X45408413Y-25747692D01*
X45410713Y-25751994D01*
X45412130Y-25756665D01*
X45412938Y-25764869D01*
X45417720Y-25788902D01*
X45427098Y-25811541D01*
X45440712Y-25831915D01*
X45458040Y-25849242D01*
X45478415Y-25862855D01*
X45501054Y-25872232D01*
X45525080Y-25877011D01*
X45533284Y-25877819D01*
X45537955Y-25879236D01*
X45542257Y-25881536D01*
X45550807Y-25888552D01*
X45754950Y-26092695D01*
X45761966Y-26101245D01*
X45764266Y-26105547D01*
X45765683Y-26110218D01*
X45766491Y-26118422D01*
X45771272Y-26142456D01*
X45780650Y-26165095D01*
X45794265Y-26185469D01*
X45811592Y-26202795D01*
X45831967Y-26216409D01*
X45854607Y-26225786D01*
X45878634Y-26230565D01*
X45886838Y-26231373D01*
X45891509Y-26232790D01*
X45895811Y-26235090D01*
X45904361Y-26242106D01*
X46108504Y-26446249D01*
X46115520Y-26454799D01*
X46117820Y-26459101D01*
X46119237Y-26463772D01*
X46120045Y-26471976D01*
X46124827Y-26496009D01*
X46134205Y-26518648D01*
X46147819Y-26539022D01*
X46165147Y-26556349D01*
X46185522Y-26569962D01*
X46208161Y-26579339D01*
X46232187Y-26584118D01*
X46240391Y-26584926D01*
X46245062Y-26586343D01*
X46249364Y-26588643D01*
X46257914Y-26595659D01*
X46462057Y-26799802D01*
X46469073Y-26808352D01*
X46471373Y-26812654D01*
X46472790Y-26817325D01*
X46473598Y-26825529D01*
X46478380Y-26849562D01*
X46487758Y-26872201D01*
X46501372Y-26892575D01*
X46518700Y-26909902D01*
X46539075Y-26923515D01*
X46561714Y-26932892D01*
X46585740Y-26937671D01*
X46593944Y-26938479D01*
X46598615Y-26939896D01*
X46602917Y-26942196D01*
X46611467Y-26949212D01*
X46815610Y-27153355D01*
X46822626Y-27161905D01*
X46824926Y-27166207D01*
X46826343Y-27170878D01*
X46827151Y-27179082D01*
X46831932Y-27203116D01*
X46841310Y-27225755D01*
X46854925Y-27246129D01*
X46872252Y-27263455D01*
X46892627Y-27277069D01*
X46915267Y-27286446D01*
X46939294Y-27291225D01*
X46947498Y-27292033D01*
X46952169Y-27293450D01*
X46956471Y-27295750D01*
X46965021Y-27302766D01*
X47169164Y-27506909D01*
X47176180Y-27515459D01*
X47178480Y-27519761D01*
X47179897Y-27524432D01*
X47180705Y-27532636D01*
X47185487Y-27556669D01*
X47194865Y-27579308D01*
X47208479Y-27599682D01*
X47225807Y-27617009D01*
X47246182Y-27630622D01*
X47268821Y-27639999D01*
X47292847Y-27644778D01*
X47301051Y-27645586D01*
X47305722Y-27647003D01*
X47310024Y-27649303D01*
X47318574Y-27656319D01*
X47522717Y-27860462D01*
X47529733Y-27869012D01*
X47532033Y-27873314D01*
X47533450Y-27877985D01*
X47533928Y-27882842D01*
X47533450Y-27887699D01*
X47532033Y-27892370D01*
X47529733Y-27896672D01*
X47522717Y-27905222D01*
X46926378Y-28501561D01*
X46910832Y-28520503D01*
X46899281Y-28542114D01*
X46892168Y-28565563D01*
X46889766Y-28589949D01*
X46892168Y-28614335D01*
X46899281Y-28637784D01*
X46910832Y-28659395D01*
X46926378Y-28678337D01*
X47522717Y-29274676D01*
X47529733Y-29283226D01*
X47532033Y-29287528D01*
X47533450Y-29292199D01*
X47533928Y-29297056D01*
X47533450Y-29301913D01*
X47532033Y-29306584D01*
X47529733Y-29310886D01*
X47522717Y-29319436D01*
X47318574Y-29523579D01*
X47310024Y-29530595D01*
X47305722Y-29532895D01*
X47301051Y-29534312D01*
X47292847Y-29535120D01*
X47268814Y-29539902D01*
X47246175Y-29549280D01*
X47225801Y-29562894D01*
X47208474Y-29580222D01*
X47194861Y-29600597D01*
X47185484Y-29623236D01*
X47180705Y-29647262D01*
X47179897Y-29655466D01*
X47178480Y-29660137D01*
X47176180Y-29664439D01*
X47169164Y-29672989D01*
X46965021Y-29877132D01*
X46956471Y-29884148D01*
X46952169Y-29886448D01*
X46947498Y-29887865D01*
X46939294Y-29888673D01*
X46915260Y-29893454D01*
X46892621Y-29902832D01*
X46872247Y-29916447D01*
X46854921Y-29933774D01*
X46841307Y-29954149D01*
X46831930Y-29976789D01*
X46827151Y-30000816D01*
X46826343Y-30009020D01*
X46824926Y-30013691D01*
X46822626Y-30017993D01*
X46815610Y-30026543D01*
X46611467Y-30230686D01*
X46602917Y-30237702D01*
X46598615Y-30240002D01*
X46593944Y-30241419D01*
X46585740Y-30242227D01*
X46561707Y-30247009D01*
X46539068Y-30256387D01*
X46518694Y-30270001D01*
X46501367Y-30287329D01*
X46487754Y-30307704D01*
X46478377Y-30330343D01*
X46473598Y-30354369D01*
X46472790Y-30362573D01*
X46471373Y-30367244D01*
X46469073Y-30371546D01*
X46462057Y-30380096D01*
X46257914Y-30584239D01*
X46249364Y-30591255D01*
X46245062Y-30593555D01*
X46240391Y-30594972D01*
X46232187Y-30595780D01*
X46208154Y-30600562D01*
X46185515Y-30609940D01*
X46165141Y-30623554D01*
X46147814Y-30640882D01*
X46134201Y-30661257D01*
X46124824Y-30683896D01*
X46120045Y-30707922D01*
X46119237Y-30716126D01*
X46117820Y-30720797D01*
X46115520Y-30725099D01*
X46108504Y-30733649D01*
X45904361Y-30937792D01*
X45895811Y-30944808D01*
X45891509Y-30947108D01*
X45886838Y-30948525D01*
X45878634Y-30949333D01*
X45854600Y-30954114D01*
X45831961Y-30963492D01*
X45811587Y-30977107D01*
X45794261Y-30994434D01*
X45780647Y-31014809D01*
X45771270Y-31037449D01*
X45766491Y-31061476D01*
X45765683Y-31069680D01*
X45764266Y-31074351D01*
X45761966Y-31078653D01*
X45754950Y-31087203D01*
X45550807Y-31291346D01*
X45542257Y-31298362D01*
X45537955Y-31300662D01*
X45533284Y-31302079D01*
X45525080Y-31302887D01*
X45501047Y-31307669D01*
X45478408Y-31317047D01*
X45458034Y-31330661D01*
X45440707Y-31347989D01*
X45427094Y-31368364D01*
X45417717Y-31391003D01*
X45412938Y-31415029D01*
X45412130Y-31423233D01*
X45410713Y-31427904D01*
X45408413Y-31432206D01*
X45401397Y-31440756D01*
X45197254Y-31644899D01*
X45188704Y-31651915D01*
X45184402Y-31654215D01*
X45179731Y-31655632D01*
X45171527Y-31656440D01*
X45147493Y-31661221D01*
X45124854Y-31670599D01*
X45104480Y-31684214D01*
X45087154Y-31701541D01*
X45073540Y-31721916D01*
X45064163Y-31744556D01*
X45059384Y-31768583D01*
X45058576Y-31776787D01*
X45057159Y-31781458D01*
X45054859Y-31785760D01*
X45047843Y-31794310D01*
X44843700Y-31998453D01*
X44835150Y-32005469D01*
X44830848Y-32007769D01*
X44826177Y-32009186D01*
X44817973Y-32009994D01*
X44793940Y-32014776D01*
X44771301Y-32024154D01*
X44750927Y-32037768D01*
X44733600Y-32055096D01*
X44719987Y-32075471D01*
X44710610Y-32098110D01*
X44705831Y-32122136D01*
X44705023Y-32130340D01*
X44703606Y-32135011D01*
X44701306Y-32139313D01*
X44694290Y-32147863D01*
X44490147Y-32352006D01*
X44481597Y-32359022D01*
X44477295Y-32361322D01*
X44472624Y-32362739D01*
X44464420Y-32363547D01*
X44440387Y-32368329D01*
X44417748Y-32377707D01*
X44397374Y-32391321D01*
X44380047Y-32408649D01*
X44366434Y-32429024D01*
X44357057Y-32451663D01*
X44352278Y-32475689D01*
X44351470Y-32483893D01*
X44350053Y-32488564D01*
X44347753Y-32492866D01*
X44340737Y-32501416D01*
X44136594Y-32705559D01*
X44128044Y-32712575D01*
X44123742Y-32714875D01*
X44119071Y-32716292D01*
X44110867Y-32717100D01*
X44086833Y-32721881D01*
X44064194Y-32731259D01*
X44043820Y-32744874D01*
X44026494Y-32762201D01*
X44012880Y-32782576D01*
X44003503Y-32805216D01*
X43998724Y-32829243D01*
X43997916Y-32837447D01*
X43996499Y-32842118D01*
X43994199Y-32846420D01*
X43987183Y-32854970D01*
X43783040Y-33059113D01*
X43774490Y-33066129D01*
X43770188Y-33068429D01*
X43765517Y-33069846D01*
X43757313Y-33070654D01*
X43733280Y-33075436D01*
X43710641Y-33084814D01*
X43690267Y-33098428D01*
X43672940Y-33115756D01*
X43659327Y-33136131D01*
X43649950Y-33158770D01*
X43645171Y-33182796D01*
X43644363Y-33191000D01*
X43642946Y-33195671D01*
X43640646Y-33199973D01*
X43633630Y-33208523D01*
X43429487Y-33412666D01*
X43420937Y-33419682D01*
X43416635Y-33421982D01*
X43411964Y-33423399D01*
X43407107Y-33423877D01*
X43402250Y-33423399D01*
X43397579Y-33421982D01*
X43393277Y-33419682D01*
X43384727Y-33412666D01*
X42788388Y-32816327D01*
X42769446Y-32800781D01*
X42747835Y-32789230D01*
X42724386Y-32782117D01*
X42700000Y-32779715D01*
X42675614Y-32782117D01*
X42652165Y-32789230D01*
X42630554Y-32800781D01*
X42611612Y-32816327D01*
X42015273Y-33412666D01*
X42006723Y-33419682D01*
X42002421Y-33421982D01*
X41997750Y-33423399D01*
X41992893Y-33423877D01*
X41988036Y-33423399D01*
X41983365Y-33421982D01*
X41979063Y-33419682D01*
X41970513Y-33412666D01*
X41766370Y-33208523D01*
X41759354Y-33199973D01*
X41757054Y-33195671D01*
X41755637Y-33191000D01*
X41754829Y-33182796D01*
X41750047Y-33158763D01*
X41740669Y-33136124D01*
X41727055Y-33115750D01*
X41709727Y-33098423D01*
X41689352Y-33084810D01*
X41666713Y-33075433D01*
X41642687Y-33070654D01*
X41634483Y-33069846D01*
X41629812Y-33068429D01*
X41625510Y-33066129D01*
X41616960Y-33059113D01*
X41412817Y-32854970D01*
X41405801Y-32846420D01*
X41403501Y-32842118D01*
X41402084Y-32837447D01*
X41401276Y-32829243D01*
X41396495Y-32805209D01*
X41387117Y-32782570D01*
X41373502Y-32762196D01*
X41356175Y-32744870D01*
X41335800Y-32731256D01*
X41313160Y-32721879D01*
X41289133Y-32717100D01*
X41280929Y-32716292D01*
X41276258Y-32714875D01*
X41271956Y-32712575D01*
X41263406Y-32705559D01*
X41059263Y-32501416D01*
X41052247Y-32492866D01*
X41049947Y-32488564D01*
X41048530Y-32483893D01*
X41047722Y-32475689D01*
X41042940Y-32451656D01*
X41033562Y-32429017D01*
X41019948Y-32408643D01*
X41002620Y-32391316D01*
X40982245Y-32377703D01*
X40959606Y-32368326D01*
X40935580Y-32363547D01*
X40927376Y-32362739D01*
X40922705Y-32361322D01*
X40918403Y-32359022D01*
X40909853Y-32352006D01*
X40705710Y-32147863D01*
X40698694Y-32139313D01*
X40696394Y-32135011D01*
X40694977Y-32130340D01*
X40694169Y-32122136D01*
X40689387Y-32098103D01*
X40680009Y-32075464D01*
X40666395Y-32055090D01*
X40649067Y-32037763D01*
X40628692Y-32024150D01*
X40606053Y-32014773D01*
X40582027Y-32009994D01*
X40573823Y-32009186D01*
X40569152Y-32007769D01*
X40564850Y-32005469D01*
X40556300Y-31998453D01*
X40352157Y-31794310D01*
X40345141Y-31785760D01*
X40342841Y-31781458D01*
X40341424Y-31776787D01*
X40340616Y-31768583D01*
X40335835Y-31744549D01*
X40326457Y-31721910D01*
X40312842Y-31701536D01*
X40295515Y-31684210D01*
X40275140Y-31670596D01*
X40252500Y-31661219D01*
X40228473Y-31656440D01*
X40220269Y-31655632D01*
X40215598Y-31654215D01*
X40211296Y-31651915D01*
X40202746Y-31644899D01*
X39998603Y-31440756D01*
X39991587Y-31432206D01*
X39989287Y-31427904D01*
X39987870Y-31423233D01*
X39987062Y-31415029D01*
X39982280Y-31390996D01*
X39972902Y-31368357D01*
X39959288Y-31347983D01*
X39941960Y-31330656D01*
X39921585Y-31317043D01*
X39898946Y-31307666D01*
X39874920Y-31302887D01*
X39866716Y-31302079D01*
X39862045Y-31300662D01*
X39857743Y-31298362D01*
X39849193Y-31291346D01*
X39645050Y-31087203D01*
X39638034Y-31078653D01*
X39635734Y-31074351D01*
X39634317Y-31069680D01*
X39633509Y-31061476D01*
X39628728Y-31037442D01*
X39619350Y-31014803D01*
X39605735Y-30994429D01*
X39588408Y-30977103D01*
X39568033Y-30963489D01*
X39545393Y-30954112D01*
X39521366Y-30949333D01*
X39513162Y-30948525D01*
X39508491Y-30947108D01*
X39504189Y-30944808D01*
X39495639Y-30937792D01*
X39291496Y-30733649D01*
X39284480Y-30725099D01*
X39282180Y-30720797D01*
X39280763Y-30716126D01*
X39279955Y-30707922D01*
X39275173Y-30683889D01*
X39265795Y-30661250D01*
X39252181Y-30640876D01*
X39234853Y-30623549D01*
X39214478Y-30609936D01*
X39191839Y-30600559D01*
X39167813Y-30595780D01*
X39159609Y-30594972D01*
X39154938Y-30593555D01*
X39150636Y-30591255D01*
X39142086Y-30584239D01*
X38937943Y-30380096D01*
X38930927Y-30371546D01*
X38928627Y-30367244D01*
X38927210Y-30362573D01*
X38926402Y-30354369D01*
X38921620Y-30330336D01*
X38912242Y-30307697D01*
X38898628Y-30287323D01*
X38881300Y-30269996D01*
X38860925Y-30256383D01*
X38838286Y-30247006D01*
X38814260Y-30242227D01*
X38806056Y-30241419D01*
X38801385Y-30240002D01*
X38797083Y-30237702D01*
X38788533Y-30230686D01*
X38584390Y-30026543D01*
X38577374Y-30017993D01*
X38575074Y-30013691D01*
X38573657Y-30009020D01*
X38572849Y-30000816D01*
X38568068Y-29976782D01*
X38558690Y-29954143D01*
X38545075Y-29933769D01*
X38527748Y-29916443D01*
X38507373Y-29902829D01*
X38484733Y-29893452D01*
X38460706Y-29888673D01*
X38452502Y-29887865D01*
X38447831Y-29886448D01*
X38443529Y-29884148D01*
X38434979Y-29877132D01*
X38230836Y-29672989D01*
X38223820Y-29664439D01*
X38221520Y-29660137D01*
X38220103Y-29655466D01*
X38219295Y-29647262D01*
X38214513Y-29623229D01*
X38205135Y-29600590D01*
X38191521Y-29580216D01*
X38174193Y-29562889D01*
X38153818Y-29549276D01*
X38131179Y-29539899D01*
X38107153Y-29535120D01*
X38098949Y-29534312D01*
X38094278Y-29532895D01*
X38089976Y-29530595D01*
X38081426Y-29523579D01*
X37877283Y-29319436D01*
X37870267Y-29310886D01*
X37867967Y-29306584D01*
X37866550Y-29301913D01*
X37866072Y-29297056D01*
X37866550Y-29292199D01*
X37867967Y-29287528D01*
X37870267Y-29283226D01*
X37877283Y-29274676D01*
X38473622Y-28678337D01*
X38489168Y-28659395D01*
X38500719Y-28637784D01*
X38507832Y-28614335D01*
X38510234Y-28589949D01*
X38581262Y-28589949D01*
X38583664Y-28614335D01*
X38590777Y-28637784D01*
X38602328Y-28659395D01*
X38617874Y-28678337D01*
X38772271Y-28832734D01*
X38779287Y-28841284D01*
X38781587Y-28845586D01*
X38783004Y-28850257D01*
X38783812Y-28858461D01*
X38788594Y-28882494D01*
X38797972Y-28905133D01*
X38811586Y-28925507D01*
X38828914Y-28942834D01*
X38849289Y-28956447D01*
X38871928Y-28965824D01*
X38895954Y-28970603D01*
X38904158Y-28971411D01*
X38908829Y-28972828D01*
X38913131Y-28975128D01*
X38921681Y-28982144D01*
X39125824Y-29186287D01*
X39132840Y-29194837D01*
X39135140Y-29199139D01*
X39136557Y-29203810D01*
X39137365Y-29212014D01*
X39142146Y-29236048D01*
X39151524Y-29258687D01*
X39165139Y-29279061D01*
X39182466Y-29296387D01*
X39202841Y-29310001D01*
X39225481Y-29319378D01*
X39249508Y-29324157D01*
X39257712Y-29324965D01*
X39262383Y-29326382D01*
X39266685Y-29328682D01*
X39275235Y-29335698D01*
X39479378Y-29539841D01*
X39486394Y-29548391D01*
X39488694Y-29552693D01*
X39490111Y-29557364D01*
X39490919Y-29565568D01*
X39495701Y-29589601D01*
X39505079Y-29612240D01*
X39518693Y-29632614D01*
X39536021Y-29649941D01*
X39556396Y-29663554D01*
X39579035Y-29672931D01*
X39603061Y-29677710D01*
X39611265Y-29678518D01*
X39615936Y-29679935D01*
X39620238Y-29682235D01*
X39628788Y-29689251D01*
X39832931Y-29893394D01*
X39839947Y-29901944D01*
X39842247Y-29906246D01*
X39843664Y-29910917D01*
X39844472Y-29919121D01*
X39849254Y-29943154D01*
X39858632Y-29965793D01*
X39872246Y-29986167D01*
X39889574Y-30003494D01*
X39909949Y-30017107D01*
X39932588Y-30026484D01*
X39956614Y-30031263D01*
X39964818Y-30032071D01*
X39969489Y-30033488D01*
X39973791Y-30035788D01*
X39982341Y-30042804D01*
X40186484Y-30246947D01*
X40193500Y-30255497D01*
X40195800Y-30259799D01*
X40197217Y-30264470D01*
X40198025Y-30272674D01*
X40202806Y-30296708D01*
X40212184Y-30319347D01*
X40225799Y-30339721D01*
X40243126Y-30357047D01*
X40263501Y-30370661D01*
X40286141Y-30380038D01*
X40310168Y-30384817D01*
X40318372Y-30385625D01*
X40323043Y-30387042D01*
X40327345Y-30389342D01*
X40335895Y-30396358D01*
X40540038Y-30600501D01*
X40547054Y-30609051D01*
X40549354Y-30613353D01*
X40550771Y-30618024D01*
X40551579Y-30626228D01*
X40556361Y-30650261D01*
X40565739Y-30672900D01*
X40579353Y-30693274D01*
X40596681Y-30710601D01*
X40617056Y-30724214D01*
X40639695Y-30733591D01*
X40663721Y-30738370D01*
X40671925Y-30739178D01*
X40676596Y-30740595D01*
X40680898Y-30742895D01*
X40689448Y-30749911D01*
X40893591Y-30954054D01*
X40900607Y-30962604D01*
X40902907Y-30966906D01*
X40904324Y-30971577D01*
X40905132Y-30979781D01*
X40909913Y-31003815D01*
X40919291Y-31026454D01*
X40932906Y-31046828D01*
X40950233Y-31064154D01*
X40970608Y-31077768D01*
X40993248Y-31087145D01*
X41017275Y-31091924D01*
X41025479Y-31092732D01*
X41030150Y-31094149D01*
X41034452Y-31096449D01*
X41043002Y-31103465D01*
X41247145Y-31307608D01*
X41254161Y-31316158D01*
X41256461Y-31320460D01*
X41257878Y-31325131D01*
X41258686Y-31333335D01*
X41263468Y-31357368D01*
X41272846Y-31380007D01*
X41286460Y-31400381D01*
X41303788Y-31417708D01*
X41324163Y-31431321D01*
X41346802Y-31440698D01*
X41370828Y-31445477D01*
X41379032Y-31446285D01*
X41383703Y-31447702D01*
X41388005Y-31450002D01*
X41396555Y-31457018D01*
X41600698Y-31661161D01*
X41607714Y-31669711D01*
X41610014Y-31674013D01*
X41611431Y-31678684D01*
X41612239Y-31686888D01*
X41617021Y-31710921D01*
X41626399Y-31733560D01*
X41640013Y-31753934D01*
X41657341Y-31771261D01*
X41677716Y-31784874D01*
X41700355Y-31794251D01*
X41724381Y-31799030D01*
X41732585Y-31799838D01*
X41737256Y-31801255D01*
X41741558Y-31803555D01*
X41750108Y-31810571D01*
X41954251Y-32014714D01*
X41961267Y-32023264D01*
X41963567Y-32027566D01*
X41964984Y-32032237D01*
X41965792Y-32040441D01*
X41970573Y-32064475D01*
X41979951Y-32087114D01*
X41993566Y-32107488D01*
X42010893Y-32124814D01*
X42031268Y-32138428D01*
X42053908Y-32147805D01*
X42077935Y-32152584D01*
X42086139Y-32153392D01*
X42090810Y-32154809D01*
X42095112Y-32157109D01*
X42103662Y-32164125D01*
X42307805Y-32368268D01*
X42314821Y-32376818D01*
X42317121Y-32381120D01*
X42318538Y-32385791D01*
X42319346Y-32393995D01*
X42324128Y-32418028D01*
X42333506Y-32440667D01*
X42347120Y-32461041D01*
X42364448Y-32478368D01*
X42384823Y-32491981D01*
X42407462Y-32501358D01*
X42431488Y-32506137D01*
X42439692Y-32506945D01*
X42444363Y-32508362D01*
X42448665Y-32510662D01*
X42457215Y-32517678D01*
X42611612Y-32672075D01*
X42630554Y-32687621D01*
X42652165Y-32699172D01*
X42675614Y-32706285D01*
X42700000Y-32708687D01*
X42724386Y-32706285D01*
X42747835Y-32699172D01*
X42769446Y-32687621D01*
X42788388Y-32672075D01*
X42942785Y-32517678D01*
X42951335Y-32510662D01*
X42955637Y-32508362D01*
X42960308Y-32506945D01*
X42968512Y-32506137D01*
X42992545Y-32501355D01*
X43015184Y-32491977D01*
X43035558Y-32478363D01*
X43052885Y-32461035D01*
X43066498Y-32440660D01*
X43075875Y-32418021D01*
X43080654Y-32393995D01*
X43081462Y-32385791D01*
X43082879Y-32381120D01*
X43085179Y-32376818D01*
X43092195Y-32368268D01*
X43296338Y-32164125D01*
X43304888Y-32157109D01*
X43309190Y-32154809D01*
X43313861Y-32153392D01*
X43322065Y-32152584D01*
X43346099Y-32147803D01*
X43368738Y-32138425D01*
X43389112Y-32124810D01*
X43406438Y-32107483D01*
X43420052Y-32087108D01*
X43429429Y-32064468D01*
X43434208Y-32040441D01*
X43435016Y-32032237D01*
X43436433Y-32027566D01*
X43438733Y-32023264D01*
X43445749Y-32014714D01*
X43649892Y-31810571D01*
X43658442Y-31803555D01*
X43662744Y-31801255D01*
X43667415Y-31799838D01*
X43675619Y-31799030D01*
X43699652Y-31794248D01*
X43722291Y-31784870D01*
X43742665Y-31771256D01*
X43759992Y-31753928D01*
X43773605Y-31733553D01*
X43782982Y-31710914D01*
X43787761Y-31686888D01*
X43788569Y-31678684D01*
X43789986Y-31674013D01*
X43792286Y-31669711D01*
X43799302Y-31661161D01*
X44003445Y-31457018D01*
X44011995Y-31450002D01*
X44016297Y-31447702D01*
X44020968Y-31446285D01*
X44029172Y-31445477D01*
X44053205Y-31440695D01*
X44075844Y-31431317D01*
X44096218Y-31417703D01*
X44113545Y-31400375D01*
X44127158Y-31380000D01*
X44136535Y-31357361D01*
X44141314Y-31333335D01*
X44142122Y-31325131D01*
X44143539Y-31320460D01*
X44145839Y-31316158D01*
X44152855Y-31307608D01*
X44356998Y-31103465D01*
X44365548Y-31096449D01*
X44369850Y-31094149D01*
X44374521Y-31092732D01*
X44382725Y-31091924D01*
X44406759Y-31087143D01*
X44429398Y-31077765D01*
X44449772Y-31064150D01*
X44467098Y-31046823D01*
X44480712Y-31026448D01*
X44490089Y-31003808D01*
X44494868Y-30979781D01*
X44495676Y-30971577D01*
X44497093Y-30966906D01*
X44499393Y-30962604D01*
X44506409Y-30954054D01*
X44710552Y-30749911D01*
X44719102Y-30742895D01*
X44723404Y-30740595D01*
X44728075Y-30739178D01*
X44736279Y-30738370D01*
X44760312Y-30733588D01*
X44782951Y-30724210D01*
X44803325Y-30710596D01*
X44820652Y-30693268D01*
X44834265Y-30672893D01*
X44843642Y-30650254D01*
X44848421Y-30626228D01*
X44849229Y-30618024D01*
X44850646Y-30613353D01*
X44852946Y-30609051D01*
X44859962Y-30600501D01*
X45064105Y-30396358D01*
X45072655Y-30389342D01*
X45076957Y-30387042D01*
X45081628Y-30385625D01*
X45089832Y-30384817D01*
X45113866Y-30380036D01*
X45136505Y-30370658D01*
X45156879Y-30357043D01*
X45174205Y-30339716D01*
X45187819Y-30319341D01*
X45197196Y-30296701D01*
X45201975Y-30272674D01*
X45202783Y-30264470D01*
X45204200Y-30259799D01*
X45206500Y-30255497D01*
X45213516Y-30246947D01*
X45417659Y-30042804D01*
X45426209Y-30035788D01*
X45430511Y-30033488D01*
X45435182Y-30032071D01*
X45443386Y-30031263D01*
X45467419Y-30026481D01*
X45490058Y-30017103D01*
X45510432Y-30003489D01*
X45527759Y-29986161D01*
X45541372Y-29965786D01*
X45550749Y-29943147D01*
X45555528Y-29919121D01*
X45556336Y-29910917D01*
X45557753Y-29906246D01*
X45560053Y-29901944D01*
X45567069Y-29893394D01*
X45771212Y-29689251D01*
X45779762Y-29682235D01*
X45784064Y-29679935D01*
X45788735Y-29678518D01*
X45796939Y-29677710D01*
X45820972Y-29672928D01*
X45843611Y-29663550D01*
X45863985Y-29649936D01*
X45881312Y-29632608D01*
X45894925Y-29612233D01*
X45904302Y-29589594D01*
X45909081Y-29565568D01*
X45909889Y-29557364D01*
X45911306Y-29552693D01*
X45913606Y-29548391D01*
X45920622Y-29539841D01*
X46124765Y-29335698D01*
X46133315Y-29328682D01*
X46137617Y-29326382D01*
X46142288Y-29324965D01*
X46150492Y-29324157D01*
X46174526Y-29319376D01*
X46197165Y-29309998D01*
X46217539Y-29296383D01*
X46234865Y-29279056D01*
X46248479Y-29258681D01*
X46257856Y-29236041D01*
X46262635Y-29212014D01*
X46263443Y-29203810D01*
X46264860Y-29199139D01*
X46267160Y-29194837D01*
X46274176Y-29186287D01*
X46478319Y-28982144D01*
X46486869Y-28975128D01*
X46491171Y-28972828D01*
X46495842Y-28971411D01*
X46504046Y-28970603D01*
X46528079Y-28965821D01*
X46550718Y-28956443D01*
X46571092Y-28942829D01*
X46588419Y-28925501D01*
X46602032Y-28905126D01*
X46611409Y-28882487D01*
X46616188Y-28858461D01*
X46616996Y-28850257D01*
X46618413Y-28845586D01*
X46620713Y-28841284D01*
X46627729Y-28832734D01*
X46782126Y-28678337D01*
X46797672Y-28659395D01*
X46809223Y-28637784D01*
X46816336Y-28614335D01*
X46818738Y-28589949D01*
X46816336Y-28565563D01*
X46809223Y-28542114D01*
X46797672Y-28520503D01*
X46782126Y-28501561D01*
X46627729Y-28347164D01*
X46620713Y-28338614D01*
X46618413Y-28334312D01*
X46616996Y-28329641D01*
X46616188Y-28321437D01*
X46611406Y-28297404D01*
X46602028Y-28274765D01*
X46588414Y-28254391D01*
X46571086Y-28237064D01*
X46550711Y-28223451D01*
X46528072Y-28214074D01*
X46504046Y-28209295D01*
X46495842Y-28208487D01*
X46491171Y-28207070D01*
X46486869Y-28204770D01*
X46478319Y-28197754D01*
X46274176Y-27993611D01*
X46267160Y-27985061D01*
X46264860Y-27980759D01*
X46263443Y-27976088D01*
X46262635Y-27967884D01*
X46257854Y-27943850D01*
X46248476Y-27921211D01*
X46234861Y-27900837D01*
X46217534Y-27883511D01*
X46197159Y-27869897D01*
X46174519Y-27860520D01*
X46150492Y-27855741D01*
X46142288Y-27854933D01*
X46137617Y-27853516D01*
X46133315Y-27851216D01*
X46124765Y-27844200D01*
X45920622Y-27640057D01*
X45913606Y-27631507D01*
X45911306Y-27627205D01*
X45909889Y-27622534D01*
X45909081Y-27614330D01*
X45904299Y-27590297D01*
X45894921Y-27567658D01*
X45881307Y-27547284D01*
X45863979Y-27529957D01*
X45843604Y-27516344D01*
X45820965Y-27506967D01*
X45796939Y-27502188D01*
X45788735Y-27501380D01*
X45784064Y-27499963D01*
X45779762Y-27497663D01*
X45771212Y-27490647D01*
X45567069Y-27286504D01*
X45560053Y-27277954D01*
X45557753Y-27273652D01*
X45556336Y-27268981D01*
X45555528Y-27260777D01*
X45550746Y-27236744D01*
X45541368Y-27214105D01*
X45527754Y-27193731D01*
X45510426Y-27176404D01*
X45490051Y-27162791D01*
X45467412Y-27153414D01*
X45443386Y-27148635D01*
X45435182Y-27147827D01*
X45430511Y-27146410D01*
X45426209Y-27144110D01*
X45417659Y-27137094D01*
X45213516Y-26932951D01*
X45206500Y-26924401D01*
X45204200Y-26920099D01*
X45202783Y-26915428D01*
X45201975Y-26907224D01*
X45197194Y-26883190D01*
X45187816Y-26860551D01*
X45174201Y-26840177D01*
X45156874Y-26822851D01*
X45136499Y-26809237D01*
X45113859Y-26799860D01*
X45089832Y-26795081D01*
X45081628Y-26794273D01*
X45076957Y-26792856D01*
X45072655Y-26790556D01*
X45064105Y-26783540D01*
X44859962Y-26579397D01*
X44852946Y-26570847D01*
X44850646Y-26566545D01*
X44849229Y-26561874D01*
X44848421Y-26553670D01*
X44843639Y-26529637D01*
X44834261Y-26506998D01*
X44820647Y-26486624D01*
X44803319Y-26469297D01*
X44782944Y-26455684D01*
X44760305Y-26446307D01*
X44736279Y-26441528D01*
X44728075Y-26440720D01*
X44723404Y-26439303D01*
X44719102Y-26437003D01*
X44710552Y-26429987D01*
X44506409Y-26225844D01*
X44499393Y-26217294D01*
X44497093Y-26212992D01*
X44495676Y-26208321D01*
X44494868Y-26200117D01*
X44490087Y-26176083D01*
X44480709Y-26153444D01*
X44467094Y-26133070D01*
X44449767Y-26115744D01*
X44429392Y-26102130D01*
X44406752Y-26092753D01*
X44382725Y-26087974D01*
X44374521Y-26087166D01*
X44369850Y-26085749D01*
X44365548Y-26083449D01*
X44356998Y-26076433D01*
X44152855Y-25872290D01*
X44145839Y-25863740D01*
X44143539Y-25859438D01*
X44142122Y-25854767D01*
X44141314Y-25846563D01*
X44136532Y-25822530D01*
X44127154Y-25799891D01*
X44113540Y-25779517D01*
X44096212Y-25762190D01*
X44075837Y-25748577D01*
X44053198Y-25739200D01*
X44029172Y-25734421D01*
X44020968Y-25733613D01*
X44016297Y-25732196D01*
X44011995Y-25729896D01*
X44003445Y-25722880D01*
X43799302Y-25518737D01*
X43792286Y-25510187D01*
X43789986Y-25505885D01*
X43788569Y-25501214D01*
X43787761Y-25493010D01*
X43782979Y-25468977D01*
X43773601Y-25446338D01*
X43759987Y-25425964D01*
X43742659Y-25408637D01*
X43722284Y-25395024D01*
X43699645Y-25385647D01*
X43675619Y-25380868D01*
X43667415Y-25380060D01*
X43662744Y-25378643D01*
X43658442Y-25376343D01*
X43649892Y-25369327D01*
X43445749Y-25165184D01*
X43438733Y-25156634D01*
X43436433Y-25152332D01*
X43435016Y-25147661D01*
X43434208Y-25139457D01*
X43429427Y-25115423D01*
X43420049Y-25092784D01*
X43406434Y-25072410D01*
X43389107Y-25055084D01*
X43368732Y-25041470D01*
X43346092Y-25032093D01*
X43322065Y-25027314D01*
X43313861Y-25026506D01*
X43309190Y-25025089D01*
X43304888Y-25022789D01*
X43296338Y-25015773D01*
X43092195Y-24811630D01*
X43085179Y-24803080D01*
X43082879Y-24798778D01*
X43081462Y-24794107D01*
X43080654Y-24785903D01*
X43075872Y-24761870D01*
X43066494Y-24739231D01*
X43052880Y-24718857D01*
X43035552Y-24701530D01*
X43015177Y-24687917D01*
X42992538Y-24678540D01*
X42968512Y-24673761D01*
X42960308Y-24672953D01*
X42955637Y-24671536D01*
X42951335Y-24669236D01*
X42942785Y-24662220D01*
X42788388Y-24507823D01*
X42769446Y-24492277D01*
X42747835Y-24480726D01*
X42724386Y-24473613D01*
X42700000Y-24471211D01*
X42675614Y-24473613D01*
X42652165Y-24480726D01*
X42630554Y-24492277D01*
X42611612Y-24507823D01*
X42457215Y-24662220D01*
X42448665Y-24669236D01*
X42444363Y-24671536D01*
X42439692Y-24672953D01*
X42431488Y-24673761D01*
X42407455Y-24678543D01*
X42384816Y-24687921D01*
X42364442Y-24701535D01*
X42347115Y-24718863D01*
X42333502Y-24739238D01*
X42324125Y-24761877D01*
X42319346Y-24785903D01*
X42318538Y-24794107D01*
X42317121Y-24798778D01*
X42314821Y-24803080D01*
X42307805Y-24811630D01*
X42103662Y-25015773D01*
X42095112Y-25022789D01*
X42090810Y-25025089D01*
X42086139Y-25026506D01*
X42077935Y-25027314D01*
X42053901Y-25032095D01*
X42031262Y-25041473D01*
X42010888Y-25055088D01*
X41993562Y-25072415D01*
X41979948Y-25092790D01*
X41970571Y-25115430D01*
X41965792Y-25139457D01*
X41964984Y-25147661D01*
X41963567Y-25152332D01*
X41961267Y-25156634D01*
X41954251Y-25165184D01*
X41750108Y-25369327D01*
X41741558Y-25376343D01*
X41737256Y-25378643D01*
X41732585Y-25380060D01*
X41724381Y-25380868D01*
X41700348Y-25385650D01*
X41677709Y-25395028D01*
X41657335Y-25408642D01*
X41640008Y-25425970D01*
X41626395Y-25446345D01*
X41617018Y-25468984D01*
X41612239Y-25493010D01*
X41611431Y-25501214D01*
X41610014Y-25505885D01*
X41607714Y-25510187D01*
X41600698Y-25518737D01*
X41396555Y-25722880D01*
X41388005Y-25729896D01*
X41383703Y-25732196D01*
X41379032Y-25733613D01*
X41370828Y-25734421D01*
X41346795Y-25739203D01*
X41324156Y-25748581D01*
X41303782Y-25762195D01*
X41286455Y-25779523D01*
X41272842Y-25799898D01*
X41263465Y-25822537D01*
X41258686Y-25846563D01*
X41257878Y-25854767D01*
X41256461Y-25859438D01*
X41254161Y-25863740D01*
X41247145Y-25872290D01*
X41043002Y-26076433D01*
X41034452Y-26083449D01*
X41030150Y-26085749D01*
X41025479Y-26087166D01*
X41017275Y-26087974D01*
X40993241Y-26092755D01*
X40970602Y-26102133D01*
X40950228Y-26115748D01*
X40932902Y-26133075D01*
X40919288Y-26153450D01*
X40909911Y-26176090D01*
X40905132Y-26200117D01*
X40904324Y-26208321D01*
X40902907Y-26212992D01*
X40900607Y-26217294D01*
X40893591Y-26225844D01*
X40689448Y-26429987D01*
X40680898Y-26437003D01*
X40676596Y-26439303D01*
X40671925Y-26440720D01*
X40663721Y-26441528D01*
X40639688Y-26446310D01*
X40617049Y-26455688D01*
X40596675Y-26469302D01*
X40579348Y-26486630D01*
X40565735Y-26507005D01*
X40556358Y-26529644D01*
X40551579Y-26553670D01*
X40550771Y-26561874D01*
X40549354Y-26566545D01*
X40547054Y-26570847D01*
X40540038Y-26579397D01*
X40335895Y-26783540D01*
X40327345Y-26790556D01*
X40323043Y-26792856D01*
X40318372Y-26794273D01*
X40310168Y-26795081D01*
X40286134Y-26799862D01*
X40263495Y-26809240D01*
X40243121Y-26822855D01*
X40225795Y-26840182D01*
X40212181Y-26860557D01*
X40202804Y-26883197D01*
X40198025Y-26907224D01*
X40197217Y-26915428D01*
X40195800Y-26920099D01*
X40193500Y-26924401D01*
X40186484Y-26932951D01*
X39982341Y-27137094D01*
X39973791Y-27144110D01*
X39969489Y-27146410D01*
X39964818Y-27147827D01*
X39956614Y-27148635D01*
X39932581Y-27153417D01*
X39909942Y-27162795D01*
X39889568Y-27176409D01*
X39872241Y-27193737D01*
X39858628Y-27214112D01*
X39849251Y-27236751D01*
X39844472Y-27260777D01*
X39843664Y-27268981D01*
X39842247Y-27273652D01*
X39839947Y-27277954D01*
X39832931Y-27286504D01*
X39628788Y-27490647D01*
X39620238Y-27497663D01*
X39615936Y-27499963D01*
X39611265Y-27501380D01*
X39603061Y-27502188D01*
X39579028Y-27506970D01*
X39556389Y-27516348D01*
X39536015Y-27529962D01*
X39518688Y-27547290D01*
X39505075Y-27567665D01*
X39495698Y-27590304D01*
X39490919Y-27614330D01*
X39490111Y-27622534D01*
X39488694Y-27627205D01*
X39486394Y-27631507D01*
X39479378Y-27640057D01*
X39275235Y-27844200D01*
X39266685Y-27851216D01*
X39262383Y-27853516D01*
X39257712Y-27854933D01*
X39249508Y-27855741D01*
X39225474Y-27860522D01*
X39202835Y-27869900D01*
X39182461Y-27883515D01*
X39165135Y-27900842D01*
X39151521Y-27921217D01*
X39142144Y-27943857D01*
X39137365Y-27967884D01*
X39136557Y-27976088D01*
X39135140Y-27980759D01*
X39132840Y-27985061D01*
X39125824Y-27993611D01*
X38921681Y-28197754D01*
X38913131Y-28204770D01*
X38908829Y-28207070D01*
X38904158Y-28208487D01*
X38895954Y-28209295D01*
X38871921Y-28214077D01*
X38849282Y-28223455D01*
X38828908Y-28237069D01*
X38811581Y-28254397D01*
X38797968Y-28274772D01*
X38788591Y-28297411D01*
X38783812Y-28321437D01*
X38783004Y-28329641D01*
X38781587Y-28334312D01*
X38779287Y-28338614D01*
X38772271Y-28347164D01*
X38617874Y-28501561D01*
X38602328Y-28520503D01*
X38590777Y-28542114D01*
X38583664Y-28565563D01*
X38581262Y-28589949D01*
X38510234Y-28589949D01*
X38507832Y-28565563D01*
X38500719Y-28542114D01*
X38489168Y-28520503D01*
X38473622Y-28501561D01*
X37877283Y-27905222D01*
X37870267Y-27896672D01*
X37867967Y-27892370D01*
X37866550Y-27887699D01*
X37866072Y-27882842D01*
X37866550Y-27877985D01*
X37867967Y-27873314D01*
X37870267Y-27869012D01*
X37877283Y-27860462D01*
X38081426Y-27656319D01*
X38089976Y-27649303D01*
X38094278Y-27647003D01*
X38098949Y-27645586D01*
X38107153Y-27644778D01*
X38131186Y-27639996D01*
X38153825Y-27630618D01*
X38174199Y-27617004D01*
X38191526Y-27599676D01*
X38205139Y-27579301D01*
X38214516Y-27556662D01*
X38219295Y-27532636D01*
X38220103Y-27524432D01*
X38221520Y-27519761D01*
X38223820Y-27515459D01*
X38230836Y-27506909D01*
X38434979Y-27302766D01*
X38443529Y-27295750D01*
X38447831Y-27293450D01*
X38452502Y-27292033D01*
X38460706Y-27291225D01*
X38484740Y-27286444D01*
X38507379Y-27277066D01*
X38527753Y-27263451D01*
X38545079Y-27246124D01*
X38558693Y-27225749D01*
X38568070Y-27203109D01*
X38572849Y-27179082D01*
X38573657Y-27170878D01*
X38575074Y-27166207D01*
X38577374Y-27161905D01*
X38584390Y-27153355D01*
X38788533Y-26949212D01*
X38797083Y-26942196D01*
X38801385Y-26939896D01*
X38806056Y-26938479D01*
X38814260Y-26937671D01*
X38838293Y-26932889D01*
X38860932Y-26923511D01*
X38881306Y-26909897D01*
X38898633Y-26892569D01*
X38912246Y-26872194D01*
X38921623Y-26849555D01*
X38926402Y-26825529D01*
X38927210Y-26817325D01*
X38928627Y-26812654D01*
X38930927Y-26808352D01*
X38937943Y-26799802D01*
X39142086Y-26595659D01*
X39150636Y-26588643D01*
X39154938Y-26586343D01*
X39159609Y-26584926D01*
X39167813Y-26584118D01*
X39191846Y-26579336D01*
X39214485Y-26569958D01*
X39234859Y-26556344D01*
X39252186Y-26539016D01*
X39265799Y-26518641D01*
X39275176Y-26496002D01*
X39279955Y-26471976D01*
X39280763Y-26463772D01*
X39282180Y-26459101D01*
X39284480Y-26454799D01*
X39291496Y-26446249D01*
X39495639Y-26242106D01*
X39504189Y-26235090D01*
X39508491Y-26232790D01*
X39513162Y-26231373D01*
X39521366Y-26230565D01*
X39545400Y-26225784D01*
X39568039Y-26216406D01*
X39588413Y-26202791D01*
X39605739Y-26185464D01*
X39619353Y-26165089D01*
X39628730Y-26142449D01*
X39633509Y-26118422D01*
X39634317Y-26110218D01*
X39635734Y-26105547D01*
X39638034Y-26101245D01*
X39645050Y-26092695D01*
X39849193Y-25888552D01*
X39857743Y-25881536D01*
X39862045Y-25879236D01*
X39866716Y-25877819D01*
X39874920Y-25877011D01*
X39898953Y-25872229D01*
X39921592Y-25862851D01*
X39941966Y-25849237D01*
X39959293Y-25831909D01*
X39972906Y-25811534D01*
X39982283Y-25788895D01*
X39987062Y-25764869D01*
X39987870Y-25756665D01*
X39989287Y-25751994D01*
X39991587Y-25747692D01*
X39998603Y-25739142D01*
X40202746Y-25534999D01*
X40211296Y-25527983D01*
X40215598Y-25525683D01*
X40220269Y-25524266D01*
X40228473Y-25523458D01*
X40252507Y-25518677D01*
X40275146Y-25509299D01*
X40295520Y-25495684D01*
X40312846Y-25478357D01*
X40326460Y-25457982D01*
X40335837Y-25435342D01*
X40340616Y-25411315D01*
X40341424Y-25403111D01*
X40342841Y-25398440D01*
X40345141Y-25394138D01*
X40352157Y-25385588D01*
X40556300Y-25181445D01*
X40564850Y-25174429D01*
X40569152Y-25172129D01*
X40573823Y-25170712D01*
X40582027Y-25169904D01*
X40606060Y-25165122D01*
X40628699Y-25155744D01*
X40649073Y-25142130D01*
X40666400Y-25124802D01*
X40680013Y-25104427D01*
X40689390Y-25081788D01*
X40694169Y-25057762D01*
X40694977Y-25049558D01*
X40696394Y-25044887D01*
X40698694Y-25040585D01*
X40705710Y-25032035D01*
X40909853Y-24827892D01*
X40918403Y-24820876D01*
X40922705Y-24818576D01*
X40927376Y-24817159D01*
X40935580Y-24816351D01*
X40959613Y-24811569D01*
X40982252Y-24802191D01*
X41002626Y-24788577D01*
X41019953Y-24771249D01*
X41033566Y-24750874D01*
X41042943Y-24728235D01*
X41047722Y-24704209D01*
X41048530Y-24696005D01*
X41049947Y-24691334D01*
X41052247Y-24687032D01*
X41059263Y-24678482D01*
X41263406Y-24474339D01*
X41271956Y-24467323D01*
X41276258Y-24465023D01*
X41280929Y-24463606D01*
X41289133Y-24462798D01*
X41313167Y-24458017D01*
X41335806Y-24448639D01*
X41356180Y-24435024D01*
X41373506Y-24417697D01*
X41387120Y-24397322D01*
X41396497Y-24374682D01*
X41401276Y-24350655D01*
X41402084Y-24342451D01*
X41403501Y-24337780D01*
X41405801Y-24333478D01*
X41412817Y-24324928D01*
X41616960Y-24120785D01*
X41625510Y-24113769D01*
X41629812Y-24111469D01*
X41634483Y-24110052D01*
X41642687Y-24109244D01*
X41666720Y-24104462D01*
X41689359Y-24095084D01*
X41709733Y-24081470D01*
X41727060Y-24064142D01*
X41740673Y-24043767D01*
X41750050Y-24021128D01*
X41754829Y-23997102D01*
X41755637Y-23988898D01*
X41757054Y-23984227D01*
X41759354Y-23979925D01*
X41766370Y-23971375D01*
X41970513Y-23767232D01*
X41979063Y-23760216D01*
X41983365Y-23757916D01*
X41988036Y-23756499D01*
X41992893Y-23756021D01*
X41997750Y-23756499D01*
X42002421Y-23757916D01*
X42006723Y-23760216D01*
X42015273Y-23767232D01*
X42611612Y-24363571D01*
X42630554Y-24379117D01*
X42652165Y-24390668D01*
X42675614Y-24397781D01*
X42700000Y-24400183D01*
X42724386Y-24397781D01*
X42747835Y-24390668D01*
X42769446Y-24379117D01*
X42788388Y-24363571D01*
X43384727Y-23767232D01*
X43393277Y-23760216D01*
X43397579Y-23757916D01*
X43402250Y-23756499D01*
X43407107Y-23756021D01*
X43411964Y-23756499D01*
X43411964Y-23756499D01*
G37*
G36*
X42722483Y-25033092D02*
X42744095Y-25039648D01*
X42764025Y-25050301D01*
X42786257Y-25068546D01*
X46221403Y-28503692D01*
X46239648Y-28525924D01*
X46250301Y-28545854D01*
X46256857Y-28567466D01*
X46259071Y-28589949D01*
X46256857Y-28612432D01*
X46250301Y-28634044D01*
X46239648Y-28653974D01*
X46221403Y-28676206D01*
X42786257Y-32111352D01*
X42764025Y-32129597D01*
X42744095Y-32140250D01*
X42722483Y-32146806D01*
X42700000Y-32149020D01*
X42677517Y-32146806D01*
X42655905Y-32140250D01*
X42635975Y-32129597D01*
X42613743Y-32111352D01*
X39178597Y-28676206D01*
X39160352Y-28653974D01*
X39149699Y-28634044D01*
X39143143Y-28612432D01*
X39140929Y-28589949D01*
X39143143Y-28567466D01*
X39149699Y-28545854D01*
X39160352Y-28525924D01*
X39178597Y-28503692D01*
X42613743Y-25068546D01*
X42635975Y-25050301D01*
X42655905Y-25039648D01*
X42677517Y-25033092D01*
X42700000Y-25030878D01*
X42722483Y-25033092D01*
X42722483Y-25033092D01*
G37*
G36*
X59310443Y-31575519D02*
X59376627Y-31582037D01*
X59488212Y-31615886D01*
X59546467Y-31633557D01*
X59641238Y-31684214D01*
X59702991Y-31717222D01*
X59728618Y-31738254D01*
X59840186Y-31829814D01*
X59912608Y-31918062D01*
X59952778Y-31967009D01*
X59952779Y-31967011D01*
X60036443Y-32123533D01*
X60047250Y-32159159D01*
X60087963Y-32293373D01*
X60105359Y-32470000D01*
X60087963Y-32646627D01*
X60065135Y-32721881D01*
X60036443Y-32816467D01*
X60001692Y-32881480D01*
X59952778Y-32972991D01*
X59932243Y-32998013D01*
X59840186Y-33110186D01*
X59768550Y-33168975D01*
X59702991Y-33222778D01*
X59685087Y-33232348D01*
X59546467Y-33306443D01*
X59489853Y-33323616D01*
X59376627Y-33357963D01*
X59310443Y-33364481D01*
X59244260Y-33371000D01*
X59155740Y-33371000D01*
X59089557Y-33364481D01*
X59023373Y-33357963D01*
X58910147Y-33323616D01*
X58853533Y-33306443D01*
X58714913Y-33232348D01*
X58697009Y-33222778D01*
X58631450Y-33168975D01*
X58559814Y-33110186D01*
X58467757Y-32998013D01*
X58447222Y-32972991D01*
X58398308Y-32881480D01*
X58363557Y-32816467D01*
X58334865Y-32721881D01*
X58312037Y-32646627D01*
X58294641Y-32470000D01*
X58312037Y-32293373D01*
X58352750Y-32159159D01*
X58363557Y-32123533D01*
X58447221Y-31967011D01*
X58447222Y-31967009D01*
X58487392Y-31918062D01*
X58559814Y-31829814D01*
X58671382Y-31738254D01*
X58697009Y-31717222D01*
X58758762Y-31684214D01*
X58853533Y-31633557D01*
X58911788Y-31615886D01*
X59023373Y-31582037D01*
X59089557Y-31575519D01*
X59155740Y-31569000D01*
X59244260Y-31569000D01*
X59310443Y-31575519D01*
X59310443Y-31575519D01*
G37*
G36*
X51281938Y-32271716D02*
X51302556Y-32277970D01*
X51321556Y-32288126D01*
X51338208Y-32301792D01*
X51351874Y-32318444D01*
X51362030Y-32337444D01*
X51368284Y-32358062D01*
X51371000Y-32385640D01*
X51371000Y-32844360D01*
X51368284Y-32871938D01*
X51362030Y-32892556D01*
X51351874Y-32911556D01*
X51338208Y-32928208D01*
X51321556Y-32941874D01*
X51302556Y-32952030D01*
X51281938Y-32958284D01*
X51254360Y-32961000D01*
X50745640Y-32961000D01*
X50718062Y-32958284D01*
X50697444Y-32952030D01*
X50678444Y-32941874D01*
X50661792Y-32928208D01*
X50648126Y-32911556D01*
X50637970Y-32892556D01*
X50631716Y-32871938D01*
X50629000Y-32844360D01*
X50629000Y-32385640D01*
X50631716Y-32358062D01*
X50637970Y-32337444D01*
X50648126Y-32318444D01*
X50661792Y-32301792D01*
X50678444Y-32288126D01*
X50697444Y-32277970D01*
X50718062Y-32271716D01*
X50745640Y-32269000D01*
X51254360Y-32269000D01*
X51281938Y-32271716D01*
X51281938Y-32271716D01*
G37*
G36*
X29741938Y-31831716D02*
X29762556Y-31837970D01*
X29781556Y-31848126D01*
X29798208Y-31861792D01*
X29811874Y-31878444D01*
X29822030Y-31897444D01*
X29828284Y-31918062D01*
X29831000Y-31945640D01*
X29831000Y-32454360D01*
X29828284Y-32481938D01*
X29822030Y-32502556D01*
X29811874Y-32521556D01*
X29798208Y-32538208D01*
X29781556Y-32551874D01*
X29762556Y-32562030D01*
X29741938Y-32568284D01*
X29714360Y-32571000D01*
X29255640Y-32571000D01*
X29228062Y-32568284D01*
X29207444Y-32562030D01*
X29188444Y-32551874D01*
X29171792Y-32538208D01*
X29158126Y-32521556D01*
X29147970Y-32502556D01*
X29141716Y-32481938D01*
X29139000Y-32454360D01*
X29139000Y-31945640D01*
X29141716Y-31918062D01*
X29147970Y-31897444D01*
X29158126Y-31878444D01*
X29171792Y-31861792D01*
X29188444Y-31848126D01*
X29207444Y-31837970D01*
X29228062Y-31831716D01*
X29255640Y-31829000D01*
X29714360Y-31829000D01*
X29741938Y-31831716D01*
X29741938Y-31831716D01*
G37*
G36*
X28771938Y-31831716D02*
X28792556Y-31837970D01*
X28811556Y-31848126D01*
X28828208Y-31861792D01*
X28841874Y-31878444D01*
X28852030Y-31897444D01*
X28858284Y-31918062D01*
X28861000Y-31945640D01*
X28861000Y-32454360D01*
X28858284Y-32481938D01*
X28852030Y-32502556D01*
X28841874Y-32521556D01*
X28828208Y-32538208D01*
X28811556Y-32551874D01*
X28792556Y-32562030D01*
X28771938Y-32568284D01*
X28744360Y-32571000D01*
X28285640Y-32571000D01*
X28258062Y-32568284D01*
X28237444Y-32562030D01*
X28218444Y-32551874D01*
X28201792Y-32538208D01*
X28188126Y-32521556D01*
X28177970Y-32502556D01*
X28171716Y-32481938D01*
X28169000Y-32454360D01*
X28169000Y-31945640D01*
X28171716Y-31918062D01*
X28177970Y-31897444D01*
X28188126Y-31878444D01*
X28201792Y-31861792D01*
X28218444Y-31848126D01*
X28237444Y-31837970D01*
X28258062Y-31831716D01*
X28285640Y-31829000D01*
X28744360Y-31829000D01*
X28771938Y-31831716D01*
X28771938Y-31831716D01*
G37*
G36*
X34881938Y-31541716D02*
X34902556Y-31547970D01*
X34921556Y-31558126D01*
X34938208Y-31571792D01*
X34951874Y-31588444D01*
X34962030Y-31607444D01*
X34968284Y-31628062D01*
X34971000Y-31655640D01*
X34971000Y-32114360D01*
X34968284Y-32141938D01*
X34962030Y-32162556D01*
X34951874Y-32181556D01*
X34938208Y-32198208D01*
X34921556Y-32211874D01*
X34902556Y-32222030D01*
X34881938Y-32228284D01*
X34854360Y-32231000D01*
X34345640Y-32231000D01*
X34318062Y-32228284D01*
X34297444Y-32222030D01*
X34278444Y-32211874D01*
X34261792Y-32198208D01*
X34248126Y-32181556D01*
X34237970Y-32162556D01*
X34231716Y-32141938D01*
X34229000Y-32114360D01*
X34229000Y-31655640D01*
X34231716Y-31628062D01*
X34237970Y-31607444D01*
X34248126Y-31588444D01*
X34261792Y-31571792D01*
X34278444Y-31558126D01*
X34297444Y-31547970D01*
X34318062Y-31541716D01*
X34345640Y-31539000D01*
X34854360Y-31539000D01*
X34881938Y-31541716D01*
X34881938Y-31541716D01*
G37*
G36*
X33881938Y-31541716D02*
X33902556Y-31547970D01*
X33921556Y-31558126D01*
X33938208Y-31571792D01*
X33951874Y-31588444D01*
X33962030Y-31607444D01*
X33968284Y-31628062D01*
X33971000Y-31655640D01*
X33971000Y-32114360D01*
X33968284Y-32141938D01*
X33962030Y-32162556D01*
X33951874Y-32181556D01*
X33938208Y-32198208D01*
X33921556Y-32211874D01*
X33902556Y-32222030D01*
X33881938Y-32228284D01*
X33854360Y-32231000D01*
X33345640Y-32231000D01*
X33318062Y-32228284D01*
X33297444Y-32222030D01*
X33278444Y-32211874D01*
X33261792Y-32198208D01*
X33248126Y-32181556D01*
X33237970Y-32162556D01*
X33231716Y-32141938D01*
X33229000Y-32114360D01*
X33229000Y-31655640D01*
X33231716Y-31628062D01*
X33237970Y-31607444D01*
X33248126Y-31588444D01*
X33261792Y-31571792D01*
X33278444Y-31558126D01*
X33297444Y-31547970D01*
X33318062Y-31541716D01*
X33345640Y-31539000D01*
X33854360Y-31539000D01*
X33881938Y-31541716D01*
X33881938Y-31541716D01*
G37*
G36*
X25034671Y-31098449D02*
X25034673Y-31098450D01*
X25034674Y-31098450D01*
X25103102Y-31126793D01*
X25164408Y-31167757D01*
X25164688Y-31167944D01*
X25217055Y-31220311D01*
X25217057Y-31220314D01*
X25258206Y-31281897D01*
X25281530Y-31338208D01*
X25286550Y-31350328D01*
X25300999Y-31422966D01*
X25300999Y-31497034D01*
X25286684Y-31569000D01*
X25286549Y-31569675D01*
X25258206Y-31638103D01*
X25234211Y-31674013D01*
X25217055Y-31699689D01*
X25164688Y-31752056D01*
X25164685Y-31752058D01*
X25103102Y-31793207D01*
X25034674Y-31821550D01*
X25034673Y-31821550D01*
X25034671Y-31821551D01*
X24962033Y-31836000D01*
X24887965Y-31836000D01*
X24815327Y-31821551D01*
X24815325Y-31821550D01*
X24815324Y-31821550D01*
X24746896Y-31793207D01*
X24685313Y-31752058D01*
X24685310Y-31752056D01*
X24632943Y-31699689D01*
X24615787Y-31674013D01*
X24591792Y-31638103D01*
X24563449Y-31569675D01*
X24563315Y-31569000D01*
X24548999Y-31497034D01*
X24548999Y-31422966D01*
X24563448Y-31350328D01*
X24568468Y-31338208D01*
X24591792Y-31281897D01*
X24632941Y-31220314D01*
X24632943Y-31220311D01*
X24685310Y-31167944D01*
X24685590Y-31167757D01*
X24746896Y-31126793D01*
X24815324Y-31098450D01*
X24815325Y-31098450D01*
X24815327Y-31098449D01*
X24887965Y-31084000D01*
X24962033Y-31084000D01*
X25034671Y-31098449D01*
X25034671Y-31098449D01*
G37*
G36*
X57351000Y-31813000D02*
X56199000Y-31813000D01*
X56199000Y-31061000D01*
X57351000Y-31061000D01*
X57351000Y-31813000D01*
X57351000Y-31813000D01*
G37*
G36*
X53201000Y-31813000D02*
X52049000Y-31813000D01*
X52049000Y-31061000D01*
X53201000Y-31061000D01*
X53201000Y-31813000D01*
X53201000Y-31813000D01*
G37*
G36*
X31371938Y-30631716D02*
X31392556Y-30637970D01*
X31411556Y-30648126D01*
X31428208Y-30661792D01*
X31441874Y-30678444D01*
X31452030Y-30697444D01*
X31458284Y-30718062D01*
X31461000Y-30745640D01*
X31461000Y-31254360D01*
X31458284Y-31281938D01*
X31452030Y-31302556D01*
X31441874Y-31321556D01*
X31428208Y-31338208D01*
X31411556Y-31351874D01*
X31392556Y-31362030D01*
X31371938Y-31368284D01*
X31344360Y-31371000D01*
X30885640Y-31371000D01*
X30858062Y-31368284D01*
X30837444Y-31362030D01*
X30818444Y-31351874D01*
X30801792Y-31338208D01*
X30788126Y-31321556D01*
X30777970Y-31302556D01*
X30771716Y-31281938D01*
X30769000Y-31254360D01*
X30769000Y-30745640D01*
X30771716Y-30718062D01*
X30777970Y-30697444D01*
X30788126Y-30678444D01*
X30801792Y-30661792D01*
X30818444Y-30648126D01*
X30837444Y-30637970D01*
X30858062Y-30631716D01*
X30885640Y-30629000D01*
X31344360Y-30629000D01*
X31371938Y-30631716D01*
X31371938Y-30631716D01*
G37*
G36*
X28771938Y-30631716D02*
X28792556Y-30637970D01*
X28811556Y-30648126D01*
X28828208Y-30661792D01*
X28841874Y-30678444D01*
X28852030Y-30697444D01*
X28858284Y-30718062D01*
X28861000Y-30745640D01*
X28861000Y-31254360D01*
X28858284Y-31281938D01*
X28852030Y-31302556D01*
X28841874Y-31321556D01*
X28828208Y-31338208D01*
X28811556Y-31351874D01*
X28792556Y-31362030D01*
X28771938Y-31368284D01*
X28744360Y-31371000D01*
X28285640Y-31371000D01*
X28258062Y-31368284D01*
X28237444Y-31362030D01*
X28218444Y-31351874D01*
X28201792Y-31338208D01*
X28188126Y-31321556D01*
X28177970Y-31302556D01*
X28171716Y-31281938D01*
X28169000Y-31254360D01*
X28169000Y-30745640D01*
X28171716Y-30718062D01*
X28177970Y-30697444D01*
X28188126Y-30678444D01*
X28201792Y-30661792D01*
X28218444Y-30648126D01*
X28237444Y-30637970D01*
X28258062Y-30631716D01*
X28285640Y-30629000D01*
X28744360Y-30629000D01*
X28771938Y-30631716D01*
X28771938Y-30631716D01*
G37*
G36*
X29741938Y-30631716D02*
X29762556Y-30637970D01*
X29781556Y-30648126D01*
X29798208Y-30661792D01*
X29811874Y-30678444D01*
X29822030Y-30697444D01*
X29828284Y-30718062D01*
X29831000Y-30745640D01*
X29831000Y-31254360D01*
X29828284Y-31281938D01*
X29822030Y-31302556D01*
X29811874Y-31321556D01*
X29798208Y-31338208D01*
X29781556Y-31351874D01*
X29762556Y-31362030D01*
X29741938Y-31368284D01*
X29714360Y-31371000D01*
X29255640Y-31371000D01*
X29228062Y-31368284D01*
X29207444Y-31362030D01*
X29188444Y-31351874D01*
X29171792Y-31338208D01*
X29158126Y-31321556D01*
X29147970Y-31302556D01*
X29141716Y-31281938D01*
X29139000Y-31254360D01*
X29139000Y-30745640D01*
X29141716Y-30718062D01*
X29147970Y-30697444D01*
X29158126Y-30678444D01*
X29171792Y-30661792D01*
X29188444Y-30648126D01*
X29207444Y-30637970D01*
X29228062Y-30631716D01*
X29255640Y-30629000D01*
X29714360Y-30629000D01*
X29741938Y-30631716D01*
X29741938Y-30631716D01*
G37*
G36*
X32341938Y-30631716D02*
X32362556Y-30637970D01*
X32381556Y-30648126D01*
X32398208Y-30661792D01*
X32411874Y-30678444D01*
X32422030Y-30697444D01*
X32428284Y-30718062D01*
X32431000Y-30745640D01*
X32431000Y-31254360D01*
X32428284Y-31281938D01*
X32422030Y-31302556D01*
X32411874Y-31321556D01*
X32398208Y-31338208D01*
X32381556Y-31351874D01*
X32362556Y-31362030D01*
X32341938Y-31368284D01*
X32314360Y-31371000D01*
X31855640Y-31371000D01*
X31828062Y-31368284D01*
X31807444Y-31362030D01*
X31788444Y-31351874D01*
X31771792Y-31338208D01*
X31758126Y-31321556D01*
X31747970Y-31302556D01*
X31741716Y-31281938D01*
X31739000Y-31254360D01*
X31739000Y-30745640D01*
X31741716Y-30718062D01*
X31747970Y-30697444D01*
X31758126Y-30678444D01*
X31771792Y-30661792D01*
X31788444Y-30648126D01*
X31807444Y-30637970D01*
X31828062Y-30631716D01*
X31855640Y-30629000D01*
X32314360Y-30629000D01*
X32341938Y-30631716D01*
X32341938Y-30631716D01*
G37*
G36*
X33881938Y-30571716D02*
X33902556Y-30577970D01*
X33921556Y-30588126D01*
X33938208Y-30601792D01*
X33951874Y-30618444D01*
X33962030Y-30637444D01*
X33968284Y-30658062D01*
X33971000Y-30685640D01*
X33971000Y-31144360D01*
X33968284Y-31171938D01*
X33962030Y-31192556D01*
X33951874Y-31211556D01*
X33938208Y-31228208D01*
X33921556Y-31241874D01*
X33902556Y-31252030D01*
X33881938Y-31258284D01*
X33854360Y-31261000D01*
X33345640Y-31261000D01*
X33318062Y-31258284D01*
X33297444Y-31252030D01*
X33278444Y-31241874D01*
X33261792Y-31228208D01*
X33248126Y-31211556D01*
X33237970Y-31192556D01*
X33231716Y-31171938D01*
X33229000Y-31144360D01*
X33229000Y-30685640D01*
X33231716Y-30658062D01*
X33237970Y-30637444D01*
X33248126Y-30618444D01*
X33261792Y-30601792D01*
X33278444Y-30588126D01*
X33297444Y-30577970D01*
X33318062Y-30571716D01*
X33345640Y-30569000D01*
X33854360Y-30569000D01*
X33881938Y-30571716D01*
X33881938Y-30571716D01*
G37*
G36*
X34881938Y-30571716D02*
X34902556Y-30577970D01*
X34921556Y-30588126D01*
X34938208Y-30601792D01*
X34951874Y-30618444D01*
X34962030Y-30637444D01*
X34968284Y-30658062D01*
X34971000Y-30685640D01*
X34971000Y-31144360D01*
X34968284Y-31171938D01*
X34962030Y-31192556D01*
X34951874Y-31211556D01*
X34938208Y-31228208D01*
X34921556Y-31241874D01*
X34902556Y-31252030D01*
X34881938Y-31258284D01*
X34854360Y-31261000D01*
X34345640Y-31261000D01*
X34318062Y-31258284D01*
X34297444Y-31252030D01*
X34278444Y-31241874D01*
X34261792Y-31228208D01*
X34248126Y-31211556D01*
X34237970Y-31192556D01*
X34231716Y-31171938D01*
X34229000Y-31144360D01*
X34229000Y-30685640D01*
X34231716Y-30658062D01*
X34237970Y-30637444D01*
X34248126Y-30618444D01*
X34261792Y-30601792D01*
X34278444Y-30588126D01*
X34297444Y-30577970D01*
X34318062Y-30571716D01*
X34345640Y-30569000D01*
X34854360Y-30569000D01*
X34881938Y-30571716D01*
X34881938Y-30571716D01*
G37*
G36*
X37282063Y-29984438D02*
X37302681Y-29990692D01*
X37321681Y-30000848D01*
X37343106Y-30018431D01*
X37667463Y-30342788D01*
X37685046Y-30364213D01*
X37695202Y-30383213D01*
X37701456Y-30403831D01*
X37703567Y-30425269D01*
X37701456Y-30446707D01*
X37695202Y-30467325D01*
X37685046Y-30486325D01*
X37667463Y-30507750D01*
X37307750Y-30867463D01*
X37286325Y-30885046D01*
X37267325Y-30895202D01*
X37246707Y-30901456D01*
X37225269Y-30903567D01*
X37203831Y-30901456D01*
X37183213Y-30895202D01*
X37164213Y-30885046D01*
X37142788Y-30867463D01*
X36818431Y-30543106D01*
X36800848Y-30521681D01*
X36790692Y-30502681D01*
X36784438Y-30482063D01*
X36782327Y-30460625D01*
X36784438Y-30439187D01*
X36790692Y-30418569D01*
X36800848Y-30399569D01*
X36818431Y-30378144D01*
X37178144Y-30018431D01*
X37199569Y-30000848D01*
X37218569Y-29990692D01*
X37239187Y-29984438D01*
X37260625Y-29982327D01*
X37282063Y-29984438D01*
X37282063Y-29984438D01*
G37*
G36*
X59310443Y-29035519D02*
X59376627Y-29042037D01*
X59481995Y-29074000D01*
X59546467Y-29093557D01*
X59619392Y-29132537D01*
X59702991Y-29177222D01*
X59727853Y-29197626D01*
X59840186Y-29289814D01*
X59910662Y-29375691D01*
X59952778Y-29427009D01*
X59952779Y-29427011D01*
X60036443Y-29583533D01*
X60049950Y-29628062D01*
X60087963Y-29753373D01*
X60105359Y-29930000D01*
X60087963Y-30106627D01*
X60057484Y-30207102D01*
X60036443Y-30276467D01*
X59966881Y-30406606D01*
X59952778Y-30432991D01*
X59950140Y-30436205D01*
X59840186Y-30570186D01*
X59754041Y-30640882D01*
X59702991Y-30682778D01*
X59702989Y-30682779D01*
X59546467Y-30766443D01*
X59505684Y-30778814D01*
X59376627Y-30817963D01*
X59310443Y-30824481D01*
X59244260Y-30831000D01*
X59155740Y-30831000D01*
X59089557Y-30824481D01*
X59023373Y-30817963D01*
X58894316Y-30778814D01*
X58853533Y-30766443D01*
X58697011Y-30682779D01*
X58697009Y-30682778D01*
X58645959Y-30640882D01*
X58559814Y-30570186D01*
X58449860Y-30436205D01*
X58447222Y-30432991D01*
X58433119Y-30406606D01*
X58363557Y-30276467D01*
X58342516Y-30207102D01*
X58312037Y-30106627D01*
X58294641Y-29930000D01*
X58312037Y-29753373D01*
X58350050Y-29628062D01*
X58363557Y-29583533D01*
X58447221Y-29427011D01*
X58447222Y-29427009D01*
X58489338Y-29375691D01*
X58559814Y-29289814D01*
X58672147Y-29197626D01*
X58697009Y-29177222D01*
X58780608Y-29132537D01*
X58853533Y-29093557D01*
X58918005Y-29074000D01*
X59023373Y-29042037D01*
X59089557Y-29035519D01*
X59155740Y-29029000D01*
X59244260Y-29029000D01*
X59310443Y-29035519D01*
X59310443Y-29035519D01*
G37*
G36*
X47660813Y-29784438D02*
X47681431Y-29790692D01*
X47700431Y-29800848D01*
X47721856Y-29818431D01*
X48081569Y-30178144D01*
X48099152Y-30199569D01*
X48109308Y-30218569D01*
X48115562Y-30239187D01*
X48117673Y-30260625D01*
X48115562Y-30282063D01*
X48109308Y-30302681D01*
X48099152Y-30321681D01*
X48081569Y-30343106D01*
X47757212Y-30667463D01*
X47735787Y-30685046D01*
X47716787Y-30695202D01*
X47696169Y-30701456D01*
X47674731Y-30703567D01*
X47653293Y-30701456D01*
X47632675Y-30695202D01*
X47613675Y-30685046D01*
X47592250Y-30667463D01*
X47232537Y-30307750D01*
X47214954Y-30286325D01*
X47204798Y-30267325D01*
X47198544Y-30246707D01*
X47196433Y-30225269D01*
X47198544Y-30203831D01*
X47204798Y-30183213D01*
X47214954Y-30164213D01*
X47232537Y-30142788D01*
X47556894Y-29818431D01*
X47578319Y-29800848D01*
X47597319Y-29790692D01*
X47617937Y-29784438D01*
X47639375Y-29782327D01*
X47660813Y-29784438D01*
X47660813Y-29784438D01*
G37*
G36*
X54426000Y-29481000D02*
X53340807Y-29481000D01*
X53316421Y-29483402D01*
X53292972Y-29490515D01*
X53271361Y-29502066D01*
X53252419Y-29517612D01*
X53236873Y-29536554D01*
X53225322Y-29558165D01*
X53218209Y-29581614D01*
X53215807Y-29606000D01*
X53218209Y-29630386D01*
X53225322Y-29653835D01*
X53236873Y-29675446D01*
X53252419Y-29694388D01*
X53271361Y-29709934D01*
X53292972Y-29721485D01*
X53316421Y-29728598D01*
X53328555Y-29730398D01*
X53341938Y-29731716D01*
X53362556Y-29737970D01*
X53381556Y-29748126D01*
X53398208Y-29761792D01*
X53411874Y-29778444D01*
X53422030Y-29797444D01*
X53428284Y-29818062D01*
X53431000Y-29845640D01*
X53431000Y-30354360D01*
X53428284Y-30381938D01*
X53422030Y-30402556D01*
X53411874Y-30421556D01*
X53398208Y-30438208D01*
X53381556Y-30451874D01*
X53362556Y-30462030D01*
X53341938Y-30468284D01*
X53314360Y-30471000D01*
X52855640Y-30471000D01*
X52828062Y-30468284D01*
X52807444Y-30462030D01*
X52788444Y-30451874D01*
X52771792Y-30438208D01*
X52758126Y-30421556D01*
X52747970Y-30402556D01*
X52741716Y-30381938D01*
X52739000Y-30354360D01*
X52739000Y-29845640D01*
X52741716Y-29818062D01*
X52747970Y-29797444D01*
X52758126Y-29778444D01*
X52771792Y-29761792D01*
X52788444Y-29748126D01*
X52807444Y-29737970D01*
X52828062Y-29731716D01*
X52841445Y-29730398D01*
X52865478Y-29725618D01*
X52888117Y-29716240D01*
X52908492Y-29702626D01*
X52925819Y-29685299D01*
X52939433Y-29664925D01*
X52948811Y-29642286D01*
X52953591Y-29618252D01*
X52953591Y-29593748D01*
X52948811Y-29569715D01*
X52939433Y-29547076D01*
X52925819Y-29526701D01*
X52908492Y-29509374D01*
X52888118Y-29495760D01*
X52865479Y-29486382D01*
X52841445Y-29481602D01*
X52829193Y-29481000D01*
X52370807Y-29481000D01*
X52346421Y-29483402D01*
X52322972Y-29490515D01*
X52301361Y-29502066D01*
X52282419Y-29517612D01*
X52266873Y-29536554D01*
X52255322Y-29558165D01*
X52248209Y-29581614D01*
X52245807Y-29606000D01*
X52248209Y-29630386D01*
X52255322Y-29653835D01*
X52266873Y-29675446D01*
X52282419Y-29694388D01*
X52301361Y-29709934D01*
X52322972Y-29721485D01*
X52346421Y-29728598D01*
X52358555Y-29730398D01*
X52371938Y-29731716D01*
X52392556Y-29737970D01*
X52411556Y-29748126D01*
X52428208Y-29761792D01*
X52441874Y-29778444D01*
X52452030Y-29797444D01*
X52458284Y-29818062D01*
X52461000Y-29845640D01*
X52461000Y-30354360D01*
X52458284Y-30381938D01*
X52452030Y-30402556D01*
X52441874Y-30421556D01*
X52428208Y-30438208D01*
X52411556Y-30451874D01*
X52392556Y-30462030D01*
X52371938Y-30468284D01*
X52344360Y-30471000D01*
X51885640Y-30471000D01*
X51858062Y-30468284D01*
X51837444Y-30462030D01*
X51818444Y-30451874D01*
X51801792Y-30438208D01*
X51788126Y-30421556D01*
X51777970Y-30402556D01*
X51771716Y-30381938D01*
X51769000Y-30354360D01*
X51769000Y-29845640D01*
X51771716Y-29818062D01*
X51777970Y-29797444D01*
X51788126Y-29778444D01*
X51801792Y-29761792D01*
X51818444Y-29748126D01*
X51837444Y-29737970D01*
X51858062Y-29731716D01*
X51871445Y-29730398D01*
X51895478Y-29725618D01*
X51918117Y-29716240D01*
X51938492Y-29702626D01*
X51955819Y-29685299D01*
X51969433Y-29664925D01*
X51978811Y-29642286D01*
X51983591Y-29618252D01*
X51983591Y-29593748D01*
X51978811Y-29569715D01*
X51969433Y-29547076D01*
X51955819Y-29526701D01*
X51938492Y-29509374D01*
X51918118Y-29495760D01*
X51895479Y-29486382D01*
X51871445Y-29481602D01*
X51859193Y-29481000D01*
X51774000Y-29481000D01*
X51774000Y-28319000D01*
X54426000Y-28319000D01*
X54426000Y-29481000D01*
X54426000Y-29481000D01*
G37*
G36*
X51181938Y-29541716D02*
X51202556Y-29547970D01*
X51221556Y-29558126D01*
X51238208Y-29571792D01*
X51251874Y-29588444D01*
X51262030Y-29607444D01*
X51268284Y-29628062D01*
X51271000Y-29655640D01*
X51271000Y-30114360D01*
X51268284Y-30141938D01*
X51262030Y-30162556D01*
X51251874Y-30181556D01*
X51238208Y-30198208D01*
X51221556Y-30211874D01*
X51202556Y-30222030D01*
X51181938Y-30228284D01*
X51154360Y-30231000D01*
X50645640Y-30231000D01*
X50618062Y-30228284D01*
X50597444Y-30222030D01*
X50578444Y-30211874D01*
X50561792Y-30198208D01*
X50548126Y-30181556D01*
X50537970Y-30162556D01*
X50531716Y-30141938D01*
X50529000Y-30114360D01*
X50529000Y-29655640D01*
X50531716Y-29628062D01*
X50537970Y-29607444D01*
X50548126Y-29588444D01*
X50561792Y-29571792D01*
X50578444Y-29558126D01*
X50597444Y-29547970D01*
X50618062Y-29541716D01*
X50645640Y-29539000D01*
X51154360Y-29539000D01*
X51181938Y-29541716D01*
X51181938Y-29541716D01*
G37*
G36*
X36596169Y-29298544D02*
X36616787Y-29304798D01*
X36635787Y-29314954D01*
X36657212Y-29332537D01*
X36981569Y-29656894D01*
X36999152Y-29678319D01*
X37009308Y-29697319D01*
X37015562Y-29717937D01*
X37017673Y-29739375D01*
X37015562Y-29760813D01*
X37009308Y-29781431D01*
X36999152Y-29800431D01*
X36981569Y-29821856D01*
X36621856Y-30181569D01*
X36600431Y-30199152D01*
X36581431Y-30209308D01*
X36560813Y-30215562D01*
X36539375Y-30217673D01*
X36517937Y-30215562D01*
X36497319Y-30209308D01*
X36478319Y-30199152D01*
X36456894Y-30181569D01*
X36132537Y-29857212D01*
X36114954Y-29835787D01*
X36104798Y-29816787D01*
X36098544Y-29796169D01*
X36096433Y-29774731D01*
X36098544Y-29753293D01*
X36104798Y-29732675D01*
X36114954Y-29713675D01*
X36132537Y-29692250D01*
X36492250Y-29332537D01*
X36513675Y-29314954D01*
X36532675Y-29304798D01*
X36553293Y-29298544D01*
X36574731Y-29296433D01*
X36596169Y-29298544D01*
X36596169Y-29298544D01*
G37*
G36*
X33655357Y-26850083D02*
X33660028Y-26851500D01*
X33664330Y-26853800D01*
X33670705Y-26859031D01*
X33691080Y-26872644D01*
X33713719Y-26882020D01*
X33737753Y-26886800D01*
X33762257Y-26886799D01*
X33786291Y-26882017D01*
X33808929Y-26872639D01*
X33829295Y-26859031D01*
X33835670Y-26853800D01*
X33839972Y-26851500D01*
X33844643Y-26850083D01*
X33855641Y-26849000D01*
X34144359Y-26849000D01*
X34155357Y-26850083D01*
X34160028Y-26851500D01*
X34164330Y-26853800D01*
X34170705Y-26859031D01*
X34191080Y-26872644D01*
X34213719Y-26882020D01*
X34237753Y-26886800D01*
X34262257Y-26886799D01*
X34286291Y-26882017D01*
X34308929Y-26872639D01*
X34329295Y-26859031D01*
X34335670Y-26853800D01*
X34339972Y-26851500D01*
X34344643Y-26850083D01*
X34355641Y-26849000D01*
X34644359Y-26849000D01*
X34655357Y-26850083D01*
X34660028Y-26851500D01*
X34664330Y-26853800D01*
X34668104Y-26856896D01*
X34671200Y-26860670D01*
X34673500Y-26864972D01*
X34674917Y-26869643D01*
X34676000Y-26880641D01*
X34676000Y-27486581D01*
X34678402Y-27510967D01*
X34685515Y-27534416D01*
X34697066Y-27556027D01*
X34712612Y-27574969D01*
X34731554Y-27590515D01*
X34753165Y-27602066D01*
X34776614Y-27609179D01*
X34801000Y-27611581D01*
X34825386Y-27609179D01*
X34848835Y-27602066D01*
X34880297Y-27583209D01*
X34885670Y-27578799D01*
X34889972Y-27576500D01*
X34894643Y-27575083D01*
X34905641Y-27574000D01*
X35619359Y-27574000D01*
X35630357Y-27575083D01*
X35635028Y-27576500D01*
X35639330Y-27578800D01*
X35643104Y-27581896D01*
X35646200Y-27585670D01*
X35648500Y-27589972D01*
X35649917Y-27594643D01*
X35651000Y-27605641D01*
X35651000Y-27894359D01*
X35649917Y-27905357D01*
X35648500Y-27910028D01*
X35646200Y-27914330D01*
X35640969Y-27920705D01*
X35627356Y-27941080D01*
X35617980Y-27963719D01*
X35613200Y-27987753D01*
X35613201Y-28012257D01*
X35617983Y-28036291D01*
X35627361Y-28058929D01*
X35640969Y-28079295D01*
X35646200Y-28085670D01*
X35648500Y-28089972D01*
X35649917Y-28094643D01*
X35651000Y-28105641D01*
X35651000Y-28394359D01*
X35649917Y-28405357D01*
X35648500Y-28410028D01*
X35646200Y-28414330D01*
X35640969Y-28420705D01*
X35627356Y-28441080D01*
X35617980Y-28463719D01*
X35613200Y-28487753D01*
X35613201Y-28512257D01*
X35617983Y-28536291D01*
X35627361Y-28558929D01*
X35640969Y-28579295D01*
X35646200Y-28585670D01*
X35648500Y-28589972D01*
X35649917Y-28594643D01*
X35651000Y-28605641D01*
X35651000Y-28894359D01*
X35649917Y-28905357D01*
X35648500Y-28910028D01*
X35646200Y-28914330D01*
X35640969Y-28920705D01*
X35627356Y-28941080D01*
X35617980Y-28963719D01*
X35613200Y-28987753D01*
X35613201Y-29012257D01*
X35617983Y-29036291D01*
X35627361Y-29058929D01*
X35640969Y-29079295D01*
X35646200Y-29085670D01*
X35648500Y-29089972D01*
X35649917Y-29094643D01*
X35651000Y-29105641D01*
X35651000Y-29394359D01*
X35649917Y-29405357D01*
X35648500Y-29410028D01*
X35646200Y-29414330D01*
X35643104Y-29418104D01*
X35639330Y-29421200D01*
X35635028Y-29423500D01*
X35630357Y-29424917D01*
X35619359Y-29426000D01*
X34905641Y-29426000D01*
X34894643Y-29424917D01*
X34889972Y-29423500D01*
X34885670Y-29421201D01*
X34880297Y-29416791D01*
X34859923Y-29403178D01*
X34837283Y-29393801D01*
X34813250Y-29389021D01*
X34788746Y-29389021D01*
X34764712Y-29393802D01*
X34742073Y-29403180D01*
X34721699Y-29416794D01*
X34704372Y-29434122D01*
X34690759Y-29454496D01*
X34681382Y-29477136D01*
X34676000Y-29513419D01*
X34676000Y-30119359D01*
X34674917Y-30130357D01*
X34673500Y-30135028D01*
X34671200Y-30139330D01*
X34668104Y-30143104D01*
X34664330Y-30146200D01*
X34660028Y-30148500D01*
X34655357Y-30149917D01*
X34644359Y-30151000D01*
X34355641Y-30151000D01*
X34344643Y-30149917D01*
X34339972Y-30148500D01*
X34335670Y-30146200D01*
X34329295Y-30140969D01*
X34308920Y-30127356D01*
X34286281Y-30117980D01*
X34262247Y-30113200D01*
X34237743Y-30113201D01*
X34213709Y-30117983D01*
X34191071Y-30127361D01*
X34170705Y-30140969D01*
X34164330Y-30146200D01*
X34160028Y-30148500D01*
X34155357Y-30149917D01*
X34144359Y-30151000D01*
X33855641Y-30151000D01*
X33844643Y-30149917D01*
X33839972Y-30148500D01*
X33835670Y-30146200D01*
X33829295Y-30140969D01*
X33808920Y-30127356D01*
X33786281Y-30117980D01*
X33762247Y-30113200D01*
X33737743Y-30113201D01*
X33713709Y-30117983D01*
X33691071Y-30127361D01*
X33670705Y-30140969D01*
X33664330Y-30146200D01*
X33660028Y-30148500D01*
X33655357Y-30149917D01*
X33644359Y-30151000D01*
X33355641Y-30151000D01*
X33344643Y-30149917D01*
X33339972Y-30148500D01*
X33335670Y-30146200D01*
X33331896Y-30143104D01*
X33328800Y-30139330D01*
X33326500Y-30135028D01*
X33325083Y-30130357D01*
X33324000Y-30119359D01*
X33324000Y-29513419D01*
X33321598Y-29489033D01*
X33314485Y-29465584D01*
X33302934Y-29443973D01*
X33287388Y-29425031D01*
X33268446Y-29409485D01*
X33246835Y-29397934D01*
X33223386Y-29390821D01*
X33199000Y-29388419D01*
X33174614Y-29390821D01*
X33151165Y-29397934D01*
X33119703Y-29416791D01*
X33114330Y-29421201D01*
X33110028Y-29423500D01*
X33105357Y-29424917D01*
X33094359Y-29426000D01*
X32380641Y-29426000D01*
X32369643Y-29424917D01*
X32364972Y-29423500D01*
X32360670Y-29421200D01*
X32356896Y-29418104D01*
X32353800Y-29414330D01*
X32351500Y-29410028D01*
X32350083Y-29405357D01*
X32349000Y-29394359D01*
X32349000Y-29105641D01*
X32350083Y-29094643D01*
X32351500Y-29089972D01*
X32353800Y-29085670D01*
X32359031Y-29079295D01*
X32372644Y-29058920D01*
X32382020Y-29036281D01*
X32386800Y-29012247D01*
X32386799Y-28987743D01*
X32382017Y-28963709D01*
X32372639Y-28941071D01*
X32359031Y-28920705D01*
X32353800Y-28914330D01*
X32351500Y-28910028D01*
X32350083Y-28905357D01*
X32349000Y-28894359D01*
X32349000Y-28605641D01*
X32350083Y-28594643D01*
X32351500Y-28589972D01*
X32353800Y-28585670D01*
X32359031Y-28579295D01*
X32372644Y-28558920D01*
X32382020Y-28536281D01*
X32386800Y-28512247D01*
X32386799Y-28487743D01*
X32382017Y-28463709D01*
X32372639Y-28441071D01*
X32359031Y-28420705D01*
X32353800Y-28414330D01*
X32351500Y-28410028D01*
X32350083Y-28405357D01*
X32349000Y-28394359D01*
X32349000Y-28105641D01*
X32350083Y-28094643D01*
X32351500Y-28089972D01*
X32353800Y-28085670D01*
X32359031Y-28079295D01*
X32372644Y-28058920D01*
X32382020Y-28036281D01*
X32386800Y-28012247D01*
X32386799Y-27987743D01*
X32382017Y-27963709D01*
X32372639Y-27941071D01*
X32359031Y-27920705D01*
X32353800Y-27914330D01*
X32351500Y-27910028D01*
X32350083Y-27905357D01*
X32349000Y-27894359D01*
X32349000Y-27605641D01*
X32350083Y-27594643D01*
X32351500Y-27589972D01*
X32353800Y-27585670D01*
X32356896Y-27581896D01*
X32360670Y-27578800D01*
X32364972Y-27576500D01*
X32369643Y-27575083D01*
X32380641Y-27574000D01*
X33094359Y-27574000D01*
X33105357Y-27575083D01*
X33110028Y-27576500D01*
X33114330Y-27578799D01*
X33119703Y-27583209D01*
X33140077Y-27596822D01*
X33162717Y-27606199D01*
X33186750Y-27610979D01*
X33211254Y-27610979D01*
X33235288Y-27606198D01*
X33257927Y-27596820D01*
X33278301Y-27583206D01*
X33295628Y-27565878D01*
X33309241Y-27545504D01*
X33318618Y-27522864D01*
X33324000Y-27486581D01*
X33324000Y-26880641D01*
X33325083Y-26869643D01*
X33326500Y-26864972D01*
X33328800Y-26860670D01*
X33331896Y-26856896D01*
X33335670Y-26853800D01*
X33339972Y-26851500D01*
X33344643Y-26850083D01*
X33355641Y-26849000D01*
X33644359Y-26849000D01*
X33655357Y-26850083D01*
X33655357Y-26850083D01*
G37*
G36*
X48346707Y-29098544D02*
X48367325Y-29104798D01*
X48386325Y-29114954D01*
X48407750Y-29132537D01*
X48767463Y-29492250D01*
X48785046Y-29513675D01*
X48795202Y-29532675D01*
X48801456Y-29553293D01*
X48803567Y-29574731D01*
X48801456Y-29596169D01*
X48795202Y-29616787D01*
X48785046Y-29635787D01*
X48767463Y-29657212D01*
X48443106Y-29981569D01*
X48421681Y-29999152D01*
X48402681Y-30009308D01*
X48382063Y-30015562D01*
X48360625Y-30017673D01*
X48339187Y-30015562D01*
X48318569Y-30009308D01*
X48299569Y-29999152D01*
X48278144Y-29981569D01*
X47918431Y-29621856D01*
X47900848Y-29600431D01*
X47890692Y-29581431D01*
X47884438Y-29560813D01*
X47882327Y-29539375D01*
X47884438Y-29517937D01*
X47890692Y-29497319D01*
X47900848Y-29478319D01*
X47918431Y-29456894D01*
X48242788Y-29132537D01*
X48264213Y-29114954D01*
X48283213Y-29104798D01*
X48303831Y-29098544D01*
X48325269Y-29096433D01*
X48346707Y-29098544D01*
X48346707Y-29098544D01*
G37*
G36*
X29181000Y-29826000D02*
X28019000Y-29826000D01*
X28019000Y-27174000D01*
X29181000Y-27174000D01*
X29181000Y-29826000D01*
X29181000Y-29826000D01*
G37*
G36*
X31381000Y-29826000D02*
X30219000Y-29826000D01*
X30219000Y-27174000D01*
X31381000Y-27174000D01*
X31381000Y-29826000D01*
X31381000Y-29826000D01*
G37*
G36*
X51181938Y-28571716D02*
X51202556Y-28577970D01*
X51221556Y-28588126D01*
X51238208Y-28601792D01*
X51251874Y-28618444D01*
X51262030Y-28637444D01*
X51268284Y-28658062D01*
X51271000Y-28685640D01*
X51271000Y-29144360D01*
X51268284Y-29171938D01*
X51262030Y-29192556D01*
X51251874Y-29211556D01*
X51238208Y-29228208D01*
X51221556Y-29241874D01*
X51202556Y-29252030D01*
X51181938Y-29258284D01*
X51154360Y-29261000D01*
X50645640Y-29261000D01*
X50618062Y-29258284D01*
X50597444Y-29252030D01*
X50578444Y-29241874D01*
X50561792Y-29228208D01*
X50548126Y-29211556D01*
X50537970Y-29192556D01*
X50531716Y-29171938D01*
X50529000Y-29144360D01*
X50529000Y-28685640D01*
X50531716Y-28658062D01*
X50537970Y-28637444D01*
X50548126Y-28618444D01*
X50561792Y-28601792D01*
X50578444Y-28588126D01*
X50597444Y-28577970D01*
X50618062Y-28571716D01*
X50645640Y-28569000D01*
X51154360Y-28569000D01*
X51181938Y-28571716D01*
X51181938Y-28571716D01*
G37*
G36*
X57284466Y-28103565D02*
X57323137Y-28115296D01*
X57358779Y-28134348D01*
X57390017Y-28159983D01*
X57415652Y-28191221D01*
X57434704Y-28226863D01*
X57446435Y-28265534D01*
X57451000Y-28311888D01*
X57451000Y-28963112D01*
X57446435Y-29009466D01*
X57434704Y-29048137D01*
X57415652Y-29083779D01*
X57390017Y-29115017D01*
X57358779Y-29140652D01*
X57323137Y-29159704D01*
X57284466Y-29171435D01*
X57238112Y-29176000D01*
X56161888Y-29176000D01*
X56115534Y-29171435D01*
X56076863Y-29159704D01*
X56041221Y-29140652D01*
X56009983Y-29115017D01*
X55984348Y-29083779D01*
X55965296Y-29048137D01*
X55953565Y-29009466D01*
X55949000Y-28963112D01*
X55949000Y-28311888D01*
X55953565Y-28265534D01*
X55965296Y-28226863D01*
X55984348Y-28191221D01*
X56009983Y-28159983D01*
X56041221Y-28134348D01*
X56076863Y-28115296D01*
X56115534Y-28103565D01*
X56161888Y-28099000D01*
X57238112Y-28099000D01*
X57284466Y-28103565D01*
X57284466Y-28103565D01*
G37*
G36*
X49281938Y-28341716D02*
X49302556Y-28347970D01*
X49321556Y-28358126D01*
X49338208Y-28371792D01*
X49351874Y-28388444D01*
X49362030Y-28407444D01*
X49368284Y-28428062D01*
X49371000Y-28455640D01*
X49371000Y-28914360D01*
X49368284Y-28941938D01*
X49362030Y-28962556D01*
X49351874Y-28981556D01*
X49338208Y-28998208D01*
X49321556Y-29011874D01*
X49302556Y-29022030D01*
X49281938Y-29028284D01*
X49254360Y-29031000D01*
X48745640Y-29031000D01*
X48718062Y-29028284D01*
X48697444Y-29022030D01*
X48678444Y-29011874D01*
X48661792Y-28998208D01*
X48648126Y-28981556D01*
X48637970Y-28962556D01*
X48631716Y-28941938D01*
X48629000Y-28914360D01*
X48629000Y-28455640D01*
X48631716Y-28428062D01*
X48637970Y-28407444D01*
X48648126Y-28388444D01*
X48661792Y-28371792D01*
X48678444Y-28358126D01*
X48697444Y-28347970D01*
X48718062Y-28341716D01*
X48745640Y-28339000D01*
X49254360Y-28339000D01*
X49281938Y-28341716D01*
X49281938Y-28341716D01*
G37*
G36*
X59287410Y-26493250D02*
X59376627Y-26502037D01*
X59489853Y-26536384D01*
X59546467Y-26553557D01*
X59654723Y-26611422D01*
X59702991Y-26637222D01*
X59738729Y-26666552D01*
X59840186Y-26749814D01*
X59913665Y-26839350D01*
X59952778Y-26887009D01*
X59955579Y-26892250D01*
X60036443Y-27043533D01*
X60041433Y-27059983D01*
X60087963Y-27213373D01*
X60105359Y-27390000D01*
X60087963Y-27566627D01*
X60062262Y-27651353D01*
X60036443Y-27736467D01*
X59964171Y-27871676D01*
X59952778Y-27892991D01*
X59929618Y-27921211D01*
X59840186Y-28030186D01*
X59750030Y-28104174D01*
X59702991Y-28142778D01*
X59699148Y-28144832D01*
X59546467Y-28226443D01*
X59511437Y-28237069D01*
X59376627Y-28277963D01*
X59310443Y-28284481D01*
X59244260Y-28291000D01*
X59155740Y-28291000D01*
X59089557Y-28284481D01*
X59023373Y-28277963D01*
X58888563Y-28237069D01*
X58853533Y-28226443D01*
X58700852Y-28144832D01*
X58697009Y-28142778D01*
X58649970Y-28104174D01*
X58559814Y-28030186D01*
X58470382Y-27921211D01*
X58447222Y-27892991D01*
X58435829Y-27871676D01*
X58363557Y-27736467D01*
X58337738Y-27651353D01*
X58312037Y-27566627D01*
X58294641Y-27390000D01*
X58312037Y-27213373D01*
X58358567Y-27059983D01*
X58363557Y-27043533D01*
X58444421Y-26892250D01*
X58447222Y-26887009D01*
X58486335Y-26839350D01*
X58559814Y-26749814D01*
X58661271Y-26666552D01*
X58697009Y-26637222D01*
X58745277Y-26611422D01*
X58853533Y-26553557D01*
X58910147Y-26536384D01*
X59023373Y-26502037D01*
X59112590Y-26493250D01*
X59155740Y-26489000D01*
X59244260Y-26489000D01*
X59287410Y-26493250D01*
X59287410Y-26493250D01*
G37*
G36*
X37060813Y-27184438D02*
X37081431Y-27190692D01*
X37100431Y-27200848D01*
X37121856Y-27218431D01*
X37481569Y-27578144D01*
X37499152Y-27599569D01*
X37509308Y-27618569D01*
X37515562Y-27639187D01*
X37517673Y-27660625D01*
X37515562Y-27682063D01*
X37509308Y-27702681D01*
X37499152Y-27721681D01*
X37481569Y-27743106D01*
X37157212Y-28067463D01*
X37135787Y-28085046D01*
X37116787Y-28095202D01*
X37096169Y-28101456D01*
X37074731Y-28103567D01*
X37053293Y-28101456D01*
X37032675Y-28095202D01*
X37013675Y-28085046D01*
X36992250Y-28067463D01*
X36632537Y-27707750D01*
X36614954Y-27686325D01*
X36604798Y-27667325D01*
X36598544Y-27646707D01*
X36596433Y-27625269D01*
X36598544Y-27603831D01*
X36604800Y-27583209D01*
X36614954Y-27564213D01*
X36632537Y-27542788D01*
X36956894Y-27218431D01*
X36978319Y-27200848D01*
X36997319Y-27190692D01*
X37017937Y-27184438D01*
X37039375Y-27182327D01*
X37060813Y-27184438D01*
X37060813Y-27184438D01*
G37*
G36*
X50984466Y-27003565D02*
X51023137Y-27015296D01*
X51058779Y-27034348D01*
X51090017Y-27059983D01*
X51115652Y-27091221D01*
X51134704Y-27126863D01*
X51146435Y-27165534D01*
X51151000Y-27211888D01*
X51151000Y-27863112D01*
X51146435Y-27909466D01*
X51134704Y-27948137D01*
X51115652Y-27983779D01*
X51090017Y-28015017D01*
X51058779Y-28040652D01*
X51023137Y-28059704D01*
X50984466Y-28071435D01*
X50938112Y-28076000D01*
X49861888Y-28076000D01*
X49815534Y-28071435D01*
X49776863Y-28059704D01*
X49741221Y-28040652D01*
X49709983Y-28015017D01*
X49684348Y-27983779D01*
X49665296Y-27948137D01*
X49653565Y-27909466D01*
X49649000Y-27863112D01*
X49649000Y-27211888D01*
X49653565Y-27165534D01*
X49665296Y-27126863D01*
X49684348Y-27091221D01*
X49709983Y-27059983D01*
X49741221Y-27034348D01*
X49776863Y-27015296D01*
X49815534Y-27003565D01*
X49861888Y-26999000D01*
X50938112Y-26999000D01*
X50984466Y-27003565D01*
X50984466Y-27003565D01*
G37*
G36*
X49281938Y-27371716D02*
X49302556Y-27377970D01*
X49321556Y-27388126D01*
X49338208Y-27401792D01*
X49351874Y-27418444D01*
X49362030Y-27437444D01*
X49368284Y-27458062D01*
X49371000Y-27485640D01*
X49371000Y-27944360D01*
X49368284Y-27971938D01*
X49362030Y-27992556D01*
X49351874Y-28011556D01*
X49338208Y-28028208D01*
X49321556Y-28041874D01*
X49302556Y-28052030D01*
X49281938Y-28058284D01*
X49254360Y-28061000D01*
X48745640Y-28061000D01*
X48718062Y-28058284D01*
X48697444Y-28052030D01*
X48678444Y-28041874D01*
X48661792Y-28028208D01*
X48648126Y-28011556D01*
X48637970Y-27992556D01*
X48631716Y-27971938D01*
X48629000Y-27944360D01*
X48629000Y-27485640D01*
X48631716Y-27458062D01*
X48637970Y-27437444D01*
X48648126Y-27418444D01*
X48661792Y-27401792D01*
X48678444Y-27388126D01*
X48697444Y-27377970D01*
X48718062Y-27371716D01*
X48745640Y-27369000D01*
X49254360Y-27369000D01*
X49281938Y-27371716D01*
X49281938Y-27371716D01*
G37*
G36*
X55581938Y-27341716D02*
X55602556Y-27347970D01*
X55621556Y-27358126D01*
X55638208Y-27371792D01*
X55651874Y-27388444D01*
X55662030Y-27407444D01*
X55668284Y-27428062D01*
X55671000Y-27455640D01*
X55671000Y-27914360D01*
X55668284Y-27941938D01*
X55662030Y-27962556D01*
X55651874Y-27981556D01*
X55638208Y-27998208D01*
X55621556Y-28011874D01*
X55602556Y-28022030D01*
X55581938Y-28028284D01*
X55554360Y-28031000D01*
X55045640Y-28031000D01*
X55018062Y-28028284D01*
X54997444Y-28022030D01*
X54978444Y-28011874D01*
X54961792Y-27998208D01*
X54948126Y-27981556D01*
X54937970Y-27962556D01*
X54931716Y-27941938D01*
X54929000Y-27914360D01*
X54929000Y-27455640D01*
X54931716Y-27428062D01*
X54937970Y-27407444D01*
X54948126Y-27388444D01*
X54961792Y-27371792D01*
X54978444Y-27358126D01*
X54997444Y-27347970D01*
X55018062Y-27341716D01*
X55045640Y-27339000D01*
X55554360Y-27339000D01*
X55581938Y-27341716D01*
X55581938Y-27341716D01*
G37*
G36*
X37746707Y-26498544D02*
X37767325Y-26504798D01*
X37786325Y-26514954D01*
X37807750Y-26532537D01*
X38167463Y-26892250D01*
X38185046Y-26913675D01*
X38195202Y-26932675D01*
X38201456Y-26953293D01*
X38203567Y-26974731D01*
X38201456Y-26996169D01*
X38195202Y-27016787D01*
X38185046Y-27035787D01*
X38167463Y-27057212D01*
X37843106Y-27381569D01*
X37821681Y-27399152D01*
X37802681Y-27409308D01*
X37782063Y-27415562D01*
X37760625Y-27417673D01*
X37739187Y-27415562D01*
X37718569Y-27409308D01*
X37699569Y-27399152D01*
X37678144Y-27381569D01*
X37318431Y-27021856D01*
X37300848Y-27000431D01*
X37290692Y-26981431D01*
X37284438Y-26960813D01*
X37282327Y-26939375D01*
X37284438Y-26917937D01*
X37290692Y-26897319D01*
X37300848Y-26878319D01*
X37318431Y-26856894D01*
X37642788Y-26532537D01*
X37664213Y-26514954D01*
X37683213Y-26504798D01*
X37703831Y-26498544D01*
X37725269Y-26496433D01*
X37746707Y-26498544D01*
X37746707Y-26498544D01*
G37*
G36*
X57284466Y-26228565D02*
X57323137Y-26240296D01*
X57358779Y-26259348D01*
X57390017Y-26284983D01*
X57415652Y-26316221D01*
X57434704Y-26351863D01*
X57446435Y-26390534D01*
X57451000Y-26436888D01*
X57451000Y-27088112D01*
X57446435Y-27134466D01*
X57434704Y-27173137D01*
X57415652Y-27208779D01*
X57390017Y-27240017D01*
X57358779Y-27265652D01*
X57323137Y-27284704D01*
X57284466Y-27296435D01*
X57238112Y-27301000D01*
X56161888Y-27301000D01*
X56115534Y-27296435D01*
X56076863Y-27284704D01*
X56041221Y-27265652D01*
X56009983Y-27240017D01*
X55984348Y-27208779D01*
X55965296Y-27173137D01*
X55953565Y-27134466D01*
X55949000Y-27088112D01*
X55949000Y-26436888D01*
X55953565Y-26390534D01*
X55965296Y-26351863D01*
X55984348Y-26316221D01*
X56009983Y-26284983D01*
X56041221Y-26259348D01*
X56076863Y-26240296D01*
X56115534Y-26228565D01*
X56161888Y-26224000D01*
X57238112Y-26224000D01*
X57284466Y-26228565D01*
X57284466Y-26228565D01*
G37*
G36*
X54426000Y-27281000D02*
X51774000Y-27281000D01*
X51774000Y-26119000D01*
X54426000Y-26119000D01*
X54426000Y-27281000D01*
X54426000Y-27281000D01*
G37*
G36*
X55581938Y-26371716D02*
X55602556Y-26377970D01*
X55621556Y-26388126D01*
X55638208Y-26401792D01*
X55651874Y-26418444D01*
X55662030Y-26437444D01*
X55668284Y-26458062D01*
X55671000Y-26485640D01*
X55671000Y-26944360D01*
X55668284Y-26971938D01*
X55662030Y-26992556D01*
X55651874Y-27011556D01*
X55638208Y-27028208D01*
X55621556Y-27041874D01*
X55602556Y-27052030D01*
X55581938Y-27058284D01*
X55554360Y-27061000D01*
X55045640Y-27061000D01*
X55018062Y-27058284D01*
X54997444Y-27052030D01*
X54978444Y-27041874D01*
X54961792Y-27028208D01*
X54948126Y-27011556D01*
X54937970Y-26992556D01*
X54931716Y-26971938D01*
X54929000Y-26944360D01*
X54929000Y-26485640D01*
X54931716Y-26458062D01*
X54937970Y-26437444D01*
X54948126Y-26418444D01*
X54961792Y-26401792D01*
X54978444Y-26388126D01*
X54997444Y-26377970D01*
X55018062Y-26371716D01*
X55045640Y-26369000D01*
X55554360Y-26369000D01*
X55581938Y-26371716D01*
X55581938Y-26371716D01*
G37*
G36*
X48951000Y-27051000D02*
X47649000Y-27051000D01*
X47649000Y-26049000D01*
X48951000Y-26049000D01*
X48951000Y-27051000D01*
X48951000Y-27051000D01*
G37*
G36*
X29941938Y-25631716D02*
X29962556Y-25637970D01*
X29981556Y-25648126D01*
X29998208Y-25661792D01*
X30011874Y-25678444D01*
X30022030Y-25697444D01*
X30028284Y-25718062D01*
X30031000Y-25745640D01*
X30031000Y-26254360D01*
X30028284Y-26281938D01*
X30022030Y-26302556D01*
X30011874Y-26321556D01*
X29998208Y-26338208D01*
X29981556Y-26351874D01*
X29962556Y-26362030D01*
X29941938Y-26368284D01*
X29914360Y-26371000D01*
X29455640Y-26371000D01*
X29428062Y-26368284D01*
X29407444Y-26362030D01*
X29388444Y-26351874D01*
X29371792Y-26338208D01*
X29358126Y-26321556D01*
X29347970Y-26302556D01*
X29341716Y-26281938D01*
X29339000Y-26254360D01*
X29339000Y-25745640D01*
X29341716Y-25718062D01*
X29347970Y-25697444D01*
X29358126Y-25678444D01*
X29371792Y-25661792D01*
X29388444Y-25648126D01*
X29407444Y-25637970D01*
X29428062Y-25631716D01*
X29455640Y-25629000D01*
X29914360Y-25629000D01*
X29941938Y-25631716D01*
X29941938Y-25631716D01*
G37*
G36*
X32341938Y-25631716D02*
X32362556Y-25637970D01*
X32381556Y-25648126D01*
X32398208Y-25661792D01*
X32411874Y-25678444D01*
X32422030Y-25697444D01*
X32428284Y-25718062D01*
X32431000Y-25745640D01*
X32431000Y-26254360D01*
X32428284Y-26281938D01*
X32422030Y-26302556D01*
X32411874Y-26321556D01*
X32398208Y-26338208D01*
X32381556Y-26351874D01*
X32362556Y-26362030D01*
X32341938Y-26368284D01*
X32314360Y-26371000D01*
X31855640Y-26371000D01*
X31828062Y-26368284D01*
X31807444Y-26362030D01*
X31788444Y-26351874D01*
X31771792Y-26338208D01*
X31758126Y-26321556D01*
X31747970Y-26302556D01*
X31741716Y-26281938D01*
X31739000Y-26254360D01*
X31739000Y-25745640D01*
X31741716Y-25718062D01*
X31747970Y-25697444D01*
X31758126Y-25678444D01*
X31771792Y-25661792D01*
X31788444Y-25648126D01*
X31807444Y-25637970D01*
X31828062Y-25631716D01*
X31855640Y-25629000D01*
X32314360Y-25629000D01*
X32341938Y-25631716D01*
X32341938Y-25631716D01*
G37*
G36*
X31371938Y-25631716D02*
X31392556Y-25637970D01*
X31411556Y-25648126D01*
X31428208Y-25661792D01*
X31441874Y-25678444D01*
X31452030Y-25697444D01*
X31458284Y-25718062D01*
X31461000Y-25745640D01*
X31461000Y-26254360D01*
X31458284Y-26281938D01*
X31452030Y-26302556D01*
X31441874Y-26321556D01*
X31428208Y-26338208D01*
X31411556Y-26351874D01*
X31392556Y-26362030D01*
X31371938Y-26368284D01*
X31344360Y-26371000D01*
X30885640Y-26371000D01*
X30858062Y-26368284D01*
X30837444Y-26362030D01*
X30818444Y-26351874D01*
X30801792Y-26338208D01*
X30788126Y-26321556D01*
X30777970Y-26302556D01*
X30771716Y-26281938D01*
X30769000Y-26254360D01*
X30769000Y-25745640D01*
X30771716Y-25718062D01*
X30777970Y-25697444D01*
X30788126Y-25678444D01*
X30801792Y-25661792D01*
X30818444Y-25648126D01*
X30837444Y-25637970D01*
X30858062Y-25631716D01*
X30885640Y-25629000D01*
X31344360Y-25629000D01*
X31371938Y-25631716D01*
X31371938Y-25631716D01*
G37*
G36*
X28971938Y-25631716D02*
X28992556Y-25637970D01*
X29011556Y-25648126D01*
X29028208Y-25661792D01*
X29041874Y-25678444D01*
X29052030Y-25697444D01*
X29058284Y-25718062D01*
X29061000Y-25745640D01*
X29061000Y-26254360D01*
X29058284Y-26281938D01*
X29052030Y-26302556D01*
X29041874Y-26321556D01*
X29028208Y-26338208D01*
X29011556Y-26351874D01*
X28992556Y-26362030D01*
X28971938Y-26368284D01*
X28944360Y-26371000D01*
X28485640Y-26371000D01*
X28458062Y-26368284D01*
X28437444Y-26362030D01*
X28418444Y-26351874D01*
X28401792Y-26338208D01*
X28388126Y-26321556D01*
X28377970Y-26302556D01*
X28371716Y-26281938D01*
X28369000Y-26254360D01*
X28369000Y-25745640D01*
X28371716Y-25718062D01*
X28377970Y-25697444D01*
X28388126Y-25678444D01*
X28401792Y-25661792D01*
X28418444Y-25648126D01*
X28437444Y-25637970D01*
X28458062Y-25631716D01*
X28485640Y-25629000D01*
X28944360Y-25629000D01*
X28971938Y-25631716D01*
X28971938Y-25631716D01*
G37*
G36*
X34481938Y-25541716D02*
X34502556Y-25547970D01*
X34521556Y-25558126D01*
X34538208Y-25571792D01*
X34551874Y-25588444D01*
X34562030Y-25607444D01*
X34568284Y-25628062D01*
X34571000Y-25655640D01*
X34571000Y-26114360D01*
X34568284Y-26141938D01*
X34562030Y-26162556D01*
X34551874Y-26181556D01*
X34538208Y-26198208D01*
X34521556Y-26211874D01*
X34502556Y-26222030D01*
X34481938Y-26228284D01*
X34454360Y-26231000D01*
X33945640Y-26231000D01*
X33918062Y-26228284D01*
X33897444Y-26222030D01*
X33878444Y-26211874D01*
X33861792Y-26198208D01*
X33848126Y-26181556D01*
X33837970Y-26162556D01*
X33831716Y-26141938D01*
X33829000Y-26114360D01*
X33829000Y-25655640D01*
X33831716Y-25628062D01*
X33837970Y-25607444D01*
X33848126Y-25588444D01*
X33861792Y-25571792D01*
X33878444Y-25558126D01*
X33897444Y-25547970D01*
X33918062Y-25541716D01*
X33945640Y-25539000D01*
X34454360Y-25539000D01*
X34481938Y-25541716D01*
X34481938Y-25541716D01*
G37*
G36*
X35481938Y-25541715D02*
X35502556Y-25547969D01*
X35521556Y-25558125D01*
X35538208Y-25571791D01*
X35551874Y-25588443D01*
X35562030Y-25607443D01*
X35568284Y-25628061D01*
X35571000Y-25655639D01*
X35571000Y-26114359D01*
X35568284Y-26141937D01*
X35562030Y-26162555D01*
X35551874Y-26181555D01*
X35538208Y-26198207D01*
X35521556Y-26211873D01*
X35502556Y-26222029D01*
X35481938Y-26228283D01*
X35454360Y-26230999D01*
X34945640Y-26230999D01*
X34918062Y-26228283D01*
X34897444Y-26222029D01*
X34878444Y-26211873D01*
X34861792Y-26198207D01*
X34848126Y-26181555D01*
X34837970Y-26162555D01*
X34831716Y-26141937D01*
X34829000Y-26114359D01*
X34829000Y-25655639D01*
X34831716Y-25628061D01*
X34837970Y-25607443D01*
X34848126Y-25588443D01*
X34861792Y-25571791D01*
X34878444Y-25558125D01*
X34897444Y-25547969D01*
X34918062Y-25541715D01*
X34945640Y-25538999D01*
X35454360Y-25538999D01*
X35481938Y-25541715D01*
X35481938Y-25541715D01*
G37*
G36*
X50984466Y-25128565D02*
X51023137Y-25140296D01*
X51058779Y-25159348D01*
X51090017Y-25184983D01*
X51115652Y-25216221D01*
X51134704Y-25251863D01*
X51146435Y-25290534D01*
X51151000Y-25336888D01*
X51151000Y-25988112D01*
X51146435Y-26034466D01*
X51134704Y-26073137D01*
X51115652Y-26108779D01*
X51090017Y-26140017D01*
X51058779Y-26165652D01*
X51023137Y-26184704D01*
X50984466Y-26196435D01*
X50938112Y-26201000D01*
X49861888Y-26201000D01*
X49815534Y-26196435D01*
X49776863Y-26184704D01*
X49741221Y-26165652D01*
X49709983Y-26140017D01*
X49684348Y-26108779D01*
X49665296Y-26073137D01*
X49653565Y-26034466D01*
X49649000Y-25988112D01*
X49649000Y-25336888D01*
X49653565Y-25290534D01*
X49665296Y-25251863D01*
X49684348Y-25216221D01*
X49709983Y-25184983D01*
X49741221Y-25159348D01*
X49776863Y-25140296D01*
X49815534Y-25128565D01*
X49861888Y-25124000D01*
X50938112Y-25124000D01*
X50984466Y-25128565D01*
X50984466Y-25128565D01*
G37*
G36*
X25034671Y-25318449D02*
X25034673Y-25318450D01*
X25034674Y-25318450D01*
X25103102Y-25346793D01*
X25147326Y-25376343D01*
X25164688Y-25387944D01*
X25217055Y-25440311D01*
X25217057Y-25440314D01*
X25258206Y-25501897D01*
X25286549Y-25570325D01*
X25286550Y-25570328D01*
X25300999Y-25642966D01*
X25300999Y-25717034D01*
X25286705Y-25788895D01*
X25286549Y-25789675D01*
X25258206Y-25858103D01*
X25223981Y-25909323D01*
X25217055Y-25919689D01*
X25164688Y-25972056D01*
X25164685Y-25972058D01*
X25103102Y-26013207D01*
X25034674Y-26041550D01*
X25034673Y-26041550D01*
X25034671Y-26041551D01*
X24962033Y-26056000D01*
X24887965Y-26056000D01*
X24815327Y-26041551D01*
X24815325Y-26041550D01*
X24815324Y-26041550D01*
X24746896Y-26013207D01*
X24685313Y-25972058D01*
X24685310Y-25972056D01*
X24632943Y-25919689D01*
X24626017Y-25909323D01*
X24591792Y-25858103D01*
X24563449Y-25789675D01*
X24563294Y-25788895D01*
X24548999Y-25717034D01*
X24548999Y-25642966D01*
X24563448Y-25570328D01*
X24563449Y-25570325D01*
X24591792Y-25501897D01*
X24632941Y-25440314D01*
X24632943Y-25440311D01*
X24685310Y-25387944D01*
X24702672Y-25376343D01*
X24746896Y-25346793D01*
X24815324Y-25318450D01*
X24815325Y-25318450D01*
X24815327Y-25318449D01*
X24887965Y-25304000D01*
X24962033Y-25304000D01*
X25034671Y-25318449D01*
X25034671Y-25318449D01*
G37*
G36*
X60101000Y-25751000D02*
X58299000Y-25751000D01*
X58299000Y-23949000D01*
X60101000Y-23949000D01*
X60101000Y-25751000D01*
X60101000Y-25751000D01*
G37*
G36*
X57451000Y-25601000D02*
X56549000Y-25601000D01*
X56549000Y-22799000D01*
X57451000Y-22799000D01*
X57451000Y-25601000D01*
X57451000Y-25601000D01*
G37*
G36*
X55251000Y-25601000D02*
X54349000Y-25601000D01*
X54349000Y-22799000D01*
X55251000Y-22799000D01*
X55251000Y-25601000D01*
X55251000Y-25601000D01*
G37*
G36*
X29941938Y-24531716D02*
X29962556Y-24537970D01*
X29981556Y-24548126D01*
X29998208Y-24561792D01*
X30011874Y-24578444D01*
X30022030Y-24597444D01*
X30028284Y-24618062D01*
X30031000Y-24645640D01*
X30031000Y-25154360D01*
X30028284Y-25181938D01*
X30022030Y-25202556D01*
X30011874Y-25221556D01*
X29998208Y-25238208D01*
X29981556Y-25251874D01*
X29962556Y-25262030D01*
X29941938Y-25268284D01*
X29914360Y-25271000D01*
X29455640Y-25271000D01*
X29428062Y-25268284D01*
X29407444Y-25262030D01*
X29388444Y-25251874D01*
X29371792Y-25238208D01*
X29358126Y-25221556D01*
X29347970Y-25202556D01*
X29341716Y-25181938D01*
X29339000Y-25154360D01*
X29339000Y-24645640D01*
X29341716Y-24618062D01*
X29347970Y-24597444D01*
X29358126Y-24578444D01*
X29371792Y-24561792D01*
X29388444Y-24548126D01*
X29407444Y-24537970D01*
X29428062Y-24531716D01*
X29455640Y-24529000D01*
X29914360Y-24529000D01*
X29941938Y-24531716D01*
X29941938Y-24531716D01*
G37*
G36*
X28971938Y-24531716D02*
X28992556Y-24537970D01*
X29011556Y-24548126D01*
X29028208Y-24561792D01*
X29041874Y-24578444D01*
X29052030Y-24597444D01*
X29058284Y-24618062D01*
X29061000Y-24645640D01*
X29061000Y-25154360D01*
X29058284Y-25181938D01*
X29052030Y-25202556D01*
X29041874Y-25221556D01*
X29028208Y-25238208D01*
X29011556Y-25251874D01*
X28992556Y-25262030D01*
X28971938Y-25268284D01*
X28944360Y-25271000D01*
X28485640Y-25271000D01*
X28458062Y-25268284D01*
X28437444Y-25262030D01*
X28418444Y-25251874D01*
X28401792Y-25238208D01*
X28388126Y-25221556D01*
X28377970Y-25202556D01*
X28371716Y-25181938D01*
X28369000Y-25154360D01*
X28369000Y-24645640D01*
X28371716Y-24618062D01*
X28377970Y-24597444D01*
X28388126Y-24578444D01*
X28401792Y-24561792D01*
X28418444Y-24548126D01*
X28437444Y-24537970D01*
X28458062Y-24531716D01*
X28485640Y-24529000D01*
X28944360Y-24529000D01*
X28971938Y-24531716D01*
X28971938Y-24531716D01*
G37*
G36*
X34481938Y-24571716D02*
X34502556Y-24577970D01*
X34521556Y-24588126D01*
X34538208Y-24601792D01*
X34551874Y-24618444D01*
X34562030Y-24637444D01*
X34568284Y-24658062D01*
X34571000Y-24685640D01*
X34571000Y-25144360D01*
X34568284Y-25171938D01*
X34562030Y-25192556D01*
X34551874Y-25211556D01*
X34538208Y-25228208D01*
X34521556Y-25241874D01*
X34502556Y-25252030D01*
X34481938Y-25258284D01*
X34454360Y-25261000D01*
X33945640Y-25261000D01*
X33918062Y-25258284D01*
X33897444Y-25252030D01*
X33878444Y-25241874D01*
X33861792Y-25228208D01*
X33848126Y-25211556D01*
X33837970Y-25192556D01*
X33831716Y-25171938D01*
X33829000Y-25144360D01*
X33829000Y-24685640D01*
X33831716Y-24658062D01*
X33837970Y-24637444D01*
X33848126Y-24618444D01*
X33861792Y-24601792D01*
X33878444Y-24588126D01*
X33897444Y-24577970D01*
X33918062Y-24571716D01*
X33945640Y-24569000D01*
X34454360Y-24569000D01*
X34481938Y-24571716D01*
X34481938Y-24571716D01*
G37*
G36*
X35481938Y-24571715D02*
X35502556Y-24577969D01*
X35521556Y-24588125D01*
X35538208Y-24601791D01*
X35551874Y-24618443D01*
X35562030Y-24637443D01*
X35568284Y-24658061D01*
X35571000Y-24685639D01*
X35571000Y-25144359D01*
X35568284Y-25171937D01*
X35562030Y-25192555D01*
X35551874Y-25211555D01*
X35538208Y-25228207D01*
X35521556Y-25241873D01*
X35502556Y-25252029D01*
X35481938Y-25258283D01*
X35454360Y-25260999D01*
X34945640Y-25260999D01*
X34918062Y-25258283D01*
X34897444Y-25252029D01*
X34878444Y-25241873D01*
X34861792Y-25228207D01*
X34848126Y-25211555D01*
X34837970Y-25192555D01*
X34831716Y-25171937D01*
X34829000Y-25144359D01*
X34829000Y-24685639D01*
X34831716Y-24658061D01*
X34837970Y-24637443D01*
X34848126Y-24618443D01*
X34861792Y-24601791D01*
X34878444Y-24588125D01*
X34897444Y-24577969D01*
X34918062Y-24571715D01*
X34945640Y-24568999D01*
X35454360Y-24568999D01*
X35481938Y-24571715D01*
X35481938Y-24571715D01*
G37*
G36*
X45882063Y-24284438D02*
X45902681Y-24290692D01*
X45921681Y-24300848D01*
X45943106Y-24318431D01*
X46267463Y-24642788D01*
X46285046Y-24664213D01*
X46295202Y-24683213D01*
X46301456Y-24703831D01*
X46303567Y-24725269D01*
X46301456Y-24746707D01*
X46295202Y-24767324D01*
X46285046Y-24786325D01*
X46267463Y-24807750D01*
X45907750Y-25167463D01*
X45886325Y-25185046D01*
X45867325Y-25195202D01*
X45846707Y-25201456D01*
X45825269Y-25203567D01*
X45803831Y-25201456D01*
X45783213Y-25195202D01*
X45764213Y-25185046D01*
X45742788Y-25167463D01*
X45418431Y-24843106D01*
X45400848Y-24821681D01*
X45390692Y-24802681D01*
X45384438Y-24782063D01*
X45382327Y-24760625D01*
X45384438Y-24739187D01*
X45390692Y-24718569D01*
X45400848Y-24699569D01*
X45418431Y-24678144D01*
X45778144Y-24318431D01*
X45799569Y-24300848D01*
X45818569Y-24290692D01*
X45839187Y-24284438D01*
X45860625Y-24282327D01*
X45882063Y-24284438D01*
X45882063Y-24284438D01*
G37*
G36*
X21683014Y-23706973D02*
X21786878Y-23738479D01*
X21882599Y-23789644D01*
X21966500Y-23858499D01*
X22035355Y-23942400D01*
X22086520Y-24038121D01*
X22118026Y-24141985D01*
X22128665Y-24250000D01*
X22118026Y-24358015D01*
X22086520Y-24461879D01*
X22035355Y-24557600D01*
X21966500Y-24641501D01*
X21882599Y-24710356D01*
X21786878Y-24761521D01*
X21683014Y-24793027D01*
X21602066Y-24801000D01*
X20947932Y-24801000D01*
X20866984Y-24793027D01*
X20763120Y-24761521D01*
X20667399Y-24710356D01*
X20583498Y-24641501D01*
X20514643Y-24557600D01*
X20463478Y-24461879D01*
X20431972Y-24358015D01*
X20421333Y-24250000D01*
X20431972Y-24141985D01*
X20463478Y-24038121D01*
X20514643Y-23942400D01*
X20583498Y-23858499D01*
X20667399Y-23789644D01*
X20763120Y-23738479D01*
X20866984Y-23706973D01*
X20947932Y-23699000D01*
X21602066Y-23699000D01*
X21683014Y-23706973D01*
X21683014Y-23706973D01*
G37*
G36*
X45196169Y-23598544D02*
X45216787Y-23604798D01*
X45235787Y-23614954D01*
X45257212Y-23632537D01*
X45581569Y-23956894D01*
X45599152Y-23978319D01*
X45609308Y-23997319D01*
X45615562Y-24017937D01*
X45617673Y-24039375D01*
X45615562Y-24060813D01*
X45609308Y-24081431D01*
X45599152Y-24100431D01*
X45581569Y-24121856D01*
X45221856Y-24481569D01*
X45200431Y-24499152D01*
X45181431Y-24509308D01*
X45160813Y-24515562D01*
X45139375Y-24517673D01*
X45117937Y-24515562D01*
X45097319Y-24509308D01*
X45078319Y-24499152D01*
X45056894Y-24481569D01*
X44732537Y-24157212D01*
X44714954Y-24135787D01*
X44704798Y-24116787D01*
X44698544Y-24096169D01*
X44696433Y-24074731D01*
X44698544Y-24053293D01*
X44704798Y-24032675D01*
X44714954Y-24013675D01*
X44732537Y-23992250D01*
X45092250Y-23632537D01*
X45113675Y-23614954D01*
X45132675Y-23604798D01*
X45153293Y-23598544D01*
X45174731Y-23596433D01*
X45196169Y-23598544D01*
X45196169Y-23598544D01*
G37*
G36*
X50551000Y-24351000D02*
X49549000Y-24351000D01*
X49549000Y-23049000D01*
X50551000Y-23049000D01*
X50551000Y-24351000D01*
X50551000Y-24351000D01*
G37*
G36*
X53851000Y-24351000D02*
X52849000Y-24351000D01*
X52849000Y-23049000D01*
X53851000Y-23049000D01*
X53851000Y-24351000D01*
X53851000Y-24351000D01*
G37*
G36*
X28054591Y-23078085D02*
X28088569Y-23088393D01*
X28119887Y-23105133D01*
X28147339Y-23127661D01*
X28169867Y-23155113D01*
X28186607Y-23186431D01*
X28196915Y-23220409D01*
X28201000Y-23261890D01*
X28201000Y-23938110D01*
X28196915Y-23979591D01*
X28186607Y-24013569D01*
X28169867Y-24044887D01*
X28147339Y-24072339D01*
X28119887Y-24094867D01*
X28088569Y-24111607D01*
X28054591Y-24121915D01*
X28013110Y-24126000D01*
X27411890Y-24126000D01*
X27370409Y-24121915D01*
X27336431Y-24111607D01*
X27305113Y-24094867D01*
X27277661Y-24072339D01*
X27255133Y-24044887D01*
X27238393Y-24013569D01*
X27228085Y-23979591D01*
X27224000Y-23938110D01*
X27224000Y-23261890D01*
X27228085Y-23220409D01*
X27238393Y-23186431D01*
X27255133Y-23155113D01*
X27277661Y-23127661D01*
X27305113Y-23105133D01*
X27336431Y-23088393D01*
X27370409Y-23078085D01*
X27411890Y-23074000D01*
X28013110Y-23074000D01*
X28054591Y-23078085D01*
X28054591Y-23078085D01*
G37*
G36*
X29629591Y-23078085D02*
X29663569Y-23088393D01*
X29694887Y-23105133D01*
X29722339Y-23127661D01*
X29744867Y-23155113D01*
X29761607Y-23186431D01*
X29771915Y-23220409D01*
X29776000Y-23261890D01*
X29776000Y-23938110D01*
X29771915Y-23979591D01*
X29761607Y-24013569D01*
X29744867Y-24044887D01*
X29722339Y-24072339D01*
X29694887Y-24094867D01*
X29663569Y-24111607D01*
X29629591Y-24121915D01*
X29588110Y-24126000D01*
X28986890Y-24126000D01*
X28945409Y-24121915D01*
X28911431Y-24111607D01*
X28880113Y-24094867D01*
X28852661Y-24072339D01*
X28830133Y-24044887D01*
X28813393Y-24013569D01*
X28803085Y-23979591D01*
X28799000Y-23938110D01*
X28799000Y-23261890D01*
X28803085Y-23220409D01*
X28813393Y-23186431D01*
X28830133Y-23155113D01*
X28852661Y-23127661D01*
X28880113Y-23105133D01*
X28911431Y-23088393D01*
X28945409Y-23078085D01*
X28986890Y-23074000D01*
X29588110Y-23074000D01*
X29629591Y-23078085D01*
X29629591Y-23078085D01*
G37*
G36*
X48951000Y-23751000D02*
X47649000Y-23751000D01*
X47649000Y-22749000D01*
X48951000Y-22749000D01*
X48951000Y-23751000D01*
X48951000Y-23751000D01*
G37*
G36*
X59370443Y-20205519D02*
X59436627Y-20212037D01*
X59549853Y-20246384D01*
X59606467Y-20263557D01*
X59745087Y-20337652D01*
X59762991Y-20347222D01*
X59798729Y-20376552D01*
X59900186Y-20459814D01*
X59983448Y-20561271D01*
X60012778Y-20597009D01*
X60012779Y-20597011D01*
X60096443Y-20753533D01*
X60096443Y-20753534D01*
X60147963Y-20923373D01*
X60165359Y-21100000D01*
X60147963Y-21276627D01*
X60113616Y-21389853D01*
X60096443Y-21446467D01*
X60022348Y-21585087D01*
X60012778Y-21602991D01*
X59983448Y-21638729D01*
X59900186Y-21740186D01*
X59798729Y-21823448D01*
X59762991Y-21852778D01*
X59762989Y-21852779D01*
X59606467Y-21936443D01*
X59549853Y-21953616D01*
X59436627Y-21987963D01*
X59370443Y-21994481D01*
X59304260Y-22001000D01*
X59215740Y-22001000D01*
X59149557Y-21994481D01*
X59083373Y-21987963D01*
X58970147Y-21953616D01*
X58913533Y-21936443D01*
X58757011Y-21852779D01*
X58757009Y-21852778D01*
X58721271Y-21823448D01*
X58619814Y-21740186D01*
X58536552Y-21638729D01*
X58507222Y-21602991D01*
X58497652Y-21585087D01*
X58423557Y-21446467D01*
X58406384Y-21389853D01*
X58372037Y-21276627D01*
X58354641Y-21100000D01*
X58372037Y-20923373D01*
X58423557Y-20753534D01*
X58423557Y-20753533D01*
X58507221Y-20597011D01*
X58507222Y-20597009D01*
X58536552Y-20561271D01*
X58619814Y-20459814D01*
X58721271Y-20376552D01*
X58757009Y-20347222D01*
X58774913Y-20337652D01*
X58913533Y-20263557D01*
X58970147Y-20246384D01*
X59083373Y-20212037D01*
X59149557Y-20205519D01*
X59215740Y-20199000D01*
X59304260Y-20199000D01*
X59370443Y-20205519D01*
X59370443Y-20205519D01*
G37*
G36*
X56830443Y-20205519D02*
X56896627Y-20212037D01*
X57009853Y-20246384D01*
X57066467Y-20263557D01*
X57205087Y-20337652D01*
X57222991Y-20347222D01*
X57258729Y-20376552D01*
X57360186Y-20459814D01*
X57443448Y-20561271D01*
X57472778Y-20597009D01*
X57472779Y-20597011D01*
X57556443Y-20753533D01*
X57556443Y-20753534D01*
X57607963Y-20923373D01*
X57625359Y-21100000D01*
X57607963Y-21276627D01*
X57573616Y-21389853D01*
X57556443Y-21446467D01*
X57482348Y-21585087D01*
X57472778Y-21602991D01*
X57443448Y-21638729D01*
X57360186Y-21740186D01*
X57258729Y-21823448D01*
X57222991Y-21852778D01*
X57222989Y-21852779D01*
X57066467Y-21936443D01*
X57009853Y-21953616D01*
X56896627Y-21987963D01*
X56830443Y-21994481D01*
X56764260Y-22001000D01*
X56675740Y-22001000D01*
X56609557Y-21994481D01*
X56543373Y-21987963D01*
X56430147Y-21953616D01*
X56373533Y-21936443D01*
X56217011Y-21852779D01*
X56217009Y-21852778D01*
X56181271Y-21823448D01*
X56079814Y-21740186D01*
X55996552Y-21638729D01*
X55967222Y-21602991D01*
X55957652Y-21585087D01*
X55883557Y-21446467D01*
X55866384Y-21389853D01*
X55832037Y-21276627D01*
X55814641Y-21100000D01*
X55832037Y-20923373D01*
X55883557Y-20753534D01*
X55883557Y-20753533D01*
X55967221Y-20597011D01*
X55967222Y-20597009D01*
X55996552Y-20561271D01*
X56079814Y-20459814D01*
X56181271Y-20376552D01*
X56217009Y-20347222D01*
X56234913Y-20337652D01*
X56373533Y-20263557D01*
X56430147Y-20246384D01*
X56543373Y-20212037D01*
X56609557Y-20205519D01*
X56675740Y-20199000D01*
X56764260Y-20199000D01*
X56830443Y-20205519D01*
X56830443Y-20205519D01*
G37*
G36*
X24601000Y-22001000D02*
X22799000Y-22001000D01*
X22799000Y-20199000D01*
X24601000Y-20199000D01*
X24601000Y-22001000D01*
X24601000Y-22001000D01*
G37*
G36*
X26350443Y-20205519D02*
X26416627Y-20212037D01*
X26529853Y-20246384D01*
X26586467Y-20263557D01*
X26725087Y-20337652D01*
X26742991Y-20347222D01*
X26778729Y-20376552D01*
X26880186Y-20459814D01*
X26963448Y-20561271D01*
X26992778Y-20597009D01*
X26992779Y-20597011D01*
X27076443Y-20753533D01*
X27076443Y-20753534D01*
X27127963Y-20923373D01*
X27145359Y-21100000D01*
X27127963Y-21276627D01*
X27093616Y-21389853D01*
X27076443Y-21446467D01*
X27002348Y-21585087D01*
X26992778Y-21602991D01*
X26963448Y-21638729D01*
X26880186Y-21740186D01*
X26778729Y-21823448D01*
X26742991Y-21852778D01*
X26742989Y-21852779D01*
X26586467Y-21936443D01*
X26529853Y-21953616D01*
X26416627Y-21987963D01*
X26350443Y-21994481D01*
X26284260Y-22001000D01*
X26195740Y-22001000D01*
X26129557Y-21994481D01*
X26063373Y-21987963D01*
X25950147Y-21953616D01*
X25893533Y-21936443D01*
X25737011Y-21852779D01*
X25737009Y-21852778D01*
X25701271Y-21823448D01*
X25599814Y-21740186D01*
X25516552Y-21638729D01*
X25487222Y-21602991D01*
X25477652Y-21585087D01*
X25403557Y-21446467D01*
X25386384Y-21389853D01*
X25352037Y-21276627D01*
X25334641Y-21100000D01*
X25352037Y-20923373D01*
X25403557Y-20753534D01*
X25403557Y-20753533D01*
X25487221Y-20597011D01*
X25487222Y-20597009D01*
X25516552Y-20561271D01*
X25599814Y-20459814D01*
X25701271Y-20376552D01*
X25737009Y-20347222D01*
X25754913Y-20337652D01*
X25893533Y-20263557D01*
X25950147Y-20246384D01*
X26063373Y-20212037D01*
X26129557Y-20205519D01*
X26195740Y-20199000D01*
X26284260Y-20199000D01*
X26350443Y-20205519D01*
X26350443Y-20205519D01*
G37*
G36*
X28890443Y-20205519D02*
X28956627Y-20212037D01*
X29069853Y-20246384D01*
X29126467Y-20263557D01*
X29265087Y-20337652D01*
X29282991Y-20347222D01*
X29318729Y-20376552D01*
X29420186Y-20459814D01*
X29503448Y-20561271D01*
X29532778Y-20597009D01*
X29532779Y-20597011D01*
X29616443Y-20753533D01*
X29616443Y-20753534D01*
X29667963Y-20923373D01*
X29685359Y-21100000D01*
X29667963Y-21276627D01*
X29633616Y-21389853D01*
X29616443Y-21446467D01*
X29542348Y-21585087D01*
X29532778Y-21602991D01*
X29503448Y-21638729D01*
X29420186Y-21740186D01*
X29318729Y-21823448D01*
X29282991Y-21852778D01*
X29282989Y-21852779D01*
X29126467Y-21936443D01*
X29069853Y-21953616D01*
X28956627Y-21987963D01*
X28890443Y-21994481D01*
X28824260Y-22001000D01*
X28735740Y-22001000D01*
X28669557Y-21994481D01*
X28603373Y-21987963D01*
X28490147Y-21953616D01*
X28433533Y-21936443D01*
X28277011Y-21852779D01*
X28277009Y-21852778D01*
X28241271Y-21823448D01*
X28139814Y-21740186D01*
X28056552Y-21638729D01*
X28027222Y-21602991D01*
X28017652Y-21585087D01*
X27943557Y-21446467D01*
X27926384Y-21389853D01*
X27892037Y-21276627D01*
X27874641Y-21100000D01*
X27892037Y-20923373D01*
X27943557Y-20753534D01*
X27943557Y-20753533D01*
X28027221Y-20597011D01*
X28027222Y-20597009D01*
X28056552Y-20561271D01*
X28139814Y-20459814D01*
X28241271Y-20376552D01*
X28277009Y-20347222D01*
X28294913Y-20337652D01*
X28433533Y-20263557D01*
X28490147Y-20246384D01*
X28603373Y-20212037D01*
X28669557Y-20205519D01*
X28735740Y-20199000D01*
X28824260Y-20199000D01*
X28890443Y-20205519D01*
X28890443Y-20205519D01*
G37*
G36*
X31430443Y-20205519D02*
X31496627Y-20212037D01*
X31609853Y-20246384D01*
X31666467Y-20263557D01*
X31805087Y-20337652D01*
X31822991Y-20347222D01*
X31858729Y-20376552D01*
X31960186Y-20459814D01*
X32043448Y-20561271D01*
X32072778Y-20597009D01*
X32072779Y-20597011D01*
X32156443Y-20753533D01*
X32156443Y-20753534D01*
X32207963Y-20923373D01*
X32225359Y-21100000D01*
X32207963Y-21276627D01*
X32173616Y-21389853D01*
X32156443Y-21446467D01*
X32082348Y-21585087D01*
X32072778Y-21602991D01*
X32043448Y-21638729D01*
X31960186Y-21740186D01*
X31858729Y-21823448D01*
X31822991Y-21852778D01*
X31822989Y-21852779D01*
X31666467Y-21936443D01*
X31609853Y-21953616D01*
X31496627Y-21987963D01*
X31430443Y-21994481D01*
X31364260Y-22001000D01*
X31275740Y-22001000D01*
X31209557Y-21994481D01*
X31143373Y-21987963D01*
X31030147Y-21953616D01*
X30973533Y-21936443D01*
X30817011Y-21852779D01*
X30817009Y-21852778D01*
X30781271Y-21823448D01*
X30679814Y-21740186D01*
X30596552Y-21638729D01*
X30567222Y-21602991D01*
X30557652Y-21585087D01*
X30483557Y-21446467D01*
X30466384Y-21389853D01*
X30432037Y-21276627D01*
X30414641Y-21100000D01*
X30432037Y-20923373D01*
X30483557Y-20753534D01*
X30483557Y-20753533D01*
X30567221Y-20597011D01*
X30567222Y-20597009D01*
X30596552Y-20561271D01*
X30679814Y-20459814D01*
X30781271Y-20376552D01*
X30817009Y-20347222D01*
X30834913Y-20337652D01*
X30973533Y-20263557D01*
X31030147Y-20246384D01*
X31143373Y-20212037D01*
X31209557Y-20205519D01*
X31275740Y-20199000D01*
X31364260Y-20199000D01*
X31430443Y-20205519D01*
X31430443Y-20205519D01*
G37*
G36*
X33970443Y-20205519D02*
X34036627Y-20212037D01*
X34149853Y-20246384D01*
X34206467Y-20263557D01*
X34345087Y-20337652D01*
X34362991Y-20347222D01*
X34398729Y-20376552D01*
X34500186Y-20459814D01*
X34583448Y-20561271D01*
X34612778Y-20597009D01*
X34612779Y-20597011D01*
X34696443Y-20753533D01*
X34696443Y-20753534D01*
X34747963Y-20923373D01*
X34765359Y-21100000D01*
X34747963Y-21276627D01*
X34713616Y-21389853D01*
X34696443Y-21446467D01*
X34622348Y-21585087D01*
X34612778Y-21602991D01*
X34583448Y-21638729D01*
X34500186Y-21740186D01*
X34398729Y-21823448D01*
X34362991Y-21852778D01*
X34362989Y-21852779D01*
X34206467Y-21936443D01*
X34149853Y-21953616D01*
X34036627Y-21987963D01*
X33970443Y-21994481D01*
X33904260Y-22001000D01*
X33815740Y-22001000D01*
X33749557Y-21994481D01*
X33683373Y-21987963D01*
X33570147Y-21953616D01*
X33513533Y-21936443D01*
X33357011Y-21852779D01*
X33357009Y-21852778D01*
X33321271Y-21823448D01*
X33219814Y-21740186D01*
X33136552Y-21638729D01*
X33107222Y-21602991D01*
X33097652Y-21585087D01*
X33023557Y-21446467D01*
X33006384Y-21389853D01*
X32972037Y-21276627D01*
X32954641Y-21100000D01*
X32972037Y-20923373D01*
X33023557Y-20753534D01*
X33023557Y-20753533D01*
X33107221Y-20597011D01*
X33107222Y-20597009D01*
X33136552Y-20561271D01*
X33219814Y-20459814D01*
X33321271Y-20376552D01*
X33357009Y-20347222D01*
X33374913Y-20337652D01*
X33513533Y-20263557D01*
X33570147Y-20246384D01*
X33683373Y-20212037D01*
X33749557Y-20205519D01*
X33815740Y-20199000D01*
X33904260Y-20199000D01*
X33970443Y-20205519D01*
X33970443Y-20205519D01*
G37*
G36*
X36510443Y-20205519D02*
X36576627Y-20212037D01*
X36689853Y-20246384D01*
X36746467Y-20263557D01*
X36885087Y-20337652D01*
X36902991Y-20347222D01*
X36938729Y-20376552D01*
X37040186Y-20459814D01*
X37123448Y-20561271D01*
X37152778Y-20597009D01*
X37152779Y-20597011D01*
X37236443Y-20753533D01*
X37236443Y-20753534D01*
X37287963Y-20923373D01*
X37305359Y-21100000D01*
X37287963Y-21276627D01*
X37253616Y-21389853D01*
X37236443Y-21446467D01*
X37162348Y-21585087D01*
X37152778Y-21602991D01*
X37123448Y-21638729D01*
X37040186Y-21740186D01*
X36938729Y-21823448D01*
X36902991Y-21852778D01*
X36902989Y-21852779D01*
X36746467Y-21936443D01*
X36689853Y-21953616D01*
X36576627Y-21987963D01*
X36510443Y-21994481D01*
X36444260Y-22001000D01*
X36355740Y-22001000D01*
X36289557Y-21994481D01*
X36223373Y-21987963D01*
X36110147Y-21953616D01*
X36053533Y-21936443D01*
X35897011Y-21852779D01*
X35897009Y-21852778D01*
X35861271Y-21823448D01*
X35759814Y-21740186D01*
X35676552Y-21638729D01*
X35647222Y-21602991D01*
X35637652Y-21585087D01*
X35563557Y-21446467D01*
X35546384Y-21389853D01*
X35512037Y-21276627D01*
X35494641Y-21100000D01*
X35512037Y-20923373D01*
X35563557Y-20753534D01*
X35563557Y-20753533D01*
X35647221Y-20597011D01*
X35647222Y-20597009D01*
X35676552Y-20561271D01*
X35759814Y-20459814D01*
X35861271Y-20376552D01*
X35897009Y-20347222D01*
X35914913Y-20337652D01*
X36053533Y-20263557D01*
X36110147Y-20246384D01*
X36223373Y-20212037D01*
X36289557Y-20205519D01*
X36355740Y-20199000D01*
X36444260Y-20199000D01*
X36510443Y-20205519D01*
X36510443Y-20205519D01*
G37*
G36*
X39050443Y-20205519D02*
X39116627Y-20212037D01*
X39229853Y-20246384D01*
X39286467Y-20263557D01*
X39425087Y-20337652D01*
X39442991Y-20347222D01*
X39478729Y-20376552D01*
X39580186Y-20459814D01*
X39663448Y-20561271D01*
X39692778Y-20597009D01*
X39692779Y-20597011D01*
X39776443Y-20753533D01*
X39776443Y-20753534D01*
X39827963Y-20923373D01*
X39845359Y-21100000D01*
X39827963Y-21276627D01*
X39793616Y-21389853D01*
X39776443Y-21446467D01*
X39702348Y-21585087D01*
X39692778Y-21602991D01*
X39663448Y-21638729D01*
X39580186Y-21740186D01*
X39478729Y-21823448D01*
X39442991Y-21852778D01*
X39442989Y-21852779D01*
X39286467Y-21936443D01*
X39229853Y-21953616D01*
X39116627Y-21987963D01*
X39050443Y-21994481D01*
X38984260Y-22001000D01*
X38895740Y-22001000D01*
X38829557Y-21994481D01*
X38763373Y-21987963D01*
X38650147Y-21953616D01*
X38593533Y-21936443D01*
X38437011Y-21852779D01*
X38437009Y-21852778D01*
X38401271Y-21823448D01*
X38299814Y-21740186D01*
X38216552Y-21638729D01*
X38187222Y-21602991D01*
X38177652Y-21585087D01*
X38103557Y-21446467D01*
X38086384Y-21389853D01*
X38052037Y-21276627D01*
X38034641Y-21100000D01*
X38052037Y-20923373D01*
X38103557Y-20753534D01*
X38103557Y-20753533D01*
X38187221Y-20597011D01*
X38187222Y-20597009D01*
X38216552Y-20561271D01*
X38299814Y-20459814D01*
X38401271Y-20376552D01*
X38437009Y-20347222D01*
X38454913Y-20337652D01*
X38593533Y-20263557D01*
X38650147Y-20246384D01*
X38763373Y-20212037D01*
X38829557Y-20205519D01*
X38895740Y-20199000D01*
X38984260Y-20199000D01*
X39050443Y-20205519D01*
X39050443Y-20205519D01*
G37*
G36*
X41590443Y-20205519D02*
X41656627Y-20212037D01*
X41769853Y-20246384D01*
X41826467Y-20263557D01*
X41965087Y-20337652D01*
X41982991Y-20347222D01*
X42018729Y-20376552D01*
X42120186Y-20459814D01*
X42203448Y-20561271D01*
X42232778Y-20597009D01*
X42232779Y-20597011D01*
X42316443Y-20753533D01*
X42316443Y-20753534D01*
X42367963Y-20923373D01*
X42385359Y-21100000D01*
X42367963Y-21276627D01*
X42333616Y-21389853D01*
X42316443Y-21446467D01*
X42242348Y-21585087D01*
X42232778Y-21602991D01*
X42203448Y-21638729D01*
X42120186Y-21740186D01*
X42018729Y-21823448D01*
X41982991Y-21852778D01*
X41982989Y-21852779D01*
X41826467Y-21936443D01*
X41769853Y-21953616D01*
X41656627Y-21987963D01*
X41590443Y-21994481D01*
X41524260Y-22001000D01*
X41435740Y-22001000D01*
X41369557Y-21994481D01*
X41303373Y-21987963D01*
X41190147Y-21953616D01*
X41133533Y-21936443D01*
X40977011Y-21852779D01*
X40977009Y-21852778D01*
X40941271Y-21823448D01*
X40839814Y-21740186D01*
X40756552Y-21638729D01*
X40727222Y-21602991D01*
X40717652Y-21585087D01*
X40643557Y-21446467D01*
X40626384Y-21389853D01*
X40592037Y-21276627D01*
X40574641Y-21100000D01*
X40592037Y-20923373D01*
X40643557Y-20753534D01*
X40643557Y-20753533D01*
X40727221Y-20597011D01*
X40727222Y-20597009D01*
X40756552Y-20561271D01*
X40839814Y-20459814D01*
X40941271Y-20376552D01*
X40977009Y-20347222D01*
X40994913Y-20337652D01*
X41133533Y-20263557D01*
X41190147Y-20246384D01*
X41303373Y-20212037D01*
X41369557Y-20205519D01*
X41435740Y-20199000D01*
X41524260Y-20199000D01*
X41590443Y-20205519D01*
X41590443Y-20205519D01*
G37*
G36*
X44130443Y-20205519D02*
X44196627Y-20212037D01*
X44309853Y-20246384D01*
X44366467Y-20263557D01*
X44505087Y-20337652D01*
X44522991Y-20347222D01*
X44558729Y-20376552D01*
X44660186Y-20459814D01*
X44743448Y-20561271D01*
X44772778Y-20597009D01*
X44772779Y-20597011D01*
X44856443Y-20753533D01*
X44856443Y-20753534D01*
X44907963Y-20923373D01*
X44925359Y-21100000D01*
X44907963Y-21276627D01*
X44873616Y-21389853D01*
X44856443Y-21446467D01*
X44782348Y-21585087D01*
X44772778Y-21602991D01*
X44743448Y-21638729D01*
X44660186Y-21740186D01*
X44558729Y-21823448D01*
X44522991Y-21852778D01*
X44522989Y-21852779D01*
X44366467Y-21936443D01*
X44309853Y-21953616D01*
X44196627Y-21987963D01*
X44130443Y-21994481D01*
X44064260Y-22001000D01*
X43975740Y-22001000D01*
X43909557Y-21994481D01*
X43843373Y-21987963D01*
X43730147Y-21953616D01*
X43673533Y-21936443D01*
X43517011Y-21852779D01*
X43517009Y-21852778D01*
X43481271Y-21823448D01*
X43379814Y-21740186D01*
X43296552Y-21638729D01*
X43267222Y-21602991D01*
X43257652Y-21585087D01*
X43183557Y-21446467D01*
X43166384Y-21389853D01*
X43132037Y-21276627D01*
X43114641Y-21100000D01*
X43132037Y-20923373D01*
X43183557Y-20753534D01*
X43183557Y-20753533D01*
X43267221Y-20597011D01*
X43267222Y-20597009D01*
X43296552Y-20561271D01*
X43379814Y-20459814D01*
X43481271Y-20376552D01*
X43517009Y-20347222D01*
X43534913Y-20337652D01*
X43673533Y-20263557D01*
X43730147Y-20246384D01*
X43843373Y-20212037D01*
X43909557Y-20205519D01*
X43975740Y-20199000D01*
X44064260Y-20199000D01*
X44130443Y-20205519D01*
X44130443Y-20205519D01*
G37*
G36*
X46670443Y-20205519D02*
X46736627Y-20212037D01*
X46849853Y-20246384D01*
X46906467Y-20263557D01*
X47045087Y-20337652D01*
X47062991Y-20347222D01*
X47098729Y-20376552D01*
X47200186Y-20459814D01*
X47283448Y-20561271D01*
X47312778Y-20597009D01*
X47312779Y-20597011D01*
X47396443Y-20753533D01*
X47396443Y-20753534D01*
X47447963Y-20923373D01*
X47465359Y-21100000D01*
X47447963Y-21276627D01*
X47413616Y-21389853D01*
X47396443Y-21446467D01*
X47322348Y-21585087D01*
X47312778Y-21602991D01*
X47283448Y-21638729D01*
X47200186Y-21740186D01*
X47098729Y-21823448D01*
X47062991Y-21852778D01*
X47062989Y-21852779D01*
X46906467Y-21936443D01*
X46849853Y-21953616D01*
X46736627Y-21987963D01*
X46670443Y-21994481D01*
X46604260Y-22001000D01*
X46515740Y-22001000D01*
X46449557Y-21994481D01*
X46383373Y-21987963D01*
X46270147Y-21953616D01*
X46213533Y-21936443D01*
X46057011Y-21852779D01*
X46057009Y-21852778D01*
X46021271Y-21823448D01*
X45919814Y-21740186D01*
X45836552Y-21638729D01*
X45807222Y-21602991D01*
X45797652Y-21585087D01*
X45723557Y-21446467D01*
X45706384Y-21389853D01*
X45672037Y-21276627D01*
X45654641Y-21100000D01*
X45672037Y-20923373D01*
X45723557Y-20753534D01*
X45723557Y-20753533D01*
X45807221Y-20597011D01*
X45807222Y-20597009D01*
X45836552Y-20561271D01*
X45919814Y-20459814D01*
X46021271Y-20376552D01*
X46057009Y-20347222D01*
X46074913Y-20337652D01*
X46213533Y-20263557D01*
X46270147Y-20246384D01*
X46383373Y-20212037D01*
X46449557Y-20205519D01*
X46515740Y-20199000D01*
X46604260Y-20199000D01*
X46670443Y-20205519D01*
X46670443Y-20205519D01*
G37*
G36*
X49210443Y-20205519D02*
X49276627Y-20212037D01*
X49389853Y-20246384D01*
X49446467Y-20263557D01*
X49585087Y-20337652D01*
X49602991Y-20347222D01*
X49638729Y-20376552D01*
X49740186Y-20459814D01*
X49823448Y-20561271D01*
X49852778Y-20597009D01*
X49852779Y-20597011D01*
X49936443Y-20753533D01*
X49936443Y-20753534D01*
X49987963Y-20923373D01*
X50005359Y-21100000D01*
X49987963Y-21276627D01*
X49953616Y-21389853D01*
X49936443Y-21446467D01*
X49862348Y-21585087D01*
X49852778Y-21602991D01*
X49823448Y-21638729D01*
X49740186Y-21740186D01*
X49638729Y-21823448D01*
X49602991Y-21852778D01*
X49602989Y-21852779D01*
X49446467Y-21936443D01*
X49389853Y-21953616D01*
X49276627Y-21987963D01*
X49210443Y-21994481D01*
X49144260Y-22001000D01*
X49055740Y-22001000D01*
X48989557Y-21994481D01*
X48923373Y-21987963D01*
X48810147Y-21953616D01*
X48753533Y-21936443D01*
X48597011Y-21852779D01*
X48597009Y-21852778D01*
X48561271Y-21823448D01*
X48459814Y-21740186D01*
X48376552Y-21638729D01*
X48347222Y-21602991D01*
X48337652Y-21585087D01*
X48263557Y-21446467D01*
X48246384Y-21389853D01*
X48212037Y-21276627D01*
X48194641Y-21100000D01*
X48212037Y-20923373D01*
X48263557Y-20753534D01*
X48263557Y-20753533D01*
X48347221Y-20597011D01*
X48347222Y-20597009D01*
X48376552Y-20561271D01*
X48459814Y-20459814D01*
X48561271Y-20376552D01*
X48597009Y-20347222D01*
X48614913Y-20337652D01*
X48753533Y-20263557D01*
X48810147Y-20246384D01*
X48923373Y-20212037D01*
X48989557Y-20205519D01*
X49055740Y-20199000D01*
X49144260Y-20199000D01*
X49210443Y-20205519D01*
X49210443Y-20205519D01*
G37*
G36*
X54290443Y-20205519D02*
X54356627Y-20212037D01*
X54469853Y-20246384D01*
X54526467Y-20263557D01*
X54665087Y-20337652D01*
X54682991Y-20347222D01*
X54718729Y-20376552D01*
X54820186Y-20459814D01*
X54903448Y-20561271D01*
X54932778Y-20597009D01*
X54932779Y-20597011D01*
X55016443Y-20753533D01*
X55016443Y-20753534D01*
X55067963Y-20923373D01*
X55085359Y-21100000D01*
X55067963Y-21276627D01*
X55033616Y-21389853D01*
X55016443Y-21446467D01*
X54942348Y-21585087D01*
X54932778Y-21602991D01*
X54903448Y-21638729D01*
X54820186Y-21740186D01*
X54718729Y-21823448D01*
X54682991Y-21852778D01*
X54682989Y-21852779D01*
X54526467Y-21936443D01*
X54469853Y-21953616D01*
X54356627Y-21987963D01*
X54290443Y-21994481D01*
X54224260Y-22001000D01*
X54135740Y-22001000D01*
X54069557Y-21994481D01*
X54003373Y-21987963D01*
X53890147Y-21953616D01*
X53833533Y-21936443D01*
X53677011Y-21852779D01*
X53677009Y-21852778D01*
X53641271Y-21823448D01*
X53539814Y-21740186D01*
X53456552Y-21638729D01*
X53427222Y-21602991D01*
X53417652Y-21585087D01*
X53343557Y-21446467D01*
X53326384Y-21389853D01*
X53292037Y-21276627D01*
X53274641Y-21100000D01*
X53292037Y-20923373D01*
X53343557Y-20753534D01*
X53343557Y-20753533D01*
X53427221Y-20597011D01*
X53427222Y-20597009D01*
X53456552Y-20561271D01*
X53539814Y-20459814D01*
X53641271Y-20376552D01*
X53677009Y-20347222D01*
X53694913Y-20337652D01*
X53833533Y-20263557D01*
X53890147Y-20246384D01*
X54003373Y-20212037D01*
X54069557Y-20205519D01*
X54135740Y-20199000D01*
X54224260Y-20199000D01*
X54290443Y-20205519D01*
X54290443Y-20205519D01*
G37*
G36*
X51750443Y-20205519D02*
X51816627Y-20212037D01*
X51929853Y-20246384D01*
X51986467Y-20263557D01*
X52125087Y-20337652D01*
X52142991Y-20347222D01*
X52178729Y-20376552D01*
X52280186Y-20459814D01*
X52363448Y-20561271D01*
X52392778Y-20597009D01*
X52392779Y-20597011D01*
X52476443Y-20753533D01*
X52476443Y-20753534D01*
X52527963Y-20923373D01*
X52545359Y-21100000D01*
X52527963Y-21276627D01*
X52493616Y-21389853D01*
X52476443Y-21446467D01*
X52402348Y-21585087D01*
X52392778Y-21602991D01*
X52363448Y-21638729D01*
X52280186Y-21740186D01*
X52178729Y-21823448D01*
X52142991Y-21852778D01*
X52142989Y-21852779D01*
X51986467Y-21936443D01*
X51929853Y-21953616D01*
X51816627Y-21987963D01*
X51750443Y-21994481D01*
X51684260Y-22001000D01*
X51595740Y-22001000D01*
X51529557Y-21994481D01*
X51463373Y-21987963D01*
X51350147Y-21953616D01*
X51293533Y-21936443D01*
X51137011Y-21852779D01*
X51137009Y-21852778D01*
X51101271Y-21823448D01*
X50999814Y-21740186D01*
X50916552Y-21638729D01*
X50887222Y-21602991D01*
X50877652Y-21585087D01*
X50803557Y-21446467D01*
X50786384Y-21389853D01*
X50752037Y-21276627D01*
X50734641Y-21100000D01*
X50752037Y-20923373D01*
X50803557Y-20753534D01*
X50803557Y-20753533D01*
X50887221Y-20597011D01*
X50887222Y-20597009D01*
X50916552Y-20561271D01*
X50999814Y-20459814D01*
X51101271Y-20376552D01*
X51137009Y-20347222D01*
X51154913Y-20337652D01*
X51293533Y-20263557D01*
X51350147Y-20246384D01*
X51463373Y-20212037D01*
X51529557Y-20205519D01*
X51595740Y-20199000D01*
X51684260Y-20199000D01*
X51750443Y-20205519D01*
X51750443Y-20205519D01*
G37*
M02*
