G04 #@! TF.GenerationSoftware,KiCad,Pcbnew,5.0.1*
G04 #@! TF.CreationDate,2019-10-25T00:23:11+02:00*
G04 #@! TF.ProjectId,OtterPill,4F7474657250696C6C2E6B696361645F,rev?*
G04 #@! TF.SameCoordinates,Original*
G04 #@! TF.FileFunction,Copper,L2,Bot,Signal*
G04 #@! TF.FilePolarity,Positive*
%FSLAX46Y46*%
G04 Gerber Fmt 4.6, Leading zero omitted, Abs format (unit mm)*
G04 Created by KiCad (PCBNEW 5.0.1) date Fri 25 Oct 2019 12:23:11 AM CEST*
%MOMM*%
%LPD*%
G01*
G04 APERTURE LIST*
G04 #@! TA.AperFunction,NonConductor*
%ADD10C,0.050000*%
G04 #@! TD*
G04 #@! TA.AperFunction,ComponentPad*
%ADD11O,1.700000X1.700000*%
G04 #@! TD*
G04 #@! TA.AperFunction,ComponentPad*
%ADD12R,1.700000X1.700000*%
G04 #@! TD*
G04 #@! TA.AperFunction,SMDPad,CuDef*
%ADD13R,1.000000X1.000000*%
G04 #@! TD*
G04 #@! TA.AperFunction,ComponentPad*
%ADD14O,2.100000X1.000000*%
G04 #@! TD*
G04 #@! TA.AperFunction,ComponentPad*
%ADD15O,1.600000X1.000000*%
G04 #@! TD*
G04 #@! TA.AperFunction,ViaPad*
%ADD16C,0.600000*%
G04 #@! TD*
G04 #@! TA.AperFunction,Conductor*
%ADD17C,0.157000*%
G04 #@! TD*
G04 #@! TA.AperFunction,Conductor*
%ADD18C,0.400000*%
G04 #@! TD*
G04 #@! TA.AperFunction,Conductor*
%ADD19C,0.200000*%
G04 #@! TD*
G04 #@! TA.AperFunction,Conductor*
%ADD20C,0.600000*%
G04 #@! TD*
G04 #@! TA.AperFunction,Conductor*
%ADD21C,0.800000*%
G04 #@! TD*
G04 #@! TA.AperFunction,Conductor*
%ADD22C,0.100000*%
G04 #@! TD*
G04 APERTURE END LIST*
D10*
X63200000Y-37100000D02*
G75*
G02X62900000Y-37400000I-300000J0D01*
G01*
X62900000Y-19800000D02*
G75*
G02X63200000Y-20100000I0J-300000D01*
G01*
X20000000Y-20100000D02*
G75*
G02X20300000Y-19800000I300000J0D01*
G01*
X20300000Y-37400000D02*
G75*
G02X20000000Y-37100000I0J300000D01*
G01*
X20000000Y-37100000D02*
X20000000Y-20100000D01*
X62900000Y-37400000D02*
X20300000Y-37400000D01*
X63200000Y-20100000D02*
X63200000Y-37100000D01*
X20300000Y-19800000D02*
X62900000Y-19800000D01*
D11*
G04 #@! TO.P,J5,4*
G04 #@! TO.N,GND*
X59200000Y-32470000D03*
G04 #@! TO.P,J5,3*
G04 #@! TO.N,SWCLK*
X59200000Y-29930000D03*
G04 #@! TO.P,J5,2*
G04 #@! TO.N,SWDIO*
X59200000Y-27390000D03*
D12*
G04 #@! TO.P,J5,1*
G04 #@! TO.N,+3V3*
X59200000Y-24850000D03*
G04 #@! TD*
D13*
G04 #@! TO.P,J7,1*
G04 #@! TO.N,Net-(J7-Pad1)*
X53900000Y-33300000D03*
G04 #@! TD*
D12*
G04 #@! TO.P,J2,1*
G04 #@! TO.N,VIN*
X21420000Y-21780000D03*
G04 #@! TD*
G04 #@! TO.P,J6,1*
G04 #@! TO.N,GND*
X21420000Y-35340000D03*
G04 #@! TD*
D11*
G04 #@! TO.P,J3,15*
G04 #@! TO.N,315*
X59260000Y-21100000D03*
G04 #@! TO.P,J3,14*
G04 #@! TO.N,314*
X56720000Y-21100000D03*
G04 #@! TO.P,J3,13*
G04 #@! TO.N,313*
X54180000Y-21100000D03*
G04 #@! TO.P,J3,12*
G04 #@! TO.N,GND*
X51640000Y-21100000D03*
G04 #@! TO.P,J3,11*
G04 #@! TO.N,311*
X49100000Y-21100000D03*
G04 #@! TO.P,J3,10*
G04 #@! TO.N,310*
X46560000Y-21100000D03*
G04 #@! TO.P,J3,9*
G04 #@! TO.N,39*
X44020000Y-21100000D03*
G04 #@! TO.P,J3,8*
G04 #@! TO.N,38*
X41480000Y-21100000D03*
G04 #@! TO.P,J3,7*
G04 #@! TO.N,37*
X38940000Y-21100000D03*
G04 #@! TO.P,J3,6*
G04 #@! TO.N,36*
X36400000Y-21100000D03*
G04 #@! TO.P,J3,5*
G04 #@! TO.N,35*
X33860000Y-21100000D03*
G04 #@! TO.P,J3,4*
G04 #@! TO.N,INT_N*
X31320000Y-21100000D03*
G04 #@! TO.P,J3,3*
G04 #@! TO.N,33*
X28780000Y-21100000D03*
G04 #@! TO.P,J3,2*
G04 #@! TO.N,32*
X26240000Y-21100000D03*
D12*
G04 #@! TO.P,J3,1*
G04 #@! TO.N,31*
X23700000Y-21100000D03*
G04 #@! TD*
D11*
G04 #@! TO.P,J4,15*
G04 #@! TO.N,VIN*
X59260000Y-36100000D03*
G04 #@! TO.P,J4,14*
G04 #@! TO.N,GND*
X56720000Y-36100000D03*
G04 #@! TO.P,J4,13*
G04 #@! TO.N,413*
X54180000Y-36100000D03*
G04 #@! TO.P,J4,12*
G04 #@! TO.N,+3V3*
X51640000Y-36100000D03*
G04 #@! TO.P,J4,11*
G04 #@! TO.N,411*
X49100000Y-36100000D03*
G04 #@! TO.P,J4,10*
G04 #@! TO.N,410*
X46560000Y-36100000D03*
G04 #@! TO.P,J4,9*
G04 #@! TO.N,49*
X44020000Y-36100000D03*
G04 #@! TO.P,J4,8*
G04 #@! TO.N,48*
X41480000Y-36100000D03*
G04 #@! TO.P,J4,7*
G04 #@! TO.N,47*
X38940000Y-36100000D03*
G04 #@! TO.P,J4,6*
G04 #@! TO.N,46*
X36400000Y-36100000D03*
G04 #@! TO.P,J4,5*
G04 #@! TO.N,45*
X33860000Y-36100000D03*
G04 #@! TO.P,J4,4*
G04 #@! TO.N,44*
X31320000Y-36100000D03*
G04 #@! TO.P,J4,3*
G04 #@! TO.N,43*
X28780000Y-36100000D03*
G04 #@! TO.P,J4,2*
G04 #@! TO.N,+3V3*
X26240000Y-36100000D03*
D12*
G04 #@! TO.P,J4,1*
G04 #@! TO.N,41*
X23700000Y-36100000D03*
G04 #@! TD*
D14*
G04 #@! TO.P,J1,S1*
G04 #@! TO.N,GND*
X25454999Y-24250000D03*
X25454999Y-32890000D03*
D15*
X21274999Y-24250000D03*
X21274999Y-32890000D03*
G04 #@! TD*
D16*
G04 #@! TO.N,GND*
X50300000Y-36750000D03*
X52900000Y-36800000D03*
X47800000Y-36800000D03*
X39500000Y-22500000D03*
X42700000Y-25797010D03*
X31792990Y-28275000D03*
X25150000Y-35225510D03*
X42890000Y-27780000D03*
X44250000Y-26530000D03*
X48500000Y-28820000D03*
X48710000Y-31440000D03*
X58500000Y-23200000D03*
X48620000Y-27890000D03*
X49100000Y-28500000D03*
X51470000Y-29480000D03*
X53550000Y-29600000D03*
X52200000Y-30400000D03*
X55590000Y-29000000D03*
X57150000Y-29050000D03*
X55600000Y-30600000D03*
X43640000Y-25760000D03*
X36540000Y-23530000D03*
X37000000Y-28100000D03*
X32250000Y-31850000D03*
X29480000Y-31570000D03*
X30865510Y-32360000D03*
X41640000Y-27460000D03*
X41450000Y-26190000D03*
X42730000Y-22130000D03*
X40095772Y-33843328D03*
X30050000Y-36800000D03*
X39200000Y-27892990D03*
X30292456Y-25856973D03*
X37770000Y-24242990D03*
X30340000Y-24170000D03*
X49882999Y-24887575D03*
X49200000Y-24900000D03*
X49550000Y-25500000D03*
X61680000Y-20540000D03*
X62680000Y-20540000D03*
X61680000Y-21540000D03*
X62680000Y-21540000D03*
X61680000Y-22540000D03*
X62680000Y-22540000D03*
X61680000Y-23540000D03*
X62680000Y-23540000D03*
X61680000Y-24540000D03*
X62680000Y-24540000D03*
X61680000Y-25540000D03*
X62680000Y-25540000D03*
X61680000Y-26540000D03*
X62680000Y-26540000D03*
X61680000Y-27540000D03*
X62680000Y-27540000D03*
X61680000Y-28540000D03*
X62680000Y-28540000D03*
X61680000Y-29540000D03*
X62680000Y-29540000D03*
X61680000Y-30540000D03*
X62680000Y-30540000D03*
X61680000Y-31540000D03*
X62680000Y-31540000D03*
X61680000Y-32540000D03*
X62680000Y-32540000D03*
X61680000Y-33540000D03*
X62680000Y-33540000D03*
X61680000Y-34540000D03*
X62680000Y-34540000D03*
X61680000Y-35540000D03*
X62680000Y-35540000D03*
X61680000Y-36540000D03*
X62680000Y-36540000D03*
X47656337Y-33643663D03*
X48312533Y-32567179D03*
X45320000Y-35300000D03*
X32580000Y-23594000D03*
X34612000Y-23594000D03*
X47312000Y-22832000D03*
X48582000Y-22832000D03*
X47820000Y-23594000D03*
X40230000Y-36810000D03*
X42770000Y-36810000D03*
X32580000Y-36830000D03*
X27520000Y-36790000D03*
X55470000Y-36820000D03*
X57950000Y-36810000D03*
X60610000Y-36760000D03*
X55430000Y-20390000D03*
X52880000Y-20430000D03*
X50400000Y-20460000D03*
X47800000Y-20410000D03*
X45280000Y-20420000D03*
X42740000Y-20420000D03*
X40200000Y-20400000D03*
X37690000Y-20380000D03*
X35170000Y-20400000D03*
X27510000Y-20420000D03*
X25070000Y-20380000D03*
G04 #@! TO.N,Net-(C3-Pad1)*
X52980000Y-22550000D03*
X50870000Y-25530000D03*
G04 #@! TO.N,+3V3*
X28592990Y-28500000D03*
X51500030Y-31437000D03*
X30330000Y-30470000D03*
X27794282Y-25816292D03*
G04 #@! TO.N,SWCLK*
X43196790Y-31800901D03*
G04 #@! TO.N,SWDIO*
X41588375Y-30788003D03*
G04 #@! TO.N,INT_N*
X36014007Y-28902422D03*
X36830287Y-30510287D03*
X34070000Y-26200000D03*
G04 #@! TO.N,SDA*
X35118772Y-27302757D03*
X37449835Y-25864876D03*
G04 #@! TO.N,USB_P*
X29775000Y-29400000D03*
X36113167Y-33728021D03*
G04 #@! TO.N,USB_N*
X36718588Y-33171011D03*
X29800000Y-27575000D03*
G04 #@! TO.N,VIN*
X24500000Y-28800000D03*
X27700000Y-30900000D03*
X24500000Y-27900000D03*
X25150000Y-27200000D03*
X25150000Y-30357010D03*
X24770000Y-29600000D03*
X32840000Y-30290000D03*
X52315000Y-29530000D03*
X55450000Y-32620000D03*
X48000000Y-24750000D03*
X48550000Y-24200000D03*
X24300000Y-30450000D03*
X24460000Y-26810000D03*
G04 #@! TO.N,315*
X41050000Y-30250000D03*
G04 #@! TO.N,314*
X40873240Y-31036298D03*
G04 #@! TO.N,33*
X32620000Y-21830000D03*
G04 #@! TO.N,32*
X33269503Y-26301268D03*
X38114536Y-32091178D03*
G04 #@! TO.N,31*
X32700000Y-26800000D03*
X37360000Y-32030000D03*
G04 #@! TO.N,48*
X44711128Y-30646985D03*
X43238543Y-34479306D03*
G04 #@! TO.N,47*
X40858662Y-27948664D03*
G04 #@! TO.N,46*
X43887842Y-31491848D03*
X42708663Y-33938663D03*
G04 #@! TO.N,44*
X40831870Y-27058583D03*
G04 #@! TO.N,41*
X31520000Y-34060002D03*
G04 #@! TO.N,Net-(J7-Pad1)*
X45330000Y-30211021D03*
X45727511Y-28212050D03*
X52870000Y-32640000D03*
G04 #@! TD*
D17*
G04 #@! TO.N,Net-(C3-Pad1)*
X52980000Y-22550000D02*
X50870000Y-24660000D01*
X50870000Y-24660000D02*
X50870000Y-25530000D01*
D18*
G04 #@! TO.N,+3V3*
X51640000Y-31576970D02*
X51500030Y-31437000D01*
X51640000Y-36100000D02*
X51640000Y-31576970D01*
D17*
X28592990Y-29157254D02*
X29905736Y-30470000D01*
X29905736Y-30470000D02*
X30330000Y-30470000D01*
X28592990Y-28500000D02*
X28592990Y-29157254D01*
X28592990Y-26615000D02*
X28094281Y-26116291D01*
X28592990Y-28500000D02*
X28592990Y-26615000D01*
X28094281Y-26116291D02*
X27794282Y-25816292D01*
G04 #@! TO.N,SWCLK*
X45980201Y-27202033D02*
X43196790Y-29985444D01*
X56472033Y-27202033D02*
X45980201Y-27202033D01*
X59200000Y-29930000D02*
X56472033Y-27202033D01*
X43196790Y-31376637D02*
X43196790Y-31800901D01*
X43196790Y-29985444D02*
X43196790Y-31376637D01*
G04 #@! TO.N,SWDIO*
X57997919Y-27390000D02*
X57495941Y-26888022D01*
X59200000Y-27390000D02*
X57997919Y-27390000D01*
X57495941Y-26888022D02*
X45850134Y-26888022D01*
X45850134Y-26888022D02*
X41950153Y-30788003D01*
X41950153Y-30788003D02*
X41588375Y-30788003D01*
G04 #@! TO.N,INT_N*
X31400000Y-21180000D02*
X31320000Y-21100000D01*
X36014007Y-28902422D02*
X36014007Y-29694007D01*
X36530288Y-30210288D02*
X36830287Y-30510287D01*
X36014007Y-29694007D02*
X36530288Y-30210288D01*
X34070000Y-26320000D02*
X34070000Y-26200000D01*
X35996429Y-28920000D02*
X35080000Y-28920000D01*
X35080000Y-28920000D02*
X33700000Y-27540000D01*
X36014007Y-28902422D02*
X35996429Y-28920000D01*
X33700000Y-27540000D02*
X33700000Y-26690000D01*
X33700000Y-26690000D02*
X34070000Y-26320000D01*
G04 #@! TO.N,SDA*
X35118772Y-27302757D02*
X36011954Y-27302757D01*
X36011954Y-27302757D02*
X37149836Y-26164875D01*
X37149836Y-26164875D02*
X37449835Y-25864876D01*
D19*
G04 #@! TO.N,USB_P*
X35898021Y-33728021D02*
X36113167Y-33728021D01*
X35720000Y-33550000D02*
X35898021Y-33728021D01*
X34800000Y-33550000D02*
X35720000Y-33550000D01*
X29775000Y-29400000D02*
X30650000Y-29400000D01*
X30650000Y-29400000D02*
X34800000Y-33550000D01*
G04 #@! TO.N,USB_N*
X34925899Y-33171011D02*
X29800000Y-28045112D01*
X36718588Y-33171011D02*
X34925899Y-33171011D01*
X29800000Y-27999264D02*
X29800000Y-27575000D01*
X29800000Y-28045112D02*
X29800000Y-27999264D01*
G04 #@! TO.N,VIN*
X32840000Y-30290000D02*
X32350000Y-29800000D01*
X32350000Y-29800000D02*
X32350000Y-27490000D01*
X32350000Y-27490000D02*
X31790000Y-26930000D01*
X31790000Y-26930000D02*
X31790000Y-25100000D01*
D20*
X59260000Y-35527602D02*
X59260000Y-36100000D01*
D18*
X52315000Y-29530000D02*
X55405000Y-32620000D01*
X55405000Y-32620000D02*
X55450000Y-32620000D01*
D20*
X48550000Y-24200000D02*
X48000000Y-24750000D01*
X47750001Y-24999999D02*
X48000000Y-24750000D01*
X27540000Y-24999999D02*
X47750001Y-24999999D01*
X25707000Y-26055361D02*
X26484638Y-26055361D01*
X26484638Y-26055361D02*
X27540000Y-24999999D01*
D21*
X21420000Y-21780000D02*
X23650000Y-24010000D01*
X23650000Y-26000000D02*
X24460000Y-26810000D01*
X23650000Y-24010000D02*
X23650000Y-26000000D01*
D17*
G04 #@! TO.N,315*
X45720067Y-26574011D02*
X42044078Y-30250000D01*
X41474264Y-30250000D02*
X41050000Y-30250000D01*
X55720067Y-26574011D02*
X45720067Y-26574011D01*
X42044078Y-30250000D02*
X41474264Y-30250000D01*
X59260000Y-21100000D02*
X57714011Y-22645989D01*
X57714011Y-22645989D02*
X57714010Y-24580068D01*
X57714010Y-24580068D02*
X55720067Y-26574011D01*
G04 #@! TO.N,314*
X40573241Y-30736299D02*
X40873240Y-31036298D01*
X55590000Y-26260000D02*
X45590000Y-26260000D01*
X45590000Y-26260000D02*
X42135501Y-29714499D01*
X42135501Y-29714499D02*
X40792959Y-29714499D01*
X40792959Y-29714499D02*
X40514499Y-29992959D01*
X40514499Y-29992959D02*
X40514499Y-30677557D01*
X40514499Y-30677557D02*
X40573241Y-30736299D01*
X56720000Y-21100000D02*
X57400000Y-21780000D01*
X57400000Y-21780000D02*
X57400000Y-24450000D01*
X57400000Y-24450000D02*
X55590000Y-26260000D01*
G04 #@! TO.N,33*
X32320001Y-22129999D02*
X32620000Y-21830000D01*
X32200000Y-22250000D02*
X32320001Y-22129999D01*
X28780000Y-21100000D02*
X29930000Y-22250000D01*
X29930000Y-22250000D02*
X32200000Y-22250000D01*
G04 #@! TO.N,32*
X36930234Y-31374498D02*
X37822120Y-31374498D01*
X37822120Y-31374498D02*
X38114536Y-31666914D01*
X33269503Y-26301268D02*
X33269503Y-27713767D01*
X38114536Y-31666914D02*
X38114536Y-32091178D01*
X33269503Y-27713767D02*
X36930234Y-31374498D01*
G04 #@! TO.N,31*
X32700000Y-27794264D02*
X36935736Y-32030000D01*
X32700000Y-26800000D02*
X32700000Y-27794264D01*
X36935736Y-32030000D02*
X37360000Y-32030000D01*
G04 #@! TO.N,48*
X41480000Y-36100000D02*
X41552542Y-36100000D01*
X44711128Y-30646985D02*
X44711128Y-33006721D01*
X44711128Y-33006721D02*
X43538542Y-34179307D01*
X43538542Y-34179307D02*
X43238543Y-34479306D01*
G04 #@! TO.N,47*
X38940000Y-34404078D02*
X39564011Y-33780067D01*
X39564011Y-33780067D02*
X39564011Y-29243315D01*
X38940000Y-36100000D02*
X38940000Y-34404078D01*
X40558663Y-28248663D02*
X40858662Y-27948664D01*
X39564011Y-29243315D02*
X40558663Y-28248663D01*
G04 #@! TO.N,46*
X43887842Y-31491848D02*
X43887842Y-32759484D01*
X43008662Y-33638664D02*
X42708663Y-33938663D01*
X43887842Y-32759484D02*
X43008662Y-33638664D01*
G04 #@! TO.N,44*
X40831870Y-27218130D02*
X40831870Y-27058583D01*
X39250000Y-28800000D02*
X40831870Y-27218130D01*
X39250000Y-33650000D02*
X39250000Y-28800000D01*
X37960000Y-34940000D02*
X39250000Y-33650000D01*
X31320000Y-36100000D02*
X32480000Y-34940000D01*
X32480000Y-34940000D02*
X37960000Y-34940000D01*
G04 #@! TO.N,41*
X31524999Y-34065001D02*
X31520000Y-34060002D01*
X30900000Y-34690000D02*
X31524999Y-34065001D01*
X24103000Y-34690000D02*
X30900000Y-34690000D01*
X23700000Y-36100000D02*
X23700000Y-35093000D01*
X23700000Y-35093000D02*
X24103000Y-34690000D01*
G04 #@! TO.N,Net-(J7-Pad1)*
X45330000Y-28609561D02*
X45427512Y-28512049D01*
X45330000Y-30211021D02*
X45330000Y-28609561D01*
X45427512Y-28512049D02*
X45727511Y-28212050D01*
X53240000Y-32640000D02*
X53900000Y-33300000D01*
X52870000Y-32640000D02*
X53240000Y-32640000D01*
G04 #@! TD*
D22*
G04 #@! TO.N,VIN*
G36*
X24413444Y-25524821D02*
X24392999Y-25627603D01*
X24392999Y-25732397D01*
X24413444Y-25835179D01*
X24453547Y-25931996D01*
X24511768Y-26019130D01*
X24585869Y-26093231D01*
X24673003Y-26151452D01*
X24769820Y-26191555D01*
X24872602Y-26212000D01*
X24977396Y-26212000D01*
X25080178Y-26191555D01*
X25176995Y-26151452D01*
X25264129Y-26093231D01*
X25338230Y-26019130D01*
X25396451Y-25931996D01*
X25436554Y-25835179D01*
X25456999Y-25732397D01*
X25456999Y-25627603D01*
X25436554Y-25524821D01*
X25405562Y-25450000D01*
X27443568Y-25450000D01*
X27400470Y-25493098D01*
X27344985Y-25576138D01*
X27306766Y-25668406D01*
X27287282Y-25766357D01*
X27287282Y-25866227D01*
X27306766Y-25964178D01*
X27344985Y-26056446D01*
X27400470Y-26139486D01*
X27471088Y-26210104D01*
X27554128Y-26265589D01*
X27646396Y-26303808D01*
X27744347Y-26323292D01*
X27844217Y-26323292D01*
X27888680Y-26314448D01*
X27902317Y-26328085D01*
X27902322Y-26328089D01*
X28050000Y-26475767D01*
X28050000Y-31750000D01*
X25371058Y-31750000D01*
X25396451Y-31711996D01*
X25436554Y-31615179D01*
X25456999Y-31512397D01*
X25456999Y-31407603D01*
X25436554Y-31304821D01*
X25396451Y-31208004D01*
X25338230Y-31120870D01*
X25264129Y-31046769D01*
X25176995Y-30988548D01*
X25080178Y-30948445D01*
X24977396Y-30928000D01*
X24872602Y-30928000D01*
X24769820Y-30948445D01*
X24673003Y-30988548D01*
X24585869Y-31046769D01*
X24511768Y-31120870D01*
X24453547Y-31208004D01*
X24413444Y-31304821D01*
X24392999Y-31407603D01*
X24392999Y-31512397D01*
X24413444Y-31615179D01*
X24453547Y-31711996D01*
X24478940Y-31750000D01*
X23950000Y-31750000D01*
X23950000Y-25450000D01*
X24444436Y-25450000D01*
X24413444Y-25524821D01*
X24413444Y-25524821D01*
G37*
X24413444Y-25524821D02*
X24392999Y-25627603D01*
X24392999Y-25732397D01*
X24413444Y-25835179D01*
X24453547Y-25931996D01*
X24511768Y-26019130D01*
X24585869Y-26093231D01*
X24673003Y-26151452D01*
X24769820Y-26191555D01*
X24872602Y-26212000D01*
X24977396Y-26212000D01*
X25080178Y-26191555D01*
X25176995Y-26151452D01*
X25264129Y-26093231D01*
X25338230Y-26019130D01*
X25396451Y-25931996D01*
X25436554Y-25835179D01*
X25456999Y-25732397D01*
X25456999Y-25627603D01*
X25436554Y-25524821D01*
X25405562Y-25450000D01*
X27443568Y-25450000D01*
X27400470Y-25493098D01*
X27344985Y-25576138D01*
X27306766Y-25668406D01*
X27287282Y-25766357D01*
X27287282Y-25866227D01*
X27306766Y-25964178D01*
X27344985Y-26056446D01*
X27400470Y-26139486D01*
X27471088Y-26210104D01*
X27554128Y-26265589D01*
X27646396Y-26303808D01*
X27744347Y-26323292D01*
X27844217Y-26323292D01*
X27888680Y-26314448D01*
X27902317Y-26328085D01*
X27902322Y-26328089D01*
X28050000Y-26475767D01*
X28050000Y-31750000D01*
X25371058Y-31750000D01*
X25396451Y-31711996D01*
X25436554Y-31615179D01*
X25456999Y-31512397D01*
X25456999Y-31407603D01*
X25436554Y-31304821D01*
X25396451Y-31208004D01*
X25338230Y-31120870D01*
X25264129Y-31046769D01*
X25176995Y-30988548D01*
X25080178Y-30948445D01*
X24977396Y-30928000D01*
X24872602Y-30928000D01*
X24769820Y-30948445D01*
X24673003Y-30988548D01*
X24585869Y-31046769D01*
X24511768Y-31120870D01*
X24453547Y-31208004D01*
X24413444Y-31304821D01*
X24392999Y-31407603D01*
X24392999Y-31512397D01*
X24413444Y-31615179D01*
X24453547Y-31711996D01*
X24478940Y-31750000D01*
X23950000Y-31750000D01*
X23950000Y-25450000D01*
X24444436Y-25450000D01*
X24413444Y-25524821D01*
D17*
G04 #@! TO.N,GND*
G36*
X22682671Y-20082671D02*
X22653242Y-20118530D01*
X22631374Y-20159442D01*
X22617908Y-20203834D01*
X22613361Y-20250000D01*
X22613361Y-21950000D01*
X22617908Y-21996166D01*
X22631374Y-22040558D01*
X22653242Y-22081470D01*
X22682671Y-22117329D01*
X22718530Y-22146758D01*
X22759442Y-22168626D01*
X22803834Y-22182092D01*
X22850000Y-22186639D01*
X24550000Y-22186639D01*
X24596166Y-22182092D01*
X24640558Y-22168626D01*
X24681470Y-22146758D01*
X24717329Y-22117329D01*
X24746758Y-22081470D01*
X24768626Y-22040558D01*
X24782092Y-21996166D01*
X24786639Y-21950000D01*
X24786639Y-20250000D01*
X24782092Y-20203834D01*
X24768626Y-20159442D01*
X24746758Y-20118530D01*
X24717329Y-20082671D01*
X24690314Y-20060500D01*
X25927340Y-20060500D01*
X25822587Y-20092277D01*
X25634011Y-20193073D01*
X25468722Y-20328722D01*
X25333073Y-20494011D01*
X25232277Y-20682587D01*
X25170206Y-20887205D01*
X25149248Y-21100000D01*
X25170206Y-21312795D01*
X25232277Y-21517413D01*
X25333073Y-21705989D01*
X25468722Y-21871278D01*
X25634011Y-22006927D01*
X25822587Y-22107723D01*
X26027205Y-22169794D01*
X26186674Y-22185500D01*
X26293326Y-22185500D01*
X26452795Y-22169794D01*
X26657413Y-22107723D01*
X26845989Y-22006927D01*
X27011278Y-21871278D01*
X27146927Y-21705989D01*
X27247723Y-21517413D01*
X27309794Y-21312795D01*
X27330752Y-21100000D01*
X27309794Y-20887205D01*
X27247723Y-20682587D01*
X27146927Y-20494011D01*
X27011278Y-20328722D01*
X26845989Y-20193073D01*
X26657413Y-20092277D01*
X26552660Y-20060500D01*
X28467340Y-20060500D01*
X28362587Y-20092277D01*
X28174011Y-20193073D01*
X28008722Y-20328722D01*
X27873073Y-20494011D01*
X27772277Y-20682587D01*
X27710206Y-20887205D01*
X27689248Y-21100000D01*
X27710206Y-21312795D01*
X27772277Y-21517413D01*
X27873073Y-21705989D01*
X28008722Y-21871278D01*
X28174011Y-22006927D01*
X28362587Y-22107723D01*
X28567205Y-22169794D01*
X28726674Y-22185500D01*
X28833326Y-22185500D01*
X28992795Y-22169794D01*
X29197413Y-22107723D01*
X29292718Y-22056781D01*
X29697060Y-22461123D01*
X29706894Y-22473106D01*
X29754707Y-22512344D01*
X29809256Y-22541502D01*
X29868445Y-22559456D01*
X29930000Y-22565519D01*
X29945421Y-22564000D01*
X32184579Y-22564000D01*
X32200000Y-22565519D01*
X32215421Y-22564000D01*
X32215422Y-22564000D01*
X32261555Y-22559456D01*
X32320744Y-22541502D01*
X32375293Y-22512344D01*
X32423106Y-22473106D01*
X32432944Y-22461118D01*
X32534982Y-22359080D01*
X32567258Y-22365500D01*
X32672742Y-22365500D01*
X32776200Y-22344921D01*
X32873654Y-22304554D01*
X32961361Y-22245950D01*
X33035950Y-22171361D01*
X33094554Y-22083654D01*
X33134921Y-21986200D01*
X33148089Y-21919999D01*
X33254011Y-22006927D01*
X33442587Y-22107723D01*
X33647205Y-22169794D01*
X33806674Y-22185500D01*
X33913326Y-22185500D01*
X34072795Y-22169794D01*
X34277413Y-22107723D01*
X34465989Y-22006927D01*
X34631278Y-21871278D01*
X34766927Y-21705989D01*
X34867723Y-21517413D01*
X34929794Y-21312795D01*
X34950752Y-21100000D01*
X34929794Y-20887205D01*
X34867723Y-20682587D01*
X34766927Y-20494011D01*
X34631278Y-20328722D01*
X34465989Y-20193073D01*
X34277413Y-20092277D01*
X34172660Y-20060500D01*
X36087340Y-20060500D01*
X35982587Y-20092277D01*
X35794011Y-20193073D01*
X35628722Y-20328722D01*
X35493073Y-20494011D01*
X35392277Y-20682587D01*
X35330206Y-20887205D01*
X35309248Y-21100000D01*
X35330206Y-21312795D01*
X35392277Y-21517413D01*
X35493073Y-21705989D01*
X35628722Y-21871278D01*
X35794011Y-22006927D01*
X35982587Y-22107723D01*
X36187205Y-22169794D01*
X36346674Y-22185500D01*
X36453326Y-22185500D01*
X36612795Y-22169794D01*
X36817413Y-22107723D01*
X37005989Y-22006927D01*
X37171278Y-21871278D01*
X37306927Y-21705989D01*
X37407723Y-21517413D01*
X37469794Y-21312795D01*
X37490752Y-21100000D01*
X37469794Y-20887205D01*
X37407723Y-20682587D01*
X37306927Y-20494011D01*
X37171278Y-20328722D01*
X37005989Y-20193073D01*
X36817413Y-20092277D01*
X36712660Y-20060500D01*
X38627340Y-20060500D01*
X38522587Y-20092277D01*
X38334011Y-20193073D01*
X38168722Y-20328722D01*
X38033073Y-20494011D01*
X37932277Y-20682587D01*
X37870206Y-20887205D01*
X37849248Y-21100000D01*
X37870206Y-21312795D01*
X37932277Y-21517413D01*
X38033073Y-21705989D01*
X38168722Y-21871278D01*
X38334011Y-22006927D01*
X38522587Y-22107723D01*
X38727205Y-22169794D01*
X38886674Y-22185500D01*
X38993326Y-22185500D01*
X39152795Y-22169794D01*
X39357413Y-22107723D01*
X39545989Y-22006927D01*
X39711278Y-21871278D01*
X39846927Y-21705989D01*
X39947723Y-21517413D01*
X40009794Y-21312795D01*
X40030752Y-21100000D01*
X40009794Y-20887205D01*
X39947723Y-20682587D01*
X39846927Y-20494011D01*
X39711278Y-20328722D01*
X39545989Y-20193073D01*
X39357413Y-20092277D01*
X39252660Y-20060500D01*
X41167340Y-20060500D01*
X41062587Y-20092277D01*
X40874011Y-20193073D01*
X40708722Y-20328722D01*
X40573073Y-20494011D01*
X40472277Y-20682587D01*
X40410206Y-20887205D01*
X40389248Y-21100000D01*
X40410206Y-21312795D01*
X40472277Y-21517413D01*
X40573073Y-21705989D01*
X40708722Y-21871278D01*
X40874011Y-22006927D01*
X41062587Y-22107723D01*
X41267205Y-22169794D01*
X41426674Y-22185500D01*
X41533326Y-22185500D01*
X41692795Y-22169794D01*
X41897413Y-22107723D01*
X42085989Y-22006927D01*
X42251278Y-21871278D01*
X42386927Y-21705989D01*
X42487723Y-21517413D01*
X42549794Y-21312795D01*
X42570752Y-21100000D01*
X42549794Y-20887205D01*
X42487723Y-20682587D01*
X42386927Y-20494011D01*
X42251278Y-20328722D01*
X42085989Y-20193073D01*
X41897413Y-20092277D01*
X41792660Y-20060500D01*
X43707340Y-20060500D01*
X43602587Y-20092277D01*
X43414011Y-20193073D01*
X43248722Y-20328722D01*
X43113073Y-20494011D01*
X43012277Y-20682587D01*
X42950206Y-20887205D01*
X42929248Y-21100000D01*
X42950206Y-21312795D01*
X43012277Y-21517413D01*
X43113073Y-21705989D01*
X43248722Y-21871278D01*
X43414011Y-22006927D01*
X43602587Y-22107723D01*
X43807205Y-22169794D01*
X43966674Y-22185500D01*
X44073326Y-22185500D01*
X44232795Y-22169794D01*
X44437413Y-22107723D01*
X44625989Y-22006927D01*
X44791278Y-21871278D01*
X44926927Y-21705989D01*
X45027723Y-21517413D01*
X45089794Y-21312795D01*
X45110752Y-21100000D01*
X45089794Y-20887205D01*
X45027723Y-20682587D01*
X44926927Y-20494011D01*
X44791278Y-20328722D01*
X44625989Y-20193073D01*
X44437413Y-20092277D01*
X44332660Y-20060500D01*
X46247340Y-20060500D01*
X46142587Y-20092277D01*
X45954011Y-20193073D01*
X45788722Y-20328722D01*
X45653073Y-20494011D01*
X45552277Y-20682587D01*
X45490206Y-20887205D01*
X45469248Y-21100000D01*
X45490206Y-21312795D01*
X45552277Y-21517413D01*
X45653073Y-21705989D01*
X45788722Y-21871278D01*
X45954011Y-22006927D01*
X46142587Y-22107723D01*
X46347205Y-22169794D01*
X46506674Y-22185500D01*
X46613326Y-22185500D01*
X46772795Y-22169794D01*
X46977413Y-22107723D01*
X47165989Y-22006927D01*
X47331278Y-21871278D01*
X47466927Y-21705989D01*
X47567723Y-21517413D01*
X47629794Y-21312795D01*
X47650752Y-21100000D01*
X47629794Y-20887205D01*
X47567723Y-20682587D01*
X47466927Y-20494011D01*
X47331278Y-20328722D01*
X47165989Y-20193073D01*
X46977413Y-20092277D01*
X46872660Y-20060500D01*
X48787340Y-20060500D01*
X48682587Y-20092277D01*
X48494011Y-20193073D01*
X48328722Y-20328722D01*
X48193073Y-20494011D01*
X48092277Y-20682587D01*
X48030206Y-20887205D01*
X48009248Y-21100000D01*
X48030206Y-21312795D01*
X48092277Y-21517413D01*
X48193073Y-21705989D01*
X48328722Y-21871278D01*
X48494011Y-22006927D01*
X48682587Y-22107723D01*
X48887205Y-22169794D01*
X49046674Y-22185500D01*
X49153326Y-22185500D01*
X49312795Y-22169794D01*
X49517413Y-22107723D01*
X49705989Y-22006927D01*
X49871278Y-21871278D01*
X50006927Y-21705989D01*
X50107723Y-21517413D01*
X50115469Y-21491877D01*
X50581714Y-21491877D01*
X50678500Y-21690809D01*
X50812236Y-21867036D01*
X50977783Y-22013786D01*
X51168778Y-22125420D01*
X51248125Y-22158275D01*
X51418500Y-22135449D01*
X51418500Y-21321500D01*
X51861500Y-21321500D01*
X51861500Y-22135449D01*
X52031875Y-22158275D01*
X52111222Y-22125420D01*
X52302217Y-22013786D01*
X52467764Y-21867036D01*
X52601500Y-21690809D01*
X52698286Y-21491877D01*
X52676935Y-21321500D01*
X51861500Y-21321500D01*
X51418500Y-21321500D01*
X50603065Y-21321500D01*
X50581714Y-21491877D01*
X50115469Y-21491877D01*
X50169794Y-21312795D01*
X50190752Y-21100000D01*
X50169794Y-20887205D01*
X50107723Y-20682587D01*
X50006927Y-20494011D01*
X49871278Y-20328722D01*
X49705989Y-20193073D01*
X49517413Y-20092277D01*
X49412660Y-20060500D01*
X51202782Y-20060500D01*
X51168778Y-20074580D01*
X50977783Y-20186214D01*
X50812236Y-20332964D01*
X50678500Y-20509191D01*
X50581714Y-20708123D01*
X50603065Y-20878500D01*
X51418500Y-20878500D01*
X51418500Y-20858500D01*
X51861500Y-20858500D01*
X51861500Y-20878500D01*
X52676935Y-20878500D01*
X52698286Y-20708123D01*
X52601500Y-20509191D01*
X52467764Y-20332964D01*
X52302217Y-20186214D01*
X52111222Y-20074580D01*
X52077218Y-20060500D01*
X53867340Y-20060500D01*
X53762587Y-20092277D01*
X53574011Y-20193073D01*
X53408722Y-20328722D01*
X53273073Y-20494011D01*
X53172277Y-20682587D01*
X53110206Y-20887205D01*
X53089248Y-21100000D01*
X53110206Y-21312795D01*
X53172277Y-21517413D01*
X53273073Y-21705989D01*
X53408722Y-21871278D01*
X53574011Y-22006927D01*
X53762587Y-22107723D01*
X53967205Y-22169794D01*
X54126674Y-22185500D01*
X54233326Y-22185500D01*
X54392795Y-22169794D01*
X54597413Y-22107723D01*
X54785989Y-22006927D01*
X54951278Y-21871278D01*
X55086927Y-21705989D01*
X55187723Y-21517413D01*
X55249794Y-21312795D01*
X55270752Y-21100000D01*
X55249794Y-20887205D01*
X55187723Y-20682587D01*
X55086927Y-20494011D01*
X54951278Y-20328722D01*
X54785989Y-20193073D01*
X54597413Y-20092277D01*
X54492660Y-20060500D01*
X56407340Y-20060500D01*
X56302587Y-20092277D01*
X56114011Y-20193073D01*
X55948722Y-20328722D01*
X55813073Y-20494011D01*
X55712277Y-20682587D01*
X55650206Y-20887205D01*
X55629248Y-21100000D01*
X55650206Y-21312795D01*
X55712277Y-21517413D01*
X55813073Y-21705989D01*
X55948722Y-21871278D01*
X56114011Y-22006927D01*
X56302587Y-22107723D01*
X56507205Y-22169794D01*
X56666674Y-22185500D01*
X56773326Y-22185500D01*
X56932795Y-22169794D01*
X57086000Y-22123319D01*
X57086001Y-24319936D01*
X55459938Y-25946000D01*
X51211286Y-25946000D01*
X51211361Y-25945950D01*
X51285950Y-25871361D01*
X51344554Y-25783654D01*
X51384921Y-25686200D01*
X51405500Y-25582742D01*
X51405500Y-25477258D01*
X51384921Y-25373800D01*
X51344554Y-25276346D01*
X51285950Y-25188639D01*
X51211361Y-25114050D01*
X51184000Y-25095768D01*
X51184000Y-24790062D01*
X52894983Y-23079080D01*
X52927258Y-23085500D01*
X53032742Y-23085500D01*
X53136200Y-23064921D01*
X53233654Y-23024554D01*
X53321361Y-22965950D01*
X53395950Y-22891361D01*
X53454554Y-22803654D01*
X53494921Y-22706200D01*
X53515500Y-22602742D01*
X53515500Y-22497258D01*
X53494921Y-22393800D01*
X53454554Y-22296346D01*
X53395950Y-22208639D01*
X53321361Y-22134050D01*
X53233654Y-22075446D01*
X53136200Y-22035079D01*
X53032742Y-22014500D01*
X52927258Y-22014500D01*
X52823800Y-22035079D01*
X52726346Y-22075446D01*
X52638639Y-22134050D01*
X52564050Y-22208639D01*
X52505446Y-22296346D01*
X52465079Y-22393800D01*
X52444500Y-22497258D01*
X52444500Y-22602742D01*
X52450920Y-22635017D01*
X50658882Y-24427056D01*
X50646894Y-24436894D01*
X50607656Y-24484708D01*
X50578498Y-24539257D01*
X50564464Y-24585524D01*
X50560544Y-24598446D01*
X50554481Y-24660000D01*
X50556000Y-24675422D01*
X50556001Y-25095768D01*
X50528639Y-25114050D01*
X50454050Y-25188639D01*
X50395446Y-25276346D01*
X50355079Y-25373800D01*
X50334500Y-25477258D01*
X50334500Y-25582742D01*
X50355079Y-25686200D01*
X50395446Y-25783654D01*
X50454050Y-25871361D01*
X50528639Y-25945950D01*
X50528714Y-25946000D01*
X45605418Y-25946000D01*
X45589999Y-25944481D01*
X45574580Y-25946000D01*
X45574578Y-25946000D01*
X45528445Y-25950544D01*
X45469256Y-25968498D01*
X45414707Y-25997656D01*
X45366894Y-26036894D01*
X45357063Y-26048874D01*
X42005439Y-29400499D01*
X40808380Y-29400499D01*
X40792959Y-29398980D01*
X40731404Y-29405043D01*
X40672214Y-29422997D01*
X40631749Y-29444627D01*
X40617666Y-29452155D01*
X40569853Y-29491393D01*
X40560022Y-29503373D01*
X40303381Y-29760015D01*
X40291393Y-29769853D01*
X40252155Y-29817667D01*
X40222997Y-29872216D01*
X40205769Y-29929011D01*
X40205043Y-29931405D01*
X40198980Y-29992959D01*
X40200499Y-30008381D01*
X40200500Y-30662126D01*
X40198980Y-30677557D01*
X40205043Y-30739111D01*
X40222998Y-30798301D01*
X40250396Y-30849557D01*
X40252156Y-30852850D01*
X40291394Y-30900663D01*
X40303377Y-30910497D01*
X40344160Y-30951280D01*
X40337740Y-30983556D01*
X40337740Y-31089040D01*
X40358319Y-31192498D01*
X40398686Y-31289952D01*
X40457290Y-31377659D01*
X40531879Y-31452248D01*
X40619586Y-31510852D01*
X40717040Y-31551219D01*
X40820498Y-31571798D01*
X40925982Y-31571798D01*
X41029440Y-31551219D01*
X41126894Y-31510852D01*
X41214601Y-31452248D01*
X41289190Y-31377659D01*
X41347794Y-31289952D01*
X41355565Y-31271191D01*
X41432175Y-31302924D01*
X41535633Y-31323503D01*
X41641117Y-31323503D01*
X41744575Y-31302924D01*
X41842029Y-31262557D01*
X41929736Y-31203953D01*
X42004325Y-31129364D01*
X42029186Y-31092157D01*
X42070897Y-31079505D01*
X42125446Y-31050347D01*
X42173259Y-31011109D01*
X42183097Y-30999121D01*
X42882790Y-30299428D01*
X42882791Y-31361206D01*
X42882790Y-31361216D01*
X42882790Y-31366669D01*
X42855429Y-31384951D01*
X42780840Y-31459540D01*
X42722236Y-31547247D01*
X42681869Y-31644701D01*
X42661290Y-31748159D01*
X42661290Y-31853643D01*
X42681869Y-31957101D01*
X42722236Y-32054555D01*
X42780840Y-32142262D01*
X42855429Y-32216851D01*
X42943136Y-32275455D01*
X43040590Y-32315822D01*
X43144048Y-32336401D01*
X43249532Y-32336401D01*
X43352990Y-32315822D01*
X43450444Y-32275455D01*
X43538151Y-32216851D01*
X43573843Y-32181159D01*
X43573843Y-32629420D01*
X42797540Y-33405724D01*
X42797535Y-33405728D01*
X42793680Y-33409583D01*
X42761405Y-33403163D01*
X42655921Y-33403163D01*
X42552463Y-33423742D01*
X42455009Y-33464109D01*
X42367302Y-33522713D01*
X42292713Y-33597302D01*
X42234109Y-33685009D01*
X42193742Y-33782463D01*
X42173163Y-33885921D01*
X42173163Y-33991405D01*
X42193742Y-34094863D01*
X42234109Y-34192317D01*
X42292713Y-34280024D01*
X42367302Y-34354613D01*
X42455009Y-34413217D01*
X42552463Y-34453584D01*
X42655921Y-34474163D01*
X42703043Y-34474163D01*
X42703043Y-34532048D01*
X42723622Y-34635506D01*
X42763989Y-34732960D01*
X42822593Y-34820667D01*
X42897182Y-34895256D01*
X42984889Y-34953860D01*
X43082343Y-34994227D01*
X43185801Y-35014806D01*
X43291285Y-35014806D01*
X43394743Y-34994227D01*
X43492197Y-34953860D01*
X43579904Y-34895256D01*
X43654493Y-34820667D01*
X43713097Y-34732960D01*
X43753464Y-34635506D01*
X43774043Y-34532048D01*
X43774043Y-34426564D01*
X43767623Y-34394289D01*
X43771478Y-34390434D01*
X43771482Y-34390429D01*
X44922251Y-33239661D01*
X44934234Y-33229827D01*
X44973472Y-33182014D01*
X45002630Y-33127465D01*
X45020584Y-33068276D01*
X45025128Y-33022143D01*
X45026647Y-33006722D01*
X45025128Y-32991300D01*
X45025128Y-31081217D01*
X45052489Y-31062935D01*
X45127078Y-30988346D01*
X45185682Y-30900639D01*
X45226049Y-30803185D01*
X45238840Y-30738879D01*
X45277258Y-30746521D01*
X45382742Y-30746521D01*
X45486200Y-30725942D01*
X45583654Y-30685575D01*
X45671361Y-30626971D01*
X45745950Y-30552382D01*
X45804554Y-30464675D01*
X45844921Y-30367221D01*
X45865500Y-30263763D01*
X45865500Y-30158279D01*
X45844921Y-30054821D01*
X45804554Y-29957367D01*
X45745950Y-29869660D01*
X45671361Y-29795071D01*
X45644000Y-29776789D01*
X45644000Y-29477258D01*
X51779500Y-29477258D01*
X51779500Y-29582742D01*
X51800079Y-29686200D01*
X51840446Y-29783654D01*
X51899050Y-29871361D01*
X51973639Y-29945950D01*
X52061346Y-30004554D01*
X52158800Y-30044921D01*
X52227746Y-30058635D01*
X54932539Y-32763429D01*
X54935079Y-32776200D01*
X54975446Y-32873654D01*
X55034050Y-32961361D01*
X55108639Y-33035950D01*
X55196346Y-33094554D01*
X55293800Y-33134921D01*
X55397258Y-33155500D01*
X55502742Y-33155500D01*
X55606200Y-33134921D01*
X55703654Y-33094554D01*
X55791361Y-33035950D01*
X55865950Y-32961361D01*
X55924554Y-32873654D01*
X55929433Y-32861875D01*
X58141725Y-32861875D01*
X58174580Y-32941222D01*
X58286214Y-33132217D01*
X58432964Y-33297764D01*
X58609191Y-33431500D01*
X58808123Y-33528286D01*
X58978500Y-33506935D01*
X58978500Y-32691500D01*
X59421500Y-32691500D01*
X59421500Y-33506935D01*
X59591877Y-33528286D01*
X59790809Y-33431500D01*
X59967036Y-33297764D01*
X60113786Y-33132217D01*
X60225420Y-32941222D01*
X60258275Y-32861875D01*
X60235449Y-32691500D01*
X59421500Y-32691500D01*
X58978500Y-32691500D01*
X58164551Y-32691500D01*
X58141725Y-32861875D01*
X55929433Y-32861875D01*
X55964921Y-32776200D01*
X55985500Y-32672742D01*
X55985500Y-32567258D01*
X55964921Y-32463800D01*
X55924554Y-32366346D01*
X55865950Y-32278639D01*
X55791361Y-32204050D01*
X55703654Y-32145446D01*
X55606200Y-32105079D01*
X55502742Y-32084500D01*
X55485390Y-32084500D01*
X55479015Y-32078125D01*
X58141725Y-32078125D01*
X58164551Y-32248500D01*
X58978500Y-32248500D01*
X58978500Y-31433065D01*
X59421500Y-31433065D01*
X59421500Y-32248500D01*
X60235449Y-32248500D01*
X60258275Y-32078125D01*
X60225420Y-31998778D01*
X60113786Y-31807783D01*
X59967036Y-31642236D01*
X59790809Y-31508500D01*
X59591877Y-31411714D01*
X59421500Y-31433065D01*
X58978500Y-31433065D01*
X58808123Y-31411714D01*
X58609191Y-31508500D01*
X58432964Y-31642236D01*
X58286214Y-31807783D01*
X58174580Y-31998778D01*
X58141725Y-32078125D01*
X55479015Y-32078125D01*
X52843635Y-29442746D01*
X52829921Y-29373800D01*
X52789554Y-29276346D01*
X52730950Y-29188639D01*
X52656361Y-29114050D01*
X52568654Y-29055446D01*
X52471200Y-29015079D01*
X52367742Y-28994500D01*
X52262258Y-28994500D01*
X52158800Y-29015079D01*
X52061346Y-29055446D01*
X51973639Y-29114050D01*
X51899050Y-29188639D01*
X51840446Y-29276346D01*
X51800079Y-29373800D01*
X51779500Y-29477258D01*
X45644000Y-29477258D01*
X45644000Y-28741430D01*
X45674769Y-28747550D01*
X45780253Y-28747550D01*
X45883711Y-28726971D01*
X45981165Y-28686604D01*
X46068872Y-28628000D01*
X46143461Y-28553411D01*
X46202065Y-28465704D01*
X46242432Y-28368250D01*
X46263011Y-28264792D01*
X46263011Y-28159308D01*
X46242432Y-28055850D01*
X46202065Y-27958396D01*
X46143461Y-27870689D01*
X46068872Y-27796100D01*
X45981165Y-27737496D01*
X45915854Y-27710443D01*
X46110264Y-27516033D01*
X56341971Y-27516033D01*
X58243219Y-29417282D01*
X58192277Y-29512587D01*
X58130206Y-29717205D01*
X58109248Y-29930000D01*
X58130206Y-30142795D01*
X58192277Y-30347413D01*
X58293073Y-30535989D01*
X58428722Y-30701278D01*
X58594011Y-30836927D01*
X58782587Y-30937723D01*
X58987205Y-30999794D01*
X59146674Y-31015500D01*
X59253326Y-31015500D01*
X59412795Y-30999794D01*
X59617413Y-30937723D01*
X59805989Y-30836927D01*
X59971278Y-30701278D01*
X60106927Y-30535989D01*
X60207723Y-30347413D01*
X60269794Y-30142795D01*
X60290752Y-29930000D01*
X60269794Y-29717205D01*
X60207723Y-29512587D01*
X60106927Y-29324011D01*
X59971278Y-29158722D01*
X59805989Y-29023073D01*
X59617413Y-28922277D01*
X59412795Y-28860206D01*
X59253326Y-28844500D01*
X59146674Y-28844500D01*
X58987205Y-28860206D01*
X58782587Y-28922277D01*
X58687282Y-28973219D01*
X56916084Y-27202022D01*
X57365879Y-27202022D01*
X57764979Y-27601123D01*
X57774813Y-27613106D01*
X57822626Y-27652344D01*
X57877175Y-27681502D01*
X57921707Y-27695010D01*
X57936364Y-27699456D01*
X57997918Y-27705519D01*
X58013340Y-27704000D01*
X58160907Y-27704000D01*
X58192277Y-27807413D01*
X58293073Y-27995989D01*
X58428722Y-28161278D01*
X58594011Y-28296927D01*
X58782587Y-28397723D01*
X58987205Y-28459794D01*
X59146674Y-28475500D01*
X59253326Y-28475500D01*
X59412795Y-28459794D01*
X59617413Y-28397723D01*
X59805989Y-28296927D01*
X59971278Y-28161278D01*
X60106927Y-27995989D01*
X60207723Y-27807413D01*
X60269794Y-27602795D01*
X60290752Y-27390000D01*
X60269794Y-27177205D01*
X60207723Y-26972587D01*
X60106927Y-26784011D01*
X59971278Y-26618722D01*
X59805989Y-26483073D01*
X59617413Y-26382277D01*
X59412795Y-26320206D01*
X59253326Y-26304500D01*
X59146674Y-26304500D01*
X58987205Y-26320206D01*
X58782587Y-26382277D01*
X58594011Y-26483073D01*
X58428722Y-26618722D01*
X58293073Y-26784011D01*
X58192277Y-26972587D01*
X58160907Y-27076000D01*
X58127982Y-27076000D01*
X57728885Y-26676904D01*
X57719047Y-26664916D01*
X57671234Y-26625678D01*
X57616685Y-26596520D01*
X57557496Y-26578566D01*
X57511363Y-26574022D01*
X57511362Y-26574022D01*
X57495941Y-26572503D01*
X57480520Y-26574022D01*
X56164118Y-26574022D01*
X57925138Y-24813003D01*
X57937115Y-24803174D01*
X57946946Y-24791195D01*
X57976354Y-24755361D01*
X58005511Y-24700813D01*
X58023465Y-24641623D01*
X58029529Y-24580069D01*
X58028009Y-24564640D01*
X58028009Y-24000000D01*
X58113361Y-24000000D01*
X58113361Y-25700000D01*
X58117908Y-25746166D01*
X58131374Y-25790558D01*
X58153242Y-25831470D01*
X58182671Y-25867329D01*
X58218530Y-25896758D01*
X58259442Y-25918626D01*
X58303834Y-25932092D01*
X58350000Y-25936639D01*
X60050000Y-25936639D01*
X60096166Y-25932092D01*
X60140558Y-25918626D01*
X60181470Y-25896758D01*
X60217329Y-25867329D01*
X60246758Y-25831470D01*
X60268626Y-25790558D01*
X60282092Y-25746166D01*
X60286639Y-25700000D01*
X60286639Y-24000000D01*
X60282092Y-23953834D01*
X60268626Y-23909442D01*
X60246758Y-23868530D01*
X60217329Y-23832671D01*
X60181470Y-23803242D01*
X60140558Y-23781374D01*
X60096166Y-23767908D01*
X60050000Y-23763361D01*
X58350000Y-23763361D01*
X58303834Y-23767908D01*
X58259442Y-23781374D01*
X58218530Y-23803242D01*
X58182671Y-23832671D01*
X58153242Y-23868530D01*
X58131374Y-23909442D01*
X58117908Y-23953834D01*
X58113361Y-24000000D01*
X58028009Y-24000000D01*
X58028011Y-22776051D01*
X58747281Y-22056781D01*
X58842587Y-22107723D01*
X59047205Y-22169794D01*
X59206674Y-22185500D01*
X59313326Y-22185500D01*
X59472795Y-22169794D01*
X59677413Y-22107723D01*
X59865989Y-22006927D01*
X60031278Y-21871278D01*
X60166927Y-21705989D01*
X60267723Y-21517413D01*
X60329794Y-21312795D01*
X60350752Y-21100000D01*
X60329794Y-20887205D01*
X60267723Y-20682587D01*
X60166927Y-20494011D01*
X60031278Y-20328722D01*
X59865989Y-20193073D01*
X59677413Y-20092277D01*
X59572660Y-20060500D01*
X62887260Y-20060500D01*
X62907432Y-20062478D01*
X62914573Y-20064634D01*
X62921165Y-20068139D01*
X62926955Y-20072861D01*
X62931710Y-20078608D01*
X62935262Y-20085179D01*
X62937470Y-20092311D01*
X62939500Y-20111624D01*
X62939501Y-37087250D01*
X62937522Y-37107432D01*
X62935366Y-37114575D01*
X62931862Y-37121163D01*
X62927140Y-37126954D01*
X62921389Y-37131711D01*
X62914821Y-37135263D01*
X62907690Y-37137470D01*
X62888376Y-37139500D01*
X59572660Y-37139500D01*
X59677413Y-37107723D01*
X59865989Y-37006927D01*
X60031278Y-36871278D01*
X60166927Y-36705989D01*
X60267723Y-36517413D01*
X60329794Y-36312795D01*
X60350752Y-36100000D01*
X60329794Y-35887205D01*
X60267723Y-35682587D01*
X60166927Y-35494011D01*
X60031278Y-35328722D01*
X59865989Y-35193073D01*
X59677413Y-35092277D01*
X59472795Y-35030206D01*
X59461318Y-35029076D01*
X59364975Y-34999850D01*
X59260000Y-34989511D01*
X59155024Y-34999850D01*
X59058680Y-35029076D01*
X59047205Y-35030206D01*
X58842587Y-35092277D01*
X58654011Y-35193073D01*
X58488722Y-35328722D01*
X58353073Y-35494011D01*
X58252277Y-35682587D01*
X58190206Y-35887205D01*
X58169248Y-36100000D01*
X58190206Y-36312795D01*
X58252277Y-36517413D01*
X58353073Y-36705989D01*
X58488722Y-36871278D01*
X58654011Y-37006927D01*
X58842587Y-37107723D01*
X58947340Y-37139500D01*
X57157218Y-37139500D01*
X57191222Y-37125420D01*
X57382217Y-37013786D01*
X57547764Y-36867036D01*
X57681500Y-36690809D01*
X57778286Y-36491877D01*
X57756935Y-36321500D01*
X56941500Y-36321500D01*
X56941500Y-36341500D01*
X56498500Y-36341500D01*
X56498500Y-36321500D01*
X55683065Y-36321500D01*
X55661714Y-36491877D01*
X55758500Y-36690809D01*
X55892236Y-36867036D01*
X56057783Y-37013786D01*
X56248778Y-37125420D01*
X56282782Y-37139500D01*
X54492660Y-37139500D01*
X54597413Y-37107723D01*
X54785989Y-37006927D01*
X54951278Y-36871278D01*
X55086927Y-36705989D01*
X55187723Y-36517413D01*
X55249794Y-36312795D01*
X55270752Y-36100000D01*
X55249794Y-35887205D01*
X55195470Y-35708123D01*
X55661714Y-35708123D01*
X55683065Y-35878500D01*
X56498500Y-35878500D01*
X56498500Y-35064551D01*
X56941500Y-35064551D01*
X56941500Y-35878500D01*
X57756935Y-35878500D01*
X57778286Y-35708123D01*
X57681500Y-35509191D01*
X57547764Y-35332964D01*
X57382217Y-35186214D01*
X57191222Y-35074580D01*
X57111875Y-35041725D01*
X56941500Y-35064551D01*
X56498500Y-35064551D01*
X56328125Y-35041725D01*
X56248778Y-35074580D01*
X56057783Y-35186214D01*
X55892236Y-35332964D01*
X55758500Y-35509191D01*
X55661714Y-35708123D01*
X55195470Y-35708123D01*
X55187723Y-35682587D01*
X55086927Y-35494011D01*
X54951278Y-35328722D01*
X54785989Y-35193073D01*
X54597413Y-35092277D01*
X54392795Y-35030206D01*
X54233326Y-35014500D01*
X54126674Y-35014500D01*
X53967205Y-35030206D01*
X53762587Y-35092277D01*
X53574011Y-35193073D01*
X53408722Y-35328722D01*
X53273073Y-35494011D01*
X53172277Y-35682587D01*
X53110206Y-35887205D01*
X53089248Y-36100000D01*
X53110206Y-36312795D01*
X53172277Y-36517413D01*
X53273073Y-36705989D01*
X53408722Y-36871278D01*
X53574011Y-37006927D01*
X53762587Y-37107723D01*
X53867340Y-37139500D01*
X51952660Y-37139500D01*
X52057413Y-37107723D01*
X52245989Y-37006927D01*
X52411278Y-36871278D01*
X52546927Y-36705989D01*
X52647723Y-36517413D01*
X52709794Y-36312795D01*
X52730752Y-36100000D01*
X52709794Y-35887205D01*
X52647723Y-35682587D01*
X52546927Y-35494011D01*
X52411278Y-35328722D01*
X52245989Y-35193073D01*
X52075500Y-35101945D01*
X52075500Y-32587258D01*
X52334500Y-32587258D01*
X52334500Y-32692742D01*
X52355079Y-32796200D01*
X52395446Y-32893654D01*
X52454050Y-32981361D01*
X52528639Y-33055950D01*
X52616346Y-33114554D01*
X52713800Y-33154921D01*
X52817258Y-33175500D01*
X52922742Y-33175500D01*
X53026200Y-33154921D01*
X53123654Y-33114554D01*
X53163361Y-33088023D01*
X53163361Y-33800000D01*
X53167908Y-33846166D01*
X53181374Y-33890558D01*
X53203242Y-33931470D01*
X53232671Y-33967329D01*
X53268530Y-33996758D01*
X53309442Y-34018626D01*
X53353834Y-34032092D01*
X53400000Y-34036639D01*
X54400000Y-34036639D01*
X54446166Y-34032092D01*
X54490558Y-34018626D01*
X54531470Y-33996758D01*
X54567329Y-33967329D01*
X54596758Y-33931470D01*
X54618626Y-33890558D01*
X54632092Y-33846166D01*
X54636639Y-33800000D01*
X54636639Y-32800000D01*
X54632092Y-32753834D01*
X54618626Y-32709442D01*
X54596758Y-32668530D01*
X54567329Y-32632671D01*
X54531470Y-32603242D01*
X54490558Y-32581374D01*
X54446166Y-32567908D01*
X54400000Y-32563361D01*
X53607423Y-32563361D01*
X53472944Y-32428882D01*
X53463106Y-32416894D01*
X53415293Y-32377656D01*
X53360744Y-32348498D01*
X53308721Y-32332718D01*
X53285950Y-32298639D01*
X53211361Y-32224050D01*
X53123654Y-32165446D01*
X53026200Y-32125079D01*
X52922742Y-32104500D01*
X52817258Y-32104500D01*
X52713800Y-32125079D01*
X52616346Y-32165446D01*
X52528639Y-32224050D01*
X52454050Y-32298639D01*
X52395446Y-32386346D01*
X52355079Y-32483800D01*
X52334500Y-32587258D01*
X52075500Y-32587258D01*
X52075500Y-31598350D01*
X52077606Y-31576969D01*
X52075500Y-31555588D01*
X52075500Y-31555576D01*
X52069199Y-31491597D01*
X52044296Y-31409505D01*
X52035530Y-31393105D01*
X52035530Y-31384258D01*
X52014951Y-31280800D01*
X51974584Y-31183346D01*
X51915980Y-31095639D01*
X51841391Y-31021050D01*
X51753684Y-30962446D01*
X51656230Y-30922079D01*
X51552772Y-30901500D01*
X51447288Y-30901500D01*
X51343830Y-30922079D01*
X51246376Y-30962446D01*
X51158669Y-31021050D01*
X51084080Y-31095639D01*
X51025476Y-31183346D01*
X50985109Y-31280800D01*
X50964530Y-31384258D01*
X50964530Y-31489742D01*
X50985109Y-31593200D01*
X51025476Y-31690654D01*
X51084080Y-31778361D01*
X51158669Y-31852950D01*
X51204501Y-31883574D01*
X51204500Y-35101945D01*
X51034011Y-35193073D01*
X50868722Y-35328722D01*
X50733073Y-35494011D01*
X50632277Y-35682587D01*
X50570206Y-35887205D01*
X50549248Y-36100000D01*
X50570206Y-36312795D01*
X50632277Y-36517413D01*
X50733073Y-36705989D01*
X50868722Y-36871278D01*
X51034011Y-37006927D01*
X51222587Y-37107723D01*
X51327340Y-37139500D01*
X49412660Y-37139500D01*
X49517413Y-37107723D01*
X49705989Y-37006927D01*
X49871278Y-36871278D01*
X50006927Y-36705989D01*
X50107723Y-36517413D01*
X50169794Y-36312795D01*
X50190752Y-36100000D01*
X50169794Y-35887205D01*
X50107723Y-35682587D01*
X50006927Y-35494011D01*
X49871278Y-35328722D01*
X49705989Y-35193073D01*
X49517413Y-35092277D01*
X49312795Y-35030206D01*
X49153326Y-35014500D01*
X49046674Y-35014500D01*
X48887205Y-35030206D01*
X48682587Y-35092277D01*
X48494011Y-35193073D01*
X48328722Y-35328722D01*
X48193073Y-35494011D01*
X48092277Y-35682587D01*
X48030206Y-35887205D01*
X48009248Y-36100000D01*
X48030206Y-36312795D01*
X48092277Y-36517413D01*
X48193073Y-36705989D01*
X48328722Y-36871278D01*
X48494011Y-37006927D01*
X48682587Y-37107723D01*
X48787340Y-37139500D01*
X46872660Y-37139500D01*
X46977413Y-37107723D01*
X47165989Y-37006927D01*
X47331278Y-36871278D01*
X47466927Y-36705989D01*
X47567723Y-36517413D01*
X47629794Y-36312795D01*
X47650752Y-36100000D01*
X47629794Y-35887205D01*
X47567723Y-35682587D01*
X47466927Y-35494011D01*
X47331278Y-35328722D01*
X47165989Y-35193073D01*
X46977413Y-35092277D01*
X46772795Y-35030206D01*
X46613326Y-35014500D01*
X46506674Y-35014500D01*
X46347205Y-35030206D01*
X46142587Y-35092277D01*
X45954011Y-35193073D01*
X45788722Y-35328722D01*
X45653073Y-35494011D01*
X45552277Y-35682587D01*
X45490206Y-35887205D01*
X45469248Y-36100000D01*
X45490206Y-36312795D01*
X45552277Y-36517413D01*
X45653073Y-36705989D01*
X45788722Y-36871278D01*
X45954011Y-37006927D01*
X46142587Y-37107723D01*
X46247340Y-37139500D01*
X44332660Y-37139500D01*
X44437413Y-37107723D01*
X44625989Y-37006927D01*
X44791278Y-36871278D01*
X44926927Y-36705989D01*
X45027723Y-36517413D01*
X45089794Y-36312795D01*
X45110752Y-36100000D01*
X45089794Y-35887205D01*
X45027723Y-35682587D01*
X44926927Y-35494011D01*
X44791278Y-35328722D01*
X44625989Y-35193073D01*
X44437413Y-35092277D01*
X44232795Y-35030206D01*
X44073326Y-35014500D01*
X43966674Y-35014500D01*
X43807205Y-35030206D01*
X43602587Y-35092277D01*
X43414011Y-35193073D01*
X43248722Y-35328722D01*
X43113073Y-35494011D01*
X43012277Y-35682587D01*
X42950206Y-35887205D01*
X42929248Y-36100000D01*
X42950206Y-36312795D01*
X43012277Y-36517413D01*
X43113073Y-36705989D01*
X43248722Y-36871278D01*
X43414011Y-37006927D01*
X43602587Y-37107723D01*
X43707340Y-37139500D01*
X41792660Y-37139500D01*
X41897413Y-37107723D01*
X42085989Y-37006927D01*
X42251278Y-36871278D01*
X42386927Y-36705989D01*
X42487723Y-36517413D01*
X42549794Y-36312795D01*
X42570752Y-36100000D01*
X42549794Y-35887205D01*
X42487723Y-35682587D01*
X42386927Y-35494011D01*
X42251278Y-35328722D01*
X42085989Y-35193073D01*
X41897413Y-35092277D01*
X41692795Y-35030206D01*
X41533326Y-35014500D01*
X41426674Y-35014500D01*
X41267205Y-35030206D01*
X41062587Y-35092277D01*
X40874011Y-35193073D01*
X40708722Y-35328722D01*
X40573073Y-35494011D01*
X40472277Y-35682587D01*
X40410206Y-35887205D01*
X40389248Y-36100000D01*
X40410206Y-36312795D01*
X40472277Y-36517413D01*
X40573073Y-36705989D01*
X40708722Y-36871278D01*
X40874011Y-37006927D01*
X41062587Y-37107723D01*
X41167340Y-37139500D01*
X39252660Y-37139500D01*
X39357413Y-37107723D01*
X39545989Y-37006927D01*
X39711278Y-36871278D01*
X39846927Y-36705989D01*
X39947723Y-36517413D01*
X40009794Y-36312795D01*
X40030752Y-36100000D01*
X40009794Y-35887205D01*
X39947723Y-35682587D01*
X39846927Y-35494011D01*
X39711278Y-35328722D01*
X39545989Y-35193073D01*
X39357413Y-35092277D01*
X39254000Y-35060907D01*
X39254000Y-34534140D01*
X39775135Y-34013006D01*
X39787117Y-34003173D01*
X39826355Y-33955360D01*
X39832531Y-33943806D01*
X39855513Y-33900812D01*
X39873467Y-33841622D01*
X39877567Y-33800000D01*
X39878011Y-33795489D01*
X39878011Y-33795488D01*
X39879530Y-33780067D01*
X39878011Y-33764646D01*
X39878011Y-29373377D01*
X40773645Y-28477744D01*
X40805920Y-28484164D01*
X40911404Y-28484164D01*
X41014862Y-28463585D01*
X41112316Y-28423218D01*
X41200023Y-28364614D01*
X41274612Y-28290025D01*
X41333216Y-28202318D01*
X41373583Y-28104864D01*
X41394162Y-28001406D01*
X41394162Y-27895922D01*
X41373583Y-27792464D01*
X41333216Y-27695010D01*
X41274612Y-27607303D01*
X41200023Y-27532714D01*
X41143090Y-27494673D01*
X41173231Y-27474533D01*
X41247820Y-27399944D01*
X41306424Y-27312237D01*
X41346791Y-27214783D01*
X41367370Y-27111325D01*
X41367370Y-27005841D01*
X41346791Y-26902383D01*
X41306424Y-26804929D01*
X41247820Y-26717222D01*
X41173231Y-26642633D01*
X41085524Y-26584029D01*
X40988070Y-26543662D01*
X40884612Y-26523083D01*
X40779128Y-26523083D01*
X40675670Y-26543662D01*
X40578216Y-26584029D01*
X40490509Y-26642633D01*
X40415920Y-26717222D01*
X40357316Y-26804929D01*
X40316949Y-26902383D01*
X40296370Y-27005841D01*
X40296370Y-27111325D01*
X40316949Y-27214783D01*
X40338683Y-27267254D01*
X39038877Y-28567061D01*
X39026895Y-28576894D01*
X39012743Y-28594139D01*
X38987656Y-28624708D01*
X38958499Y-28679256D01*
X38940544Y-28738446D01*
X38934481Y-28800000D01*
X38936001Y-28815432D01*
X38936000Y-33519937D01*
X37829938Y-34626000D01*
X32495421Y-34626000D01*
X32480000Y-34624481D01*
X32464578Y-34626000D01*
X32418445Y-34630544D01*
X32359256Y-34648498D01*
X32304707Y-34677656D01*
X32256894Y-34716894D01*
X32247063Y-34728874D01*
X31832719Y-35143219D01*
X31737413Y-35092277D01*
X31532795Y-35030206D01*
X31373326Y-35014500D01*
X31266674Y-35014500D01*
X31107205Y-35030206D01*
X30902587Y-35092277D01*
X30714011Y-35193073D01*
X30548722Y-35328722D01*
X30413073Y-35494011D01*
X30312277Y-35682587D01*
X30250206Y-35887205D01*
X30229248Y-36100000D01*
X30250206Y-36312795D01*
X30312277Y-36517413D01*
X30413073Y-36705989D01*
X30548722Y-36871278D01*
X30714011Y-37006927D01*
X30902587Y-37107723D01*
X31007340Y-37139500D01*
X29092660Y-37139500D01*
X29197413Y-37107723D01*
X29385989Y-37006927D01*
X29551278Y-36871278D01*
X29686927Y-36705989D01*
X29787723Y-36517413D01*
X29849794Y-36312795D01*
X29870752Y-36100000D01*
X29849794Y-35887205D01*
X29787723Y-35682587D01*
X29686927Y-35494011D01*
X29551278Y-35328722D01*
X29385989Y-35193073D01*
X29197413Y-35092277D01*
X28992795Y-35030206D01*
X28833326Y-35014500D01*
X28726674Y-35014500D01*
X28567205Y-35030206D01*
X28362587Y-35092277D01*
X28174011Y-35193073D01*
X28008722Y-35328722D01*
X27873073Y-35494011D01*
X27772277Y-35682587D01*
X27710206Y-35887205D01*
X27689248Y-36100000D01*
X27710206Y-36312795D01*
X27772277Y-36517413D01*
X27873073Y-36705989D01*
X28008722Y-36871278D01*
X28174011Y-37006927D01*
X28362587Y-37107723D01*
X28467340Y-37139500D01*
X26552660Y-37139500D01*
X26657413Y-37107723D01*
X26845989Y-37006927D01*
X27011278Y-36871278D01*
X27146927Y-36705989D01*
X27247723Y-36517413D01*
X27309794Y-36312795D01*
X27330752Y-36100000D01*
X27309794Y-35887205D01*
X27247723Y-35682587D01*
X27146927Y-35494011D01*
X27011278Y-35328722D01*
X26845989Y-35193073D01*
X26657413Y-35092277D01*
X26452795Y-35030206D01*
X26293326Y-35014500D01*
X26186674Y-35014500D01*
X26027205Y-35030206D01*
X25822587Y-35092277D01*
X25634011Y-35193073D01*
X25468722Y-35328722D01*
X25333073Y-35494011D01*
X25232277Y-35682587D01*
X25170206Y-35887205D01*
X25149248Y-36100000D01*
X25170206Y-36312795D01*
X25232277Y-36517413D01*
X25333073Y-36705989D01*
X25468722Y-36871278D01*
X25634011Y-37006927D01*
X25822587Y-37107723D01*
X25927340Y-37139500D01*
X24690314Y-37139500D01*
X24717329Y-37117329D01*
X24746758Y-37081470D01*
X24768626Y-37040558D01*
X24782092Y-36996166D01*
X24786639Y-36950000D01*
X24786639Y-35250000D01*
X24782092Y-35203834D01*
X24768626Y-35159442D01*
X24746758Y-35118530D01*
X24717329Y-35082671D01*
X24681470Y-35053242D01*
X24640558Y-35031374D01*
X24596166Y-35017908D01*
X24550000Y-35013361D01*
X24223702Y-35013361D01*
X24233063Y-35004000D01*
X30884579Y-35004000D01*
X30900000Y-35005519D01*
X30915421Y-35004000D01*
X30915422Y-35004000D01*
X30961555Y-34999456D01*
X31020744Y-34981502D01*
X31075293Y-34952344D01*
X31123106Y-34913106D01*
X31132944Y-34901118D01*
X31443322Y-34590741D01*
X31467258Y-34595502D01*
X31572742Y-34595502D01*
X31676200Y-34574923D01*
X31773654Y-34534556D01*
X31861361Y-34475952D01*
X31935950Y-34401363D01*
X31994554Y-34313656D01*
X32034921Y-34216202D01*
X32055500Y-34112744D01*
X32055500Y-34007260D01*
X32034921Y-33903802D01*
X31994554Y-33806348D01*
X31935950Y-33718641D01*
X31861361Y-33644052D01*
X31773654Y-33585448D01*
X31676200Y-33545081D01*
X31572742Y-33524502D01*
X31467258Y-33524502D01*
X31363800Y-33545081D01*
X31266346Y-33585448D01*
X31178639Y-33644052D01*
X31104050Y-33718641D01*
X31045446Y-33806348D01*
X31005079Y-33903802D01*
X30984500Y-34007260D01*
X30984500Y-34112744D01*
X30992579Y-34153359D01*
X30769938Y-34376000D01*
X24118421Y-34376000D01*
X24102999Y-34374481D01*
X24087578Y-34376000D01*
X24041445Y-34380544D01*
X23982256Y-34398498D01*
X23927707Y-34427656D01*
X23879894Y-34466894D01*
X23870063Y-34478874D01*
X23488877Y-34860061D01*
X23476895Y-34869894D01*
X23446003Y-34907537D01*
X23437656Y-34917708D01*
X23408499Y-34972256D01*
X23396030Y-35013361D01*
X22850000Y-35013361D01*
X22803834Y-35017908D01*
X22759442Y-35031374D01*
X22718530Y-35053242D01*
X22682671Y-35082671D01*
X22653242Y-35118530D01*
X22631374Y-35159442D01*
X22617908Y-35203834D01*
X22613361Y-35250000D01*
X22613361Y-36950000D01*
X22617908Y-36996166D01*
X22631374Y-37040558D01*
X22653242Y-37081470D01*
X22682671Y-37117329D01*
X22709686Y-37139500D01*
X20312740Y-37139500D01*
X20292568Y-37137522D01*
X20285425Y-37135366D01*
X20278837Y-37131862D01*
X20273046Y-37127140D01*
X20268289Y-37121389D01*
X20264737Y-37114821D01*
X20262530Y-37107690D01*
X20260500Y-37088376D01*
X20260500Y-35631125D01*
X20291500Y-35631125D01*
X20291500Y-36217430D01*
X20302203Y-36271235D01*
X20323196Y-36321919D01*
X20353675Y-36367533D01*
X20392466Y-36406325D01*
X20438081Y-36436803D01*
X20488764Y-36457797D01*
X20542570Y-36468500D01*
X21128875Y-36468500D01*
X21198500Y-36398875D01*
X21198500Y-35561500D01*
X21641500Y-35561500D01*
X21641500Y-36398875D01*
X21711125Y-36468500D01*
X22297430Y-36468500D01*
X22351236Y-36457797D01*
X22401919Y-36436803D01*
X22447534Y-36406325D01*
X22486325Y-36367533D01*
X22516804Y-36321919D01*
X22537797Y-36271235D01*
X22548500Y-36217430D01*
X22548500Y-35631125D01*
X22478875Y-35561500D01*
X21641500Y-35561500D01*
X21198500Y-35561500D01*
X20361125Y-35561500D01*
X20291500Y-35631125D01*
X20260500Y-35631125D01*
X20260500Y-34462570D01*
X20291500Y-34462570D01*
X20291500Y-35048875D01*
X20361125Y-35118500D01*
X21198500Y-35118500D01*
X21198500Y-34281125D01*
X21641500Y-34281125D01*
X21641500Y-35118500D01*
X22478875Y-35118500D01*
X22548500Y-35048875D01*
X22548500Y-34462570D01*
X22537797Y-34408765D01*
X22516804Y-34358081D01*
X22486325Y-34312467D01*
X22447534Y-34273675D01*
X22401919Y-34243197D01*
X22351236Y-34222203D01*
X22297430Y-34211500D01*
X21711125Y-34211500D01*
X21641500Y-34281125D01*
X21198500Y-34281125D01*
X21128875Y-34211500D01*
X20542570Y-34211500D01*
X20488764Y-34222203D01*
X20438081Y-34243197D01*
X20392466Y-34273675D01*
X20353675Y-34312467D01*
X20323196Y-34358081D01*
X20302203Y-34408765D01*
X20291500Y-34462570D01*
X20260500Y-34462570D01*
X20260500Y-33111502D01*
X20301617Y-33111502D01*
X20272514Y-33225524D01*
X20290809Y-33291856D01*
X20382354Y-33417613D01*
X20496674Y-33523094D01*
X20629375Y-33604246D01*
X20775359Y-33657950D01*
X20929015Y-33682142D01*
X21053499Y-33609958D01*
X21053499Y-33111500D01*
X21496499Y-33111500D01*
X21496499Y-33609958D01*
X21620983Y-33682142D01*
X21774639Y-33657950D01*
X21920623Y-33604246D01*
X22053324Y-33523094D01*
X22167644Y-33417613D01*
X22259189Y-33291856D01*
X22277484Y-33225524D01*
X24202514Y-33225524D01*
X24288316Y-33414240D01*
X24402440Y-33524476D01*
X24535877Y-33610329D01*
X24683499Y-33668500D01*
X25233499Y-33668500D01*
X25233499Y-33111500D01*
X25676499Y-33111500D01*
X25676499Y-33668500D01*
X26226499Y-33668500D01*
X26374121Y-33610329D01*
X26507558Y-33524476D01*
X26621682Y-33414240D01*
X26707484Y-33225524D01*
X26678380Y-33111500D01*
X25676499Y-33111500D01*
X25233499Y-33111500D01*
X24231618Y-33111500D01*
X24202514Y-33225524D01*
X22277484Y-33225524D01*
X22248380Y-33111500D01*
X21496499Y-33111500D01*
X21053499Y-33111500D01*
X21033499Y-33111500D01*
X21033499Y-32668500D01*
X21053499Y-32668500D01*
X21053499Y-32170042D01*
X21496499Y-32170042D01*
X21496499Y-32668500D01*
X22248380Y-32668500D01*
X22277484Y-32554476D01*
X24202514Y-32554476D01*
X24231618Y-32668500D01*
X25233499Y-32668500D01*
X25233499Y-32111500D01*
X25676499Y-32111500D01*
X25676499Y-32668500D01*
X26678380Y-32668500D01*
X26707484Y-32554476D01*
X26621682Y-32365760D01*
X26507558Y-32255524D01*
X26374121Y-32169671D01*
X26226499Y-32111500D01*
X25676499Y-32111500D01*
X25233499Y-32111500D01*
X24683499Y-32111500D01*
X24535877Y-32169671D01*
X24402440Y-32255524D01*
X24288316Y-32365760D01*
X24202514Y-32554476D01*
X22277484Y-32554476D01*
X22259189Y-32488144D01*
X22167644Y-32362387D01*
X22053324Y-32256906D01*
X21920623Y-32175754D01*
X21774639Y-32122050D01*
X21620983Y-32097858D01*
X21496499Y-32170042D01*
X21053499Y-32170042D01*
X20929015Y-32097858D01*
X20775359Y-32122050D01*
X20629375Y-32175754D01*
X20496674Y-32256906D01*
X20382354Y-32362387D01*
X20290809Y-32488144D01*
X20272514Y-32554476D01*
X20301617Y-32668498D01*
X20260500Y-32668498D01*
X20260500Y-24471502D01*
X20301617Y-24471502D01*
X20272514Y-24585524D01*
X20290809Y-24651856D01*
X20382354Y-24777613D01*
X20496674Y-24883094D01*
X20629375Y-24964246D01*
X20775359Y-25017950D01*
X20929015Y-25042142D01*
X21053499Y-24969958D01*
X21053499Y-24471500D01*
X21496499Y-24471500D01*
X21496499Y-24969958D01*
X21620983Y-25042142D01*
X21774639Y-25017950D01*
X21920623Y-24964246D01*
X22053324Y-24883094D01*
X22167644Y-24777613D01*
X22259189Y-24651856D01*
X22277484Y-24585524D01*
X22248380Y-24471500D01*
X21496499Y-24471500D01*
X21053499Y-24471500D01*
X21033499Y-24471500D01*
X21033499Y-24028500D01*
X21053499Y-24028500D01*
X21053499Y-23530042D01*
X21496499Y-23530042D01*
X21496499Y-24028500D01*
X22248380Y-24028500D01*
X22277484Y-23914476D01*
X22259189Y-23848144D01*
X22167644Y-23722387D01*
X22053324Y-23616906D01*
X21920623Y-23535754D01*
X21774639Y-23482050D01*
X21620983Y-23457858D01*
X21496499Y-23530042D01*
X21053499Y-23530042D01*
X20929015Y-23457858D01*
X20775359Y-23482050D01*
X20629375Y-23535754D01*
X20496674Y-23616906D01*
X20382354Y-23722387D01*
X20290809Y-23848144D01*
X20272514Y-23914476D01*
X20301617Y-24028498D01*
X20260500Y-24028498D01*
X20260500Y-20930000D01*
X20333361Y-20930000D01*
X20333361Y-22630000D01*
X20337908Y-22676166D01*
X20351374Y-22720558D01*
X20373242Y-22761470D01*
X20402671Y-22797329D01*
X20438530Y-22826758D01*
X20479442Y-22848626D01*
X20523834Y-22862092D01*
X20570000Y-22866639D01*
X21607907Y-22866639D01*
X23014500Y-24273233D01*
X23014501Y-25968787D01*
X23011427Y-26000000D01*
X23023696Y-26124579D01*
X23060035Y-26244371D01*
X23117914Y-26352656D01*
X23119046Y-26354773D01*
X23198461Y-26451540D01*
X23222708Y-26471439D01*
X23664500Y-26913232D01*
X23664500Y-31800000D01*
X23682426Y-31890122D01*
X23733476Y-31966524D01*
X23809878Y-32017574D01*
X23900000Y-32035500D01*
X28100000Y-32035500D01*
X28190122Y-32017574D01*
X28266524Y-31966524D01*
X28317574Y-31890122D01*
X28335500Y-31800000D01*
X28335500Y-29338461D01*
X28369885Y-29380360D01*
X28381867Y-29390193D01*
X29672796Y-30681123D01*
X29682630Y-30693106D01*
X29730443Y-30732344D01*
X29784992Y-30761502D01*
X29844181Y-30779456D01*
X29890314Y-30784000D01*
X29890316Y-30784000D01*
X29896152Y-30784575D01*
X29914050Y-30811361D01*
X29988639Y-30885950D01*
X30076346Y-30944554D01*
X30173800Y-30984921D01*
X30277258Y-31005500D01*
X30382742Y-31005500D01*
X30486200Y-30984921D01*
X30583654Y-30944554D01*
X30671361Y-30885950D01*
X30745950Y-30811361D01*
X30804554Y-30723654D01*
X30844921Y-30626200D01*
X30865500Y-30522742D01*
X30865500Y-30417258D01*
X30844921Y-30313800D01*
X30804554Y-30216346D01*
X30745950Y-30128639D01*
X30671361Y-30054050D01*
X30583654Y-29995446D01*
X30486200Y-29955079D01*
X30382742Y-29934500D01*
X30277258Y-29934500D01*
X30173800Y-29955079D01*
X30076346Y-29995446D01*
X29988639Y-30054050D01*
X29961244Y-30081445D01*
X29815299Y-29935500D01*
X29827742Y-29935500D01*
X29931200Y-29914921D01*
X30028654Y-29874554D01*
X30116361Y-29815950D01*
X30190950Y-29741361D01*
X30194866Y-29735500D01*
X30511032Y-29735500D01*
X34551109Y-33775577D01*
X34561618Y-33788382D01*
X34612704Y-33830308D01*
X34670989Y-33861461D01*
X34709378Y-33873106D01*
X34734230Y-33880645D01*
X34740529Y-33881265D01*
X34783522Y-33885500D01*
X34783529Y-33885500D01*
X34799999Y-33887122D01*
X34816469Y-33885500D01*
X35581032Y-33885500D01*
X35611323Y-33915791D01*
X35638613Y-33981675D01*
X35697217Y-34069382D01*
X35771806Y-34143971D01*
X35859513Y-34202575D01*
X35956967Y-34242942D01*
X36060425Y-34263521D01*
X36165909Y-34263521D01*
X36269367Y-34242942D01*
X36366821Y-34202575D01*
X36454528Y-34143971D01*
X36529117Y-34069382D01*
X36587721Y-33981675D01*
X36628088Y-33884221D01*
X36648667Y-33780763D01*
X36648667Y-33703094D01*
X36665846Y-33706511D01*
X36771330Y-33706511D01*
X36874788Y-33685932D01*
X36972242Y-33645565D01*
X37059949Y-33586961D01*
X37134538Y-33512372D01*
X37193142Y-33424665D01*
X37233509Y-33327211D01*
X37254088Y-33223753D01*
X37254088Y-33118269D01*
X37233509Y-33014811D01*
X37193142Y-32917357D01*
X37134538Y-32829650D01*
X37059949Y-32755061D01*
X36972242Y-32696457D01*
X36874788Y-32656090D01*
X36771330Y-32635511D01*
X36665846Y-32635511D01*
X36562388Y-32656090D01*
X36464934Y-32696457D01*
X36377227Y-32755061D01*
X36302638Y-32829650D01*
X36298722Y-32835511D01*
X35064868Y-32835511D01*
X33023125Y-30793768D01*
X33093654Y-30764554D01*
X33181361Y-30705950D01*
X33255950Y-30631361D01*
X33314554Y-30543654D01*
X33354921Y-30446200D01*
X33375500Y-30342742D01*
X33375500Y-30237258D01*
X33354921Y-30133800D01*
X33314554Y-30036346D01*
X33255950Y-29948639D01*
X33181361Y-29874050D01*
X33093654Y-29815446D01*
X32996200Y-29775079D01*
X32892742Y-29754500D01*
X32787258Y-29754500D01*
X32780344Y-29755875D01*
X32685500Y-29661032D01*
X32685500Y-28223826D01*
X36702796Y-32241123D01*
X36712630Y-32253106D01*
X36760443Y-32292344D01*
X36814992Y-32321502D01*
X36874181Y-32339456D01*
X36920314Y-32344000D01*
X36920316Y-32344000D01*
X36926152Y-32344575D01*
X36944050Y-32371361D01*
X37018639Y-32445950D01*
X37106346Y-32504554D01*
X37203800Y-32544921D01*
X37307258Y-32565500D01*
X37412742Y-32565500D01*
X37516200Y-32544921D01*
X37613654Y-32504554D01*
X37701361Y-32445950D01*
X37706679Y-32440632D01*
X37773175Y-32507128D01*
X37860882Y-32565732D01*
X37958336Y-32606099D01*
X38061794Y-32626678D01*
X38167278Y-32626678D01*
X38270736Y-32606099D01*
X38368190Y-32565732D01*
X38455897Y-32507128D01*
X38530486Y-32432539D01*
X38589090Y-32344832D01*
X38629457Y-32247378D01*
X38650036Y-32143920D01*
X38650036Y-32038436D01*
X38629457Y-31934978D01*
X38589090Y-31837524D01*
X38530486Y-31749817D01*
X38455897Y-31675228D01*
X38429111Y-31657330D01*
X38423992Y-31605359D01*
X38406038Y-31546170D01*
X38376880Y-31491621D01*
X38364410Y-31476426D01*
X38337642Y-31443808D01*
X38325660Y-31433975D01*
X38055064Y-31163380D01*
X38045226Y-31151392D01*
X37997413Y-31112154D01*
X37942864Y-31082996D01*
X37883675Y-31065042D01*
X37837542Y-31060498D01*
X37837541Y-31060498D01*
X37822120Y-31058979D01*
X37806699Y-31060498D01*
X37060297Y-31060498D01*
X37013725Y-31013926D01*
X37083941Y-30984841D01*
X37171648Y-30926237D01*
X37246237Y-30851648D01*
X37304841Y-30763941D01*
X37345208Y-30666487D01*
X37365787Y-30563029D01*
X37365787Y-30457545D01*
X37345208Y-30354087D01*
X37304841Y-30256633D01*
X37246237Y-30168926D01*
X37171648Y-30094337D01*
X37083941Y-30035733D01*
X36986487Y-29995366D01*
X36883029Y-29974787D01*
X36777545Y-29974787D01*
X36745270Y-29981207D01*
X36328007Y-29563945D01*
X36328007Y-29336654D01*
X36355368Y-29318372D01*
X36429957Y-29243783D01*
X36488561Y-29156076D01*
X36528928Y-29058622D01*
X36549507Y-28955164D01*
X36549507Y-28849680D01*
X36528928Y-28746222D01*
X36488561Y-28648768D01*
X36429957Y-28561061D01*
X36355368Y-28486472D01*
X36267661Y-28427868D01*
X36170207Y-28387501D01*
X36066749Y-28366922D01*
X35961265Y-28366922D01*
X35857807Y-28387501D01*
X35760353Y-28427868D01*
X35672646Y-28486472D01*
X35598057Y-28561061D01*
X35568030Y-28606000D01*
X35210063Y-28606000D01*
X34014000Y-27409938D01*
X34014000Y-26820062D01*
X34098562Y-26735500D01*
X34122742Y-26735500D01*
X34226200Y-26714921D01*
X34323654Y-26674554D01*
X34411361Y-26615950D01*
X34485950Y-26541361D01*
X34544554Y-26453654D01*
X34584921Y-26356200D01*
X34605500Y-26252742D01*
X34605500Y-26147258D01*
X34584921Y-26043800D01*
X34544554Y-25946346D01*
X34485950Y-25858639D01*
X34411361Y-25784050D01*
X34323654Y-25725446D01*
X34226200Y-25685079D01*
X34122742Y-25664500D01*
X34017258Y-25664500D01*
X33913800Y-25685079D01*
X33816346Y-25725446D01*
X33728639Y-25784050D01*
X33654050Y-25858639D01*
X33626066Y-25900520D01*
X33610864Y-25885318D01*
X33523157Y-25826714D01*
X33425703Y-25786347D01*
X33322245Y-25765768D01*
X33216761Y-25765768D01*
X33113303Y-25786347D01*
X33015849Y-25826714D01*
X32928142Y-25885318D01*
X32853553Y-25959907D01*
X32794949Y-26047614D01*
X32754582Y-26145068D01*
X32734003Y-26248526D01*
X32734003Y-26264500D01*
X32647258Y-26264500D01*
X32543800Y-26285079D01*
X32446346Y-26325446D01*
X32358639Y-26384050D01*
X32284050Y-26458639D01*
X32225446Y-26546346D01*
X32185079Y-26643800D01*
X32164500Y-26747258D01*
X32164500Y-26830032D01*
X32125500Y-26791032D01*
X32125500Y-25535499D01*
X37025878Y-25535499D01*
X36975281Y-25611222D01*
X36934914Y-25708676D01*
X36914335Y-25812134D01*
X36914335Y-25917618D01*
X36920755Y-25949893D01*
X35881892Y-26988757D01*
X35553004Y-26988757D01*
X35534722Y-26961396D01*
X35460133Y-26886807D01*
X35372426Y-26828203D01*
X35274972Y-26787836D01*
X35171514Y-26767257D01*
X35066030Y-26767257D01*
X34962572Y-26787836D01*
X34865118Y-26828203D01*
X34777411Y-26886807D01*
X34702822Y-26961396D01*
X34644218Y-27049103D01*
X34603851Y-27146557D01*
X34583272Y-27250015D01*
X34583272Y-27355499D01*
X34603851Y-27458957D01*
X34644218Y-27556411D01*
X34702822Y-27644118D01*
X34777411Y-27718707D01*
X34865118Y-27777311D01*
X34962572Y-27817678D01*
X35066030Y-27838257D01*
X35171514Y-27838257D01*
X35274972Y-27817678D01*
X35372426Y-27777311D01*
X35460133Y-27718707D01*
X35534722Y-27644118D01*
X35553004Y-27616757D01*
X35996533Y-27616757D01*
X36011954Y-27618276D01*
X36027375Y-27616757D01*
X36027376Y-27616757D01*
X36073509Y-27612213D01*
X36132698Y-27594259D01*
X36187247Y-27565101D01*
X36235060Y-27525863D01*
X36244898Y-27513875D01*
X37364818Y-26393956D01*
X37397093Y-26400376D01*
X37502577Y-26400376D01*
X37606035Y-26379797D01*
X37703489Y-26339430D01*
X37791196Y-26280826D01*
X37865785Y-26206237D01*
X37924389Y-26118530D01*
X37964756Y-26021076D01*
X37985335Y-25917618D01*
X37985335Y-25812134D01*
X37964756Y-25708676D01*
X37924389Y-25611222D01*
X37873792Y-25535499D01*
X47723696Y-25535499D01*
X47750001Y-25538090D01*
X47776306Y-25535499D01*
X47776308Y-25535499D01*
X47854977Y-25527751D01*
X47955920Y-25497130D01*
X48048948Y-25447405D01*
X48130489Y-25380487D01*
X48147265Y-25360045D01*
X48341358Y-25165952D01*
X48341361Y-25165950D01*
X48415952Y-25091359D01*
X48947257Y-24560055D01*
X48947262Y-24560049D01*
X48965950Y-24541361D01*
X48980635Y-24519384D01*
X48997405Y-24498949D01*
X49009866Y-24475635D01*
X49024554Y-24453654D01*
X49034670Y-24429231D01*
X49047131Y-24405919D01*
X49054803Y-24380628D01*
X49064921Y-24356200D01*
X49070081Y-24330261D01*
X49077750Y-24304977D01*
X49080340Y-24278684D01*
X49085500Y-24252742D01*
X49085500Y-24226296D01*
X49088090Y-24200001D01*
X49085500Y-24173706D01*
X49085500Y-24147258D01*
X49080340Y-24121315D01*
X49077750Y-24095024D01*
X49070081Y-24069743D01*
X49064921Y-24043800D01*
X49054801Y-24019368D01*
X49047131Y-23994083D01*
X49034674Y-23970778D01*
X49024554Y-23946346D01*
X49009861Y-23924357D01*
X48997405Y-23901053D01*
X48980642Y-23880627D01*
X48965950Y-23858639D01*
X48947251Y-23839940D01*
X48930487Y-23819513D01*
X48910060Y-23802749D01*
X48891361Y-23784050D01*
X48869373Y-23769358D01*
X48848947Y-23752595D01*
X48825643Y-23740139D01*
X48803654Y-23725446D01*
X48779222Y-23715326D01*
X48755917Y-23702869D01*
X48730632Y-23695199D01*
X48706200Y-23685079D01*
X48680257Y-23679919D01*
X48654976Y-23672250D01*
X48628685Y-23669660D01*
X48602742Y-23664500D01*
X48576294Y-23664500D01*
X48549999Y-23661910D01*
X48523704Y-23664500D01*
X48497258Y-23664500D01*
X48471316Y-23669660D01*
X48445023Y-23672250D01*
X48419739Y-23679919D01*
X48393800Y-23685079D01*
X48369372Y-23695197D01*
X48344081Y-23702869D01*
X48320769Y-23715330D01*
X48296346Y-23725446D01*
X48274365Y-23740134D01*
X48251051Y-23752595D01*
X48230616Y-23769365D01*
X48208639Y-23784050D01*
X48189951Y-23802738D01*
X48189945Y-23802743D01*
X47658641Y-24334048D01*
X47584050Y-24408639D01*
X47584048Y-24408642D01*
X47528191Y-24464499D01*
X27566304Y-24464499D01*
X27539999Y-24461908D01*
X27513694Y-24464499D01*
X27513693Y-24464499D01*
X27435024Y-24472247D01*
X27355581Y-24496346D01*
X27334081Y-24502868D01*
X27241052Y-24552593D01*
X27190841Y-24593800D01*
X27159512Y-24619511D01*
X27142744Y-24639943D01*
X26618188Y-25164500D01*
X25145129Y-25164500D01*
X25088491Y-25141040D01*
X24980203Y-25119500D01*
X24869795Y-25119500D01*
X24761507Y-25141040D01*
X24704869Y-25164500D01*
X24285500Y-25164500D01*
X24285500Y-24768046D01*
X24288316Y-24774240D01*
X24402440Y-24884476D01*
X24535877Y-24970329D01*
X24683499Y-25028500D01*
X25233499Y-25028500D01*
X25233499Y-24471500D01*
X25676499Y-24471500D01*
X25676499Y-25028500D01*
X26226499Y-25028500D01*
X26374121Y-24970329D01*
X26507558Y-24884476D01*
X26621682Y-24774240D01*
X26707484Y-24585524D01*
X26678380Y-24471500D01*
X25676499Y-24471500D01*
X25233499Y-24471500D01*
X25213499Y-24471500D01*
X25213499Y-24028500D01*
X25233499Y-24028500D01*
X25233499Y-23471500D01*
X25676499Y-23471500D01*
X25676499Y-24028500D01*
X26678380Y-24028500D01*
X26707484Y-23914476D01*
X26621682Y-23725760D01*
X26507558Y-23615524D01*
X26374121Y-23529671D01*
X26226499Y-23471500D01*
X25676499Y-23471500D01*
X25233499Y-23471500D01*
X24683499Y-23471500D01*
X24535877Y-23529671D01*
X24402440Y-23615524D01*
X24288316Y-23725760D01*
X24252061Y-23805501D01*
X24239965Y-23765628D01*
X24180955Y-23655227D01*
X24101540Y-23558460D01*
X24077299Y-23538566D01*
X22506639Y-21967907D01*
X22506639Y-20930000D01*
X22502092Y-20883834D01*
X22488626Y-20839442D01*
X22466758Y-20798530D01*
X22437329Y-20762671D01*
X22401470Y-20733242D01*
X22360558Y-20711374D01*
X22316166Y-20697908D01*
X22270000Y-20693361D01*
X20570000Y-20693361D01*
X20523834Y-20697908D01*
X20479442Y-20711374D01*
X20438530Y-20733242D01*
X20402671Y-20762671D01*
X20373242Y-20798530D01*
X20351374Y-20839442D01*
X20337908Y-20883834D01*
X20333361Y-20930000D01*
X20260500Y-20930000D01*
X20260500Y-20112740D01*
X20262478Y-20092568D01*
X20264634Y-20085427D01*
X20268139Y-20078835D01*
X20272861Y-20073045D01*
X20278608Y-20068290D01*
X20285179Y-20064738D01*
X20292311Y-20062530D01*
X20311624Y-20060500D01*
X22709686Y-20060500D01*
X22682671Y-20082671D01*
X22682671Y-20082671D01*
G37*
X22682671Y-20082671D02*
X22653242Y-20118530D01*
X22631374Y-20159442D01*
X22617908Y-20203834D01*
X22613361Y-20250000D01*
X22613361Y-21950000D01*
X22617908Y-21996166D01*
X22631374Y-22040558D01*
X22653242Y-22081470D01*
X22682671Y-22117329D01*
X22718530Y-22146758D01*
X22759442Y-22168626D01*
X22803834Y-22182092D01*
X22850000Y-22186639D01*
X24550000Y-22186639D01*
X24596166Y-22182092D01*
X24640558Y-22168626D01*
X24681470Y-22146758D01*
X24717329Y-22117329D01*
X24746758Y-22081470D01*
X24768626Y-22040558D01*
X24782092Y-21996166D01*
X24786639Y-21950000D01*
X24786639Y-20250000D01*
X24782092Y-20203834D01*
X24768626Y-20159442D01*
X24746758Y-20118530D01*
X24717329Y-20082671D01*
X24690314Y-20060500D01*
X25927340Y-20060500D01*
X25822587Y-20092277D01*
X25634011Y-20193073D01*
X25468722Y-20328722D01*
X25333073Y-20494011D01*
X25232277Y-20682587D01*
X25170206Y-20887205D01*
X25149248Y-21100000D01*
X25170206Y-21312795D01*
X25232277Y-21517413D01*
X25333073Y-21705989D01*
X25468722Y-21871278D01*
X25634011Y-22006927D01*
X25822587Y-22107723D01*
X26027205Y-22169794D01*
X26186674Y-22185500D01*
X26293326Y-22185500D01*
X26452795Y-22169794D01*
X26657413Y-22107723D01*
X26845989Y-22006927D01*
X27011278Y-21871278D01*
X27146927Y-21705989D01*
X27247723Y-21517413D01*
X27309794Y-21312795D01*
X27330752Y-21100000D01*
X27309794Y-20887205D01*
X27247723Y-20682587D01*
X27146927Y-20494011D01*
X27011278Y-20328722D01*
X26845989Y-20193073D01*
X26657413Y-20092277D01*
X26552660Y-20060500D01*
X28467340Y-20060500D01*
X28362587Y-20092277D01*
X28174011Y-20193073D01*
X28008722Y-20328722D01*
X27873073Y-20494011D01*
X27772277Y-20682587D01*
X27710206Y-20887205D01*
X27689248Y-21100000D01*
X27710206Y-21312795D01*
X27772277Y-21517413D01*
X27873073Y-21705989D01*
X28008722Y-21871278D01*
X28174011Y-22006927D01*
X28362587Y-22107723D01*
X28567205Y-22169794D01*
X28726674Y-22185500D01*
X28833326Y-22185500D01*
X28992795Y-22169794D01*
X29197413Y-22107723D01*
X29292718Y-22056781D01*
X29697060Y-22461123D01*
X29706894Y-22473106D01*
X29754707Y-22512344D01*
X29809256Y-22541502D01*
X29868445Y-22559456D01*
X29930000Y-22565519D01*
X29945421Y-22564000D01*
X32184579Y-22564000D01*
X32200000Y-22565519D01*
X32215421Y-22564000D01*
X32215422Y-22564000D01*
X32261555Y-22559456D01*
X32320744Y-22541502D01*
X32375293Y-22512344D01*
X32423106Y-22473106D01*
X32432944Y-22461118D01*
X32534982Y-22359080D01*
X32567258Y-22365500D01*
X32672742Y-22365500D01*
X32776200Y-22344921D01*
X32873654Y-22304554D01*
X32961361Y-22245950D01*
X33035950Y-22171361D01*
X33094554Y-22083654D01*
X33134921Y-21986200D01*
X33148089Y-21919999D01*
X33254011Y-22006927D01*
X33442587Y-22107723D01*
X33647205Y-22169794D01*
X33806674Y-22185500D01*
X33913326Y-22185500D01*
X34072795Y-22169794D01*
X34277413Y-22107723D01*
X34465989Y-22006927D01*
X34631278Y-21871278D01*
X34766927Y-21705989D01*
X34867723Y-21517413D01*
X34929794Y-21312795D01*
X34950752Y-21100000D01*
X34929794Y-20887205D01*
X34867723Y-20682587D01*
X34766927Y-20494011D01*
X34631278Y-20328722D01*
X34465989Y-20193073D01*
X34277413Y-20092277D01*
X34172660Y-20060500D01*
X36087340Y-20060500D01*
X35982587Y-20092277D01*
X35794011Y-20193073D01*
X35628722Y-20328722D01*
X35493073Y-20494011D01*
X35392277Y-20682587D01*
X35330206Y-20887205D01*
X35309248Y-21100000D01*
X35330206Y-21312795D01*
X35392277Y-21517413D01*
X35493073Y-21705989D01*
X35628722Y-21871278D01*
X35794011Y-22006927D01*
X35982587Y-22107723D01*
X36187205Y-22169794D01*
X36346674Y-22185500D01*
X36453326Y-22185500D01*
X36612795Y-22169794D01*
X36817413Y-22107723D01*
X37005989Y-22006927D01*
X37171278Y-21871278D01*
X37306927Y-21705989D01*
X37407723Y-21517413D01*
X37469794Y-21312795D01*
X37490752Y-21100000D01*
X37469794Y-20887205D01*
X37407723Y-20682587D01*
X37306927Y-20494011D01*
X37171278Y-20328722D01*
X37005989Y-20193073D01*
X36817413Y-20092277D01*
X36712660Y-20060500D01*
X38627340Y-20060500D01*
X38522587Y-20092277D01*
X38334011Y-20193073D01*
X38168722Y-20328722D01*
X38033073Y-20494011D01*
X37932277Y-20682587D01*
X37870206Y-20887205D01*
X37849248Y-21100000D01*
X37870206Y-21312795D01*
X37932277Y-21517413D01*
X38033073Y-21705989D01*
X38168722Y-21871278D01*
X38334011Y-22006927D01*
X38522587Y-22107723D01*
X38727205Y-22169794D01*
X38886674Y-22185500D01*
X38993326Y-22185500D01*
X39152795Y-22169794D01*
X39357413Y-22107723D01*
X39545989Y-22006927D01*
X39711278Y-21871278D01*
X39846927Y-21705989D01*
X39947723Y-21517413D01*
X40009794Y-21312795D01*
X40030752Y-21100000D01*
X40009794Y-20887205D01*
X39947723Y-20682587D01*
X39846927Y-20494011D01*
X39711278Y-20328722D01*
X39545989Y-20193073D01*
X39357413Y-20092277D01*
X39252660Y-20060500D01*
X41167340Y-20060500D01*
X41062587Y-20092277D01*
X40874011Y-20193073D01*
X40708722Y-20328722D01*
X40573073Y-20494011D01*
X40472277Y-20682587D01*
X40410206Y-20887205D01*
X40389248Y-21100000D01*
X40410206Y-21312795D01*
X40472277Y-21517413D01*
X40573073Y-21705989D01*
X40708722Y-21871278D01*
X40874011Y-22006927D01*
X41062587Y-22107723D01*
X41267205Y-22169794D01*
X41426674Y-22185500D01*
X41533326Y-22185500D01*
X41692795Y-22169794D01*
X41897413Y-22107723D01*
X42085989Y-22006927D01*
X42251278Y-21871278D01*
X42386927Y-21705989D01*
X42487723Y-21517413D01*
X42549794Y-21312795D01*
X42570752Y-21100000D01*
X42549794Y-20887205D01*
X42487723Y-20682587D01*
X42386927Y-20494011D01*
X42251278Y-20328722D01*
X42085989Y-20193073D01*
X41897413Y-20092277D01*
X41792660Y-20060500D01*
X43707340Y-20060500D01*
X43602587Y-20092277D01*
X43414011Y-20193073D01*
X43248722Y-20328722D01*
X43113073Y-20494011D01*
X43012277Y-20682587D01*
X42950206Y-20887205D01*
X42929248Y-21100000D01*
X42950206Y-21312795D01*
X43012277Y-21517413D01*
X43113073Y-21705989D01*
X43248722Y-21871278D01*
X43414011Y-22006927D01*
X43602587Y-22107723D01*
X43807205Y-22169794D01*
X43966674Y-22185500D01*
X44073326Y-22185500D01*
X44232795Y-22169794D01*
X44437413Y-22107723D01*
X44625989Y-22006927D01*
X44791278Y-21871278D01*
X44926927Y-21705989D01*
X45027723Y-21517413D01*
X45089794Y-21312795D01*
X45110752Y-21100000D01*
X45089794Y-20887205D01*
X45027723Y-20682587D01*
X44926927Y-20494011D01*
X44791278Y-20328722D01*
X44625989Y-20193073D01*
X44437413Y-20092277D01*
X44332660Y-20060500D01*
X46247340Y-20060500D01*
X46142587Y-20092277D01*
X45954011Y-20193073D01*
X45788722Y-20328722D01*
X45653073Y-20494011D01*
X45552277Y-20682587D01*
X45490206Y-20887205D01*
X45469248Y-21100000D01*
X45490206Y-21312795D01*
X45552277Y-21517413D01*
X45653073Y-21705989D01*
X45788722Y-21871278D01*
X45954011Y-22006927D01*
X46142587Y-22107723D01*
X46347205Y-22169794D01*
X46506674Y-22185500D01*
X46613326Y-22185500D01*
X46772795Y-22169794D01*
X46977413Y-22107723D01*
X47165989Y-22006927D01*
X47331278Y-21871278D01*
X47466927Y-21705989D01*
X47567723Y-21517413D01*
X47629794Y-21312795D01*
X47650752Y-21100000D01*
X47629794Y-20887205D01*
X47567723Y-20682587D01*
X47466927Y-20494011D01*
X47331278Y-20328722D01*
X47165989Y-20193073D01*
X46977413Y-20092277D01*
X46872660Y-20060500D01*
X48787340Y-20060500D01*
X48682587Y-20092277D01*
X48494011Y-20193073D01*
X48328722Y-20328722D01*
X48193073Y-20494011D01*
X48092277Y-20682587D01*
X48030206Y-20887205D01*
X48009248Y-21100000D01*
X48030206Y-21312795D01*
X48092277Y-21517413D01*
X48193073Y-21705989D01*
X48328722Y-21871278D01*
X48494011Y-22006927D01*
X48682587Y-22107723D01*
X48887205Y-22169794D01*
X49046674Y-22185500D01*
X49153326Y-22185500D01*
X49312795Y-22169794D01*
X49517413Y-22107723D01*
X49705989Y-22006927D01*
X49871278Y-21871278D01*
X50006927Y-21705989D01*
X50107723Y-21517413D01*
X50115469Y-21491877D01*
X50581714Y-21491877D01*
X50678500Y-21690809D01*
X50812236Y-21867036D01*
X50977783Y-22013786D01*
X51168778Y-22125420D01*
X51248125Y-22158275D01*
X51418500Y-22135449D01*
X51418500Y-21321500D01*
X51861500Y-21321500D01*
X51861500Y-22135449D01*
X52031875Y-22158275D01*
X52111222Y-22125420D01*
X52302217Y-22013786D01*
X52467764Y-21867036D01*
X52601500Y-21690809D01*
X52698286Y-21491877D01*
X52676935Y-21321500D01*
X51861500Y-21321500D01*
X51418500Y-21321500D01*
X50603065Y-21321500D01*
X50581714Y-21491877D01*
X50115469Y-21491877D01*
X50169794Y-21312795D01*
X50190752Y-21100000D01*
X50169794Y-20887205D01*
X50107723Y-20682587D01*
X50006927Y-20494011D01*
X49871278Y-20328722D01*
X49705989Y-20193073D01*
X49517413Y-20092277D01*
X49412660Y-20060500D01*
X51202782Y-20060500D01*
X51168778Y-20074580D01*
X50977783Y-20186214D01*
X50812236Y-20332964D01*
X50678500Y-20509191D01*
X50581714Y-20708123D01*
X50603065Y-20878500D01*
X51418500Y-20878500D01*
X51418500Y-20858500D01*
X51861500Y-20858500D01*
X51861500Y-20878500D01*
X52676935Y-20878500D01*
X52698286Y-20708123D01*
X52601500Y-20509191D01*
X52467764Y-20332964D01*
X52302217Y-20186214D01*
X52111222Y-20074580D01*
X52077218Y-20060500D01*
X53867340Y-20060500D01*
X53762587Y-20092277D01*
X53574011Y-20193073D01*
X53408722Y-20328722D01*
X53273073Y-20494011D01*
X53172277Y-20682587D01*
X53110206Y-20887205D01*
X53089248Y-21100000D01*
X53110206Y-21312795D01*
X53172277Y-21517413D01*
X53273073Y-21705989D01*
X53408722Y-21871278D01*
X53574011Y-22006927D01*
X53762587Y-22107723D01*
X53967205Y-22169794D01*
X54126674Y-22185500D01*
X54233326Y-22185500D01*
X54392795Y-22169794D01*
X54597413Y-22107723D01*
X54785989Y-22006927D01*
X54951278Y-21871278D01*
X55086927Y-21705989D01*
X55187723Y-21517413D01*
X55249794Y-21312795D01*
X55270752Y-21100000D01*
X55249794Y-20887205D01*
X55187723Y-20682587D01*
X55086927Y-20494011D01*
X54951278Y-20328722D01*
X54785989Y-20193073D01*
X54597413Y-20092277D01*
X54492660Y-20060500D01*
X56407340Y-20060500D01*
X56302587Y-20092277D01*
X56114011Y-20193073D01*
X55948722Y-20328722D01*
X55813073Y-20494011D01*
X55712277Y-20682587D01*
X55650206Y-20887205D01*
X55629248Y-21100000D01*
X55650206Y-21312795D01*
X55712277Y-21517413D01*
X55813073Y-21705989D01*
X55948722Y-21871278D01*
X56114011Y-22006927D01*
X56302587Y-22107723D01*
X56507205Y-22169794D01*
X56666674Y-22185500D01*
X56773326Y-22185500D01*
X56932795Y-22169794D01*
X57086000Y-22123319D01*
X57086001Y-24319936D01*
X55459938Y-25946000D01*
X51211286Y-25946000D01*
X51211361Y-25945950D01*
X51285950Y-25871361D01*
X51344554Y-25783654D01*
X51384921Y-25686200D01*
X51405500Y-25582742D01*
X51405500Y-25477258D01*
X51384921Y-25373800D01*
X51344554Y-25276346D01*
X51285950Y-25188639D01*
X51211361Y-25114050D01*
X51184000Y-25095768D01*
X51184000Y-24790062D01*
X52894983Y-23079080D01*
X52927258Y-23085500D01*
X53032742Y-23085500D01*
X53136200Y-23064921D01*
X53233654Y-23024554D01*
X53321361Y-22965950D01*
X53395950Y-22891361D01*
X53454554Y-22803654D01*
X53494921Y-22706200D01*
X53515500Y-22602742D01*
X53515500Y-22497258D01*
X53494921Y-22393800D01*
X53454554Y-22296346D01*
X53395950Y-22208639D01*
X53321361Y-22134050D01*
X53233654Y-22075446D01*
X53136200Y-22035079D01*
X53032742Y-22014500D01*
X52927258Y-22014500D01*
X52823800Y-22035079D01*
X52726346Y-22075446D01*
X52638639Y-22134050D01*
X52564050Y-22208639D01*
X52505446Y-22296346D01*
X52465079Y-22393800D01*
X52444500Y-22497258D01*
X52444500Y-22602742D01*
X52450920Y-22635017D01*
X50658882Y-24427056D01*
X50646894Y-24436894D01*
X50607656Y-24484708D01*
X50578498Y-24539257D01*
X50564464Y-24585524D01*
X50560544Y-24598446D01*
X50554481Y-24660000D01*
X50556000Y-24675422D01*
X50556001Y-25095768D01*
X50528639Y-25114050D01*
X50454050Y-25188639D01*
X50395446Y-25276346D01*
X50355079Y-25373800D01*
X50334500Y-25477258D01*
X50334500Y-25582742D01*
X50355079Y-25686200D01*
X50395446Y-25783654D01*
X50454050Y-25871361D01*
X50528639Y-25945950D01*
X50528714Y-25946000D01*
X45605418Y-25946000D01*
X45589999Y-25944481D01*
X45574580Y-25946000D01*
X45574578Y-25946000D01*
X45528445Y-25950544D01*
X45469256Y-25968498D01*
X45414707Y-25997656D01*
X45366894Y-26036894D01*
X45357063Y-26048874D01*
X42005439Y-29400499D01*
X40808380Y-29400499D01*
X40792959Y-29398980D01*
X40731404Y-29405043D01*
X40672214Y-29422997D01*
X40631749Y-29444627D01*
X40617666Y-29452155D01*
X40569853Y-29491393D01*
X40560022Y-29503373D01*
X40303381Y-29760015D01*
X40291393Y-29769853D01*
X40252155Y-29817667D01*
X40222997Y-29872216D01*
X40205769Y-29929011D01*
X40205043Y-29931405D01*
X40198980Y-29992959D01*
X40200499Y-30008381D01*
X40200500Y-30662126D01*
X40198980Y-30677557D01*
X40205043Y-30739111D01*
X40222998Y-30798301D01*
X40250396Y-30849557D01*
X40252156Y-30852850D01*
X40291394Y-30900663D01*
X40303377Y-30910497D01*
X40344160Y-30951280D01*
X40337740Y-30983556D01*
X40337740Y-31089040D01*
X40358319Y-31192498D01*
X40398686Y-31289952D01*
X40457290Y-31377659D01*
X40531879Y-31452248D01*
X40619586Y-31510852D01*
X40717040Y-31551219D01*
X40820498Y-31571798D01*
X40925982Y-31571798D01*
X41029440Y-31551219D01*
X41126894Y-31510852D01*
X41214601Y-31452248D01*
X41289190Y-31377659D01*
X41347794Y-31289952D01*
X41355565Y-31271191D01*
X41432175Y-31302924D01*
X41535633Y-31323503D01*
X41641117Y-31323503D01*
X41744575Y-31302924D01*
X41842029Y-31262557D01*
X41929736Y-31203953D01*
X42004325Y-31129364D01*
X42029186Y-31092157D01*
X42070897Y-31079505D01*
X42125446Y-31050347D01*
X42173259Y-31011109D01*
X42183097Y-30999121D01*
X42882790Y-30299428D01*
X42882791Y-31361206D01*
X42882790Y-31361216D01*
X42882790Y-31366669D01*
X42855429Y-31384951D01*
X42780840Y-31459540D01*
X42722236Y-31547247D01*
X42681869Y-31644701D01*
X42661290Y-31748159D01*
X42661290Y-31853643D01*
X42681869Y-31957101D01*
X42722236Y-32054555D01*
X42780840Y-32142262D01*
X42855429Y-32216851D01*
X42943136Y-32275455D01*
X43040590Y-32315822D01*
X43144048Y-32336401D01*
X43249532Y-32336401D01*
X43352990Y-32315822D01*
X43450444Y-32275455D01*
X43538151Y-32216851D01*
X43573843Y-32181159D01*
X43573843Y-32629420D01*
X42797540Y-33405724D01*
X42797535Y-33405728D01*
X42793680Y-33409583D01*
X42761405Y-33403163D01*
X42655921Y-33403163D01*
X42552463Y-33423742D01*
X42455009Y-33464109D01*
X42367302Y-33522713D01*
X42292713Y-33597302D01*
X42234109Y-33685009D01*
X42193742Y-33782463D01*
X42173163Y-33885921D01*
X42173163Y-33991405D01*
X42193742Y-34094863D01*
X42234109Y-34192317D01*
X42292713Y-34280024D01*
X42367302Y-34354613D01*
X42455009Y-34413217D01*
X42552463Y-34453584D01*
X42655921Y-34474163D01*
X42703043Y-34474163D01*
X42703043Y-34532048D01*
X42723622Y-34635506D01*
X42763989Y-34732960D01*
X42822593Y-34820667D01*
X42897182Y-34895256D01*
X42984889Y-34953860D01*
X43082343Y-34994227D01*
X43185801Y-35014806D01*
X43291285Y-35014806D01*
X43394743Y-34994227D01*
X43492197Y-34953860D01*
X43579904Y-34895256D01*
X43654493Y-34820667D01*
X43713097Y-34732960D01*
X43753464Y-34635506D01*
X43774043Y-34532048D01*
X43774043Y-34426564D01*
X43767623Y-34394289D01*
X43771478Y-34390434D01*
X43771482Y-34390429D01*
X44922251Y-33239661D01*
X44934234Y-33229827D01*
X44973472Y-33182014D01*
X45002630Y-33127465D01*
X45020584Y-33068276D01*
X45025128Y-33022143D01*
X45026647Y-33006722D01*
X45025128Y-32991300D01*
X45025128Y-31081217D01*
X45052489Y-31062935D01*
X45127078Y-30988346D01*
X45185682Y-30900639D01*
X45226049Y-30803185D01*
X45238840Y-30738879D01*
X45277258Y-30746521D01*
X45382742Y-30746521D01*
X45486200Y-30725942D01*
X45583654Y-30685575D01*
X45671361Y-30626971D01*
X45745950Y-30552382D01*
X45804554Y-30464675D01*
X45844921Y-30367221D01*
X45865500Y-30263763D01*
X45865500Y-30158279D01*
X45844921Y-30054821D01*
X45804554Y-29957367D01*
X45745950Y-29869660D01*
X45671361Y-29795071D01*
X45644000Y-29776789D01*
X45644000Y-29477258D01*
X51779500Y-29477258D01*
X51779500Y-29582742D01*
X51800079Y-29686200D01*
X51840446Y-29783654D01*
X51899050Y-29871361D01*
X51973639Y-29945950D01*
X52061346Y-30004554D01*
X52158800Y-30044921D01*
X52227746Y-30058635D01*
X54932539Y-32763429D01*
X54935079Y-32776200D01*
X54975446Y-32873654D01*
X55034050Y-32961361D01*
X55108639Y-33035950D01*
X55196346Y-33094554D01*
X55293800Y-33134921D01*
X55397258Y-33155500D01*
X55502742Y-33155500D01*
X55606200Y-33134921D01*
X55703654Y-33094554D01*
X55791361Y-33035950D01*
X55865950Y-32961361D01*
X55924554Y-32873654D01*
X55929433Y-32861875D01*
X58141725Y-32861875D01*
X58174580Y-32941222D01*
X58286214Y-33132217D01*
X58432964Y-33297764D01*
X58609191Y-33431500D01*
X58808123Y-33528286D01*
X58978500Y-33506935D01*
X58978500Y-32691500D01*
X59421500Y-32691500D01*
X59421500Y-33506935D01*
X59591877Y-33528286D01*
X59790809Y-33431500D01*
X59967036Y-33297764D01*
X60113786Y-33132217D01*
X60225420Y-32941222D01*
X60258275Y-32861875D01*
X60235449Y-32691500D01*
X59421500Y-32691500D01*
X58978500Y-32691500D01*
X58164551Y-32691500D01*
X58141725Y-32861875D01*
X55929433Y-32861875D01*
X55964921Y-32776200D01*
X55985500Y-32672742D01*
X55985500Y-32567258D01*
X55964921Y-32463800D01*
X55924554Y-32366346D01*
X55865950Y-32278639D01*
X55791361Y-32204050D01*
X55703654Y-32145446D01*
X55606200Y-32105079D01*
X55502742Y-32084500D01*
X55485390Y-32084500D01*
X55479015Y-32078125D01*
X58141725Y-32078125D01*
X58164551Y-32248500D01*
X58978500Y-32248500D01*
X58978500Y-31433065D01*
X59421500Y-31433065D01*
X59421500Y-32248500D01*
X60235449Y-32248500D01*
X60258275Y-32078125D01*
X60225420Y-31998778D01*
X60113786Y-31807783D01*
X59967036Y-31642236D01*
X59790809Y-31508500D01*
X59591877Y-31411714D01*
X59421500Y-31433065D01*
X58978500Y-31433065D01*
X58808123Y-31411714D01*
X58609191Y-31508500D01*
X58432964Y-31642236D01*
X58286214Y-31807783D01*
X58174580Y-31998778D01*
X58141725Y-32078125D01*
X55479015Y-32078125D01*
X52843635Y-29442746D01*
X52829921Y-29373800D01*
X52789554Y-29276346D01*
X52730950Y-29188639D01*
X52656361Y-29114050D01*
X52568654Y-29055446D01*
X52471200Y-29015079D01*
X52367742Y-28994500D01*
X52262258Y-28994500D01*
X52158800Y-29015079D01*
X52061346Y-29055446D01*
X51973639Y-29114050D01*
X51899050Y-29188639D01*
X51840446Y-29276346D01*
X51800079Y-29373800D01*
X51779500Y-29477258D01*
X45644000Y-29477258D01*
X45644000Y-28741430D01*
X45674769Y-28747550D01*
X45780253Y-28747550D01*
X45883711Y-28726971D01*
X45981165Y-28686604D01*
X46068872Y-28628000D01*
X46143461Y-28553411D01*
X46202065Y-28465704D01*
X46242432Y-28368250D01*
X46263011Y-28264792D01*
X46263011Y-28159308D01*
X46242432Y-28055850D01*
X46202065Y-27958396D01*
X46143461Y-27870689D01*
X46068872Y-27796100D01*
X45981165Y-27737496D01*
X45915854Y-27710443D01*
X46110264Y-27516033D01*
X56341971Y-27516033D01*
X58243219Y-29417282D01*
X58192277Y-29512587D01*
X58130206Y-29717205D01*
X58109248Y-29930000D01*
X58130206Y-30142795D01*
X58192277Y-30347413D01*
X58293073Y-30535989D01*
X58428722Y-30701278D01*
X58594011Y-30836927D01*
X58782587Y-30937723D01*
X58987205Y-30999794D01*
X59146674Y-31015500D01*
X59253326Y-31015500D01*
X59412795Y-30999794D01*
X59617413Y-30937723D01*
X59805989Y-30836927D01*
X59971278Y-30701278D01*
X60106927Y-30535989D01*
X60207723Y-30347413D01*
X60269794Y-30142795D01*
X60290752Y-29930000D01*
X60269794Y-29717205D01*
X60207723Y-29512587D01*
X60106927Y-29324011D01*
X59971278Y-29158722D01*
X59805989Y-29023073D01*
X59617413Y-28922277D01*
X59412795Y-28860206D01*
X59253326Y-28844500D01*
X59146674Y-28844500D01*
X58987205Y-28860206D01*
X58782587Y-28922277D01*
X58687282Y-28973219D01*
X56916084Y-27202022D01*
X57365879Y-27202022D01*
X57764979Y-27601123D01*
X57774813Y-27613106D01*
X57822626Y-27652344D01*
X57877175Y-27681502D01*
X57921707Y-27695010D01*
X57936364Y-27699456D01*
X57997918Y-27705519D01*
X58013340Y-27704000D01*
X58160907Y-27704000D01*
X58192277Y-27807413D01*
X58293073Y-27995989D01*
X58428722Y-28161278D01*
X58594011Y-28296927D01*
X58782587Y-28397723D01*
X58987205Y-28459794D01*
X59146674Y-28475500D01*
X59253326Y-28475500D01*
X59412795Y-28459794D01*
X59617413Y-28397723D01*
X59805989Y-28296927D01*
X59971278Y-28161278D01*
X60106927Y-27995989D01*
X60207723Y-27807413D01*
X60269794Y-27602795D01*
X60290752Y-27390000D01*
X60269794Y-27177205D01*
X60207723Y-26972587D01*
X60106927Y-26784011D01*
X59971278Y-26618722D01*
X59805989Y-26483073D01*
X59617413Y-26382277D01*
X59412795Y-26320206D01*
X59253326Y-26304500D01*
X59146674Y-26304500D01*
X58987205Y-26320206D01*
X58782587Y-26382277D01*
X58594011Y-26483073D01*
X58428722Y-26618722D01*
X58293073Y-26784011D01*
X58192277Y-26972587D01*
X58160907Y-27076000D01*
X58127982Y-27076000D01*
X57728885Y-26676904D01*
X57719047Y-26664916D01*
X57671234Y-26625678D01*
X57616685Y-26596520D01*
X57557496Y-26578566D01*
X57511363Y-26574022D01*
X57511362Y-26574022D01*
X57495941Y-26572503D01*
X57480520Y-26574022D01*
X56164118Y-26574022D01*
X57925138Y-24813003D01*
X57937115Y-24803174D01*
X57946946Y-24791195D01*
X57976354Y-24755361D01*
X58005511Y-24700813D01*
X58023465Y-24641623D01*
X58029529Y-24580069D01*
X58028009Y-24564640D01*
X58028009Y-24000000D01*
X58113361Y-24000000D01*
X58113361Y-25700000D01*
X58117908Y-25746166D01*
X58131374Y-25790558D01*
X58153242Y-25831470D01*
X58182671Y-25867329D01*
X58218530Y-25896758D01*
X58259442Y-25918626D01*
X58303834Y-25932092D01*
X58350000Y-25936639D01*
X60050000Y-25936639D01*
X60096166Y-25932092D01*
X60140558Y-25918626D01*
X60181470Y-25896758D01*
X60217329Y-25867329D01*
X60246758Y-25831470D01*
X60268626Y-25790558D01*
X60282092Y-25746166D01*
X60286639Y-25700000D01*
X60286639Y-24000000D01*
X60282092Y-23953834D01*
X60268626Y-23909442D01*
X60246758Y-23868530D01*
X60217329Y-23832671D01*
X60181470Y-23803242D01*
X60140558Y-23781374D01*
X60096166Y-23767908D01*
X60050000Y-23763361D01*
X58350000Y-23763361D01*
X58303834Y-23767908D01*
X58259442Y-23781374D01*
X58218530Y-23803242D01*
X58182671Y-23832671D01*
X58153242Y-23868530D01*
X58131374Y-23909442D01*
X58117908Y-23953834D01*
X58113361Y-24000000D01*
X58028009Y-24000000D01*
X58028011Y-22776051D01*
X58747281Y-22056781D01*
X58842587Y-22107723D01*
X59047205Y-22169794D01*
X59206674Y-22185500D01*
X59313326Y-22185500D01*
X59472795Y-22169794D01*
X59677413Y-22107723D01*
X59865989Y-22006927D01*
X60031278Y-21871278D01*
X60166927Y-21705989D01*
X60267723Y-21517413D01*
X60329794Y-21312795D01*
X60350752Y-21100000D01*
X60329794Y-20887205D01*
X60267723Y-20682587D01*
X60166927Y-20494011D01*
X60031278Y-20328722D01*
X59865989Y-20193073D01*
X59677413Y-20092277D01*
X59572660Y-20060500D01*
X62887260Y-20060500D01*
X62907432Y-20062478D01*
X62914573Y-20064634D01*
X62921165Y-20068139D01*
X62926955Y-20072861D01*
X62931710Y-20078608D01*
X62935262Y-20085179D01*
X62937470Y-20092311D01*
X62939500Y-20111624D01*
X62939501Y-37087250D01*
X62937522Y-37107432D01*
X62935366Y-37114575D01*
X62931862Y-37121163D01*
X62927140Y-37126954D01*
X62921389Y-37131711D01*
X62914821Y-37135263D01*
X62907690Y-37137470D01*
X62888376Y-37139500D01*
X59572660Y-37139500D01*
X59677413Y-37107723D01*
X59865989Y-37006927D01*
X60031278Y-36871278D01*
X60166927Y-36705989D01*
X60267723Y-36517413D01*
X60329794Y-36312795D01*
X60350752Y-36100000D01*
X60329794Y-35887205D01*
X60267723Y-35682587D01*
X60166927Y-35494011D01*
X60031278Y-35328722D01*
X59865989Y-35193073D01*
X59677413Y-35092277D01*
X59472795Y-35030206D01*
X59461318Y-35029076D01*
X59364975Y-34999850D01*
X59260000Y-34989511D01*
X59155024Y-34999850D01*
X59058680Y-35029076D01*
X59047205Y-35030206D01*
X58842587Y-35092277D01*
X58654011Y-35193073D01*
X58488722Y-35328722D01*
X58353073Y-35494011D01*
X58252277Y-35682587D01*
X58190206Y-35887205D01*
X58169248Y-36100000D01*
X58190206Y-36312795D01*
X58252277Y-36517413D01*
X58353073Y-36705989D01*
X58488722Y-36871278D01*
X58654011Y-37006927D01*
X58842587Y-37107723D01*
X58947340Y-37139500D01*
X57157218Y-37139500D01*
X57191222Y-37125420D01*
X57382217Y-37013786D01*
X57547764Y-36867036D01*
X57681500Y-36690809D01*
X57778286Y-36491877D01*
X57756935Y-36321500D01*
X56941500Y-36321500D01*
X56941500Y-36341500D01*
X56498500Y-36341500D01*
X56498500Y-36321500D01*
X55683065Y-36321500D01*
X55661714Y-36491877D01*
X55758500Y-36690809D01*
X55892236Y-36867036D01*
X56057783Y-37013786D01*
X56248778Y-37125420D01*
X56282782Y-37139500D01*
X54492660Y-37139500D01*
X54597413Y-37107723D01*
X54785989Y-37006927D01*
X54951278Y-36871278D01*
X55086927Y-36705989D01*
X55187723Y-36517413D01*
X55249794Y-36312795D01*
X55270752Y-36100000D01*
X55249794Y-35887205D01*
X55195470Y-35708123D01*
X55661714Y-35708123D01*
X55683065Y-35878500D01*
X56498500Y-35878500D01*
X56498500Y-35064551D01*
X56941500Y-35064551D01*
X56941500Y-35878500D01*
X57756935Y-35878500D01*
X57778286Y-35708123D01*
X57681500Y-35509191D01*
X57547764Y-35332964D01*
X57382217Y-35186214D01*
X57191222Y-35074580D01*
X57111875Y-35041725D01*
X56941500Y-35064551D01*
X56498500Y-35064551D01*
X56328125Y-35041725D01*
X56248778Y-35074580D01*
X56057783Y-35186214D01*
X55892236Y-35332964D01*
X55758500Y-35509191D01*
X55661714Y-35708123D01*
X55195470Y-35708123D01*
X55187723Y-35682587D01*
X55086927Y-35494011D01*
X54951278Y-35328722D01*
X54785989Y-35193073D01*
X54597413Y-35092277D01*
X54392795Y-35030206D01*
X54233326Y-35014500D01*
X54126674Y-35014500D01*
X53967205Y-35030206D01*
X53762587Y-35092277D01*
X53574011Y-35193073D01*
X53408722Y-35328722D01*
X53273073Y-35494011D01*
X53172277Y-35682587D01*
X53110206Y-35887205D01*
X53089248Y-36100000D01*
X53110206Y-36312795D01*
X53172277Y-36517413D01*
X53273073Y-36705989D01*
X53408722Y-36871278D01*
X53574011Y-37006927D01*
X53762587Y-37107723D01*
X53867340Y-37139500D01*
X51952660Y-37139500D01*
X52057413Y-37107723D01*
X52245989Y-37006927D01*
X52411278Y-36871278D01*
X52546927Y-36705989D01*
X52647723Y-36517413D01*
X52709794Y-36312795D01*
X52730752Y-36100000D01*
X52709794Y-35887205D01*
X52647723Y-35682587D01*
X52546927Y-35494011D01*
X52411278Y-35328722D01*
X52245989Y-35193073D01*
X52075500Y-35101945D01*
X52075500Y-32587258D01*
X52334500Y-32587258D01*
X52334500Y-32692742D01*
X52355079Y-32796200D01*
X52395446Y-32893654D01*
X52454050Y-32981361D01*
X52528639Y-33055950D01*
X52616346Y-33114554D01*
X52713800Y-33154921D01*
X52817258Y-33175500D01*
X52922742Y-33175500D01*
X53026200Y-33154921D01*
X53123654Y-33114554D01*
X53163361Y-33088023D01*
X53163361Y-33800000D01*
X53167908Y-33846166D01*
X53181374Y-33890558D01*
X53203242Y-33931470D01*
X53232671Y-33967329D01*
X53268530Y-33996758D01*
X53309442Y-34018626D01*
X53353834Y-34032092D01*
X53400000Y-34036639D01*
X54400000Y-34036639D01*
X54446166Y-34032092D01*
X54490558Y-34018626D01*
X54531470Y-33996758D01*
X54567329Y-33967329D01*
X54596758Y-33931470D01*
X54618626Y-33890558D01*
X54632092Y-33846166D01*
X54636639Y-33800000D01*
X54636639Y-32800000D01*
X54632092Y-32753834D01*
X54618626Y-32709442D01*
X54596758Y-32668530D01*
X54567329Y-32632671D01*
X54531470Y-32603242D01*
X54490558Y-32581374D01*
X54446166Y-32567908D01*
X54400000Y-32563361D01*
X53607423Y-32563361D01*
X53472944Y-32428882D01*
X53463106Y-32416894D01*
X53415293Y-32377656D01*
X53360744Y-32348498D01*
X53308721Y-32332718D01*
X53285950Y-32298639D01*
X53211361Y-32224050D01*
X53123654Y-32165446D01*
X53026200Y-32125079D01*
X52922742Y-32104500D01*
X52817258Y-32104500D01*
X52713800Y-32125079D01*
X52616346Y-32165446D01*
X52528639Y-32224050D01*
X52454050Y-32298639D01*
X52395446Y-32386346D01*
X52355079Y-32483800D01*
X52334500Y-32587258D01*
X52075500Y-32587258D01*
X52075500Y-31598350D01*
X52077606Y-31576969D01*
X52075500Y-31555588D01*
X52075500Y-31555576D01*
X52069199Y-31491597D01*
X52044296Y-31409505D01*
X52035530Y-31393105D01*
X52035530Y-31384258D01*
X52014951Y-31280800D01*
X51974584Y-31183346D01*
X51915980Y-31095639D01*
X51841391Y-31021050D01*
X51753684Y-30962446D01*
X51656230Y-30922079D01*
X51552772Y-30901500D01*
X51447288Y-30901500D01*
X51343830Y-30922079D01*
X51246376Y-30962446D01*
X51158669Y-31021050D01*
X51084080Y-31095639D01*
X51025476Y-31183346D01*
X50985109Y-31280800D01*
X50964530Y-31384258D01*
X50964530Y-31489742D01*
X50985109Y-31593200D01*
X51025476Y-31690654D01*
X51084080Y-31778361D01*
X51158669Y-31852950D01*
X51204501Y-31883574D01*
X51204500Y-35101945D01*
X51034011Y-35193073D01*
X50868722Y-35328722D01*
X50733073Y-35494011D01*
X50632277Y-35682587D01*
X50570206Y-35887205D01*
X50549248Y-36100000D01*
X50570206Y-36312795D01*
X50632277Y-36517413D01*
X50733073Y-36705989D01*
X50868722Y-36871278D01*
X51034011Y-37006927D01*
X51222587Y-37107723D01*
X51327340Y-37139500D01*
X49412660Y-37139500D01*
X49517413Y-37107723D01*
X49705989Y-37006927D01*
X49871278Y-36871278D01*
X50006927Y-36705989D01*
X50107723Y-36517413D01*
X50169794Y-36312795D01*
X50190752Y-36100000D01*
X50169794Y-35887205D01*
X50107723Y-35682587D01*
X50006927Y-35494011D01*
X49871278Y-35328722D01*
X49705989Y-35193073D01*
X49517413Y-35092277D01*
X49312795Y-35030206D01*
X49153326Y-35014500D01*
X49046674Y-35014500D01*
X48887205Y-35030206D01*
X48682587Y-35092277D01*
X48494011Y-35193073D01*
X48328722Y-35328722D01*
X48193073Y-35494011D01*
X48092277Y-35682587D01*
X48030206Y-35887205D01*
X48009248Y-36100000D01*
X48030206Y-36312795D01*
X48092277Y-36517413D01*
X48193073Y-36705989D01*
X48328722Y-36871278D01*
X48494011Y-37006927D01*
X48682587Y-37107723D01*
X48787340Y-37139500D01*
X46872660Y-37139500D01*
X46977413Y-37107723D01*
X47165989Y-37006927D01*
X47331278Y-36871278D01*
X47466927Y-36705989D01*
X47567723Y-36517413D01*
X47629794Y-36312795D01*
X47650752Y-36100000D01*
X47629794Y-35887205D01*
X47567723Y-35682587D01*
X47466927Y-35494011D01*
X47331278Y-35328722D01*
X47165989Y-35193073D01*
X46977413Y-35092277D01*
X46772795Y-35030206D01*
X46613326Y-35014500D01*
X46506674Y-35014500D01*
X46347205Y-35030206D01*
X46142587Y-35092277D01*
X45954011Y-35193073D01*
X45788722Y-35328722D01*
X45653073Y-35494011D01*
X45552277Y-35682587D01*
X45490206Y-35887205D01*
X45469248Y-36100000D01*
X45490206Y-36312795D01*
X45552277Y-36517413D01*
X45653073Y-36705989D01*
X45788722Y-36871278D01*
X45954011Y-37006927D01*
X46142587Y-37107723D01*
X46247340Y-37139500D01*
X44332660Y-37139500D01*
X44437413Y-37107723D01*
X44625989Y-37006927D01*
X44791278Y-36871278D01*
X44926927Y-36705989D01*
X45027723Y-36517413D01*
X45089794Y-36312795D01*
X45110752Y-36100000D01*
X45089794Y-35887205D01*
X45027723Y-35682587D01*
X44926927Y-35494011D01*
X44791278Y-35328722D01*
X44625989Y-35193073D01*
X44437413Y-35092277D01*
X44232795Y-35030206D01*
X44073326Y-35014500D01*
X43966674Y-35014500D01*
X43807205Y-35030206D01*
X43602587Y-35092277D01*
X43414011Y-35193073D01*
X43248722Y-35328722D01*
X43113073Y-35494011D01*
X43012277Y-35682587D01*
X42950206Y-35887205D01*
X42929248Y-36100000D01*
X42950206Y-36312795D01*
X43012277Y-36517413D01*
X43113073Y-36705989D01*
X43248722Y-36871278D01*
X43414011Y-37006927D01*
X43602587Y-37107723D01*
X43707340Y-37139500D01*
X41792660Y-37139500D01*
X41897413Y-37107723D01*
X42085989Y-37006927D01*
X42251278Y-36871278D01*
X42386927Y-36705989D01*
X42487723Y-36517413D01*
X42549794Y-36312795D01*
X42570752Y-36100000D01*
X42549794Y-35887205D01*
X42487723Y-35682587D01*
X42386927Y-35494011D01*
X42251278Y-35328722D01*
X42085989Y-35193073D01*
X41897413Y-35092277D01*
X41692795Y-35030206D01*
X41533326Y-35014500D01*
X41426674Y-35014500D01*
X41267205Y-35030206D01*
X41062587Y-35092277D01*
X40874011Y-35193073D01*
X40708722Y-35328722D01*
X40573073Y-35494011D01*
X40472277Y-35682587D01*
X40410206Y-35887205D01*
X40389248Y-36100000D01*
X40410206Y-36312795D01*
X40472277Y-36517413D01*
X40573073Y-36705989D01*
X40708722Y-36871278D01*
X40874011Y-37006927D01*
X41062587Y-37107723D01*
X41167340Y-37139500D01*
X39252660Y-37139500D01*
X39357413Y-37107723D01*
X39545989Y-37006927D01*
X39711278Y-36871278D01*
X39846927Y-36705989D01*
X39947723Y-36517413D01*
X40009794Y-36312795D01*
X40030752Y-36100000D01*
X40009794Y-35887205D01*
X39947723Y-35682587D01*
X39846927Y-35494011D01*
X39711278Y-35328722D01*
X39545989Y-35193073D01*
X39357413Y-35092277D01*
X39254000Y-35060907D01*
X39254000Y-34534140D01*
X39775135Y-34013006D01*
X39787117Y-34003173D01*
X39826355Y-33955360D01*
X39832531Y-33943806D01*
X39855513Y-33900812D01*
X39873467Y-33841622D01*
X39877567Y-33800000D01*
X39878011Y-33795489D01*
X39878011Y-33795488D01*
X39879530Y-33780067D01*
X39878011Y-33764646D01*
X39878011Y-29373377D01*
X40773645Y-28477744D01*
X40805920Y-28484164D01*
X40911404Y-28484164D01*
X41014862Y-28463585D01*
X41112316Y-28423218D01*
X41200023Y-28364614D01*
X41274612Y-28290025D01*
X41333216Y-28202318D01*
X41373583Y-28104864D01*
X41394162Y-28001406D01*
X41394162Y-27895922D01*
X41373583Y-27792464D01*
X41333216Y-27695010D01*
X41274612Y-27607303D01*
X41200023Y-27532714D01*
X41143090Y-27494673D01*
X41173231Y-27474533D01*
X41247820Y-27399944D01*
X41306424Y-27312237D01*
X41346791Y-27214783D01*
X41367370Y-27111325D01*
X41367370Y-27005841D01*
X41346791Y-26902383D01*
X41306424Y-26804929D01*
X41247820Y-26717222D01*
X41173231Y-26642633D01*
X41085524Y-26584029D01*
X40988070Y-26543662D01*
X40884612Y-26523083D01*
X40779128Y-26523083D01*
X40675670Y-26543662D01*
X40578216Y-26584029D01*
X40490509Y-26642633D01*
X40415920Y-26717222D01*
X40357316Y-26804929D01*
X40316949Y-26902383D01*
X40296370Y-27005841D01*
X40296370Y-27111325D01*
X40316949Y-27214783D01*
X40338683Y-27267254D01*
X39038877Y-28567061D01*
X39026895Y-28576894D01*
X39012743Y-28594139D01*
X38987656Y-28624708D01*
X38958499Y-28679256D01*
X38940544Y-28738446D01*
X38934481Y-28800000D01*
X38936001Y-28815432D01*
X38936000Y-33519937D01*
X37829938Y-34626000D01*
X32495421Y-34626000D01*
X32480000Y-34624481D01*
X32464578Y-34626000D01*
X32418445Y-34630544D01*
X32359256Y-34648498D01*
X32304707Y-34677656D01*
X32256894Y-34716894D01*
X32247063Y-34728874D01*
X31832719Y-35143219D01*
X31737413Y-35092277D01*
X31532795Y-35030206D01*
X31373326Y-35014500D01*
X31266674Y-35014500D01*
X31107205Y-35030206D01*
X30902587Y-35092277D01*
X30714011Y-35193073D01*
X30548722Y-35328722D01*
X30413073Y-35494011D01*
X30312277Y-35682587D01*
X30250206Y-35887205D01*
X30229248Y-36100000D01*
X30250206Y-36312795D01*
X30312277Y-36517413D01*
X30413073Y-36705989D01*
X30548722Y-36871278D01*
X30714011Y-37006927D01*
X30902587Y-37107723D01*
X31007340Y-37139500D01*
X29092660Y-37139500D01*
X29197413Y-37107723D01*
X29385989Y-37006927D01*
X29551278Y-36871278D01*
X29686927Y-36705989D01*
X29787723Y-36517413D01*
X29849794Y-36312795D01*
X29870752Y-36100000D01*
X29849794Y-35887205D01*
X29787723Y-35682587D01*
X29686927Y-35494011D01*
X29551278Y-35328722D01*
X29385989Y-35193073D01*
X29197413Y-35092277D01*
X28992795Y-35030206D01*
X28833326Y-35014500D01*
X28726674Y-35014500D01*
X28567205Y-35030206D01*
X28362587Y-35092277D01*
X28174011Y-35193073D01*
X28008722Y-35328722D01*
X27873073Y-35494011D01*
X27772277Y-35682587D01*
X27710206Y-35887205D01*
X27689248Y-36100000D01*
X27710206Y-36312795D01*
X27772277Y-36517413D01*
X27873073Y-36705989D01*
X28008722Y-36871278D01*
X28174011Y-37006927D01*
X28362587Y-37107723D01*
X28467340Y-37139500D01*
X26552660Y-37139500D01*
X26657413Y-37107723D01*
X26845989Y-37006927D01*
X27011278Y-36871278D01*
X27146927Y-36705989D01*
X27247723Y-36517413D01*
X27309794Y-36312795D01*
X27330752Y-36100000D01*
X27309794Y-35887205D01*
X27247723Y-35682587D01*
X27146927Y-35494011D01*
X27011278Y-35328722D01*
X26845989Y-35193073D01*
X26657413Y-35092277D01*
X26452795Y-35030206D01*
X26293326Y-35014500D01*
X26186674Y-35014500D01*
X26027205Y-35030206D01*
X25822587Y-35092277D01*
X25634011Y-35193073D01*
X25468722Y-35328722D01*
X25333073Y-35494011D01*
X25232277Y-35682587D01*
X25170206Y-35887205D01*
X25149248Y-36100000D01*
X25170206Y-36312795D01*
X25232277Y-36517413D01*
X25333073Y-36705989D01*
X25468722Y-36871278D01*
X25634011Y-37006927D01*
X25822587Y-37107723D01*
X25927340Y-37139500D01*
X24690314Y-37139500D01*
X24717329Y-37117329D01*
X24746758Y-37081470D01*
X24768626Y-37040558D01*
X24782092Y-36996166D01*
X24786639Y-36950000D01*
X24786639Y-35250000D01*
X24782092Y-35203834D01*
X24768626Y-35159442D01*
X24746758Y-35118530D01*
X24717329Y-35082671D01*
X24681470Y-35053242D01*
X24640558Y-35031374D01*
X24596166Y-35017908D01*
X24550000Y-35013361D01*
X24223702Y-35013361D01*
X24233063Y-35004000D01*
X30884579Y-35004000D01*
X30900000Y-35005519D01*
X30915421Y-35004000D01*
X30915422Y-35004000D01*
X30961555Y-34999456D01*
X31020744Y-34981502D01*
X31075293Y-34952344D01*
X31123106Y-34913106D01*
X31132944Y-34901118D01*
X31443322Y-34590741D01*
X31467258Y-34595502D01*
X31572742Y-34595502D01*
X31676200Y-34574923D01*
X31773654Y-34534556D01*
X31861361Y-34475952D01*
X31935950Y-34401363D01*
X31994554Y-34313656D01*
X32034921Y-34216202D01*
X32055500Y-34112744D01*
X32055500Y-34007260D01*
X32034921Y-33903802D01*
X31994554Y-33806348D01*
X31935950Y-33718641D01*
X31861361Y-33644052D01*
X31773654Y-33585448D01*
X31676200Y-33545081D01*
X31572742Y-33524502D01*
X31467258Y-33524502D01*
X31363800Y-33545081D01*
X31266346Y-33585448D01*
X31178639Y-33644052D01*
X31104050Y-33718641D01*
X31045446Y-33806348D01*
X31005079Y-33903802D01*
X30984500Y-34007260D01*
X30984500Y-34112744D01*
X30992579Y-34153359D01*
X30769938Y-34376000D01*
X24118421Y-34376000D01*
X24102999Y-34374481D01*
X24087578Y-34376000D01*
X24041445Y-34380544D01*
X23982256Y-34398498D01*
X23927707Y-34427656D01*
X23879894Y-34466894D01*
X23870063Y-34478874D01*
X23488877Y-34860061D01*
X23476895Y-34869894D01*
X23446003Y-34907537D01*
X23437656Y-34917708D01*
X23408499Y-34972256D01*
X23396030Y-35013361D01*
X22850000Y-35013361D01*
X22803834Y-35017908D01*
X22759442Y-35031374D01*
X22718530Y-35053242D01*
X22682671Y-35082671D01*
X22653242Y-35118530D01*
X22631374Y-35159442D01*
X22617908Y-35203834D01*
X22613361Y-35250000D01*
X22613361Y-36950000D01*
X22617908Y-36996166D01*
X22631374Y-37040558D01*
X22653242Y-37081470D01*
X22682671Y-37117329D01*
X22709686Y-37139500D01*
X20312740Y-37139500D01*
X20292568Y-37137522D01*
X20285425Y-37135366D01*
X20278837Y-37131862D01*
X20273046Y-37127140D01*
X20268289Y-37121389D01*
X20264737Y-37114821D01*
X20262530Y-37107690D01*
X20260500Y-37088376D01*
X20260500Y-35631125D01*
X20291500Y-35631125D01*
X20291500Y-36217430D01*
X20302203Y-36271235D01*
X20323196Y-36321919D01*
X20353675Y-36367533D01*
X20392466Y-36406325D01*
X20438081Y-36436803D01*
X20488764Y-36457797D01*
X20542570Y-36468500D01*
X21128875Y-36468500D01*
X21198500Y-36398875D01*
X21198500Y-35561500D01*
X21641500Y-35561500D01*
X21641500Y-36398875D01*
X21711125Y-36468500D01*
X22297430Y-36468500D01*
X22351236Y-36457797D01*
X22401919Y-36436803D01*
X22447534Y-36406325D01*
X22486325Y-36367533D01*
X22516804Y-36321919D01*
X22537797Y-36271235D01*
X22548500Y-36217430D01*
X22548500Y-35631125D01*
X22478875Y-35561500D01*
X21641500Y-35561500D01*
X21198500Y-35561500D01*
X20361125Y-35561500D01*
X20291500Y-35631125D01*
X20260500Y-35631125D01*
X20260500Y-34462570D01*
X20291500Y-34462570D01*
X20291500Y-35048875D01*
X20361125Y-35118500D01*
X21198500Y-35118500D01*
X21198500Y-34281125D01*
X21641500Y-34281125D01*
X21641500Y-35118500D01*
X22478875Y-35118500D01*
X22548500Y-35048875D01*
X22548500Y-34462570D01*
X22537797Y-34408765D01*
X22516804Y-34358081D01*
X22486325Y-34312467D01*
X22447534Y-34273675D01*
X22401919Y-34243197D01*
X22351236Y-34222203D01*
X22297430Y-34211500D01*
X21711125Y-34211500D01*
X21641500Y-34281125D01*
X21198500Y-34281125D01*
X21128875Y-34211500D01*
X20542570Y-34211500D01*
X20488764Y-34222203D01*
X20438081Y-34243197D01*
X20392466Y-34273675D01*
X20353675Y-34312467D01*
X20323196Y-34358081D01*
X20302203Y-34408765D01*
X20291500Y-34462570D01*
X20260500Y-34462570D01*
X20260500Y-33111502D01*
X20301617Y-33111502D01*
X20272514Y-33225524D01*
X20290809Y-33291856D01*
X20382354Y-33417613D01*
X20496674Y-33523094D01*
X20629375Y-33604246D01*
X20775359Y-33657950D01*
X20929015Y-33682142D01*
X21053499Y-33609958D01*
X21053499Y-33111500D01*
X21496499Y-33111500D01*
X21496499Y-33609958D01*
X21620983Y-33682142D01*
X21774639Y-33657950D01*
X21920623Y-33604246D01*
X22053324Y-33523094D01*
X22167644Y-33417613D01*
X22259189Y-33291856D01*
X22277484Y-33225524D01*
X24202514Y-33225524D01*
X24288316Y-33414240D01*
X24402440Y-33524476D01*
X24535877Y-33610329D01*
X24683499Y-33668500D01*
X25233499Y-33668500D01*
X25233499Y-33111500D01*
X25676499Y-33111500D01*
X25676499Y-33668500D01*
X26226499Y-33668500D01*
X26374121Y-33610329D01*
X26507558Y-33524476D01*
X26621682Y-33414240D01*
X26707484Y-33225524D01*
X26678380Y-33111500D01*
X25676499Y-33111500D01*
X25233499Y-33111500D01*
X24231618Y-33111500D01*
X24202514Y-33225524D01*
X22277484Y-33225524D01*
X22248380Y-33111500D01*
X21496499Y-33111500D01*
X21053499Y-33111500D01*
X21033499Y-33111500D01*
X21033499Y-32668500D01*
X21053499Y-32668500D01*
X21053499Y-32170042D01*
X21496499Y-32170042D01*
X21496499Y-32668500D01*
X22248380Y-32668500D01*
X22277484Y-32554476D01*
X24202514Y-32554476D01*
X24231618Y-32668500D01*
X25233499Y-32668500D01*
X25233499Y-32111500D01*
X25676499Y-32111500D01*
X25676499Y-32668500D01*
X26678380Y-32668500D01*
X26707484Y-32554476D01*
X26621682Y-32365760D01*
X26507558Y-32255524D01*
X26374121Y-32169671D01*
X26226499Y-32111500D01*
X25676499Y-32111500D01*
X25233499Y-32111500D01*
X24683499Y-32111500D01*
X24535877Y-32169671D01*
X24402440Y-32255524D01*
X24288316Y-32365760D01*
X24202514Y-32554476D01*
X22277484Y-32554476D01*
X22259189Y-32488144D01*
X22167644Y-32362387D01*
X22053324Y-32256906D01*
X21920623Y-32175754D01*
X21774639Y-32122050D01*
X21620983Y-32097858D01*
X21496499Y-32170042D01*
X21053499Y-32170042D01*
X20929015Y-32097858D01*
X20775359Y-32122050D01*
X20629375Y-32175754D01*
X20496674Y-32256906D01*
X20382354Y-32362387D01*
X20290809Y-32488144D01*
X20272514Y-32554476D01*
X20301617Y-32668498D01*
X20260500Y-32668498D01*
X20260500Y-24471502D01*
X20301617Y-24471502D01*
X20272514Y-24585524D01*
X20290809Y-24651856D01*
X20382354Y-24777613D01*
X20496674Y-24883094D01*
X20629375Y-24964246D01*
X20775359Y-25017950D01*
X20929015Y-25042142D01*
X21053499Y-24969958D01*
X21053499Y-24471500D01*
X21496499Y-24471500D01*
X21496499Y-24969958D01*
X21620983Y-25042142D01*
X21774639Y-25017950D01*
X21920623Y-24964246D01*
X22053324Y-24883094D01*
X22167644Y-24777613D01*
X22259189Y-24651856D01*
X22277484Y-24585524D01*
X22248380Y-24471500D01*
X21496499Y-24471500D01*
X21053499Y-24471500D01*
X21033499Y-24471500D01*
X21033499Y-24028500D01*
X21053499Y-24028500D01*
X21053499Y-23530042D01*
X21496499Y-23530042D01*
X21496499Y-24028500D01*
X22248380Y-24028500D01*
X22277484Y-23914476D01*
X22259189Y-23848144D01*
X22167644Y-23722387D01*
X22053324Y-23616906D01*
X21920623Y-23535754D01*
X21774639Y-23482050D01*
X21620983Y-23457858D01*
X21496499Y-23530042D01*
X21053499Y-23530042D01*
X20929015Y-23457858D01*
X20775359Y-23482050D01*
X20629375Y-23535754D01*
X20496674Y-23616906D01*
X20382354Y-23722387D01*
X20290809Y-23848144D01*
X20272514Y-23914476D01*
X20301617Y-24028498D01*
X20260500Y-24028498D01*
X20260500Y-20930000D01*
X20333361Y-20930000D01*
X20333361Y-22630000D01*
X20337908Y-22676166D01*
X20351374Y-22720558D01*
X20373242Y-22761470D01*
X20402671Y-22797329D01*
X20438530Y-22826758D01*
X20479442Y-22848626D01*
X20523834Y-22862092D01*
X20570000Y-22866639D01*
X21607907Y-22866639D01*
X23014500Y-24273233D01*
X23014501Y-25968787D01*
X23011427Y-26000000D01*
X23023696Y-26124579D01*
X23060035Y-26244371D01*
X23117914Y-26352656D01*
X23119046Y-26354773D01*
X23198461Y-26451540D01*
X23222708Y-26471439D01*
X23664500Y-26913232D01*
X23664500Y-31800000D01*
X23682426Y-31890122D01*
X23733476Y-31966524D01*
X23809878Y-32017574D01*
X23900000Y-32035500D01*
X28100000Y-32035500D01*
X28190122Y-32017574D01*
X28266524Y-31966524D01*
X28317574Y-31890122D01*
X28335500Y-31800000D01*
X28335500Y-29338461D01*
X28369885Y-29380360D01*
X28381867Y-29390193D01*
X29672796Y-30681123D01*
X29682630Y-30693106D01*
X29730443Y-30732344D01*
X29784992Y-30761502D01*
X29844181Y-30779456D01*
X29890314Y-30784000D01*
X29890316Y-30784000D01*
X29896152Y-30784575D01*
X29914050Y-30811361D01*
X29988639Y-30885950D01*
X30076346Y-30944554D01*
X30173800Y-30984921D01*
X30277258Y-31005500D01*
X30382742Y-31005500D01*
X30486200Y-30984921D01*
X30583654Y-30944554D01*
X30671361Y-30885950D01*
X30745950Y-30811361D01*
X30804554Y-30723654D01*
X30844921Y-30626200D01*
X30865500Y-30522742D01*
X30865500Y-30417258D01*
X30844921Y-30313800D01*
X30804554Y-30216346D01*
X30745950Y-30128639D01*
X30671361Y-30054050D01*
X30583654Y-29995446D01*
X30486200Y-29955079D01*
X30382742Y-29934500D01*
X30277258Y-29934500D01*
X30173800Y-29955079D01*
X30076346Y-29995446D01*
X29988639Y-30054050D01*
X29961244Y-30081445D01*
X29815299Y-29935500D01*
X29827742Y-29935500D01*
X29931200Y-29914921D01*
X30028654Y-29874554D01*
X30116361Y-29815950D01*
X30190950Y-29741361D01*
X30194866Y-29735500D01*
X30511032Y-29735500D01*
X34551109Y-33775577D01*
X34561618Y-33788382D01*
X34612704Y-33830308D01*
X34670989Y-33861461D01*
X34709378Y-33873106D01*
X34734230Y-33880645D01*
X34740529Y-33881265D01*
X34783522Y-33885500D01*
X34783529Y-33885500D01*
X34799999Y-33887122D01*
X34816469Y-33885500D01*
X35581032Y-33885500D01*
X35611323Y-33915791D01*
X35638613Y-33981675D01*
X35697217Y-34069382D01*
X35771806Y-34143971D01*
X35859513Y-34202575D01*
X35956967Y-34242942D01*
X36060425Y-34263521D01*
X36165909Y-34263521D01*
X36269367Y-34242942D01*
X36366821Y-34202575D01*
X36454528Y-34143971D01*
X36529117Y-34069382D01*
X36587721Y-33981675D01*
X36628088Y-33884221D01*
X36648667Y-33780763D01*
X36648667Y-33703094D01*
X36665846Y-33706511D01*
X36771330Y-33706511D01*
X36874788Y-33685932D01*
X36972242Y-33645565D01*
X37059949Y-33586961D01*
X37134538Y-33512372D01*
X37193142Y-33424665D01*
X37233509Y-33327211D01*
X37254088Y-33223753D01*
X37254088Y-33118269D01*
X37233509Y-33014811D01*
X37193142Y-32917357D01*
X37134538Y-32829650D01*
X37059949Y-32755061D01*
X36972242Y-32696457D01*
X36874788Y-32656090D01*
X36771330Y-32635511D01*
X36665846Y-32635511D01*
X36562388Y-32656090D01*
X36464934Y-32696457D01*
X36377227Y-32755061D01*
X36302638Y-32829650D01*
X36298722Y-32835511D01*
X35064868Y-32835511D01*
X33023125Y-30793768D01*
X33093654Y-30764554D01*
X33181361Y-30705950D01*
X33255950Y-30631361D01*
X33314554Y-30543654D01*
X33354921Y-30446200D01*
X33375500Y-30342742D01*
X33375500Y-30237258D01*
X33354921Y-30133800D01*
X33314554Y-30036346D01*
X33255950Y-29948639D01*
X33181361Y-29874050D01*
X33093654Y-29815446D01*
X32996200Y-29775079D01*
X32892742Y-29754500D01*
X32787258Y-29754500D01*
X32780344Y-29755875D01*
X32685500Y-29661032D01*
X32685500Y-28223826D01*
X36702796Y-32241123D01*
X36712630Y-32253106D01*
X36760443Y-32292344D01*
X36814992Y-32321502D01*
X36874181Y-32339456D01*
X36920314Y-32344000D01*
X36920316Y-32344000D01*
X36926152Y-32344575D01*
X36944050Y-32371361D01*
X37018639Y-32445950D01*
X37106346Y-32504554D01*
X37203800Y-32544921D01*
X37307258Y-32565500D01*
X37412742Y-32565500D01*
X37516200Y-32544921D01*
X37613654Y-32504554D01*
X37701361Y-32445950D01*
X37706679Y-32440632D01*
X37773175Y-32507128D01*
X37860882Y-32565732D01*
X37958336Y-32606099D01*
X38061794Y-32626678D01*
X38167278Y-32626678D01*
X38270736Y-32606099D01*
X38368190Y-32565732D01*
X38455897Y-32507128D01*
X38530486Y-32432539D01*
X38589090Y-32344832D01*
X38629457Y-32247378D01*
X38650036Y-32143920D01*
X38650036Y-32038436D01*
X38629457Y-31934978D01*
X38589090Y-31837524D01*
X38530486Y-31749817D01*
X38455897Y-31675228D01*
X38429111Y-31657330D01*
X38423992Y-31605359D01*
X38406038Y-31546170D01*
X38376880Y-31491621D01*
X38364410Y-31476426D01*
X38337642Y-31443808D01*
X38325660Y-31433975D01*
X38055064Y-31163380D01*
X38045226Y-31151392D01*
X37997413Y-31112154D01*
X37942864Y-31082996D01*
X37883675Y-31065042D01*
X37837542Y-31060498D01*
X37837541Y-31060498D01*
X37822120Y-31058979D01*
X37806699Y-31060498D01*
X37060297Y-31060498D01*
X37013725Y-31013926D01*
X37083941Y-30984841D01*
X37171648Y-30926237D01*
X37246237Y-30851648D01*
X37304841Y-30763941D01*
X37345208Y-30666487D01*
X37365787Y-30563029D01*
X37365787Y-30457545D01*
X37345208Y-30354087D01*
X37304841Y-30256633D01*
X37246237Y-30168926D01*
X37171648Y-30094337D01*
X37083941Y-30035733D01*
X36986487Y-29995366D01*
X36883029Y-29974787D01*
X36777545Y-29974787D01*
X36745270Y-29981207D01*
X36328007Y-29563945D01*
X36328007Y-29336654D01*
X36355368Y-29318372D01*
X36429957Y-29243783D01*
X36488561Y-29156076D01*
X36528928Y-29058622D01*
X36549507Y-28955164D01*
X36549507Y-28849680D01*
X36528928Y-28746222D01*
X36488561Y-28648768D01*
X36429957Y-28561061D01*
X36355368Y-28486472D01*
X36267661Y-28427868D01*
X36170207Y-28387501D01*
X36066749Y-28366922D01*
X35961265Y-28366922D01*
X35857807Y-28387501D01*
X35760353Y-28427868D01*
X35672646Y-28486472D01*
X35598057Y-28561061D01*
X35568030Y-28606000D01*
X35210063Y-28606000D01*
X34014000Y-27409938D01*
X34014000Y-26820062D01*
X34098562Y-26735500D01*
X34122742Y-26735500D01*
X34226200Y-26714921D01*
X34323654Y-26674554D01*
X34411361Y-26615950D01*
X34485950Y-26541361D01*
X34544554Y-26453654D01*
X34584921Y-26356200D01*
X34605500Y-26252742D01*
X34605500Y-26147258D01*
X34584921Y-26043800D01*
X34544554Y-25946346D01*
X34485950Y-25858639D01*
X34411361Y-25784050D01*
X34323654Y-25725446D01*
X34226200Y-25685079D01*
X34122742Y-25664500D01*
X34017258Y-25664500D01*
X33913800Y-25685079D01*
X33816346Y-25725446D01*
X33728639Y-25784050D01*
X33654050Y-25858639D01*
X33626066Y-25900520D01*
X33610864Y-25885318D01*
X33523157Y-25826714D01*
X33425703Y-25786347D01*
X33322245Y-25765768D01*
X33216761Y-25765768D01*
X33113303Y-25786347D01*
X33015849Y-25826714D01*
X32928142Y-25885318D01*
X32853553Y-25959907D01*
X32794949Y-26047614D01*
X32754582Y-26145068D01*
X32734003Y-26248526D01*
X32734003Y-26264500D01*
X32647258Y-26264500D01*
X32543800Y-26285079D01*
X32446346Y-26325446D01*
X32358639Y-26384050D01*
X32284050Y-26458639D01*
X32225446Y-26546346D01*
X32185079Y-26643800D01*
X32164500Y-26747258D01*
X32164500Y-26830032D01*
X32125500Y-26791032D01*
X32125500Y-25535499D01*
X37025878Y-25535499D01*
X36975281Y-25611222D01*
X36934914Y-25708676D01*
X36914335Y-25812134D01*
X36914335Y-25917618D01*
X36920755Y-25949893D01*
X35881892Y-26988757D01*
X35553004Y-26988757D01*
X35534722Y-26961396D01*
X35460133Y-26886807D01*
X35372426Y-26828203D01*
X35274972Y-26787836D01*
X35171514Y-26767257D01*
X35066030Y-26767257D01*
X34962572Y-26787836D01*
X34865118Y-26828203D01*
X34777411Y-26886807D01*
X34702822Y-26961396D01*
X34644218Y-27049103D01*
X34603851Y-27146557D01*
X34583272Y-27250015D01*
X34583272Y-27355499D01*
X34603851Y-27458957D01*
X34644218Y-27556411D01*
X34702822Y-27644118D01*
X34777411Y-27718707D01*
X34865118Y-27777311D01*
X34962572Y-27817678D01*
X35066030Y-27838257D01*
X35171514Y-27838257D01*
X35274972Y-27817678D01*
X35372426Y-27777311D01*
X35460133Y-27718707D01*
X35534722Y-27644118D01*
X35553004Y-27616757D01*
X35996533Y-27616757D01*
X36011954Y-27618276D01*
X36027375Y-27616757D01*
X36027376Y-27616757D01*
X36073509Y-27612213D01*
X36132698Y-27594259D01*
X36187247Y-27565101D01*
X36235060Y-27525863D01*
X36244898Y-27513875D01*
X37364818Y-26393956D01*
X37397093Y-26400376D01*
X37502577Y-26400376D01*
X37606035Y-26379797D01*
X37703489Y-26339430D01*
X37791196Y-26280826D01*
X37865785Y-26206237D01*
X37924389Y-26118530D01*
X37964756Y-26021076D01*
X37985335Y-25917618D01*
X37985335Y-25812134D01*
X37964756Y-25708676D01*
X37924389Y-25611222D01*
X37873792Y-25535499D01*
X47723696Y-25535499D01*
X47750001Y-25538090D01*
X47776306Y-25535499D01*
X47776308Y-25535499D01*
X47854977Y-25527751D01*
X47955920Y-25497130D01*
X48048948Y-25447405D01*
X48130489Y-25380487D01*
X48147265Y-25360045D01*
X48341358Y-25165952D01*
X48341361Y-25165950D01*
X48415952Y-25091359D01*
X48947257Y-24560055D01*
X48947262Y-24560049D01*
X48965950Y-24541361D01*
X48980635Y-24519384D01*
X48997405Y-24498949D01*
X49009866Y-24475635D01*
X49024554Y-24453654D01*
X49034670Y-24429231D01*
X49047131Y-24405919D01*
X49054803Y-24380628D01*
X49064921Y-24356200D01*
X49070081Y-24330261D01*
X49077750Y-24304977D01*
X49080340Y-24278684D01*
X49085500Y-24252742D01*
X49085500Y-24226296D01*
X49088090Y-24200001D01*
X49085500Y-24173706D01*
X49085500Y-24147258D01*
X49080340Y-24121315D01*
X49077750Y-24095024D01*
X49070081Y-24069743D01*
X49064921Y-24043800D01*
X49054801Y-24019368D01*
X49047131Y-23994083D01*
X49034674Y-23970778D01*
X49024554Y-23946346D01*
X49009861Y-23924357D01*
X48997405Y-23901053D01*
X48980642Y-23880627D01*
X48965950Y-23858639D01*
X48947251Y-23839940D01*
X48930487Y-23819513D01*
X48910060Y-23802749D01*
X48891361Y-23784050D01*
X48869373Y-23769358D01*
X48848947Y-23752595D01*
X48825643Y-23740139D01*
X48803654Y-23725446D01*
X48779222Y-23715326D01*
X48755917Y-23702869D01*
X48730632Y-23695199D01*
X48706200Y-23685079D01*
X48680257Y-23679919D01*
X48654976Y-23672250D01*
X48628685Y-23669660D01*
X48602742Y-23664500D01*
X48576294Y-23664500D01*
X48549999Y-23661910D01*
X48523704Y-23664500D01*
X48497258Y-23664500D01*
X48471316Y-23669660D01*
X48445023Y-23672250D01*
X48419739Y-23679919D01*
X48393800Y-23685079D01*
X48369372Y-23695197D01*
X48344081Y-23702869D01*
X48320769Y-23715330D01*
X48296346Y-23725446D01*
X48274365Y-23740134D01*
X48251051Y-23752595D01*
X48230616Y-23769365D01*
X48208639Y-23784050D01*
X48189951Y-23802738D01*
X48189945Y-23802743D01*
X47658641Y-24334048D01*
X47584050Y-24408639D01*
X47584048Y-24408642D01*
X47528191Y-24464499D01*
X27566304Y-24464499D01*
X27539999Y-24461908D01*
X27513694Y-24464499D01*
X27513693Y-24464499D01*
X27435024Y-24472247D01*
X27355581Y-24496346D01*
X27334081Y-24502868D01*
X27241052Y-24552593D01*
X27190841Y-24593800D01*
X27159512Y-24619511D01*
X27142744Y-24639943D01*
X26618188Y-25164500D01*
X25145129Y-25164500D01*
X25088491Y-25141040D01*
X24980203Y-25119500D01*
X24869795Y-25119500D01*
X24761507Y-25141040D01*
X24704869Y-25164500D01*
X24285500Y-25164500D01*
X24285500Y-24768046D01*
X24288316Y-24774240D01*
X24402440Y-24884476D01*
X24535877Y-24970329D01*
X24683499Y-25028500D01*
X25233499Y-25028500D01*
X25233499Y-24471500D01*
X25676499Y-24471500D01*
X25676499Y-25028500D01*
X26226499Y-25028500D01*
X26374121Y-24970329D01*
X26507558Y-24884476D01*
X26621682Y-24774240D01*
X26707484Y-24585524D01*
X26678380Y-24471500D01*
X25676499Y-24471500D01*
X25233499Y-24471500D01*
X25213499Y-24471500D01*
X25213499Y-24028500D01*
X25233499Y-24028500D01*
X25233499Y-23471500D01*
X25676499Y-23471500D01*
X25676499Y-24028500D01*
X26678380Y-24028500D01*
X26707484Y-23914476D01*
X26621682Y-23725760D01*
X26507558Y-23615524D01*
X26374121Y-23529671D01*
X26226499Y-23471500D01*
X25676499Y-23471500D01*
X25233499Y-23471500D01*
X24683499Y-23471500D01*
X24535877Y-23529671D01*
X24402440Y-23615524D01*
X24288316Y-23725760D01*
X24252061Y-23805501D01*
X24239965Y-23765628D01*
X24180955Y-23655227D01*
X24101540Y-23558460D01*
X24077299Y-23538566D01*
X22506639Y-21967907D01*
X22506639Y-20930000D01*
X22502092Y-20883834D01*
X22488626Y-20839442D01*
X22466758Y-20798530D01*
X22437329Y-20762671D01*
X22401470Y-20733242D01*
X22360558Y-20711374D01*
X22316166Y-20697908D01*
X22270000Y-20693361D01*
X20570000Y-20693361D01*
X20523834Y-20697908D01*
X20479442Y-20711374D01*
X20438530Y-20733242D01*
X20402671Y-20762671D01*
X20373242Y-20798530D01*
X20351374Y-20839442D01*
X20337908Y-20883834D01*
X20333361Y-20930000D01*
X20260500Y-20930000D01*
X20260500Y-20112740D01*
X20262478Y-20092568D01*
X20264634Y-20085427D01*
X20268139Y-20078835D01*
X20272861Y-20073045D01*
X20278608Y-20068290D01*
X20285179Y-20064738D01*
X20292311Y-20062530D01*
X20311624Y-20060500D01*
X22709686Y-20060500D01*
X22682671Y-20082671D01*
G36*
X31454500Y-26913522D02*
X31452877Y-26930000D01*
X31459355Y-26995769D01*
X31463298Y-27008766D01*
X31478539Y-27059010D01*
X31509692Y-27117295D01*
X31551618Y-27168381D01*
X31564419Y-27178887D01*
X32014501Y-27628970D01*
X32014500Y-29783522D01*
X32014355Y-29784998D01*
X30180834Y-27951477D01*
X30215950Y-27916361D01*
X30274554Y-27828654D01*
X30314921Y-27731200D01*
X30335500Y-27627742D01*
X30335500Y-27522258D01*
X30314921Y-27418800D01*
X30274554Y-27321346D01*
X30215950Y-27233639D01*
X30141361Y-27159050D01*
X30053654Y-27100446D01*
X29956200Y-27060079D01*
X29852742Y-27039500D01*
X29747258Y-27039500D01*
X29643800Y-27060079D01*
X29546346Y-27100446D01*
X29458639Y-27159050D01*
X29384050Y-27233639D01*
X29325446Y-27321346D01*
X29285079Y-27418800D01*
X29264500Y-27522258D01*
X29264500Y-27627742D01*
X29285079Y-27731200D01*
X29325446Y-27828654D01*
X29384050Y-27916361D01*
X29458639Y-27990950D01*
X29464500Y-27994866D01*
X29464500Y-28028634D01*
X29462877Y-28045112D01*
X29469318Y-28110500D01*
X29469355Y-28110880D01*
X29488539Y-28174122D01*
X29519692Y-28232407D01*
X29561618Y-28283493D01*
X29574419Y-28293999D01*
X30344920Y-29064500D01*
X30194866Y-29064500D01*
X30190950Y-29058639D01*
X30116361Y-28984050D01*
X30028654Y-28925446D01*
X29931200Y-28885079D01*
X29827742Y-28864500D01*
X29722258Y-28864500D01*
X29618800Y-28885079D01*
X29521346Y-28925446D01*
X29433639Y-28984050D01*
X29359050Y-29058639D01*
X29300446Y-29146346D01*
X29260079Y-29243800D01*
X29239500Y-29347258D01*
X29239500Y-29359702D01*
X28906990Y-29027192D01*
X28906990Y-28934232D01*
X28934351Y-28915950D01*
X29008940Y-28841361D01*
X29067544Y-28753654D01*
X29107911Y-28656200D01*
X29128490Y-28552742D01*
X29128490Y-28447258D01*
X29107911Y-28343800D01*
X29067544Y-28246346D01*
X29008940Y-28158639D01*
X28934351Y-28084050D01*
X28906990Y-28065768D01*
X28906990Y-26630421D01*
X28908509Y-26614999D01*
X28902446Y-26553445D01*
X28899310Y-26543106D01*
X28884492Y-26494256D01*
X28855334Y-26439707D01*
X28816096Y-26391894D01*
X28804113Y-26382060D01*
X28335500Y-25913448D01*
X28335500Y-25535499D01*
X31454501Y-25535499D01*
X31454500Y-26913522D01*
X31454500Y-26913522D01*
G37*
X31454500Y-26913522D02*
X31452877Y-26930000D01*
X31459355Y-26995769D01*
X31463298Y-27008766D01*
X31478539Y-27059010D01*
X31509692Y-27117295D01*
X31551618Y-27168381D01*
X31564419Y-27178887D01*
X32014501Y-27628970D01*
X32014500Y-29783522D01*
X32014355Y-29784998D01*
X30180834Y-27951477D01*
X30215950Y-27916361D01*
X30274554Y-27828654D01*
X30314921Y-27731200D01*
X30335500Y-27627742D01*
X30335500Y-27522258D01*
X30314921Y-27418800D01*
X30274554Y-27321346D01*
X30215950Y-27233639D01*
X30141361Y-27159050D01*
X30053654Y-27100446D01*
X29956200Y-27060079D01*
X29852742Y-27039500D01*
X29747258Y-27039500D01*
X29643800Y-27060079D01*
X29546346Y-27100446D01*
X29458639Y-27159050D01*
X29384050Y-27233639D01*
X29325446Y-27321346D01*
X29285079Y-27418800D01*
X29264500Y-27522258D01*
X29264500Y-27627742D01*
X29285079Y-27731200D01*
X29325446Y-27828654D01*
X29384050Y-27916361D01*
X29458639Y-27990950D01*
X29464500Y-27994866D01*
X29464500Y-28028634D01*
X29462877Y-28045112D01*
X29469318Y-28110500D01*
X29469355Y-28110880D01*
X29488539Y-28174122D01*
X29519692Y-28232407D01*
X29561618Y-28283493D01*
X29574419Y-28293999D01*
X30344920Y-29064500D01*
X30194866Y-29064500D01*
X30190950Y-29058639D01*
X30116361Y-28984050D01*
X30028654Y-28925446D01*
X29931200Y-28885079D01*
X29827742Y-28864500D01*
X29722258Y-28864500D01*
X29618800Y-28885079D01*
X29521346Y-28925446D01*
X29433639Y-28984050D01*
X29359050Y-29058639D01*
X29300446Y-29146346D01*
X29260079Y-29243800D01*
X29239500Y-29347258D01*
X29239500Y-29359702D01*
X28906990Y-29027192D01*
X28906990Y-28934232D01*
X28934351Y-28915950D01*
X29008940Y-28841361D01*
X29067544Y-28753654D01*
X29107911Y-28656200D01*
X29128490Y-28552742D01*
X29128490Y-28447258D01*
X29107911Y-28343800D01*
X29067544Y-28246346D01*
X29008940Y-28158639D01*
X28934351Y-28084050D01*
X28906990Y-28065768D01*
X28906990Y-26630421D01*
X28908509Y-26614999D01*
X28902446Y-26553445D01*
X28899310Y-26543106D01*
X28884492Y-26494256D01*
X28855334Y-26439707D01*
X28816096Y-26391894D01*
X28804113Y-26382060D01*
X28335500Y-25913448D01*
X28335500Y-25535499D01*
X31454501Y-25535499D01*
X31454500Y-26913522D01*
G36*
X33088722Y-35328722D02*
X32953073Y-35494011D01*
X32852277Y-35682587D01*
X32790206Y-35887205D01*
X32769248Y-36100000D01*
X32790206Y-36312795D01*
X32852277Y-36517413D01*
X32953073Y-36705989D01*
X33088722Y-36871278D01*
X33254011Y-37006927D01*
X33442587Y-37107723D01*
X33547340Y-37139500D01*
X31632660Y-37139500D01*
X31737413Y-37107723D01*
X31925989Y-37006927D01*
X32091278Y-36871278D01*
X32226927Y-36705989D01*
X32327723Y-36517413D01*
X32389794Y-36312795D01*
X32410752Y-36100000D01*
X32389794Y-35887205D01*
X32327723Y-35682587D01*
X32276781Y-35587281D01*
X32610063Y-35254000D01*
X33179771Y-35254000D01*
X33088722Y-35328722D01*
X33088722Y-35328722D01*
G37*
X33088722Y-35328722D02*
X32953073Y-35494011D01*
X32852277Y-35682587D01*
X32790206Y-35887205D01*
X32769248Y-36100000D01*
X32790206Y-36312795D01*
X32852277Y-36517413D01*
X32953073Y-36705989D01*
X33088722Y-36871278D01*
X33254011Y-37006927D01*
X33442587Y-37107723D01*
X33547340Y-37139500D01*
X31632660Y-37139500D01*
X31737413Y-37107723D01*
X31925989Y-37006927D01*
X32091278Y-36871278D01*
X32226927Y-36705989D01*
X32327723Y-36517413D01*
X32389794Y-36312795D01*
X32410752Y-36100000D01*
X32389794Y-35887205D01*
X32327723Y-35682587D01*
X32276781Y-35587281D01*
X32610063Y-35254000D01*
X33179771Y-35254000D01*
X33088722Y-35328722D01*
G04 #@! TD*
M02*
