G04 #@! TF.GenerationSoftware,KiCad,Pcbnew,5.0.1*
G04 #@! TF.CreationDate,2019-10-18T03:38:24+02:00*
G04 #@! TF.ProjectId,OtterPill,4F7474657250696C6C2E6B696361645F,rev?*
G04 #@! TF.SameCoordinates,Original*
G04 #@! TF.FileFunction,Copper,L2,Bot,Signal*
G04 #@! TF.FilePolarity,Positive*
%FSLAX46Y46*%
G04 Gerber Fmt 4.6, Leading zero omitted, Abs format (unit mm)*
G04 Created by KiCad (PCBNEW 5.0.1) date Fri 18 Oct 2019 03:38:24 AM CEST*
%MOMM*%
%LPD*%
G01*
G04 APERTURE LIST*
G04 #@! TA.AperFunction,NonConductor*
%ADD10C,0.050000*%
G04 #@! TD*
G04 #@! TA.AperFunction,ComponentPad*
%ADD11O,1.700000X1.700000*%
G04 #@! TD*
G04 #@! TA.AperFunction,ComponentPad*
%ADD12R,1.700000X1.700000*%
G04 #@! TD*
G04 #@! TA.AperFunction,ComponentPad*
%ADD13O,2.100000X1.000000*%
G04 #@! TD*
G04 #@! TA.AperFunction,ComponentPad*
%ADD14O,1.600000X1.000000*%
G04 #@! TD*
G04 #@! TA.AperFunction,ViaPad*
%ADD15C,0.600000*%
G04 #@! TD*
G04 #@! TA.AperFunction,ViaPad*
%ADD16C,0.800000*%
G04 #@! TD*
G04 #@! TA.AperFunction,Conductor*
%ADD17C,0.200000*%
G04 #@! TD*
G04 #@! TA.AperFunction,Conductor*
%ADD18C,0.400000*%
G04 #@! TD*
G04 #@! TA.AperFunction,Conductor*
%ADD19C,0.600000*%
G04 #@! TD*
G04 #@! TA.AperFunction,Conductor*
%ADD20C,0.157000*%
G04 #@! TD*
G04 #@! TA.AperFunction,Conductor*
%ADD21C,0.100000*%
G04 #@! TD*
G04 APERTURE END LIST*
D10*
X63200000Y-37100000D02*
G75*
G02X62900000Y-37400000I-300000J0D01*
G01*
X62900000Y-19800000D02*
G75*
G02X63200000Y-20100000I0J-300000D01*
G01*
X20000000Y-20100000D02*
G75*
G02X20300000Y-19800000I300000J0D01*
G01*
X20300000Y-37400000D02*
G75*
G02X20000000Y-37100000I0J300000D01*
G01*
X20000000Y-37100000D02*
X20000000Y-20100000D01*
X62900000Y-37400000D02*
X20300000Y-37400000D01*
X63200000Y-20100000D02*
X63200000Y-37100000D01*
X20300000Y-19800000D02*
X62900000Y-19800000D01*
D11*
G04 #@! TO.P,J3,15*
G04 #@! TO.N,315*
X59260000Y-21100000D03*
G04 #@! TO.P,J3,14*
G04 #@! TO.N,314*
X56720000Y-21100000D03*
G04 #@! TO.P,J3,13*
G04 #@! TO.N,313*
X54180000Y-21100000D03*
G04 #@! TO.P,J3,12*
G04 #@! TO.N,GND*
X51640000Y-21100000D03*
G04 #@! TO.P,J3,11*
G04 #@! TO.N,311*
X49100000Y-21100000D03*
G04 #@! TO.P,J3,10*
G04 #@! TO.N,310*
X46560000Y-21100000D03*
G04 #@! TO.P,J3,9*
G04 #@! TO.N,39*
X44020000Y-21100000D03*
G04 #@! TO.P,J3,8*
G04 #@! TO.N,38*
X41480000Y-21100000D03*
G04 #@! TO.P,J3,7*
G04 #@! TO.N,37*
X38940000Y-21100000D03*
G04 #@! TO.P,J3,6*
G04 #@! TO.N,36*
X36400000Y-21100000D03*
G04 #@! TO.P,J3,5*
G04 #@! TO.N,35*
X33860000Y-21100000D03*
G04 #@! TO.P,J3,4*
G04 #@! TO.N,INT_N*
X31320000Y-21100000D03*
G04 #@! TO.P,J3,3*
G04 #@! TO.N,33*
X28780000Y-21100000D03*
G04 #@! TO.P,J3,2*
G04 #@! TO.N,32*
X26240000Y-21100000D03*
D12*
G04 #@! TO.P,J3,1*
G04 #@! TO.N,31*
X23700000Y-21100000D03*
G04 #@! TD*
D11*
G04 #@! TO.P,J4,15*
G04 #@! TO.N,VIN*
X59260000Y-36100000D03*
G04 #@! TO.P,J4,14*
G04 #@! TO.N,GND*
X56720000Y-36100000D03*
G04 #@! TO.P,J4,13*
G04 #@! TO.N,413*
X54180000Y-36100000D03*
G04 #@! TO.P,J4,12*
G04 #@! TO.N,+3V3*
X51640000Y-36100000D03*
G04 #@! TO.P,J4,11*
G04 #@! TO.N,411*
X49100000Y-36100000D03*
G04 #@! TO.P,J4,10*
G04 #@! TO.N,410*
X46560000Y-36100000D03*
G04 #@! TO.P,J4,9*
G04 #@! TO.N,49*
X44020000Y-36100000D03*
G04 #@! TO.P,J4,8*
G04 #@! TO.N,48*
X41480000Y-36100000D03*
G04 #@! TO.P,J4,7*
G04 #@! TO.N,47*
X38940000Y-36100000D03*
G04 #@! TO.P,J4,6*
G04 #@! TO.N,46*
X36400000Y-36100000D03*
G04 #@! TO.P,J4,5*
G04 #@! TO.N,45*
X33860000Y-36100000D03*
G04 #@! TO.P,J4,4*
G04 #@! TO.N,44*
X31320000Y-36100000D03*
G04 #@! TO.P,J4,3*
G04 #@! TO.N,43*
X28780000Y-36100000D03*
G04 #@! TO.P,J4,2*
G04 #@! TO.N,+3V3*
X26240000Y-36100000D03*
D12*
G04 #@! TO.P,J4,1*
G04 #@! TO.N,41*
X23700000Y-36100000D03*
G04 #@! TD*
D11*
G04 #@! TO.P,J5,4*
G04 #@! TO.N,GND*
X59200000Y-32470000D03*
G04 #@! TO.P,J5,3*
G04 #@! TO.N,SWCLK*
X59200000Y-29930000D03*
G04 #@! TO.P,J5,2*
G04 #@! TO.N,SWDIO*
X59200000Y-27390000D03*
D12*
G04 #@! TO.P,J5,1*
G04 #@! TO.N,+3V3*
X59200000Y-24850000D03*
G04 #@! TD*
D13*
G04 #@! TO.P,J1,S1*
G04 #@! TO.N,GND*
X25454999Y-24250000D03*
X25454999Y-32890000D03*
D14*
X21274999Y-24250000D03*
X21274999Y-32890000D03*
G04 #@! TD*
D15*
G04 #@! TO.N,GND*
X50300000Y-36750000D03*
X52900000Y-36800000D03*
X43600000Y-30700000D03*
X42350000Y-31250000D03*
X34100000Y-32000000D03*
X37900000Y-27100000D03*
X45500000Y-28700000D03*
X39900000Y-28600000D03*
X42700000Y-25700000D03*
X34400000Y-27900000D03*
X46100000Y-23200000D03*
X46800000Y-23200000D03*
X30550000Y-32900000D03*
X25150000Y-34950000D03*
X50250000Y-32850000D03*
X51350000Y-27850000D03*
X54000000Y-27700000D03*
X32000000Y-30100000D03*
X32677831Y-21685988D03*
X47800000Y-36800000D03*
X27500000Y-36800000D03*
X30050000Y-36850000D03*
X32550000Y-36800000D03*
X25050000Y-20400000D03*
X27500000Y-20400000D03*
X35150000Y-20400000D03*
X37650000Y-20400000D03*
X45250000Y-20350000D03*
X42750000Y-20350000D03*
X47850000Y-20350000D03*
X40150000Y-20400000D03*
X32600000Y-20400000D03*
X51500000Y-24100000D03*
X56100000Y-25050000D03*
X56100000Y-23400000D03*
X58500000Y-23200000D03*
X58000000Y-20400000D03*
X55400000Y-20400000D03*
X39500000Y-22500000D03*
X36325000Y-24700000D03*
X51400000Y-30575000D03*
X53950000Y-32710510D03*
X50049521Y-31614490D03*
X47950000Y-28525000D03*
X41285965Y-33185965D03*
X30809501Y-24965499D03*
X31825000Y-28275000D03*
X38150000Y-25025000D03*
G04 #@! TO.N,VBUS*
X24500000Y-28800000D03*
X27700000Y-31500000D03*
X27700000Y-30900000D03*
X24500000Y-29700000D03*
X24500000Y-27900000D03*
X30550000Y-32025000D03*
D16*
X48456615Y-24250479D03*
D15*
X25150000Y-27200000D03*
X25150000Y-30250000D03*
X27695154Y-26355022D03*
G04 #@! TO.N,+3V3*
X56817211Y-27442634D03*
X50213064Y-28900000D03*
X44700000Y-23600000D03*
X37700000Y-28400000D03*
X37789027Y-34443026D03*
X34081842Y-34460831D03*
X38125000Y-23650000D03*
X28592990Y-28500000D03*
X30728163Y-22721837D03*
X26600000Y-22800000D03*
X27775000Y-25600000D03*
G04 #@! TO.N,Net-(R5-Pad1)*
X49400000Y-33400008D03*
X46419696Y-31198766D03*
X48225000Y-27475000D03*
G04 #@! TO.N,SWCLK*
X42900000Y-33800000D03*
G04 #@! TO.N,SWDIO*
X40098260Y-33246803D03*
G04 #@! TO.N,INT_N*
X36022532Y-28945561D03*
X36991401Y-30431042D03*
X33364577Y-24664577D03*
G04 #@! TO.N,SDA*
X35091649Y-27034322D03*
X37205079Y-25949202D03*
G04 #@! TO.N,SCL*
X35585423Y-26014577D03*
X37243517Y-25193166D03*
G04 #@! TO.N,USB_P*
X36135073Y-33653275D03*
X29775000Y-29400000D03*
G04 #@! TO.N,USB_N*
X36718588Y-33171011D03*
X29800000Y-27575000D03*
D16*
G04 #@! TO.N,VIN*
X49413054Y-26626108D03*
D15*
G04 #@! TO.N,315*
X39203875Y-31598615D03*
G04 #@! TO.N,314*
X39939864Y-31775780D03*
G04 #@! TO.N,313*
X54942216Y-32057784D03*
X48535510Y-31400720D03*
G04 #@! TO.N,33*
X31987115Y-22312885D03*
G04 #@! TO.N,32*
X37061841Y-32064490D03*
X33269503Y-26301268D03*
G04 #@! TO.N,31*
X36275599Y-31713774D03*
X32700000Y-26800000D03*
G04 #@! TO.N,413*
X47000000Y-33000000D03*
G04 #@! TO.N,411*
X46300000Y-33535510D03*
G04 #@! TO.N,410*
X45520533Y-33834528D03*
G04 #@! TO.N,49*
X45683485Y-32152439D03*
G04 #@! TO.N,48*
X46468088Y-32111434D03*
G04 #@! TO.N,47*
X39035307Y-26151680D03*
G04 #@! TO.N,46*
X44135510Y-33594879D03*
X40200000Y-35599994D03*
G04 #@! TO.N,45*
X47381696Y-31370610D03*
X40091159Y-34760814D03*
G04 #@! TO.N,44*
X39125000Y-25400000D03*
G04 #@! TO.N,41*
X32200000Y-32600000D03*
G04 #@! TD*
D17*
G04 #@! TO.N,VBUS*
X28225000Y-32025000D02*
X27700000Y-31500000D01*
X30550000Y-32025000D02*
X28225000Y-32025000D01*
D18*
X47890930Y-24250479D02*
X48456615Y-24250479D01*
X47759174Y-24382235D02*
X47890930Y-24250479D01*
X44282235Y-24382235D02*
X47759174Y-24382235D01*
X44100000Y-24200000D02*
X44282235Y-24382235D01*
X38440361Y-24307001D02*
X38547362Y-24200000D01*
X30800000Y-26300000D02*
X33200000Y-23900000D01*
X36802638Y-23900000D02*
X37209639Y-24307001D01*
X37209639Y-24307001D02*
X38440361Y-24307001D01*
X33200000Y-23900000D02*
X36802638Y-23900000D01*
X38547362Y-24200000D02*
X44100000Y-24200000D01*
X24500000Y-29700000D02*
X28375000Y-29700000D01*
X28375000Y-29700000D02*
X29250000Y-28825000D01*
X29250000Y-28825000D02*
X29250000Y-28050000D01*
X29250000Y-28050000D02*
X29075000Y-27875000D01*
X29075000Y-26925000D02*
X29700000Y-26300000D01*
X29075000Y-27875000D02*
X29075000Y-26925000D01*
X29700000Y-26300000D02*
X30800000Y-26300000D01*
X27695154Y-28395154D02*
X27695154Y-26779286D01*
X27695154Y-26779286D02*
X27695154Y-26355022D01*
X27800000Y-28500000D02*
X27695154Y-28395154D01*
D17*
G04 #@! TO.N,+3V3*
X56817211Y-27442634D02*
X55359845Y-28900000D01*
X55359845Y-28900000D02*
X50637328Y-28900000D01*
X50637328Y-28900000D02*
X50213064Y-28900000D01*
D19*
X27879169Y-34460831D02*
X33657578Y-34460831D01*
X33657578Y-34460831D02*
X34081842Y-34460831D01*
X26240000Y-36100000D02*
X27879169Y-34460831D01*
X38089026Y-34143027D02*
X37789027Y-34443026D01*
X38132862Y-34099191D02*
X38089026Y-34143027D01*
X38132862Y-28832862D02*
X38132862Y-34099191D01*
X37700000Y-28400000D02*
X38132862Y-28832862D01*
D18*
X44700000Y-23600000D02*
X38175000Y-23600000D01*
X38175000Y-23600000D02*
X38125000Y-23650000D01*
D17*
X26678163Y-22721837D02*
X26600000Y-22800000D01*
X30728163Y-22721837D02*
X26678163Y-22721837D01*
D20*
X28592990Y-26417990D02*
X28074999Y-25899999D01*
X28592990Y-28500000D02*
X28592990Y-26417990D01*
X28074999Y-25899999D02*
X27775000Y-25600000D01*
G04 #@! TO.N,Net-(R5-Pad1)*
X46719695Y-31498765D02*
X46419696Y-31198766D01*
X49400000Y-33400008D02*
X48620938Y-33400008D01*
X48524999Y-27774999D02*
X48524999Y-30150001D01*
X48225000Y-27475000D02*
X48524999Y-27774999D01*
X48524999Y-30150001D02*
X48000000Y-30675000D01*
X48000000Y-31675000D02*
X47447965Y-32227035D01*
X48000000Y-30675000D02*
X48000000Y-31675000D01*
X48620938Y-33400008D02*
X47447965Y-32227035D01*
X47447965Y-32227035D02*
X46719695Y-31498765D01*
G04 #@! TO.N,SWCLK*
X42900000Y-33375736D02*
X42900000Y-33800000D01*
X57900000Y-28630000D02*
X57900000Y-27000000D01*
X59200000Y-29930000D02*
X57900000Y-28630000D01*
X47300000Y-25900000D02*
X42900000Y-30300000D01*
X56800000Y-25900000D02*
X47300000Y-25900000D01*
X57900000Y-27000000D02*
X56800000Y-25900000D01*
X42900000Y-30300000D02*
X42900000Y-33375736D01*
G04 #@! TO.N,SWDIO*
X57395989Y-25585989D02*
X47169933Y-25585989D01*
X40900000Y-32445063D02*
X40398259Y-32946804D01*
X40398259Y-32946804D02*
X40098260Y-33246803D01*
X47169933Y-25585989D02*
X40900000Y-31855922D01*
X59200000Y-27390000D02*
X57395989Y-25585989D01*
X40900000Y-31855922D02*
X40900000Y-32445063D01*
D17*
G04 #@! TO.N,INT_N*
X36022532Y-28945561D02*
X36022532Y-29462173D01*
X36691402Y-30131043D02*
X36991401Y-30431042D01*
X36022532Y-29462173D02*
X36691402Y-30131043D01*
D20*
X31400000Y-21180000D02*
X31320000Y-21100000D01*
X35722533Y-28422533D02*
X34400000Y-27100000D01*
X34400000Y-27100000D02*
X34400000Y-25700000D01*
X34400000Y-25700000D02*
X33664576Y-24964576D01*
X33664576Y-24964576D02*
X33364577Y-24664577D01*
X35722533Y-28645562D02*
X35722533Y-28422533D01*
X36022532Y-28945561D02*
X35722533Y-28645562D01*
G04 #@! TO.N,SDA*
X36905080Y-26249201D02*
X37205079Y-25949202D01*
X35107500Y-26992500D02*
X36161781Y-26992500D01*
X36161781Y-26992500D02*
X36905080Y-26249201D01*
G04 #@! TO.N,SCL*
X36831098Y-25193166D02*
X37243517Y-25193166D01*
X35585423Y-26014577D02*
X36009687Y-26014577D01*
X36009687Y-26014577D02*
X36831098Y-25193166D01*
D17*
G04 #@! TO.N,USB_P*
X32306062Y-29400000D02*
X30199264Y-29400000D01*
X36135073Y-33229011D02*
X32306062Y-29400000D01*
X30199264Y-29400000D02*
X29775000Y-29400000D01*
X36135073Y-33653275D02*
X36135073Y-33229011D01*
G04 #@! TO.N,USB_N*
X30224264Y-27575000D02*
X29800000Y-27575000D01*
X31624264Y-28975000D02*
X30224264Y-27575000D01*
X36718588Y-33171011D02*
X32522577Y-28975000D01*
X32522577Y-28975000D02*
X31624264Y-28975000D01*
D18*
G04 #@! TO.N,VIN*
X49413054Y-27191793D02*
X49413054Y-26626108D01*
X49413054Y-29063054D02*
X49413054Y-27191793D01*
X54162081Y-29800000D02*
X50150000Y-29800000D01*
X59260000Y-36100000D02*
X59260000Y-34897919D01*
X50150000Y-29800000D02*
X49413054Y-29063054D01*
X59260000Y-34897919D02*
X54162081Y-29800000D01*
D20*
G04 #@! TO.N,315*
X47039866Y-25271978D02*
X40585989Y-31725855D01*
X40585989Y-32014011D02*
X40000000Y-32600000D01*
X40000000Y-32600000D02*
X39780996Y-32600000D01*
X39203875Y-32022879D02*
X39203875Y-31598615D01*
X40585989Y-31725855D02*
X40585989Y-32014011D01*
X55088022Y-25271978D02*
X47039866Y-25271978D01*
X59260000Y-21100000D02*
X55088022Y-25271978D01*
X39780996Y-32600000D02*
X39203875Y-32022879D01*
G04 #@! TO.N,314*
X56720000Y-21100000D02*
X52934011Y-24885989D01*
X40239863Y-31475781D02*
X39939864Y-31775780D01*
X46829655Y-24885989D02*
X40239863Y-31475781D01*
X52934011Y-24885989D02*
X46829655Y-24885989D01*
G04 #@! TO.N,313*
X48835509Y-31700719D02*
X48535510Y-31400720D01*
X49309790Y-32175000D02*
X48835509Y-31700719D01*
X54942216Y-32057784D02*
X54517952Y-32057784D01*
X54517952Y-32057784D02*
X54400736Y-32175000D01*
X54400736Y-32175000D02*
X49309790Y-32175000D01*
G04 #@! TO.N,33*
X29783449Y-22103449D02*
X30902318Y-22103449D01*
X30902318Y-22103449D02*
X31111754Y-22312885D01*
X28780000Y-21100000D02*
X29783449Y-22103449D01*
X31562851Y-22312885D02*
X31987115Y-22312885D01*
X31111754Y-22312885D02*
X31562851Y-22312885D01*
G04 #@! TO.N,32*
X37061841Y-31640226D02*
X33269503Y-27847888D01*
X33269503Y-26725532D02*
X33269503Y-26301268D01*
X33269503Y-27847888D02*
X33269503Y-26725532D01*
X37061841Y-32064490D02*
X37061841Y-31640226D01*
G04 #@! TO.N,31*
X36275599Y-31713774D02*
X32700000Y-28138175D01*
X32700000Y-27224264D02*
X32700000Y-26800000D01*
X32700000Y-28138175D02*
X32700000Y-27224264D01*
G04 #@! TO.N,413*
X48500000Y-34500000D02*
X47000000Y-33000000D01*
X54180000Y-36100000D02*
X52580000Y-34500000D01*
X52580000Y-34500000D02*
X48500000Y-34500000D01*
G04 #@! TO.N,411*
X49100000Y-36100000D02*
X46535510Y-33535510D01*
X46535510Y-33535510D02*
X46300000Y-33535510D01*
G04 #@! TO.N,410*
X46560000Y-36100000D02*
X46560000Y-34873995D01*
X46560000Y-34873995D02*
X45820532Y-34134527D01*
X45820532Y-34134527D02*
X45520533Y-33834528D01*
G04 #@! TO.N,49*
X44985023Y-32850901D02*
X45383486Y-32452438D01*
X44985023Y-35134977D02*
X44985023Y-32850901D01*
X45383486Y-32452438D02*
X45683485Y-32152439D01*
X44020000Y-36100000D02*
X44985023Y-35134977D01*
G04 #@! TO.N,48*
X46168089Y-31811435D02*
X46468088Y-32111434D01*
X46168089Y-31704485D02*
X46168089Y-31811435D01*
X42329999Y-35250001D02*
X43338155Y-35250001D01*
X44671012Y-33917144D02*
X44671012Y-32293770D01*
X45989419Y-31525815D02*
X46168089Y-31704485D01*
X41480000Y-36100000D02*
X42329999Y-35250001D01*
X45438967Y-31525815D02*
X45989419Y-31525815D01*
X43338155Y-35250001D02*
X44671012Y-33917144D01*
X44671012Y-32293770D02*
X45438967Y-31525815D01*
G04 #@! TO.N,47*
X38735308Y-26451679D02*
X39035307Y-26151680D01*
X38668373Y-26518614D02*
X38735308Y-26451679D01*
X38940000Y-34897919D02*
X38668373Y-34626292D01*
X38668373Y-34626292D02*
X38668373Y-26518614D01*
X38940000Y-36100000D02*
X38940000Y-34897919D01*
G04 #@! TO.N,46*
X40885983Y-34914011D02*
X40499999Y-35299995D01*
X43230067Y-34914011D02*
X40885983Y-34914011D01*
X44135510Y-33594879D02*
X44135510Y-34008568D01*
X40499999Y-35299995D02*
X40200000Y-35599994D01*
X44135510Y-34008568D02*
X43230067Y-34914011D01*
G04 #@! TO.N,45*
X43239187Y-34460815D02*
X40391158Y-34460815D01*
X45300000Y-30400000D02*
X43600000Y-32100000D01*
X43600000Y-32100000D02*
X43600000Y-34100002D01*
X43600000Y-34100002D02*
X43239187Y-34460815D01*
X40391158Y-34460815D02*
X40091159Y-34760814D01*
X46411086Y-30400000D02*
X45300000Y-30400000D01*
X47381696Y-31370610D02*
X46411086Y-30400000D01*
G04 #@! TO.N,44*
X31320000Y-36100000D02*
X32405501Y-35014499D01*
X36085501Y-35014499D02*
X37597351Y-33502649D01*
X32405501Y-35014499D02*
X36085501Y-35014499D01*
X37597351Y-33502649D02*
X37597351Y-29197351D01*
X37100000Y-27000736D02*
X38700736Y-25400000D01*
X37597351Y-29197351D02*
X37100000Y-28700000D01*
X38700736Y-25400000D02*
X39125000Y-25400000D01*
X37100000Y-28700000D02*
X37100000Y-27000736D01*
G04 #@! TO.N,41*
X23700000Y-35050000D02*
X23700000Y-36100000D01*
X25059990Y-33690010D02*
X23700000Y-35050000D01*
X31109990Y-33690010D02*
X25059990Y-33690010D01*
X32200000Y-32600000D02*
X31109990Y-33690010D01*
G04 #@! TD*
D21*
G04 #@! TO.N,VBUS*
G36*
X24413444Y-25524821D02*
X24392999Y-25627603D01*
X24392999Y-25732397D01*
X24413444Y-25835179D01*
X24453547Y-25931996D01*
X24511768Y-26019130D01*
X24585869Y-26093231D01*
X24673003Y-26151452D01*
X24769820Y-26191555D01*
X24872602Y-26212000D01*
X24977396Y-26212000D01*
X25080178Y-26191555D01*
X25176995Y-26151452D01*
X25264129Y-26093231D01*
X25338230Y-26019130D01*
X25396451Y-25931996D01*
X25436554Y-25835179D01*
X25456999Y-25732397D01*
X25456999Y-25627603D01*
X25436554Y-25524821D01*
X25405562Y-25450000D01*
X27288360Y-25450000D01*
X27287484Y-25452114D01*
X27268000Y-25550065D01*
X27268000Y-25649935D01*
X27287484Y-25747886D01*
X27325703Y-25840154D01*
X27381188Y-25923194D01*
X27451806Y-25993812D01*
X27534846Y-26049297D01*
X27627114Y-26087516D01*
X27725065Y-26107000D01*
X27824935Y-26107000D01*
X27869398Y-26098156D01*
X27883035Y-26111793D01*
X27883040Y-26111797D01*
X28050000Y-26278757D01*
X28050000Y-31750000D01*
X25371058Y-31750000D01*
X25396451Y-31711996D01*
X25436554Y-31615179D01*
X25456999Y-31512397D01*
X25456999Y-31407603D01*
X25436554Y-31304821D01*
X25396451Y-31208004D01*
X25338230Y-31120870D01*
X25264129Y-31046769D01*
X25176995Y-30988548D01*
X25080178Y-30948445D01*
X24977396Y-30928000D01*
X24872602Y-30928000D01*
X24769820Y-30948445D01*
X24673003Y-30988548D01*
X24585869Y-31046769D01*
X24511768Y-31120870D01*
X24453547Y-31208004D01*
X24413444Y-31304821D01*
X24392999Y-31407603D01*
X24392999Y-31512397D01*
X24413444Y-31615179D01*
X24453547Y-31711996D01*
X24478940Y-31750000D01*
X23950000Y-31750000D01*
X23950000Y-25450000D01*
X24444436Y-25450000D01*
X24413444Y-25524821D01*
X24413444Y-25524821D01*
G37*
X24413444Y-25524821D02*
X24392999Y-25627603D01*
X24392999Y-25732397D01*
X24413444Y-25835179D01*
X24453547Y-25931996D01*
X24511768Y-26019130D01*
X24585869Y-26093231D01*
X24673003Y-26151452D01*
X24769820Y-26191555D01*
X24872602Y-26212000D01*
X24977396Y-26212000D01*
X25080178Y-26191555D01*
X25176995Y-26151452D01*
X25264129Y-26093231D01*
X25338230Y-26019130D01*
X25396451Y-25931996D01*
X25436554Y-25835179D01*
X25456999Y-25732397D01*
X25456999Y-25627603D01*
X25436554Y-25524821D01*
X25405562Y-25450000D01*
X27288360Y-25450000D01*
X27287484Y-25452114D01*
X27268000Y-25550065D01*
X27268000Y-25649935D01*
X27287484Y-25747886D01*
X27325703Y-25840154D01*
X27381188Y-25923194D01*
X27451806Y-25993812D01*
X27534846Y-26049297D01*
X27627114Y-26087516D01*
X27725065Y-26107000D01*
X27824935Y-26107000D01*
X27869398Y-26098156D01*
X27883035Y-26111793D01*
X27883040Y-26111797D01*
X28050000Y-26278757D01*
X28050000Y-31750000D01*
X25371058Y-31750000D01*
X25396451Y-31711996D01*
X25436554Y-31615179D01*
X25456999Y-31512397D01*
X25456999Y-31407603D01*
X25436554Y-31304821D01*
X25396451Y-31208004D01*
X25338230Y-31120870D01*
X25264129Y-31046769D01*
X25176995Y-30988548D01*
X25080178Y-30948445D01*
X24977396Y-30928000D01*
X24872602Y-30928000D01*
X24769820Y-30948445D01*
X24673003Y-30988548D01*
X24585869Y-31046769D01*
X24511768Y-31120870D01*
X24453547Y-31208004D01*
X24413444Y-31304821D01*
X24392999Y-31407603D01*
X24392999Y-31512397D01*
X24413444Y-31615179D01*
X24453547Y-31711996D01*
X24478940Y-31750000D01*
X23950000Y-31750000D01*
X23950000Y-25450000D01*
X24444436Y-25450000D01*
X24413444Y-25524821D01*
D20*
G04 #@! TO.N,GND*
G36*
X48267060Y-34711123D02*
X48276894Y-34723106D01*
X48324707Y-34762344D01*
X48379256Y-34791502D01*
X48438445Y-34809456D01*
X48484578Y-34814000D01*
X48484580Y-34814000D01*
X48499999Y-34815519D01*
X48515418Y-34814000D01*
X52449938Y-34814000D01*
X53223219Y-35587281D01*
X53172277Y-35682587D01*
X53110206Y-35887205D01*
X53089248Y-36100000D01*
X53110206Y-36312795D01*
X53172277Y-36517413D01*
X53273073Y-36705989D01*
X53408722Y-36871278D01*
X53574011Y-37006927D01*
X53762587Y-37107723D01*
X53867340Y-37139500D01*
X51952660Y-37139500D01*
X52057413Y-37107723D01*
X52245989Y-37006927D01*
X52411278Y-36871278D01*
X52546927Y-36705989D01*
X52647723Y-36517413D01*
X52709794Y-36312795D01*
X52730752Y-36100000D01*
X52709794Y-35887205D01*
X52647723Y-35682587D01*
X52546927Y-35494011D01*
X52411278Y-35328722D01*
X52245989Y-35193073D01*
X52057413Y-35092277D01*
X51852795Y-35030206D01*
X51693326Y-35014500D01*
X51586674Y-35014500D01*
X51427205Y-35030206D01*
X51222587Y-35092277D01*
X51034011Y-35193073D01*
X50868722Y-35328722D01*
X50733073Y-35494011D01*
X50632277Y-35682587D01*
X50570206Y-35887205D01*
X50549248Y-36100000D01*
X50570206Y-36312795D01*
X50632277Y-36517413D01*
X50733073Y-36705989D01*
X50868722Y-36871278D01*
X51034011Y-37006927D01*
X51222587Y-37107723D01*
X51327340Y-37139500D01*
X49412660Y-37139500D01*
X49517413Y-37107723D01*
X49705989Y-37006927D01*
X49871278Y-36871278D01*
X50006927Y-36705989D01*
X50107723Y-36517413D01*
X50169794Y-36312795D01*
X50190752Y-36100000D01*
X50169794Y-35887205D01*
X50107723Y-35682587D01*
X50006927Y-35494011D01*
X49871278Y-35328722D01*
X49705989Y-35193073D01*
X49517413Y-35092277D01*
X49312795Y-35030206D01*
X49153326Y-35014500D01*
X49046674Y-35014500D01*
X48887205Y-35030206D01*
X48682587Y-35092277D01*
X48587282Y-35143219D01*
X46979562Y-33535500D01*
X47052742Y-33535500D01*
X47085018Y-33529080D01*
X48267060Y-34711123D01*
X48267060Y-34711123D01*
G37*
X48267060Y-34711123D02*
X48276894Y-34723106D01*
X48324707Y-34762344D01*
X48379256Y-34791502D01*
X48438445Y-34809456D01*
X48484578Y-34814000D01*
X48484580Y-34814000D01*
X48499999Y-34815519D01*
X48515418Y-34814000D01*
X52449938Y-34814000D01*
X53223219Y-35587281D01*
X53172277Y-35682587D01*
X53110206Y-35887205D01*
X53089248Y-36100000D01*
X53110206Y-36312795D01*
X53172277Y-36517413D01*
X53273073Y-36705989D01*
X53408722Y-36871278D01*
X53574011Y-37006927D01*
X53762587Y-37107723D01*
X53867340Y-37139500D01*
X51952660Y-37139500D01*
X52057413Y-37107723D01*
X52245989Y-37006927D01*
X52411278Y-36871278D01*
X52546927Y-36705989D01*
X52647723Y-36517413D01*
X52709794Y-36312795D01*
X52730752Y-36100000D01*
X52709794Y-35887205D01*
X52647723Y-35682587D01*
X52546927Y-35494011D01*
X52411278Y-35328722D01*
X52245989Y-35193073D01*
X52057413Y-35092277D01*
X51852795Y-35030206D01*
X51693326Y-35014500D01*
X51586674Y-35014500D01*
X51427205Y-35030206D01*
X51222587Y-35092277D01*
X51034011Y-35193073D01*
X50868722Y-35328722D01*
X50733073Y-35494011D01*
X50632277Y-35682587D01*
X50570206Y-35887205D01*
X50549248Y-36100000D01*
X50570206Y-36312795D01*
X50632277Y-36517413D01*
X50733073Y-36705989D01*
X50868722Y-36871278D01*
X51034011Y-37006927D01*
X51222587Y-37107723D01*
X51327340Y-37139500D01*
X49412660Y-37139500D01*
X49517413Y-37107723D01*
X49705989Y-37006927D01*
X49871278Y-36871278D01*
X50006927Y-36705989D01*
X50107723Y-36517413D01*
X50169794Y-36312795D01*
X50190752Y-36100000D01*
X50169794Y-35887205D01*
X50107723Y-35682587D01*
X50006927Y-35494011D01*
X49871278Y-35328722D01*
X49705989Y-35193073D01*
X49517413Y-35092277D01*
X49312795Y-35030206D01*
X49153326Y-35014500D01*
X49046674Y-35014500D01*
X48887205Y-35030206D01*
X48682587Y-35092277D01*
X48587282Y-35143219D01*
X46979562Y-33535500D01*
X47052742Y-33535500D01*
X47085018Y-33529080D01*
X48267060Y-34711123D01*
G36*
X48919429Y-26221000D02*
X48849881Y-26325086D01*
X48801976Y-26440739D01*
X48777554Y-26563517D01*
X48777554Y-26688699D01*
X48801976Y-26811477D01*
X48849881Y-26927130D01*
X48919429Y-27031216D01*
X48977554Y-27089341D01*
X48977554Y-27213186D01*
X48977555Y-27213196D01*
X48977554Y-29041662D01*
X48975447Y-29063054D01*
X48977554Y-29084445D01*
X48977554Y-29084447D01*
X48983855Y-29148426D01*
X49003560Y-29213382D01*
X49008758Y-29230518D01*
X49049197Y-29306175D01*
X49058980Y-29318095D01*
X49103619Y-29372489D01*
X49120242Y-29386131D01*
X49826927Y-30092817D01*
X49840565Y-30109435D01*
X49857182Y-30123072D01*
X49906878Y-30163857D01*
X49935688Y-30179256D01*
X49982535Y-30204296D01*
X50064627Y-30229199D01*
X50128606Y-30235500D01*
X50128608Y-30235500D01*
X50149999Y-30237607D01*
X50171391Y-30235500D01*
X53981692Y-30235500D01*
X58824501Y-35078310D01*
X58824501Y-35101944D01*
X58654011Y-35193073D01*
X58488722Y-35328722D01*
X58353073Y-35494011D01*
X58252277Y-35682587D01*
X58190206Y-35887205D01*
X58169248Y-36100000D01*
X58190206Y-36312795D01*
X58252277Y-36517413D01*
X58353073Y-36705989D01*
X58488722Y-36871278D01*
X58654011Y-37006927D01*
X58842587Y-37107723D01*
X58947340Y-37139500D01*
X54492660Y-37139500D01*
X54597413Y-37107723D01*
X54785989Y-37006927D01*
X54951278Y-36871278D01*
X55086927Y-36705989D01*
X55187723Y-36517413D01*
X55249794Y-36312795D01*
X55270752Y-36100000D01*
X55249794Y-35887205D01*
X55187723Y-35682587D01*
X55086927Y-35494011D01*
X54951278Y-35328722D01*
X54785989Y-35193073D01*
X54597413Y-35092277D01*
X54392795Y-35030206D01*
X54233326Y-35014500D01*
X54126674Y-35014500D01*
X53967205Y-35030206D01*
X53762587Y-35092277D01*
X53667281Y-35143219D01*
X52812944Y-34288882D01*
X52803106Y-34276894D01*
X52755293Y-34237656D01*
X52700744Y-34208498D01*
X52641555Y-34190544D01*
X52595422Y-34186000D01*
X52595421Y-34186000D01*
X52580000Y-34184481D01*
X52564579Y-34186000D01*
X48630063Y-34186000D01*
X47529080Y-33085018D01*
X47535500Y-33052742D01*
X47535500Y-32947258D01*
X47514921Y-32843800D01*
X47474554Y-32746346D01*
X47415950Y-32658639D01*
X47341361Y-32584050D01*
X47253654Y-32525446D01*
X47156200Y-32485079D01*
X47052742Y-32464500D01*
X46947258Y-32464500D01*
X46853729Y-32483104D01*
X46884038Y-32452795D01*
X46942642Y-32365088D01*
X46983009Y-32267634D01*
X46993211Y-32216344D01*
X47215034Y-32438167D01*
X47224860Y-32450140D01*
X47236833Y-32459966D01*
X47236838Y-32459971D01*
X47236843Y-32459975D01*
X48387998Y-33611131D01*
X48397832Y-33623114D01*
X48445645Y-33662352D01*
X48500194Y-33691510D01*
X48559383Y-33709464D01*
X48605516Y-33714008D01*
X48605518Y-33714008D01*
X48620937Y-33715527D01*
X48636356Y-33714008D01*
X48965768Y-33714008D01*
X48984050Y-33741369D01*
X49058639Y-33815958D01*
X49146346Y-33874562D01*
X49243800Y-33914929D01*
X49347258Y-33935508D01*
X49452742Y-33935508D01*
X49556200Y-33914929D01*
X49653654Y-33874562D01*
X49741361Y-33815958D01*
X49815950Y-33741369D01*
X49874554Y-33653662D01*
X49914921Y-33556208D01*
X49935500Y-33452750D01*
X49935500Y-33347266D01*
X49914921Y-33243808D01*
X49874554Y-33146354D01*
X49815950Y-33058647D01*
X49741361Y-32984058D01*
X49653654Y-32925454D01*
X49556200Y-32885087D01*
X49452742Y-32864508D01*
X49347258Y-32864508D01*
X49243800Y-32885087D01*
X49146346Y-32925454D01*
X49058639Y-32984058D01*
X48984050Y-33058647D01*
X48965768Y-33086008D01*
X48751001Y-33086008D01*
X47892027Y-32227035D01*
X48211123Y-31907940D01*
X48223106Y-31898106D01*
X48256014Y-31858007D01*
X48281856Y-31875274D01*
X48379310Y-31915641D01*
X48482768Y-31936220D01*
X48588252Y-31936220D01*
X48620527Y-31929800D01*
X48624382Y-31933655D01*
X48624387Y-31933659D01*
X49076850Y-32386123D01*
X49086684Y-32398106D01*
X49119100Y-32424708D01*
X49134497Y-32437344D01*
X49189046Y-32466502D01*
X49248235Y-32484456D01*
X49309790Y-32490519D01*
X49325211Y-32489000D01*
X54385315Y-32489000D01*
X54400736Y-32490519D01*
X54416157Y-32489000D01*
X54416158Y-32489000D01*
X54462291Y-32484456D01*
X54521480Y-32466502D01*
X54568493Y-32441372D01*
X54600855Y-32473734D01*
X54688562Y-32532338D01*
X54786016Y-32572705D01*
X54889474Y-32593284D01*
X54994958Y-32593284D01*
X55098416Y-32572705D01*
X55195870Y-32532338D01*
X55283577Y-32473734D01*
X55358166Y-32399145D01*
X55416770Y-32311438D01*
X55457137Y-32213984D01*
X55477716Y-32110526D01*
X55477716Y-32005042D01*
X55457137Y-31901584D01*
X55416770Y-31804130D01*
X55358166Y-31716423D01*
X55283577Y-31641834D01*
X55195870Y-31583230D01*
X55098416Y-31542863D01*
X54994958Y-31522284D01*
X54889474Y-31522284D01*
X54786016Y-31542863D01*
X54688562Y-31583230D01*
X54600855Y-31641834D01*
X54526266Y-31716423D01*
X54508368Y-31743209D01*
X54502532Y-31743784D01*
X54502530Y-31743784D01*
X54456397Y-31748328D01*
X54397208Y-31766282D01*
X54342659Y-31795440D01*
X54294846Y-31834678D01*
X54285008Y-31846666D01*
X54270674Y-31861000D01*
X49439853Y-31861000D01*
X49068449Y-31489597D01*
X49068445Y-31489592D01*
X49064590Y-31485737D01*
X49071010Y-31453462D01*
X49071010Y-31347978D01*
X49050431Y-31244520D01*
X49010064Y-31147066D01*
X48951460Y-31059359D01*
X48876871Y-30984770D01*
X48789164Y-30926166D01*
X48691710Y-30885799D01*
X48588252Y-30865220D01*
X48482768Y-30865220D01*
X48379310Y-30885799D01*
X48314000Y-30912851D01*
X48314000Y-30805062D01*
X48736122Y-30382941D01*
X48748105Y-30373107D01*
X48787343Y-30325294D01*
X48816501Y-30270745D01*
X48834455Y-30211556D01*
X48838999Y-30165423D01*
X48840518Y-30150001D01*
X48838999Y-30134580D01*
X48838999Y-27790420D01*
X48840518Y-27774999D01*
X48834455Y-27713444D01*
X48816501Y-27654255D01*
X48787343Y-27599706D01*
X48784375Y-27596089D01*
X48754215Y-27559338D01*
X48760500Y-27527742D01*
X48760500Y-27422258D01*
X48739921Y-27318800D01*
X48699554Y-27221346D01*
X48640950Y-27133639D01*
X48566361Y-27059050D01*
X48478654Y-27000446D01*
X48381200Y-26960079D01*
X48277742Y-26939500D01*
X48172258Y-26939500D01*
X48068800Y-26960079D01*
X47971346Y-27000446D01*
X47883639Y-27059050D01*
X47809050Y-27133639D01*
X47750446Y-27221346D01*
X47710079Y-27318800D01*
X47689500Y-27422258D01*
X47689500Y-27527742D01*
X47710079Y-27631200D01*
X47750446Y-27728654D01*
X47809050Y-27816361D01*
X47883639Y-27890950D01*
X47971346Y-27949554D01*
X48068800Y-27989921D01*
X48172258Y-28010500D01*
X48210999Y-28010500D01*
X48211000Y-30019937D01*
X47788882Y-30442056D01*
X47776894Y-30451894D01*
X47737656Y-30499708D01*
X47708498Y-30554257D01*
X47698493Y-30587242D01*
X47690544Y-30613446D01*
X47684481Y-30675000D01*
X47686000Y-30690422D01*
X47686000Y-30929899D01*
X47635350Y-30896056D01*
X47537896Y-30855689D01*
X47434438Y-30835110D01*
X47328954Y-30835110D01*
X47296679Y-30841530D01*
X46644030Y-30188882D01*
X46634192Y-30176894D01*
X46586379Y-30137656D01*
X46531830Y-30108498D01*
X46472641Y-30090544D01*
X46426508Y-30086000D01*
X46426507Y-30086000D01*
X46411086Y-30084481D01*
X46395665Y-30086000D01*
X45315421Y-30086000D01*
X45299999Y-30084481D01*
X45284578Y-30086000D01*
X45238445Y-30090544D01*
X45179256Y-30108498D01*
X45124707Y-30137656D01*
X45076894Y-30176894D01*
X45067060Y-30188877D01*
X43388882Y-31867056D01*
X43376894Y-31876894D01*
X43337656Y-31924708D01*
X43308498Y-31979257D01*
X43293278Y-32029433D01*
X43290544Y-32038446D01*
X43284481Y-32100000D01*
X43286000Y-32115422D01*
X43286001Y-33428690D01*
X43241361Y-33384050D01*
X43214000Y-33365768D01*
X43214000Y-30430062D01*
X47430063Y-26214000D01*
X48926429Y-26214000D01*
X48919429Y-26221000D01*
X48919429Y-26221000D01*
G37*
X48919429Y-26221000D02*
X48849881Y-26325086D01*
X48801976Y-26440739D01*
X48777554Y-26563517D01*
X48777554Y-26688699D01*
X48801976Y-26811477D01*
X48849881Y-26927130D01*
X48919429Y-27031216D01*
X48977554Y-27089341D01*
X48977554Y-27213186D01*
X48977555Y-27213196D01*
X48977554Y-29041662D01*
X48975447Y-29063054D01*
X48977554Y-29084445D01*
X48977554Y-29084447D01*
X48983855Y-29148426D01*
X49003560Y-29213382D01*
X49008758Y-29230518D01*
X49049197Y-29306175D01*
X49058980Y-29318095D01*
X49103619Y-29372489D01*
X49120242Y-29386131D01*
X49826927Y-30092817D01*
X49840565Y-30109435D01*
X49857182Y-30123072D01*
X49906878Y-30163857D01*
X49935688Y-30179256D01*
X49982535Y-30204296D01*
X50064627Y-30229199D01*
X50128606Y-30235500D01*
X50128608Y-30235500D01*
X50149999Y-30237607D01*
X50171391Y-30235500D01*
X53981692Y-30235500D01*
X58824501Y-35078310D01*
X58824501Y-35101944D01*
X58654011Y-35193073D01*
X58488722Y-35328722D01*
X58353073Y-35494011D01*
X58252277Y-35682587D01*
X58190206Y-35887205D01*
X58169248Y-36100000D01*
X58190206Y-36312795D01*
X58252277Y-36517413D01*
X58353073Y-36705989D01*
X58488722Y-36871278D01*
X58654011Y-37006927D01*
X58842587Y-37107723D01*
X58947340Y-37139500D01*
X54492660Y-37139500D01*
X54597413Y-37107723D01*
X54785989Y-37006927D01*
X54951278Y-36871278D01*
X55086927Y-36705989D01*
X55187723Y-36517413D01*
X55249794Y-36312795D01*
X55270752Y-36100000D01*
X55249794Y-35887205D01*
X55187723Y-35682587D01*
X55086927Y-35494011D01*
X54951278Y-35328722D01*
X54785989Y-35193073D01*
X54597413Y-35092277D01*
X54392795Y-35030206D01*
X54233326Y-35014500D01*
X54126674Y-35014500D01*
X53967205Y-35030206D01*
X53762587Y-35092277D01*
X53667281Y-35143219D01*
X52812944Y-34288882D01*
X52803106Y-34276894D01*
X52755293Y-34237656D01*
X52700744Y-34208498D01*
X52641555Y-34190544D01*
X52595422Y-34186000D01*
X52595421Y-34186000D01*
X52580000Y-34184481D01*
X52564579Y-34186000D01*
X48630063Y-34186000D01*
X47529080Y-33085018D01*
X47535500Y-33052742D01*
X47535500Y-32947258D01*
X47514921Y-32843800D01*
X47474554Y-32746346D01*
X47415950Y-32658639D01*
X47341361Y-32584050D01*
X47253654Y-32525446D01*
X47156200Y-32485079D01*
X47052742Y-32464500D01*
X46947258Y-32464500D01*
X46853729Y-32483104D01*
X46884038Y-32452795D01*
X46942642Y-32365088D01*
X46983009Y-32267634D01*
X46993211Y-32216344D01*
X47215034Y-32438167D01*
X47224860Y-32450140D01*
X47236833Y-32459966D01*
X47236838Y-32459971D01*
X47236843Y-32459975D01*
X48387998Y-33611131D01*
X48397832Y-33623114D01*
X48445645Y-33662352D01*
X48500194Y-33691510D01*
X48559383Y-33709464D01*
X48605516Y-33714008D01*
X48605518Y-33714008D01*
X48620937Y-33715527D01*
X48636356Y-33714008D01*
X48965768Y-33714008D01*
X48984050Y-33741369D01*
X49058639Y-33815958D01*
X49146346Y-33874562D01*
X49243800Y-33914929D01*
X49347258Y-33935508D01*
X49452742Y-33935508D01*
X49556200Y-33914929D01*
X49653654Y-33874562D01*
X49741361Y-33815958D01*
X49815950Y-33741369D01*
X49874554Y-33653662D01*
X49914921Y-33556208D01*
X49935500Y-33452750D01*
X49935500Y-33347266D01*
X49914921Y-33243808D01*
X49874554Y-33146354D01*
X49815950Y-33058647D01*
X49741361Y-32984058D01*
X49653654Y-32925454D01*
X49556200Y-32885087D01*
X49452742Y-32864508D01*
X49347258Y-32864508D01*
X49243800Y-32885087D01*
X49146346Y-32925454D01*
X49058639Y-32984058D01*
X48984050Y-33058647D01*
X48965768Y-33086008D01*
X48751001Y-33086008D01*
X47892027Y-32227035D01*
X48211123Y-31907940D01*
X48223106Y-31898106D01*
X48256014Y-31858007D01*
X48281856Y-31875274D01*
X48379310Y-31915641D01*
X48482768Y-31936220D01*
X48588252Y-31936220D01*
X48620527Y-31929800D01*
X48624382Y-31933655D01*
X48624387Y-31933659D01*
X49076850Y-32386123D01*
X49086684Y-32398106D01*
X49119100Y-32424708D01*
X49134497Y-32437344D01*
X49189046Y-32466502D01*
X49248235Y-32484456D01*
X49309790Y-32490519D01*
X49325211Y-32489000D01*
X54385315Y-32489000D01*
X54400736Y-32490519D01*
X54416157Y-32489000D01*
X54416158Y-32489000D01*
X54462291Y-32484456D01*
X54521480Y-32466502D01*
X54568493Y-32441372D01*
X54600855Y-32473734D01*
X54688562Y-32532338D01*
X54786016Y-32572705D01*
X54889474Y-32593284D01*
X54994958Y-32593284D01*
X55098416Y-32572705D01*
X55195870Y-32532338D01*
X55283577Y-32473734D01*
X55358166Y-32399145D01*
X55416770Y-32311438D01*
X55457137Y-32213984D01*
X55477716Y-32110526D01*
X55477716Y-32005042D01*
X55457137Y-31901584D01*
X55416770Y-31804130D01*
X55358166Y-31716423D01*
X55283577Y-31641834D01*
X55195870Y-31583230D01*
X55098416Y-31542863D01*
X54994958Y-31522284D01*
X54889474Y-31522284D01*
X54786016Y-31542863D01*
X54688562Y-31583230D01*
X54600855Y-31641834D01*
X54526266Y-31716423D01*
X54508368Y-31743209D01*
X54502532Y-31743784D01*
X54502530Y-31743784D01*
X54456397Y-31748328D01*
X54397208Y-31766282D01*
X54342659Y-31795440D01*
X54294846Y-31834678D01*
X54285008Y-31846666D01*
X54270674Y-31861000D01*
X49439853Y-31861000D01*
X49068449Y-31489597D01*
X49068445Y-31489592D01*
X49064590Y-31485737D01*
X49071010Y-31453462D01*
X49071010Y-31347978D01*
X49050431Y-31244520D01*
X49010064Y-31147066D01*
X48951460Y-31059359D01*
X48876871Y-30984770D01*
X48789164Y-30926166D01*
X48691710Y-30885799D01*
X48588252Y-30865220D01*
X48482768Y-30865220D01*
X48379310Y-30885799D01*
X48314000Y-30912851D01*
X48314000Y-30805062D01*
X48736122Y-30382941D01*
X48748105Y-30373107D01*
X48787343Y-30325294D01*
X48816501Y-30270745D01*
X48834455Y-30211556D01*
X48838999Y-30165423D01*
X48840518Y-30150001D01*
X48838999Y-30134580D01*
X48838999Y-27790420D01*
X48840518Y-27774999D01*
X48834455Y-27713444D01*
X48816501Y-27654255D01*
X48787343Y-27599706D01*
X48784375Y-27596089D01*
X48754215Y-27559338D01*
X48760500Y-27527742D01*
X48760500Y-27422258D01*
X48739921Y-27318800D01*
X48699554Y-27221346D01*
X48640950Y-27133639D01*
X48566361Y-27059050D01*
X48478654Y-27000446D01*
X48381200Y-26960079D01*
X48277742Y-26939500D01*
X48172258Y-26939500D01*
X48068800Y-26960079D01*
X47971346Y-27000446D01*
X47883639Y-27059050D01*
X47809050Y-27133639D01*
X47750446Y-27221346D01*
X47710079Y-27318800D01*
X47689500Y-27422258D01*
X47689500Y-27527742D01*
X47710079Y-27631200D01*
X47750446Y-27728654D01*
X47809050Y-27816361D01*
X47883639Y-27890950D01*
X47971346Y-27949554D01*
X48068800Y-27989921D01*
X48172258Y-28010500D01*
X48210999Y-28010500D01*
X48211000Y-30019937D01*
X47788882Y-30442056D01*
X47776894Y-30451894D01*
X47737656Y-30499708D01*
X47708498Y-30554257D01*
X47698493Y-30587242D01*
X47690544Y-30613446D01*
X47684481Y-30675000D01*
X47686000Y-30690422D01*
X47686000Y-30929899D01*
X47635350Y-30896056D01*
X47537896Y-30855689D01*
X47434438Y-30835110D01*
X47328954Y-30835110D01*
X47296679Y-30841530D01*
X46644030Y-30188882D01*
X46634192Y-30176894D01*
X46586379Y-30137656D01*
X46531830Y-30108498D01*
X46472641Y-30090544D01*
X46426508Y-30086000D01*
X46426507Y-30086000D01*
X46411086Y-30084481D01*
X46395665Y-30086000D01*
X45315421Y-30086000D01*
X45299999Y-30084481D01*
X45284578Y-30086000D01*
X45238445Y-30090544D01*
X45179256Y-30108498D01*
X45124707Y-30137656D01*
X45076894Y-30176894D01*
X45067060Y-30188877D01*
X43388882Y-31867056D01*
X43376894Y-31876894D01*
X43337656Y-31924708D01*
X43308498Y-31979257D01*
X43293278Y-32029433D01*
X43290544Y-32038446D01*
X43284481Y-32100000D01*
X43286000Y-32115422D01*
X43286001Y-33428690D01*
X43241361Y-33384050D01*
X43214000Y-33365768D01*
X43214000Y-30430062D01*
X47430063Y-26214000D01*
X48926429Y-26214000D01*
X48919429Y-26221000D01*
G36*
X48143219Y-35587282D02*
X48092277Y-35682587D01*
X48030206Y-35887205D01*
X48009248Y-36100000D01*
X48030206Y-36312795D01*
X48092277Y-36517413D01*
X48193073Y-36705989D01*
X48328722Y-36871278D01*
X48494011Y-37006927D01*
X48682587Y-37107723D01*
X48787340Y-37139500D01*
X46872660Y-37139500D01*
X46977413Y-37107723D01*
X47165989Y-37006927D01*
X47331278Y-36871278D01*
X47466927Y-36705989D01*
X47567723Y-36517413D01*
X47629794Y-36312795D01*
X47650752Y-36100000D01*
X47629794Y-35887205D01*
X47567723Y-35682587D01*
X47466927Y-35494011D01*
X47331278Y-35328722D01*
X47165989Y-35193073D01*
X46977413Y-35092277D01*
X46874000Y-35060907D01*
X46874000Y-34889416D01*
X46875519Y-34873995D01*
X46869456Y-34812440D01*
X46851502Y-34753251D01*
X46822344Y-34698702D01*
X46810213Y-34683920D01*
X46783106Y-34650889D01*
X46771123Y-34641055D01*
X46189610Y-34059543D01*
X46247258Y-34071010D01*
X46352742Y-34071010D01*
X46456200Y-34050431D01*
X46553654Y-34010064D01*
X46561056Y-34005118D01*
X48143219Y-35587282D01*
X48143219Y-35587282D01*
G37*
X48143219Y-35587282D02*
X48092277Y-35682587D01*
X48030206Y-35887205D01*
X48009248Y-36100000D01*
X48030206Y-36312795D01*
X48092277Y-36517413D01*
X48193073Y-36705989D01*
X48328722Y-36871278D01*
X48494011Y-37006927D01*
X48682587Y-37107723D01*
X48787340Y-37139500D01*
X46872660Y-37139500D01*
X46977413Y-37107723D01*
X47165989Y-37006927D01*
X47331278Y-36871278D01*
X47466927Y-36705989D01*
X47567723Y-36517413D01*
X47629794Y-36312795D01*
X47650752Y-36100000D01*
X47629794Y-35887205D01*
X47567723Y-35682587D01*
X47466927Y-35494011D01*
X47331278Y-35328722D01*
X47165989Y-35193073D01*
X46977413Y-35092277D01*
X46874000Y-35060907D01*
X46874000Y-34889416D01*
X46875519Y-34873995D01*
X46869456Y-34812440D01*
X46851502Y-34753251D01*
X46822344Y-34698702D01*
X46810213Y-34683920D01*
X46783106Y-34650889D01*
X46771123Y-34641055D01*
X46189610Y-34059543D01*
X46247258Y-34071010D01*
X46352742Y-34071010D01*
X46456200Y-34050431D01*
X46553654Y-34010064D01*
X46561056Y-34005118D01*
X48143219Y-35587282D01*
G36*
X62907432Y-20062478D02*
X62914573Y-20064634D01*
X62921165Y-20068139D01*
X62926955Y-20072861D01*
X62931710Y-20078608D01*
X62935262Y-20085179D01*
X62937470Y-20092311D01*
X62939500Y-20111624D01*
X62939501Y-37087250D01*
X62937522Y-37107432D01*
X62935366Y-37114575D01*
X62931862Y-37121163D01*
X62927140Y-37126954D01*
X62921389Y-37131711D01*
X62914821Y-37135263D01*
X62907690Y-37137470D01*
X62888376Y-37139500D01*
X59572660Y-37139500D01*
X59677413Y-37107723D01*
X59865989Y-37006927D01*
X60031278Y-36871278D01*
X60166927Y-36705989D01*
X60267723Y-36517413D01*
X60329794Y-36312795D01*
X60350752Y-36100000D01*
X60329794Y-35887205D01*
X60267723Y-35682587D01*
X60166927Y-35494011D01*
X60031278Y-35328722D01*
X59865989Y-35193073D01*
X59695500Y-35101945D01*
X59695500Y-34919310D01*
X59697607Y-34897918D01*
X59695251Y-34873995D01*
X59689199Y-34812546D01*
X59664296Y-34730454D01*
X59633021Y-34671942D01*
X59623857Y-34654797D01*
X59583072Y-34605101D01*
X59569435Y-34588484D01*
X59552817Y-34574846D01*
X54485158Y-29507188D01*
X54471516Y-29490565D01*
X54405202Y-29436143D01*
X54329546Y-29395704D01*
X54247454Y-29370801D01*
X54183475Y-29364500D01*
X54183472Y-29364500D01*
X54162081Y-29362393D01*
X54140690Y-29364500D01*
X50481765Y-29364500D01*
X50554425Y-29315950D01*
X50629014Y-29241361D01*
X50632930Y-29235500D01*
X55343367Y-29235500D01*
X55359845Y-29237123D01*
X55425614Y-29230645D01*
X55430061Y-29229296D01*
X55488856Y-29211461D01*
X55547141Y-29180308D01*
X55598227Y-29138382D01*
X55608736Y-29125577D01*
X56757555Y-27976759D01*
X56764469Y-27978134D01*
X56869953Y-27978134D01*
X56973411Y-27957555D01*
X57070865Y-27917188D01*
X57158572Y-27858584D01*
X57233161Y-27783995D01*
X57291765Y-27696288D01*
X57332132Y-27598834D01*
X57352711Y-27495376D01*
X57352711Y-27389892D01*
X57332132Y-27286434D01*
X57291765Y-27188980D01*
X57233161Y-27101273D01*
X57158572Y-27026684D01*
X57070865Y-26968080D01*
X56973411Y-26927713D01*
X56869953Y-26907134D01*
X56764469Y-26907134D01*
X56661011Y-26927713D01*
X56563557Y-26968080D01*
X56475850Y-27026684D01*
X56401261Y-27101273D01*
X56342657Y-27188980D01*
X56302290Y-27286434D01*
X56281711Y-27389892D01*
X56281711Y-27495376D01*
X56283086Y-27502290D01*
X55220877Y-28564500D01*
X50632930Y-28564500D01*
X50629014Y-28558639D01*
X50554425Y-28484050D01*
X50466718Y-28425446D01*
X50369264Y-28385079D01*
X50265806Y-28364500D01*
X50160322Y-28364500D01*
X50056864Y-28385079D01*
X49959410Y-28425446D01*
X49871703Y-28484050D01*
X49848554Y-28507199D01*
X49848554Y-27089341D01*
X49906679Y-27031216D01*
X49976227Y-26927130D01*
X50024132Y-26811477D01*
X50048554Y-26688699D01*
X50048554Y-26563517D01*
X50024132Y-26440739D01*
X49976227Y-26325086D01*
X49906679Y-26221000D01*
X49899679Y-26214000D01*
X56669938Y-26214000D01*
X57586001Y-27130064D01*
X57586000Y-28614578D01*
X57584481Y-28630000D01*
X57586000Y-28645421D01*
X57590544Y-28691554D01*
X57608498Y-28750743D01*
X57637656Y-28805292D01*
X57676894Y-28853106D01*
X57688882Y-28862944D01*
X58243219Y-29417281D01*
X58192277Y-29512587D01*
X58130206Y-29717205D01*
X58109248Y-29930000D01*
X58130206Y-30142795D01*
X58192277Y-30347413D01*
X58293073Y-30535989D01*
X58428722Y-30701278D01*
X58594011Y-30836927D01*
X58782587Y-30937723D01*
X58987205Y-30999794D01*
X59146674Y-31015500D01*
X59253326Y-31015500D01*
X59412795Y-30999794D01*
X59617413Y-30937723D01*
X59805989Y-30836927D01*
X59971278Y-30701278D01*
X60106927Y-30535989D01*
X60207723Y-30347413D01*
X60269794Y-30142795D01*
X60290752Y-29930000D01*
X60269794Y-29717205D01*
X60207723Y-29512587D01*
X60106927Y-29324011D01*
X59971278Y-29158722D01*
X59805989Y-29023073D01*
X59617413Y-28922277D01*
X59412795Y-28860206D01*
X59253326Y-28844500D01*
X59146674Y-28844500D01*
X58987205Y-28860206D01*
X58782587Y-28922277D01*
X58687281Y-28973219D01*
X58214000Y-28499938D01*
X58214000Y-27848054D01*
X58293073Y-27995989D01*
X58428722Y-28161278D01*
X58594011Y-28296927D01*
X58782587Y-28397723D01*
X58987205Y-28459794D01*
X59146674Y-28475500D01*
X59253326Y-28475500D01*
X59412795Y-28459794D01*
X59617413Y-28397723D01*
X59805989Y-28296927D01*
X59971278Y-28161278D01*
X60106927Y-27995989D01*
X60207723Y-27807413D01*
X60269794Y-27602795D01*
X60290752Y-27390000D01*
X60269794Y-27177205D01*
X60207723Y-26972587D01*
X60106927Y-26784011D01*
X59971278Y-26618722D01*
X59805989Y-26483073D01*
X59617413Y-26382277D01*
X59412795Y-26320206D01*
X59253326Y-26304500D01*
X59146674Y-26304500D01*
X58987205Y-26320206D01*
X58782587Y-26382277D01*
X58687281Y-26433219D01*
X57628933Y-25374871D01*
X57619095Y-25362883D01*
X57571282Y-25323645D01*
X57516733Y-25294487D01*
X57457544Y-25276533D01*
X57411411Y-25271989D01*
X57411410Y-25271989D01*
X57395989Y-25270470D01*
X57380568Y-25271989D01*
X55532073Y-25271989D01*
X56804062Y-24000000D01*
X58113361Y-24000000D01*
X58113361Y-25700000D01*
X58117908Y-25746166D01*
X58131374Y-25790558D01*
X58153242Y-25831470D01*
X58182671Y-25867329D01*
X58218530Y-25896758D01*
X58259442Y-25918626D01*
X58303834Y-25932092D01*
X58350000Y-25936639D01*
X60050000Y-25936639D01*
X60096166Y-25932092D01*
X60140558Y-25918626D01*
X60181470Y-25896758D01*
X60217329Y-25867329D01*
X60246758Y-25831470D01*
X60268626Y-25790558D01*
X60282092Y-25746166D01*
X60286639Y-25700000D01*
X60286639Y-24000000D01*
X60282092Y-23953834D01*
X60268626Y-23909442D01*
X60246758Y-23868530D01*
X60217329Y-23832671D01*
X60181470Y-23803242D01*
X60140558Y-23781374D01*
X60096166Y-23767908D01*
X60050000Y-23763361D01*
X58350000Y-23763361D01*
X58303834Y-23767908D01*
X58259442Y-23781374D01*
X58218530Y-23803242D01*
X58182671Y-23832671D01*
X58153242Y-23868530D01*
X58131374Y-23909442D01*
X58117908Y-23953834D01*
X58113361Y-24000000D01*
X56804062Y-24000000D01*
X58747282Y-22056781D01*
X58842587Y-22107723D01*
X59047205Y-22169794D01*
X59206674Y-22185500D01*
X59313326Y-22185500D01*
X59472795Y-22169794D01*
X59677413Y-22107723D01*
X59865989Y-22006927D01*
X60031278Y-21871278D01*
X60166927Y-21705989D01*
X60267723Y-21517413D01*
X60329794Y-21312795D01*
X60350752Y-21100000D01*
X60329794Y-20887205D01*
X60267723Y-20682587D01*
X60166927Y-20494011D01*
X60031278Y-20328722D01*
X59865989Y-20193073D01*
X59677413Y-20092277D01*
X59572660Y-20060500D01*
X62887260Y-20060500D01*
X62907432Y-20062478D01*
X62907432Y-20062478D01*
G37*
X62907432Y-20062478D02*
X62914573Y-20064634D01*
X62921165Y-20068139D01*
X62926955Y-20072861D01*
X62931710Y-20078608D01*
X62935262Y-20085179D01*
X62937470Y-20092311D01*
X62939500Y-20111624D01*
X62939501Y-37087250D01*
X62937522Y-37107432D01*
X62935366Y-37114575D01*
X62931862Y-37121163D01*
X62927140Y-37126954D01*
X62921389Y-37131711D01*
X62914821Y-37135263D01*
X62907690Y-37137470D01*
X62888376Y-37139500D01*
X59572660Y-37139500D01*
X59677413Y-37107723D01*
X59865989Y-37006927D01*
X60031278Y-36871278D01*
X60166927Y-36705989D01*
X60267723Y-36517413D01*
X60329794Y-36312795D01*
X60350752Y-36100000D01*
X60329794Y-35887205D01*
X60267723Y-35682587D01*
X60166927Y-35494011D01*
X60031278Y-35328722D01*
X59865989Y-35193073D01*
X59695500Y-35101945D01*
X59695500Y-34919310D01*
X59697607Y-34897918D01*
X59695251Y-34873995D01*
X59689199Y-34812546D01*
X59664296Y-34730454D01*
X59633021Y-34671942D01*
X59623857Y-34654797D01*
X59583072Y-34605101D01*
X59569435Y-34588484D01*
X59552817Y-34574846D01*
X54485158Y-29507188D01*
X54471516Y-29490565D01*
X54405202Y-29436143D01*
X54329546Y-29395704D01*
X54247454Y-29370801D01*
X54183475Y-29364500D01*
X54183472Y-29364500D01*
X54162081Y-29362393D01*
X54140690Y-29364500D01*
X50481765Y-29364500D01*
X50554425Y-29315950D01*
X50629014Y-29241361D01*
X50632930Y-29235500D01*
X55343367Y-29235500D01*
X55359845Y-29237123D01*
X55425614Y-29230645D01*
X55430061Y-29229296D01*
X55488856Y-29211461D01*
X55547141Y-29180308D01*
X55598227Y-29138382D01*
X55608736Y-29125577D01*
X56757555Y-27976759D01*
X56764469Y-27978134D01*
X56869953Y-27978134D01*
X56973411Y-27957555D01*
X57070865Y-27917188D01*
X57158572Y-27858584D01*
X57233161Y-27783995D01*
X57291765Y-27696288D01*
X57332132Y-27598834D01*
X57352711Y-27495376D01*
X57352711Y-27389892D01*
X57332132Y-27286434D01*
X57291765Y-27188980D01*
X57233161Y-27101273D01*
X57158572Y-27026684D01*
X57070865Y-26968080D01*
X56973411Y-26927713D01*
X56869953Y-26907134D01*
X56764469Y-26907134D01*
X56661011Y-26927713D01*
X56563557Y-26968080D01*
X56475850Y-27026684D01*
X56401261Y-27101273D01*
X56342657Y-27188980D01*
X56302290Y-27286434D01*
X56281711Y-27389892D01*
X56281711Y-27495376D01*
X56283086Y-27502290D01*
X55220877Y-28564500D01*
X50632930Y-28564500D01*
X50629014Y-28558639D01*
X50554425Y-28484050D01*
X50466718Y-28425446D01*
X50369264Y-28385079D01*
X50265806Y-28364500D01*
X50160322Y-28364500D01*
X50056864Y-28385079D01*
X49959410Y-28425446D01*
X49871703Y-28484050D01*
X49848554Y-28507199D01*
X49848554Y-27089341D01*
X49906679Y-27031216D01*
X49976227Y-26927130D01*
X50024132Y-26811477D01*
X50048554Y-26688699D01*
X50048554Y-26563517D01*
X50024132Y-26440739D01*
X49976227Y-26325086D01*
X49906679Y-26221000D01*
X49899679Y-26214000D01*
X56669938Y-26214000D01*
X57586001Y-27130064D01*
X57586000Y-28614578D01*
X57584481Y-28630000D01*
X57586000Y-28645421D01*
X57590544Y-28691554D01*
X57608498Y-28750743D01*
X57637656Y-28805292D01*
X57676894Y-28853106D01*
X57688882Y-28862944D01*
X58243219Y-29417281D01*
X58192277Y-29512587D01*
X58130206Y-29717205D01*
X58109248Y-29930000D01*
X58130206Y-30142795D01*
X58192277Y-30347413D01*
X58293073Y-30535989D01*
X58428722Y-30701278D01*
X58594011Y-30836927D01*
X58782587Y-30937723D01*
X58987205Y-30999794D01*
X59146674Y-31015500D01*
X59253326Y-31015500D01*
X59412795Y-30999794D01*
X59617413Y-30937723D01*
X59805989Y-30836927D01*
X59971278Y-30701278D01*
X60106927Y-30535989D01*
X60207723Y-30347413D01*
X60269794Y-30142795D01*
X60290752Y-29930000D01*
X60269794Y-29717205D01*
X60207723Y-29512587D01*
X60106927Y-29324011D01*
X59971278Y-29158722D01*
X59805989Y-29023073D01*
X59617413Y-28922277D01*
X59412795Y-28860206D01*
X59253326Y-28844500D01*
X59146674Y-28844500D01*
X58987205Y-28860206D01*
X58782587Y-28922277D01*
X58687281Y-28973219D01*
X58214000Y-28499938D01*
X58214000Y-27848054D01*
X58293073Y-27995989D01*
X58428722Y-28161278D01*
X58594011Y-28296927D01*
X58782587Y-28397723D01*
X58987205Y-28459794D01*
X59146674Y-28475500D01*
X59253326Y-28475500D01*
X59412795Y-28459794D01*
X59617413Y-28397723D01*
X59805989Y-28296927D01*
X59971278Y-28161278D01*
X60106927Y-27995989D01*
X60207723Y-27807413D01*
X60269794Y-27602795D01*
X60290752Y-27390000D01*
X60269794Y-27177205D01*
X60207723Y-26972587D01*
X60106927Y-26784011D01*
X59971278Y-26618722D01*
X59805989Y-26483073D01*
X59617413Y-26382277D01*
X59412795Y-26320206D01*
X59253326Y-26304500D01*
X59146674Y-26304500D01*
X58987205Y-26320206D01*
X58782587Y-26382277D01*
X58687281Y-26433219D01*
X57628933Y-25374871D01*
X57619095Y-25362883D01*
X57571282Y-25323645D01*
X57516733Y-25294487D01*
X57457544Y-25276533D01*
X57411411Y-25271989D01*
X57411410Y-25271989D01*
X57395989Y-25270470D01*
X57380568Y-25271989D01*
X55532073Y-25271989D01*
X56804062Y-24000000D01*
X58113361Y-24000000D01*
X58113361Y-25700000D01*
X58117908Y-25746166D01*
X58131374Y-25790558D01*
X58153242Y-25831470D01*
X58182671Y-25867329D01*
X58218530Y-25896758D01*
X58259442Y-25918626D01*
X58303834Y-25932092D01*
X58350000Y-25936639D01*
X60050000Y-25936639D01*
X60096166Y-25932092D01*
X60140558Y-25918626D01*
X60181470Y-25896758D01*
X60217329Y-25867329D01*
X60246758Y-25831470D01*
X60268626Y-25790558D01*
X60282092Y-25746166D01*
X60286639Y-25700000D01*
X60286639Y-24000000D01*
X60282092Y-23953834D01*
X60268626Y-23909442D01*
X60246758Y-23868530D01*
X60217329Y-23832671D01*
X60181470Y-23803242D01*
X60140558Y-23781374D01*
X60096166Y-23767908D01*
X60050000Y-23763361D01*
X58350000Y-23763361D01*
X58303834Y-23767908D01*
X58259442Y-23781374D01*
X58218530Y-23803242D01*
X58182671Y-23832671D01*
X58153242Y-23868530D01*
X58131374Y-23909442D01*
X58117908Y-23953834D01*
X58113361Y-24000000D01*
X56804062Y-24000000D01*
X58747282Y-22056781D01*
X58842587Y-22107723D01*
X59047205Y-22169794D01*
X59206674Y-22185500D01*
X59313326Y-22185500D01*
X59472795Y-22169794D01*
X59677413Y-22107723D01*
X59865989Y-22006927D01*
X60031278Y-21871278D01*
X60166927Y-21705989D01*
X60267723Y-21517413D01*
X60329794Y-21312795D01*
X60350752Y-21100000D01*
X60329794Y-20887205D01*
X60267723Y-20682587D01*
X60166927Y-20494011D01*
X60031278Y-20328722D01*
X59865989Y-20193073D01*
X59677413Y-20092277D01*
X59572660Y-20060500D01*
X62887260Y-20060500D01*
X62907432Y-20062478D01*
G36*
X22682671Y-20082671D02*
X22653242Y-20118530D01*
X22631374Y-20159442D01*
X22617908Y-20203834D01*
X22613361Y-20250000D01*
X22613361Y-21950000D01*
X22617908Y-21996166D01*
X22631374Y-22040558D01*
X22653242Y-22081470D01*
X22682671Y-22117329D01*
X22718530Y-22146758D01*
X22759442Y-22168626D01*
X22803834Y-22182092D01*
X22850000Y-22186639D01*
X24550000Y-22186639D01*
X24596166Y-22182092D01*
X24640558Y-22168626D01*
X24681470Y-22146758D01*
X24717329Y-22117329D01*
X24746758Y-22081470D01*
X24768626Y-22040558D01*
X24782092Y-21996166D01*
X24786639Y-21950000D01*
X24786639Y-20250000D01*
X24782092Y-20203834D01*
X24768626Y-20159442D01*
X24746758Y-20118530D01*
X24717329Y-20082671D01*
X24690314Y-20060500D01*
X25927340Y-20060500D01*
X25822587Y-20092277D01*
X25634011Y-20193073D01*
X25468722Y-20328722D01*
X25333073Y-20494011D01*
X25232277Y-20682587D01*
X25170206Y-20887205D01*
X25149248Y-21100000D01*
X25170206Y-21312795D01*
X25232277Y-21517413D01*
X25333073Y-21705989D01*
X25468722Y-21871278D01*
X25634011Y-22006927D01*
X25822587Y-22107723D01*
X26027205Y-22169794D01*
X26186674Y-22185500D01*
X26293326Y-22185500D01*
X26452795Y-22169794D01*
X26657413Y-22107723D01*
X26845989Y-22006927D01*
X27011278Y-21871278D01*
X27146927Y-21705989D01*
X27247723Y-21517413D01*
X27309794Y-21312795D01*
X27330752Y-21100000D01*
X27309794Y-20887205D01*
X27247723Y-20682587D01*
X27146927Y-20494011D01*
X27011278Y-20328722D01*
X26845989Y-20193073D01*
X26657413Y-20092277D01*
X26552660Y-20060500D01*
X28467340Y-20060500D01*
X28362587Y-20092277D01*
X28174011Y-20193073D01*
X28008722Y-20328722D01*
X27873073Y-20494011D01*
X27772277Y-20682587D01*
X27710206Y-20887205D01*
X27689248Y-21100000D01*
X27710206Y-21312795D01*
X27772277Y-21517413D01*
X27873073Y-21705989D01*
X28008722Y-21871278D01*
X28174011Y-22006927D01*
X28362587Y-22107723D01*
X28567205Y-22169794D01*
X28726674Y-22185500D01*
X28833326Y-22185500D01*
X28992795Y-22169794D01*
X29197413Y-22107723D01*
X29292718Y-22056781D01*
X29550509Y-22314572D01*
X29560343Y-22326555D01*
X29608156Y-22365793D01*
X29646590Y-22386337D01*
X26943648Y-22386337D01*
X26941361Y-22384050D01*
X26853654Y-22325446D01*
X26756200Y-22285079D01*
X26652742Y-22264500D01*
X26547258Y-22264500D01*
X26443800Y-22285079D01*
X26346346Y-22325446D01*
X26258639Y-22384050D01*
X26184050Y-22458639D01*
X26125446Y-22546346D01*
X26085079Y-22643800D01*
X26064500Y-22747258D01*
X26064500Y-22852742D01*
X26085079Y-22956200D01*
X26125446Y-23053654D01*
X26184050Y-23141361D01*
X26258639Y-23215950D01*
X26346346Y-23274554D01*
X26443800Y-23314921D01*
X26547258Y-23335500D01*
X26652742Y-23335500D01*
X26756200Y-23314921D01*
X26853654Y-23274554D01*
X26941361Y-23215950D01*
X27015950Y-23141361D01*
X27072093Y-23057337D01*
X30308297Y-23057337D01*
X30312213Y-23063198D01*
X30386802Y-23137787D01*
X30474509Y-23196391D01*
X30571963Y-23236758D01*
X30675421Y-23257337D01*
X30780905Y-23257337D01*
X30884363Y-23236758D01*
X30981817Y-23196391D01*
X31069524Y-23137787D01*
X31144113Y-23063198D01*
X31202717Y-22975491D01*
X31243084Y-22878037D01*
X31263663Y-22774579D01*
X31263663Y-22669095D01*
X31255267Y-22626885D01*
X31552883Y-22626885D01*
X31571165Y-22654246D01*
X31645754Y-22728835D01*
X31733461Y-22787439D01*
X31830915Y-22827806D01*
X31934373Y-22848385D01*
X32039857Y-22848385D01*
X32143315Y-22827806D01*
X32240769Y-22787439D01*
X32328476Y-22728835D01*
X32403065Y-22654246D01*
X32461669Y-22566539D01*
X32502036Y-22469085D01*
X32522615Y-22365627D01*
X32522615Y-22260143D01*
X32502036Y-22156685D01*
X32461669Y-22059231D01*
X32403065Y-21971524D01*
X32328476Y-21896935D01*
X32240769Y-21838331D01*
X32149383Y-21800477D01*
X32226927Y-21705989D01*
X32327723Y-21517413D01*
X32389794Y-21312795D01*
X32410752Y-21100000D01*
X32389794Y-20887205D01*
X32327723Y-20682587D01*
X32226927Y-20494011D01*
X32091278Y-20328722D01*
X31925989Y-20193073D01*
X31737413Y-20092277D01*
X31632660Y-20060500D01*
X33547340Y-20060500D01*
X33442587Y-20092277D01*
X33254011Y-20193073D01*
X33088722Y-20328722D01*
X32953073Y-20494011D01*
X32852277Y-20682587D01*
X32790206Y-20887205D01*
X32769248Y-21100000D01*
X32790206Y-21312795D01*
X32852277Y-21517413D01*
X32953073Y-21705989D01*
X33088722Y-21871278D01*
X33254011Y-22006927D01*
X33442587Y-22107723D01*
X33647205Y-22169794D01*
X33806674Y-22185500D01*
X33913326Y-22185500D01*
X34072795Y-22169794D01*
X34277413Y-22107723D01*
X34465989Y-22006927D01*
X34631278Y-21871278D01*
X34766927Y-21705989D01*
X34867723Y-21517413D01*
X34929794Y-21312795D01*
X34950752Y-21100000D01*
X34929794Y-20887205D01*
X34867723Y-20682587D01*
X34766927Y-20494011D01*
X34631278Y-20328722D01*
X34465989Y-20193073D01*
X34277413Y-20092277D01*
X34172660Y-20060500D01*
X36087340Y-20060500D01*
X35982587Y-20092277D01*
X35794011Y-20193073D01*
X35628722Y-20328722D01*
X35493073Y-20494011D01*
X35392277Y-20682587D01*
X35330206Y-20887205D01*
X35309248Y-21100000D01*
X35330206Y-21312795D01*
X35392277Y-21517413D01*
X35493073Y-21705989D01*
X35628722Y-21871278D01*
X35794011Y-22006927D01*
X35982587Y-22107723D01*
X36187205Y-22169794D01*
X36346674Y-22185500D01*
X36453326Y-22185500D01*
X36612795Y-22169794D01*
X36817413Y-22107723D01*
X37005989Y-22006927D01*
X37171278Y-21871278D01*
X37306927Y-21705989D01*
X37407723Y-21517413D01*
X37469794Y-21312795D01*
X37490752Y-21100000D01*
X37469794Y-20887205D01*
X37407723Y-20682587D01*
X37306927Y-20494011D01*
X37171278Y-20328722D01*
X37005989Y-20193073D01*
X36817413Y-20092277D01*
X36712660Y-20060500D01*
X38627340Y-20060500D01*
X38522587Y-20092277D01*
X38334011Y-20193073D01*
X38168722Y-20328722D01*
X38033073Y-20494011D01*
X37932277Y-20682587D01*
X37870206Y-20887205D01*
X37849248Y-21100000D01*
X37870206Y-21312795D01*
X37932277Y-21517413D01*
X38033073Y-21705989D01*
X38168722Y-21871278D01*
X38334011Y-22006927D01*
X38522587Y-22107723D01*
X38727205Y-22169794D01*
X38886674Y-22185500D01*
X38993326Y-22185500D01*
X39152795Y-22169794D01*
X39357413Y-22107723D01*
X39545989Y-22006927D01*
X39711278Y-21871278D01*
X39846927Y-21705989D01*
X39947723Y-21517413D01*
X40009794Y-21312795D01*
X40030752Y-21100000D01*
X40009794Y-20887205D01*
X39947723Y-20682587D01*
X39846927Y-20494011D01*
X39711278Y-20328722D01*
X39545989Y-20193073D01*
X39357413Y-20092277D01*
X39252660Y-20060500D01*
X41167340Y-20060500D01*
X41062587Y-20092277D01*
X40874011Y-20193073D01*
X40708722Y-20328722D01*
X40573073Y-20494011D01*
X40472277Y-20682587D01*
X40410206Y-20887205D01*
X40389248Y-21100000D01*
X40410206Y-21312795D01*
X40472277Y-21517413D01*
X40573073Y-21705989D01*
X40708722Y-21871278D01*
X40874011Y-22006927D01*
X41062587Y-22107723D01*
X41267205Y-22169794D01*
X41426674Y-22185500D01*
X41533326Y-22185500D01*
X41692795Y-22169794D01*
X41897413Y-22107723D01*
X42085989Y-22006927D01*
X42251278Y-21871278D01*
X42386927Y-21705989D01*
X42487723Y-21517413D01*
X42549794Y-21312795D01*
X42570752Y-21100000D01*
X42549794Y-20887205D01*
X42487723Y-20682587D01*
X42386927Y-20494011D01*
X42251278Y-20328722D01*
X42085989Y-20193073D01*
X41897413Y-20092277D01*
X41792660Y-20060500D01*
X43707340Y-20060500D01*
X43602587Y-20092277D01*
X43414011Y-20193073D01*
X43248722Y-20328722D01*
X43113073Y-20494011D01*
X43012277Y-20682587D01*
X42950206Y-20887205D01*
X42929248Y-21100000D01*
X42950206Y-21312795D01*
X43012277Y-21517413D01*
X43113073Y-21705989D01*
X43248722Y-21871278D01*
X43414011Y-22006927D01*
X43602587Y-22107723D01*
X43807205Y-22169794D01*
X43966674Y-22185500D01*
X44073326Y-22185500D01*
X44232795Y-22169794D01*
X44437413Y-22107723D01*
X44625989Y-22006927D01*
X44791278Y-21871278D01*
X44926927Y-21705989D01*
X45027723Y-21517413D01*
X45089794Y-21312795D01*
X45110752Y-21100000D01*
X45089794Y-20887205D01*
X45027723Y-20682587D01*
X44926927Y-20494011D01*
X44791278Y-20328722D01*
X44625989Y-20193073D01*
X44437413Y-20092277D01*
X44332660Y-20060500D01*
X46247340Y-20060500D01*
X46142587Y-20092277D01*
X45954011Y-20193073D01*
X45788722Y-20328722D01*
X45653073Y-20494011D01*
X45552277Y-20682587D01*
X45490206Y-20887205D01*
X45469248Y-21100000D01*
X45490206Y-21312795D01*
X45552277Y-21517413D01*
X45653073Y-21705989D01*
X45788722Y-21871278D01*
X45954011Y-22006927D01*
X46142587Y-22107723D01*
X46347205Y-22169794D01*
X46506674Y-22185500D01*
X46613326Y-22185500D01*
X46772795Y-22169794D01*
X46977413Y-22107723D01*
X47165989Y-22006927D01*
X47331278Y-21871278D01*
X47466927Y-21705989D01*
X47567723Y-21517413D01*
X47629794Y-21312795D01*
X47650752Y-21100000D01*
X47629794Y-20887205D01*
X47567723Y-20682587D01*
X47466927Y-20494011D01*
X47331278Y-20328722D01*
X47165989Y-20193073D01*
X46977413Y-20092277D01*
X46872660Y-20060500D01*
X48787340Y-20060500D01*
X48682587Y-20092277D01*
X48494011Y-20193073D01*
X48328722Y-20328722D01*
X48193073Y-20494011D01*
X48092277Y-20682587D01*
X48030206Y-20887205D01*
X48009248Y-21100000D01*
X48030206Y-21312795D01*
X48092277Y-21517413D01*
X48193073Y-21705989D01*
X48328722Y-21871278D01*
X48494011Y-22006927D01*
X48682587Y-22107723D01*
X48887205Y-22169794D01*
X49046674Y-22185500D01*
X49153326Y-22185500D01*
X49312795Y-22169794D01*
X49517413Y-22107723D01*
X49705989Y-22006927D01*
X49871278Y-21871278D01*
X50006927Y-21705989D01*
X50107723Y-21517413D01*
X50169794Y-21312795D01*
X50190752Y-21100000D01*
X50169794Y-20887205D01*
X50107723Y-20682587D01*
X50006927Y-20494011D01*
X49871278Y-20328722D01*
X49705989Y-20193073D01*
X49517413Y-20092277D01*
X49412660Y-20060500D01*
X53867340Y-20060500D01*
X53762587Y-20092277D01*
X53574011Y-20193073D01*
X53408722Y-20328722D01*
X53273073Y-20494011D01*
X53172277Y-20682587D01*
X53110206Y-20887205D01*
X53089248Y-21100000D01*
X53110206Y-21312795D01*
X53172277Y-21517413D01*
X53273073Y-21705989D01*
X53408722Y-21871278D01*
X53574011Y-22006927D01*
X53762587Y-22107723D01*
X53967205Y-22169794D01*
X54126674Y-22185500D01*
X54233326Y-22185500D01*
X54392795Y-22169794D01*
X54597413Y-22107723D01*
X54785989Y-22006927D01*
X54951278Y-21871278D01*
X55086927Y-21705989D01*
X55187723Y-21517413D01*
X55249794Y-21312795D01*
X55270752Y-21100000D01*
X55249794Y-20887205D01*
X55187723Y-20682587D01*
X55086927Y-20494011D01*
X54951278Y-20328722D01*
X54785989Y-20193073D01*
X54597413Y-20092277D01*
X54492660Y-20060500D01*
X56407340Y-20060500D01*
X56302587Y-20092277D01*
X56114011Y-20193073D01*
X55948722Y-20328722D01*
X55813073Y-20494011D01*
X55712277Y-20682587D01*
X55650206Y-20887205D01*
X55629248Y-21100000D01*
X55650206Y-21312795D01*
X55712277Y-21517413D01*
X55763219Y-21612718D01*
X52803949Y-24571989D01*
X49006098Y-24571989D01*
X49019788Y-24551501D01*
X49067693Y-24435848D01*
X49092115Y-24313070D01*
X49092115Y-24187888D01*
X49067693Y-24065110D01*
X49019788Y-23949457D01*
X48950240Y-23845371D01*
X48861723Y-23756854D01*
X48757637Y-23687306D01*
X48641984Y-23639401D01*
X48519206Y-23614979D01*
X48394024Y-23614979D01*
X48271246Y-23639401D01*
X48155593Y-23687306D01*
X48051507Y-23756854D01*
X47993382Y-23814979D01*
X47912321Y-23814979D01*
X47890929Y-23812872D01*
X47869538Y-23814979D01*
X47869536Y-23814979D01*
X47805557Y-23821280D01*
X47723465Y-23846183D01*
X47647809Y-23886622D01*
X47581495Y-23941044D01*
X47576825Y-23946735D01*
X45110576Y-23946735D01*
X45115950Y-23941361D01*
X45174554Y-23853654D01*
X45214921Y-23756200D01*
X45235500Y-23652742D01*
X45235500Y-23547258D01*
X45214921Y-23443800D01*
X45174554Y-23346346D01*
X45115950Y-23258639D01*
X45041361Y-23184050D01*
X44953654Y-23125446D01*
X44856200Y-23085079D01*
X44752742Y-23064500D01*
X44647258Y-23064500D01*
X44543800Y-23085079D01*
X44446346Y-23125446D01*
X44387898Y-23164500D01*
X38352228Y-23164500D01*
X38281200Y-23135079D01*
X38177742Y-23114500D01*
X38072258Y-23114500D01*
X37968800Y-23135079D01*
X37871346Y-23175446D01*
X37783639Y-23234050D01*
X37709050Y-23308639D01*
X37650446Y-23396346D01*
X37610079Y-23493800D01*
X37589500Y-23597258D01*
X37589500Y-23702742D01*
X37610079Y-23806200D01*
X37637128Y-23871501D01*
X37390029Y-23871501D01*
X37125715Y-23607188D01*
X37112073Y-23590565D01*
X37045759Y-23536143D01*
X36970103Y-23495704D01*
X36888011Y-23470801D01*
X36824032Y-23464500D01*
X36824029Y-23464500D01*
X36802638Y-23462393D01*
X36781247Y-23464500D01*
X33221391Y-23464500D01*
X33200000Y-23462393D01*
X33178609Y-23464500D01*
X33178606Y-23464500D01*
X33114627Y-23470801D01*
X33032535Y-23495704D01*
X32956878Y-23536143D01*
X32907183Y-23576927D01*
X32890565Y-23590565D01*
X32876927Y-23607183D01*
X30619611Y-25864500D01*
X29721380Y-25864500D01*
X29699999Y-25862394D01*
X29678618Y-25864500D01*
X29678606Y-25864500D01*
X29614627Y-25870801D01*
X29532535Y-25895704D01*
X29524500Y-25899999D01*
X29456877Y-25936143D01*
X29409924Y-25974678D01*
X29390565Y-25990565D01*
X29376927Y-26007183D01*
X28906990Y-26477121D01*
X28906990Y-26433411D01*
X28908509Y-26417990D01*
X28902446Y-26356435D01*
X28884492Y-26297245D01*
X28855334Y-26242697D01*
X28816096Y-26194884D01*
X28804113Y-26185050D01*
X28335500Y-25716438D01*
X28335500Y-25400000D01*
X28317574Y-25309878D01*
X28266524Y-25233476D01*
X28190122Y-25182426D01*
X28100000Y-25164500D01*
X28087102Y-25164500D01*
X28028654Y-25125446D01*
X27931200Y-25085079D01*
X27827742Y-25064500D01*
X27722258Y-25064500D01*
X27618800Y-25085079D01*
X27521346Y-25125446D01*
X27462898Y-25164500D01*
X25145129Y-25164500D01*
X25088491Y-25141040D01*
X24980203Y-25119500D01*
X24869795Y-25119500D01*
X24761507Y-25141040D01*
X24704869Y-25164500D01*
X23900000Y-25164500D01*
X23809878Y-25182426D01*
X23733476Y-25233476D01*
X23682426Y-25309878D01*
X23664500Y-25400000D01*
X23664500Y-31800000D01*
X23682426Y-31890122D01*
X23733476Y-31966524D01*
X23809878Y-32017574D01*
X23900000Y-32035500D01*
X27761032Y-32035500D01*
X27976109Y-32250577D01*
X27986618Y-32263382D01*
X28037704Y-32305308D01*
X28095989Y-32336461D01*
X28133297Y-32347778D01*
X28159230Y-32355645D01*
X28162754Y-32355992D01*
X28208522Y-32360500D01*
X28208529Y-32360500D01*
X28224999Y-32362122D01*
X28241469Y-32360500D01*
X30130134Y-32360500D01*
X30134050Y-32366361D01*
X30208639Y-32440950D01*
X30296346Y-32499554D01*
X30393800Y-32539921D01*
X30497258Y-32560500D01*
X30602742Y-32560500D01*
X30706200Y-32539921D01*
X30803654Y-32499554D01*
X30891361Y-32440950D01*
X30965950Y-32366361D01*
X31024554Y-32278654D01*
X31064921Y-32181200D01*
X31085500Y-32077742D01*
X31085500Y-31972258D01*
X31064921Y-31868800D01*
X31024554Y-31771346D01*
X30965950Y-31683639D01*
X30891361Y-31609050D01*
X30803654Y-31550446D01*
X30706200Y-31510079D01*
X30602742Y-31489500D01*
X30497258Y-31489500D01*
X30393800Y-31510079D01*
X30296346Y-31550446D01*
X30208639Y-31609050D01*
X30134050Y-31683639D01*
X30130134Y-31689500D01*
X28363968Y-31689500D01*
X28335500Y-31661032D01*
X28335500Y-30135500D01*
X28353609Y-30135500D01*
X28375000Y-30137607D01*
X28396391Y-30135500D01*
X28396394Y-30135500D01*
X28460373Y-30129199D01*
X28542465Y-30104296D01*
X28618121Y-30063857D01*
X28684435Y-30009435D01*
X28698077Y-29992812D01*
X29239500Y-29451390D01*
X29239500Y-29452742D01*
X29260079Y-29556200D01*
X29300446Y-29653654D01*
X29359050Y-29741361D01*
X29433639Y-29815950D01*
X29521346Y-29874554D01*
X29618800Y-29914921D01*
X29722258Y-29935500D01*
X29827742Y-29935500D01*
X29931200Y-29914921D01*
X30028654Y-29874554D01*
X30116361Y-29815950D01*
X30190950Y-29741361D01*
X30194866Y-29735500D01*
X32167094Y-29735500D01*
X35731316Y-33299722D01*
X35719123Y-33311914D01*
X35660519Y-33399621D01*
X35620152Y-33497075D01*
X35599573Y-33600533D01*
X35599573Y-33706017D01*
X35620152Y-33809475D01*
X35660519Y-33906929D01*
X35719123Y-33994636D01*
X35793712Y-34069225D01*
X35881419Y-34127829D01*
X35978873Y-34168196D01*
X36082331Y-34188775D01*
X36187815Y-34188775D01*
X36291273Y-34168196D01*
X36388727Y-34127829D01*
X36476434Y-34069225D01*
X36551023Y-33994636D01*
X36609627Y-33906929D01*
X36649994Y-33809475D01*
X36670475Y-33706511D01*
X36771330Y-33706511D01*
X36874788Y-33685932D01*
X36972242Y-33645565D01*
X37059949Y-33586961D01*
X37134538Y-33512372D01*
X37193142Y-33424665D01*
X37233509Y-33327211D01*
X37254088Y-33223753D01*
X37254088Y-33118269D01*
X37233509Y-33014811D01*
X37193142Y-32917357D01*
X37134538Y-32829650D01*
X37059949Y-32755061D01*
X36972242Y-32696457D01*
X36874788Y-32656090D01*
X36771330Y-32635511D01*
X36665846Y-32635511D01*
X36658932Y-32636886D01*
X36271320Y-32249274D01*
X36328341Y-32249274D01*
X36431799Y-32228695D01*
X36529253Y-32188328D01*
X36539165Y-32181705D01*
X36546920Y-32220690D01*
X36587287Y-32318144D01*
X36645891Y-32405851D01*
X36720480Y-32480440D01*
X36808187Y-32539044D01*
X36905641Y-32579411D01*
X37009099Y-32599990D01*
X37114583Y-32599990D01*
X37218041Y-32579411D01*
X37283351Y-32552358D01*
X37283351Y-33372586D01*
X35955439Y-34700499D01*
X34562189Y-34700499D01*
X34566513Y-34690062D01*
X34578973Y-34666750D01*
X34586646Y-34641455D01*
X34596763Y-34617031D01*
X34601920Y-34591104D01*
X34609594Y-34565807D01*
X34612185Y-34539499D01*
X34617342Y-34513573D01*
X34617342Y-34487138D01*
X34619933Y-34460831D01*
X34617342Y-34434524D01*
X34617342Y-34408089D01*
X34612185Y-34382163D01*
X34609594Y-34355855D01*
X34601920Y-34330558D01*
X34596763Y-34304631D01*
X34586646Y-34280207D01*
X34578973Y-34254912D01*
X34566513Y-34231600D01*
X34556396Y-34207177D01*
X34541708Y-34185195D01*
X34529248Y-34161884D01*
X34512479Y-34141451D01*
X34497792Y-34119470D01*
X34479102Y-34100780D01*
X34462330Y-34080343D01*
X34441893Y-34063571D01*
X34423203Y-34044881D01*
X34401222Y-34030194D01*
X34380789Y-34013425D01*
X34357478Y-34000965D01*
X34335496Y-33986277D01*
X34311073Y-33976160D01*
X34287761Y-33963700D01*
X34262466Y-33956027D01*
X34238042Y-33945910D01*
X34212115Y-33940753D01*
X34186818Y-33933079D01*
X34160510Y-33930488D01*
X34134584Y-33925331D01*
X31318212Y-33925331D01*
X31333096Y-33913116D01*
X31342934Y-33901128D01*
X32114983Y-33129080D01*
X32147258Y-33135500D01*
X32252742Y-33135500D01*
X32356200Y-33114921D01*
X32453654Y-33074554D01*
X32541361Y-33015950D01*
X32615950Y-32941361D01*
X32674554Y-32853654D01*
X32714921Y-32756200D01*
X32735500Y-32652742D01*
X32735500Y-32547258D01*
X32714921Y-32443800D01*
X32674554Y-32346346D01*
X32615950Y-32258639D01*
X32541361Y-32184050D01*
X32453654Y-32125446D01*
X32356200Y-32085079D01*
X32252742Y-32064500D01*
X32147258Y-32064500D01*
X32043800Y-32085079D01*
X31946346Y-32125446D01*
X31858639Y-32184050D01*
X31784050Y-32258639D01*
X31725446Y-32346346D01*
X31685079Y-32443800D01*
X31664500Y-32547258D01*
X31664500Y-32652742D01*
X31670920Y-32685017D01*
X30979928Y-33376010D01*
X25075408Y-33376010D01*
X25059989Y-33374491D01*
X25044570Y-33376010D01*
X25044568Y-33376010D01*
X24998435Y-33380554D01*
X24939246Y-33398508D01*
X24884697Y-33427666D01*
X24836884Y-33466904D01*
X24827053Y-33478884D01*
X23488882Y-34817056D01*
X23476894Y-34826894D01*
X23437656Y-34874708D01*
X23408498Y-34929257D01*
X23395904Y-34970777D01*
X23390544Y-34988446D01*
X23388090Y-35013361D01*
X22850000Y-35013361D01*
X22803834Y-35017908D01*
X22759442Y-35031374D01*
X22718530Y-35053242D01*
X22682671Y-35082671D01*
X22653242Y-35118530D01*
X22631374Y-35159442D01*
X22617908Y-35203834D01*
X22613361Y-35250000D01*
X22613361Y-36950000D01*
X22617908Y-36996166D01*
X22631374Y-37040558D01*
X22653242Y-37081470D01*
X22682671Y-37117329D01*
X22709686Y-37139500D01*
X20312740Y-37139500D01*
X20292568Y-37137522D01*
X20285425Y-37135366D01*
X20278837Y-37131862D01*
X20273046Y-37127140D01*
X20268289Y-37121389D01*
X20264737Y-37114821D01*
X20262530Y-37107690D01*
X20260500Y-37088376D01*
X20260500Y-20112740D01*
X20262478Y-20092568D01*
X20264634Y-20085427D01*
X20268139Y-20078835D01*
X20272861Y-20073045D01*
X20278608Y-20068290D01*
X20285179Y-20064738D01*
X20292311Y-20062530D01*
X20311624Y-20060500D01*
X22709686Y-20060500D01*
X22682671Y-20082671D01*
X22682671Y-20082671D01*
G37*
X22682671Y-20082671D02*
X22653242Y-20118530D01*
X22631374Y-20159442D01*
X22617908Y-20203834D01*
X22613361Y-20250000D01*
X22613361Y-21950000D01*
X22617908Y-21996166D01*
X22631374Y-22040558D01*
X22653242Y-22081470D01*
X22682671Y-22117329D01*
X22718530Y-22146758D01*
X22759442Y-22168626D01*
X22803834Y-22182092D01*
X22850000Y-22186639D01*
X24550000Y-22186639D01*
X24596166Y-22182092D01*
X24640558Y-22168626D01*
X24681470Y-22146758D01*
X24717329Y-22117329D01*
X24746758Y-22081470D01*
X24768626Y-22040558D01*
X24782092Y-21996166D01*
X24786639Y-21950000D01*
X24786639Y-20250000D01*
X24782092Y-20203834D01*
X24768626Y-20159442D01*
X24746758Y-20118530D01*
X24717329Y-20082671D01*
X24690314Y-20060500D01*
X25927340Y-20060500D01*
X25822587Y-20092277D01*
X25634011Y-20193073D01*
X25468722Y-20328722D01*
X25333073Y-20494011D01*
X25232277Y-20682587D01*
X25170206Y-20887205D01*
X25149248Y-21100000D01*
X25170206Y-21312795D01*
X25232277Y-21517413D01*
X25333073Y-21705989D01*
X25468722Y-21871278D01*
X25634011Y-22006927D01*
X25822587Y-22107723D01*
X26027205Y-22169794D01*
X26186674Y-22185500D01*
X26293326Y-22185500D01*
X26452795Y-22169794D01*
X26657413Y-22107723D01*
X26845989Y-22006927D01*
X27011278Y-21871278D01*
X27146927Y-21705989D01*
X27247723Y-21517413D01*
X27309794Y-21312795D01*
X27330752Y-21100000D01*
X27309794Y-20887205D01*
X27247723Y-20682587D01*
X27146927Y-20494011D01*
X27011278Y-20328722D01*
X26845989Y-20193073D01*
X26657413Y-20092277D01*
X26552660Y-20060500D01*
X28467340Y-20060500D01*
X28362587Y-20092277D01*
X28174011Y-20193073D01*
X28008722Y-20328722D01*
X27873073Y-20494011D01*
X27772277Y-20682587D01*
X27710206Y-20887205D01*
X27689248Y-21100000D01*
X27710206Y-21312795D01*
X27772277Y-21517413D01*
X27873073Y-21705989D01*
X28008722Y-21871278D01*
X28174011Y-22006927D01*
X28362587Y-22107723D01*
X28567205Y-22169794D01*
X28726674Y-22185500D01*
X28833326Y-22185500D01*
X28992795Y-22169794D01*
X29197413Y-22107723D01*
X29292718Y-22056781D01*
X29550509Y-22314572D01*
X29560343Y-22326555D01*
X29608156Y-22365793D01*
X29646590Y-22386337D01*
X26943648Y-22386337D01*
X26941361Y-22384050D01*
X26853654Y-22325446D01*
X26756200Y-22285079D01*
X26652742Y-22264500D01*
X26547258Y-22264500D01*
X26443800Y-22285079D01*
X26346346Y-22325446D01*
X26258639Y-22384050D01*
X26184050Y-22458639D01*
X26125446Y-22546346D01*
X26085079Y-22643800D01*
X26064500Y-22747258D01*
X26064500Y-22852742D01*
X26085079Y-22956200D01*
X26125446Y-23053654D01*
X26184050Y-23141361D01*
X26258639Y-23215950D01*
X26346346Y-23274554D01*
X26443800Y-23314921D01*
X26547258Y-23335500D01*
X26652742Y-23335500D01*
X26756200Y-23314921D01*
X26853654Y-23274554D01*
X26941361Y-23215950D01*
X27015950Y-23141361D01*
X27072093Y-23057337D01*
X30308297Y-23057337D01*
X30312213Y-23063198D01*
X30386802Y-23137787D01*
X30474509Y-23196391D01*
X30571963Y-23236758D01*
X30675421Y-23257337D01*
X30780905Y-23257337D01*
X30884363Y-23236758D01*
X30981817Y-23196391D01*
X31069524Y-23137787D01*
X31144113Y-23063198D01*
X31202717Y-22975491D01*
X31243084Y-22878037D01*
X31263663Y-22774579D01*
X31263663Y-22669095D01*
X31255267Y-22626885D01*
X31552883Y-22626885D01*
X31571165Y-22654246D01*
X31645754Y-22728835D01*
X31733461Y-22787439D01*
X31830915Y-22827806D01*
X31934373Y-22848385D01*
X32039857Y-22848385D01*
X32143315Y-22827806D01*
X32240769Y-22787439D01*
X32328476Y-22728835D01*
X32403065Y-22654246D01*
X32461669Y-22566539D01*
X32502036Y-22469085D01*
X32522615Y-22365627D01*
X32522615Y-22260143D01*
X32502036Y-22156685D01*
X32461669Y-22059231D01*
X32403065Y-21971524D01*
X32328476Y-21896935D01*
X32240769Y-21838331D01*
X32149383Y-21800477D01*
X32226927Y-21705989D01*
X32327723Y-21517413D01*
X32389794Y-21312795D01*
X32410752Y-21100000D01*
X32389794Y-20887205D01*
X32327723Y-20682587D01*
X32226927Y-20494011D01*
X32091278Y-20328722D01*
X31925989Y-20193073D01*
X31737413Y-20092277D01*
X31632660Y-20060500D01*
X33547340Y-20060500D01*
X33442587Y-20092277D01*
X33254011Y-20193073D01*
X33088722Y-20328722D01*
X32953073Y-20494011D01*
X32852277Y-20682587D01*
X32790206Y-20887205D01*
X32769248Y-21100000D01*
X32790206Y-21312795D01*
X32852277Y-21517413D01*
X32953073Y-21705989D01*
X33088722Y-21871278D01*
X33254011Y-22006927D01*
X33442587Y-22107723D01*
X33647205Y-22169794D01*
X33806674Y-22185500D01*
X33913326Y-22185500D01*
X34072795Y-22169794D01*
X34277413Y-22107723D01*
X34465989Y-22006927D01*
X34631278Y-21871278D01*
X34766927Y-21705989D01*
X34867723Y-21517413D01*
X34929794Y-21312795D01*
X34950752Y-21100000D01*
X34929794Y-20887205D01*
X34867723Y-20682587D01*
X34766927Y-20494011D01*
X34631278Y-20328722D01*
X34465989Y-20193073D01*
X34277413Y-20092277D01*
X34172660Y-20060500D01*
X36087340Y-20060500D01*
X35982587Y-20092277D01*
X35794011Y-20193073D01*
X35628722Y-20328722D01*
X35493073Y-20494011D01*
X35392277Y-20682587D01*
X35330206Y-20887205D01*
X35309248Y-21100000D01*
X35330206Y-21312795D01*
X35392277Y-21517413D01*
X35493073Y-21705989D01*
X35628722Y-21871278D01*
X35794011Y-22006927D01*
X35982587Y-22107723D01*
X36187205Y-22169794D01*
X36346674Y-22185500D01*
X36453326Y-22185500D01*
X36612795Y-22169794D01*
X36817413Y-22107723D01*
X37005989Y-22006927D01*
X37171278Y-21871278D01*
X37306927Y-21705989D01*
X37407723Y-21517413D01*
X37469794Y-21312795D01*
X37490752Y-21100000D01*
X37469794Y-20887205D01*
X37407723Y-20682587D01*
X37306927Y-20494011D01*
X37171278Y-20328722D01*
X37005989Y-20193073D01*
X36817413Y-20092277D01*
X36712660Y-20060500D01*
X38627340Y-20060500D01*
X38522587Y-20092277D01*
X38334011Y-20193073D01*
X38168722Y-20328722D01*
X38033073Y-20494011D01*
X37932277Y-20682587D01*
X37870206Y-20887205D01*
X37849248Y-21100000D01*
X37870206Y-21312795D01*
X37932277Y-21517413D01*
X38033073Y-21705989D01*
X38168722Y-21871278D01*
X38334011Y-22006927D01*
X38522587Y-22107723D01*
X38727205Y-22169794D01*
X38886674Y-22185500D01*
X38993326Y-22185500D01*
X39152795Y-22169794D01*
X39357413Y-22107723D01*
X39545989Y-22006927D01*
X39711278Y-21871278D01*
X39846927Y-21705989D01*
X39947723Y-21517413D01*
X40009794Y-21312795D01*
X40030752Y-21100000D01*
X40009794Y-20887205D01*
X39947723Y-20682587D01*
X39846927Y-20494011D01*
X39711278Y-20328722D01*
X39545989Y-20193073D01*
X39357413Y-20092277D01*
X39252660Y-20060500D01*
X41167340Y-20060500D01*
X41062587Y-20092277D01*
X40874011Y-20193073D01*
X40708722Y-20328722D01*
X40573073Y-20494011D01*
X40472277Y-20682587D01*
X40410206Y-20887205D01*
X40389248Y-21100000D01*
X40410206Y-21312795D01*
X40472277Y-21517413D01*
X40573073Y-21705989D01*
X40708722Y-21871278D01*
X40874011Y-22006927D01*
X41062587Y-22107723D01*
X41267205Y-22169794D01*
X41426674Y-22185500D01*
X41533326Y-22185500D01*
X41692795Y-22169794D01*
X41897413Y-22107723D01*
X42085989Y-22006927D01*
X42251278Y-21871278D01*
X42386927Y-21705989D01*
X42487723Y-21517413D01*
X42549794Y-21312795D01*
X42570752Y-21100000D01*
X42549794Y-20887205D01*
X42487723Y-20682587D01*
X42386927Y-20494011D01*
X42251278Y-20328722D01*
X42085989Y-20193073D01*
X41897413Y-20092277D01*
X41792660Y-20060500D01*
X43707340Y-20060500D01*
X43602587Y-20092277D01*
X43414011Y-20193073D01*
X43248722Y-20328722D01*
X43113073Y-20494011D01*
X43012277Y-20682587D01*
X42950206Y-20887205D01*
X42929248Y-21100000D01*
X42950206Y-21312795D01*
X43012277Y-21517413D01*
X43113073Y-21705989D01*
X43248722Y-21871278D01*
X43414011Y-22006927D01*
X43602587Y-22107723D01*
X43807205Y-22169794D01*
X43966674Y-22185500D01*
X44073326Y-22185500D01*
X44232795Y-22169794D01*
X44437413Y-22107723D01*
X44625989Y-22006927D01*
X44791278Y-21871278D01*
X44926927Y-21705989D01*
X45027723Y-21517413D01*
X45089794Y-21312795D01*
X45110752Y-21100000D01*
X45089794Y-20887205D01*
X45027723Y-20682587D01*
X44926927Y-20494011D01*
X44791278Y-20328722D01*
X44625989Y-20193073D01*
X44437413Y-20092277D01*
X44332660Y-20060500D01*
X46247340Y-20060500D01*
X46142587Y-20092277D01*
X45954011Y-20193073D01*
X45788722Y-20328722D01*
X45653073Y-20494011D01*
X45552277Y-20682587D01*
X45490206Y-20887205D01*
X45469248Y-21100000D01*
X45490206Y-21312795D01*
X45552277Y-21517413D01*
X45653073Y-21705989D01*
X45788722Y-21871278D01*
X45954011Y-22006927D01*
X46142587Y-22107723D01*
X46347205Y-22169794D01*
X46506674Y-22185500D01*
X46613326Y-22185500D01*
X46772795Y-22169794D01*
X46977413Y-22107723D01*
X47165989Y-22006927D01*
X47331278Y-21871278D01*
X47466927Y-21705989D01*
X47567723Y-21517413D01*
X47629794Y-21312795D01*
X47650752Y-21100000D01*
X47629794Y-20887205D01*
X47567723Y-20682587D01*
X47466927Y-20494011D01*
X47331278Y-20328722D01*
X47165989Y-20193073D01*
X46977413Y-20092277D01*
X46872660Y-20060500D01*
X48787340Y-20060500D01*
X48682587Y-20092277D01*
X48494011Y-20193073D01*
X48328722Y-20328722D01*
X48193073Y-20494011D01*
X48092277Y-20682587D01*
X48030206Y-20887205D01*
X48009248Y-21100000D01*
X48030206Y-21312795D01*
X48092277Y-21517413D01*
X48193073Y-21705989D01*
X48328722Y-21871278D01*
X48494011Y-22006927D01*
X48682587Y-22107723D01*
X48887205Y-22169794D01*
X49046674Y-22185500D01*
X49153326Y-22185500D01*
X49312795Y-22169794D01*
X49517413Y-22107723D01*
X49705989Y-22006927D01*
X49871278Y-21871278D01*
X50006927Y-21705989D01*
X50107723Y-21517413D01*
X50169794Y-21312795D01*
X50190752Y-21100000D01*
X50169794Y-20887205D01*
X50107723Y-20682587D01*
X50006927Y-20494011D01*
X49871278Y-20328722D01*
X49705989Y-20193073D01*
X49517413Y-20092277D01*
X49412660Y-20060500D01*
X53867340Y-20060500D01*
X53762587Y-20092277D01*
X53574011Y-20193073D01*
X53408722Y-20328722D01*
X53273073Y-20494011D01*
X53172277Y-20682587D01*
X53110206Y-20887205D01*
X53089248Y-21100000D01*
X53110206Y-21312795D01*
X53172277Y-21517413D01*
X53273073Y-21705989D01*
X53408722Y-21871278D01*
X53574011Y-22006927D01*
X53762587Y-22107723D01*
X53967205Y-22169794D01*
X54126674Y-22185500D01*
X54233326Y-22185500D01*
X54392795Y-22169794D01*
X54597413Y-22107723D01*
X54785989Y-22006927D01*
X54951278Y-21871278D01*
X55086927Y-21705989D01*
X55187723Y-21517413D01*
X55249794Y-21312795D01*
X55270752Y-21100000D01*
X55249794Y-20887205D01*
X55187723Y-20682587D01*
X55086927Y-20494011D01*
X54951278Y-20328722D01*
X54785989Y-20193073D01*
X54597413Y-20092277D01*
X54492660Y-20060500D01*
X56407340Y-20060500D01*
X56302587Y-20092277D01*
X56114011Y-20193073D01*
X55948722Y-20328722D01*
X55813073Y-20494011D01*
X55712277Y-20682587D01*
X55650206Y-20887205D01*
X55629248Y-21100000D01*
X55650206Y-21312795D01*
X55712277Y-21517413D01*
X55763219Y-21612718D01*
X52803949Y-24571989D01*
X49006098Y-24571989D01*
X49019788Y-24551501D01*
X49067693Y-24435848D01*
X49092115Y-24313070D01*
X49092115Y-24187888D01*
X49067693Y-24065110D01*
X49019788Y-23949457D01*
X48950240Y-23845371D01*
X48861723Y-23756854D01*
X48757637Y-23687306D01*
X48641984Y-23639401D01*
X48519206Y-23614979D01*
X48394024Y-23614979D01*
X48271246Y-23639401D01*
X48155593Y-23687306D01*
X48051507Y-23756854D01*
X47993382Y-23814979D01*
X47912321Y-23814979D01*
X47890929Y-23812872D01*
X47869538Y-23814979D01*
X47869536Y-23814979D01*
X47805557Y-23821280D01*
X47723465Y-23846183D01*
X47647809Y-23886622D01*
X47581495Y-23941044D01*
X47576825Y-23946735D01*
X45110576Y-23946735D01*
X45115950Y-23941361D01*
X45174554Y-23853654D01*
X45214921Y-23756200D01*
X45235500Y-23652742D01*
X45235500Y-23547258D01*
X45214921Y-23443800D01*
X45174554Y-23346346D01*
X45115950Y-23258639D01*
X45041361Y-23184050D01*
X44953654Y-23125446D01*
X44856200Y-23085079D01*
X44752742Y-23064500D01*
X44647258Y-23064500D01*
X44543800Y-23085079D01*
X44446346Y-23125446D01*
X44387898Y-23164500D01*
X38352228Y-23164500D01*
X38281200Y-23135079D01*
X38177742Y-23114500D01*
X38072258Y-23114500D01*
X37968800Y-23135079D01*
X37871346Y-23175446D01*
X37783639Y-23234050D01*
X37709050Y-23308639D01*
X37650446Y-23396346D01*
X37610079Y-23493800D01*
X37589500Y-23597258D01*
X37589500Y-23702742D01*
X37610079Y-23806200D01*
X37637128Y-23871501D01*
X37390029Y-23871501D01*
X37125715Y-23607188D01*
X37112073Y-23590565D01*
X37045759Y-23536143D01*
X36970103Y-23495704D01*
X36888011Y-23470801D01*
X36824032Y-23464500D01*
X36824029Y-23464500D01*
X36802638Y-23462393D01*
X36781247Y-23464500D01*
X33221391Y-23464500D01*
X33200000Y-23462393D01*
X33178609Y-23464500D01*
X33178606Y-23464500D01*
X33114627Y-23470801D01*
X33032535Y-23495704D01*
X32956878Y-23536143D01*
X32907183Y-23576927D01*
X32890565Y-23590565D01*
X32876927Y-23607183D01*
X30619611Y-25864500D01*
X29721380Y-25864500D01*
X29699999Y-25862394D01*
X29678618Y-25864500D01*
X29678606Y-25864500D01*
X29614627Y-25870801D01*
X29532535Y-25895704D01*
X29524500Y-25899999D01*
X29456877Y-25936143D01*
X29409924Y-25974678D01*
X29390565Y-25990565D01*
X29376927Y-26007183D01*
X28906990Y-26477121D01*
X28906990Y-26433411D01*
X28908509Y-26417990D01*
X28902446Y-26356435D01*
X28884492Y-26297245D01*
X28855334Y-26242697D01*
X28816096Y-26194884D01*
X28804113Y-26185050D01*
X28335500Y-25716438D01*
X28335500Y-25400000D01*
X28317574Y-25309878D01*
X28266524Y-25233476D01*
X28190122Y-25182426D01*
X28100000Y-25164500D01*
X28087102Y-25164500D01*
X28028654Y-25125446D01*
X27931200Y-25085079D01*
X27827742Y-25064500D01*
X27722258Y-25064500D01*
X27618800Y-25085079D01*
X27521346Y-25125446D01*
X27462898Y-25164500D01*
X25145129Y-25164500D01*
X25088491Y-25141040D01*
X24980203Y-25119500D01*
X24869795Y-25119500D01*
X24761507Y-25141040D01*
X24704869Y-25164500D01*
X23900000Y-25164500D01*
X23809878Y-25182426D01*
X23733476Y-25233476D01*
X23682426Y-25309878D01*
X23664500Y-25400000D01*
X23664500Y-31800000D01*
X23682426Y-31890122D01*
X23733476Y-31966524D01*
X23809878Y-32017574D01*
X23900000Y-32035500D01*
X27761032Y-32035500D01*
X27976109Y-32250577D01*
X27986618Y-32263382D01*
X28037704Y-32305308D01*
X28095989Y-32336461D01*
X28133297Y-32347778D01*
X28159230Y-32355645D01*
X28162754Y-32355992D01*
X28208522Y-32360500D01*
X28208529Y-32360500D01*
X28224999Y-32362122D01*
X28241469Y-32360500D01*
X30130134Y-32360500D01*
X30134050Y-32366361D01*
X30208639Y-32440950D01*
X30296346Y-32499554D01*
X30393800Y-32539921D01*
X30497258Y-32560500D01*
X30602742Y-32560500D01*
X30706200Y-32539921D01*
X30803654Y-32499554D01*
X30891361Y-32440950D01*
X30965950Y-32366361D01*
X31024554Y-32278654D01*
X31064921Y-32181200D01*
X31085500Y-32077742D01*
X31085500Y-31972258D01*
X31064921Y-31868800D01*
X31024554Y-31771346D01*
X30965950Y-31683639D01*
X30891361Y-31609050D01*
X30803654Y-31550446D01*
X30706200Y-31510079D01*
X30602742Y-31489500D01*
X30497258Y-31489500D01*
X30393800Y-31510079D01*
X30296346Y-31550446D01*
X30208639Y-31609050D01*
X30134050Y-31683639D01*
X30130134Y-31689500D01*
X28363968Y-31689500D01*
X28335500Y-31661032D01*
X28335500Y-30135500D01*
X28353609Y-30135500D01*
X28375000Y-30137607D01*
X28396391Y-30135500D01*
X28396394Y-30135500D01*
X28460373Y-30129199D01*
X28542465Y-30104296D01*
X28618121Y-30063857D01*
X28684435Y-30009435D01*
X28698077Y-29992812D01*
X29239500Y-29451390D01*
X29239500Y-29452742D01*
X29260079Y-29556200D01*
X29300446Y-29653654D01*
X29359050Y-29741361D01*
X29433639Y-29815950D01*
X29521346Y-29874554D01*
X29618800Y-29914921D01*
X29722258Y-29935500D01*
X29827742Y-29935500D01*
X29931200Y-29914921D01*
X30028654Y-29874554D01*
X30116361Y-29815950D01*
X30190950Y-29741361D01*
X30194866Y-29735500D01*
X32167094Y-29735500D01*
X35731316Y-33299722D01*
X35719123Y-33311914D01*
X35660519Y-33399621D01*
X35620152Y-33497075D01*
X35599573Y-33600533D01*
X35599573Y-33706017D01*
X35620152Y-33809475D01*
X35660519Y-33906929D01*
X35719123Y-33994636D01*
X35793712Y-34069225D01*
X35881419Y-34127829D01*
X35978873Y-34168196D01*
X36082331Y-34188775D01*
X36187815Y-34188775D01*
X36291273Y-34168196D01*
X36388727Y-34127829D01*
X36476434Y-34069225D01*
X36551023Y-33994636D01*
X36609627Y-33906929D01*
X36649994Y-33809475D01*
X36670475Y-33706511D01*
X36771330Y-33706511D01*
X36874788Y-33685932D01*
X36972242Y-33645565D01*
X37059949Y-33586961D01*
X37134538Y-33512372D01*
X37193142Y-33424665D01*
X37233509Y-33327211D01*
X37254088Y-33223753D01*
X37254088Y-33118269D01*
X37233509Y-33014811D01*
X37193142Y-32917357D01*
X37134538Y-32829650D01*
X37059949Y-32755061D01*
X36972242Y-32696457D01*
X36874788Y-32656090D01*
X36771330Y-32635511D01*
X36665846Y-32635511D01*
X36658932Y-32636886D01*
X36271320Y-32249274D01*
X36328341Y-32249274D01*
X36431799Y-32228695D01*
X36529253Y-32188328D01*
X36539165Y-32181705D01*
X36546920Y-32220690D01*
X36587287Y-32318144D01*
X36645891Y-32405851D01*
X36720480Y-32480440D01*
X36808187Y-32539044D01*
X36905641Y-32579411D01*
X37009099Y-32599990D01*
X37114583Y-32599990D01*
X37218041Y-32579411D01*
X37283351Y-32552358D01*
X37283351Y-33372586D01*
X35955439Y-34700499D01*
X34562189Y-34700499D01*
X34566513Y-34690062D01*
X34578973Y-34666750D01*
X34586646Y-34641455D01*
X34596763Y-34617031D01*
X34601920Y-34591104D01*
X34609594Y-34565807D01*
X34612185Y-34539499D01*
X34617342Y-34513573D01*
X34617342Y-34487138D01*
X34619933Y-34460831D01*
X34617342Y-34434524D01*
X34617342Y-34408089D01*
X34612185Y-34382163D01*
X34609594Y-34355855D01*
X34601920Y-34330558D01*
X34596763Y-34304631D01*
X34586646Y-34280207D01*
X34578973Y-34254912D01*
X34566513Y-34231600D01*
X34556396Y-34207177D01*
X34541708Y-34185195D01*
X34529248Y-34161884D01*
X34512479Y-34141451D01*
X34497792Y-34119470D01*
X34479102Y-34100780D01*
X34462330Y-34080343D01*
X34441893Y-34063571D01*
X34423203Y-34044881D01*
X34401222Y-34030194D01*
X34380789Y-34013425D01*
X34357478Y-34000965D01*
X34335496Y-33986277D01*
X34311073Y-33976160D01*
X34287761Y-33963700D01*
X34262466Y-33956027D01*
X34238042Y-33945910D01*
X34212115Y-33940753D01*
X34186818Y-33933079D01*
X34160510Y-33930488D01*
X34134584Y-33925331D01*
X31318212Y-33925331D01*
X31333096Y-33913116D01*
X31342934Y-33901128D01*
X32114983Y-33129080D01*
X32147258Y-33135500D01*
X32252742Y-33135500D01*
X32356200Y-33114921D01*
X32453654Y-33074554D01*
X32541361Y-33015950D01*
X32615950Y-32941361D01*
X32674554Y-32853654D01*
X32714921Y-32756200D01*
X32735500Y-32652742D01*
X32735500Y-32547258D01*
X32714921Y-32443800D01*
X32674554Y-32346346D01*
X32615950Y-32258639D01*
X32541361Y-32184050D01*
X32453654Y-32125446D01*
X32356200Y-32085079D01*
X32252742Y-32064500D01*
X32147258Y-32064500D01*
X32043800Y-32085079D01*
X31946346Y-32125446D01*
X31858639Y-32184050D01*
X31784050Y-32258639D01*
X31725446Y-32346346D01*
X31685079Y-32443800D01*
X31664500Y-32547258D01*
X31664500Y-32652742D01*
X31670920Y-32685017D01*
X30979928Y-33376010D01*
X25075408Y-33376010D01*
X25059989Y-33374491D01*
X25044570Y-33376010D01*
X25044568Y-33376010D01*
X24998435Y-33380554D01*
X24939246Y-33398508D01*
X24884697Y-33427666D01*
X24836884Y-33466904D01*
X24827053Y-33478884D01*
X23488882Y-34817056D01*
X23476894Y-34826894D01*
X23437656Y-34874708D01*
X23408498Y-34929257D01*
X23395904Y-34970777D01*
X23390544Y-34988446D01*
X23388090Y-35013361D01*
X22850000Y-35013361D01*
X22803834Y-35017908D01*
X22759442Y-35031374D01*
X22718530Y-35053242D01*
X22682671Y-35082671D01*
X22653242Y-35118530D01*
X22631374Y-35159442D01*
X22617908Y-35203834D01*
X22613361Y-35250000D01*
X22613361Y-36950000D01*
X22617908Y-36996166D01*
X22631374Y-37040558D01*
X22653242Y-37081470D01*
X22682671Y-37117329D01*
X22709686Y-37139500D01*
X20312740Y-37139500D01*
X20292568Y-37137522D01*
X20285425Y-37135366D01*
X20278837Y-37131862D01*
X20273046Y-37127140D01*
X20268289Y-37121389D01*
X20264737Y-37114821D01*
X20262530Y-37107690D01*
X20260500Y-37088376D01*
X20260500Y-20112740D01*
X20262478Y-20092568D01*
X20264634Y-20085427D01*
X20268139Y-20078835D01*
X20272861Y-20073045D01*
X20278608Y-20068290D01*
X20285179Y-20064738D01*
X20292311Y-20062530D01*
X20311624Y-20060500D01*
X22709686Y-20060500D01*
X22682671Y-20082671D01*
G36*
X33088722Y-35328722D02*
X32953073Y-35494011D01*
X32852277Y-35682587D01*
X32790206Y-35887205D01*
X32769248Y-36100000D01*
X32790206Y-36312795D01*
X32852277Y-36517413D01*
X32953073Y-36705989D01*
X33088722Y-36871278D01*
X33254011Y-37006927D01*
X33442587Y-37107723D01*
X33547340Y-37139500D01*
X31632660Y-37139500D01*
X31737413Y-37107723D01*
X31925989Y-37006927D01*
X32091278Y-36871278D01*
X32226927Y-36705989D01*
X32327723Y-36517413D01*
X32389794Y-36312795D01*
X32410752Y-36100000D01*
X32389794Y-35887205D01*
X32327723Y-35682587D01*
X32276781Y-35587282D01*
X32535564Y-35328499D01*
X33088994Y-35328499D01*
X33088722Y-35328722D01*
X33088722Y-35328722D01*
G37*
X33088722Y-35328722D02*
X32953073Y-35494011D01*
X32852277Y-35682587D01*
X32790206Y-35887205D01*
X32769248Y-36100000D01*
X32790206Y-36312795D01*
X32852277Y-36517413D01*
X32953073Y-36705989D01*
X33088722Y-36871278D01*
X33254011Y-37006927D01*
X33442587Y-37107723D01*
X33547340Y-37139500D01*
X31632660Y-37139500D01*
X31737413Y-37107723D01*
X31925989Y-37006927D01*
X32091278Y-36871278D01*
X32226927Y-36705989D01*
X32327723Y-36517413D01*
X32389794Y-36312795D01*
X32410752Y-36100000D01*
X32389794Y-35887205D01*
X32327723Y-35682587D01*
X32276781Y-35587282D01*
X32535564Y-35328499D01*
X33088994Y-35328499D01*
X33088722Y-35328722D01*
G36*
X31832718Y-35143219D02*
X31737413Y-35092277D01*
X31532795Y-35030206D01*
X31373326Y-35014500D01*
X31266674Y-35014500D01*
X31107205Y-35030206D01*
X30902587Y-35092277D01*
X30714011Y-35193073D01*
X30548722Y-35328722D01*
X30413073Y-35494011D01*
X30312277Y-35682587D01*
X30250206Y-35887205D01*
X30229248Y-36100000D01*
X30250206Y-36312795D01*
X30312277Y-36517413D01*
X30413073Y-36705989D01*
X30548722Y-36871278D01*
X30714011Y-37006927D01*
X30902587Y-37107723D01*
X31007340Y-37139500D01*
X29092660Y-37139500D01*
X29197413Y-37107723D01*
X29385989Y-37006927D01*
X29551278Y-36871278D01*
X29686927Y-36705989D01*
X29787723Y-36517413D01*
X29849794Y-36312795D01*
X29870752Y-36100000D01*
X29849794Y-35887205D01*
X29787723Y-35682587D01*
X29686927Y-35494011D01*
X29551278Y-35328722D01*
X29385989Y-35193073D01*
X29197413Y-35092277D01*
X28992795Y-35030206D01*
X28833326Y-35014500D01*
X28726674Y-35014500D01*
X28567205Y-35030206D01*
X28362587Y-35092277D01*
X28174011Y-35193073D01*
X28008722Y-35328722D01*
X27873073Y-35494011D01*
X27772277Y-35682587D01*
X27710206Y-35887205D01*
X27689248Y-36100000D01*
X27710206Y-36312795D01*
X27772277Y-36517413D01*
X27873073Y-36705989D01*
X28008722Y-36871278D01*
X28174011Y-37006927D01*
X28362587Y-37107723D01*
X28467340Y-37139500D01*
X26552660Y-37139500D01*
X26657413Y-37107723D01*
X26845989Y-37006927D01*
X27011278Y-36871278D01*
X27146927Y-36705989D01*
X27247723Y-36517413D01*
X27309794Y-36312795D01*
X27330752Y-36100000D01*
X27309794Y-35887205D01*
X27286592Y-35810719D01*
X28100980Y-34996331D01*
X31979606Y-34996331D01*
X31832718Y-35143219D01*
X31832718Y-35143219D01*
G37*
X31832718Y-35143219D02*
X31737413Y-35092277D01*
X31532795Y-35030206D01*
X31373326Y-35014500D01*
X31266674Y-35014500D01*
X31107205Y-35030206D01*
X30902587Y-35092277D01*
X30714011Y-35193073D01*
X30548722Y-35328722D01*
X30413073Y-35494011D01*
X30312277Y-35682587D01*
X30250206Y-35887205D01*
X30229248Y-36100000D01*
X30250206Y-36312795D01*
X30312277Y-36517413D01*
X30413073Y-36705989D01*
X30548722Y-36871278D01*
X30714011Y-37006927D01*
X30902587Y-37107723D01*
X31007340Y-37139500D01*
X29092660Y-37139500D01*
X29197413Y-37107723D01*
X29385989Y-37006927D01*
X29551278Y-36871278D01*
X29686927Y-36705989D01*
X29787723Y-36517413D01*
X29849794Y-36312795D01*
X29870752Y-36100000D01*
X29849794Y-35887205D01*
X29787723Y-35682587D01*
X29686927Y-35494011D01*
X29551278Y-35328722D01*
X29385989Y-35193073D01*
X29197413Y-35092277D01*
X28992795Y-35030206D01*
X28833326Y-35014500D01*
X28726674Y-35014500D01*
X28567205Y-35030206D01*
X28362587Y-35092277D01*
X28174011Y-35193073D01*
X28008722Y-35328722D01*
X27873073Y-35494011D01*
X27772277Y-35682587D01*
X27710206Y-35887205D01*
X27689248Y-36100000D01*
X27710206Y-36312795D01*
X27772277Y-36517413D01*
X27873073Y-36705989D01*
X28008722Y-36871278D01*
X28174011Y-37006927D01*
X28362587Y-37107723D01*
X28467340Y-37139500D01*
X26552660Y-37139500D01*
X26657413Y-37107723D01*
X26845989Y-37006927D01*
X27011278Y-36871278D01*
X27146927Y-36705989D01*
X27247723Y-36517413D01*
X27309794Y-36312795D01*
X27330752Y-36100000D01*
X27309794Y-35887205D01*
X27286592Y-35810719D01*
X28100980Y-34996331D01*
X31979606Y-34996331D01*
X31832718Y-35143219D01*
G36*
X27580221Y-34013425D02*
X27549731Y-34038448D01*
X27498681Y-34080343D01*
X27481909Y-34100780D01*
X26529281Y-35053408D01*
X26452795Y-35030206D01*
X26293326Y-35014500D01*
X26186674Y-35014500D01*
X26027205Y-35030206D01*
X25822587Y-35092277D01*
X25634011Y-35193073D01*
X25468722Y-35328722D01*
X25333073Y-35494011D01*
X25232277Y-35682587D01*
X25170206Y-35887205D01*
X25149248Y-36100000D01*
X25170206Y-36312795D01*
X25232277Y-36517413D01*
X25333073Y-36705989D01*
X25468722Y-36871278D01*
X25634011Y-37006927D01*
X25822587Y-37107723D01*
X25927340Y-37139500D01*
X24690314Y-37139500D01*
X24717329Y-37117329D01*
X24746758Y-37081470D01*
X24768626Y-37040558D01*
X24782092Y-36996166D01*
X24786639Y-36950000D01*
X24786639Y-35250000D01*
X24782092Y-35203834D01*
X24768626Y-35159442D01*
X24746758Y-35118530D01*
X24717329Y-35082671D01*
X24681470Y-35053242D01*
X24640558Y-35031374D01*
X24596166Y-35017908D01*
X24550000Y-35013361D01*
X24180701Y-35013361D01*
X25190053Y-34004010D01*
X27597835Y-34004010D01*
X27580221Y-34013425D01*
X27580221Y-34013425D01*
G37*
X27580221Y-34013425D02*
X27549731Y-34038448D01*
X27498681Y-34080343D01*
X27481909Y-34100780D01*
X26529281Y-35053408D01*
X26452795Y-35030206D01*
X26293326Y-35014500D01*
X26186674Y-35014500D01*
X26027205Y-35030206D01*
X25822587Y-35092277D01*
X25634011Y-35193073D01*
X25468722Y-35328722D01*
X25333073Y-35494011D01*
X25232277Y-35682587D01*
X25170206Y-35887205D01*
X25149248Y-36100000D01*
X25170206Y-36312795D01*
X25232277Y-36517413D01*
X25333073Y-36705989D01*
X25468722Y-36871278D01*
X25634011Y-37006927D01*
X25822587Y-37107723D01*
X25927340Y-37139500D01*
X24690314Y-37139500D01*
X24717329Y-37117329D01*
X24746758Y-37081470D01*
X24768626Y-37040558D01*
X24782092Y-36996166D01*
X24786639Y-36950000D01*
X24786639Y-35250000D01*
X24782092Y-35203834D01*
X24768626Y-35159442D01*
X24746758Y-35118530D01*
X24717329Y-35082671D01*
X24681470Y-35053242D01*
X24640558Y-35031374D01*
X24596166Y-35017908D01*
X24550000Y-35013361D01*
X24180701Y-35013361D01*
X25190053Y-34004010D01*
X27597835Y-34004010D01*
X27580221Y-34013425D01*
G36*
X42586001Y-33360305D02*
X42586000Y-33360315D01*
X42586000Y-33365768D01*
X42558639Y-33384050D01*
X42484050Y-33458639D01*
X42425446Y-33546346D01*
X42385079Y-33643800D01*
X42364500Y-33747258D01*
X42364500Y-33852742D01*
X42385079Y-33956200D01*
X42425446Y-34053654D01*
X42484050Y-34141361D01*
X42489504Y-34146815D01*
X40406579Y-34146815D01*
X40391158Y-34145296D01*
X40375736Y-34146815D01*
X40329603Y-34151359D01*
X40270414Y-34169313D01*
X40215865Y-34198471D01*
X40175497Y-34231599D01*
X40143901Y-34225314D01*
X40038417Y-34225314D01*
X39934959Y-34245893D01*
X39837505Y-34286260D01*
X39749798Y-34344864D01*
X39675209Y-34419453D01*
X39616605Y-34507160D01*
X39576238Y-34604614D01*
X39555659Y-34708072D01*
X39555659Y-34813556D01*
X39576238Y-34917014D01*
X39616605Y-35014468D01*
X39675209Y-35102175D01*
X39749798Y-35176764D01*
X39819407Y-35223276D01*
X39784050Y-35258633D01*
X39725576Y-35346145D01*
X39711278Y-35328722D01*
X39545989Y-35193073D01*
X39357413Y-35092277D01*
X39254000Y-35060907D01*
X39254000Y-34913340D01*
X39255519Y-34897919D01*
X39253908Y-34881558D01*
X39249456Y-34836364D01*
X39231502Y-34777175D01*
X39202344Y-34722626D01*
X39163106Y-34674813D01*
X39151123Y-34664979D01*
X38982373Y-34496230D01*
X38982373Y-32247301D01*
X38992757Y-32255823D01*
X39548056Y-32811123D01*
X39557890Y-32823106D01*
X39605703Y-32862344D01*
X39660252Y-32891502D01*
X39687872Y-32899880D01*
X39682310Y-32905442D01*
X39623706Y-32993149D01*
X39583339Y-33090603D01*
X39562760Y-33194061D01*
X39562760Y-33299545D01*
X39583339Y-33403003D01*
X39623706Y-33500457D01*
X39682310Y-33588164D01*
X39756899Y-33662753D01*
X39844606Y-33721357D01*
X39942060Y-33761724D01*
X40045518Y-33782303D01*
X40151002Y-33782303D01*
X40254460Y-33761724D01*
X40351914Y-33721357D01*
X40439621Y-33662753D01*
X40514210Y-33588164D01*
X40572814Y-33500457D01*
X40613181Y-33403003D01*
X40633760Y-33299545D01*
X40633760Y-33194061D01*
X40627340Y-33161786D01*
X40631195Y-33157931D01*
X40631199Y-33157926D01*
X41111123Y-32678003D01*
X41123106Y-32668169D01*
X41162344Y-32620356D01*
X41191502Y-32565807D01*
X41209456Y-32506618D01*
X41214000Y-32460485D01*
X41215519Y-32445063D01*
X41214000Y-32429642D01*
X41214000Y-31985984D01*
X42586000Y-30613984D01*
X42586001Y-33360305D01*
X42586001Y-33360305D01*
G37*
X42586001Y-33360305D02*
X42586000Y-33360315D01*
X42586000Y-33365768D01*
X42558639Y-33384050D01*
X42484050Y-33458639D01*
X42425446Y-33546346D01*
X42385079Y-33643800D01*
X42364500Y-33747258D01*
X42364500Y-33852742D01*
X42385079Y-33956200D01*
X42425446Y-34053654D01*
X42484050Y-34141361D01*
X42489504Y-34146815D01*
X40406579Y-34146815D01*
X40391158Y-34145296D01*
X40375736Y-34146815D01*
X40329603Y-34151359D01*
X40270414Y-34169313D01*
X40215865Y-34198471D01*
X40175497Y-34231599D01*
X40143901Y-34225314D01*
X40038417Y-34225314D01*
X39934959Y-34245893D01*
X39837505Y-34286260D01*
X39749798Y-34344864D01*
X39675209Y-34419453D01*
X39616605Y-34507160D01*
X39576238Y-34604614D01*
X39555659Y-34708072D01*
X39555659Y-34813556D01*
X39576238Y-34917014D01*
X39616605Y-35014468D01*
X39675209Y-35102175D01*
X39749798Y-35176764D01*
X39819407Y-35223276D01*
X39784050Y-35258633D01*
X39725576Y-35346145D01*
X39711278Y-35328722D01*
X39545989Y-35193073D01*
X39357413Y-35092277D01*
X39254000Y-35060907D01*
X39254000Y-34913340D01*
X39255519Y-34897919D01*
X39253908Y-34881558D01*
X39249456Y-34836364D01*
X39231502Y-34777175D01*
X39202344Y-34722626D01*
X39163106Y-34674813D01*
X39151123Y-34664979D01*
X38982373Y-34496230D01*
X38982373Y-32247301D01*
X38992757Y-32255823D01*
X39548056Y-32811123D01*
X39557890Y-32823106D01*
X39605703Y-32862344D01*
X39660252Y-32891502D01*
X39687872Y-32899880D01*
X39682310Y-32905442D01*
X39623706Y-32993149D01*
X39583339Y-33090603D01*
X39562760Y-33194061D01*
X39562760Y-33299545D01*
X39583339Y-33403003D01*
X39623706Y-33500457D01*
X39682310Y-33588164D01*
X39756899Y-33662753D01*
X39844606Y-33721357D01*
X39942060Y-33761724D01*
X40045518Y-33782303D01*
X40151002Y-33782303D01*
X40254460Y-33761724D01*
X40351914Y-33721357D01*
X40439621Y-33662753D01*
X40514210Y-33588164D01*
X40572814Y-33500457D01*
X40613181Y-33403003D01*
X40633760Y-33299545D01*
X40633760Y-33194061D01*
X40627340Y-33161786D01*
X40631195Y-33157931D01*
X40631199Y-33157926D01*
X41111123Y-32678003D01*
X41123106Y-32668169D01*
X41162344Y-32620356D01*
X41191502Y-32565807D01*
X41209456Y-32506618D01*
X41214000Y-32460485D01*
X41215519Y-32445063D01*
X41214000Y-32429642D01*
X41214000Y-31985984D01*
X42586000Y-30613984D01*
X42586001Y-33360305D01*
G36*
X32890023Y-24918231D02*
X32948627Y-25005938D01*
X33023216Y-25080527D01*
X33110923Y-25139131D01*
X33208377Y-25179498D01*
X33311835Y-25200077D01*
X33417319Y-25200077D01*
X33449594Y-25193657D01*
X33453449Y-25197512D01*
X33453454Y-25197516D01*
X34086001Y-25830064D01*
X34086000Y-27084578D01*
X34084481Y-27100000D01*
X34086000Y-27115421D01*
X34090544Y-27161554D01*
X34108498Y-27220743D01*
X34137656Y-27275292D01*
X34176894Y-27323106D01*
X34188882Y-27332944D01*
X35408533Y-28552596D01*
X35408533Y-28630141D01*
X35407014Y-28645562D01*
X35411191Y-28687971D01*
X35413077Y-28707116D01*
X35431031Y-28766305D01*
X35460189Y-28820854D01*
X35493317Y-28861222D01*
X35487032Y-28892819D01*
X35487032Y-28998303D01*
X35507611Y-29101761D01*
X35547978Y-29199215D01*
X35606582Y-29286922D01*
X35681171Y-29361511D01*
X35687033Y-29365428D01*
X35687033Y-29445686D01*
X35685409Y-29462173D01*
X35691887Y-29527942D01*
X35709892Y-29587295D01*
X35711072Y-29591184D01*
X35742225Y-29649469D01*
X35784151Y-29700555D01*
X35796950Y-29711059D01*
X36457276Y-30371386D01*
X36455901Y-30378300D01*
X36455901Y-30483784D01*
X36476480Y-30587242D01*
X36493140Y-30627462D01*
X33583503Y-27717826D01*
X33583503Y-26735500D01*
X33610864Y-26717218D01*
X33685453Y-26642629D01*
X33744057Y-26554922D01*
X33784424Y-26457468D01*
X33805003Y-26354010D01*
X33805003Y-26248526D01*
X33784424Y-26145068D01*
X33744057Y-26047614D01*
X33685453Y-25959907D01*
X33610864Y-25885318D01*
X33523157Y-25826714D01*
X33425703Y-25786347D01*
X33322245Y-25765768D01*
X33216761Y-25765768D01*
X33113303Y-25786347D01*
X33015849Y-25826714D01*
X32928142Y-25885318D01*
X32853553Y-25959907D01*
X32794949Y-26047614D01*
X32754582Y-26145068D01*
X32734003Y-26248526D01*
X32734003Y-26264500D01*
X32647258Y-26264500D01*
X32543800Y-26285079D01*
X32446346Y-26325446D01*
X32358639Y-26384050D01*
X32284050Y-26458639D01*
X32225446Y-26546346D01*
X32185079Y-26643800D01*
X32164500Y-26747258D01*
X32164500Y-26852742D01*
X32185079Y-26956200D01*
X32225446Y-27053654D01*
X32284050Y-27141361D01*
X32358639Y-27215950D01*
X32386000Y-27234232D01*
X32386000Y-27239685D01*
X32386001Y-27239695D01*
X32386000Y-28122753D01*
X32384481Y-28138175D01*
X32386000Y-28153596D01*
X32390544Y-28199729D01*
X32408498Y-28258918D01*
X32437656Y-28313467D01*
X32476894Y-28361281D01*
X32488882Y-28371119D01*
X35746519Y-31628757D01*
X35740099Y-31661032D01*
X35740099Y-31718053D01*
X32771468Y-28749423D01*
X32760959Y-28736618D01*
X32709873Y-28694692D01*
X32651588Y-28663539D01*
X32588346Y-28644355D01*
X32539055Y-28639500D01*
X32522577Y-28637877D01*
X32506099Y-28639500D01*
X31763233Y-28639500D01*
X30473155Y-27349423D01*
X30462646Y-27336618D01*
X30411560Y-27294692D01*
X30353275Y-27263539D01*
X30290033Y-27244355D01*
X30240742Y-27239500D01*
X30224264Y-27237877D01*
X30219120Y-27238384D01*
X30215950Y-27233639D01*
X30141361Y-27159050D01*
X30053654Y-27100446D01*
X29956200Y-27060079D01*
X29852742Y-27039500D01*
X29747258Y-27039500D01*
X29643800Y-27060079D01*
X29546346Y-27100446D01*
X29510500Y-27124398D01*
X29510500Y-27105389D01*
X29880390Y-26735500D01*
X30778609Y-26735500D01*
X30800000Y-26737607D01*
X30821391Y-26735500D01*
X30821394Y-26735500D01*
X30885373Y-26729199D01*
X30967465Y-26704296D01*
X31043121Y-26663857D01*
X31109435Y-26609435D01*
X31123077Y-26592812D01*
X32862970Y-24852920D01*
X32890023Y-24918231D01*
X32890023Y-24918231D01*
G37*
X32890023Y-24918231D02*
X32948627Y-25005938D01*
X33023216Y-25080527D01*
X33110923Y-25139131D01*
X33208377Y-25179498D01*
X33311835Y-25200077D01*
X33417319Y-25200077D01*
X33449594Y-25193657D01*
X33453449Y-25197512D01*
X33453454Y-25197516D01*
X34086001Y-25830064D01*
X34086000Y-27084578D01*
X34084481Y-27100000D01*
X34086000Y-27115421D01*
X34090544Y-27161554D01*
X34108498Y-27220743D01*
X34137656Y-27275292D01*
X34176894Y-27323106D01*
X34188882Y-27332944D01*
X35408533Y-28552596D01*
X35408533Y-28630141D01*
X35407014Y-28645562D01*
X35411191Y-28687971D01*
X35413077Y-28707116D01*
X35431031Y-28766305D01*
X35460189Y-28820854D01*
X35493317Y-28861222D01*
X35487032Y-28892819D01*
X35487032Y-28998303D01*
X35507611Y-29101761D01*
X35547978Y-29199215D01*
X35606582Y-29286922D01*
X35681171Y-29361511D01*
X35687033Y-29365428D01*
X35687033Y-29445686D01*
X35685409Y-29462173D01*
X35691887Y-29527942D01*
X35709892Y-29587295D01*
X35711072Y-29591184D01*
X35742225Y-29649469D01*
X35784151Y-29700555D01*
X35796950Y-29711059D01*
X36457276Y-30371386D01*
X36455901Y-30378300D01*
X36455901Y-30483784D01*
X36476480Y-30587242D01*
X36493140Y-30627462D01*
X33583503Y-27717826D01*
X33583503Y-26735500D01*
X33610864Y-26717218D01*
X33685453Y-26642629D01*
X33744057Y-26554922D01*
X33784424Y-26457468D01*
X33805003Y-26354010D01*
X33805003Y-26248526D01*
X33784424Y-26145068D01*
X33744057Y-26047614D01*
X33685453Y-25959907D01*
X33610864Y-25885318D01*
X33523157Y-25826714D01*
X33425703Y-25786347D01*
X33322245Y-25765768D01*
X33216761Y-25765768D01*
X33113303Y-25786347D01*
X33015849Y-25826714D01*
X32928142Y-25885318D01*
X32853553Y-25959907D01*
X32794949Y-26047614D01*
X32754582Y-26145068D01*
X32734003Y-26248526D01*
X32734003Y-26264500D01*
X32647258Y-26264500D01*
X32543800Y-26285079D01*
X32446346Y-26325446D01*
X32358639Y-26384050D01*
X32284050Y-26458639D01*
X32225446Y-26546346D01*
X32185079Y-26643800D01*
X32164500Y-26747258D01*
X32164500Y-26852742D01*
X32185079Y-26956200D01*
X32225446Y-27053654D01*
X32284050Y-27141361D01*
X32358639Y-27215950D01*
X32386000Y-27234232D01*
X32386000Y-27239685D01*
X32386001Y-27239695D01*
X32386000Y-28122753D01*
X32384481Y-28138175D01*
X32386000Y-28153596D01*
X32390544Y-28199729D01*
X32408498Y-28258918D01*
X32437656Y-28313467D01*
X32476894Y-28361281D01*
X32488882Y-28371119D01*
X35746519Y-31628757D01*
X35740099Y-31661032D01*
X35740099Y-31718053D01*
X32771468Y-28749423D01*
X32760959Y-28736618D01*
X32709873Y-28694692D01*
X32651588Y-28663539D01*
X32588346Y-28644355D01*
X32539055Y-28639500D01*
X32522577Y-28637877D01*
X32506099Y-28639500D01*
X31763233Y-28639500D01*
X30473155Y-27349423D01*
X30462646Y-27336618D01*
X30411560Y-27294692D01*
X30353275Y-27263539D01*
X30290033Y-27244355D01*
X30240742Y-27239500D01*
X30224264Y-27237877D01*
X30219120Y-27238384D01*
X30215950Y-27233639D01*
X30141361Y-27159050D01*
X30053654Y-27100446D01*
X29956200Y-27060079D01*
X29852742Y-27039500D01*
X29747258Y-27039500D01*
X29643800Y-27060079D01*
X29546346Y-27100446D01*
X29510500Y-27124398D01*
X29510500Y-27105389D01*
X29880390Y-26735500D01*
X30778609Y-26735500D01*
X30800000Y-26737607D01*
X30821391Y-26735500D01*
X30821394Y-26735500D01*
X30885373Y-26729199D01*
X30967465Y-26704296D01*
X31043121Y-26663857D01*
X31109435Y-26609435D01*
X31123077Y-26592812D01*
X32862970Y-24852920D01*
X32890023Y-24918231D01*
G36*
X43959158Y-24675047D02*
X43972800Y-24691670D01*
X44039114Y-24746092D01*
X44114770Y-24786531D01*
X44196862Y-24811434D01*
X44260841Y-24817735D01*
X44260843Y-24817735D01*
X44282234Y-24819842D01*
X44303626Y-24817735D01*
X46453846Y-24817735D01*
X40028742Y-31242840D01*
X40028736Y-31242845D01*
X40024881Y-31246700D01*
X39992606Y-31240280D01*
X39887122Y-31240280D01*
X39783664Y-31260859D01*
X39686210Y-31301226D01*
X39660628Y-31318320D01*
X39619825Y-31257254D01*
X39545236Y-31182665D01*
X39457529Y-31124061D01*
X39360075Y-31083694D01*
X39256617Y-31063115D01*
X39151133Y-31063115D01*
X39047675Y-31083694D01*
X38982373Y-31110743D01*
X38982373Y-26687142D01*
X38982565Y-26687180D01*
X39088049Y-26687180D01*
X39191507Y-26666601D01*
X39288961Y-26626234D01*
X39376668Y-26567630D01*
X39451257Y-26493041D01*
X39509861Y-26405334D01*
X39550228Y-26307880D01*
X39570807Y-26204422D01*
X39570807Y-26098938D01*
X39550228Y-25995480D01*
X39509861Y-25898026D01*
X39458520Y-25821189D01*
X39466361Y-25815950D01*
X39540950Y-25741361D01*
X39599554Y-25653654D01*
X39639921Y-25556200D01*
X39660500Y-25452742D01*
X39660500Y-25347258D01*
X39639921Y-25243800D01*
X39599554Y-25146346D01*
X39540950Y-25058639D01*
X39466361Y-24984050D01*
X39378654Y-24925446D01*
X39281200Y-24885079D01*
X39177742Y-24864500D01*
X39072258Y-24864500D01*
X38968800Y-24885079D01*
X38871346Y-24925446D01*
X38783639Y-24984050D01*
X38709050Y-25058639D01*
X38691152Y-25085425D01*
X38685314Y-25086000D01*
X38639181Y-25090544D01*
X38579992Y-25108498D01*
X38525443Y-25137656D01*
X38477630Y-25176894D01*
X38467796Y-25188877D01*
X37740579Y-25916094D01*
X37740579Y-25896460D01*
X37720000Y-25793002D01*
X37679633Y-25695548D01*
X37621029Y-25607841D01*
X37603591Y-25590403D01*
X37659467Y-25534527D01*
X37718071Y-25446820D01*
X37758438Y-25349366D01*
X37779017Y-25245908D01*
X37779017Y-25140424D01*
X37758438Y-25036966D01*
X37718071Y-24939512D01*
X37659467Y-24851805D01*
X37584878Y-24777216D01*
X37532923Y-24742501D01*
X38418970Y-24742501D01*
X38440361Y-24744608D01*
X38461752Y-24742501D01*
X38461755Y-24742501D01*
X38525734Y-24736200D01*
X38607826Y-24711297D01*
X38683482Y-24670858D01*
X38726566Y-24635500D01*
X43919611Y-24635500D01*
X43959158Y-24675047D01*
X43959158Y-24675047D01*
G37*
X43959158Y-24675047D02*
X43972800Y-24691670D01*
X44039114Y-24746092D01*
X44114770Y-24786531D01*
X44196862Y-24811434D01*
X44260841Y-24817735D01*
X44260843Y-24817735D01*
X44282234Y-24819842D01*
X44303626Y-24817735D01*
X46453846Y-24817735D01*
X40028742Y-31242840D01*
X40028736Y-31242845D01*
X40024881Y-31246700D01*
X39992606Y-31240280D01*
X39887122Y-31240280D01*
X39783664Y-31260859D01*
X39686210Y-31301226D01*
X39660628Y-31318320D01*
X39619825Y-31257254D01*
X39545236Y-31182665D01*
X39457529Y-31124061D01*
X39360075Y-31083694D01*
X39256617Y-31063115D01*
X39151133Y-31063115D01*
X39047675Y-31083694D01*
X38982373Y-31110743D01*
X38982373Y-26687142D01*
X38982565Y-26687180D01*
X39088049Y-26687180D01*
X39191507Y-26666601D01*
X39288961Y-26626234D01*
X39376668Y-26567630D01*
X39451257Y-26493041D01*
X39509861Y-26405334D01*
X39550228Y-26307880D01*
X39570807Y-26204422D01*
X39570807Y-26098938D01*
X39550228Y-25995480D01*
X39509861Y-25898026D01*
X39458520Y-25821189D01*
X39466361Y-25815950D01*
X39540950Y-25741361D01*
X39599554Y-25653654D01*
X39639921Y-25556200D01*
X39660500Y-25452742D01*
X39660500Y-25347258D01*
X39639921Y-25243800D01*
X39599554Y-25146346D01*
X39540950Y-25058639D01*
X39466361Y-24984050D01*
X39378654Y-24925446D01*
X39281200Y-24885079D01*
X39177742Y-24864500D01*
X39072258Y-24864500D01*
X38968800Y-24885079D01*
X38871346Y-24925446D01*
X38783639Y-24984050D01*
X38709050Y-25058639D01*
X38691152Y-25085425D01*
X38685314Y-25086000D01*
X38639181Y-25090544D01*
X38579992Y-25108498D01*
X38525443Y-25137656D01*
X38477630Y-25176894D01*
X38467796Y-25188877D01*
X37740579Y-25916094D01*
X37740579Y-25896460D01*
X37720000Y-25793002D01*
X37679633Y-25695548D01*
X37621029Y-25607841D01*
X37603591Y-25590403D01*
X37659467Y-25534527D01*
X37718071Y-25446820D01*
X37758438Y-25349366D01*
X37779017Y-25245908D01*
X37779017Y-25140424D01*
X37758438Y-25036966D01*
X37718071Y-24939512D01*
X37659467Y-24851805D01*
X37584878Y-24777216D01*
X37532923Y-24742501D01*
X38418970Y-24742501D01*
X38440361Y-24744608D01*
X38461752Y-24742501D01*
X38461755Y-24742501D01*
X38525734Y-24736200D01*
X38607826Y-24711297D01*
X38683482Y-24670858D01*
X38726566Y-24635500D01*
X43919611Y-24635500D01*
X43959158Y-24675047D01*
G36*
X38499807Y-26098938D02*
X38499807Y-26204422D01*
X38506227Y-26236698D01*
X38457251Y-26285674D01*
X38445268Y-26295508D01*
X38421859Y-26324033D01*
X38406029Y-26343322D01*
X38376872Y-26397870D01*
X38358917Y-26457060D01*
X38352854Y-26518614D01*
X38354374Y-26534046D01*
X38354374Y-28297063D01*
X38041361Y-27984050D01*
X38019378Y-27969361D01*
X37998947Y-27952594D01*
X37975638Y-27940135D01*
X37953654Y-27925446D01*
X37929224Y-27915327D01*
X37905917Y-27902869D01*
X37880630Y-27895198D01*
X37856200Y-27885079D01*
X37830264Y-27879920D01*
X37804976Y-27872249D01*
X37778675Y-27869658D01*
X37752742Y-27864500D01*
X37726305Y-27864500D01*
X37700000Y-27861909D01*
X37673695Y-27864500D01*
X37647258Y-27864500D01*
X37621325Y-27869658D01*
X37595024Y-27872249D01*
X37569736Y-27879920D01*
X37543800Y-27885079D01*
X37519370Y-27895198D01*
X37494083Y-27902869D01*
X37470776Y-27915327D01*
X37446346Y-27925446D01*
X37424362Y-27940135D01*
X37414000Y-27945674D01*
X37414000Y-27130798D01*
X38513202Y-26031597D01*
X38499807Y-26098938D01*
X38499807Y-26098938D01*
G37*
X38499807Y-26098938D02*
X38499807Y-26204422D01*
X38506227Y-26236698D01*
X38457251Y-26285674D01*
X38445268Y-26295508D01*
X38421859Y-26324033D01*
X38406029Y-26343322D01*
X38376872Y-26397870D01*
X38358917Y-26457060D01*
X38352854Y-26518614D01*
X38354374Y-26534046D01*
X38354374Y-28297063D01*
X38041361Y-27984050D01*
X38019378Y-27969361D01*
X37998947Y-27952594D01*
X37975638Y-27940135D01*
X37953654Y-27925446D01*
X37929224Y-27915327D01*
X37905917Y-27902869D01*
X37880630Y-27895198D01*
X37856200Y-27885079D01*
X37830264Y-27879920D01*
X37804976Y-27872249D01*
X37778675Y-27869658D01*
X37752742Y-27864500D01*
X37726305Y-27864500D01*
X37700000Y-27861909D01*
X37673695Y-27864500D01*
X37647258Y-27864500D01*
X37621325Y-27869658D01*
X37595024Y-27872249D01*
X37569736Y-27879920D01*
X37543800Y-27885079D01*
X37519370Y-27895198D01*
X37494083Y-27902869D01*
X37470776Y-27915327D01*
X37446346Y-27925446D01*
X37424362Y-27940135D01*
X37414000Y-27945674D01*
X37414000Y-27130798D01*
X38513202Y-26031597D01*
X38499807Y-26098938D01*
G36*
X36886566Y-24599818D02*
X36900204Y-24616436D01*
X36916821Y-24630073D01*
X36966517Y-24670858D01*
X36994807Y-24685979D01*
X37027045Y-24703211D01*
X36989863Y-24718612D01*
X36902156Y-24777216D01*
X36827567Y-24851805D01*
X36808835Y-24879840D01*
X36769543Y-24883710D01*
X36710354Y-24901664D01*
X36655805Y-24930822D01*
X36607992Y-24970060D01*
X36598158Y-24982043D01*
X35954179Y-25626022D01*
X35926784Y-25598627D01*
X35839077Y-25540023D01*
X35741623Y-25499656D01*
X35638165Y-25479077D01*
X35532681Y-25479077D01*
X35429223Y-25499656D01*
X35331769Y-25540023D01*
X35244062Y-25598627D01*
X35169473Y-25673216D01*
X35110869Y-25760923D01*
X35070502Y-25858377D01*
X35049923Y-25961835D01*
X35049923Y-26067319D01*
X35070502Y-26170777D01*
X35110869Y-26268231D01*
X35169473Y-26355938D01*
X35244062Y-26430527D01*
X35331769Y-26489131D01*
X35429223Y-26529498D01*
X35532681Y-26550077D01*
X35638165Y-26550077D01*
X35741623Y-26529498D01*
X35839077Y-26489131D01*
X35926784Y-26430527D01*
X36001373Y-26355938D01*
X36019271Y-26329152D01*
X36025108Y-26328577D01*
X36025109Y-26328577D01*
X36071242Y-26324033D01*
X36130431Y-26306079D01*
X36184980Y-26276921D01*
X36232793Y-26237683D01*
X36242631Y-26225695D01*
X36700647Y-25767680D01*
X36690158Y-25793002D01*
X36669579Y-25896460D01*
X36669579Y-26001944D01*
X36675999Y-26034219D01*
X36031719Y-26678500D01*
X35493138Y-26678500D01*
X35433010Y-26618372D01*
X35345303Y-26559768D01*
X35247849Y-26519401D01*
X35144391Y-26498822D01*
X35038907Y-26498822D01*
X34935449Y-26519401D01*
X34837995Y-26559768D01*
X34750288Y-26618372D01*
X34714000Y-26654660D01*
X34714000Y-25715421D01*
X34715519Y-25700000D01*
X34709456Y-25638445D01*
X34691502Y-25579256D01*
X34662344Y-25524707D01*
X34647949Y-25507166D01*
X34623106Y-25476894D01*
X34611123Y-25467060D01*
X33897516Y-24753454D01*
X33897512Y-24753449D01*
X33893657Y-24749594D01*
X33900077Y-24717319D01*
X33900077Y-24611835D01*
X33879498Y-24508377D01*
X33839131Y-24410923D01*
X33788735Y-24335500D01*
X36622249Y-24335500D01*
X36886566Y-24599818D01*
X36886566Y-24599818D01*
G37*
X36886566Y-24599818D02*
X36900204Y-24616436D01*
X36916821Y-24630073D01*
X36966517Y-24670858D01*
X36994807Y-24685979D01*
X37027045Y-24703211D01*
X36989863Y-24718612D01*
X36902156Y-24777216D01*
X36827567Y-24851805D01*
X36808835Y-24879840D01*
X36769543Y-24883710D01*
X36710354Y-24901664D01*
X36655805Y-24930822D01*
X36607992Y-24970060D01*
X36598158Y-24982043D01*
X35954179Y-25626022D01*
X35926784Y-25598627D01*
X35839077Y-25540023D01*
X35741623Y-25499656D01*
X35638165Y-25479077D01*
X35532681Y-25479077D01*
X35429223Y-25499656D01*
X35331769Y-25540023D01*
X35244062Y-25598627D01*
X35169473Y-25673216D01*
X35110869Y-25760923D01*
X35070502Y-25858377D01*
X35049923Y-25961835D01*
X35049923Y-26067319D01*
X35070502Y-26170777D01*
X35110869Y-26268231D01*
X35169473Y-26355938D01*
X35244062Y-26430527D01*
X35331769Y-26489131D01*
X35429223Y-26529498D01*
X35532681Y-26550077D01*
X35638165Y-26550077D01*
X35741623Y-26529498D01*
X35839077Y-26489131D01*
X35926784Y-26430527D01*
X36001373Y-26355938D01*
X36019271Y-26329152D01*
X36025108Y-26328577D01*
X36025109Y-26328577D01*
X36071242Y-26324033D01*
X36130431Y-26306079D01*
X36184980Y-26276921D01*
X36232793Y-26237683D01*
X36242631Y-26225695D01*
X36700647Y-25767680D01*
X36690158Y-25793002D01*
X36669579Y-25896460D01*
X36669579Y-26001944D01*
X36675999Y-26034219D01*
X36031719Y-26678500D01*
X35493138Y-26678500D01*
X35433010Y-26618372D01*
X35345303Y-26559768D01*
X35247849Y-26519401D01*
X35144391Y-26498822D01*
X35038907Y-26498822D01*
X34935449Y-26519401D01*
X34837995Y-26559768D01*
X34750288Y-26618372D01*
X34714000Y-26654660D01*
X34714000Y-25715421D01*
X34715519Y-25700000D01*
X34709456Y-25638445D01*
X34691502Y-25579256D01*
X34662344Y-25524707D01*
X34647949Y-25507166D01*
X34623106Y-25476894D01*
X34611123Y-25467060D01*
X33897516Y-24753454D01*
X33897512Y-24753449D01*
X33893657Y-24749594D01*
X33900077Y-24717319D01*
X33900077Y-24611835D01*
X33879498Y-24508377D01*
X33839131Y-24410923D01*
X33788735Y-24335500D01*
X36622249Y-24335500D01*
X36886566Y-24599818D01*
G36*
X58842587Y-20092277D02*
X58654011Y-20193073D01*
X58488722Y-20328722D01*
X58353073Y-20494011D01*
X58252277Y-20682587D01*
X58190206Y-20887205D01*
X58169248Y-21100000D01*
X58190206Y-21312795D01*
X58252277Y-21517413D01*
X58303219Y-21612718D01*
X54957960Y-24957978D01*
X53306084Y-24957978D01*
X56207282Y-22056781D01*
X56302587Y-22107723D01*
X56507205Y-22169794D01*
X56666674Y-22185500D01*
X56773326Y-22185500D01*
X56932795Y-22169794D01*
X57137413Y-22107723D01*
X57325989Y-22006927D01*
X57491278Y-21871278D01*
X57626927Y-21705989D01*
X57727723Y-21517413D01*
X57789794Y-21312795D01*
X57810752Y-21100000D01*
X57789794Y-20887205D01*
X57727723Y-20682587D01*
X57626927Y-20494011D01*
X57491278Y-20328722D01*
X57325989Y-20193073D01*
X57137413Y-20092277D01*
X57032660Y-20060500D01*
X58947340Y-20060500D01*
X58842587Y-20092277D01*
X58842587Y-20092277D01*
G37*
X58842587Y-20092277D02*
X58654011Y-20193073D01*
X58488722Y-20328722D01*
X58353073Y-20494011D01*
X58252277Y-20682587D01*
X58190206Y-20887205D01*
X58169248Y-21100000D01*
X58190206Y-21312795D01*
X58252277Y-21517413D01*
X58303219Y-21612718D01*
X54957960Y-24957978D01*
X53306084Y-24957978D01*
X56207282Y-22056781D01*
X56302587Y-22107723D01*
X56507205Y-22169794D01*
X56666674Y-22185500D01*
X56773326Y-22185500D01*
X56932795Y-22169794D01*
X57137413Y-22107723D01*
X57325989Y-22006927D01*
X57491278Y-21871278D01*
X57626927Y-21705989D01*
X57727723Y-21517413D01*
X57789794Y-21312795D01*
X57810752Y-21100000D01*
X57789794Y-20887205D01*
X57727723Y-20682587D01*
X57626927Y-20494011D01*
X57491278Y-20328722D01*
X57325989Y-20193073D01*
X57137413Y-20092277D01*
X57032660Y-20060500D01*
X58947340Y-20060500D01*
X58842587Y-20092277D01*
G04 #@! TD*
M02*
