G04 #@! TF.GenerationSoftware,KiCad,Pcbnew,5.1.2*
G04 #@! TF.CreationDate,2019-05-17T23:45:07+02:00*
G04 #@! TF.ProjectId,OtterPill,4f747465-7250-4696-9c6c-2e6b69636164,rev?*
G04 #@! TF.SameCoordinates,Original*
G04 #@! TF.FileFunction,Legend,Bot*
G04 #@! TF.FilePolarity,Positive*
%FSLAX46Y46*%
G04 Gerber Fmt 4.6, Leading zero omitted, Abs format (unit mm)*
G04 Created by KiCad (PCBNEW 5.1.2) date 2019-05-17 23:45:07*
%MOMM*%
%LPD*%
G04 APERTURE LIST*
%ADD10C,0.100000*%
%ADD11C,0.300000*%
%ADD12C,0.050000*%
%ADD13C,0.010000*%
G04 APERTURE END LIST*
D10*
X45250000Y-28983333D02*
X45250000Y-28483333D01*
X45216666Y-28383333D01*
X45150000Y-28316666D01*
X45050000Y-28283333D01*
X44983333Y-28283333D01*
X45883333Y-28283333D02*
X45883333Y-28650000D01*
X45850000Y-28716666D01*
X45783333Y-28750000D01*
X45650000Y-28750000D01*
X45583333Y-28716666D01*
X45883333Y-28316666D02*
X45816666Y-28283333D01*
X45650000Y-28283333D01*
X45583333Y-28316666D01*
X45550000Y-28383333D01*
X45550000Y-28450000D01*
X45583333Y-28516666D01*
X45650000Y-28550000D01*
X45816666Y-28550000D01*
X45883333Y-28583333D01*
X46216666Y-28750000D02*
X46216666Y-28283333D01*
X46216666Y-28683333D02*
X46250000Y-28716666D01*
X46316666Y-28750000D01*
X46416666Y-28750000D01*
X46483333Y-28716666D01*
X46516666Y-28650000D01*
X46516666Y-28283333D01*
X47383333Y-28283333D02*
X47383333Y-28983333D01*
X47383333Y-28650000D02*
X47783333Y-28650000D01*
X47783333Y-28283333D02*
X47783333Y-28983333D01*
X48383333Y-28316666D02*
X48316666Y-28283333D01*
X48183333Y-28283333D01*
X48116666Y-28316666D01*
X48083333Y-28383333D01*
X48083333Y-28650000D01*
X48116666Y-28716666D01*
X48183333Y-28750000D01*
X48316666Y-28750000D01*
X48383333Y-28716666D01*
X48416666Y-28650000D01*
X48416666Y-28583333D01*
X48083333Y-28516666D01*
X48716666Y-28750000D02*
X48716666Y-28283333D01*
X48716666Y-28683333D02*
X48749999Y-28716666D01*
X48816666Y-28750000D01*
X48916666Y-28750000D01*
X48983333Y-28716666D01*
X49016666Y-28650000D01*
X49016666Y-28283333D01*
X49349999Y-28283333D02*
X49349999Y-28750000D01*
X49349999Y-28616666D02*
X49383333Y-28683333D01*
X49416666Y-28716666D01*
X49483333Y-28750000D01*
X49549999Y-28750000D01*
X49783333Y-28283333D02*
X49783333Y-28750000D01*
X49783333Y-28983333D02*
X49749999Y-28950000D01*
X49783333Y-28916666D01*
X49816666Y-28950000D01*
X49783333Y-28983333D01*
X49783333Y-28916666D01*
X50116666Y-28283333D02*
X50116666Y-28983333D01*
X50183333Y-28550000D02*
X50383333Y-28283333D01*
X50383333Y-28750000D02*
X50116666Y-28483333D01*
X51183333Y-28916666D02*
X51216666Y-28950000D01*
X51283333Y-28983333D01*
X51449999Y-28983333D01*
X51516666Y-28950000D01*
X51549999Y-28916666D01*
X51583333Y-28850000D01*
X51583333Y-28783333D01*
X51549999Y-28683333D01*
X51149999Y-28283333D01*
X51583333Y-28283333D01*
X52016666Y-28983333D02*
X52083333Y-28983333D01*
X52149999Y-28950000D01*
X52183333Y-28916666D01*
X52216666Y-28850000D01*
X52249999Y-28716666D01*
X52249999Y-28550000D01*
X52216666Y-28416666D01*
X52183333Y-28350000D01*
X52149999Y-28316666D01*
X52083333Y-28283333D01*
X52016666Y-28283333D01*
X51949999Y-28316666D01*
X51916666Y-28350000D01*
X51883333Y-28416666D01*
X51849999Y-28550000D01*
X51849999Y-28716666D01*
X51883333Y-28850000D01*
X51916666Y-28916666D01*
X51949999Y-28950000D01*
X52016666Y-28983333D01*
X52916666Y-28283333D02*
X52516666Y-28283333D01*
X52716666Y-28283333D02*
X52716666Y-28983333D01*
X52649999Y-28883333D01*
X52583333Y-28816666D01*
X52516666Y-28783333D01*
X53249999Y-28283333D02*
X53383333Y-28283333D01*
X53449999Y-28316666D01*
X53483333Y-28350000D01*
X53549999Y-28450000D01*
X53583333Y-28583333D01*
X53583333Y-28850000D01*
X53549999Y-28916666D01*
X53516666Y-28950000D01*
X53449999Y-28983333D01*
X53316666Y-28983333D01*
X53249999Y-28950000D01*
X53216666Y-28916666D01*
X53183333Y-28850000D01*
X53183333Y-28683333D01*
X53216666Y-28616666D01*
X53249999Y-28583333D01*
X53316666Y-28550000D01*
X53449999Y-28550000D01*
X53516666Y-28583333D01*
X53549999Y-28616666D01*
X53583333Y-28683333D01*
D11*
X44061904Y-32295238D02*
X44442857Y-32295238D01*
X44633333Y-32200000D01*
X44823809Y-32009523D01*
X44919047Y-31628571D01*
X44919047Y-30961904D01*
X44823809Y-30580952D01*
X44633333Y-30390476D01*
X44442857Y-30295238D01*
X44061904Y-30295238D01*
X43871428Y-30390476D01*
X43680952Y-30580952D01*
X43585714Y-30961904D01*
X43585714Y-31628571D01*
X43680952Y-32009523D01*
X43871428Y-32200000D01*
X44061904Y-32295238D01*
X45490476Y-31628571D02*
X46252380Y-31628571D01*
X45776190Y-32295238D02*
X45776190Y-30580952D01*
X45871428Y-30390476D01*
X46061904Y-30295238D01*
X46252380Y-30295238D01*
X46633333Y-31628571D02*
X47395238Y-31628571D01*
X46919047Y-32295238D02*
X46919047Y-30580952D01*
X47014285Y-30390476D01*
X47204761Y-30295238D01*
X47395238Y-30295238D01*
X48823809Y-30390476D02*
X48633333Y-30295238D01*
X48252380Y-30295238D01*
X48061904Y-30390476D01*
X47966666Y-30580952D01*
X47966666Y-31342857D01*
X48061904Y-31533333D01*
X48252380Y-31628571D01*
X48633333Y-31628571D01*
X48823809Y-31533333D01*
X48919047Y-31342857D01*
X48919047Y-31152380D01*
X47966666Y-30961904D01*
X49776190Y-30295238D02*
X49776190Y-31628571D01*
X49776190Y-31247619D02*
X49871428Y-31438095D01*
X49966666Y-31533333D01*
X50157142Y-31628571D01*
X50347619Y-31628571D01*
X51014285Y-31628571D02*
X51014285Y-29628571D01*
X51014285Y-31533333D02*
X51204761Y-31628571D01*
X51585714Y-31628571D01*
X51776190Y-31533333D01*
X51871428Y-31438095D01*
X51966666Y-31247619D01*
X51966666Y-30676190D01*
X51871428Y-30485714D01*
X51776190Y-30390476D01*
X51585714Y-30295238D01*
X51204761Y-30295238D01*
X51014285Y-30390476D01*
X52823809Y-30295238D02*
X52823809Y-31628571D01*
X52823809Y-32295238D02*
X52728571Y-32200000D01*
X52823809Y-32104761D01*
X52919047Y-32200000D01*
X52823809Y-32295238D01*
X52823809Y-32104761D01*
X54061904Y-30295238D02*
X53871428Y-30390476D01*
X53776190Y-30580952D01*
X53776190Y-32295238D01*
X55109523Y-30295238D02*
X54919047Y-30390476D01*
X54823809Y-30580952D01*
X54823809Y-32295238D01*
D10*
X60816666Y-23983333D02*
X60816666Y-24416666D01*
X61083333Y-24183333D01*
X61083333Y-24283333D01*
X61116666Y-24350000D01*
X61150000Y-24383333D01*
X61216666Y-24416666D01*
X61383333Y-24416666D01*
X61450000Y-24383333D01*
X61483333Y-24350000D01*
X61516666Y-24283333D01*
X61516666Y-24083333D01*
X61483333Y-24016666D01*
X61450000Y-23983333D01*
X60816666Y-24616666D02*
X61516666Y-24850000D01*
X60816666Y-25083333D01*
X60816666Y-25250000D02*
X60816666Y-25683333D01*
X61083333Y-25450000D01*
X61083333Y-25550000D01*
X61116666Y-25616666D01*
X61150000Y-25650000D01*
X61216666Y-25683333D01*
X61383333Y-25683333D01*
X61450000Y-25650000D01*
X61483333Y-25616666D01*
X61516666Y-25550000D01*
X61516666Y-25350000D01*
X61483333Y-25283333D01*
X61450000Y-25250000D01*
X61516666Y-26683333D02*
X60816666Y-26683333D01*
X60816666Y-26850000D01*
X60850000Y-26950000D01*
X60916666Y-27016666D01*
X60983333Y-27050000D01*
X61116666Y-27083333D01*
X61216666Y-27083333D01*
X61350000Y-27050000D01*
X61416666Y-27016666D01*
X61483333Y-26950000D01*
X61516666Y-26850000D01*
X61516666Y-26683333D01*
X61516666Y-27383333D02*
X60816666Y-27383333D01*
X60816666Y-27850000D02*
X60816666Y-27983333D01*
X60850000Y-28050000D01*
X60916666Y-28116666D01*
X61050000Y-28150000D01*
X61283333Y-28150000D01*
X61416666Y-28116666D01*
X61483333Y-28050000D01*
X61516666Y-27983333D01*
X61516666Y-27850000D01*
X61483333Y-27783333D01*
X61416666Y-27716666D01*
X61283333Y-27683333D01*
X61050000Y-27683333D01*
X60916666Y-27716666D01*
X60850000Y-27783333D01*
X60816666Y-27850000D01*
X61450000Y-29483333D02*
X61483333Y-29450000D01*
X61516666Y-29350000D01*
X61516666Y-29283333D01*
X61483333Y-29183333D01*
X61416666Y-29116666D01*
X61350000Y-29083333D01*
X61216666Y-29050000D01*
X61116666Y-29050000D01*
X60983333Y-29083333D01*
X60916666Y-29116666D01*
X60850000Y-29183333D01*
X60816666Y-29283333D01*
X60816666Y-29350000D01*
X60850000Y-29450000D01*
X60883333Y-29483333D01*
X61516666Y-30116666D02*
X61516666Y-29783333D01*
X60816666Y-29783333D01*
X61516666Y-30350000D02*
X60816666Y-30350000D01*
X61516666Y-30750000D02*
X61116666Y-30450000D01*
X60816666Y-30750000D02*
X61216666Y-30350000D01*
X60875000Y-31966666D02*
X60841666Y-31900000D01*
X60841666Y-31800000D01*
X60875000Y-31700000D01*
X60941666Y-31633333D01*
X61008333Y-31600000D01*
X61141666Y-31566666D01*
X61241666Y-31566666D01*
X61375000Y-31600000D01*
X61441666Y-31633333D01*
X61508333Y-31700000D01*
X61541666Y-31800000D01*
X61541666Y-31866666D01*
X61508333Y-31966666D01*
X61475000Y-32000000D01*
X61241666Y-32000000D01*
X61241666Y-31866666D01*
X61541666Y-32300000D02*
X60841666Y-32300000D01*
X61541666Y-32700000D01*
X60841666Y-32700000D01*
X61541666Y-33033333D02*
X60841666Y-33033333D01*
X60841666Y-33200000D01*
X60875000Y-33300000D01*
X60941666Y-33366666D01*
X61008333Y-33400000D01*
X61141666Y-33433333D01*
X61241666Y-33433333D01*
X61375000Y-33400000D01*
X61441666Y-33366666D01*
X61508333Y-33300000D01*
X61541666Y-33200000D01*
X61541666Y-33033333D01*
X51191666Y-22850000D02*
X51125000Y-22883333D01*
X51025000Y-22883333D01*
X50925000Y-22850000D01*
X50858333Y-22783333D01*
X50825000Y-22716666D01*
X50791666Y-22583333D01*
X50791666Y-22483333D01*
X50825000Y-22350000D01*
X50858333Y-22283333D01*
X50925000Y-22216666D01*
X51025000Y-22183333D01*
X51091666Y-22183333D01*
X51191666Y-22216666D01*
X51225000Y-22250000D01*
X51225000Y-22483333D01*
X51091666Y-22483333D01*
X51525000Y-22183333D02*
X51525000Y-22883333D01*
X51925000Y-22183333D01*
X51925000Y-22883333D01*
X52258333Y-22183333D02*
X52258333Y-22883333D01*
X52425000Y-22883333D01*
X52525000Y-22850000D01*
X52591666Y-22783333D01*
X52625000Y-22716666D01*
X52658333Y-22583333D01*
X52658333Y-22483333D01*
X52625000Y-22350000D01*
X52591666Y-22283333D01*
X52525000Y-22216666D01*
X52425000Y-22183333D01*
X52258333Y-22183333D01*
X28008333Y-22183333D02*
X28008333Y-22883333D01*
X28275000Y-22883333D01*
X28341666Y-22850000D01*
X28375000Y-22816666D01*
X28408333Y-22750000D01*
X28408333Y-22650000D01*
X28375000Y-22583333D01*
X28341666Y-22550000D01*
X28275000Y-22516666D01*
X28008333Y-22516666D01*
X28941666Y-22550000D02*
X29041666Y-22516666D01*
X29075000Y-22483333D01*
X29108333Y-22416666D01*
X29108333Y-22316666D01*
X29075000Y-22250000D01*
X29041666Y-22216666D01*
X28975000Y-22183333D01*
X28708333Y-22183333D01*
X28708333Y-22883333D01*
X28941666Y-22883333D01*
X29008333Y-22850000D01*
X29041666Y-22816666D01*
X29075000Y-22750000D01*
X29075000Y-22683333D01*
X29041666Y-22616666D01*
X29008333Y-22583333D01*
X28941666Y-22550000D01*
X28708333Y-22550000D01*
X29541666Y-22883333D02*
X29608333Y-22883333D01*
X29675000Y-22850000D01*
X29708333Y-22816666D01*
X29741666Y-22750000D01*
X29775000Y-22616666D01*
X29775000Y-22450000D01*
X29741666Y-22316666D01*
X29708333Y-22250000D01*
X29675000Y-22216666D01*
X29608333Y-22183333D01*
X29541666Y-22183333D01*
X29475000Y-22216666D01*
X29441666Y-22250000D01*
X29408333Y-22316666D01*
X29375000Y-22450000D01*
X29375000Y-22616666D01*
X29408333Y-22750000D01*
X29441666Y-22816666D01*
X29475000Y-22850000D01*
X29541666Y-22883333D01*
X53408333Y-22183333D02*
X53408333Y-22883333D01*
X53675000Y-22883333D01*
X53741666Y-22850000D01*
X53775000Y-22816666D01*
X53808333Y-22750000D01*
X53808333Y-22650000D01*
X53775000Y-22583333D01*
X53741666Y-22550000D01*
X53675000Y-22516666D01*
X53408333Y-22516666D01*
X54341666Y-22550000D02*
X54441666Y-22516666D01*
X54475000Y-22483333D01*
X54508333Y-22416666D01*
X54508333Y-22316666D01*
X54475000Y-22250000D01*
X54441666Y-22216666D01*
X54375000Y-22183333D01*
X54108333Y-22183333D01*
X54108333Y-22883333D01*
X54341666Y-22883333D01*
X54408333Y-22850000D01*
X54441666Y-22816666D01*
X54475000Y-22750000D01*
X54475000Y-22683333D01*
X54441666Y-22616666D01*
X54408333Y-22583333D01*
X54341666Y-22550000D01*
X54108333Y-22550000D01*
X54841666Y-22183333D02*
X54975000Y-22183333D01*
X55041666Y-22216666D01*
X55075000Y-22250000D01*
X55141666Y-22350000D01*
X55175000Y-22483333D01*
X55175000Y-22750000D01*
X55141666Y-22816666D01*
X55108333Y-22850000D01*
X55041666Y-22883333D01*
X54908333Y-22883333D01*
X54841666Y-22850000D01*
X54808333Y-22816666D01*
X54775000Y-22750000D01*
X54775000Y-22583333D01*
X54808333Y-22516666D01*
X54841666Y-22483333D01*
X54908333Y-22450000D01*
X55041666Y-22450000D01*
X55108333Y-22483333D01*
X55141666Y-22516666D01*
X55175000Y-22583333D01*
X30200000Y-22233333D02*
X30200000Y-22933333D01*
X30466666Y-22933333D01*
X30533333Y-22900000D01*
X30566666Y-22866666D01*
X30600000Y-22800000D01*
X30600000Y-22700000D01*
X30566666Y-22633333D01*
X30533333Y-22600000D01*
X30466666Y-22566666D01*
X30200000Y-22566666D01*
X31133333Y-22600000D02*
X31233333Y-22566666D01*
X31266666Y-22533333D01*
X31300000Y-22466666D01*
X31300000Y-22366666D01*
X31266666Y-22300000D01*
X31233333Y-22266666D01*
X31166666Y-22233333D01*
X30900000Y-22233333D01*
X30900000Y-22933333D01*
X31133333Y-22933333D01*
X31200000Y-22900000D01*
X31233333Y-22866666D01*
X31266666Y-22800000D01*
X31266666Y-22733333D01*
X31233333Y-22666666D01*
X31200000Y-22633333D01*
X31133333Y-22600000D01*
X30900000Y-22600000D01*
X31966666Y-22233333D02*
X31566666Y-22233333D01*
X31766666Y-22233333D02*
X31766666Y-22933333D01*
X31700000Y-22833333D01*
X31633333Y-22766666D01*
X31566666Y-22733333D01*
X32233333Y-22866666D02*
X32266666Y-22900000D01*
X32333333Y-22933333D01*
X32500000Y-22933333D01*
X32566666Y-22900000D01*
X32600000Y-22866666D01*
X32633333Y-22800000D01*
X32633333Y-22733333D01*
X32600000Y-22633333D01*
X32200000Y-22233333D01*
X32633333Y-22233333D01*
X35658333Y-22133333D02*
X35658333Y-22833333D01*
X35925000Y-22833333D01*
X35991666Y-22800000D01*
X36025000Y-22766666D01*
X36058333Y-22700000D01*
X36058333Y-22600000D01*
X36025000Y-22533333D01*
X35991666Y-22500000D01*
X35925000Y-22466666D01*
X35658333Y-22466666D01*
X36325000Y-22333333D02*
X36658333Y-22333333D01*
X36258333Y-22133333D02*
X36491666Y-22833333D01*
X36725000Y-22133333D01*
X37258333Y-22833333D02*
X37125000Y-22833333D01*
X37058333Y-22800000D01*
X37025000Y-22766666D01*
X36958333Y-22666666D01*
X36925000Y-22533333D01*
X36925000Y-22266666D01*
X36958333Y-22200000D01*
X36991666Y-22166666D01*
X37058333Y-22133333D01*
X37191666Y-22133333D01*
X37258333Y-22166666D01*
X37291666Y-22200000D01*
X37325000Y-22266666D01*
X37325000Y-22433333D01*
X37291666Y-22500000D01*
X37258333Y-22533333D01*
X37191666Y-22566666D01*
X37058333Y-22566666D01*
X36991666Y-22533333D01*
X36958333Y-22500000D01*
X36925000Y-22433333D01*
X55675000Y-22183333D02*
X55675000Y-22883333D01*
X55941666Y-22883333D01*
X56008333Y-22850000D01*
X56041666Y-22816666D01*
X56075000Y-22750000D01*
X56075000Y-22650000D01*
X56041666Y-22583333D01*
X56008333Y-22550000D01*
X55941666Y-22516666D01*
X55675000Y-22516666D01*
X56341666Y-22383333D02*
X56675000Y-22383333D01*
X56275000Y-22183333D02*
X56508333Y-22883333D01*
X56741666Y-22183333D01*
X57341666Y-22183333D02*
X56941666Y-22183333D01*
X57141666Y-22183333D02*
X57141666Y-22883333D01*
X57075000Y-22783333D01*
X57008333Y-22716666D01*
X56941666Y-22683333D01*
X57775000Y-22883333D02*
X57841666Y-22883333D01*
X57908333Y-22850000D01*
X57941666Y-22816666D01*
X57975000Y-22750000D01*
X58008333Y-22616666D01*
X58008333Y-22450000D01*
X57975000Y-22316666D01*
X57941666Y-22250000D01*
X57908333Y-22216666D01*
X57841666Y-22183333D01*
X57775000Y-22183333D01*
X57708333Y-22216666D01*
X57675000Y-22250000D01*
X57641666Y-22316666D01*
X57608333Y-22450000D01*
X57608333Y-22616666D01*
X57641666Y-22750000D01*
X57675000Y-22816666D01*
X57708333Y-22850000D01*
X57775000Y-22883333D01*
X48383333Y-22183333D02*
X48383333Y-22883333D01*
X48650000Y-22883333D01*
X48716666Y-22850000D01*
X48750000Y-22816666D01*
X48783333Y-22750000D01*
X48783333Y-22650000D01*
X48750000Y-22583333D01*
X48716666Y-22550000D01*
X48650000Y-22516666D01*
X48383333Y-22516666D01*
X49050000Y-22383333D02*
X49383333Y-22383333D01*
X48983333Y-22183333D02*
X49216666Y-22883333D01*
X49450000Y-22183333D01*
X50050000Y-22183333D02*
X49650000Y-22183333D01*
X49850000Y-22183333D02*
X49850000Y-22883333D01*
X49783333Y-22783333D01*
X49716666Y-22716666D01*
X49650000Y-22683333D01*
X38208333Y-22183333D02*
X38208333Y-22883333D01*
X38475000Y-22883333D01*
X38541666Y-22850000D01*
X38575000Y-22816666D01*
X38608333Y-22750000D01*
X38608333Y-22650000D01*
X38575000Y-22583333D01*
X38541666Y-22550000D01*
X38475000Y-22516666D01*
X38208333Y-22516666D01*
X38875000Y-22383333D02*
X39208333Y-22383333D01*
X38808333Y-22183333D02*
X39041666Y-22883333D01*
X39275000Y-22183333D01*
X39841666Y-22883333D02*
X39508333Y-22883333D01*
X39475000Y-22550000D01*
X39508333Y-22583333D01*
X39575000Y-22616666D01*
X39741666Y-22616666D01*
X39808333Y-22583333D01*
X39841666Y-22550000D01*
X39875000Y-22483333D01*
X39875000Y-22316666D01*
X39841666Y-22250000D01*
X39808333Y-22216666D01*
X39741666Y-22183333D01*
X39575000Y-22183333D01*
X39508333Y-22216666D01*
X39475000Y-22250000D01*
X22575000Y-22183333D02*
X22575000Y-22883333D01*
X22841666Y-22883333D01*
X22908333Y-22850000D01*
X22941666Y-22816666D01*
X22975000Y-22750000D01*
X22975000Y-22650000D01*
X22941666Y-22583333D01*
X22908333Y-22550000D01*
X22841666Y-22516666D01*
X22575000Y-22516666D01*
X23508333Y-22550000D02*
X23608333Y-22516666D01*
X23641666Y-22483333D01*
X23675000Y-22416666D01*
X23675000Y-22316666D01*
X23641666Y-22250000D01*
X23608333Y-22216666D01*
X23541666Y-22183333D01*
X23275000Y-22183333D01*
X23275000Y-22883333D01*
X23508333Y-22883333D01*
X23575000Y-22850000D01*
X23608333Y-22816666D01*
X23641666Y-22750000D01*
X23641666Y-22683333D01*
X23608333Y-22616666D01*
X23575000Y-22583333D01*
X23508333Y-22550000D01*
X23275000Y-22550000D01*
X24341666Y-22183333D02*
X23941666Y-22183333D01*
X24141666Y-22183333D02*
X24141666Y-22883333D01*
X24075000Y-22783333D01*
X24008333Y-22716666D01*
X23941666Y-22683333D01*
X24941666Y-22650000D02*
X24941666Y-22183333D01*
X24775000Y-22916666D02*
X24608333Y-22416666D01*
X25041666Y-22416666D01*
X43258333Y-22183333D02*
X43258333Y-22883333D01*
X43525000Y-22883333D01*
X43591666Y-22850000D01*
X43625000Y-22816666D01*
X43658333Y-22750000D01*
X43658333Y-22650000D01*
X43625000Y-22583333D01*
X43591666Y-22550000D01*
X43525000Y-22516666D01*
X43258333Y-22516666D01*
X43925000Y-22383333D02*
X44258333Y-22383333D01*
X43858333Y-22183333D02*
X44091666Y-22883333D01*
X44325000Y-22183333D01*
X44491666Y-22883333D02*
X44925000Y-22883333D01*
X44691666Y-22616666D01*
X44791666Y-22616666D01*
X44858333Y-22583333D01*
X44891666Y-22550000D01*
X44925000Y-22483333D01*
X44925000Y-22316666D01*
X44891666Y-22250000D01*
X44858333Y-22216666D01*
X44791666Y-22183333D01*
X44591666Y-22183333D01*
X44525000Y-22216666D01*
X44491666Y-22250000D01*
X58508333Y-22183333D02*
X58508333Y-22883333D01*
X58775000Y-22883333D01*
X58841666Y-22850000D01*
X58875000Y-22816666D01*
X58908333Y-22750000D01*
X58908333Y-22650000D01*
X58875000Y-22583333D01*
X58841666Y-22550000D01*
X58775000Y-22516666D01*
X58508333Y-22516666D01*
X59175000Y-22383333D02*
X59508333Y-22383333D01*
X59108333Y-22183333D02*
X59341666Y-22883333D01*
X59575000Y-22183333D01*
X59841666Y-22183333D02*
X59975000Y-22183333D01*
X60041666Y-22216666D01*
X60075000Y-22250000D01*
X60141666Y-22350000D01*
X60175000Y-22483333D01*
X60175000Y-22750000D01*
X60141666Y-22816666D01*
X60108333Y-22850000D01*
X60041666Y-22883333D01*
X59908333Y-22883333D01*
X59841666Y-22850000D01*
X59808333Y-22816666D01*
X59775000Y-22750000D01*
X59775000Y-22583333D01*
X59808333Y-22516666D01*
X59841666Y-22483333D01*
X59908333Y-22450000D01*
X60041666Y-22450000D01*
X60108333Y-22483333D01*
X60141666Y-22516666D01*
X60175000Y-22583333D01*
X25125000Y-22183333D02*
X25125000Y-22883333D01*
X25391666Y-22883333D01*
X25458333Y-22850000D01*
X25491666Y-22816666D01*
X25525000Y-22750000D01*
X25525000Y-22650000D01*
X25491666Y-22583333D01*
X25458333Y-22550000D01*
X25391666Y-22516666D01*
X25125000Y-22516666D01*
X26058333Y-22550000D02*
X26158333Y-22516666D01*
X26191666Y-22483333D01*
X26225000Y-22416666D01*
X26225000Y-22316666D01*
X26191666Y-22250000D01*
X26158333Y-22216666D01*
X26091666Y-22183333D01*
X25825000Y-22183333D01*
X25825000Y-22883333D01*
X26058333Y-22883333D01*
X26125000Y-22850000D01*
X26158333Y-22816666D01*
X26191666Y-22750000D01*
X26191666Y-22683333D01*
X26158333Y-22616666D01*
X26125000Y-22583333D01*
X26058333Y-22550000D01*
X25825000Y-22550000D01*
X26891666Y-22183333D02*
X26491666Y-22183333D01*
X26691666Y-22183333D02*
X26691666Y-22883333D01*
X26625000Y-22783333D01*
X26558333Y-22716666D01*
X26491666Y-22683333D01*
X27525000Y-22883333D02*
X27191666Y-22883333D01*
X27158333Y-22550000D01*
X27191666Y-22583333D01*
X27258333Y-22616666D01*
X27425000Y-22616666D01*
X27491666Y-22583333D01*
X27525000Y-22550000D01*
X27558333Y-22483333D01*
X27558333Y-22316666D01*
X27525000Y-22250000D01*
X27491666Y-22216666D01*
X27425000Y-22183333D01*
X27258333Y-22183333D01*
X27191666Y-22216666D01*
X27158333Y-22250000D01*
X40733333Y-22183333D02*
X40733333Y-22883333D01*
X41000000Y-22883333D01*
X41066666Y-22850000D01*
X41100000Y-22816666D01*
X41133333Y-22750000D01*
X41133333Y-22650000D01*
X41100000Y-22583333D01*
X41066666Y-22550000D01*
X41000000Y-22516666D01*
X40733333Y-22516666D01*
X41400000Y-22383333D02*
X41733333Y-22383333D01*
X41333333Y-22183333D02*
X41566666Y-22883333D01*
X41800000Y-22183333D01*
X42333333Y-22650000D02*
X42333333Y-22183333D01*
X42166666Y-22916666D02*
X42000000Y-22416666D01*
X42433333Y-22416666D01*
X33083333Y-22183333D02*
X33083333Y-22883333D01*
X33350000Y-22883333D01*
X33416666Y-22850000D01*
X33450000Y-22816666D01*
X33483333Y-22750000D01*
X33483333Y-22650000D01*
X33450000Y-22583333D01*
X33416666Y-22550000D01*
X33350000Y-22516666D01*
X33083333Y-22516666D01*
X33750000Y-22383333D02*
X34083333Y-22383333D01*
X33683333Y-22183333D02*
X33916666Y-22883333D01*
X34150000Y-22183333D01*
X34316666Y-22883333D02*
X34783333Y-22883333D01*
X34483333Y-22183333D01*
X45783333Y-22183333D02*
X45783333Y-22883333D01*
X46050000Y-22883333D01*
X46116666Y-22850000D01*
X46150000Y-22816666D01*
X46183333Y-22750000D01*
X46183333Y-22650000D01*
X46150000Y-22583333D01*
X46116666Y-22550000D01*
X46050000Y-22516666D01*
X45783333Y-22516666D01*
X46450000Y-22383333D02*
X46783333Y-22383333D01*
X46383333Y-22183333D02*
X46616666Y-22883333D01*
X46850000Y-22183333D01*
X47050000Y-22816666D02*
X47083333Y-22850000D01*
X47150000Y-22883333D01*
X47316666Y-22883333D01*
X47383333Y-22850000D01*
X47416666Y-22816666D01*
X47450000Y-22750000D01*
X47450000Y-22683333D01*
X47416666Y-22583333D01*
X47016666Y-22183333D01*
X47450000Y-22183333D01*
X42341666Y-35041666D02*
X42341666Y-34341666D01*
X42075000Y-34341666D01*
X42008333Y-34375000D01*
X41975000Y-34408333D01*
X41941666Y-34475000D01*
X41941666Y-34575000D01*
X41975000Y-34641666D01*
X42008333Y-34675000D01*
X42075000Y-34708333D01*
X42341666Y-34708333D01*
X41408333Y-34675000D02*
X41308333Y-34708333D01*
X41275000Y-34741666D01*
X41241666Y-34808333D01*
X41241666Y-34908333D01*
X41275000Y-34975000D01*
X41308333Y-35008333D01*
X41375000Y-35041666D01*
X41641666Y-35041666D01*
X41641666Y-34341666D01*
X41408333Y-34341666D01*
X41341666Y-34375000D01*
X41308333Y-34408333D01*
X41275000Y-34475000D01*
X41275000Y-34541666D01*
X41308333Y-34608333D01*
X41341666Y-34641666D01*
X41408333Y-34675000D01*
X41641666Y-34675000D01*
X41008333Y-34341666D02*
X40541666Y-34341666D01*
X40841666Y-35041666D01*
X57258333Y-34375000D02*
X57325000Y-34341666D01*
X57425000Y-34341666D01*
X57525000Y-34375000D01*
X57591666Y-34441666D01*
X57625000Y-34508333D01*
X57658333Y-34641666D01*
X57658333Y-34741666D01*
X57625000Y-34875000D01*
X57591666Y-34941666D01*
X57525000Y-35008333D01*
X57425000Y-35041666D01*
X57358333Y-35041666D01*
X57258333Y-35008333D01*
X57225000Y-34975000D01*
X57225000Y-34741666D01*
X57358333Y-34741666D01*
X56925000Y-35041666D02*
X56925000Y-34341666D01*
X56525000Y-35041666D01*
X56525000Y-34341666D01*
X56191666Y-35041666D02*
X56191666Y-34341666D01*
X56025000Y-34341666D01*
X55925000Y-34375000D01*
X55858333Y-34441666D01*
X55825000Y-34508333D01*
X55791666Y-34641666D01*
X55791666Y-34741666D01*
X55825000Y-34875000D01*
X55858333Y-34941666D01*
X55925000Y-35008333D01*
X56025000Y-35041666D01*
X56191666Y-35041666D01*
X32141666Y-35041666D02*
X32141666Y-34341666D01*
X31875000Y-34341666D01*
X31808333Y-34375000D01*
X31775000Y-34408333D01*
X31741666Y-34475000D01*
X31741666Y-34575000D01*
X31775000Y-34641666D01*
X31808333Y-34675000D01*
X31875000Y-34708333D01*
X32141666Y-34708333D01*
X31208333Y-34675000D02*
X31108333Y-34708333D01*
X31075000Y-34741666D01*
X31041666Y-34808333D01*
X31041666Y-34908333D01*
X31075000Y-34975000D01*
X31108333Y-35008333D01*
X31175000Y-35041666D01*
X31441666Y-35041666D01*
X31441666Y-34341666D01*
X31208333Y-34341666D01*
X31141666Y-34375000D01*
X31108333Y-34408333D01*
X31075000Y-34475000D01*
X31075000Y-34541666D01*
X31108333Y-34608333D01*
X31141666Y-34641666D01*
X31208333Y-34675000D01*
X31441666Y-34675000D01*
X30375000Y-35041666D02*
X30775000Y-35041666D01*
X30575000Y-35041666D02*
X30575000Y-34341666D01*
X30641666Y-34441666D01*
X30708333Y-34508333D01*
X30775000Y-34541666D01*
X29591666Y-35041666D02*
X29591666Y-34341666D01*
X29325000Y-34341666D01*
X29258333Y-34375000D01*
X29225000Y-34408333D01*
X29191666Y-34475000D01*
X29191666Y-34575000D01*
X29225000Y-34641666D01*
X29258333Y-34675000D01*
X29325000Y-34708333D01*
X29591666Y-34708333D01*
X28925000Y-34841666D02*
X28591666Y-34841666D01*
X28991666Y-35041666D02*
X28758333Y-34341666D01*
X28525000Y-35041666D01*
X28191666Y-34641666D02*
X28258333Y-34608333D01*
X28291666Y-34575000D01*
X28325000Y-34508333D01*
X28325000Y-34475000D01*
X28291666Y-34408333D01*
X28258333Y-34375000D01*
X28191666Y-34341666D01*
X28058333Y-34341666D01*
X27991666Y-34375000D01*
X27958333Y-34408333D01*
X27925000Y-34475000D01*
X27925000Y-34508333D01*
X27958333Y-34575000D01*
X27991666Y-34608333D01*
X28058333Y-34641666D01*
X28191666Y-34641666D01*
X28258333Y-34675000D01*
X28291666Y-34708333D01*
X28325000Y-34775000D01*
X28325000Y-34908333D01*
X28291666Y-34975000D01*
X28258333Y-35008333D01*
X28191666Y-35041666D01*
X28058333Y-35041666D01*
X27991666Y-35008333D01*
X27958333Y-34975000D01*
X27925000Y-34908333D01*
X27925000Y-34775000D01*
X27958333Y-34708333D01*
X27991666Y-34675000D01*
X28058333Y-34641666D01*
X47391666Y-35041666D02*
X47391666Y-34341666D01*
X47125000Y-34341666D01*
X47058333Y-34375000D01*
X47025000Y-34408333D01*
X46991666Y-34475000D01*
X46991666Y-34575000D01*
X47025000Y-34641666D01*
X47058333Y-34675000D01*
X47125000Y-34708333D01*
X47391666Y-34708333D01*
X46458333Y-34675000D02*
X46358333Y-34708333D01*
X46325000Y-34741666D01*
X46291666Y-34808333D01*
X46291666Y-34908333D01*
X46325000Y-34975000D01*
X46358333Y-35008333D01*
X46425000Y-35041666D01*
X46691666Y-35041666D01*
X46691666Y-34341666D01*
X46458333Y-34341666D01*
X46391666Y-34375000D01*
X46358333Y-34408333D01*
X46325000Y-34475000D01*
X46325000Y-34541666D01*
X46358333Y-34608333D01*
X46391666Y-34641666D01*
X46458333Y-34675000D01*
X46691666Y-34675000D01*
X46058333Y-34341666D02*
X45625000Y-34341666D01*
X45858333Y-34608333D01*
X45758333Y-34608333D01*
X45691666Y-34641666D01*
X45658333Y-34675000D01*
X45625000Y-34741666D01*
X45625000Y-34908333D01*
X45658333Y-34975000D01*
X45691666Y-35008333D01*
X45758333Y-35041666D01*
X45958333Y-35041666D01*
X46025000Y-35008333D01*
X46058333Y-34975000D01*
X52491666Y-34341666D02*
X52058333Y-34341666D01*
X52291666Y-34608333D01*
X52191666Y-34608333D01*
X52125000Y-34641666D01*
X52091666Y-34675000D01*
X52058333Y-34741666D01*
X52058333Y-34908333D01*
X52091666Y-34975000D01*
X52125000Y-35008333D01*
X52191666Y-35041666D01*
X52391666Y-35041666D01*
X52458333Y-35008333D01*
X52491666Y-34975000D01*
X51858333Y-34341666D02*
X51625000Y-35041666D01*
X51391666Y-34341666D01*
X51225000Y-34341666D02*
X50791666Y-34341666D01*
X51025000Y-34608333D01*
X50925000Y-34608333D01*
X50858333Y-34641666D01*
X50825000Y-34675000D01*
X50791666Y-34741666D01*
X50791666Y-34908333D01*
X50825000Y-34975000D01*
X50858333Y-35008333D01*
X50925000Y-35041666D01*
X51125000Y-35041666D01*
X51191666Y-35008333D01*
X51225000Y-34975000D01*
X55041666Y-35041666D02*
X55041666Y-34341666D01*
X54775000Y-34341666D01*
X54708333Y-34375000D01*
X54675000Y-34408333D01*
X54641666Y-34475000D01*
X54641666Y-34575000D01*
X54675000Y-34641666D01*
X54708333Y-34675000D01*
X54775000Y-34708333D01*
X55041666Y-34708333D01*
X54108333Y-34675000D02*
X54008333Y-34708333D01*
X53975000Y-34741666D01*
X53941666Y-34808333D01*
X53941666Y-34908333D01*
X53975000Y-34975000D01*
X54008333Y-35008333D01*
X54075000Y-35041666D01*
X54341666Y-35041666D01*
X54341666Y-34341666D01*
X54108333Y-34341666D01*
X54041666Y-34375000D01*
X54008333Y-34408333D01*
X53975000Y-34475000D01*
X53975000Y-34541666D01*
X54008333Y-34608333D01*
X54041666Y-34641666D01*
X54108333Y-34675000D01*
X54341666Y-34675000D01*
X53308333Y-34341666D02*
X53641666Y-34341666D01*
X53675000Y-34675000D01*
X53641666Y-34641666D01*
X53575000Y-34608333D01*
X53408333Y-34608333D01*
X53341666Y-34641666D01*
X53308333Y-34675000D01*
X53275000Y-34741666D01*
X53275000Y-34908333D01*
X53308333Y-34975000D01*
X53341666Y-35008333D01*
X53408333Y-35041666D01*
X53575000Y-35041666D01*
X53641666Y-35008333D01*
X53675000Y-34975000D01*
X49941666Y-35041666D02*
X49941666Y-34341666D01*
X49675000Y-34341666D01*
X49608333Y-34375000D01*
X49575000Y-34408333D01*
X49541666Y-34475000D01*
X49541666Y-34575000D01*
X49575000Y-34641666D01*
X49608333Y-34675000D01*
X49675000Y-34708333D01*
X49941666Y-34708333D01*
X49008333Y-34675000D02*
X48908333Y-34708333D01*
X48875000Y-34741666D01*
X48841666Y-34808333D01*
X48841666Y-34908333D01*
X48875000Y-34975000D01*
X48908333Y-35008333D01*
X48975000Y-35041666D01*
X49241666Y-35041666D01*
X49241666Y-34341666D01*
X49008333Y-34341666D01*
X48941666Y-34375000D01*
X48908333Y-34408333D01*
X48875000Y-34475000D01*
X48875000Y-34541666D01*
X48908333Y-34608333D01*
X48941666Y-34641666D01*
X49008333Y-34675000D01*
X49241666Y-34675000D01*
X48241666Y-34575000D02*
X48241666Y-35041666D01*
X48408333Y-34308333D02*
X48575000Y-34808333D01*
X48141666Y-34808333D01*
X37575000Y-35041666D02*
X37575000Y-34341666D01*
X37308333Y-34341666D01*
X37241666Y-34375000D01*
X37208333Y-34408333D01*
X37175000Y-34475000D01*
X37175000Y-34575000D01*
X37208333Y-34641666D01*
X37241666Y-34675000D01*
X37308333Y-34708333D01*
X37575000Y-34708333D01*
X36908333Y-34841666D02*
X36575000Y-34841666D01*
X36975000Y-35041666D02*
X36741666Y-34341666D01*
X36508333Y-35041666D01*
X35908333Y-35041666D02*
X36308333Y-35041666D01*
X36108333Y-35041666D02*
X36108333Y-34341666D01*
X36175000Y-34441666D01*
X36241666Y-34508333D01*
X36308333Y-34541666D01*
X35275000Y-34341666D02*
X35608333Y-34341666D01*
X35641666Y-34675000D01*
X35608333Y-34641666D01*
X35541666Y-34608333D01*
X35375000Y-34608333D01*
X35308333Y-34641666D01*
X35275000Y-34675000D01*
X35241666Y-34741666D01*
X35241666Y-34908333D01*
X35275000Y-34975000D01*
X35308333Y-35008333D01*
X35375000Y-35041666D01*
X35541666Y-35041666D01*
X35608333Y-35008333D01*
X35641666Y-34975000D01*
X39791666Y-35041666D02*
X39791666Y-34341666D01*
X39525000Y-34341666D01*
X39458333Y-34375000D01*
X39425000Y-34408333D01*
X39391666Y-34475000D01*
X39391666Y-34575000D01*
X39425000Y-34641666D01*
X39458333Y-34675000D01*
X39525000Y-34708333D01*
X39791666Y-34708333D01*
X38858333Y-34675000D02*
X38758333Y-34708333D01*
X38725000Y-34741666D01*
X38691666Y-34808333D01*
X38691666Y-34908333D01*
X38725000Y-34975000D01*
X38758333Y-35008333D01*
X38825000Y-35041666D01*
X39091666Y-35041666D01*
X39091666Y-34341666D01*
X38858333Y-34341666D01*
X38791666Y-34375000D01*
X38758333Y-34408333D01*
X38725000Y-34475000D01*
X38725000Y-34541666D01*
X38758333Y-34608333D01*
X38791666Y-34641666D01*
X38858333Y-34675000D01*
X39091666Y-34675000D01*
X38425000Y-34408333D02*
X38391666Y-34375000D01*
X38325000Y-34341666D01*
X38158333Y-34341666D01*
X38091666Y-34375000D01*
X38058333Y-34408333D01*
X38025000Y-34475000D01*
X38025000Y-34541666D01*
X38058333Y-34641666D01*
X38458333Y-35041666D01*
X38025000Y-35041666D01*
X60041666Y-34341666D02*
X59808333Y-35041666D01*
X59575000Y-34341666D01*
X59341666Y-35041666D02*
X59341666Y-34341666D01*
X59008333Y-35041666D02*
X59008333Y-34341666D01*
X58608333Y-35041666D01*
X58608333Y-34341666D01*
X34691666Y-35041666D02*
X34691666Y-34341666D01*
X34425000Y-34341666D01*
X34358333Y-34375000D01*
X34325000Y-34408333D01*
X34291666Y-34475000D01*
X34291666Y-34575000D01*
X34325000Y-34641666D01*
X34358333Y-34675000D01*
X34425000Y-34708333D01*
X34691666Y-34708333D01*
X33758333Y-34675000D02*
X33658333Y-34708333D01*
X33625000Y-34741666D01*
X33591666Y-34808333D01*
X33591666Y-34908333D01*
X33625000Y-34975000D01*
X33658333Y-35008333D01*
X33725000Y-35041666D01*
X33991666Y-35041666D01*
X33991666Y-34341666D01*
X33758333Y-34341666D01*
X33691666Y-34375000D01*
X33658333Y-34408333D01*
X33625000Y-34475000D01*
X33625000Y-34541666D01*
X33658333Y-34608333D01*
X33691666Y-34641666D01*
X33758333Y-34675000D01*
X33991666Y-34675000D01*
X33191666Y-34641666D02*
X33258333Y-34608333D01*
X33291666Y-34575000D01*
X33325000Y-34508333D01*
X33325000Y-34475000D01*
X33291666Y-34408333D01*
X33258333Y-34375000D01*
X33191666Y-34341666D01*
X33058333Y-34341666D01*
X32991666Y-34375000D01*
X32958333Y-34408333D01*
X32925000Y-34475000D01*
X32925000Y-34508333D01*
X32958333Y-34575000D01*
X32991666Y-34608333D01*
X33058333Y-34641666D01*
X33191666Y-34641666D01*
X33258333Y-34675000D01*
X33291666Y-34708333D01*
X33325000Y-34775000D01*
X33325000Y-34908333D01*
X33291666Y-34975000D01*
X33258333Y-35008333D01*
X33191666Y-35041666D01*
X33058333Y-35041666D01*
X32991666Y-35008333D01*
X32958333Y-34975000D01*
X32925000Y-34908333D01*
X32925000Y-34775000D01*
X32958333Y-34708333D01*
X32991666Y-34675000D01*
X33058333Y-34641666D01*
X44891666Y-35041666D02*
X44891666Y-34341666D01*
X44625000Y-34341666D01*
X44558333Y-34375000D01*
X44525000Y-34408333D01*
X44491666Y-34475000D01*
X44491666Y-34575000D01*
X44525000Y-34641666D01*
X44558333Y-34675000D01*
X44625000Y-34708333D01*
X44891666Y-34708333D01*
X43958333Y-34675000D02*
X43858333Y-34708333D01*
X43825000Y-34741666D01*
X43791666Y-34808333D01*
X43791666Y-34908333D01*
X43825000Y-34975000D01*
X43858333Y-35008333D01*
X43925000Y-35041666D01*
X44191666Y-35041666D01*
X44191666Y-34341666D01*
X43958333Y-34341666D01*
X43891666Y-34375000D01*
X43858333Y-34408333D01*
X43825000Y-34475000D01*
X43825000Y-34541666D01*
X43858333Y-34608333D01*
X43891666Y-34641666D01*
X43958333Y-34675000D01*
X44191666Y-34675000D01*
X43458333Y-35041666D02*
X43325000Y-35041666D01*
X43258333Y-35008333D01*
X43225000Y-34975000D01*
X43158333Y-34875000D01*
X43125000Y-34741666D01*
X43125000Y-34475000D01*
X43158333Y-34408333D01*
X43191666Y-34375000D01*
X43258333Y-34341666D01*
X43391666Y-34341666D01*
X43458333Y-34375000D01*
X43491666Y-34408333D01*
X43525000Y-34475000D01*
X43525000Y-34641666D01*
X43491666Y-34708333D01*
X43458333Y-34741666D01*
X43391666Y-34775000D01*
X43258333Y-34775000D01*
X43191666Y-34741666D01*
X43158333Y-34708333D01*
X43125000Y-34641666D01*
X24875000Y-35041666D02*
X24875000Y-34341666D01*
X24608333Y-34341666D01*
X24541666Y-34375000D01*
X24508333Y-34408333D01*
X24475000Y-34475000D01*
X24475000Y-34575000D01*
X24508333Y-34641666D01*
X24541666Y-34675000D01*
X24608333Y-34708333D01*
X24875000Y-34708333D01*
X23941666Y-34675000D02*
X23841666Y-34708333D01*
X23808333Y-34741666D01*
X23775000Y-34808333D01*
X23775000Y-34908333D01*
X23808333Y-34975000D01*
X23841666Y-35008333D01*
X23908333Y-35041666D01*
X24175000Y-35041666D01*
X24175000Y-34341666D01*
X23941666Y-34341666D01*
X23875000Y-34375000D01*
X23841666Y-34408333D01*
X23808333Y-34475000D01*
X23808333Y-34541666D01*
X23841666Y-34608333D01*
X23875000Y-34641666D01*
X23941666Y-34675000D01*
X24175000Y-34675000D01*
X23108333Y-35041666D02*
X23508333Y-35041666D01*
X23308333Y-35041666D02*
X23308333Y-34341666D01*
X23375000Y-34441666D01*
X23441666Y-34508333D01*
X23508333Y-34541666D01*
X22875000Y-34341666D02*
X22441666Y-34341666D01*
X22675000Y-34608333D01*
X22575000Y-34608333D01*
X22508333Y-34641666D01*
X22475000Y-34675000D01*
X22441666Y-34741666D01*
X22441666Y-34908333D01*
X22475000Y-34975000D01*
X22508333Y-35008333D01*
X22575000Y-35041666D01*
X22775000Y-35041666D01*
X22841666Y-35008333D01*
X22875000Y-34975000D01*
X27091666Y-34341666D02*
X26658333Y-34341666D01*
X26891666Y-34608333D01*
X26791666Y-34608333D01*
X26725000Y-34641666D01*
X26691666Y-34675000D01*
X26658333Y-34741666D01*
X26658333Y-34908333D01*
X26691666Y-34975000D01*
X26725000Y-35008333D01*
X26791666Y-35041666D01*
X26991666Y-35041666D01*
X27058333Y-35008333D01*
X27091666Y-34975000D01*
X26458333Y-34341666D02*
X26225000Y-35041666D01*
X25991666Y-34341666D01*
X25825000Y-34341666D02*
X25391666Y-34341666D01*
X25625000Y-34608333D01*
X25525000Y-34608333D01*
X25458333Y-34641666D01*
X25425000Y-34675000D01*
X25391666Y-34741666D01*
X25391666Y-34908333D01*
X25425000Y-34975000D01*
X25458333Y-35008333D01*
X25525000Y-35041666D01*
X25725000Y-35041666D01*
X25791666Y-35008333D01*
X25825000Y-34975000D01*
D12*
X63200000Y-37100000D02*
G75*
G02X62900000Y-37400000I-300000J0D01*
G01*
X62900000Y-19800000D02*
G75*
G02X63200000Y-20100000I0J-300000D01*
G01*
X20000000Y-20100000D02*
G75*
G02X20300000Y-19800000I300000J0D01*
G01*
X20300000Y-37400000D02*
G75*
G02X20000000Y-37100000I0J300000D01*
G01*
X20000000Y-37100000D02*
X20000000Y-20100000D01*
X62900000Y-37400000D02*
X20300000Y-37400000D01*
X63200000Y-20100000D02*
X63200000Y-37100000D01*
X20300000Y-19800000D02*
X62900000Y-19800000D01*
D13*
G36*
X26513979Y-30140858D02*
G01*
X26617797Y-30088308D01*
X26648494Y-30007835D01*
X26601696Y-29905256D01*
X26564333Y-29863334D01*
X26468388Y-29810589D01*
X26330789Y-29781475D01*
X26185313Y-29778104D01*
X26065739Y-29802588D01*
X26022466Y-29829467D01*
X25976030Y-29924777D01*
X25980027Y-29969167D01*
X26295024Y-29969167D01*
X26302162Y-29916904D01*
X26370910Y-29907912D01*
X26454794Y-29931270D01*
X26500401Y-29971080D01*
X26498091Y-29994770D01*
X26434897Y-30030578D01*
X26351697Y-30020348D01*
X26295345Y-29969987D01*
X26295024Y-29969167D01*
X25980027Y-29969167D01*
X25985713Y-30032290D01*
X26047191Y-30112192D01*
X26053550Y-30115844D01*
X26144139Y-30142135D01*
X26278112Y-30157775D01*
X26341416Y-30159667D01*
X26513979Y-30140858D01*
X26513979Y-30140858D01*
G37*
X26513979Y-30140858D02*
X26617797Y-30088308D01*
X26648494Y-30007835D01*
X26601696Y-29905256D01*
X26564333Y-29863334D01*
X26468388Y-29810589D01*
X26330789Y-29781475D01*
X26185313Y-29778104D01*
X26065739Y-29802588D01*
X26022466Y-29829467D01*
X25976030Y-29924777D01*
X25980027Y-29969167D01*
X26295024Y-29969167D01*
X26302162Y-29916904D01*
X26370910Y-29907912D01*
X26454794Y-29931270D01*
X26500401Y-29971080D01*
X26498091Y-29994770D01*
X26434897Y-30030578D01*
X26351697Y-30020348D01*
X26295345Y-29969987D01*
X26295024Y-29969167D01*
X25980027Y-29969167D01*
X25985713Y-30032290D01*
X26047191Y-30112192D01*
X26053550Y-30115844D01*
X26144139Y-30142135D01*
X26278112Y-30157775D01*
X26341416Y-30159667D01*
X26513979Y-30140858D01*
G36*
X27205688Y-30539892D02*
G01*
X27917537Y-30512771D01*
X28572250Y-30432456D01*
X29067705Y-30327544D01*
X29318704Y-30256716D01*
X29514025Y-30181079D01*
X29681975Y-30085099D01*
X29850860Y-29953240D01*
X30002480Y-29814508D01*
X30172340Y-29660412D01*
X30362792Y-29498923D01*
X30536853Y-29361241D01*
X30561648Y-29342817D01*
X30686209Y-29239998D01*
X30848871Y-29089161D01*
X31032839Y-28906748D01*
X31221319Y-28709201D01*
X31324001Y-28596501D01*
X31502853Y-28397761D01*
X31637116Y-28253481D01*
X31737825Y-28154292D01*
X31816012Y-28090821D01*
X31882714Y-28053698D01*
X31948963Y-28033551D01*
X31996732Y-28025161D01*
X32154516Y-27988512D01*
X32306595Y-27933619D01*
X32332668Y-27921183D01*
X32392907Y-27892386D01*
X32449397Y-27875488D01*
X32517632Y-27871825D01*
X32613105Y-27882732D01*
X32751310Y-27909545D01*
X32947741Y-27953601D01*
X33089558Y-27986443D01*
X33487415Y-28081719D01*
X33879795Y-28182014D01*
X34283394Y-28292028D01*
X34714909Y-28416461D01*
X35191035Y-28560010D01*
X35728468Y-28727377D01*
X35782360Y-28744384D01*
X36492216Y-28960939D01*
X37157371Y-29148362D01*
X37772681Y-29305514D01*
X38333002Y-29431259D01*
X38833190Y-29524458D01*
X39268102Y-29583975D01*
X39632593Y-29608672D01*
X39693938Y-29609334D01*
X39870566Y-29604161D01*
X40111711Y-29589868D01*
X40397936Y-29568295D01*
X40709806Y-29541281D01*
X41027881Y-29510663D01*
X41332726Y-29478282D01*
X41604903Y-29445977D01*
X41824976Y-29415586D01*
X41931333Y-29397643D01*
X42082767Y-29376758D01*
X42216570Y-29371549D01*
X42272780Y-29377175D01*
X42376226Y-29372112D01*
X42537220Y-29322057D01*
X42738447Y-29236059D01*
X42913221Y-29149307D01*
X43061538Y-29058520D01*
X43206510Y-28946740D01*
X43371249Y-28797005D01*
X43476500Y-28694458D01*
X43664011Y-28514667D01*
X43871646Y-28324515D01*
X44070635Y-28149947D01*
X44196166Y-28045442D01*
X44391290Y-27887761D01*
X44612127Y-27708110D01*
X44819242Y-27538595D01*
X44873500Y-27493945D01*
X45029748Y-27368931D01*
X45175330Y-27259110D01*
X45289661Y-27179696D01*
X45335358Y-27152636D01*
X45416661Y-27099703D01*
X45542129Y-27004110D01*
X45693419Y-26880306D01*
X45825054Y-26766837D01*
X46040427Y-26590222D01*
X46265154Y-26428980D01*
X46469105Y-26304423D01*
X46506196Y-26285061D01*
X46703891Y-26182995D01*
X46928425Y-26063004D01*
X47133518Y-25949848D01*
X47146767Y-25942361D01*
X47825093Y-25582215D01*
X48584095Y-25224542D01*
X49185698Y-24966327D01*
X49950751Y-24649846D01*
X51793625Y-24699735D01*
X52241004Y-24710559D01*
X52713229Y-24719675D01*
X53192321Y-24726891D01*
X53660302Y-24732014D01*
X54099193Y-24734849D01*
X54491016Y-24735203D01*
X54817792Y-24732884D01*
X54843000Y-24732543D01*
X55195204Y-24727346D01*
X55475791Y-24722099D01*
X55697804Y-24715654D01*
X55874283Y-24706861D01*
X56018272Y-24694571D01*
X56142812Y-24677637D01*
X56260946Y-24654908D01*
X56385716Y-24625237D01*
X56530164Y-24587474D01*
X56550066Y-24582177D01*
X56783037Y-24513927D01*
X57021519Y-24433616D01*
X57233637Y-24352492D01*
X57357774Y-24297131D01*
X57542338Y-24198300D01*
X57704712Y-24097326D01*
X57831954Y-24003849D01*
X57911122Y-23927511D01*
X57929273Y-23877953D01*
X57926201Y-23873692D01*
X57875438Y-23871117D01*
X57763116Y-23888403D01*
X57609071Y-23922100D01*
X57524034Y-23943646D01*
X57211620Y-24003156D01*
X56832867Y-24037147D01*
X56401849Y-24046590D01*
X55932641Y-24032460D01*
X55439319Y-23995729D01*
X54935959Y-23937371D01*
X54436635Y-23858358D01*
X53955422Y-23759663D01*
X53615333Y-23673441D01*
X53378221Y-23609607D01*
X53170912Y-23559690D01*
X52975821Y-23521363D01*
X52775367Y-23492301D01*
X52551966Y-23470176D01*
X52288035Y-23452663D01*
X51965990Y-23437436D01*
X51773833Y-23429805D01*
X51480173Y-23416995D01*
X51207133Y-23402078D01*
X50968625Y-23386052D01*
X50778565Y-23369915D01*
X50650865Y-23354664D01*
X50609946Y-23346348D01*
X50472984Y-23321929D01*
X50277928Y-23308387D01*
X50050589Y-23305280D01*
X49816780Y-23312167D01*
X49602311Y-23328606D01*
X49432996Y-23354155D01*
X49382000Y-23367356D01*
X49224526Y-23398888D01*
X48991917Y-23419302D01*
X48693063Y-23427869D01*
X48641166Y-23428090D01*
X48440224Y-23434093D01*
X48173489Y-23450755D01*
X47852525Y-23476693D01*
X47488897Y-23510520D01*
X47094169Y-23550854D01*
X46679905Y-23596308D01*
X46257671Y-23645498D01*
X45839030Y-23697040D01*
X45435547Y-23749548D01*
X45058786Y-23801639D01*
X44720312Y-23851926D01*
X44431689Y-23899027D01*
X44204482Y-23941555D01*
X44052184Y-23977568D01*
X43973646Y-23993550D01*
X43894947Y-23988382D01*
X43794637Y-23956460D01*
X43651265Y-23892181D01*
X43565351Y-23850404D01*
X43373389Y-23765124D01*
X43172606Y-23690644D01*
X43000202Y-23640463D01*
X42968500Y-23633783D01*
X42852119Y-23620513D01*
X42655206Y-23608978D01*
X42381879Y-23599282D01*
X42036257Y-23591529D01*
X41622458Y-23585824D01*
X41144601Y-23582269D01*
X40888197Y-23581343D01*
X40443351Y-23580497D01*
X40075512Y-23580532D01*
X39777026Y-23581712D01*
X39540237Y-23584302D01*
X39357488Y-23588564D01*
X39221123Y-23594762D01*
X39123487Y-23603159D01*
X39056924Y-23614020D01*
X39013777Y-23627607D01*
X38986390Y-23644184D01*
X38983197Y-23646920D01*
X38971472Y-23659086D01*
X38961815Y-23669794D01*
X38949039Y-23679066D01*
X38927961Y-23686921D01*
X38893395Y-23693378D01*
X38840157Y-23698459D01*
X38763061Y-23702184D01*
X38656924Y-23704571D01*
X38516559Y-23705643D01*
X38336782Y-23705418D01*
X38112408Y-23703916D01*
X37838252Y-23701159D01*
X37509129Y-23697166D01*
X37119855Y-23691957D01*
X36665244Y-23685553D01*
X36140112Y-23677972D01*
X35539274Y-23669237D01*
X35052166Y-23662175D01*
X34669421Y-23657825D01*
X34301852Y-23655884D01*
X33961167Y-23656255D01*
X33659073Y-23658839D01*
X33407277Y-23663542D01*
X33217487Y-23670264D01*
X33106571Y-23678282D01*
X32936320Y-23696397D01*
X32826385Y-23700053D01*
X32753186Y-23686202D01*
X32693145Y-23651797D01*
X32653249Y-23619702D01*
X32523034Y-23545885D01*
X32356223Y-23498424D01*
X32334010Y-23495117D01*
X32247254Y-23489179D01*
X32086281Y-23483596D01*
X31861539Y-23478528D01*
X31583479Y-23474132D01*
X31262549Y-23470567D01*
X30909198Y-23467991D01*
X30533876Y-23466563D01*
X30437833Y-23466404D01*
X30045152Y-23465839D01*
X29660272Y-23465126D01*
X29295750Y-23464300D01*
X28964146Y-23463395D01*
X28678019Y-23462447D01*
X28449929Y-23461489D01*
X28292434Y-23460557D01*
X28278833Y-23460448D01*
X28029149Y-23462091D01*
X27754528Y-23469771D01*
X27499587Y-23482048D01*
X27402054Y-23488775D01*
X27206084Y-23506639D01*
X27079385Y-23525810D01*
X27006598Y-23550070D01*
X26972363Y-23583201D01*
X26967177Y-23595865D01*
X26957984Y-23690432D01*
X26998414Y-23776050D01*
X27094975Y-23856514D01*
X27254175Y-23935620D01*
X27482519Y-24017164D01*
X27786516Y-24104943D01*
X27883744Y-24130551D01*
X28129177Y-24199348D01*
X28385611Y-24279874D01*
X28620380Y-24361425D01*
X28780516Y-24424418D01*
X29141043Y-24579299D01*
X28999736Y-24776566D01*
X28923264Y-24897913D01*
X28815800Y-25090456D01*
X28680495Y-25347913D01*
X28520501Y-25664004D01*
X28338972Y-26032449D01*
X28139058Y-26446966D01*
X27923913Y-26901275D01*
X27795872Y-27175202D01*
X27441297Y-27937237D01*
X27013398Y-28135316D01*
X26785855Y-28233608D01*
X26516681Y-28339245D01*
X26245837Y-28436956D01*
X26087711Y-28489021D01*
X25778941Y-28599165D01*
X25488377Y-28728370D01*
X25230157Y-28868508D01*
X25018419Y-29011450D01*
X24867304Y-29149067D01*
X24814197Y-29221176D01*
X24759113Y-29362421D01*
X24747790Y-29419574D01*
X24878576Y-29419574D01*
X24914086Y-29333022D01*
X24972883Y-29250917D01*
X25078888Y-29145010D01*
X25241035Y-29035120D01*
X25465907Y-28917831D01*
X25760085Y-28789726D01*
X26130154Y-28647388D01*
X26148951Y-28640500D01*
X26516912Y-28503195D01*
X26813268Y-28385695D01*
X27047420Y-28283181D01*
X27228769Y-28190837D01*
X27366719Y-28103846D01*
X27470671Y-28017390D01*
X27550027Y-27926651D01*
X27554771Y-27920198D01*
X27642934Y-27794457D01*
X27715885Y-27676483D01*
X27782771Y-27547541D01*
X27852740Y-27388899D01*
X27934942Y-27181822D01*
X28003161Y-27002010D01*
X28057878Y-26857650D01*
X28107358Y-26732642D01*
X28157318Y-26615938D01*
X28213479Y-26496489D01*
X28281560Y-26363244D01*
X28367280Y-26205155D01*
X28476359Y-26011172D01*
X28614516Y-25770245D01*
X28787469Y-25471325D01*
X28861702Y-25343339D01*
X29018723Y-25076491D01*
X29140833Y-24878235D01*
X29232445Y-24742183D01*
X29297975Y-24661946D01*
X29341836Y-24631137D01*
X29353864Y-24631095D01*
X29442120Y-24652547D01*
X29560269Y-24677929D01*
X29562403Y-24678360D01*
X29659280Y-24710521D01*
X29682352Y-24757218D01*
X29678639Y-24770120D01*
X29629322Y-24952458D01*
X29635766Y-25127146D01*
X29654597Y-25211566D01*
X29700581Y-25353961D01*
X29767499Y-25520687D01*
X29846405Y-25693868D01*
X29928353Y-25855628D01*
X30004395Y-25988092D01*
X30065586Y-26073384D01*
X30097089Y-26095667D01*
X30112729Y-26068118D01*
X30092602Y-25981771D01*
X30034971Y-25831073D01*
X29961748Y-25662792D01*
X29879501Y-25465810D01*
X29810856Y-25275682D01*
X29764456Y-25117851D01*
X29749662Y-25038375D01*
X29745091Y-24915788D01*
X29769883Y-24830574D01*
X29839040Y-24744992D01*
X29883793Y-24700946D01*
X29971574Y-24610322D01*
X30026425Y-24541568D01*
X30035666Y-24521029D01*
X30003653Y-24490059D01*
X29931630Y-24491889D01*
X29855626Y-24522078D01*
X29827121Y-24546740D01*
X29793648Y-24570101D01*
X29736770Y-24573864D01*
X29641363Y-24555475D01*
X29492298Y-24512378D01*
X29345687Y-24465408D01*
X29128485Y-24394695D01*
X28865407Y-24309405D01*
X28591208Y-24220789D01*
X28363500Y-24147445D01*
X28052687Y-24044395D01*
X27779338Y-23947577D01*
X27551676Y-23860356D01*
X27377922Y-23786100D01*
X27266298Y-23728173D01*
X27225028Y-23689942D01*
X27227894Y-23682535D01*
X27295052Y-23658591D01*
X27432725Y-23636861D01*
X27626776Y-23618006D01*
X27863070Y-23602685D01*
X28127468Y-23591560D01*
X28405835Y-23585289D01*
X28684032Y-23584534D01*
X28947924Y-23589955D01*
X29083166Y-23595879D01*
X29316546Y-23605052D01*
X29613934Y-23611485D01*
X29954710Y-23615035D01*
X30318254Y-23615558D01*
X30683947Y-23612912D01*
X30945833Y-23608789D01*
X31383062Y-23601143D01*
X31741845Y-23598381D01*
X32028337Y-23602136D01*
X32248696Y-23614044D01*
X32409080Y-23635737D01*
X32515645Y-23668851D01*
X32574548Y-23715019D01*
X32583763Y-23747255D01*
X39174451Y-23747255D01*
X39197248Y-23729795D01*
X39243166Y-23716963D01*
X39331691Y-23706825D01*
X39493313Y-23699713D01*
X39716524Y-23695424D01*
X39989816Y-23693753D01*
X40301681Y-23694496D01*
X40640611Y-23697450D01*
X40995098Y-23702410D01*
X41353635Y-23709174D01*
X41704713Y-23717535D01*
X42036824Y-23727292D01*
X42338461Y-23738240D01*
X42598115Y-23750174D01*
X42804278Y-23762892D01*
X42945442Y-23776189D01*
X42989739Y-23783351D01*
X43159917Y-23825526D01*
X43319619Y-23873677D01*
X43413073Y-23908630D01*
X43482099Y-23940505D01*
X43503698Y-23958328D01*
X43468285Y-23964118D01*
X43366275Y-23959893D01*
X43217722Y-23949771D01*
X43022199Y-23943705D01*
X42763239Y-23946851D01*
X42461415Y-23957896D01*
X42137299Y-23975526D01*
X41811465Y-23998430D01*
X41504486Y-24025296D01*
X41236934Y-24054810D01*
X41029383Y-24085661D01*
X41000000Y-24091251D01*
X40823823Y-24133375D01*
X40662058Y-24184039D01*
X40548565Y-24232578D01*
X40545204Y-24234501D01*
X40407909Y-24314472D01*
X40100704Y-24150433D01*
X39899782Y-24051568D01*
X39667985Y-23949880D01*
X39455398Y-23867335D01*
X39454833Y-23867136D01*
X39293758Y-23809195D01*
X39203459Y-23771478D01*
X39174451Y-23747255D01*
X32583763Y-23747255D01*
X32591946Y-23775876D01*
X32573997Y-23853056D01*
X32526858Y-23948192D01*
X32485373Y-24017392D01*
X32412783Y-24138416D01*
X32381075Y-24214235D01*
X32385331Y-24270854D01*
X32420629Y-24334275D01*
X32424349Y-24339966D01*
X32507775Y-24436506D01*
X32590309Y-24483325D01*
X32647788Y-24471323D01*
X32643148Y-24424611D01*
X32603629Y-24367510D01*
X32551878Y-24298067D01*
X32540414Y-24230622D01*
X32572274Y-24141525D01*
X32649750Y-24008326D01*
X32766166Y-23820752D01*
X33253000Y-23794040D01*
X33385768Y-23789790D01*
X33593768Y-23787108D01*
X33867580Y-23785955D01*
X34197783Y-23786289D01*
X34574960Y-23788072D01*
X34989688Y-23791263D01*
X35432549Y-23795820D01*
X35894123Y-23801705D01*
X36237500Y-23806816D01*
X36789684Y-23815928D01*
X37263827Y-23824670D01*
X37666550Y-23833291D01*
X38004477Y-23842045D01*
X38284230Y-23851180D01*
X38512431Y-23860949D01*
X38695702Y-23871603D01*
X38840668Y-23883393D01*
X38953949Y-23896569D01*
X39042169Y-23911383D01*
X39052666Y-23913553D01*
X39409280Y-23998548D01*
X39708461Y-24094307D01*
X39977437Y-24212612D01*
X40243434Y-24365247D01*
X40500757Y-24540251D01*
X40712402Y-24681607D01*
X40917953Y-24800026D01*
X41101710Y-24887876D01*
X41247974Y-24937523D01*
X41331178Y-24943970D01*
X41330942Y-24917389D01*
X41262191Y-24854600D01*
X41130582Y-24760225D01*
X41010583Y-24681961D01*
X40852637Y-24580544D01*
X40725186Y-24496301D01*
X40642776Y-24439003D01*
X40619000Y-24418859D01*
X40653026Y-24392715D01*
X40739225Y-24343434D01*
X40792268Y-24315660D01*
X40966697Y-24243727D01*
X41184421Y-24186049D01*
X41454731Y-24141229D01*
X41786921Y-24107874D01*
X42190280Y-24084589D01*
X42378668Y-24077621D01*
X42814681Y-24070828D01*
X43175527Y-24082352D01*
X43469121Y-24114202D01*
X43703375Y-24168387D01*
X43886205Y-24246915D01*
X44025525Y-24351796D01*
X44129248Y-24485039D01*
X44153190Y-24528090D01*
X44217367Y-24617487D01*
X44304285Y-24699656D01*
X44390503Y-24756595D01*
X44452582Y-24770300D01*
X44461529Y-24764916D01*
X44450072Y-24722769D01*
X44392247Y-24644763D01*
X44352023Y-24600768D01*
X44270702Y-24505986D01*
X44222771Y-24429088D01*
X44217333Y-24408515D01*
X44188264Y-24349180D01*
X44115299Y-24263761D01*
X44080898Y-24230614D01*
X44003347Y-24155893D01*
X43965403Y-24111412D01*
X43965639Y-24106000D01*
X44012923Y-24100402D01*
X44128556Y-24085010D01*
X44297056Y-24061932D01*
X44502945Y-24033274D01*
X44590913Y-24020915D01*
X45239966Y-23930929D01*
X45852188Y-23848891D01*
X46421750Y-23775480D01*
X46942821Y-23711369D01*
X47409570Y-23657236D01*
X47816165Y-23613755D01*
X48156777Y-23581603D01*
X48425574Y-23561455D01*
X48616725Y-23553988D01*
X48620000Y-23553971D01*
X48846031Y-23547897D01*
X49070156Y-23533088D01*
X49261793Y-23511991D01*
X49360833Y-23494658D01*
X49606183Y-23456460D01*
X49899342Y-23437008D01*
X50205404Y-23436979D01*
X50489462Y-23457053D01*
X50588500Y-23470765D01*
X50719826Y-23486798D01*
X50914210Y-23503532D01*
X51150075Y-23519432D01*
X51405842Y-23532960D01*
X51541000Y-23538602D01*
X51792027Y-23550561D01*
X52032006Y-23568160D01*
X52278279Y-23593535D01*
X52548187Y-23628823D01*
X52859074Y-23676159D01*
X53228283Y-23737680D01*
X53403666Y-23768045D01*
X53890084Y-23852343D01*
X54304619Y-23922415D01*
X54658617Y-23979558D01*
X54963428Y-24025066D01*
X55230400Y-24060233D01*
X55470881Y-24086356D01*
X55696219Y-24104728D01*
X55917763Y-24116644D01*
X56146860Y-24123400D01*
X56394858Y-24126290D01*
X56546879Y-24126703D01*
X56809242Y-24127436D01*
X57040351Y-24129218D01*
X57227762Y-24131860D01*
X57359033Y-24135170D01*
X57421721Y-24138959D01*
X57425296Y-24140131D01*
X57385918Y-24173654D01*
X57275375Y-24221289D01*
X57105271Y-24279319D01*
X56887211Y-24344029D01*
X56632797Y-24411701D01*
X56405678Y-24466683D01*
X55753166Y-24617866D01*
X53170833Y-24585351D01*
X52547235Y-24577482D01*
X52002547Y-24570664D01*
X51531016Y-24564963D01*
X51126890Y-24560444D01*
X50784418Y-24557173D01*
X50497848Y-24555215D01*
X50261428Y-24554635D01*
X50069406Y-24555500D01*
X49916031Y-24557873D01*
X49795550Y-24561821D01*
X49702212Y-24567409D01*
X49630264Y-24574703D01*
X49573956Y-24583768D01*
X49527536Y-24594669D01*
X49485251Y-24607471D01*
X49441349Y-24622241D01*
X49424333Y-24627955D01*
X49163897Y-24727244D01*
X48845669Y-24869878D01*
X48480982Y-25050313D01*
X48081171Y-25263005D01*
X47773333Y-25435629D01*
X47515099Y-25583177D01*
X47232199Y-25744335D01*
X46954425Y-25902159D01*
X46711570Y-26039705D01*
X46651500Y-26073623D01*
X46349913Y-26247030D01*
X46080326Y-26410413D01*
X45829082Y-26573668D01*
X45582528Y-26746695D01*
X45327009Y-26939392D01*
X45048871Y-27161657D01*
X44734458Y-27423388D01*
X44422552Y-27689381D01*
X44242985Y-27841547D01*
X44020124Y-28027171D01*
X43777074Y-28227183D01*
X43536942Y-28422513D01*
X43427719Y-28510437D01*
X43123918Y-28746736D01*
X42852107Y-28938451D01*
X42597009Y-29091143D01*
X42343341Y-29210374D01*
X42075824Y-29301708D01*
X41779177Y-29370705D01*
X41438121Y-29422929D01*
X41037376Y-29463941D01*
X40746000Y-29486625D01*
X40218244Y-29512880D01*
X39745235Y-29509144D01*
X39301559Y-29472684D01*
X38861804Y-29400771D01*
X38400558Y-29290672D01*
X38089539Y-29201093D01*
X37877515Y-29139881D01*
X37608954Y-29067057D01*
X37309959Y-28989439D01*
X37006629Y-28913846D01*
X36809000Y-28866561D01*
X36504671Y-28790828D01*
X36174599Y-28701314D01*
X35849018Y-28606687D01*
X35558161Y-28515610D01*
X35414545Y-28466859D01*
X35146556Y-28375838D01*
X34853727Y-28282496D01*
X34569360Y-28197107D01*
X34326755Y-28129943D01*
X34300867Y-28123301D01*
X34071489Y-28068361D01*
X33805537Y-28009906D01*
X33518842Y-27950878D01*
X33227232Y-27894216D01*
X32946539Y-27842860D01*
X32692592Y-27799750D01*
X32481222Y-27767825D01*
X32328257Y-27750026D01*
X32276433Y-27747325D01*
X32120483Y-27759996D01*
X31962148Y-27794662D01*
X31816819Y-27844346D01*
X31699888Y-27902073D01*
X31626746Y-27960867D01*
X31612784Y-28013752D01*
X31635762Y-28037704D01*
X31622713Y-28075037D01*
X31557446Y-28160390D01*
X31449582Y-28283950D01*
X31308741Y-28435904D01*
X31144545Y-28606442D01*
X30966614Y-28785749D01*
X30784568Y-28964015D01*
X30608027Y-29131426D01*
X30446613Y-29278171D01*
X30309946Y-29394437D01*
X30289666Y-29410623D01*
X30126820Y-29545109D01*
X29952015Y-29698666D01*
X29845166Y-29797986D01*
X29712670Y-29917414D01*
X29587753Y-30006115D01*
X29448185Y-30074810D01*
X29271734Y-30134222D01*
X29036169Y-30195071D01*
X29007831Y-30201807D01*
X28216485Y-30347639D01*
X27422027Y-30410665D01*
X27203828Y-30413667D01*
X26615098Y-30413667D01*
X25880632Y-30162472D01*
X25617511Y-30069375D01*
X25397944Y-29985466D01*
X25232202Y-29915012D01*
X25130556Y-29862280D01*
X25103833Y-29839717D01*
X25053322Y-29758251D01*
X24982206Y-29647717D01*
X24966249Y-29623366D01*
X24896165Y-29505021D01*
X24878576Y-29419574D01*
X24747790Y-29419574D01*
X24721130Y-29554124D01*
X24712022Y-29644509D01*
X24691839Y-29926834D01*
X25623857Y-30233750D01*
X26555876Y-30540667D01*
X27205688Y-30539892D01*
X27205688Y-30539892D01*
G37*
X27205688Y-30539892D02*
X27917537Y-30512771D01*
X28572250Y-30432456D01*
X29067705Y-30327544D01*
X29318704Y-30256716D01*
X29514025Y-30181079D01*
X29681975Y-30085099D01*
X29850860Y-29953240D01*
X30002480Y-29814508D01*
X30172340Y-29660412D01*
X30362792Y-29498923D01*
X30536853Y-29361241D01*
X30561648Y-29342817D01*
X30686209Y-29239998D01*
X30848871Y-29089161D01*
X31032839Y-28906748D01*
X31221319Y-28709201D01*
X31324001Y-28596501D01*
X31502853Y-28397761D01*
X31637116Y-28253481D01*
X31737825Y-28154292D01*
X31816012Y-28090821D01*
X31882714Y-28053698D01*
X31948963Y-28033551D01*
X31996732Y-28025161D01*
X32154516Y-27988512D01*
X32306595Y-27933619D01*
X32332668Y-27921183D01*
X32392907Y-27892386D01*
X32449397Y-27875488D01*
X32517632Y-27871825D01*
X32613105Y-27882732D01*
X32751310Y-27909545D01*
X32947741Y-27953601D01*
X33089558Y-27986443D01*
X33487415Y-28081719D01*
X33879795Y-28182014D01*
X34283394Y-28292028D01*
X34714909Y-28416461D01*
X35191035Y-28560010D01*
X35728468Y-28727377D01*
X35782360Y-28744384D01*
X36492216Y-28960939D01*
X37157371Y-29148362D01*
X37772681Y-29305514D01*
X38333002Y-29431259D01*
X38833190Y-29524458D01*
X39268102Y-29583975D01*
X39632593Y-29608672D01*
X39693938Y-29609334D01*
X39870566Y-29604161D01*
X40111711Y-29589868D01*
X40397936Y-29568295D01*
X40709806Y-29541281D01*
X41027881Y-29510663D01*
X41332726Y-29478282D01*
X41604903Y-29445977D01*
X41824976Y-29415586D01*
X41931333Y-29397643D01*
X42082767Y-29376758D01*
X42216570Y-29371549D01*
X42272780Y-29377175D01*
X42376226Y-29372112D01*
X42537220Y-29322057D01*
X42738447Y-29236059D01*
X42913221Y-29149307D01*
X43061538Y-29058520D01*
X43206510Y-28946740D01*
X43371249Y-28797005D01*
X43476500Y-28694458D01*
X43664011Y-28514667D01*
X43871646Y-28324515D01*
X44070635Y-28149947D01*
X44196166Y-28045442D01*
X44391290Y-27887761D01*
X44612127Y-27708110D01*
X44819242Y-27538595D01*
X44873500Y-27493945D01*
X45029748Y-27368931D01*
X45175330Y-27259110D01*
X45289661Y-27179696D01*
X45335358Y-27152636D01*
X45416661Y-27099703D01*
X45542129Y-27004110D01*
X45693419Y-26880306D01*
X45825054Y-26766837D01*
X46040427Y-26590222D01*
X46265154Y-26428980D01*
X46469105Y-26304423D01*
X46506196Y-26285061D01*
X46703891Y-26182995D01*
X46928425Y-26063004D01*
X47133518Y-25949848D01*
X47146767Y-25942361D01*
X47825093Y-25582215D01*
X48584095Y-25224542D01*
X49185698Y-24966327D01*
X49950751Y-24649846D01*
X51793625Y-24699735D01*
X52241004Y-24710559D01*
X52713229Y-24719675D01*
X53192321Y-24726891D01*
X53660302Y-24732014D01*
X54099193Y-24734849D01*
X54491016Y-24735203D01*
X54817792Y-24732884D01*
X54843000Y-24732543D01*
X55195204Y-24727346D01*
X55475791Y-24722099D01*
X55697804Y-24715654D01*
X55874283Y-24706861D01*
X56018272Y-24694571D01*
X56142812Y-24677637D01*
X56260946Y-24654908D01*
X56385716Y-24625237D01*
X56530164Y-24587474D01*
X56550066Y-24582177D01*
X56783037Y-24513927D01*
X57021519Y-24433616D01*
X57233637Y-24352492D01*
X57357774Y-24297131D01*
X57542338Y-24198300D01*
X57704712Y-24097326D01*
X57831954Y-24003849D01*
X57911122Y-23927511D01*
X57929273Y-23877953D01*
X57926201Y-23873692D01*
X57875438Y-23871117D01*
X57763116Y-23888403D01*
X57609071Y-23922100D01*
X57524034Y-23943646D01*
X57211620Y-24003156D01*
X56832867Y-24037147D01*
X56401849Y-24046590D01*
X55932641Y-24032460D01*
X55439319Y-23995729D01*
X54935959Y-23937371D01*
X54436635Y-23858358D01*
X53955422Y-23759663D01*
X53615333Y-23673441D01*
X53378221Y-23609607D01*
X53170912Y-23559690D01*
X52975821Y-23521363D01*
X52775367Y-23492301D01*
X52551966Y-23470176D01*
X52288035Y-23452663D01*
X51965990Y-23437436D01*
X51773833Y-23429805D01*
X51480173Y-23416995D01*
X51207133Y-23402078D01*
X50968625Y-23386052D01*
X50778565Y-23369915D01*
X50650865Y-23354664D01*
X50609946Y-23346348D01*
X50472984Y-23321929D01*
X50277928Y-23308387D01*
X50050589Y-23305280D01*
X49816780Y-23312167D01*
X49602311Y-23328606D01*
X49432996Y-23354155D01*
X49382000Y-23367356D01*
X49224526Y-23398888D01*
X48991917Y-23419302D01*
X48693063Y-23427869D01*
X48641166Y-23428090D01*
X48440224Y-23434093D01*
X48173489Y-23450755D01*
X47852525Y-23476693D01*
X47488897Y-23510520D01*
X47094169Y-23550854D01*
X46679905Y-23596308D01*
X46257671Y-23645498D01*
X45839030Y-23697040D01*
X45435547Y-23749548D01*
X45058786Y-23801639D01*
X44720312Y-23851926D01*
X44431689Y-23899027D01*
X44204482Y-23941555D01*
X44052184Y-23977568D01*
X43973646Y-23993550D01*
X43894947Y-23988382D01*
X43794637Y-23956460D01*
X43651265Y-23892181D01*
X43565351Y-23850404D01*
X43373389Y-23765124D01*
X43172606Y-23690644D01*
X43000202Y-23640463D01*
X42968500Y-23633783D01*
X42852119Y-23620513D01*
X42655206Y-23608978D01*
X42381879Y-23599282D01*
X42036257Y-23591529D01*
X41622458Y-23585824D01*
X41144601Y-23582269D01*
X40888197Y-23581343D01*
X40443351Y-23580497D01*
X40075512Y-23580532D01*
X39777026Y-23581712D01*
X39540237Y-23584302D01*
X39357488Y-23588564D01*
X39221123Y-23594762D01*
X39123487Y-23603159D01*
X39056924Y-23614020D01*
X39013777Y-23627607D01*
X38986390Y-23644184D01*
X38983197Y-23646920D01*
X38971472Y-23659086D01*
X38961815Y-23669794D01*
X38949039Y-23679066D01*
X38927961Y-23686921D01*
X38893395Y-23693378D01*
X38840157Y-23698459D01*
X38763061Y-23702184D01*
X38656924Y-23704571D01*
X38516559Y-23705643D01*
X38336782Y-23705418D01*
X38112408Y-23703916D01*
X37838252Y-23701159D01*
X37509129Y-23697166D01*
X37119855Y-23691957D01*
X36665244Y-23685553D01*
X36140112Y-23677972D01*
X35539274Y-23669237D01*
X35052166Y-23662175D01*
X34669421Y-23657825D01*
X34301852Y-23655884D01*
X33961167Y-23656255D01*
X33659073Y-23658839D01*
X33407277Y-23663542D01*
X33217487Y-23670264D01*
X33106571Y-23678282D01*
X32936320Y-23696397D01*
X32826385Y-23700053D01*
X32753186Y-23686202D01*
X32693145Y-23651797D01*
X32653249Y-23619702D01*
X32523034Y-23545885D01*
X32356223Y-23498424D01*
X32334010Y-23495117D01*
X32247254Y-23489179D01*
X32086281Y-23483596D01*
X31861539Y-23478528D01*
X31583479Y-23474132D01*
X31262549Y-23470567D01*
X30909198Y-23467991D01*
X30533876Y-23466563D01*
X30437833Y-23466404D01*
X30045152Y-23465839D01*
X29660272Y-23465126D01*
X29295750Y-23464300D01*
X28964146Y-23463395D01*
X28678019Y-23462447D01*
X28449929Y-23461489D01*
X28292434Y-23460557D01*
X28278833Y-23460448D01*
X28029149Y-23462091D01*
X27754528Y-23469771D01*
X27499587Y-23482048D01*
X27402054Y-23488775D01*
X27206084Y-23506639D01*
X27079385Y-23525810D01*
X27006598Y-23550070D01*
X26972363Y-23583201D01*
X26967177Y-23595865D01*
X26957984Y-23690432D01*
X26998414Y-23776050D01*
X27094975Y-23856514D01*
X27254175Y-23935620D01*
X27482519Y-24017164D01*
X27786516Y-24104943D01*
X27883744Y-24130551D01*
X28129177Y-24199348D01*
X28385611Y-24279874D01*
X28620380Y-24361425D01*
X28780516Y-24424418D01*
X29141043Y-24579299D01*
X28999736Y-24776566D01*
X28923264Y-24897913D01*
X28815800Y-25090456D01*
X28680495Y-25347913D01*
X28520501Y-25664004D01*
X28338972Y-26032449D01*
X28139058Y-26446966D01*
X27923913Y-26901275D01*
X27795872Y-27175202D01*
X27441297Y-27937237D01*
X27013398Y-28135316D01*
X26785855Y-28233608D01*
X26516681Y-28339245D01*
X26245837Y-28436956D01*
X26087711Y-28489021D01*
X25778941Y-28599165D01*
X25488377Y-28728370D01*
X25230157Y-28868508D01*
X25018419Y-29011450D01*
X24867304Y-29149067D01*
X24814197Y-29221176D01*
X24759113Y-29362421D01*
X24747790Y-29419574D01*
X24878576Y-29419574D01*
X24914086Y-29333022D01*
X24972883Y-29250917D01*
X25078888Y-29145010D01*
X25241035Y-29035120D01*
X25465907Y-28917831D01*
X25760085Y-28789726D01*
X26130154Y-28647388D01*
X26148951Y-28640500D01*
X26516912Y-28503195D01*
X26813268Y-28385695D01*
X27047420Y-28283181D01*
X27228769Y-28190837D01*
X27366719Y-28103846D01*
X27470671Y-28017390D01*
X27550027Y-27926651D01*
X27554771Y-27920198D01*
X27642934Y-27794457D01*
X27715885Y-27676483D01*
X27782771Y-27547541D01*
X27852740Y-27388899D01*
X27934942Y-27181822D01*
X28003161Y-27002010D01*
X28057878Y-26857650D01*
X28107358Y-26732642D01*
X28157318Y-26615938D01*
X28213479Y-26496489D01*
X28281560Y-26363244D01*
X28367280Y-26205155D01*
X28476359Y-26011172D01*
X28614516Y-25770245D01*
X28787469Y-25471325D01*
X28861702Y-25343339D01*
X29018723Y-25076491D01*
X29140833Y-24878235D01*
X29232445Y-24742183D01*
X29297975Y-24661946D01*
X29341836Y-24631137D01*
X29353864Y-24631095D01*
X29442120Y-24652547D01*
X29560269Y-24677929D01*
X29562403Y-24678360D01*
X29659280Y-24710521D01*
X29682352Y-24757218D01*
X29678639Y-24770120D01*
X29629322Y-24952458D01*
X29635766Y-25127146D01*
X29654597Y-25211566D01*
X29700581Y-25353961D01*
X29767499Y-25520687D01*
X29846405Y-25693868D01*
X29928353Y-25855628D01*
X30004395Y-25988092D01*
X30065586Y-26073384D01*
X30097089Y-26095667D01*
X30112729Y-26068118D01*
X30092602Y-25981771D01*
X30034971Y-25831073D01*
X29961748Y-25662792D01*
X29879501Y-25465810D01*
X29810856Y-25275682D01*
X29764456Y-25117851D01*
X29749662Y-25038375D01*
X29745091Y-24915788D01*
X29769883Y-24830574D01*
X29839040Y-24744992D01*
X29883793Y-24700946D01*
X29971574Y-24610322D01*
X30026425Y-24541568D01*
X30035666Y-24521029D01*
X30003653Y-24490059D01*
X29931630Y-24491889D01*
X29855626Y-24522078D01*
X29827121Y-24546740D01*
X29793648Y-24570101D01*
X29736770Y-24573864D01*
X29641363Y-24555475D01*
X29492298Y-24512378D01*
X29345687Y-24465408D01*
X29128485Y-24394695D01*
X28865407Y-24309405D01*
X28591208Y-24220789D01*
X28363500Y-24147445D01*
X28052687Y-24044395D01*
X27779338Y-23947577D01*
X27551676Y-23860356D01*
X27377922Y-23786100D01*
X27266298Y-23728173D01*
X27225028Y-23689942D01*
X27227894Y-23682535D01*
X27295052Y-23658591D01*
X27432725Y-23636861D01*
X27626776Y-23618006D01*
X27863070Y-23602685D01*
X28127468Y-23591560D01*
X28405835Y-23585289D01*
X28684032Y-23584534D01*
X28947924Y-23589955D01*
X29083166Y-23595879D01*
X29316546Y-23605052D01*
X29613934Y-23611485D01*
X29954710Y-23615035D01*
X30318254Y-23615558D01*
X30683947Y-23612912D01*
X30945833Y-23608789D01*
X31383062Y-23601143D01*
X31741845Y-23598381D01*
X32028337Y-23602136D01*
X32248696Y-23614044D01*
X32409080Y-23635737D01*
X32515645Y-23668851D01*
X32574548Y-23715019D01*
X32583763Y-23747255D01*
X39174451Y-23747255D01*
X39197248Y-23729795D01*
X39243166Y-23716963D01*
X39331691Y-23706825D01*
X39493313Y-23699713D01*
X39716524Y-23695424D01*
X39989816Y-23693753D01*
X40301681Y-23694496D01*
X40640611Y-23697450D01*
X40995098Y-23702410D01*
X41353635Y-23709174D01*
X41704713Y-23717535D01*
X42036824Y-23727292D01*
X42338461Y-23738240D01*
X42598115Y-23750174D01*
X42804278Y-23762892D01*
X42945442Y-23776189D01*
X42989739Y-23783351D01*
X43159917Y-23825526D01*
X43319619Y-23873677D01*
X43413073Y-23908630D01*
X43482099Y-23940505D01*
X43503698Y-23958328D01*
X43468285Y-23964118D01*
X43366275Y-23959893D01*
X43217722Y-23949771D01*
X43022199Y-23943705D01*
X42763239Y-23946851D01*
X42461415Y-23957896D01*
X42137299Y-23975526D01*
X41811465Y-23998430D01*
X41504486Y-24025296D01*
X41236934Y-24054810D01*
X41029383Y-24085661D01*
X41000000Y-24091251D01*
X40823823Y-24133375D01*
X40662058Y-24184039D01*
X40548565Y-24232578D01*
X40545204Y-24234501D01*
X40407909Y-24314472D01*
X40100704Y-24150433D01*
X39899782Y-24051568D01*
X39667985Y-23949880D01*
X39455398Y-23867335D01*
X39454833Y-23867136D01*
X39293758Y-23809195D01*
X39203459Y-23771478D01*
X39174451Y-23747255D01*
X32583763Y-23747255D01*
X32591946Y-23775876D01*
X32573997Y-23853056D01*
X32526858Y-23948192D01*
X32485373Y-24017392D01*
X32412783Y-24138416D01*
X32381075Y-24214235D01*
X32385331Y-24270854D01*
X32420629Y-24334275D01*
X32424349Y-24339966D01*
X32507775Y-24436506D01*
X32590309Y-24483325D01*
X32647788Y-24471323D01*
X32643148Y-24424611D01*
X32603629Y-24367510D01*
X32551878Y-24298067D01*
X32540414Y-24230622D01*
X32572274Y-24141525D01*
X32649750Y-24008326D01*
X32766166Y-23820752D01*
X33253000Y-23794040D01*
X33385768Y-23789790D01*
X33593768Y-23787108D01*
X33867580Y-23785955D01*
X34197783Y-23786289D01*
X34574960Y-23788072D01*
X34989688Y-23791263D01*
X35432549Y-23795820D01*
X35894123Y-23801705D01*
X36237500Y-23806816D01*
X36789684Y-23815928D01*
X37263827Y-23824670D01*
X37666550Y-23833291D01*
X38004477Y-23842045D01*
X38284230Y-23851180D01*
X38512431Y-23860949D01*
X38695702Y-23871603D01*
X38840668Y-23883393D01*
X38953949Y-23896569D01*
X39042169Y-23911383D01*
X39052666Y-23913553D01*
X39409280Y-23998548D01*
X39708461Y-24094307D01*
X39977437Y-24212612D01*
X40243434Y-24365247D01*
X40500757Y-24540251D01*
X40712402Y-24681607D01*
X40917953Y-24800026D01*
X41101710Y-24887876D01*
X41247974Y-24937523D01*
X41331178Y-24943970D01*
X41330942Y-24917389D01*
X41262191Y-24854600D01*
X41130582Y-24760225D01*
X41010583Y-24681961D01*
X40852637Y-24580544D01*
X40725186Y-24496301D01*
X40642776Y-24439003D01*
X40619000Y-24418859D01*
X40653026Y-24392715D01*
X40739225Y-24343434D01*
X40792268Y-24315660D01*
X40966697Y-24243727D01*
X41184421Y-24186049D01*
X41454731Y-24141229D01*
X41786921Y-24107874D01*
X42190280Y-24084589D01*
X42378668Y-24077621D01*
X42814681Y-24070828D01*
X43175527Y-24082352D01*
X43469121Y-24114202D01*
X43703375Y-24168387D01*
X43886205Y-24246915D01*
X44025525Y-24351796D01*
X44129248Y-24485039D01*
X44153190Y-24528090D01*
X44217367Y-24617487D01*
X44304285Y-24699656D01*
X44390503Y-24756595D01*
X44452582Y-24770300D01*
X44461529Y-24764916D01*
X44450072Y-24722769D01*
X44392247Y-24644763D01*
X44352023Y-24600768D01*
X44270702Y-24505986D01*
X44222771Y-24429088D01*
X44217333Y-24408515D01*
X44188264Y-24349180D01*
X44115299Y-24263761D01*
X44080898Y-24230614D01*
X44003347Y-24155893D01*
X43965403Y-24111412D01*
X43965639Y-24106000D01*
X44012923Y-24100402D01*
X44128556Y-24085010D01*
X44297056Y-24061932D01*
X44502945Y-24033274D01*
X44590913Y-24020915D01*
X45239966Y-23930929D01*
X45852188Y-23848891D01*
X46421750Y-23775480D01*
X46942821Y-23711369D01*
X47409570Y-23657236D01*
X47816165Y-23613755D01*
X48156777Y-23581603D01*
X48425574Y-23561455D01*
X48616725Y-23553988D01*
X48620000Y-23553971D01*
X48846031Y-23547897D01*
X49070156Y-23533088D01*
X49261793Y-23511991D01*
X49360833Y-23494658D01*
X49606183Y-23456460D01*
X49899342Y-23437008D01*
X50205404Y-23436979D01*
X50489462Y-23457053D01*
X50588500Y-23470765D01*
X50719826Y-23486798D01*
X50914210Y-23503532D01*
X51150075Y-23519432D01*
X51405842Y-23532960D01*
X51541000Y-23538602D01*
X51792027Y-23550561D01*
X52032006Y-23568160D01*
X52278279Y-23593535D01*
X52548187Y-23628823D01*
X52859074Y-23676159D01*
X53228283Y-23737680D01*
X53403666Y-23768045D01*
X53890084Y-23852343D01*
X54304619Y-23922415D01*
X54658617Y-23979558D01*
X54963428Y-24025066D01*
X55230400Y-24060233D01*
X55470881Y-24086356D01*
X55696219Y-24104728D01*
X55917763Y-24116644D01*
X56146860Y-24123400D01*
X56394858Y-24126290D01*
X56546879Y-24126703D01*
X56809242Y-24127436D01*
X57040351Y-24129218D01*
X57227762Y-24131860D01*
X57359033Y-24135170D01*
X57421721Y-24138959D01*
X57425296Y-24140131D01*
X57385918Y-24173654D01*
X57275375Y-24221289D01*
X57105271Y-24279319D01*
X56887211Y-24344029D01*
X56632797Y-24411701D01*
X56405678Y-24466683D01*
X55753166Y-24617866D01*
X53170833Y-24585351D01*
X52547235Y-24577482D01*
X52002547Y-24570664D01*
X51531016Y-24564963D01*
X51126890Y-24560444D01*
X50784418Y-24557173D01*
X50497848Y-24555215D01*
X50261428Y-24554635D01*
X50069406Y-24555500D01*
X49916031Y-24557873D01*
X49795550Y-24561821D01*
X49702212Y-24567409D01*
X49630264Y-24574703D01*
X49573956Y-24583768D01*
X49527536Y-24594669D01*
X49485251Y-24607471D01*
X49441349Y-24622241D01*
X49424333Y-24627955D01*
X49163897Y-24727244D01*
X48845669Y-24869878D01*
X48480982Y-25050313D01*
X48081171Y-25263005D01*
X47773333Y-25435629D01*
X47515099Y-25583177D01*
X47232199Y-25744335D01*
X46954425Y-25902159D01*
X46711570Y-26039705D01*
X46651500Y-26073623D01*
X46349913Y-26247030D01*
X46080326Y-26410413D01*
X45829082Y-26573668D01*
X45582528Y-26746695D01*
X45327009Y-26939392D01*
X45048871Y-27161657D01*
X44734458Y-27423388D01*
X44422552Y-27689381D01*
X44242985Y-27841547D01*
X44020124Y-28027171D01*
X43777074Y-28227183D01*
X43536942Y-28422513D01*
X43427719Y-28510437D01*
X43123918Y-28746736D01*
X42852107Y-28938451D01*
X42597009Y-29091143D01*
X42343341Y-29210374D01*
X42075824Y-29301708D01*
X41779177Y-29370705D01*
X41438121Y-29422929D01*
X41037376Y-29463941D01*
X40746000Y-29486625D01*
X40218244Y-29512880D01*
X39745235Y-29509144D01*
X39301559Y-29472684D01*
X38861804Y-29400771D01*
X38400558Y-29290672D01*
X38089539Y-29201093D01*
X37877515Y-29139881D01*
X37608954Y-29067057D01*
X37309959Y-28989439D01*
X37006629Y-28913846D01*
X36809000Y-28866561D01*
X36504671Y-28790828D01*
X36174599Y-28701314D01*
X35849018Y-28606687D01*
X35558161Y-28515610D01*
X35414545Y-28466859D01*
X35146556Y-28375838D01*
X34853727Y-28282496D01*
X34569360Y-28197107D01*
X34326755Y-28129943D01*
X34300867Y-28123301D01*
X34071489Y-28068361D01*
X33805537Y-28009906D01*
X33518842Y-27950878D01*
X33227232Y-27894216D01*
X32946539Y-27842860D01*
X32692592Y-27799750D01*
X32481222Y-27767825D01*
X32328257Y-27750026D01*
X32276433Y-27747325D01*
X32120483Y-27759996D01*
X31962148Y-27794662D01*
X31816819Y-27844346D01*
X31699888Y-27902073D01*
X31626746Y-27960867D01*
X31612784Y-28013752D01*
X31635762Y-28037704D01*
X31622713Y-28075037D01*
X31557446Y-28160390D01*
X31449582Y-28283950D01*
X31308741Y-28435904D01*
X31144545Y-28606442D01*
X30966614Y-28785749D01*
X30784568Y-28964015D01*
X30608027Y-29131426D01*
X30446613Y-29278171D01*
X30309946Y-29394437D01*
X30289666Y-29410623D01*
X30126820Y-29545109D01*
X29952015Y-29698666D01*
X29845166Y-29797986D01*
X29712670Y-29917414D01*
X29587753Y-30006115D01*
X29448185Y-30074810D01*
X29271734Y-30134222D01*
X29036169Y-30195071D01*
X29007831Y-30201807D01*
X28216485Y-30347639D01*
X27422027Y-30410665D01*
X27203828Y-30413667D01*
X26615098Y-30413667D01*
X25880632Y-30162472D01*
X25617511Y-30069375D01*
X25397944Y-29985466D01*
X25232202Y-29915012D01*
X25130556Y-29862280D01*
X25103833Y-29839717D01*
X25053322Y-29758251D01*
X24982206Y-29647717D01*
X24966249Y-29623366D01*
X24896165Y-29505021D01*
X24878576Y-29419574D01*
X24747790Y-29419574D01*
X24721130Y-29554124D01*
X24712022Y-29644509D01*
X24691839Y-29926834D01*
X25623857Y-30233750D01*
X26555876Y-30540667D01*
X27205688Y-30539892D01*
M02*
