G04 #@! TF.GenerationSoftware,KiCad,Pcbnew,5.0.1*
G04 #@! TF.CreationDate,2019-10-17T01:22:15+02:00*
G04 #@! TF.ProjectId,OtterPill,4F7474657250696C6C2E6B696361645F,rev?*
G04 #@! TF.SameCoordinates,Original*
G04 #@! TF.FileFunction,Soldermask,Bot*
G04 #@! TF.FilePolarity,Negative*
%FSLAX46Y46*%
G04 Gerber Fmt 4.6, Leading zero omitted, Abs format (unit mm)*
G04 Created by KiCad (PCBNEW 5.0.1) date Thu 17 Oct 2019 01:22:15 AM CEST*
%MOMM*%
%LPD*%
G01*
G04 APERTURE LIST*
%ADD10C,0.050000*%
%ADD11C,0.100000*%
G04 APERTURE END LIST*
D10*
X63200000Y-37100000D02*
G75*
G02X62900000Y-37400000I-300000J0D01*
G01*
X62900000Y-19800000D02*
G75*
G02X63200000Y-20100000I0J-300000D01*
G01*
X20000000Y-20100000D02*
G75*
G02X20300000Y-19800000I300000J0D01*
G01*
X20300000Y-37400000D02*
G75*
G02X20000000Y-37100000I0J300000D01*
G01*
X20000000Y-37100000D02*
X20000000Y-20100000D01*
X62900000Y-37400000D02*
X20300000Y-37400000D01*
X63200000Y-20100000D02*
X63200000Y-37100000D01*
X20300000Y-19800000D02*
X62900000Y-19800000D01*
D11*
G36*
X33970443Y-35205519D02*
X34036627Y-35212037D01*
X34149853Y-35246384D01*
X34206467Y-35263557D01*
X34345087Y-35337652D01*
X34362991Y-35347222D01*
X34398729Y-35376552D01*
X34500186Y-35459814D01*
X34583448Y-35561271D01*
X34612778Y-35597009D01*
X34612779Y-35597011D01*
X34696443Y-35753533D01*
X34696443Y-35753534D01*
X34747963Y-35923373D01*
X34765359Y-36100000D01*
X34747963Y-36276627D01*
X34713616Y-36389853D01*
X34696443Y-36446467D01*
X34622348Y-36585087D01*
X34612778Y-36602991D01*
X34583448Y-36638729D01*
X34500186Y-36740186D01*
X34398729Y-36823448D01*
X34362991Y-36852778D01*
X34362989Y-36852779D01*
X34206467Y-36936443D01*
X34149853Y-36953616D01*
X34036627Y-36987963D01*
X33970443Y-36994481D01*
X33904260Y-37001000D01*
X33815740Y-37001000D01*
X33749557Y-36994481D01*
X33683373Y-36987963D01*
X33570147Y-36953616D01*
X33513533Y-36936443D01*
X33357011Y-36852779D01*
X33357009Y-36852778D01*
X33321271Y-36823448D01*
X33219814Y-36740186D01*
X33136552Y-36638729D01*
X33107222Y-36602991D01*
X33097652Y-36585087D01*
X33023557Y-36446467D01*
X33006384Y-36389853D01*
X32972037Y-36276627D01*
X32954641Y-36100000D01*
X32972037Y-35923373D01*
X33023557Y-35753534D01*
X33023557Y-35753533D01*
X33107221Y-35597011D01*
X33107222Y-35597009D01*
X33136552Y-35561271D01*
X33219814Y-35459814D01*
X33321271Y-35376552D01*
X33357009Y-35347222D01*
X33374913Y-35337652D01*
X33513533Y-35263557D01*
X33570147Y-35246384D01*
X33683373Y-35212037D01*
X33749557Y-35205519D01*
X33815740Y-35199000D01*
X33904260Y-35199000D01*
X33970443Y-35205519D01*
X33970443Y-35205519D01*
G37*
G36*
X59370443Y-35205519D02*
X59436627Y-35212037D01*
X59549853Y-35246384D01*
X59606467Y-35263557D01*
X59745087Y-35337652D01*
X59762991Y-35347222D01*
X59798729Y-35376552D01*
X59900186Y-35459814D01*
X59983448Y-35561271D01*
X60012778Y-35597009D01*
X60012779Y-35597011D01*
X60096443Y-35753533D01*
X60096443Y-35753534D01*
X60147963Y-35923373D01*
X60165359Y-36100000D01*
X60147963Y-36276627D01*
X60113616Y-36389853D01*
X60096443Y-36446467D01*
X60022348Y-36585087D01*
X60012778Y-36602991D01*
X59983448Y-36638729D01*
X59900186Y-36740186D01*
X59798729Y-36823448D01*
X59762991Y-36852778D01*
X59762989Y-36852779D01*
X59606467Y-36936443D01*
X59549853Y-36953616D01*
X59436627Y-36987963D01*
X59370443Y-36994481D01*
X59304260Y-37001000D01*
X59215740Y-37001000D01*
X59149557Y-36994481D01*
X59083373Y-36987963D01*
X58970147Y-36953616D01*
X58913533Y-36936443D01*
X58757011Y-36852779D01*
X58757009Y-36852778D01*
X58721271Y-36823448D01*
X58619814Y-36740186D01*
X58536552Y-36638729D01*
X58507222Y-36602991D01*
X58497652Y-36585087D01*
X58423557Y-36446467D01*
X58406384Y-36389853D01*
X58372037Y-36276627D01*
X58354641Y-36100000D01*
X58372037Y-35923373D01*
X58423557Y-35753534D01*
X58423557Y-35753533D01*
X58507221Y-35597011D01*
X58507222Y-35597009D01*
X58536552Y-35561271D01*
X58619814Y-35459814D01*
X58721271Y-35376552D01*
X58757009Y-35347222D01*
X58774913Y-35337652D01*
X58913533Y-35263557D01*
X58970147Y-35246384D01*
X59083373Y-35212037D01*
X59149557Y-35205519D01*
X59215740Y-35199000D01*
X59304260Y-35199000D01*
X59370443Y-35205519D01*
X59370443Y-35205519D01*
G37*
G36*
X24601000Y-37001000D02*
X22799000Y-37001000D01*
X22799000Y-35199000D01*
X24601000Y-35199000D01*
X24601000Y-37001000D01*
X24601000Y-37001000D01*
G37*
G36*
X26350443Y-35205519D02*
X26416627Y-35212037D01*
X26529853Y-35246384D01*
X26586467Y-35263557D01*
X26725087Y-35337652D01*
X26742991Y-35347222D01*
X26778729Y-35376552D01*
X26880186Y-35459814D01*
X26963448Y-35561271D01*
X26992778Y-35597009D01*
X26992779Y-35597011D01*
X27076443Y-35753533D01*
X27076443Y-35753534D01*
X27127963Y-35923373D01*
X27145359Y-36100000D01*
X27127963Y-36276627D01*
X27093616Y-36389853D01*
X27076443Y-36446467D01*
X27002348Y-36585087D01*
X26992778Y-36602991D01*
X26963448Y-36638729D01*
X26880186Y-36740186D01*
X26778729Y-36823448D01*
X26742991Y-36852778D01*
X26742989Y-36852779D01*
X26586467Y-36936443D01*
X26529853Y-36953616D01*
X26416627Y-36987963D01*
X26350443Y-36994481D01*
X26284260Y-37001000D01*
X26195740Y-37001000D01*
X26129557Y-36994481D01*
X26063373Y-36987963D01*
X25950147Y-36953616D01*
X25893533Y-36936443D01*
X25737011Y-36852779D01*
X25737009Y-36852778D01*
X25701271Y-36823448D01*
X25599814Y-36740186D01*
X25516552Y-36638729D01*
X25487222Y-36602991D01*
X25477652Y-36585087D01*
X25403557Y-36446467D01*
X25386384Y-36389853D01*
X25352037Y-36276627D01*
X25334641Y-36100000D01*
X25352037Y-35923373D01*
X25403557Y-35753534D01*
X25403557Y-35753533D01*
X25487221Y-35597011D01*
X25487222Y-35597009D01*
X25516552Y-35561271D01*
X25599814Y-35459814D01*
X25701271Y-35376552D01*
X25737009Y-35347222D01*
X25754913Y-35337652D01*
X25893533Y-35263557D01*
X25950147Y-35246384D01*
X26063373Y-35212037D01*
X26129557Y-35205519D01*
X26195740Y-35199000D01*
X26284260Y-35199000D01*
X26350443Y-35205519D01*
X26350443Y-35205519D01*
G37*
G36*
X28890443Y-35205519D02*
X28956627Y-35212037D01*
X29069853Y-35246384D01*
X29126467Y-35263557D01*
X29265087Y-35337652D01*
X29282991Y-35347222D01*
X29318729Y-35376552D01*
X29420186Y-35459814D01*
X29503448Y-35561271D01*
X29532778Y-35597009D01*
X29532779Y-35597011D01*
X29616443Y-35753533D01*
X29616443Y-35753534D01*
X29667963Y-35923373D01*
X29685359Y-36100000D01*
X29667963Y-36276627D01*
X29633616Y-36389853D01*
X29616443Y-36446467D01*
X29542348Y-36585087D01*
X29532778Y-36602991D01*
X29503448Y-36638729D01*
X29420186Y-36740186D01*
X29318729Y-36823448D01*
X29282991Y-36852778D01*
X29282989Y-36852779D01*
X29126467Y-36936443D01*
X29069853Y-36953616D01*
X28956627Y-36987963D01*
X28890443Y-36994481D01*
X28824260Y-37001000D01*
X28735740Y-37001000D01*
X28669557Y-36994481D01*
X28603373Y-36987963D01*
X28490147Y-36953616D01*
X28433533Y-36936443D01*
X28277011Y-36852779D01*
X28277009Y-36852778D01*
X28241271Y-36823448D01*
X28139814Y-36740186D01*
X28056552Y-36638729D01*
X28027222Y-36602991D01*
X28017652Y-36585087D01*
X27943557Y-36446467D01*
X27926384Y-36389853D01*
X27892037Y-36276627D01*
X27874641Y-36100000D01*
X27892037Y-35923373D01*
X27943557Y-35753534D01*
X27943557Y-35753533D01*
X28027221Y-35597011D01*
X28027222Y-35597009D01*
X28056552Y-35561271D01*
X28139814Y-35459814D01*
X28241271Y-35376552D01*
X28277009Y-35347222D01*
X28294913Y-35337652D01*
X28433533Y-35263557D01*
X28490147Y-35246384D01*
X28603373Y-35212037D01*
X28669557Y-35205519D01*
X28735740Y-35199000D01*
X28824260Y-35199000D01*
X28890443Y-35205519D01*
X28890443Y-35205519D01*
G37*
G36*
X31430443Y-35205519D02*
X31496627Y-35212037D01*
X31609853Y-35246384D01*
X31666467Y-35263557D01*
X31805087Y-35337652D01*
X31822991Y-35347222D01*
X31858729Y-35376552D01*
X31960186Y-35459814D01*
X32043448Y-35561271D01*
X32072778Y-35597009D01*
X32072779Y-35597011D01*
X32156443Y-35753533D01*
X32156443Y-35753534D01*
X32207963Y-35923373D01*
X32225359Y-36100000D01*
X32207963Y-36276627D01*
X32173616Y-36389853D01*
X32156443Y-36446467D01*
X32082348Y-36585087D01*
X32072778Y-36602991D01*
X32043448Y-36638729D01*
X31960186Y-36740186D01*
X31858729Y-36823448D01*
X31822991Y-36852778D01*
X31822989Y-36852779D01*
X31666467Y-36936443D01*
X31609853Y-36953616D01*
X31496627Y-36987963D01*
X31430443Y-36994481D01*
X31364260Y-37001000D01*
X31275740Y-37001000D01*
X31209557Y-36994481D01*
X31143373Y-36987963D01*
X31030147Y-36953616D01*
X30973533Y-36936443D01*
X30817011Y-36852779D01*
X30817009Y-36852778D01*
X30781271Y-36823448D01*
X30679814Y-36740186D01*
X30596552Y-36638729D01*
X30567222Y-36602991D01*
X30557652Y-36585087D01*
X30483557Y-36446467D01*
X30466384Y-36389853D01*
X30432037Y-36276627D01*
X30414641Y-36100000D01*
X30432037Y-35923373D01*
X30483557Y-35753534D01*
X30483557Y-35753533D01*
X30567221Y-35597011D01*
X30567222Y-35597009D01*
X30596552Y-35561271D01*
X30679814Y-35459814D01*
X30781271Y-35376552D01*
X30817009Y-35347222D01*
X30834913Y-35337652D01*
X30973533Y-35263557D01*
X31030147Y-35246384D01*
X31143373Y-35212037D01*
X31209557Y-35205519D01*
X31275740Y-35199000D01*
X31364260Y-35199000D01*
X31430443Y-35205519D01*
X31430443Y-35205519D01*
G37*
G36*
X36510443Y-35205519D02*
X36576627Y-35212037D01*
X36689853Y-35246384D01*
X36746467Y-35263557D01*
X36885087Y-35337652D01*
X36902991Y-35347222D01*
X36938729Y-35376552D01*
X37040186Y-35459814D01*
X37123448Y-35561271D01*
X37152778Y-35597009D01*
X37152779Y-35597011D01*
X37236443Y-35753533D01*
X37236443Y-35753534D01*
X37287963Y-35923373D01*
X37305359Y-36100000D01*
X37287963Y-36276627D01*
X37253616Y-36389853D01*
X37236443Y-36446467D01*
X37162348Y-36585087D01*
X37152778Y-36602991D01*
X37123448Y-36638729D01*
X37040186Y-36740186D01*
X36938729Y-36823448D01*
X36902991Y-36852778D01*
X36902989Y-36852779D01*
X36746467Y-36936443D01*
X36689853Y-36953616D01*
X36576627Y-36987963D01*
X36510443Y-36994481D01*
X36444260Y-37001000D01*
X36355740Y-37001000D01*
X36289557Y-36994481D01*
X36223373Y-36987963D01*
X36110147Y-36953616D01*
X36053533Y-36936443D01*
X35897011Y-36852779D01*
X35897009Y-36852778D01*
X35861271Y-36823448D01*
X35759814Y-36740186D01*
X35676552Y-36638729D01*
X35647222Y-36602991D01*
X35637652Y-36585087D01*
X35563557Y-36446467D01*
X35546384Y-36389853D01*
X35512037Y-36276627D01*
X35494641Y-36100000D01*
X35512037Y-35923373D01*
X35563557Y-35753534D01*
X35563557Y-35753533D01*
X35647221Y-35597011D01*
X35647222Y-35597009D01*
X35676552Y-35561271D01*
X35759814Y-35459814D01*
X35861271Y-35376552D01*
X35897009Y-35347222D01*
X35914913Y-35337652D01*
X36053533Y-35263557D01*
X36110147Y-35246384D01*
X36223373Y-35212037D01*
X36289557Y-35205519D01*
X36355740Y-35199000D01*
X36444260Y-35199000D01*
X36510443Y-35205519D01*
X36510443Y-35205519D01*
G37*
G36*
X39050443Y-35205519D02*
X39116627Y-35212037D01*
X39229853Y-35246384D01*
X39286467Y-35263557D01*
X39425087Y-35337652D01*
X39442991Y-35347222D01*
X39478729Y-35376552D01*
X39580186Y-35459814D01*
X39663448Y-35561271D01*
X39692778Y-35597009D01*
X39692779Y-35597011D01*
X39776443Y-35753533D01*
X39776443Y-35753534D01*
X39827963Y-35923373D01*
X39845359Y-36100000D01*
X39827963Y-36276627D01*
X39793616Y-36389853D01*
X39776443Y-36446467D01*
X39702348Y-36585087D01*
X39692778Y-36602991D01*
X39663448Y-36638729D01*
X39580186Y-36740186D01*
X39478729Y-36823448D01*
X39442991Y-36852778D01*
X39442989Y-36852779D01*
X39286467Y-36936443D01*
X39229853Y-36953616D01*
X39116627Y-36987963D01*
X39050443Y-36994481D01*
X38984260Y-37001000D01*
X38895740Y-37001000D01*
X38829557Y-36994481D01*
X38763373Y-36987963D01*
X38650147Y-36953616D01*
X38593533Y-36936443D01*
X38437011Y-36852779D01*
X38437009Y-36852778D01*
X38401271Y-36823448D01*
X38299814Y-36740186D01*
X38216552Y-36638729D01*
X38187222Y-36602991D01*
X38177652Y-36585087D01*
X38103557Y-36446467D01*
X38086384Y-36389853D01*
X38052037Y-36276627D01*
X38034641Y-36100000D01*
X38052037Y-35923373D01*
X38103557Y-35753534D01*
X38103557Y-35753533D01*
X38187221Y-35597011D01*
X38187222Y-35597009D01*
X38216552Y-35561271D01*
X38299814Y-35459814D01*
X38401271Y-35376552D01*
X38437009Y-35347222D01*
X38454913Y-35337652D01*
X38593533Y-35263557D01*
X38650147Y-35246384D01*
X38763373Y-35212037D01*
X38829557Y-35205519D01*
X38895740Y-35199000D01*
X38984260Y-35199000D01*
X39050443Y-35205519D01*
X39050443Y-35205519D01*
G37*
G36*
X41590443Y-35205519D02*
X41656627Y-35212037D01*
X41769853Y-35246384D01*
X41826467Y-35263557D01*
X41965087Y-35337652D01*
X41982991Y-35347222D01*
X42018729Y-35376552D01*
X42120186Y-35459814D01*
X42203448Y-35561271D01*
X42232778Y-35597009D01*
X42232779Y-35597011D01*
X42316443Y-35753533D01*
X42316443Y-35753534D01*
X42367963Y-35923373D01*
X42385359Y-36100000D01*
X42367963Y-36276627D01*
X42333616Y-36389853D01*
X42316443Y-36446467D01*
X42242348Y-36585087D01*
X42232778Y-36602991D01*
X42203448Y-36638729D01*
X42120186Y-36740186D01*
X42018729Y-36823448D01*
X41982991Y-36852778D01*
X41982989Y-36852779D01*
X41826467Y-36936443D01*
X41769853Y-36953616D01*
X41656627Y-36987963D01*
X41590443Y-36994481D01*
X41524260Y-37001000D01*
X41435740Y-37001000D01*
X41369557Y-36994481D01*
X41303373Y-36987963D01*
X41190147Y-36953616D01*
X41133533Y-36936443D01*
X40977011Y-36852779D01*
X40977009Y-36852778D01*
X40941271Y-36823448D01*
X40839814Y-36740186D01*
X40756552Y-36638729D01*
X40727222Y-36602991D01*
X40717652Y-36585087D01*
X40643557Y-36446467D01*
X40626384Y-36389853D01*
X40592037Y-36276627D01*
X40574641Y-36100000D01*
X40592037Y-35923373D01*
X40643557Y-35753534D01*
X40643557Y-35753533D01*
X40727221Y-35597011D01*
X40727222Y-35597009D01*
X40756552Y-35561271D01*
X40839814Y-35459814D01*
X40941271Y-35376552D01*
X40977009Y-35347222D01*
X40994913Y-35337652D01*
X41133533Y-35263557D01*
X41190147Y-35246384D01*
X41303373Y-35212037D01*
X41369557Y-35205519D01*
X41435740Y-35199000D01*
X41524260Y-35199000D01*
X41590443Y-35205519D01*
X41590443Y-35205519D01*
G37*
G36*
X44130443Y-35205519D02*
X44196627Y-35212037D01*
X44309853Y-35246384D01*
X44366467Y-35263557D01*
X44505087Y-35337652D01*
X44522991Y-35347222D01*
X44558729Y-35376552D01*
X44660186Y-35459814D01*
X44743448Y-35561271D01*
X44772778Y-35597009D01*
X44772779Y-35597011D01*
X44856443Y-35753533D01*
X44856443Y-35753534D01*
X44907963Y-35923373D01*
X44925359Y-36100000D01*
X44907963Y-36276627D01*
X44873616Y-36389853D01*
X44856443Y-36446467D01*
X44782348Y-36585087D01*
X44772778Y-36602991D01*
X44743448Y-36638729D01*
X44660186Y-36740186D01*
X44558729Y-36823448D01*
X44522991Y-36852778D01*
X44522989Y-36852779D01*
X44366467Y-36936443D01*
X44309853Y-36953616D01*
X44196627Y-36987963D01*
X44130443Y-36994481D01*
X44064260Y-37001000D01*
X43975740Y-37001000D01*
X43909557Y-36994481D01*
X43843373Y-36987963D01*
X43730147Y-36953616D01*
X43673533Y-36936443D01*
X43517011Y-36852779D01*
X43517009Y-36852778D01*
X43481271Y-36823448D01*
X43379814Y-36740186D01*
X43296552Y-36638729D01*
X43267222Y-36602991D01*
X43257652Y-36585087D01*
X43183557Y-36446467D01*
X43166384Y-36389853D01*
X43132037Y-36276627D01*
X43114641Y-36100000D01*
X43132037Y-35923373D01*
X43183557Y-35753534D01*
X43183557Y-35753533D01*
X43267221Y-35597011D01*
X43267222Y-35597009D01*
X43296552Y-35561271D01*
X43379814Y-35459814D01*
X43481271Y-35376552D01*
X43517009Y-35347222D01*
X43534913Y-35337652D01*
X43673533Y-35263557D01*
X43730147Y-35246384D01*
X43843373Y-35212037D01*
X43909557Y-35205519D01*
X43975740Y-35199000D01*
X44064260Y-35199000D01*
X44130443Y-35205519D01*
X44130443Y-35205519D01*
G37*
G36*
X46670443Y-35205519D02*
X46736627Y-35212037D01*
X46849853Y-35246384D01*
X46906467Y-35263557D01*
X47045087Y-35337652D01*
X47062991Y-35347222D01*
X47098729Y-35376552D01*
X47200186Y-35459814D01*
X47283448Y-35561271D01*
X47312778Y-35597009D01*
X47312779Y-35597011D01*
X47396443Y-35753533D01*
X47396443Y-35753534D01*
X47447963Y-35923373D01*
X47465359Y-36100000D01*
X47447963Y-36276627D01*
X47413616Y-36389853D01*
X47396443Y-36446467D01*
X47322348Y-36585087D01*
X47312778Y-36602991D01*
X47283448Y-36638729D01*
X47200186Y-36740186D01*
X47098729Y-36823448D01*
X47062991Y-36852778D01*
X47062989Y-36852779D01*
X46906467Y-36936443D01*
X46849853Y-36953616D01*
X46736627Y-36987963D01*
X46670443Y-36994481D01*
X46604260Y-37001000D01*
X46515740Y-37001000D01*
X46449557Y-36994481D01*
X46383373Y-36987963D01*
X46270147Y-36953616D01*
X46213533Y-36936443D01*
X46057011Y-36852779D01*
X46057009Y-36852778D01*
X46021271Y-36823448D01*
X45919814Y-36740186D01*
X45836552Y-36638729D01*
X45807222Y-36602991D01*
X45797652Y-36585087D01*
X45723557Y-36446467D01*
X45706384Y-36389853D01*
X45672037Y-36276627D01*
X45654641Y-36100000D01*
X45672037Y-35923373D01*
X45723557Y-35753534D01*
X45723557Y-35753533D01*
X45807221Y-35597011D01*
X45807222Y-35597009D01*
X45836552Y-35561271D01*
X45919814Y-35459814D01*
X46021271Y-35376552D01*
X46057009Y-35347222D01*
X46074913Y-35337652D01*
X46213533Y-35263557D01*
X46270147Y-35246384D01*
X46383373Y-35212037D01*
X46449557Y-35205519D01*
X46515740Y-35199000D01*
X46604260Y-35199000D01*
X46670443Y-35205519D01*
X46670443Y-35205519D01*
G37*
G36*
X49210443Y-35205519D02*
X49276627Y-35212037D01*
X49389853Y-35246384D01*
X49446467Y-35263557D01*
X49585087Y-35337652D01*
X49602991Y-35347222D01*
X49638729Y-35376552D01*
X49740186Y-35459814D01*
X49823448Y-35561271D01*
X49852778Y-35597009D01*
X49852779Y-35597011D01*
X49936443Y-35753533D01*
X49936443Y-35753534D01*
X49987963Y-35923373D01*
X50005359Y-36100000D01*
X49987963Y-36276627D01*
X49953616Y-36389853D01*
X49936443Y-36446467D01*
X49862348Y-36585087D01*
X49852778Y-36602991D01*
X49823448Y-36638729D01*
X49740186Y-36740186D01*
X49638729Y-36823448D01*
X49602991Y-36852778D01*
X49602989Y-36852779D01*
X49446467Y-36936443D01*
X49389853Y-36953616D01*
X49276627Y-36987963D01*
X49210443Y-36994481D01*
X49144260Y-37001000D01*
X49055740Y-37001000D01*
X48989557Y-36994481D01*
X48923373Y-36987963D01*
X48810147Y-36953616D01*
X48753533Y-36936443D01*
X48597011Y-36852779D01*
X48597009Y-36852778D01*
X48561271Y-36823448D01*
X48459814Y-36740186D01*
X48376552Y-36638729D01*
X48347222Y-36602991D01*
X48337652Y-36585087D01*
X48263557Y-36446467D01*
X48246384Y-36389853D01*
X48212037Y-36276627D01*
X48194641Y-36100000D01*
X48212037Y-35923373D01*
X48263557Y-35753534D01*
X48263557Y-35753533D01*
X48347221Y-35597011D01*
X48347222Y-35597009D01*
X48376552Y-35561271D01*
X48459814Y-35459814D01*
X48561271Y-35376552D01*
X48597009Y-35347222D01*
X48614913Y-35337652D01*
X48753533Y-35263557D01*
X48810147Y-35246384D01*
X48923373Y-35212037D01*
X48989557Y-35205519D01*
X49055740Y-35199000D01*
X49144260Y-35199000D01*
X49210443Y-35205519D01*
X49210443Y-35205519D01*
G37*
G36*
X51750443Y-35205519D02*
X51816627Y-35212037D01*
X51929853Y-35246384D01*
X51986467Y-35263557D01*
X52125087Y-35337652D01*
X52142991Y-35347222D01*
X52178729Y-35376552D01*
X52280186Y-35459814D01*
X52363448Y-35561271D01*
X52392778Y-35597009D01*
X52392779Y-35597011D01*
X52476443Y-35753533D01*
X52476443Y-35753534D01*
X52527963Y-35923373D01*
X52545359Y-36100000D01*
X52527963Y-36276627D01*
X52493616Y-36389853D01*
X52476443Y-36446467D01*
X52402348Y-36585087D01*
X52392778Y-36602991D01*
X52363448Y-36638729D01*
X52280186Y-36740186D01*
X52178729Y-36823448D01*
X52142991Y-36852778D01*
X52142989Y-36852779D01*
X51986467Y-36936443D01*
X51929853Y-36953616D01*
X51816627Y-36987963D01*
X51750443Y-36994481D01*
X51684260Y-37001000D01*
X51595740Y-37001000D01*
X51529557Y-36994481D01*
X51463373Y-36987963D01*
X51350147Y-36953616D01*
X51293533Y-36936443D01*
X51137011Y-36852779D01*
X51137009Y-36852778D01*
X51101271Y-36823448D01*
X50999814Y-36740186D01*
X50916552Y-36638729D01*
X50887222Y-36602991D01*
X50877652Y-36585087D01*
X50803557Y-36446467D01*
X50786384Y-36389853D01*
X50752037Y-36276627D01*
X50734641Y-36100000D01*
X50752037Y-35923373D01*
X50803557Y-35753534D01*
X50803557Y-35753533D01*
X50887221Y-35597011D01*
X50887222Y-35597009D01*
X50916552Y-35561271D01*
X50999814Y-35459814D01*
X51101271Y-35376552D01*
X51137009Y-35347222D01*
X51154913Y-35337652D01*
X51293533Y-35263557D01*
X51350147Y-35246384D01*
X51463373Y-35212037D01*
X51529557Y-35205519D01*
X51595740Y-35199000D01*
X51684260Y-35199000D01*
X51750443Y-35205519D01*
X51750443Y-35205519D01*
G37*
G36*
X54290443Y-35205519D02*
X54356627Y-35212037D01*
X54469853Y-35246384D01*
X54526467Y-35263557D01*
X54665087Y-35337652D01*
X54682991Y-35347222D01*
X54718729Y-35376552D01*
X54820186Y-35459814D01*
X54903448Y-35561271D01*
X54932778Y-35597009D01*
X54932779Y-35597011D01*
X55016443Y-35753533D01*
X55016443Y-35753534D01*
X55067963Y-35923373D01*
X55085359Y-36100000D01*
X55067963Y-36276627D01*
X55033616Y-36389853D01*
X55016443Y-36446467D01*
X54942348Y-36585087D01*
X54932778Y-36602991D01*
X54903448Y-36638729D01*
X54820186Y-36740186D01*
X54718729Y-36823448D01*
X54682991Y-36852778D01*
X54682989Y-36852779D01*
X54526467Y-36936443D01*
X54469853Y-36953616D01*
X54356627Y-36987963D01*
X54290443Y-36994481D01*
X54224260Y-37001000D01*
X54135740Y-37001000D01*
X54069557Y-36994481D01*
X54003373Y-36987963D01*
X53890147Y-36953616D01*
X53833533Y-36936443D01*
X53677011Y-36852779D01*
X53677009Y-36852778D01*
X53641271Y-36823448D01*
X53539814Y-36740186D01*
X53456552Y-36638729D01*
X53427222Y-36602991D01*
X53417652Y-36585087D01*
X53343557Y-36446467D01*
X53326384Y-36389853D01*
X53292037Y-36276627D01*
X53274641Y-36100000D01*
X53292037Y-35923373D01*
X53343557Y-35753534D01*
X53343557Y-35753533D01*
X53427221Y-35597011D01*
X53427222Y-35597009D01*
X53456552Y-35561271D01*
X53539814Y-35459814D01*
X53641271Y-35376552D01*
X53677009Y-35347222D01*
X53694913Y-35337652D01*
X53833533Y-35263557D01*
X53890147Y-35246384D01*
X54003373Y-35212037D01*
X54069557Y-35205519D01*
X54135740Y-35199000D01*
X54224260Y-35199000D01*
X54290443Y-35205519D01*
X54290443Y-35205519D01*
G37*
G36*
X56830443Y-35205519D02*
X56896627Y-35212037D01*
X57009853Y-35246384D01*
X57066467Y-35263557D01*
X57205087Y-35337652D01*
X57222991Y-35347222D01*
X57258729Y-35376552D01*
X57360186Y-35459814D01*
X57443448Y-35561271D01*
X57472778Y-35597009D01*
X57472779Y-35597011D01*
X57556443Y-35753533D01*
X57556443Y-35753534D01*
X57607963Y-35923373D01*
X57625359Y-36100000D01*
X57607963Y-36276627D01*
X57573616Y-36389853D01*
X57556443Y-36446467D01*
X57482348Y-36585087D01*
X57472778Y-36602991D01*
X57443448Y-36638729D01*
X57360186Y-36740186D01*
X57258729Y-36823448D01*
X57222991Y-36852778D01*
X57222989Y-36852779D01*
X57066467Y-36936443D01*
X57009853Y-36953616D01*
X56896627Y-36987963D01*
X56830443Y-36994481D01*
X56764260Y-37001000D01*
X56675740Y-37001000D01*
X56609557Y-36994481D01*
X56543373Y-36987963D01*
X56430147Y-36953616D01*
X56373533Y-36936443D01*
X56217011Y-36852779D01*
X56217009Y-36852778D01*
X56181271Y-36823448D01*
X56079814Y-36740186D01*
X55996552Y-36638729D01*
X55967222Y-36602991D01*
X55957652Y-36585087D01*
X55883557Y-36446467D01*
X55866384Y-36389853D01*
X55832037Y-36276627D01*
X55814641Y-36100000D01*
X55832037Y-35923373D01*
X55883557Y-35753534D01*
X55883557Y-35753533D01*
X55967221Y-35597011D01*
X55967222Y-35597009D01*
X55996552Y-35561271D01*
X56079814Y-35459814D01*
X56181271Y-35376552D01*
X56217009Y-35347222D01*
X56234913Y-35337652D01*
X56373533Y-35263557D01*
X56430147Y-35246384D01*
X56543373Y-35212037D01*
X56609557Y-35205519D01*
X56675740Y-35199000D01*
X56764260Y-35199000D01*
X56830443Y-35205519D01*
X56830443Y-35205519D01*
G37*
G36*
X21683014Y-32346973D02*
X21786878Y-32378479D01*
X21882599Y-32429644D01*
X21966500Y-32498499D01*
X22035355Y-32582400D01*
X22086520Y-32678121D01*
X22118026Y-32781985D01*
X22128665Y-32890000D01*
X22118026Y-32998015D01*
X22086520Y-33101879D01*
X22035355Y-33197600D01*
X21966500Y-33281501D01*
X21882599Y-33350356D01*
X21786878Y-33401521D01*
X21683014Y-33433027D01*
X21602066Y-33441000D01*
X20947932Y-33441000D01*
X20866984Y-33433027D01*
X20763120Y-33401521D01*
X20667399Y-33350356D01*
X20583498Y-33281501D01*
X20514643Y-33197600D01*
X20463478Y-33101879D01*
X20431972Y-32998015D01*
X20421333Y-32890000D01*
X20431972Y-32781985D01*
X20463478Y-32678121D01*
X20514643Y-32582400D01*
X20583498Y-32498499D01*
X20667399Y-32429644D01*
X20763120Y-32378479D01*
X20866984Y-32346973D01*
X20947932Y-32339000D01*
X21602066Y-32339000D01*
X21683014Y-32346973D01*
X21683014Y-32346973D01*
G37*
G36*
X26113014Y-32346973D02*
X26216878Y-32378479D01*
X26312599Y-32429644D01*
X26396500Y-32498499D01*
X26465355Y-32582400D01*
X26516520Y-32678121D01*
X26548026Y-32781985D01*
X26558665Y-32890000D01*
X26548026Y-32998015D01*
X26516520Y-33101879D01*
X26465355Y-33197600D01*
X26396500Y-33281501D01*
X26312599Y-33350356D01*
X26216878Y-33401521D01*
X26113014Y-33433027D01*
X26032066Y-33441000D01*
X24877932Y-33441000D01*
X24796984Y-33433027D01*
X24693120Y-33401521D01*
X24597399Y-33350356D01*
X24513498Y-33281501D01*
X24444643Y-33197600D01*
X24393478Y-33101879D01*
X24361972Y-32998015D01*
X24351333Y-32890000D01*
X24361972Y-32781985D01*
X24393478Y-32678121D01*
X24444643Y-32582400D01*
X24513498Y-32498499D01*
X24597399Y-32429644D01*
X24693120Y-32378479D01*
X24796984Y-32346973D01*
X24877932Y-32339000D01*
X26032066Y-32339000D01*
X26113014Y-32346973D01*
X26113014Y-32346973D01*
G37*
G36*
X59310443Y-31575519D02*
X59376627Y-31582037D01*
X59489853Y-31616384D01*
X59546467Y-31633557D01*
X59670184Y-31699686D01*
X59702991Y-31717222D01*
X59738729Y-31746552D01*
X59840186Y-31829814D01*
X59923448Y-31931271D01*
X59952778Y-31967009D01*
X59952779Y-31967011D01*
X60036443Y-32123533D01*
X60036443Y-32123534D01*
X60087963Y-32293373D01*
X60105359Y-32470000D01*
X60087963Y-32646627D01*
X60078409Y-32678121D01*
X60036443Y-32816467D01*
X59997138Y-32890000D01*
X59952778Y-32972991D01*
X59932243Y-32998013D01*
X59840186Y-33110186D01*
X59738729Y-33193448D01*
X59702991Y-33222778D01*
X59702989Y-33222779D01*
X59546467Y-33306443D01*
X59489853Y-33323616D01*
X59376627Y-33357963D01*
X59310443Y-33364481D01*
X59244260Y-33371000D01*
X59155740Y-33371000D01*
X59089557Y-33364481D01*
X59023373Y-33357963D01*
X58910147Y-33323616D01*
X58853533Y-33306443D01*
X58697011Y-33222779D01*
X58697009Y-33222778D01*
X58661271Y-33193448D01*
X58559814Y-33110186D01*
X58467757Y-32998013D01*
X58447222Y-32972991D01*
X58402862Y-32890000D01*
X58363557Y-32816467D01*
X58321591Y-32678121D01*
X58312037Y-32646627D01*
X58294641Y-32470000D01*
X58312037Y-32293373D01*
X58363557Y-32123534D01*
X58363557Y-32123533D01*
X58447221Y-31967011D01*
X58447222Y-31967009D01*
X58476552Y-31931271D01*
X58559814Y-31829814D01*
X58661271Y-31746552D01*
X58697009Y-31717222D01*
X58729816Y-31699686D01*
X58853533Y-31633557D01*
X58910147Y-31616384D01*
X59023373Y-31582037D01*
X59089557Y-31575519D01*
X59155740Y-31569000D01*
X59244260Y-31569000D01*
X59310443Y-31575519D01*
X59310443Y-31575519D01*
G37*
G36*
X25034671Y-31098449D02*
X25034673Y-31098450D01*
X25034674Y-31098450D01*
X25103102Y-31126793D01*
X25164408Y-31167757D01*
X25164688Y-31167944D01*
X25217055Y-31220311D01*
X25217057Y-31220314D01*
X25258206Y-31281897D01*
X25286549Y-31350325D01*
X25286550Y-31350328D01*
X25300999Y-31422966D01*
X25300999Y-31497034D01*
X25286684Y-31569000D01*
X25286549Y-31569675D01*
X25258206Y-31638103D01*
X25217242Y-31699409D01*
X25217055Y-31699689D01*
X25164688Y-31752056D01*
X25164685Y-31752058D01*
X25103102Y-31793207D01*
X25034674Y-31821550D01*
X25034673Y-31821550D01*
X25034671Y-31821551D01*
X24962033Y-31836000D01*
X24887965Y-31836000D01*
X24815327Y-31821551D01*
X24815325Y-31821550D01*
X24815324Y-31821550D01*
X24746896Y-31793207D01*
X24685313Y-31752058D01*
X24685310Y-31752056D01*
X24632943Y-31699689D01*
X24632756Y-31699409D01*
X24591792Y-31638103D01*
X24563449Y-31569675D01*
X24563315Y-31569000D01*
X24548999Y-31497034D01*
X24548999Y-31422966D01*
X24563448Y-31350328D01*
X24563449Y-31350325D01*
X24591792Y-31281897D01*
X24632941Y-31220314D01*
X24632943Y-31220311D01*
X24685310Y-31167944D01*
X24685590Y-31167757D01*
X24746896Y-31126793D01*
X24815324Y-31098450D01*
X24815325Y-31098450D01*
X24815327Y-31098449D01*
X24887965Y-31084000D01*
X24962033Y-31084000D01*
X25034671Y-31098449D01*
X25034671Y-31098449D01*
G37*
G36*
X59310443Y-29035519D02*
X59376627Y-29042037D01*
X59489853Y-29076384D01*
X59546467Y-29093557D01*
X59685087Y-29167652D01*
X59702991Y-29177222D01*
X59738729Y-29206552D01*
X59840186Y-29289814D01*
X59923448Y-29391271D01*
X59952778Y-29427009D01*
X59952779Y-29427011D01*
X60036443Y-29583533D01*
X60036443Y-29583534D01*
X60087963Y-29753373D01*
X60105359Y-29930000D01*
X60087963Y-30106627D01*
X60053616Y-30219853D01*
X60036443Y-30276467D01*
X59962348Y-30415087D01*
X59952778Y-30432991D01*
X59923448Y-30468729D01*
X59840186Y-30570186D01*
X59738729Y-30653448D01*
X59702991Y-30682778D01*
X59702989Y-30682779D01*
X59546467Y-30766443D01*
X59489853Y-30783616D01*
X59376627Y-30817963D01*
X59310443Y-30824481D01*
X59244260Y-30831000D01*
X59155740Y-30831000D01*
X59089557Y-30824481D01*
X59023373Y-30817963D01*
X58910147Y-30783616D01*
X58853533Y-30766443D01*
X58697011Y-30682779D01*
X58697009Y-30682778D01*
X58661271Y-30653448D01*
X58559814Y-30570186D01*
X58476552Y-30468729D01*
X58447222Y-30432991D01*
X58437652Y-30415087D01*
X58363557Y-30276467D01*
X58346384Y-30219853D01*
X58312037Y-30106627D01*
X58294641Y-29930000D01*
X58312037Y-29753373D01*
X58363557Y-29583534D01*
X58363557Y-29583533D01*
X58447221Y-29427011D01*
X58447222Y-29427009D01*
X58476552Y-29391271D01*
X58559814Y-29289814D01*
X58661271Y-29206552D01*
X58697009Y-29177222D01*
X58714913Y-29167652D01*
X58853533Y-29093557D01*
X58910147Y-29076384D01*
X59023373Y-29042037D01*
X59089557Y-29035519D01*
X59155740Y-29029000D01*
X59244260Y-29029000D01*
X59310443Y-29035519D01*
X59310443Y-29035519D01*
G37*
G36*
X59310443Y-26495519D02*
X59376627Y-26502037D01*
X59489853Y-26536384D01*
X59546467Y-26553557D01*
X59685087Y-26627652D01*
X59702991Y-26637222D01*
X59738729Y-26666552D01*
X59840186Y-26749814D01*
X59923448Y-26851271D01*
X59952778Y-26887009D01*
X59952779Y-26887011D01*
X60036443Y-27043533D01*
X60036443Y-27043534D01*
X60087963Y-27213373D01*
X60105359Y-27390000D01*
X60087963Y-27566627D01*
X60053616Y-27679853D01*
X60036443Y-27736467D01*
X59962348Y-27875087D01*
X59952778Y-27892991D01*
X59923448Y-27928729D01*
X59840186Y-28030186D01*
X59738729Y-28113448D01*
X59702991Y-28142778D01*
X59702989Y-28142779D01*
X59546467Y-28226443D01*
X59489853Y-28243616D01*
X59376627Y-28277963D01*
X59310443Y-28284481D01*
X59244260Y-28291000D01*
X59155740Y-28291000D01*
X59089557Y-28284481D01*
X59023373Y-28277963D01*
X58910147Y-28243616D01*
X58853533Y-28226443D01*
X58697011Y-28142779D01*
X58697009Y-28142778D01*
X58661271Y-28113448D01*
X58559814Y-28030186D01*
X58476552Y-27928729D01*
X58447222Y-27892991D01*
X58437652Y-27875087D01*
X58363557Y-27736467D01*
X58346384Y-27679853D01*
X58312037Y-27566627D01*
X58294641Y-27390000D01*
X58312037Y-27213373D01*
X58363557Y-27043534D01*
X58363557Y-27043533D01*
X58447221Y-26887011D01*
X58447222Y-26887009D01*
X58476552Y-26851271D01*
X58559814Y-26749814D01*
X58661271Y-26666552D01*
X58697009Y-26637222D01*
X58714913Y-26627652D01*
X58853533Y-26553557D01*
X58910147Y-26536384D01*
X59023373Y-26502037D01*
X59089557Y-26495519D01*
X59155740Y-26489000D01*
X59244260Y-26489000D01*
X59310443Y-26495519D01*
X59310443Y-26495519D01*
G37*
G36*
X25034671Y-25318449D02*
X25034673Y-25318450D01*
X25034674Y-25318450D01*
X25103102Y-25346793D01*
X25164408Y-25387757D01*
X25164688Y-25387944D01*
X25217055Y-25440311D01*
X25217057Y-25440314D01*
X25258206Y-25501897D01*
X25286549Y-25570325D01*
X25286550Y-25570328D01*
X25300999Y-25642966D01*
X25300999Y-25717034D01*
X25294243Y-25751000D01*
X25286549Y-25789675D01*
X25258206Y-25858103D01*
X25217242Y-25919409D01*
X25217055Y-25919689D01*
X25164688Y-25972056D01*
X25164685Y-25972058D01*
X25103102Y-26013207D01*
X25034674Y-26041550D01*
X25034673Y-26041550D01*
X25034671Y-26041551D01*
X24962033Y-26056000D01*
X24887965Y-26056000D01*
X24815327Y-26041551D01*
X24815325Y-26041550D01*
X24815324Y-26041550D01*
X24746896Y-26013207D01*
X24685313Y-25972058D01*
X24685310Y-25972056D01*
X24632943Y-25919689D01*
X24632756Y-25919409D01*
X24591792Y-25858103D01*
X24563449Y-25789675D01*
X24555756Y-25751000D01*
X24548999Y-25717034D01*
X24548999Y-25642966D01*
X24563448Y-25570328D01*
X24563449Y-25570325D01*
X24591792Y-25501897D01*
X24632941Y-25440314D01*
X24632943Y-25440311D01*
X24685310Y-25387944D01*
X24685590Y-25387757D01*
X24746896Y-25346793D01*
X24815324Y-25318450D01*
X24815325Y-25318450D01*
X24815327Y-25318449D01*
X24887965Y-25304000D01*
X24962033Y-25304000D01*
X25034671Y-25318449D01*
X25034671Y-25318449D01*
G37*
G36*
X60101000Y-25751000D02*
X58299000Y-25751000D01*
X58299000Y-23949000D01*
X60101000Y-23949000D01*
X60101000Y-25751000D01*
X60101000Y-25751000D01*
G37*
G36*
X26113014Y-23706973D02*
X26216878Y-23738479D01*
X26312599Y-23789644D01*
X26396500Y-23858499D01*
X26465355Y-23942400D01*
X26516520Y-24038121D01*
X26548026Y-24141985D01*
X26558665Y-24250000D01*
X26548026Y-24358015D01*
X26516520Y-24461879D01*
X26465355Y-24557600D01*
X26396500Y-24641501D01*
X26312599Y-24710356D01*
X26216878Y-24761521D01*
X26113014Y-24793027D01*
X26032066Y-24801000D01*
X24877932Y-24801000D01*
X24796984Y-24793027D01*
X24693120Y-24761521D01*
X24597399Y-24710356D01*
X24513498Y-24641501D01*
X24444643Y-24557600D01*
X24393478Y-24461879D01*
X24361972Y-24358015D01*
X24351333Y-24250000D01*
X24361972Y-24141985D01*
X24393478Y-24038121D01*
X24444643Y-23942400D01*
X24513498Y-23858499D01*
X24597399Y-23789644D01*
X24693120Y-23738479D01*
X24796984Y-23706973D01*
X24877932Y-23699000D01*
X26032066Y-23699000D01*
X26113014Y-23706973D01*
X26113014Y-23706973D01*
G37*
G36*
X21683014Y-23706973D02*
X21786878Y-23738479D01*
X21882599Y-23789644D01*
X21966500Y-23858499D01*
X22035355Y-23942400D01*
X22086520Y-24038121D01*
X22118026Y-24141985D01*
X22128665Y-24250000D01*
X22118026Y-24358015D01*
X22086520Y-24461879D01*
X22035355Y-24557600D01*
X21966500Y-24641501D01*
X21882599Y-24710356D01*
X21786878Y-24761521D01*
X21683014Y-24793027D01*
X21602066Y-24801000D01*
X20947932Y-24801000D01*
X20866984Y-24793027D01*
X20763120Y-24761521D01*
X20667399Y-24710356D01*
X20583498Y-24641501D01*
X20514643Y-24557600D01*
X20463478Y-24461879D01*
X20431972Y-24358015D01*
X20421333Y-24250000D01*
X20431972Y-24141985D01*
X20463478Y-24038121D01*
X20514643Y-23942400D01*
X20583498Y-23858499D01*
X20667399Y-23789644D01*
X20763120Y-23738479D01*
X20866984Y-23706973D01*
X20947932Y-23699000D01*
X21602066Y-23699000D01*
X21683014Y-23706973D01*
X21683014Y-23706973D01*
G37*
G36*
X24601000Y-22001000D02*
X22799000Y-22001000D01*
X22799000Y-20199000D01*
X24601000Y-20199000D01*
X24601000Y-22001000D01*
X24601000Y-22001000D01*
G37*
G36*
X26350443Y-20205519D02*
X26416627Y-20212037D01*
X26529853Y-20246384D01*
X26586467Y-20263557D01*
X26725087Y-20337652D01*
X26742991Y-20347222D01*
X26778729Y-20376552D01*
X26880186Y-20459814D01*
X26963448Y-20561271D01*
X26992778Y-20597009D01*
X26992779Y-20597011D01*
X27076443Y-20753533D01*
X27076443Y-20753534D01*
X27127963Y-20923373D01*
X27145359Y-21100000D01*
X27127963Y-21276627D01*
X27093616Y-21389853D01*
X27076443Y-21446467D01*
X27002348Y-21585087D01*
X26992778Y-21602991D01*
X26963448Y-21638729D01*
X26880186Y-21740186D01*
X26778729Y-21823448D01*
X26742991Y-21852778D01*
X26742989Y-21852779D01*
X26586467Y-21936443D01*
X26529853Y-21953616D01*
X26416627Y-21987963D01*
X26350443Y-21994481D01*
X26284260Y-22001000D01*
X26195740Y-22001000D01*
X26129557Y-21994481D01*
X26063373Y-21987963D01*
X25950147Y-21953616D01*
X25893533Y-21936443D01*
X25737011Y-21852779D01*
X25737009Y-21852778D01*
X25701271Y-21823448D01*
X25599814Y-21740186D01*
X25516552Y-21638729D01*
X25487222Y-21602991D01*
X25477652Y-21585087D01*
X25403557Y-21446467D01*
X25386384Y-21389853D01*
X25352037Y-21276627D01*
X25334641Y-21100000D01*
X25352037Y-20923373D01*
X25403557Y-20753534D01*
X25403557Y-20753533D01*
X25487221Y-20597011D01*
X25487222Y-20597009D01*
X25516552Y-20561271D01*
X25599814Y-20459814D01*
X25701271Y-20376552D01*
X25737009Y-20347222D01*
X25754913Y-20337652D01*
X25893533Y-20263557D01*
X25950147Y-20246384D01*
X26063373Y-20212037D01*
X26129557Y-20205519D01*
X26195740Y-20199000D01*
X26284260Y-20199000D01*
X26350443Y-20205519D01*
X26350443Y-20205519D01*
G37*
G36*
X28890443Y-20205519D02*
X28956627Y-20212037D01*
X29069853Y-20246384D01*
X29126467Y-20263557D01*
X29265087Y-20337652D01*
X29282991Y-20347222D01*
X29318729Y-20376552D01*
X29420186Y-20459814D01*
X29503448Y-20561271D01*
X29532778Y-20597009D01*
X29532779Y-20597011D01*
X29616443Y-20753533D01*
X29616443Y-20753534D01*
X29667963Y-20923373D01*
X29685359Y-21100000D01*
X29667963Y-21276627D01*
X29633616Y-21389853D01*
X29616443Y-21446467D01*
X29542348Y-21585087D01*
X29532778Y-21602991D01*
X29503448Y-21638729D01*
X29420186Y-21740186D01*
X29318729Y-21823448D01*
X29282991Y-21852778D01*
X29282989Y-21852779D01*
X29126467Y-21936443D01*
X29069853Y-21953616D01*
X28956627Y-21987963D01*
X28890443Y-21994481D01*
X28824260Y-22001000D01*
X28735740Y-22001000D01*
X28669557Y-21994481D01*
X28603373Y-21987963D01*
X28490147Y-21953616D01*
X28433533Y-21936443D01*
X28277011Y-21852779D01*
X28277009Y-21852778D01*
X28241271Y-21823448D01*
X28139814Y-21740186D01*
X28056552Y-21638729D01*
X28027222Y-21602991D01*
X28017652Y-21585087D01*
X27943557Y-21446467D01*
X27926384Y-21389853D01*
X27892037Y-21276627D01*
X27874641Y-21100000D01*
X27892037Y-20923373D01*
X27943557Y-20753534D01*
X27943557Y-20753533D01*
X28027221Y-20597011D01*
X28027222Y-20597009D01*
X28056552Y-20561271D01*
X28139814Y-20459814D01*
X28241271Y-20376552D01*
X28277009Y-20347222D01*
X28294913Y-20337652D01*
X28433533Y-20263557D01*
X28490147Y-20246384D01*
X28603373Y-20212037D01*
X28669557Y-20205519D01*
X28735740Y-20199000D01*
X28824260Y-20199000D01*
X28890443Y-20205519D01*
X28890443Y-20205519D01*
G37*
G36*
X59370443Y-20205519D02*
X59436627Y-20212037D01*
X59549853Y-20246384D01*
X59606467Y-20263557D01*
X59745087Y-20337652D01*
X59762991Y-20347222D01*
X59798729Y-20376552D01*
X59900186Y-20459814D01*
X59983448Y-20561271D01*
X60012778Y-20597009D01*
X60012779Y-20597011D01*
X60096443Y-20753533D01*
X60096443Y-20753534D01*
X60147963Y-20923373D01*
X60165359Y-21100000D01*
X60147963Y-21276627D01*
X60113616Y-21389853D01*
X60096443Y-21446467D01*
X60022348Y-21585087D01*
X60012778Y-21602991D01*
X59983448Y-21638729D01*
X59900186Y-21740186D01*
X59798729Y-21823448D01*
X59762991Y-21852778D01*
X59762989Y-21852779D01*
X59606467Y-21936443D01*
X59549853Y-21953616D01*
X59436627Y-21987963D01*
X59370443Y-21994481D01*
X59304260Y-22001000D01*
X59215740Y-22001000D01*
X59149557Y-21994481D01*
X59083373Y-21987963D01*
X58970147Y-21953616D01*
X58913533Y-21936443D01*
X58757011Y-21852779D01*
X58757009Y-21852778D01*
X58721271Y-21823448D01*
X58619814Y-21740186D01*
X58536552Y-21638729D01*
X58507222Y-21602991D01*
X58497652Y-21585087D01*
X58423557Y-21446467D01*
X58406384Y-21389853D01*
X58372037Y-21276627D01*
X58354641Y-21100000D01*
X58372037Y-20923373D01*
X58423557Y-20753534D01*
X58423557Y-20753533D01*
X58507221Y-20597011D01*
X58507222Y-20597009D01*
X58536552Y-20561271D01*
X58619814Y-20459814D01*
X58721271Y-20376552D01*
X58757009Y-20347222D01*
X58774913Y-20337652D01*
X58913533Y-20263557D01*
X58970147Y-20246384D01*
X59083373Y-20212037D01*
X59149557Y-20205519D01*
X59215740Y-20199000D01*
X59304260Y-20199000D01*
X59370443Y-20205519D01*
X59370443Y-20205519D01*
G37*
G36*
X56830443Y-20205519D02*
X56896627Y-20212037D01*
X57009853Y-20246384D01*
X57066467Y-20263557D01*
X57205087Y-20337652D01*
X57222991Y-20347222D01*
X57258729Y-20376552D01*
X57360186Y-20459814D01*
X57443448Y-20561271D01*
X57472778Y-20597009D01*
X57472779Y-20597011D01*
X57556443Y-20753533D01*
X57556443Y-20753534D01*
X57607963Y-20923373D01*
X57625359Y-21100000D01*
X57607963Y-21276627D01*
X57573616Y-21389853D01*
X57556443Y-21446467D01*
X57482348Y-21585087D01*
X57472778Y-21602991D01*
X57443448Y-21638729D01*
X57360186Y-21740186D01*
X57258729Y-21823448D01*
X57222991Y-21852778D01*
X57222989Y-21852779D01*
X57066467Y-21936443D01*
X57009853Y-21953616D01*
X56896627Y-21987963D01*
X56830443Y-21994481D01*
X56764260Y-22001000D01*
X56675740Y-22001000D01*
X56609557Y-21994481D01*
X56543373Y-21987963D01*
X56430147Y-21953616D01*
X56373533Y-21936443D01*
X56217011Y-21852779D01*
X56217009Y-21852778D01*
X56181271Y-21823448D01*
X56079814Y-21740186D01*
X55996552Y-21638729D01*
X55967222Y-21602991D01*
X55957652Y-21585087D01*
X55883557Y-21446467D01*
X55866384Y-21389853D01*
X55832037Y-21276627D01*
X55814641Y-21100000D01*
X55832037Y-20923373D01*
X55883557Y-20753534D01*
X55883557Y-20753533D01*
X55967221Y-20597011D01*
X55967222Y-20597009D01*
X55996552Y-20561271D01*
X56079814Y-20459814D01*
X56181271Y-20376552D01*
X56217009Y-20347222D01*
X56234913Y-20337652D01*
X56373533Y-20263557D01*
X56430147Y-20246384D01*
X56543373Y-20212037D01*
X56609557Y-20205519D01*
X56675740Y-20199000D01*
X56764260Y-20199000D01*
X56830443Y-20205519D01*
X56830443Y-20205519D01*
G37*
G36*
X54290443Y-20205519D02*
X54356627Y-20212037D01*
X54469853Y-20246384D01*
X54526467Y-20263557D01*
X54665087Y-20337652D01*
X54682991Y-20347222D01*
X54718729Y-20376552D01*
X54820186Y-20459814D01*
X54903448Y-20561271D01*
X54932778Y-20597009D01*
X54932779Y-20597011D01*
X55016443Y-20753533D01*
X55016443Y-20753534D01*
X55067963Y-20923373D01*
X55085359Y-21100000D01*
X55067963Y-21276627D01*
X55033616Y-21389853D01*
X55016443Y-21446467D01*
X54942348Y-21585087D01*
X54932778Y-21602991D01*
X54903448Y-21638729D01*
X54820186Y-21740186D01*
X54718729Y-21823448D01*
X54682991Y-21852778D01*
X54682989Y-21852779D01*
X54526467Y-21936443D01*
X54469853Y-21953616D01*
X54356627Y-21987963D01*
X54290443Y-21994481D01*
X54224260Y-22001000D01*
X54135740Y-22001000D01*
X54069557Y-21994481D01*
X54003373Y-21987963D01*
X53890147Y-21953616D01*
X53833533Y-21936443D01*
X53677011Y-21852779D01*
X53677009Y-21852778D01*
X53641271Y-21823448D01*
X53539814Y-21740186D01*
X53456552Y-21638729D01*
X53427222Y-21602991D01*
X53417652Y-21585087D01*
X53343557Y-21446467D01*
X53326384Y-21389853D01*
X53292037Y-21276627D01*
X53274641Y-21100000D01*
X53292037Y-20923373D01*
X53343557Y-20753534D01*
X53343557Y-20753533D01*
X53427221Y-20597011D01*
X53427222Y-20597009D01*
X53456552Y-20561271D01*
X53539814Y-20459814D01*
X53641271Y-20376552D01*
X53677009Y-20347222D01*
X53694913Y-20337652D01*
X53833533Y-20263557D01*
X53890147Y-20246384D01*
X54003373Y-20212037D01*
X54069557Y-20205519D01*
X54135740Y-20199000D01*
X54224260Y-20199000D01*
X54290443Y-20205519D01*
X54290443Y-20205519D01*
G37*
G36*
X51750443Y-20205519D02*
X51816627Y-20212037D01*
X51929853Y-20246384D01*
X51986467Y-20263557D01*
X52125087Y-20337652D01*
X52142991Y-20347222D01*
X52178729Y-20376552D01*
X52280186Y-20459814D01*
X52363448Y-20561271D01*
X52392778Y-20597009D01*
X52392779Y-20597011D01*
X52476443Y-20753533D01*
X52476443Y-20753534D01*
X52527963Y-20923373D01*
X52545359Y-21100000D01*
X52527963Y-21276627D01*
X52493616Y-21389853D01*
X52476443Y-21446467D01*
X52402348Y-21585087D01*
X52392778Y-21602991D01*
X52363448Y-21638729D01*
X52280186Y-21740186D01*
X52178729Y-21823448D01*
X52142991Y-21852778D01*
X52142989Y-21852779D01*
X51986467Y-21936443D01*
X51929853Y-21953616D01*
X51816627Y-21987963D01*
X51750443Y-21994481D01*
X51684260Y-22001000D01*
X51595740Y-22001000D01*
X51529557Y-21994481D01*
X51463373Y-21987963D01*
X51350147Y-21953616D01*
X51293533Y-21936443D01*
X51137011Y-21852779D01*
X51137009Y-21852778D01*
X51101271Y-21823448D01*
X50999814Y-21740186D01*
X50916552Y-21638729D01*
X50887222Y-21602991D01*
X50877652Y-21585087D01*
X50803557Y-21446467D01*
X50786384Y-21389853D01*
X50752037Y-21276627D01*
X50734641Y-21100000D01*
X50752037Y-20923373D01*
X50803557Y-20753534D01*
X50803557Y-20753533D01*
X50887221Y-20597011D01*
X50887222Y-20597009D01*
X50916552Y-20561271D01*
X50999814Y-20459814D01*
X51101271Y-20376552D01*
X51137009Y-20347222D01*
X51154913Y-20337652D01*
X51293533Y-20263557D01*
X51350147Y-20246384D01*
X51463373Y-20212037D01*
X51529557Y-20205519D01*
X51595740Y-20199000D01*
X51684260Y-20199000D01*
X51750443Y-20205519D01*
X51750443Y-20205519D01*
G37*
G36*
X49210443Y-20205519D02*
X49276627Y-20212037D01*
X49389853Y-20246384D01*
X49446467Y-20263557D01*
X49585087Y-20337652D01*
X49602991Y-20347222D01*
X49638729Y-20376552D01*
X49740186Y-20459814D01*
X49823448Y-20561271D01*
X49852778Y-20597009D01*
X49852779Y-20597011D01*
X49936443Y-20753533D01*
X49936443Y-20753534D01*
X49987963Y-20923373D01*
X50005359Y-21100000D01*
X49987963Y-21276627D01*
X49953616Y-21389853D01*
X49936443Y-21446467D01*
X49862348Y-21585087D01*
X49852778Y-21602991D01*
X49823448Y-21638729D01*
X49740186Y-21740186D01*
X49638729Y-21823448D01*
X49602991Y-21852778D01*
X49602989Y-21852779D01*
X49446467Y-21936443D01*
X49389853Y-21953616D01*
X49276627Y-21987963D01*
X49210443Y-21994481D01*
X49144260Y-22001000D01*
X49055740Y-22001000D01*
X48989557Y-21994481D01*
X48923373Y-21987963D01*
X48810147Y-21953616D01*
X48753533Y-21936443D01*
X48597011Y-21852779D01*
X48597009Y-21852778D01*
X48561271Y-21823448D01*
X48459814Y-21740186D01*
X48376552Y-21638729D01*
X48347222Y-21602991D01*
X48337652Y-21585087D01*
X48263557Y-21446467D01*
X48246384Y-21389853D01*
X48212037Y-21276627D01*
X48194641Y-21100000D01*
X48212037Y-20923373D01*
X48263557Y-20753534D01*
X48263557Y-20753533D01*
X48347221Y-20597011D01*
X48347222Y-20597009D01*
X48376552Y-20561271D01*
X48459814Y-20459814D01*
X48561271Y-20376552D01*
X48597009Y-20347222D01*
X48614913Y-20337652D01*
X48753533Y-20263557D01*
X48810147Y-20246384D01*
X48923373Y-20212037D01*
X48989557Y-20205519D01*
X49055740Y-20199000D01*
X49144260Y-20199000D01*
X49210443Y-20205519D01*
X49210443Y-20205519D01*
G37*
G36*
X46670443Y-20205519D02*
X46736627Y-20212037D01*
X46849853Y-20246384D01*
X46906467Y-20263557D01*
X47045087Y-20337652D01*
X47062991Y-20347222D01*
X47098729Y-20376552D01*
X47200186Y-20459814D01*
X47283448Y-20561271D01*
X47312778Y-20597009D01*
X47312779Y-20597011D01*
X47396443Y-20753533D01*
X47396443Y-20753534D01*
X47447963Y-20923373D01*
X47465359Y-21100000D01*
X47447963Y-21276627D01*
X47413616Y-21389853D01*
X47396443Y-21446467D01*
X47322348Y-21585087D01*
X47312778Y-21602991D01*
X47283448Y-21638729D01*
X47200186Y-21740186D01*
X47098729Y-21823448D01*
X47062991Y-21852778D01*
X47062989Y-21852779D01*
X46906467Y-21936443D01*
X46849853Y-21953616D01*
X46736627Y-21987963D01*
X46670443Y-21994481D01*
X46604260Y-22001000D01*
X46515740Y-22001000D01*
X46449557Y-21994481D01*
X46383373Y-21987963D01*
X46270147Y-21953616D01*
X46213533Y-21936443D01*
X46057011Y-21852779D01*
X46057009Y-21852778D01*
X46021271Y-21823448D01*
X45919814Y-21740186D01*
X45836552Y-21638729D01*
X45807222Y-21602991D01*
X45797652Y-21585087D01*
X45723557Y-21446467D01*
X45706384Y-21389853D01*
X45672037Y-21276627D01*
X45654641Y-21100000D01*
X45672037Y-20923373D01*
X45723557Y-20753534D01*
X45723557Y-20753533D01*
X45807221Y-20597011D01*
X45807222Y-20597009D01*
X45836552Y-20561271D01*
X45919814Y-20459814D01*
X46021271Y-20376552D01*
X46057009Y-20347222D01*
X46074913Y-20337652D01*
X46213533Y-20263557D01*
X46270147Y-20246384D01*
X46383373Y-20212037D01*
X46449557Y-20205519D01*
X46515740Y-20199000D01*
X46604260Y-20199000D01*
X46670443Y-20205519D01*
X46670443Y-20205519D01*
G37*
G36*
X44130443Y-20205519D02*
X44196627Y-20212037D01*
X44309853Y-20246384D01*
X44366467Y-20263557D01*
X44505087Y-20337652D01*
X44522991Y-20347222D01*
X44558729Y-20376552D01*
X44660186Y-20459814D01*
X44743448Y-20561271D01*
X44772778Y-20597009D01*
X44772779Y-20597011D01*
X44856443Y-20753533D01*
X44856443Y-20753534D01*
X44907963Y-20923373D01*
X44925359Y-21100000D01*
X44907963Y-21276627D01*
X44873616Y-21389853D01*
X44856443Y-21446467D01*
X44782348Y-21585087D01*
X44772778Y-21602991D01*
X44743448Y-21638729D01*
X44660186Y-21740186D01*
X44558729Y-21823448D01*
X44522991Y-21852778D01*
X44522989Y-21852779D01*
X44366467Y-21936443D01*
X44309853Y-21953616D01*
X44196627Y-21987963D01*
X44130443Y-21994481D01*
X44064260Y-22001000D01*
X43975740Y-22001000D01*
X43909557Y-21994481D01*
X43843373Y-21987963D01*
X43730147Y-21953616D01*
X43673533Y-21936443D01*
X43517011Y-21852779D01*
X43517009Y-21852778D01*
X43481271Y-21823448D01*
X43379814Y-21740186D01*
X43296552Y-21638729D01*
X43267222Y-21602991D01*
X43257652Y-21585087D01*
X43183557Y-21446467D01*
X43166384Y-21389853D01*
X43132037Y-21276627D01*
X43114641Y-21100000D01*
X43132037Y-20923373D01*
X43183557Y-20753534D01*
X43183557Y-20753533D01*
X43267221Y-20597011D01*
X43267222Y-20597009D01*
X43296552Y-20561271D01*
X43379814Y-20459814D01*
X43481271Y-20376552D01*
X43517009Y-20347222D01*
X43534913Y-20337652D01*
X43673533Y-20263557D01*
X43730147Y-20246384D01*
X43843373Y-20212037D01*
X43909557Y-20205519D01*
X43975740Y-20199000D01*
X44064260Y-20199000D01*
X44130443Y-20205519D01*
X44130443Y-20205519D01*
G37*
G36*
X41590443Y-20205519D02*
X41656627Y-20212037D01*
X41769853Y-20246384D01*
X41826467Y-20263557D01*
X41965087Y-20337652D01*
X41982991Y-20347222D01*
X42018729Y-20376552D01*
X42120186Y-20459814D01*
X42203448Y-20561271D01*
X42232778Y-20597009D01*
X42232779Y-20597011D01*
X42316443Y-20753533D01*
X42316443Y-20753534D01*
X42367963Y-20923373D01*
X42385359Y-21100000D01*
X42367963Y-21276627D01*
X42333616Y-21389853D01*
X42316443Y-21446467D01*
X42242348Y-21585087D01*
X42232778Y-21602991D01*
X42203448Y-21638729D01*
X42120186Y-21740186D01*
X42018729Y-21823448D01*
X41982991Y-21852778D01*
X41982989Y-21852779D01*
X41826467Y-21936443D01*
X41769853Y-21953616D01*
X41656627Y-21987963D01*
X41590443Y-21994481D01*
X41524260Y-22001000D01*
X41435740Y-22001000D01*
X41369557Y-21994481D01*
X41303373Y-21987963D01*
X41190147Y-21953616D01*
X41133533Y-21936443D01*
X40977011Y-21852779D01*
X40977009Y-21852778D01*
X40941271Y-21823448D01*
X40839814Y-21740186D01*
X40756552Y-21638729D01*
X40727222Y-21602991D01*
X40717652Y-21585087D01*
X40643557Y-21446467D01*
X40626384Y-21389853D01*
X40592037Y-21276627D01*
X40574641Y-21100000D01*
X40592037Y-20923373D01*
X40643557Y-20753534D01*
X40643557Y-20753533D01*
X40727221Y-20597011D01*
X40727222Y-20597009D01*
X40756552Y-20561271D01*
X40839814Y-20459814D01*
X40941271Y-20376552D01*
X40977009Y-20347222D01*
X40994913Y-20337652D01*
X41133533Y-20263557D01*
X41190147Y-20246384D01*
X41303373Y-20212037D01*
X41369557Y-20205519D01*
X41435740Y-20199000D01*
X41524260Y-20199000D01*
X41590443Y-20205519D01*
X41590443Y-20205519D01*
G37*
G36*
X39050443Y-20205519D02*
X39116627Y-20212037D01*
X39229853Y-20246384D01*
X39286467Y-20263557D01*
X39425087Y-20337652D01*
X39442991Y-20347222D01*
X39478729Y-20376552D01*
X39580186Y-20459814D01*
X39663448Y-20561271D01*
X39692778Y-20597009D01*
X39692779Y-20597011D01*
X39776443Y-20753533D01*
X39776443Y-20753534D01*
X39827963Y-20923373D01*
X39845359Y-21100000D01*
X39827963Y-21276627D01*
X39793616Y-21389853D01*
X39776443Y-21446467D01*
X39702348Y-21585087D01*
X39692778Y-21602991D01*
X39663448Y-21638729D01*
X39580186Y-21740186D01*
X39478729Y-21823448D01*
X39442991Y-21852778D01*
X39442989Y-21852779D01*
X39286467Y-21936443D01*
X39229853Y-21953616D01*
X39116627Y-21987963D01*
X39050443Y-21994481D01*
X38984260Y-22001000D01*
X38895740Y-22001000D01*
X38829557Y-21994481D01*
X38763373Y-21987963D01*
X38650147Y-21953616D01*
X38593533Y-21936443D01*
X38437011Y-21852779D01*
X38437009Y-21852778D01*
X38401271Y-21823448D01*
X38299814Y-21740186D01*
X38216552Y-21638729D01*
X38187222Y-21602991D01*
X38177652Y-21585087D01*
X38103557Y-21446467D01*
X38086384Y-21389853D01*
X38052037Y-21276627D01*
X38034641Y-21100000D01*
X38052037Y-20923373D01*
X38103557Y-20753534D01*
X38103557Y-20753533D01*
X38187221Y-20597011D01*
X38187222Y-20597009D01*
X38216552Y-20561271D01*
X38299814Y-20459814D01*
X38401271Y-20376552D01*
X38437009Y-20347222D01*
X38454913Y-20337652D01*
X38593533Y-20263557D01*
X38650147Y-20246384D01*
X38763373Y-20212037D01*
X38829557Y-20205519D01*
X38895740Y-20199000D01*
X38984260Y-20199000D01*
X39050443Y-20205519D01*
X39050443Y-20205519D01*
G37*
G36*
X36510443Y-20205519D02*
X36576627Y-20212037D01*
X36689853Y-20246384D01*
X36746467Y-20263557D01*
X36885087Y-20337652D01*
X36902991Y-20347222D01*
X36938729Y-20376552D01*
X37040186Y-20459814D01*
X37123448Y-20561271D01*
X37152778Y-20597009D01*
X37152779Y-20597011D01*
X37236443Y-20753533D01*
X37236443Y-20753534D01*
X37287963Y-20923373D01*
X37305359Y-21100000D01*
X37287963Y-21276627D01*
X37253616Y-21389853D01*
X37236443Y-21446467D01*
X37162348Y-21585087D01*
X37152778Y-21602991D01*
X37123448Y-21638729D01*
X37040186Y-21740186D01*
X36938729Y-21823448D01*
X36902991Y-21852778D01*
X36902989Y-21852779D01*
X36746467Y-21936443D01*
X36689853Y-21953616D01*
X36576627Y-21987963D01*
X36510443Y-21994481D01*
X36444260Y-22001000D01*
X36355740Y-22001000D01*
X36289557Y-21994481D01*
X36223373Y-21987963D01*
X36110147Y-21953616D01*
X36053533Y-21936443D01*
X35897011Y-21852779D01*
X35897009Y-21852778D01*
X35861271Y-21823448D01*
X35759814Y-21740186D01*
X35676552Y-21638729D01*
X35647222Y-21602991D01*
X35637652Y-21585087D01*
X35563557Y-21446467D01*
X35546384Y-21389853D01*
X35512037Y-21276627D01*
X35494641Y-21100000D01*
X35512037Y-20923373D01*
X35563557Y-20753534D01*
X35563557Y-20753533D01*
X35647221Y-20597011D01*
X35647222Y-20597009D01*
X35676552Y-20561271D01*
X35759814Y-20459814D01*
X35861271Y-20376552D01*
X35897009Y-20347222D01*
X35914913Y-20337652D01*
X36053533Y-20263557D01*
X36110147Y-20246384D01*
X36223373Y-20212037D01*
X36289557Y-20205519D01*
X36355740Y-20199000D01*
X36444260Y-20199000D01*
X36510443Y-20205519D01*
X36510443Y-20205519D01*
G37*
G36*
X31430443Y-20205519D02*
X31496627Y-20212037D01*
X31609853Y-20246384D01*
X31666467Y-20263557D01*
X31805087Y-20337652D01*
X31822991Y-20347222D01*
X31858729Y-20376552D01*
X31960186Y-20459814D01*
X32043448Y-20561271D01*
X32072778Y-20597009D01*
X32072779Y-20597011D01*
X32156443Y-20753533D01*
X32156443Y-20753534D01*
X32207963Y-20923373D01*
X32225359Y-21100000D01*
X32207963Y-21276627D01*
X32173616Y-21389853D01*
X32156443Y-21446467D01*
X32082348Y-21585087D01*
X32072778Y-21602991D01*
X32043448Y-21638729D01*
X31960186Y-21740186D01*
X31858729Y-21823448D01*
X31822991Y-21852778D01*
X31822989Y-21852779D01*
X31666467Y-21936443D01*
X31609853Y-21953616D01*
X31496627Y-21987963D01*
X31430443Y-21994481D01*
X31364260Y-22001000D01*
X31275740Y-22001000D01*
X31209557Y-21994481D01*
X31143373Y-21987963D01*
X31030147Y-21953616D01*
X30973533Y-21936443D01*
X30817011Y-21852779D01*
X30817009Y-21852778D01*
X30781271Y-21823448D01*
X30679814Y-21740186D01*
X30596552Y-21638729D01*
X30567222Y-21602991D01*
X30557652Y-21585087D01*
X30483557Y-21446467D01*
X30466384Y-21389853D01*
X30432037Y-21276627D01*
X30414641Y-21100000D01*
X30432037Y-20923373D01*
X30483557Y-20753534D01*
X30483557Y-20753533D01*
X30567221Y-20597011D01*
X30567222Y-20597009D01*
X30596552Y-20561271D01*
X30679814Y-20459814D01*
X30781271Y-20376552D01*
X30817009Y-20347222D01*
X30834913Y-20337652D01*
X30973533Y-20263557D01*
X31030147Y-20246384D01*
X31143373Y-20212037D01*
X31209557Y-20205519D01*
X31275740Y-20199000D01*
X31364260Y-20199000D01*
X31430443Y-20205519D01*
X31430443Y-20205519D01*
G37*
G36*
X33970443Y-20205519D02*
X34036627Y-20212037D01*
X34149853Y-20246384D01*
X34206467Y-20263557D01*
X34345087Y-20337652D01*
X34362991Y-20347222D01*
X34398729Y-20376552D01*
X34500186Y-20459814D01*
X34583448Y-20561271D01*
X34612778Y-20597009D01*
X34612779Y-20597011D01*
X34696443Y-20753533D01*
X34696443Y-20753534D01*
X34747963Y-20923373D01*
X34765359Y-21100000D01*
X34747963Y-21276627D01*
X34713616Y-21389853D01*
X34696443Y-21446467D01*
X34622348Y-21585087D01*
X34612778Y-21602991D01*
X34583448Y-21638729D01*
X34500186Y-21740186D01*
X34398729Y-21823448D01*
X34362991Y-21852778D01*
X34362989Y-21852779D01*
X34206467Y-21936443D01*
X34149853Y-21953616D01*
X34036627Y-21987963D01*
X33970443Y-21994481D01*
X33904260Y-22001000D01*
X33815740Y-22001000D01*
X33749557Y-21994481D01*
X33683373Y-21987963D01*
X33570147Y-21953616D01*
X33513533Y-21936443D01*
X33357011Y-21852779D01*
X33357009Y-21852778D01*
X33321271Y-21823448D01*
X33219814Y-21740186D01*
X33136552Y-21638729D01*
X33107222Y-21602991D01*
X33097652Y-21585087D01*
X33023557Y-21446467D01*
X33006384Y-21389853D01*
X32972037Y-21276627D01*
X32954641Y-21100000D01*
X32972037Y-20923373D01*
X33023557Y-20753534D01*
X33023557Y-20753533D01*
X33107221Y-20597011D01*
X33107222Y-20597009D01*
X33136552Y-20561271D01*
X33219814Y-20459814D01*
X33321271Y-20376552D01*
X33357009Y-20347222D01*
X33374913Y-20337652D01*
X33513533Y-20263557D01*
X33570147Y-20246384D01*
X33683373Y-20212037D01*
X33749557Y-20205519D01*
X33815740Y-20199000D01*
X33904260Y-20199000D01*
X33970443Y-20205519D01*
X33970443Y-20205519D01*
G37*
M02*
