G04 #@! TF.GenerationSoftware,KiCad,Pcbnew,5.1.2*
G04 #@! TF.CreationDate,2019-07-24T10:07:33+02:00*
G04 #@! TF.ProjectId,OtterPill,4f747465-7250-4696-9c6c-2e6b69636164,rev?*
G04 #@! TF.SameCoordinates,Original*
G04 #@! TF.FileFunction,Soldermask,Top*
G04 #@! TF.FilePolarity,Negative*
%FSLAX46Y46*%
G04 Gerber Fmt 4.6, Leading zero omitted, Abs format (unit mm)*
G04 Created by KiCad (PCBNEW 5.1.2) date 2019-07-24 10:07:33*
%MOMM*%
%LPD*%
G04 APERTURE LIST*
%ADD10C,0.050000*%
%ADD11C,0.100000*%
G04 APERTURE END LIST*
D10*
X63200000Y-37100000D02*
G75*
G02X62900000Y-37400000I-300000J0D01*
G01*
X62900000Y-19800000D02*
G75*
G02X63200000Y-20100000I0J-300000D01*
G01*
X20000000Y-20100000D02*
G75*
G02X20300000Y-19800000I300000J0D01*
G01*
X20300000Y-37400000D02*
G75*
G02X20000000Y-37100000I0J300000D01*
G01*
X20000000Y-37100000D02*
X20000000Y-20100000D01*
X62900000Y-37400000D02*
X20300000Y-37400000D01*
X63200000Y-20100000D02*
X63200000Y-37100000D01*
X20300000Y-19800000D02*
X62900000Y-19800000D01*
D11*
G36*
X36510443Y-35205519D02*
G01*
X36576627Y-35212037D01*
X36746466Y-35263557D01*
X36902991Y-35347222D01*
X36938729Y-35376552D01*
X37040186Y-35459814D01*
X37123448Y-35561271D01*
X37152778Y-35597009D01*
X37236443Y-35753534D01*
X37287963Y-35923373D01*
X37305359Y-36100000D01*
X37287963Y-36276627D01*
X37236443Y-36446466D01*
X37152778Y-36602991D01*
X37123448Y-36638729D01*
X37040186Y-36740186D01*
X36938729Y-36823448D01*
X36902991Y-36852778D01*
X36746466Y-36936443D01*
X36576627Y-36987963D01*
X36510443Y-36994481D01*
X36444260Y-37001000D01*
X36355740Y-37001000D01*
X36289557Y-36994481D01*
X36223373Y-36987963D01*
X36053534Y-36936443D01*
X35897009Y-36852778D01*
X35861271Y-36823448D01*
X35759814Y-36740186D01*
X35676552Y-36638729D01*
X35647222Y-36602991D01*
X35563557Y-36446466D01*
X35512037Y-36276627D01*
X35494641Y-36100000D01*
X35512037Y-35923373D01*
X35563557Y-35753534D01*
X35647222Y-35597009D01*
X35676552Y-35561271D01*
X35759814Y-35459814D01*
X35861271Y-35376552D01*
X35897009Y-35347222D01*
X36053534Y-35263557D01*
X36223373Y-35212037D01*
X36289557Y-35205519D01*
X36355740Y-35199000D01*
X36444260Y-35199000D01*
X36510443Y-35205519D01*
X36510443Y-35205519D01*
G37*
G36*
X41590443Y-35205519D02*
G01*
X41656627Y-35212037D01*
X41826466Y-35263557D01*
X41982991Y-35347222D01*
X42018729Y-35376552D01*
X42120186Y-35459814D01*
X42203448Y-35561271D01*
X42232778Y-35597009D01*
X42316443Y-35753534D01*
X42367963Y-35923373D01*
X42385359Y-36100000D01*
X42367963Y-36276627D01*
X42316443Y-36446466D01*
X42232778Y-36602991D01*
X42203448Y-36638729D01*
X42120186Y-36740186D01*
X42018729Y-36823448D01*
X41982991Y-36852778D01*
X41826466Y-36936443D01*
X41656627Y-36987963D01*
X41590443Y-36994481D01*
X41524260Y-37001000D01*
X41435740Y-37001000D01*
X41369557Y-36994481D01*
X41303373Y-36987963D01*
X41133534Y-36936443D01*
X40977009Y-36852778D01*
X40941271Y-36823448D01*
X40839814Y-36740186D01*
X40756552Y-36638729D01*
X40727222Y-36602991D01*
X40643557Y-36446466D01*
X40592037Y-36276627D01*
X40574641Y-36100000D01*
X40592037Y-35923373D01*
X40643557Y-35753534D01*
X40727222Y-35597009D01*
X40756552Y-35561271D01*
X40839814Y-35459814D01*
X40941271Y-35376552D01*
X40977009Y-35347222D01*
X41133534Y-35263557D01*
X41303373Y-35212037D01*
X41369557Y-35205519D01*
X41435740Y-35199000D01*
X41524260Y-35199000D01*
X41590443Y-35205519D01*
X41590443Y-35205519D01*
G37*
G36*
X24601000Y-37001000D02*
G01*
X22799000Y-37001000D01*
X22799000Y-35199000D01*
X24601000Y-35199000D01*
X24601000Y-37001000D01*
X24601000Y-37001000D01*
G37*
G36*
X26350443Y-35205519D02*
G01*
X26416627Y-35212037D01*
X26586466Y-35263557D01*
X26742991Y-35347222D01*
X26778729Y-35376552D01*
X26880186Y-35459814D01*
X26963448Y-35561271D01*
X26992778Y-35597009D01*
X27076443Y-35753534D01*
X27127963Y-35923373D01*
X27145359Y-36100000D01*
X27127963Y-36276627D01*
X27076443Y-36446466D01*
X26992778Y-36602991D01*
X26963448Y-36638729D01*
X26880186Y-36740186D01*
X26778729Y-36823448D01*
X26742991Y-36852778D01*
X26586466Y-36936443D01*
X26416627Y-36987963D01*
X26350443Y-36994481D01*
X26284260Y-37001000D01*
X26195740Y-37001000D01*
X26129557Y-36994481D01*
X26063373Y-36987963D01*
X25893534Y-36936443D01*
X25737009Y-36852778D01*
X25701271Y-36823448D01*
X25599814Y-36740186D01*
X25516552Y-36638729D01*
X25487222Y-36602991D01*
X25403557Y-36446466D01*
X25352037Y-36276627D01*
X25334641Y-36100000D01*
X25352037Y-35923373D01*
X25403557Y-35753534D01*
X25487222Y-35597009D01*
X25516552Y-35561271D01*
X25599814Y-35459814D01*
X25701271Y-35376552D01*
X25737009Y-35347222D01*
X25893534Y-35263557D01*
X26063373Y-35212037D01*
X26129557Y-35205519D01*
X26195740Y-35199000D01*
X26284260Y-35199000D01*
X26350443Y-35205519D01*
X26350443Y-35205519D01*
G37*
G36*
X28890443Y-35205519D02*
G01*
X28956627Y-35212037D01*
X29126466Y-35263557D01*
X29282991Y-35347222D01*
X29318729Y-35376552D01*
X29420186Y-35459814D01*
X29503448Y-35561271D01*
X29532778Y-35597009D01*
X29616443Y-35753534D01*
X29667963Y-35923373D01*
X29685359Y-36100000D01*
X29667963Y-36276627D01*
X29616443Y-36446466D01*
X29532778Y-36602991D01*
X29503448Y-36638729D01*
X29420186Y-36740186D01*
X29318729Y-36823448D01*
X29282991Y-36852778D01*
X29126466Y-36936443D01*
X28956627Y-36987963D01*
X28890443Y-36994481D01*
X28824260Y-37001000D01*
X28735740Y-37001000D01*
X28669557Y-36994481D01*
X28603373Y-36987963D01*
X28433534Y-36936443D01*
X28277009Y-36852778D01*
X28241271Y-36823448D01*
X28139814Y-36740186D01*
X28056552Y-36638729D01*
X28027222Y-36602991D01*
X27943557Y-36446466D01*
X27892037Y-36276627D01*
X27874641Y-36100000D01*
X27892037Y-35923373D01*
X27943557Y-35753534D01*
X28027222Y-35597009D01*
X28056552Y-35561271D01*
X28139814Y-35459814D01*
X28241271Y-35376552D01*
X28277009Y-35347222D01*
X28433534Y-35263557D01*
X28603373Y-35212037D01*
X28669557Y-35205519D01*
X28735740Y-35199000D01*
X28824260Y-35199000D01*
X28890443Y-35205519D01*
X28890443Y-35205519D01*
G37*
G36*
X31430443Y-35205519D02*
G01*
X31496627Y-35212037D01*
X31666466Y-35263557D01*
X31822991Y-35347222D01*
X31858729Y-35376552D01*
X31960186Y-35459814D01*
X32043448Y-35561271D01*
X32072778Y-35597009D01*
X32156443Y-35753534D01*
X32207963Y-35923373D01*
X32225359Y-36100000D01*
X32207963Y-36276627D01*
X32156443Y-36446466D01*
X32072778Y-36602991D01*
X32043448Y-36638729D01*
X31960186Y-36740186D01*
X31858729Y-36823448D01*
X31822991Y-36852778D01*
X31666466Y-36936443D01*
X31496627Y-36987963D01*
X31430443Y-36994481D01*
X31364260Y-37001000D01*
X31275740Y-37001000D01*
X31209557Y-36994481D01*
X31143373Y-36987963D01*
X30973534Y-36936443D01*
X30817009Y-36852778D01*
X30781271Y-36823448D01*
X30679814Y-36740186D01*
X30596552Y-36638729D01*
X30567222Y-36602991D01*
X30483557Y-36446466D01*
X30432037Y-36276627D01*
X30414641Y-36100000D01*
X30432037Y-35923373D01*
X30483557Y-35753534D01*
X30567222Y-35597009D01*
X30596552Y-35561271D01*
X30679814Y-35459814D01*
X30781271Y-35376552D01*
X30817009Y-35347222D01*
X30973534Y-35263557D01*
X31143373Y-35212037D01*
X31209557Y-35205519D01*
X31275740Y-35199000D01*
X31364260Y-35199000D01*
X31430443Y-35205519D01*
X31430443Y-35205519D01*
G37*
G36*
X33970443Y-35205519D02*
G01*
X34036627Y-35212037D01*
X34206466Y-35263557D01*
X34362991Y-35347222D01*
X34398729Y-35376552D01*
X34500186Y-35459814D01*
X34583448Y-35561271D01*
X34612778Y-35597009D01*
X34696443Y-35753534D01*
X34747963Y-35923373D01*
X34765359Y-36100000D01*
X34747963Y-36276627D01*
X34696443Y-36446466D01*
X34612778Y-36602991D01*
X34583448Y-36638729D01*
X34500186Y-36740186D01*
X34398729Y-36823448D01*
X34362991Y-36852778D01*
X34206466Y-36936443D01*
X34036627Y-36987963D01*
X33970443Y-36994481D01*
X33904260Y-37001000D01*
X33815740Y-37001000D01*
X33749557Y-36994481D01*
X33683373Y-36987963D01*
X33513534Y-36936443D01*
X33357009Y-36852778D01*
X33321271Y-36823448D01*
X33219814Y-36740186D01*
X33136552Y-36638729D01*
X33107222Y-36602991D01*
X33023557Y-36446466D01*
X32972037Y-36276627D01*
X32954641Y-36100000D01*
X32972037Y-35923373D01*
X33023557Y-35753534D01*
X33107222Y-35597009D01*
X33136552Y-35561271D01*
X33219814Y-35459814D01*
X33321271Y-35376552D01*
X33357009Y-35347222D01*
X33513534Y-35263557D01*
X33683373Y-35212037D01*
X33749557Y-35205519D01*
X33815740Y-35199000D01*
X33904260Y-35199000D01*
X33970443Y-35205519D01*
X33970443Y-35205519D01*
G37*
G36*
X39050443Y-35205519D02*
G01*
X39116627Y-35212037D01*
X39286466Y-35263557D01*
X39442991Y-35347222D01*
X39478729Y-35376552D01*
X39580186Y-35459814D01*
X39663448Y-35561271D01*
X39692778Y-35597009D01*
X39776443Y-35753534D01*
X39827963Y-35923373D01*
X39845359Y-36100000D01*
X39827963Y-36276627D01*
X39776443Y-36446466D01*
X39692778Y-36602991D01*
X39663448Y-36638729D01*
X39580186Y-36740186D01*
X39478729Y-36823448D01*
X39442991Y-36852778D01*
X39286466Y-36936443D01*
X39116627Y-36987963D01*
X39050443Y-36994481D01*
X38984260Y-37001000D01*
X38895740Y-37001000D01*
X38829557Y-36994481D01*
X38763373Y-36987963D01*
X38593534Y-36936443D01*
X38437009Y-36852778D01*
X38401271Y-36823448D01*
X38299814Y-36740186D01*
X38216552Y-36638729D01*
X38187222Y-36602991D01*
X38103557Y-36446466D01*
X38052037Y-36276627D01*
X38034641Y-36100000D01*
X38052037Y-35923373D01*
X38103557Y-35753534D01*
X38187222Y-35597009D01*
X38216552Y-35561271D01*
X38299814Y-35459814D01*
X38401271Y-35376552D01*
X38437009Y-35347222D01*
X38593534Y-35263557D01*
X38763373Y-35212037D01*
X38829557Y-35205519D01*
X38895740Y-35199000D01*
X38984260Y-35199000D01*
X39050443Y-35205519D01*
X39050443Y-35205519D01*
G37*
G36*
X44130443Y-35205519D02*
G01*
X44196627Y-35212037D01*
X44366466Y-35263557D01*
X44522991Y-35347222D01*
X44558729Y-35376552D01*
X44660186Y-35459814D01*
X44743448Y-35561271D01*
X44772778Y-35597009D01*
X44856443Y-35753534D01*
X44907963Y-35923373D01*
X44925359Y-36100000D01*
X44907963Y-36276627D01*
X44856443Y-36446466D01*
X44772778Y-36602991D01*
X44743448Y-36638729D01*
X44660186Y-36740186D01*
X44558729Y-36823448D01*
X44522991Y-36852778D01*
X44366466Y-36936443D01*
X44196627Y-36987963D01*
X44130443Y-36994481D01*
X44064260Y-37001000D01*
X43975740Y-37001000D01*
X43909557Y-36994481D01*
X43843373Y-36987963D01*
X43673534Y-36936443D01*
X43517009Y-36852778D01*
X43481271Y-36823448D01*
X43379814Y-36740186D01*
X43296552Y-36638729D01*
X43267222Y-36602991D01*
X43183557Y-36446466D01*
X43132037Y-36276627D01*
X43114641Y-36100000D01*
X43132037Y-35923373D01*
X43183557Y-35753534D01*
X43267222Y-35597009D01*
X43296552Y-35561271D01*
X43379814Y-35459814D01*
X43481271Y-35376552D01*
X43517009Y-35347222D01*
X43673534Y-35263557D01*
X43843373Y-35212037D01*
X43909557Y-35205519D01*
X43975740Y-35199000D01*
X44064260Y-35199000D01*
X44130443Y-35205519D01*
X44130443Y-35205519D01*
G37*
G36*
X46670443Y-35205519D02*
G01*
X46736627Y-35212037D01*
X46906466Y-35263557D01*
X47062991Y-35347222D01*
X47098729Y-35376552D01*
X47200186Y-35459814D01*
X47283448Y-35561271D01*
X47312778Y-35597009D01*
X47396443Y-35753534D01*
X47447963Y-35923373D01*
X47465359Y-36100000D01*
X47447963Y-36276627D01*
X47396443Y-36446466D01*
X47312778Y-36602991D01*
X47283448Y-36638729D01*
X47200186Y-36740186D01*
X47098729Y-36823448D01*
X47062991Y-36852778D01*
X46906466Y-36936443D01*
X46736627Y-36987963D01*
X46670443Y-36994481D01*
X46604260Y-37001000D01*
X46515740Y-37001000D01*
X46449557Y-36994481D01*
X46383373Y-36987963D01*
X46213534Y-36936443D01*
X46057009Y-36852778D01*
X46021271Y-36823448D01*
X45919814Y-36740186D01*
X45836552Y-36638729D01*
X45807222Y-36602991D01*
X45723557Y-36446466D01*
X45672037Y-36276627D01*
X45654641Y-36100000D01*
X45672037Y-35923373D01*
X45723557Y-35753534D01*
X45807222Y-35597009D01*
X45836552Y-35561271D01*
X45919814Y-35459814D01*
X46021271Y-35376552D01*
X46057009Y-35347222D01*
X46213534Y-35263557D01*
X46383373Y-35212037D01*
X46449557Y-35205519D01*
X46515740Y-35199000D01*
X46604260Y-35199000D01*
X46670443Y-35205519D01*
X46670443Y-35205519D01*
G37*
G36*
X49210443Y-35205519D02*
G01*
X49276627Y-35212037D01*
X49446466Y-35263557D01*
X49602991Y-35347222D01*
X49638729Y-35376552D01*
X49740186Y-35459814D01*
X49823448Y-35561271D01*
X49852778Y-35597009D01*
X49936443Y-35753534D01*
X49987963Y-35923373D01*
X50005359Y-36100000D01*
X49987963Y-36276627D01*
X49936443Y-36446466D01*
X49852778Y-36602991D01*
X49823448Y-36638729D01*
X49740186Y-36740186D01*
X49638729Y-36823448D01*
X49602991Y-36852778D01*
X49446466Y-36936443D01*
X49276627Y-36987963D01*
X49210443Y-36994481D01*
X49144260Y-37001000D01*
X49055740Y-37001000D01*
X48989557Y-36994481D01*
X48923373Y-36987963D01*
X48753534Y-36936443D01*
X48597009Y-36852778D01*
X48561271Y-36823448D01*
X48459814Y-36740186D01*
X48376552Y-36638729D01*
X48347222Y-36602991D01*
X48263557Y-36446466D01*
X48212037Y-36276627D01*
X48194641Y-36100000D01*
X48212037Y-35923373D01*
X48263557Y-35753534D01*
X48347222Y-35597009D01*
X48376552Y-35561271D01*
X48459814Y-35459814D01*
X48561271Y-35376552D01*
X48597009Y-35347222D01*
X48753534Y-35263557D01*
X48923373Y-35212037D01*
X48989557Y-35205519D01*
X49055740Y-35199000D01*
X49144260Y-35199000D01*
X49210443Y-35205519D01*
X49210443Y-35205519D01*
G37*
G36*
X51750443Y-35205519D02*
G01*
X51816627Y-35212037D01*
X51986466Y-35263557D01*
X52142991Y-35347222D01*
X52178729Y-35376552D01*
X52280186Y-35459814D01*
X52363448Y-35561271D01*
X52392778Y-35597009D01*
X52476443Y-35753534D01*
X52527963Y-35923373D01*
X52545359Y-36100000D01*
X52527963Y-36276627D01*
X52476443Y-36446466D01*
X52392778Y-36602991D01*
X52363448Y-36638729D01*
X52280186Y-36740186D01*
X52178729Y-36823448D01*
X52142991Y-36852778D01*
X51986466Y-36936443D01*
X51816627Y-36987963D01*
X51750443Y-36994481D01*
X51684260Y-37001000D01*
X51595740Y-37001000D01*
X51529557Y-36994481D01*
X51463373Y-36987963D01*
X51293534Y-36936443D01*
X51137009Y-36852778D01*
X51101271Y-36823448D01*
X50999814Y-36740186D01*
X50916552Y-36638729D01*
X50887222Y-36602991D01*
X50803557Y-36446466D01*
X50752037Y-36276627D01*
X50734641Y-36100000D01*
X50752037Y-35923373D01*
X50803557Y-35753534D01*
X50887222Y-35597009D01*
X50916552Y-35561271D01*
X50999814Y-35459814D01*
X51101271Y-35376552D01*
X51137009Y-35347222D01*
X51293534Y-35263557D01*
X51463373Y-35212037D01*
X51529557Y-35205519D01*
X51595740Y-35199000D01*
X51684260Y-35199000D01*
X51750443Y-35205519D01*
X51750443Y-35205519D01*
G37*
G36*
X54290443Y-35205519D02*
G01*
X54356627Y-35212037D01*
X54526466Y-35263557D01*
X54682991Y-35347222D01*
X54718729Y-35376552D01*
X54820186Y-35459814D01*
X54903448Y-35561271D01*
X54932778Y-35597009D01*
X55016443Y-35753534D01*
X55067963Y-35923373D01*
X55085359Y-36100000D01*
X55067963Y-36276627D01*
X55016443Y-36446466D01*
X54932778Y-36602991D01*
X54903448Y-36638729D01*
X54820186Y-36740186D01*
X54718729Y-36823448D01*
X54682991Y-36852778D01*
X54526466Y-36936443D01*
X54356627Y-36987963D01*
X54290443Y-36994481D01*
X54224260Y-37001000D01*
X54135740Y-37001000D01*
X54069557Y-36994481D01*
X54003373Y-36987963D01*
X53833534Y-36936443D01*
X53677009Y-36852778D01*
X53641271Y-36823448D01*
X53539814Y-36740186D01*
X53456552Y-36638729D01*
X53427222Y-36602991D01*
X53343557Y-36446466D01*
X53292037Y-36276627D01*
X53274641Y-36100000D01*
X53292037Y-35923373D01*
X53343557Y-35753534D01*
X53427222Y-35597009D01*
X53456552Y-35561271D01*
X53539814Y-35459814D01*
X53641271Y-35376552D01*
X53677009Y-35347222D01*
X53833534Y-35263557D01*
X54003373Y-35212037D01*
X54069557Y-35205519D01*
X54135740Y-35199000D01*
X54224260Y-35199000D01*
X54290443Y-35205519D01*
X54290443Y-35205519D01*
G37*
G36*
X56830443Y-35205519D02*
G01*
X56896627Y-35212037D01*
X57066466Y-35263557D01*
X57222991Y-35347222D01*
X57258729Y-35376552D01*
X57360186Y-35459814D01*
X57443448Y-35561271D01*
X57472778Y-35597009D01*
X57556443Y-35753534D01*
X57607963Y-35923373D01*
X57625359Y-36100000D01*
X57607963Y-36276627D01*
X57556443Y-36446466D01*
X57472778Y-36602991D01*
X57443448Y-36638729D01*
X57360186Y-36740186D01*
X57258729Y-36823448D01*
X57222991Y-36852778D01*
X57066466Y-36936443D01*
X56896627Y-36987963D01*
X56830443Y-36994481D01*
X56764260Y-37001000D01*
X56675740Y-37001000D01*
X56609557Y-36994481D01*
X56543373Y-36987963D01*
X56373534Y-36936443D01*
X56217009Y-36852778D01*
X56181271Y-36823448D01*
X56079814Y-36740186D01*
X55996552Y-36638729D01*
X55967222Y-36602991D01*
X55883557Y-36446466D01*
X55832037Y-36276627D01*
X55814641Y-36100000D01*
X55832037Y-35923373D01*
X55883557Y-35753534D01*
X55967222Y-35597009D01*
X55996552Y-35561271D01*
X56079814Y-35459814D01*
X56181271Y-35376552D01*
X56217009Y-35347222D01*
X56373534Y-35263557D01*
X56543373Y-35212037D01*
X56609557Y-35205519D01*
X56675740Y-35199000D01*
X56764260Y-35199000D01*
X56830443Y-35205519D01*
X56830443Y-35205519D01*
G37*
G36*
X59370443Y-35205519D02*
G01*
X59436627Y-35212037D01*
X59606466Y-35263557D01*
X59762991Y-35347222D01*
X59798729Y-35376552D01*
X59900186Y-35459814D01*
X59983448Y-35561271D01*
X60012778Y-35597009D01*
X60096443Y-35753534D01*
X60147963Y-35923373D01*
X60165359Y-36100000D01*
X60147963Y-36276627D01*
X60096443Y-36446466D01*
X60012778Y-36602991D01*
X59983448Y-36638729D01*
X59900186Y-36740186D01*
X59798729Y-36823448D01*
X59762991Y-36852778D01*
X59606466Y-36936443D01*
X59436627Y-36987963D01*
X59370443Y-36994481D01*
X59304260Y-37001000D01*
X59215740Y-37001000D01*
X59149557Y-36994481D01*
X59083373Y-36987963D01*
X58913534Y-36936443D01*
X58757009Y-36852778D01*
X58721271Y-36823448D01*
X58619814Y-36740186D01*
X58536552Y-36638729D01*
X58507222Y-36602991D01*
X58423557Y-36446466D01*
X58372037Y-36276627D01*
X58354641Y-36100000D01*
X58372037Y-35923373D01*
X58423557Y-35753534D01*
X58507222Y-35597009D01*
X58536552Y-35561271D01*
X58619814Y-35459814D01*
X58721271Y-35376552D01*
X58757009Y-35347222D01*
X58913534Y-35263557D01*
X59083373Y-35212037D01*
X59149557Y-35205519D01*
X59215740Y-35199000D01*
X59304260Y-35199000D01*
X59370443Y-35205519D01*
X59370443Y-35205519D01*
G37*
G36*
X41725010Y-33727385D02*
G01*
X41745629Y-33733640D01*
X41764625Y-33743793D01*
X41786046Y-33761373D01*
X42110415Y-34085742D01*
X42127995Y-34107163D01*
X42138148Y-34126159D01*
X42144403Y-34146778D01*
X42146514Y-34168216D01*
X42144403Y-34189654D01*
X42138148Y-34210273D01*
X42127995Y-34229269D01*
X42110415Y-34250690D01*
X41750690Y-34610415D01*
X41729269Y-34627995D01*
X41710273Y-34638148D01*
X41689654Y-34644403D01*
X41668216Y-34646514D01*
X41646778Y-34644403D01*
X41626159Y-34638148D01*
X41607163Y-34627995D01*
X41585742Y-34610415D01*
X41261373Y-34286046D01*
X41243793Y-34264625D01*
X41233640Y-34245629D01*
X41227385Y-34225010D01*
X41225274Y-34203572D01*
X41227385Y-34182134D01*
X41233640Y-34161515D01*
X41243793Y-34142519D01*
X41261373Y-34121098D01*
X41621098Y-33761373D01*
X41642519Y-33743793D01*
X41661515Y-33733640D01*
X41682134Y-33727385D01*
X41703572Y-33725274D01*
X41725010Y-33727385D01*
X41725010Y-33727385D01*
G37*
G36*
X29629591Y-33078085D02*
G01*
X29663569Y-33088393D01*
X29694890Y-33105134D01*
X29722339Y-33127661D01*
X29744866Y-33155110D01*
X29761607Y-33186431D01*
X29771915Y-33220409D01*
X29776000Y-33261890D01*
X29776000Y-33938110D01*
X29771915Y-33979591D01*
X29761607Y-34013569D01*
X29744866Y-34044890D01*
X29722339Y-34072339D01*
X29694890Y-34094866D01*
X29663569Y-34111607D01*
X29629591Y-34121915D01*
X29588110Y-34126000D01*
X28986890Y-34126000D01*
X28945409Y-34121915D01*
X28911431Y-34111607D01*
X28880110Y-34094866D01*
X28852661Y-34072339D01*
X28830134Y-34044890D01*
X28813393Y-34013569D01*
X28803085Y-33979591D01*
X28799000Y-33938110D01*
X28799000Y-33261890D01*
X28803085Y-33220409D01*
X28813393Y-33186431D01*
X28830134Y-33155110D01*
X28852661Y-33127661D01*
X28880110Y-33105134D01*
X28911431Y-33088393D01*
X28945409Y-33078085D01*
X28986890Y-33074000D01*
X29588110Y-33074000D01*
X29629591Y-33078085D01*
X29629591Y-33078085D01*
G37*
G36*
X28054591Y-33078085D02*
G01*
X28088569Y-33088393D01*
X28119890Y-33105134D01*
X28147339Y-33127661D01*
X28169866Y-33155110D01*
X28186607Y-33186431D01*
X28196915Y-33220409D01*
X28201000Y-33261890D01*
X28201000Y-33938110D01*
X28196915Y-33979591D01*
X28186607Y-34013569D01*
X28169866Y-34044890D01*
X28147339Y-34072339D01*
X28119890Y-34094866D01*
X28088569Y-34111607D01*
X28054591Y-34121915D01*
X28013110Y-34126000D01*
X27411890Y-34126000D01*
X27370409Y-34121915D01*
X27336431Y-34111607D01*
X27305110Y-34094866D01*
X27277661Y-34072339D01*
X27255134Y-34044890D01*
X27238393Y-34013569D01*
X27228085Y-33979591D01*
X27224000Y-33938110D01*
X27224000Y-33261890D01*
X27228085Y-33220409D01*
X27238393Y-33186431D01*
X27255134Y-33155110D01*
X27277661Y-33127661D01*
X27305110Y-33105134D01*
X27336431Y-33088393D01*
X27370409Y-33078085D01*
X27411890Y-33074000D01*
X28013110Y-33074000D01*
X28054591Y-33078085D01*
X28054591Y-33078085D01*
G37*
G36*
X57351000Y-33963000D02*
G01*
X56199000Y-33963000D01*
X56199000Y-33211000D01*
X57351000Y-33211000D01*
X57351000Y-33963000D01*
X57351000Y-33963000D01*
G37*
G36*
X53201000Y-33963000D02*
G01*
X52049000Y-33963000D01*
X52049000Y-33211000D01*
X53201000Y-33211000D01*
X53201000Y-33963000D01*
X53201000Y-33963000D01*
G37*
G36*
X41039116Y-33041491D02*
G01*
X41059735Y-33047746D01*
X41078731Y-33057899D01*
X41100152Y-33075479D01*
X41424521Y-33399848D01*
X41442101Y-33421269D01*
X41452254Y-33440265D01*
X41458509Y-33460884D01*
X41460620Y-33482322D01*
X41458509Y-33503760D01*
X41452254Y-33524379D01*
X41442101Y-33543375D01*
X41424521Y-33564796D01*
X41064796Y-33924521D01*
X41043375Y-33942101D01*
X41024379Y-33952254D01*
X41003760Y-33958509D01*
X40982322Y-33960620D01*
X40960884Y-33958509D01*
X40940265Y-33952254D01*
X40921269Y-33942101D01*
X40899848Y-33924521D01*
X40575479Y-33600152D01*
X40557899Y-33578731D01*
X40547746Y-33559735D01*
X40541491Y-33539116D01*
X40539380Y-33517678D01*
X40541491Y-33496240D01*
X40547746Y-33475621D01*
X40557899Y-33456625D01*
X40575479Y-33435204D01*
X40935204Y-33075479D01*
X40956625Y-33057899D01*
X40975621Y-33047746D01*
X40996240Y-33041491D01*
X41017678Y-33039380D01*
X41039116Y-33041491D01*
X41039116Y-33041491D01*
G37*
G36*
X51281938Y-33241716D02*
G01*
X51302557Y-33247971D01*
X51321553Y-33258124D01*
X51338208Y-33271792D01*
X51351876Y-33288447D01*
X51362029Y-33307443D01*
X51368284Y-33328062D01*
X51371000Y-33355640D01*
X51371000Y-33814360D01*
X51368284Y-33841938D01*
X51362029Y-33862557D01*
X51351876Y-33881553D01*
X51338208Y-33898208D01*
X51321553Y-33911876D01*
X51302557Y-33922029D01*
X51281938Y-33928284D01*
X51254360Y-33931000D01*
X50745640Y-33931000D01*
X50718062Y-33928284D01*
X50697443Y-33922029D01*
X50678447Y-33911876D01*
X50661792Y-33898208D01*
X50648124Y-33881553D01*
X50637971Y-33862557D01*
X50631716Y-33841938D01*
X50629000Y-33814360D01*
X50629000Y-33355640D01*
X50631716Y-33328062D01*
X50637971Y-33307443D01*
X50648124Y-33288447D01*
X50661792Y-33271792D01*
X50678447Y-33258124D01*
X50697443Y-33247971D01*
X50718062Y-33241716D01*
X50745640Y-33239000D01*
X51254360Y-33239000D01*
X51281938Y-33241716D01*
X51281938Y-33241716D01*
G37*
G36*
X21683014Y-32346973D02*
G01*
X21786878Y-32378479D01*
X21800275Y-32385640D01*
X21882599Y-32429643D01*
X21966500Y-32498499D01*
X22035356Y-32582400D01*
X22069685Y-32646625D01*
X22086520Y-32678121D01*
X22118026Y-32781985D01*
X22128665Y-32890000D01*
X22118026Y-32998015D01*
X22086520Y-33101879D01*
X22079103Y-33115755D01*
X22035356Y-33197600D01*
X21966500Y-33281501D01*
X21882599Y-33350357D01*
X21843978Y-33371000D01*
X21786878Y-33401521D01*
X21683014Y-33433027D01*
X21602066Y-33441000D01*
X20947932Y-33441000D01*
X20866984Y-33433027D01*
X20763120Y-33401521D01*
X20706020Y-33371000D01*
X20667399Y-33350357D01*
X20583498Y-33281501D01*
X20514642Y-33197600D01*
X20470895Y-33115755D01*
X20463478Y-33101879D01*
X20431972Y-32998015D01*
X20421333Y-32890000D01*
X20431972Y-32781985D01*
X20463478Y-32678121D01*
X20480313Y-32646625D01*
X20514642Y-32582400D01*
X20583498Y-32498499D01*
X20667399Y-32429643D01*
X20749723Y-32385640D01*
X20763120Y-32378479D01*
X20866984Y-32346973D01*
X20947932Y-32339000D01*
X21602066Y-32339000D01*
X21683014Y-32346973D01*
X21683014Y-32346973D01*
G37*
G36*
X26113014Y-23706973D02*
G01*
X26216878Y-23738479D01*
X26240303Y-23751000D01*
X26312599Y-23789643D01*
X26396500Y-23858499D01*
X26465356Y-23942400D01*
X26494710Y-23997318D01*
X26516520Y-24038121D01*
X26548026Y-24141985D01*
X26558665Y-24250000D01*
X26548026Y-24358015D01*
X26516520Y-24461879D01*
X26504382Y-24484587D01*
X26465356Y-24557600D01*
X26396500Y-24641501D01*
X26312599Y-24710357D01*
X26244592Y-24746707D01*
X26216878Y-24761521D01*
X26174461Y-24774388D01*
X26151831Y-24783762D01*
X26131457Y-24797375D01*
X26114130Y-24814702D01*
X26100516Y-24835077D01*
X26091138Y-24857716D01*
X26086358Y-24881749D01*
X26086358Y-24906253D01*
X26091138Y-24930286D01*
X26100516Y-24952925D01*
X26114129Y-24973299D01*
X26131456Y-24990626D01*
X26151831Y-25004240D01*
X26174470Y-25013618D01*
X26198503Y-25018398D01*
X26210755Y-25019000D01*
X27145999Y-25019000D01*
X27145999Y-32121000D01*
X26210755Y-32121000D01*
X26186369Y-32123402D01*
X26162920Y-32130515D01*
X26141309Y-32142066D01*
X26122367Y-32157611D01*
X26106822Y-32176553D01*
X26095271Y-32198164D01*
X26088158Y-32221613D01*
X26085756Y-32245999D01*
X26088158Y-32270385D01*
X26095271Y-32293834D01*
X26106822Y-32315445D01*
X26122367Y-32334387D01*
X26141309Y-32349932D01*
X26162920Y-32361483D01*
X26174452Y-32365609D01*
X26216878Y-32378479D01*
X26230275Y-32385640D01*
X26312599Y-32429643D01*
X26396500Y-32498499D01*
X26465356Y-32582400D01*
X26499685Y-32646625D01*
X26516520Y-32678121D01*
X26548026Y-32781985D01*
X26558665Y-32890000D01*
X26548026Y-32998015D01*
X26516520Y-33101879D01*
X26509103Y-33115755D01*
X26465356Y-33197600D01*
X26396500Y-33281501D01*
X26312599Y-33350357D01*
X26273978Y-33371000D01*
X26216878Y-33401521D01*
X26113014Y-33433027D01*
X26032066Y-33441000D01*
X24877932Y-33441000D01*
X24796984Y-33433027D01*
X24693120Y-33401521D01*
X24636020Y-33371000D01*
X24597399Y-33350357D01*
X24513498Y-33281501D01*
X24444642Y-33197600D01*
X24400895Y-33115755D01*
X24393478Y-33101879D01*
X24361972Y-32998015D01*
X24351333Y-32890000D01*
X24361972Y-32781985D01*
X24393478Y-32678121D01*
X24410313Y-32646625D01*
X24444642Y-32582400D01*
X24513498Y-32498499D01*
X24597399Y-32429643D01*
X24679723Y-32385640D01*
X24693120Y-32378479D01*
X24796984Y-32346973D01*
X24877932Y-32339000D01*
X25469000Y-32339000D01*
X25493386Y-32336598D01*
X25516835Y-32329485D01*
X25538446Y-32317934D01*
X25557388Y-32302389D01*
X25572933Y-32283447D01*
X25584484Y-32261836D01*
X25591597Y-32238387D01*
X25593999Y-32214001D01*
X25593999Y-24925999D01*
X25591597Y-24901613D01*
X25584484Y-24878164D01*
X25572933Y-24856553D01*
X25557388Y-24837611D01*
X25538446Y-24822066D01*
X25516835Y-24810515D01*
X25493386Y-24803402D01*
X25469000Y-24801000D01*
X24877932Y-24801000D01*
X24796984Y-24793027D01*
X24693120Y-24761521D01*
X24665406Y-24746707D01*
X24597399Y-24710357D01*
X24513498Y-24641501D01*
X24444642Y-24557600D01*
X24405616Y-24484587D01*
X24393478Y-24461879D01*
X24361972Y-24358015D01*
X24351333Y-24250000D01*
X24361972Y-24141985D01*
X24393478Y-24038121D01*
X24415288Y-23997318D01*
X24444642Y-23942400D01*
X24513498Y-23858499D01*
X24597399Y-23789643D01*
X24669695Y-23751000D01*
X24693120Y-23738479D01*
X24796984Y-23706973D01*
X24877932Y-23699000D01*
X26032066Y-23699000D01*
X26113014Y-23706973D01*
X26113014Y-23706973D01*
G37*
G36*
X43411962Y-23756499D02*
G01*
X43416636Y-23757917D01*
X43420938Y-23760216D01*
X43429477Y-23767224D01*
X43633638Y-23971385D01*
X43640646Y-23979924D01*
X43642945Y-23984226D01*
X43644363Y-23988900D01*
X43645171Y-23997102D01*
X43649952Y-24021136D01*
X43659330Y-24043774D01*
X43672945Y-24064148D01*
X43690272Y-24081475D01*
X43710647Y-24095088D01*
X43733286Y-24104465D01*
X43757313Y-24109244D01*
X43765515Y-24110052D01*
X43770189Y-24111470D01*
X43774491Y-24113769D01*
X43783030Y-24120777D01*
X43987191Y-24324938D01*
X43994199Y-24333477D01*
X43996498Y-24337779D01*
X43997916Y-24342453D01*
X43998724Y-24350656D01*
X44003505Y-24374689D01*
X44012883Y-24397328D01*
X44026497Y-24417702D01*
X44043825Y-24435028D01*
X44064199Y-24448642D01*
X44086838Y-24458018D01*
X44110866Y-24462798D01*
X44119069Y-24463606D01*
X44123743Y-24465024D01*
X44128045Y-24467323D01*
X44136584Y-24474331D01*
X44340745Y-24678492D01*
X44347753Y-24687031D01*
X44350052Y-24691333D01*
X44351470Y-24696007D01*
X44352278Y-24704209D01*
X44357059Y-24728243D01*
X44366437Y-24750881D01*
X44380052Y-24771255D01*
X44397379Y-24788582D01*
X44417754Y-24802195D01*
X44440393Y-24811572D01*
X44464420Y-24816351D01*
X44472622Y-24817159D01*
X44477296Y-24818577D01*
X44481598Y-24820876D01*
X44490137Y-24827884D01*
X44694298Y-25032045D01*
X44701306Y-25040584D01*
X44703605Y-25044886D01*
X44705023Y-25049560D01*
X44705831Y-25057762D01*
X44710612Y-25081796D01*
X44719990Y-25104434D01*
X44733605Y-25124808D01*
X44750932Y-25142135D01*
X44771307Y-25155748D01*
X44793946Y-25165125D01*
X44817973Y-25169904D01*
X44826175Y-25170712D01*
X44830849Y-25172130D01*
X44835151Y-25174429D01*
X44843690Y-25181437D01*
X45047851Y-25385598D01*
X45054859Y-25394137D01*
X45057158Y-25398439D01*
X45058576Y-25403113D01*
X45059384Y-25411316D01*
X45064165Y-25435349D01*
X45073543Y-25457988D01*
X45087157Y-25478362D01*
X45104485Y-25495688D01*
X45124859Y-25509302D01*
X45147498Y-25518678D01*
X45171526Y-25523458D01*
X45179729Y-25524266D01*
X45184403Y-25525684D01*
X45188705Y-25527983D01*
X45197244Y-25534991D01*
X45401405Y-25739152D01*
X45408413Y-25747691D01*
X45410712Y-25751993D01*
X45412130Y-25756667D01*
X45412938Y-25764869D01*
X45417719Y-25788903D01*
X45427097Y-25811541D01*
X45440712Y-25831915D01*
X45458039Y-25849242D01*
X45478414Y-25862855D01*
X45501053Y-25872232D01*
X45525080Y-25877011D01*
X45533282Y-25877819D01*
X45537956Y-25879237D01*
X45542258Y-25881536D01*
X45550797Y-25888544D01*
X45754958Y-26092705D01*
X45761966Y-26101244D01*
X45764265Y-26105546D01*
X45765683Y-26110220D01*
X45766491Y-26118423D01*
X45771272Y-26142456D01*
X45780650Y-26165095D01*
X45794264Y-26185469D01*
X45811592Y-26202795D01*
X45831966Y-26216409D01*
X45854605Y-26225785D01*
X45878633Y-26230565D01*
X45886836Y-26231373D01*
X45891510Y-26232791D01*
X45895812Y-26235090D01*
X45904351Y-26242098D01*
X46108512Y-26446259D01*
X46115520Y-26454798D01*
X46117819Y-26459100D01*
X46119237Y-26463774D01*
X46120045Y-26471976D01*
X46124826Y-26496010D01*
X46134204Y-26518648D01*
X46147819Y-26539022D01*
X46165146Y-26556349D01*
X46185521Y-26569962D01*
X46208160Y-26579339D01*
X46232187Y-26584118D01*
X46240389Y-26584926D01*
X46245063Y-26586344D01*
X46249365Y-26588643D01*
X46257904Y-26595651D01*
X46462065Y-26799812D01*
X46469073Y-26808351D01*
X46471372Y-26812653D01*
X46472790Y-26817327D01*
X46473598Y-26825529D01*
X46478379Y-26849563D01*
X46487757Y-26872201D01*
X46501372Y-26892575D01*
X46518699Y-26909902D01*
X46539074Y-26923515D01*
X46561713Y-26932892D01*
X46585740Y-26937671D01*
X46593942Y-26938479D01*
X46598616Y-26939897D01*
X46602918Y-26942196D01*
X46611457Y-26949204D01*
X46815618Y-27153365D01*
X46822626Y-27161904D01*
X46824925Y-27166206D01*
X46826343Y-27170880D01*
X46827151Y-27179083D01*
X46831932Y-27203116D01*
X46841310Y-27225755D01*
X46854924Y-27246129D01*
X46872252Y-27263455D01*
X46892626Y-27277069D01*
X46915265Y-27286445D01*
X46939293Y-27291225D01*
X46947496Y-27292033D01*
X46952170Y-27293451D01*
X46956472Y-27295750D01*
X46965011Y-27302758D01*
X47169172Y-27506919D01*
X47176180Y-27515458D01*
X47178479Y-27519760D01*
X47179897Y-27524434D01*
X47180705Y-27532636D01*
X47185486Y-27556670D01*
X47194864Y-27579308D01*
X47208479Y-27599682D01*
X47225806Y-27617009D01*
X47246181Y-27630622D01*
X47268820Y-27639999D01*
X47292847Y-27644778D01*
X47301049Y-27645586D01*
X47305723Y-27647004D01*
X47310025Y-27649303D01*
X47318564Y-27656311D01*
X47522725Y-27860472D01*
X47529733Y-27869011D01*
X47532032Y-27873313D01*
X47533450Y-27877987D01*
X47533928Y-27882842D01*
X47533450Y-27887697D01*
X47532032Y-27892371D01*
X47529733Y-27896673D01*
X47522725Y-27905212D01*
X46926376Y-28501561D01*
X46910831Y-28520503D01*
X46899280Y-28542114D01*
X46892167Y-28565563D01*
X46889765Y-28589949D01*
X46892167Y-28614335D01*
X46899280Y-28637784D01*
X46910831Y-28659395D01*
X46926376Y-28678337D01*
X47522725Y-29274686D01*
X47529733Y-29283225D01*
X47532032Y-29287527D01*
X47533450Y-29292201D01*
X47533928Y-29297056D01*
X47533450Y-29301911D01*
X47532032Y-29306585D01*
X47529733Y-29310887D01*
X47522725Y-29319426D01*
X47318564Y-29523587D01*
X47310025Y-29530595D01*
X47305723Y-29532894D01*
X47301049Y-29534312D01*
X47292847Y-29535120D01*
X47268813Y-29539901D01*
X47246175Y-29549279D01*
X47225801Y-29562894D01*
X47208474Y-29580221D01*
X47194861Y-29600596D01*
X47185484Y-29623235D01*
X47180705Y-29647262D01*
X47179897Y-29655464D01*
X47178479Y-29660138D01*
X47176180Y-29664440D01*
X47169174Y-29672977D01*
X46965011Y-29877140D01*
X46956472Y-29884148D01*
X46952170Y-29886447D01*
X46947496Y-29887865D01*
X46939293Y-29888673D01*
X46915260Y-29893454D01*
X46892621Y-29902832D01*
X46872247Y-29916446D01*
X46854921Y-29933774D01*
X46841307Y-29954148D01*
X46831931Y-29976787D01*
X46827151Y-30000815D01*
X46826343Y-30009018D01*
X46824925Y-30013692D01*
X46822626Y-30017994D01*
X46815618Y-30026533D01*
X46611457Y-30230694D01*
X46602918Y-30237702D01*
X46598616Y-30240001D01*
X46593942Y-30241419D01*
X46585740Y-30242227D01*
X46561706Y-30247008D01*
X46539068Y-30256386D01*
X46518694Y-30270001D01*
X46501367Y-30287328D01*
X46487754Y-30307703D01*
X46478377Y-30330342D01*
X46473598Y-30354369D01*
X46472790Y-30362571D01*
X46471372Y-30367245D01*
X46469073Y-30371547D01*
X46462065Y-30380086D01*
X46257904Y-30584247D01*
X46249365Y-30591255D01*
X46245063Y-30593554D01*
X46240389Y-30594972D01*
X46232187Y-30595780D01*
X46208153Y-30600561D01*
X46185515Y-30609939D01*
X46165141Y-30623554D01*
X46147814Y-30640881D01*
X46134201Y-30661256D01*
X46124824Y-30683895D01*
X46120045Y-30707922D01*
X46119237Y-30716124D01*
X46117819Y-30720798D01*
X46115520Y-30725100D01*
X46108512Y-30733639D01*
X45904351Y-30937800D01*
X45895812Y-30944808D01*
X45891510Y-30947107D01*
X45886836Y-30948525D01*
X45878633Y-30949333D01*
X45854600Y-30954114D01*
X45831961Y-30963492D01*
X45811587Y-30977106D01*
X45794261Y-30994434D01*
X45780647Y-31014808D01*
X45771271Y-31037447D01*
X45766491Y-31061475D01*
X45765683Y-31069678D01*
X45764265Y-31074352D01*
X45761966Y-31078654D01*
X45754958Y-31087193D01*
X45550797Y-31291354D01*
X45542258Y-31298362D01*
X45537956Y-31300661D01*
X45533282Y-31302079D01*
X45525080Y-31302887D01*
X45501046Y-31307668D01*
X45478408Y-31317046D01*
X45458034Y-31330661D01*
X45440707Y-31347988D01*
X45427094Y-31368363D01*
X45417717Y-31391002D01*
X45412938Y-31415029D01*
X45412130Y-31423231D01*
X45410712Y-31427905D01*
X45408413Y-31432207D01*
X45401405Y-31440746D01*
X45197244Y-31644907D01*
X45188705Y-31651915D01*
X45184403Y-31654214D01*
X45179729Y-31655632D01*
X45171526Y-31656440D01*
X45147493Y-31661221D01*
X45124854Y-31670599D01*
X45104480Y-31684213D01*
X45087154Y-31701541D01*
X45073540Y-31721915D01*
X45064164Y-31744554D01*
X45059384Y-31768582D01*
X45058576Y-31776785D01*
X45057158Y-31781459D01*
X45054859Y-31785761D01*
X45047851Y-31794300D01*
X44843690Y-31998461D01*
X44835151Y-32005469D01*
X44830849Y-32007768D01*
X44826175Y-32009186D01*
X44817973Y-32009994D01*
X44793939Y-32014775D01*
X44771301Y-32024153D01*
X44750927Y-32037768D01*
X44733600Y-32055095D01*
X44719987Y-32075470D01*
X44710610Y-32098109D01*
X44705831Y-32122136D01*
X44705023Y-32130338D01*
X44703605Y-32135012D01*
X44701306Y-32139314D01*
X44694298Y-32147853D01*
X44490137Y-32352014D01*
X44481598Y-32359022D01*
X44477296Y-32361321D01*
X44472622Y-32362739D01*
X44464420Y-32363547D01*
X44440386Y-32368328D01*
X44417748Y-32377706D01*
X44397374Y-32391321D01*
X44380047Y-32408648D01*
X44366434Y-32429023D01*
X44357057Y-32451662D01*
X44352278Y-32475689D01*
X44351470Y-32483891D01*
X44350052Y-32488565D01*
X44347753Y-32492867D01*
X44340745Y-32501406D01*
X44136584Y-32705567D01*
X44128045Y-32712575D01*
X44123743Y-32714874D01*
X44119069Y-32716292D01*
X44110866Y-32717100D01*
X44086833Y-32721881D01*
X44064194Y-32731259D01*
X44043820Y-32744873D01*
X44026494Y-32762201D01*
X44012880Y-32782575D01*
X44003504Y-32805214D01*
X43998724Y-32829242D01*
X43997916Y-32837445D01*
X43996498Y-32842119D01*
X43994199Y-32846421D01*
X43987191Y-32854960D01*
X43783030Y-33059121D01*
X43774491Y-33066129D01*
X43770189Y-33068428D01*
X43765515Y-33069846D01*
X43757313Y-33070654D01*
X43733279Y-33075435D01*
X43710641Y-33084813D01*
X43690267Y-33098428D01*
X43672940Y-33115755D01*
X43659327Y-33136130D01*
X43649950Y-33158769D01*
X43645171Y-33182796D01*
X43644363Y-33190998D01*
X43642945Y-33195672D01*
X43640646Y-33199974D01*
X43633638Y-33208513D01*
X43429477Y-33412674D01*
X43420938Y-33419682D01*
X43416636Y-33421981D01*
X43411962Y-33423399D01*
X43407107Y-33423877D01*
X43402252Y-33423399D01*
X43397578Y-33421981D01*
X43393276Y-33419682D01*
X43384737Y-33412674D01*
X42788388Y-32816325D01*
X42769446Y-32800780D01*
X42747835Y-32789229D01*
X42724386Y-32782116D01*
X42700000Y-32779714D01*
X42675614Y-32782116D01*
X42652165Y-32789229D01*
X42630554Y-32800780D01*
X42611612Y-32816325D01*
X42015263Y-33412674D01*
X42006724Y-33419682D01*
X42002422Y-33421981D01*
X41997748Y-33423399D01*
X41992893Y-33423877D01*
X41988038Y-33423399D01*
X41983364Y-33421981D01*
X41979062Y-33419682D01*
X41970523Y-33412674D01*
X41766362Y-33208513D01*
X41759354Y-33199974D01*
X41757055Y-33195672D01*
X41755637Y-33190998D01*
X41754829Y-33182796D01*
X41750048Y-33158762D01*
X41740670Y-33136124D01*
X41727055Y-33115750D01*
X41709728Y-33098423D01*
X41689353Y-33084810D01*
X41666714Y-33075433D01*
X41642687Y-33070654D01*
X41634485Y-33069846D01*
X41629811Y-33068428D01*
X41625509Y-33066129D01*
X41616970Y-33059121D01*
X41412809Y-32854960D01*
X41405801Y-32846421D01*
X41403502Y-32842119D01*
X41402084Y-32837445D01*
X41401276Y-32829242D01*
X41396495Y-32805209D01*
X41387117Y-32782570D01*
X41373503Y-32762196D01*
X41356175Y-32744870D01*
X41335801Y-32731256D01*
X41313162Y-32721880D01*
X41289134Y-32717100D01*
X41280931Y-32716292D01*
X41276257Y-32714874D01*
X41271955Y-32712575D01*
X41263416Y-32705567D01*
X41059255Y-32501406D01*
X41052247Y-32492867D01*
X41049948Y-32488565D01*
X41048530Y-32483891D01*
X41047722Y-32475689D01*
X41042941Y-32451655D01*
X41033563Y-32429017D01*
X41019948Y-32408643D01*
X41002621Y-32391316D01*
X40982246Y-32377703D01*
X40959607Y-32368326D01*
X40935580Y-32363547D01*
X40927378Y-32362739D01*
X40922704Y-32361321D01*
X40918402Y-32359022D01*
X40909863Y-32352014D01*
X40705702Y-32147853D01*
X40698694Y-32139314D01*
X40696395Y-32135012D01*
X40694977Y-32130338D01*
X40694169Y-32122136D01*
X40689388Y-32098102D01*
X40680010Y-32075464D01*
X40666395Y-32055090D01*
X40649068Y-32037763D01*
X40628693Y-32024150D01*
X40606054Y-32014773D01*
X40582027Y-32009994D01*
X40573825Y-32009186D01*
X40569151Y-32007768D01*
X40564849Y-32005469D01*
X40556310Y-31998461D01*
X40352149Y-31794300D01*
X40345141Y-31785761D01*
X40342842Y-31781459D01*
X40341424Y-31776785D01*
X40340616Y-31768582D01*
X40335835Y-31744549D01*
X40326457Y-31721910D01*
X40312843Y-31701536D01*
X40295515Y-31684210D01*
X40275141Y-31670596D01*
X40252502Y-31661220D01*
X40228474Y-31656440D01*
X40220271Y-31655632D01*
X40215597Y-31654214D01*
X40211295Y-31651915D01*
X40202756Y-31644907D01*
X39998595Y-31440746D01*
X39991587Y-31432207D01*
X39989288Y-31427905D01*
X39987870Y-31423231D01*
X39987062Y-31415029D01*
X39982281Y-31390995D01*
X39972903Y-31368357D01*
X39959288Y-31347983D01*
X39941961Y-31330656D01*
X39921586Y-31317043D01*
X39898947Y-31307666D01*
X39874920Y-31302887D01*
X39866718Y-31302079D01*
X39862044Y-31300661D01*
X39857742Y-31298362D01*
X39849203Y-31291354D01*
X39645042Y-31087193D01*
X39638034Y-31078654D01*
X39635735Y-31074352D01*
X39634317Y-31069678D01*
X39633509Y-31061475D01*
X39628728Y-31037442D01*
X39619350Y-31014803D01*
X39605736Y-30994429D01*
X39588408Y-30977103D01*
X39568034Y-30963489D01*
X39545395Y-30954113D01*
X39521367Y-30949333D01*
X39513164Y-30948525D01*
X39508490Y-30947107D01*
X39504188Y-30944808D01*
X39495649Y-30937800D01*
X39291488Y-30733639D01*
X39284480Y-30725100D01*
X39282181Y-30720798D01*
X39280763Y-30716124D01*
X39279955Y-30707922D01*
X39275174Y-30683888D01*
X39265796Y-30661250D01*
X39252181Y-30640876D01*
X39234854Y-30623549D01*
X39214479Y-30609936D01*
X39191840Y-30600559D01*
X39167813Y-30595780D01*
X39159611Y-30594972D01*
X39154937Y-30593554D01*
X39150635Y-30591255D01*
X39142096Y-30584247D01*
X38937935Y-30380086D01*
X38930927Y-30371547D01*
X38928628Y-30367245D01*
X38927210Y-30362571D01*
X38926402Y-30354369D01*
X38921621Y-30330335D01*
X38912243Y-30307697D01*
X38898628Y-30287323D01*
X38881301Y-30269996D01*
X38860926Y-30256383D01*
X38838287Y-30247006D01*
X38814260Y-30242227D01*
X38806058Y-30241419D01*
X38801384Y-30240001D01*
X38797082Y-30237702D01*
X38788543Y-30230694D01*
X38584382Y-30026533D01*
X38577374Y-30017994D01*
X38575075Y-30013692D01*
X38573657Y-30009018D01*
X38572849Y-30000815D01*
X38568068Y-29976782D01*
X38558690Y-29954143D01*
X38545076Y-29933769D01*
X38527748Y-29916443D01*
X38507374Y-29902829D01*
X38484735Y-29893453D01*
X38460707Y-29888673D01*
X38452504Y-29887865D01*
X38447830Y-29886447D01*
X38443528Y-29884148D01*
X38434989Y-29877140D01*
X38230826Y-29672977D01*
X38223820Y-29664440D01*
X38221521Y-29660138D01*
X38220103Y-29655464D01*
X38219295Y-29647262D01*
X38214514Y-29623228D01*
X38205136Y-29600590D01*
X38191521Y-29580216D01*
X38174194Y-29562889D01*
X38153819Y-29549276D01*
X38131180Y-29539899D01*
X38107153Y-29535120D01*
X38098951Y-29534312D01*
X38094277Y-29532894D01*
X38089975Y-29530595D01*
X38081436Y-29523587D01*
X37877275Y-29319426D01*
X37870267Y-29310887D01*
X37867968Y-29306585D01*
X37866550Y-29301911D01*
X37866072Y-29297056D01*
X37866550Y-29292201D01*
X37867968Y-29287527D01*
X37870267Y-29283225D01*
X37877275Y-29274686D01*
X38473624Y-28678337D01*
X38489169Y-28659395D01*
X38500720Y-28637784D01*
X38507833Y-28614335D01*
X38510235Y-28589949D01*
X38581261Y-28589949D01*
X38583663Y-28614335D01*
X38590776Y-28637784D01*
X38602327Y-28659395D01*
X38617872Y-28678337D01*
X38772279Y-28832744D01*
X38779287Y-28841283D01*
X38781586Y-28845585D01*
X38783004Y-28850259D01*
X38783812Y-28858461D01*
X38788593Y-28882495D01*
X38797971Y-28905133D01*
X38811586Y-28925507D01*
X38828913Y-28942834D01*
X38849288Y-28956447D01*
X38871927Y-28965824D01*
X38895954Y-28970603D01*
X38904156Y-28971411D01*
X38908830Y-28972829D01*
X38913132Y-28975128D01*
X38921671Y-28982136D01*
X39125832Y-29186297D01*
X39132840Y-29194836D01*
X39135139Y-29199138D01*
X39136557Y-29203812D01*
X39137365Y-29212015D01*
X39142146Y-29236048D01*
X39151524Y-29258687D01*
X39165138Y-29279061D01*
X39182466Y-29296387D01*
X39202840Y-29310001D01*
X39225479Y-29319377D01*
X39249507Y-29324157D01*
X39257710Y-29324965D01*
X39262384Y-29326383D01*
X39266686Y-29328682D01*
X39275225Y-29335690D01*
X39479386Y-29539851D01*
X39486394Y-29548390D01*
X39488693Y-29552692D01*
X39490111Y-29557366D01*
X39490919Y-29565568D01*
X39495700Y-29589602D01*
X39505078Y-29612240D01*
X39518693Y-29632614D01*
X39536020Y-29649941D01*
X39556395Y-29663554D01*
X39579034Y-29672931D01*
X39603061Y-29677710D01*
X39611263Y-29678518D01*
X39615937Y-29679936D01*
X39620239Y-29682235D01*
X39628778Y-29689243D01*
X39832939Y-29893404D01*
X39839947Y-29901943D01*
X39842246Y-29906245D01*
X39843664Y-29910919D01*
X39844472Y-29919121D01*
X39849253Y-29943155D01*
X39858631Y-29965793D01*
X39872246Y-29986167D01*
X39889573Y-30003494D01*
X39909948Y-30017107D01*
X39932587Y-30026484D01*
X39956614Y-30031263D01*
X39964816Y-30032071D01*
X39969490Y-30033489D01*
X39973792Y-30035788D01*
X39982331Y-30042796D01*
X40186492Y-30246957D01*
X40193500Y-30255496D01*
X40195799Y-30259798D01*
X40197217Y-30264472D01*
X40198025Y-30272675D01*
X40202806Y-30296708D01*
X40212184Y-30319347D01*
X40225798Y-30339721D01*
X40243126Y-30357047D01*
X40263500Y-30370661D01*
X40286139Y-30380037D01*
X40310167Y-30384817D01*
X40318370Y-30385625D01*
X40323044Y-30387043D01*
X40327346Y-30389342D01*
X40335885Y-30396350D01*
X40540046Y-30600511D01*
X40547054Y-30609050D01*
X40549353Y-30613352D01*
X40550771Y-30618026D01*
X40551579Y-30626228D01*
X40556360Y-30650262D01*
X40565738Y-30672900D01*
X40579353Y-30693274D01*
X40596680Y-30710601D01*
X40617055Y-30724214D01*
X40639694Y-30733591D01*
X40663721Y-30738370D01*
X40671923Y-30739178D01*
X40676597Y-30740596D01*
X40680899Y-30742895D01*
X40689438Y-30749903D01*
X40893599Y-30954064D01*
X40900607Y-30962603D01*
X40902906Y-30966905D01*
X40904324Y-30971579D01*
X40905132Y-30979782D01*
X40909913Y-31003815D01*
X40919291Y-31026454D01*
X40932905Y-31046828D01*
X40950233Y-31064154D01*
X40970607Y-31077768D01*
X40993246Y-31087144D01*
X41017274Y-31091924D01*
X41025477Y-31092732D01*
X41030151Y-31094150D01*
X41034453Y-31096449D01*
X41042992Y-31103457D01*
X41247153Y-31307618D01*
X41254161Y-31316157D01*
X41256460Y-31320459D01*
X41257878Y-31325133D01*
X41258686Y-31333335D01*
X41263467Y-31357369D01*
X41272845Y-31380007D01*
X41286460Y-31400381D01*
X41303787Y-31417708D01*
X41324162Y-31431321D01*
X41346801Y-31440698D01*
X41370828Y-31445477D01*
X41379030Y-31446285D01*
X41383704Y-31447703D01*
X41388006Y-31450002D01*
X41396545Y-31457010D01*
X41600706Y-31661171D01*
X41607714Y-31669710D01*
X41610013Y-31674012D01*
X41611431Y-31678686D01*
X41612239Y-31686888D01*
X41617020Y-31710922D01*
X41626398Y-31733560D01*
X41640013Y-31753934D01*
X41657340Y-31771261D01*
X41677715Y-31784874D01*
X41700354Y-31794251D01*
X41724381Y-31799030D01*
X41732583Y-31799838D01*
X41737257Y-31801256D01*
X41741559Y-31803555D01*
X41750098Y-31810563D01*
X41954259Y-32014724D01*
X41961267Y-32023263D01*
X41963566Y-32027565D01*
X41964984Y-32032239D01*
X41965792Y-32040442D01*
X41970573Y-32064475D01*
X41979951Y-32087114D01*
X41993565Y-32107488D01*
X42010893Y-32124814D01*
X42031267Y-32138428D01*
X42053906Y-32147804D01*
X42077934Y-32152584D01*
X42086137Y-32153392D01*
X42090811Y-32154810D01*
X42095113Y-32157109D01*
X42103652Y-32164117D01*
X42307813Y-32368278D01*
X42314821Y-32376817D01*
X42317120Y-32381119D01*
X42318538Y-32385793D01*
X42319346Y-32393995D01*
X42324127Y-32418029D01*
X42333505Y-32440667D01*
X42347120Y-32461041D01*
X42364447Y-32478368D01*
X42384822Y-32491981D01*
X42407461Y-32501358D01*
X42431488Y-32506137D01*
X42439690Y-32506945D01*
X42444364Y-32508363D01*
X42448666Y-32510662D01*
X42457205Y-32517670D01*
X42611612Y-32672077D01*
X42630554Y-32687622D01*
X42652165Y-32699173D01*
X42675614Y-32706286D01*
X42700000Y-32708688D01*
X42724386Y-32706286D01*
X42747835Y-32699173D01*
X42769446Y-32687622D01*
X42788388Y-32672077D01*
X42942795Y-32517670D01*
X42951334Y-32510662D01*
X42955636Y-32508363D01*
X42960310Y-32506945D01*
X42968512Y-32506137D01*
X42992546Y-32501356D01*
X43015184Y-32491978D01*
X43035558Y-32478363D01*
X43052885Y-32461036D01*
X43066498Y-32440661D01*
X43075875Y-32418022D01*
X43080654Y-32393995D01*
X43081462Y-32385793D01*
X43082880Y-32381119D01*
X43085179Y-32376817D01*
X43092187Y-32368278D01*
X43296348Y-32164117D01*
X43304887Y-32157109D01*
X43309189Y-32154810D01*
X43313863Y-32153392D01*
X43322066Y-32152584D01*
X43346099Y-32147803D01*
X43368738Y-32138425D01*
X43389112Y-32124811D01*
X43406438Y-32107483D01*
X43420052Y-32087109D01*
X43429428Y-32064470D01*
X43434208Y-32040442D01*
X43435016Y-32032239D01*
X43436434Y-32027565D01*
X43438733Y-32023263D01*
X43445741Y-32014724D01*
X43649902Y-31810563D01*
X43658441Y-31803555D01*
X43662743Y-31801256D01*
X43667417Y-31799838D01*
X43675619Y-31799030D01*
X43699653Y-31794249D01*
X43722291Y-31784871D01*
X43742665Y-31771256D01*
X43759992Y-31753929D01*
X43773605Y-31733554D01*
X43782982Y-31710915D01*
X43787761Y-31686888D01*
X43788569Y-31678686D01*
X43789987Y-31674012D01*
X43792286Y-31669710D01*
X43799294Y-31661171D01*
X44003455Y-31457010D01*
X44011994Y-31450002D01*
X44016296Y-31447703D01*
X44020970Y-31446285D01*
X44029172Y-31445477D01*
X44053206Y-31440696D01*
X44075844Y-31431318D01*
X44096218Y-31417703D01*
X44113545Y-31400376D01*
X44127158Y-31380001D01*
X44136535Y-31357362D01*
X44141314Y-31333335D01*
X44142122Y-31325133D01*
X44143540Y-31320459D01*
X44145839Y-31316157D01*
X44152847Y-31307618D01*
X44357008Y-31103457D01*
X44365547Y-31096449D01*
X44369849Y-31094150D01*
X44374523Y-31092732D01*
X44382726Y-31091924D01*
X44406759Y-31087143D01*
X44429398Y-31077765D01*
X44449772Y-31064151D01*
X44467098Y-31046823D01*
X44480712Y-31026449D01*
X44490088Y-31003810D01*
X44494868Y-30979782D01*
X44495676Y-30971579D01*
X44497094Y-30966905D01*
X44499393Y-30962603D01*
X44506401Y-30954064D01*
X44710562Y-30749903D01*
X44719101Y-30742895D01*
X44723403Y-30740596D01*
X44728077Y-30739178D01*
X44736279Y-30738370D01*
X44760313Y-30733589D01*
X44782951Y-30724211D01*
X44803325Y-30710596D01*
X44820652Y-30693269D01*
X44834265Y-30672894D01*
X44843642Y-30650255D01*
X44848421Y-30626228D01*
X44849229Y-30618026D01*
X44850647Y-30613352D01*
X44852946Y-30609050D01*
X44859954Y-30600511D01*
X45064115Y-30396350D01*
X45072654Y-30389342D01*
X45076956Y-30387043D01*
X45081630Y-30385625D01*
X45089833Y-30384817D01*
X45113866Y-30380036D01*
X45136505Y-30370658D01*
X45156879Y-30357044D01*
X45174205Y-30339716D01*
X45187819Y-30319342D01*
X45197195Y-30296703D01*
X45201975Y-30272675D01*
X45202783Y-30264472D01*
X45204201Y-30259798D01*
X45206500Y-30255496D01*
X45213508Y-30246957D01*
X45417669Y-30042796D01*
X45426208Y-30035788D01*
X45430510Y-30033489D01*
X45435184Y-30032071D01*
X45443386Y-30031263D01*
X45467420Y-30026482D01*
X45490058Y-30017104D01*
X45510432Y-30003489D01*
X45527759Y-29986162D01*
X45541372Y-29965787D01*
X45550749Y-29943148D01*
X45555528Y-29919121D01*
X45556336Y-29910919D01*
X45557754Y-29906245D01*
X45560053Y-29901943D01*
X45567061Y-29893404D01*
X45771222Y-29689243D01*
X45779761Y-29682235D01*
X45784063Y-29679936D01*
X45788737Y-29678518D01*
X45796939Y-29677710D01*
X45820973Y-29672929D01*
X45843611Y-29663551D01*
X45863985Y-29649936D01*
X45881312Y-29632609D01*
X45894925Y-29612234D01*
X45904302Y-29589595D01*
X45909081Y-29565568D01*
X45909889Y-29557366D01*
X45911307Y-29552692D01*
X45913606Y-29548390D01*
X45920614Y-29539851D01*
X46124775Y-29335690D01*
X46133314Y-29328682D01*
X46137616Y-29326383D01*
X46142290Y-29324965D01*
X46150493Y-29324157D01*
X46174526Y-29319376D01*
X46197165Y-29309998D01*
X46217539Y-29296384D01*
X46234865Y-29279056D01*
X46248479Y-29258682D01*
X46257855Y-29236043D01*
X46262635Y-29212015D01*
X46263443Y-29203812D01*
X46264861Y-29199138D01*
X46267160Y-29194836D01*
X46274168Y-29186297D01*
X46478329Y-28982136D01*
X46486868Y-28975128D01*
X46491170Y-28972829D01*
X46495844Y-28971411D01*
X46504046Y-28970603D01*
X46528080Y-28965822D01*
X46550718Y-28956444D01*
X46571092Y-28942829D01*
X46588419Y-28925502D01*
X46602032Y-28905127D01*
X46611409Y-28882488D01*
X46616188Y-28858461D01*
X46616996Y-28850259D01*
X46618414Y-28845585D01*
X46620713Y-28841283D01*
X46627721Y-28832744D01*
X46782128Y-28678337D01*
X46797673Y-28659395D01*
X46809224Y-28637784D01*
X46816337Y-28614335D01*
X46818739Y-28589949D01*
X46816337Y-28565563D01*
X46809224Y-28542114D01*
X46797673Y-28520503D01*
X46782128Y-28501561D01*
X46627721Y-28347154D01*
X46620713Y-28338615D01*
X46618414Y-28334313D01*
X46616996Y-28329639D01*
X46616188Y-28321437D01*
X46611407Y-28297403D01*
X46602029Y-28274765D01*
X46588414Y-28254391D01*
X46571087Y-28237064D01*
X46550712Y-28223451D01*
X46528073Y-28214074D01*
X46504046Y-28209295D01*
X46495844Y-28208487D01*
X46491170Y-28207069D01*
X46486868Y-28204770D01*
X46478329Y-28197762D01*
X46274168Y-27993601D01*
X46267160Y-27985062D01*
X46264861Y-27980760D01*
X46263443Y-27976086D01*
X46262635Y-27967883D01*
X46257854Y-27943850D01*
X46248476Y-27921211D01*
X46234862Y-27900837D01*
X46217534Y-27883511D01*
X46197160Y-27869897D01*
X46174521Y-27860521D01*
X46150493Y-27855741D01*
X46142290Y-27854933D01*
X46137616Y-27853515D01*
X46133314Y-27851216D01*
X46124775Y-27844208D01*
X45920614Y-27640047D01*
X45913606Y-27631508D01*
X45911307Y-27627206D01*
X45909889Y-27622532D01*
X45909081Y-27614330D01*
X45904300Y-27590296D01*
X45894922Y-27567658D01*
X45881307Y-27547284D01*
X45863980Y-27529957D01*
X45843605Y-27516344D01*
X45820966Y-27506967D01*
X45796939Y-27502188D01*
X45788737Y-27501380D01*
X45784063Y-27499962D01*
X45779761Y-27497663D01*
X45771222Y-27490655D01*
X45567061Y-27286494D01*
X45560053Y-27277955D01*
X45557754Y-27273653D01*
X45556336Y-27268979D01*
X45555528Y-27260777D01*
X45550747Y-27236743D01*
X45541369Y-27214105D01*
X45527754Y-27193731D01*
X45510427Y-27176404D01*
X45490052Y-27162791D01*
X45467413Y-27153414D01*
X45443386Y-27148635D01*
X45435184Y-27147827D01*
X45430510Y-27146409D01*
X45426208Y-27144110D01*
X45417669Y-27137102D01*
X45213508Y-26932941D01*
X45206500Y-26924402D01*
X45204201Y-26920100D01*
X45202783Y-26915426D01*
X45201975Y-26907223D01*
X45197194Y-26883190D01*
X45187816Y-26860551D01*
X45174202Y-26840177D01*
X45156874Y-26822851D01*
X45136500Y-26809237D01*
X45113861Y-26799861D01*
X45089833Y-26795081D01*
X45081630Y-26794273D01*
X45076956Y-26792855D01*
X45072654Y-26790556D01*
X45064115Y-26783548D01*
X44859954Y-26579387D01*
X44852946Y-26570848D01*
X44850647Y-26566546D01*
X44849229Y-26561872D01*
X44848421Y-26553670D01*
X44843640Y-26529636D01*
X44834262Y-26506998D01*
X44820647Y-26486624D01*
X44803320Y-26469297D01*
X44782945Y-26455684D01*
X44760306Y-26446307D01*
X44736279Y-26441528D01*
X44728077Y-26440720D01*
X44723403Y-26439302D01*
X44719101Y-26437003D01*
X44710562Y-26429995D01*
X44506401Y-26225834D01*
X44499393Y-26217295D01*
X44497094Y-26212993D01*
X44495676Y-26208319D01*
X44494868Y-26200116D01*
X44490087Y-26176083D01*
X44480709Y-26153444D01*
X44467095Y-26133070D01*
X44449767Y-26115744D01*
X44429393Y-26102130D01*
X44406754Y-26092754D01*
X44382726Y-26087974D01*
X44374523Y-26087166D01*
X44369849Y-26085748D01*
X44365547Y-26083449D01*
X44357008Y-26076441D01*
X44152847Y-25872280D01*
X44145839Y-25863741D01*
X44143540Y-25859439D01*
X44142122Y-25854765D01*
X44141314Y-25846563D01*
X44136533Y-25822529D01*
X44127155Y-25799891D01*
X44113540Y-25779517D01*
X44096213Y-25762190D01*
X44075838Y-25748577D01*
X44053199Y-25739200D01*
X44029172Y-25734421D01*
X44020970Y-25733613D01*
X44016296Y-25732195D01*
X44011994Y-25729896D01*
X44003455Y-25722888D01*
X43799294Y-25518727D01*
X43792286Y-25510188D01*
X43789987Y-25505886D01*
X43788569Y-25501212D01*
X43787761Y-25493010D01*
X43782980Y-25468976D01*
X43773602Y-25446338D01*
X43759987Y-25425964D01*
X43742660Y-25408637D01*
X43722285Y-25395024D01*
X43699646Y-25385647D01*
X43675619Y-25380868D01*
X43667417Y-25380060D01*
X43662743Y-25378642D01*
X43658441Y-25376343D01*
X43649902Y-25369335D01*
X43445741Y-25165174D01*
X43438733Y-25156635D01*
X43436434Y-25152333D01*
X43435016Y-25147659D01*
X43434208Y-25139456D01*
X43429427Y-25115423D01*
X43420049Y-25092784D01*
X43406435Y-25072410D01*
X43389107Y-25055084D01*
X43368733Y-25041470D01*
X43346094Y-25032094D01*
X43322066Y-25027314D01*
X43313863Y-25026506D01*
X43309189Y-25025088D01*
X43304887Y-25022789D01*
X43296348Y-25015781D01*
X43092187Y-24811620D01*
X43085179Y-24803081D01*
X43082880Y-24798779D01*
X43081462Y-24794105D01*
X43080654Y-24785903D01*
X43075873Y-24761869D01*
X43066495Y-24739231D01*
X43052880Y-24718857D01*
X43035553Y-24701530D01*
X43015178Y-24687917D01*
X42992539Y-24678540D01*
X42968512Y-24673761D01*
X42960310Y-24672953D01*
X42955636Y-24671535D01*
X42951334Y-24669236D01*
X42942795Y-24662228D01*
X42788388Y-24507821D01*
X42769446Y-24492276D01*
X42747835Y-24480725D01*
X42724386Y-24473612D01*
X42700000Y-24471210D01*
X42675614Y-24473612D01*
X42652165Y-24480725D01*
X42630554Y-24492276D01*
X42611612Y-24507821D01*
X42457205Y-24662228D01*
X42448666Y-24669236D01*
X42444364Y-24671535D01*
X42439690Y-24672953D01*
X42431488Y-24673761D01*
X42407454Y-24678542D01*
X42384816Y-24687920D01*
X42364442Y-24701535D01*
X42347115Y-24718862D01*
X42333502Y-24739237D01*
X42324125Y-24761876D01*
X42319346Y-24785903D01*
X42318538Y-24794105D01*
X42317120Y-24798779D01*
X42314821Y-24803081D01*
X42307813Y-24811620D01*
X42103652Y-25015781D01*
X42095113Y-25022789D01*
X42090811Y-25025088D01*
X42086137Y-25026506D01*
X42077934Y-25027314D01*
X42053901Y-25032095D01*
X42031262Y-25041473D01*
X42010888Y-25055087D01*
X41993562Y-25072415D01*
X41979948Y-25092789D01*
X41970572Y-25115428D01*
X41965792Y-25139456D01*
X41964984Y-25147659D01*
X41963566Y-25152333D01*
X41961267Y-25156635D01*
X41954259Y-25165174D01*
X41750098Y-25369335D01*
X41741559Y-25376343D01*
X41737257Y-25378642D01*
X41732583Y-25380060D01*
X41724381Y-25380868D01*
X41700347Y-25385649D01*
X41677709Y-25395027D01*
X41657335Y-25408642D01*
X41640008Y-25425969D01*
X41626395Y-25446344D01*
X41617018Y-25468983D01*
X41612239Y-25493010D01*
X41611431Y-25501212D01*
X41610013Y-25505886D01*
X41607714Y-25510188D01*
X41600706Y-25518727D01*
X41396545Y-25722888D01*
X41388006Y-25729896D01*
X41383704Y-25732195D01*
X41379030Y-25733613D01*
X41370828Y-25734421D01*
X41346794Y-25739202D01*
X41324156Y-25748580D01*
X41303782Y-25762195D01*
X41286455Y-25779522D01*
X41272842Y-25799897D01*
X41263465Y-25822536D01*
X41258686Y-25846563D01*
X41257878Y-25854765D01*
X41256460Y-25859439D01*
X41254161Y-25863741D01*
X41247153Y-25872280D01*
X41042992Y-26076441D01*
X41034453Y-26083449D01*
X41030151Y-26085748D01*
X41025477Y-26087166D01*
X41017274Y-26087974D01*
X40993241Y-26092755D01*
X40970602Y-26102133D01*
X40950228Y-26115747D01*
X40932902Y-26133075D01*
X40919288Y-26153449D01*
X40909912Y-26176088D01*
X40905132Y-26200116D01*
X40904324Y-26208319D01*
X40902906Y-26212993D01*
X40900607Y-26217295D01*
X40893599Y-26225834D01*
X40689438Y-26429995D01*
X40680899Y-26437003D01*
X40676597Y-26439302D01*
X40671923Y-26440720D01*
X40663721Y-26441528D01*
X40639687Y-26446309D01*
X40617049Y-26455687D01*
X40596675Y-26469302D01*
X40579348Y-26486629D01*
X40565735Y-26507004D01*
X40556358Y-26529643D01*
X40551579Y-26553670D01*
X40550771Y-26561872D01*
X40549353Y-26566546D01*
X40547054Y-26570848D01*
X40540046Y-26579387D01*
X40335885Y-26783548D01*
X40327346Y-26790556D01*
X40323044Y-26792855D01*
X40318370Y-26794273D01*
X40310167Y-26795081D01*
X40286134Y-26799862D01*
X40263495Y-26809240D01*
X40243121Y-26822854D01*
X40225795Y-26840182D01*
X40212181Y-26860556D01*
X40202805Y-26883195D01*
X40198025Y-26907223D01*
X40197217Y-26915426D01*
X40195799Y-26920100D01*
X40193500Y-26924402D01*
X40186492Y-26932941D01*
X39982331Y-27137102D01*
X39973792Y-27144110D01*
X39969490Y-27146409D01*
X39964816Y-27147827D01*
X39956614Y-27148635D01*
X39932580Y-27153416D01*
X39909942Y-27162794D01*
X39889568Y-27176409D01*
X39872241Y-27193736D01*
X39858628Y-27214111D01*
X39849251Y-27236750D01*
X39844472Y-27260777D01*
X39843664Y-27268979D01*
X39842246Y-27273653D01*
X39839947Y-27277955D01*
X39832939Y-27286494D01*
X39628778Y-27490655D01*
X39620239Y-27497663D01*
X39615937Y-27499962D01*
X39611263Y-27501380D01*
X39603061Y-27502188D01*
X39579027Y-27506969D01*
X39556389Y-27516347D01*
X39536015Y-27529962D01*
X39518688Y-27547289D01*
X39505075Y-27567664D01*
X39495698Y-27590303D01*
X39490919Y-27614330D01*
X39490111Y-27622532D01*
X39488693Y-27627206D01*
X39486394Y-27631508D01*
X39479386Y-27640047D01*
X39275225Y-27844208D01*
X39266686Y-27851216D01*
X39262384Y-27853515D01*
X39257710Y-27854933D01*
X39249507Y-27855741D01*
X39225474Y-27860522D01*
X39202835Y-27869900D01*
X39182461Y-27883514D01*
X39165135Y-27900842D01*
X39151521Y-27921216D01*
X39142145Y-27943855D01*
X39137365Y-27967883D01*
X39136557Y-27976086D01*
X39135139Y-27980760D01*
X39132840Y-27985062D01*
X39125832Y-27993601D01*
X38921671Y-28197762D01*
X38913132Y-28204770D01*
X38908830Y-28207069D01*
X38904156Y-28208487D01*
X38895954Y-28209295D01*
X38871920Y-28214076D01*
X38849282Y-28223454D01*
X38828908Y-28237069D01*
X38811581Y-28254396D01*
X38797968Y-28274771D01*
X38788591Y-28297410D01*
X38783812Y-28321437D01*
X38783004Y-28329639D01*
X38781586Y-28334313D01*
X38779287Y-28338615D01*
X38772279Y-28347154D01*
X38617872Y-28501561D01*
X38602327Y-28520503D01*
X38590776Y-28542114D01*
X38583663Y-28565563D01*
X38581261Y-28589949D01*
X38510235Y-28589949D01*
X38507833Y-28565563D01*
X38500720Y-28542114D01*
X38489169Y-28520503D01*
X38473624Y-28501561D01*
X37877275Y-27905212D01*
X37870267Y-27896673D01*
X37867968Y-27892371D01*
X37866550Y-27887697D01*
X37866072Y-27882842D01*
X37866550Y-27877987D01*
X37867968Y-27873313D01*
X37870267Y-27869011D01*
X37877275Y-27860472D01*
X38081436Y-27656311D01*
X38089975Y-27649303D01*
X38094277Y-27647004D01*
X38098951Y-27645586D01*
X38107153Y-27644778D01*
X38131187Y-27639997D01*
X38153825Y-27630619D01*
X38174199Y-27617004D01*
X38191526Y-27599677D01*
X38205139Y-27579302D01*
X38214516Y-27556663D01*
X38219295Y-27532636D01*
X38220103Y-27524434D01*
X38221521Y-27519760D01*
X38223820Y-27515458D01*
X38230828Y-27506919D01*
X38434989Y-27302758D01*
X38443528Y-27295750D01*
X38447830Y-27293451D01*
X38452504Y-27292033D01*
X38460707Y-27291225D01*
X38484740Y-27286444D01*
X38507379Y-27277066D01*
X38527753Y-27263452D01*
X38545079Y-27246124D01*
X38558693Y-27225750D01*
X38568069Y-27203111D01*
X38572849Y-27179083D01*
X38573657Y-27170880D01*
X38575075Y-27166206D01*
X38577374Y-27161904D01*
X38584382Y-27153365D01*
X38788543Y-26949204D01*
X38797082Y-26942196D01*
X38801384Y-26939897D01*
X38806058Y-26938479D01*
X38814260Y-26937671D01*
X38838294Y-26932890D01*
X38860932Y-26923512D01*
X38881306Y-26909897D01*
X38898633Y-26892570D01*
X38912246Y-26872195D01*
X38921623Y-26849556D01*
X38926402Y-26825529D01*
X38927210Y-26817327D01*
X38928628Y-26812653D01*
X38930927Y-26808351D01*
X38937935Y-26799812D01*
X39142096Y-26595651D01*
X39150635Y-26588643D01*
X39154937Y-26586344D01*
X39159611Y-26584926D01*
X39167813Y-26584118D01*
X39191847Y-26579337D01*
X39214485Y-26569959D01*
X39234859Y-26556344D01*
X39252186Y-26539017D01*
X39265799Y-26518642D01*
X39275176Y-26496003D01*
X39279955Y-26471976D01*
X39280763Y-26463774D01*
X39282181Y-26459100D01*
X39284480Y-26454798D01*
X39291488Y-26446259D01*
X39495649Y-26242098D01*
X39504188Y-26235090D01*
X39508490Y-26232791D01*
X39513164Y-26231373D01*
X39521367Y-26230565D01*
X39545400Y-26225784D01*
X39568039Y-26216406D01*
X39588413Y-26202792D01*
X39605739Y-26185464D01*
X39619353Y-26165090D01*
X39628729Y-26142451D01*
X39633509Y-26118423D01*
X39634317Y-26110220D01*
X39635735Y-26105546D01*
X39638034Y-26101244D01*
X39645042Y-26092705D01*
X39849203Y-25888544D01*
X39857742Y-25881536D01*
X39862044Y-25879237D01*
X39866718Y-25877819D01*
X39874920Y-25877011D01*
X39898954Y-25872230D01*
X39921592Y-25862852D01*
X39941966Y-25849237D01*
X39959293Y-25831910D01*
X39972906Y-25811535D01*
X39982283Y-25788896D01*
X39987062Y-25764869D01*
X39987870Y-25756667D01*
X39989288Y-25751993D01*
X39991587Y-25747691D01*
X39998595Y-25739152D01*
X40202756Y-25534991D01*
X40211295Y-25527983D01*
X40215597Y-25525684D01*
X40220271Y-25524266D01*
X40228474Y-25523458D01*
X40252507Y-25518677D01*
X40275146Y-25509299D01*
X40295520Y-25495685D01*
X40312846Y-25478357D01*
X40326460Y-25457983D01*
X40335836Y-25435344D01*
X40340616Y-25411316D01*
X40341424Y-25403113D01*
X40342842Y-25398439D01*
X40345141Y-25394137D01*
X40352149Y-25385598D01*
X40556310Y-25181437D01*
X40564849Y-25174429D01*
X40569151Y-25172130D01*
X40573825Y-25170712D01*
X40582027Y-25169904D01*
X40606061Y-25165123D01*
X40628699Y-25155745D01*
X40649073Y-25142130D01*
X40666400Y-25124803D01*
X40680013Y-25104428D01*
X40689390Y-25081789D01*
X40694169Y-25057762D01*
X40694977Y-25049560D01*
X40696395Y-25044886D01*
X40698694Y-25040584D01*
X40705702Y-25032045D01*
X40909863Y-24827884D01*
X40918402Y-24820876D01*
X40922704Y-24818577D01*
X40927378Y-24817159D01*
X40935580Y-24816351D01*
X40959614Y-24811570D01*
X40982252Y-24802192D01*
X41002626Y-24788577D01*
X41019953Y-24771250D01*
X41033566Y-24750875D01*
X41042943Y-24728236D01*
X41047722Y-24704209D01*
X41048530Y-24696007D01*
X41049948Y-24691333D01*
X41052247Y-24687031D01*
X41059255Y-24678492D01*
X41263416Y-24474331D01*
X41271955Y-24467323D01*
X41276257Y-24465024D01*
X41280931Y-24463606D01*
X41289134Y-24462798D01*
X41313167Y-24458017D01*
X41335806Y-24448639D01*
X41356180Y-24435025D01*
X41373506Y-24417697D01*
X41387120Y-24397323D01*
X41396496Y-24374684D01*
X41401276Y-24350656D01*
X41402084Y-24342453D01*
X41403502Y-24337779D01*
X41405801Y-24333477D01*
X41412809Y-24324938D01*
X41616970Y-24120777D01*
X41625509Y-24113769D01*
X41629811Y-24111470D01*
X41634485Y-24110052D01*
X41642687Y-24109244D01*
X41666721Y-24104463D01*
X41689359Y-24095085D01*
X41709733Y-24081470D01*
X41727060Y-24064143D01*
X41740673Y-24043768D01*
X41750050Y-24021129D01*
X41754829Y-23997102D01*
X41755637Y-23988900D01*
X41757055Y-23984226D01*
X41759354Y-23979924D01*
X41766362Y-23971385D01*
X41970523Y-23767224D01*
X41979062Y-23760216D01*
X41983364Y-23757917D01*
X41988038Y-23756499D01*
X41992893Y-23756021D01*
X41997748Y-23756499D01*
X42002422Y-23757917D01*
X42006724Y-23760216D01*
X42015263Y-23767224D01*
X42611612Y-24363573D01*
X42630554Y-24379118D01*
X42652165Y-24390669D01*
X42675614Y-24397782D01*
X42700000Y-24400184D01*
X42724386Y-24397782D01*
X42747835Y-24390669D01*
X42769446Y-24379118D01*
X42788388Y-24363573D01*
X43384737Y-23767224D01*
X43393276Y-23760216D01*
X43397578Y-23757917D01*
X43402252Y-23756499D01*
X43407107Y-23756021D01*
X43411962Y-23756499D01*
X43411962Y-23756499D01*
G37*
G36*
X42722479Y-25033092D02*
G01*
X42744102Y-25039651D01*
X42764020Y-25050298D01*
X42786250Y-25068541D01*
X42862334Y-25144625D01*
X42862345Y-25144634D01*
X46145315Y-28427604D01*
X46145324Y-28427615D01*
X46221408Y-28503699D01*
X46239651Y-28525929D01*
X46250298Y-28545847D01*
X46256857Y-28567470D01*
X46259071Y-28589949D01*
X46256857Y-28612428D01*
X46250298Y-28634051D01*
X46239651Y-28653969D01*
X46221408Y-28676199D01*
X46145324Y-28752283D01*
X46145315Y-28752294D01*
X42862345Y-32035264D01*
X42862334Y-32035273D01*
X42786250Y-32111357D01*
X42764020Y-32129600D01*
X42744102Y-32140247D01*
X42722479Y-32146806D01*
X42700000Y-32149020D01*
X42677521Y-32146806D01*
X42655898Y-32140247D01*
X42635980Y-32129600D01*
X42613750Y-32111357D01*
X42537666Y-32035273D01*
X42537655Y-32035264D01*
X39254685Y-28752294D01*
X39254676Y-28752283D01*
X39178592Y-28676199D01*
X39160349Y-28653969D01*
X39149702Y-28634051D01*
X39143143Y-28612428D01*
X39140929Y-28589949D01*
X39143143Y-28567470D01*
X39149702Y-28545847D01*
X39160349Y-28525929D01*
X39178592Y-28503699D01*
X39254676Y-28427615D01*
X39254685Y-28427604D01*
X42537655Y-25144634D01*
X42537666Y-25144625D01*
X42613750Y-25068541D01*
X42635980Y-25050298D01*
X42655898Y-25039651D01*
X42677521Y-25033092D01*
X42700000Y-25030878D01*
X42722479Y-25033092D01*
X42722479Y-25033092D01*
G37*
G36*
X59310443Y-31575519D02*
G01*
X59376627Y-31582037D01*
X59546466Y-31633557D01*
X59702991Y-31717222D01*
X59728618Y-31738254D01*
X59840186Y-31829814D01*
X59912608Y-31918062D01*
X59952778Y-31967009D01*
X59990597Y-32037763D01*
X60036373Y-32123402D01*
X60036443Y-32123534D01*
X60087963Y-32293373D01*
X60105359Y-32470000D01*
X60087963Y-32646627D01*
X60036443Y-32816466D01*
X60036442Y-32816468D01*
X60025229Y-32837445D01*
X59952778Y-32972991D01*
X59932243Y-32998013D01*
X59840186Y-33110186D01*
X59768550Y-33168975D01*
X59702991Y-33222778D01*
X59546466Y-33306443D01*
X59376627Y-33357963D01*
X59310443Y-33364481D01*
X59244260Y-33371000D01*
X59155740Y-33371000D01*
X59089557Y-33364481D01*
X59023373Y-33357963D01*
X58853534Y-33306443D01*
X58697009Y-33222778D01*
X58631450Y-33168975D01*
X58559814Y-33110186D01*
X58467757Y-32998013D01*
X58447222Y-32972991D01*
X58374771Y-32837445D01*
X58363558Y-32816468D01*
X58363557Y-32816466D01*
X58312037Y-32646627D01*
X58294641Y-32470000D01*
X58312037Y-32293373D01*
X58363557Y-32123534D01*
X58363628Y-32123402D01*
X58409403Y-32037763D01*
X58447222Y-31967009D01*
X58487392Y-31918062D01*
X58559814Y-31829814D01*
X58671382Y-31738254D01*
X58697009Y-31717222D01*
X58853534Y-31633557D01*
X59023373Y-31582037D01*
X59089557Y-31575519D01*
X59155740Y-31569000D01*
X59244260Y-31569000D01*
X59310443Y-31575519D01*
X59310443Y-31575519D01*
G37*
G36*
X51281938Y-32271716D02*
G01*
X51302557Y-32277971D01*
X51321553Y-32288124D01*
X51338208Y-32301792D01*
X51351876Y-32318447D01*
X51362029Y-32337443D01*
X51368284Y-32358062D01*
X51371000Y-32385640D01*
X51371000Y-32844360D01*
X51368284Y-32871938D01*
X51362029Y-32892557D01*
X51351876Y-32911553D01*
X51338208Y-32928208D01*
X51321553Y-32941876D01*
X51302557Y-32952029D01*
X51281938Y-32958284D01*
X51254360Y-32961000D01*
X50745640Y-32961000D01*
X50718062Y-32958284D01*
X50697443Y-32952029D01*
X50678447Y-32941876D01*
X50661792Y-32928208D01*
X50648124Y-32911553D01*
X50637971Y-32892557D01*
X50631716Y-32871938D01*
X50629000Y-32844360D01*
X50629000Y-32385640D01*
X50631716Y-32358062D01*
X50637971Y-32337443D01*
X50648124Y-32318447D01*
X50661792Y-32301792D01*
X50678447Y-32288124D01*
X50697443Y-32277971D01*
X50718062Y-32271716D01*
X50745640Y-32269000D01*
X51254360Y-32269000D01*
X51281938Y-32271716D01*
X51281938Y-32271716D01*
G37*
G36*
X29741938Y-31831716D02*
G01*
X29762557Y-31837971D01*
X29781553Y-31848124D01*
X29798208Y-31861792D01*
X29811876Y-31878447D01*
X29822029Y-31897443D01*
X29828284Y-31918062D01*
X29831000Y-31945640D01*
X29831000Y-32454360D01*
X29828284Y-32481938D01*
X29822029Y-32502557D01*
X29811876Y-32521553D01*
X29798208Y-32538208D01*
X29781553Y-32551876D01*
X29762557Y-32562029D01*
X29741938Y-32568284D01*
X29714360Y-32571000D01*
X29255640Y-32571000D01*
X29228062Y-32568284D01*
X29207443Y-32562029D01*
X29188447Y-32551876D01*
X29171792Y-32538208D01*
X29158124Y-32521553D01*
X29147971Y-32502557D01*
X29141716Y-32481938D01*
X29139000Y-32454360D01*
X29139000Y-31945640D01*
X29141716Y-31918062D01*
X29147971Y-31897443D01*
X29158124Y-31878447D01*
X29171792Y-31861792D01*
X29188447Y-31848124D01*
X29207443Y-31837971D01*
X29228062Y-31831716D01*
X29255640Y-31829000D01*
X29714360Y-31829000D01*
X29741938Y-31831716D01*
X29741938Y-31831716D01*
G37*
G36*
X28771938Y-31831716D02*
G01*
X28792557Y-31837971D01*
X28811553Y-31848124D01*
X28828208Y-31861792D01*
X28841876Y-31878447D01*
X28852029Y-31897443D01*
X28858284Y-31918062D01*
X28861000Y-31945640D01*
X28861000Y-32454360D01*
X28858284Y-32481938D01*
X28852029Y-32502557D01*
X28841876Y-32521553D01*
X28828208Y-32538208D01*
X28811553Y-32551876D01*
X28792557Y-32562029D01*
X28771938Y-32568284D01*
X28744360Y-32571000D01*
X28285640Y-32571000D01*
X28258062Y-32568284D01*
X28237443Y-32562029D01*
X28218447Y-32551876D01*
X28201792Y-32538208D01*
X28188124Y-32521553D01*
X28177971Y-32502557D01*
X28171716Y-32481938D01*
X28169000Y-32454360D01*
X28169000Y-31945640D01*
X28171716Y-31918062D01*
X28177971Y-31897443D01*
X28188124Y-31878447D01*
X28201792Y-31861792D01*
X28218447Y-31848124D01*
X28237443Y-31837971D01*
X28258062Y-31831716D01*
X28285640Y-31829000D01*
X28744360Y-31829000D01*
X28771938Y-31831716D01*
X28771938Y-31831716D01*
G37*
G36*
X34881938Y-31541716D02*
G01*
X34902557Y-31547971D01*
X34921553Y-31558124D01*
X34938208Y-31571792D01*
X34951876Y-31588447D01*
X34962029Y-31607443D01*
X34968284Y-31628062D01*
X34971000Y-31655640D01*
X34971000Y-32114360D01*
X34968284Y-32141938D01*
X34962029Y-32162557D01*
X34951876Y-32181553D01*
X34938208Y-32198208D01*
X34921553Y-32211876D01*
X34902557Y-32222029D01*
X34881938Y-32228284D01*
X34854360Y-32231000D01*
X34345640Y-32231000D01*
X34318062Y-32228284D01*
X34297443Y-32222029D01*
X34278447Y-32211876D01*
X34261792Y-32198208D01*
X34248124Y-32181553D01*
X34237971Y-32162557D01*
X34231716Y-32141938D01*
X34229000Y-32114360D01*
X34229000Y-31655640D01*
X34231716Y-31628062D01*
X34237971Y-31607443D01*
X34248124Y-31588447D01*
X34261792Y-31571792D01*
X34278447Y-31558124D01*
X34297443Y-31547971D01*
X34318062Y-31541716D01*
X34345640Y-31539000D01*
X34854360Y-31539000D01*
X34881938Y-31541716D01*
X34881938Y-31541716D01*
G37*
G36*
X33881938Y-31541716D02*
G01*
X33902557Y-31547971D01*
X33921553Y-31558124D01*
X33938208Y-31571792D01*
X33951876Y-31588447D01*
X33962029Y-31607443D01*
X33968284Y-31628062D01*
X33971000Y-31655640D01*
X33971000Y-32114360D01*
X33968284Y-32141938D01*
X33962029Y-32162557D01*
X33951876Y-32181553D01*
X33938208Y-32198208D01*
X33921553Y-32211876D01*
X33902557Y-32222029D01*
X33881938Y-32228284D01*
X33854360Y-32231000D01*
X33345640Y-32231000D01*
X33318062Y-32228284D01*
X33297443Y-32222029D01*
X33278447Y-32211876D01*
X33261792Y-32198208D01*
X33248124Y-32181553D01*
X33237971Y-32162557D01*
X33231716Y-32141938D01*
X33229000Y-32114360D01*
X33229000Y-31655640D01*
X33231716Y-31628062D01*
X33237971Y-31607443D01*
X33248124Y-31588447D01*
X33261792Y-31571792D01*
X33278447Y-31558124D01*
X33297443Y-31547971D01*
X33318062Y-31541716D01*
X33345640Y-31539000D01*
X33854360Y-31539000D01*
X33881938Y-31541716D01*
X33881938Y-31541716D01*
G37*
G36*
X25034671Y-31098449D02*
G01*
X25034673Y-31098450D01*
X25034674Y-31098450D01*
X25103102Y-31126793D01*
X25164685Y-31167942D01*
X25217057Y-31220314D01*
X25258206Y-31281897D01*
X25281530Y-31338208D01*
X25286550Y-31350328D01*
X25300999Y-31422966D01*
X25300999Y-31497034D01*
X25286684Y-31569000D01*
X25286549Y-31569675D01*
X25258206Y-31638103D01*
X25217057Y-31699686D01*
X25164685Y-31752058D01*
X25103102Y-31793207D01*
X25034674Y-31821550D01*
X25034673Y-31821550D01*
X25034671Y-31821551D01*
X24962033Y-31836000D01*
X24887965Y-31836000D01*
X24815327Y-31821551D01*
X24815325Y-31821550D01*
X24815324Y-31821550D01*
X24746896Y-31793207D01*
X24685313Y-31752058D01*
X24632941Y-31699686D01*
X24591792Y-31638103D01*
X24563449Y-31569675D01*
X24563315Y-31569000D01*
X24548999Y-31497034D01*
X24548999Y-31422966D01*
X24563448Y-31350328D01*
X24568468Y-31338208D01*
X24591792Y-31281897D01*
X24632941Y-31220314D01*
X24685313Y-31167942D01*
X24746896Y-31126793D01*
X24815324Y-31098450D01*
X24815325Y-31098450D01*
X24815327Y-31098449D01*
X24887965Y-31084000D01*
X24962033Y-31084000D01*
X25034671Y-31098449D01*
X25034671Y-31098449D01*
G37*
G36*
X57351000Y-31813000D02*
G01*
X56199000Y-31813000D01*
X56199000Y-31061000D01*
X57351000Y-31061000D01*
X57351000Y-31813000D01*
X57351000Y-31813000D01*
G37*
G36*
X53201000Y-31813000D02*
G01*
X52049000Y-31813000D01*
X52049000Y-31061000D01*
X53201000Y-31061000D01*
X53201000Y-31813000D01*
X53201000Y-31813000D01*
G37*
G36*
X31371938Y-30631716D02*
G01*
X31392557Y-30637971D01*
X31411553Y-30648124D01*
X31428208Y-30661792D01*
X31441876Y-30678447D01*
X31452029Y-30697443D01*
X31458284Y-30718062D01*
X31461000Y-30745640D01*
X31461000Y-31254360D01*
X31458284Y-31281938D01*
X31452029Y-31302557D01*
X31441876Y-31321553D01*
X31428208Y-31338208D01*
X31411553Y-31351876D01*
X31392557Y-31362029D01*
X31371938Y-31368284D01*
X31344360Y-31371000D01*
X30885640Y-31371000D01*
X30858062Y-31368284D01*
X30837443Y-31362029D01*
X30818447Y-31351876D01*
X30801792Y-31338208D01*
X30788124Y-31321553D01*
X30777971Y-31302557D01*
X30771716Y-31281938D01*
X30769000Y-31254360D01*
X30769000Y-30745640D01*
X30771716Y-30718062D01*
X30777971Y-30697443D01*
X30788124Y-30678447D01*
X30801792Y-30661792D01*
X30818447Y-30648124D01*
X30837443Y-30637971D01*
X30858062Y-30631716D01*
X30885640Y-30629000D01*
X31344360Y-30629000D01*
X31371938Y-30631716D01*
X31371938Y-30631716D01*
G37*
G36*
X28771938Y-30631716D02*
G01*
X28792557Y-30637971D01*
X28811553Y-30648124D01*
X28828208Y-30661792D01*
X28841876Y-30678447D01*
X28852029Y-30697443D01*
X28858284Y-30718062D01*
X28861000Y-30745640D01*
X28861000Y-31254360D01*
X28858284Y-31281938D01*
X28852029Y-31302557D01*
X28841876Y-31321553D01*
X28828208Y-31338208D01*
X28811553Y-31351876D01*
X28792557Y-31362029D01*
X28771938Y-31368284D01*
X28744360Y-31371000D01*
X28285640Y-31371000D01*
X28258062Y-31368284D01*
X28237443Y-31362029D01*
X28218447Y-31351876D01*
X28201792Y-31338208D01*
X28188124Y-31321553D01*
X28177971Y-31302557D01*
X28171716Y-31281938D01*
X28169000Y-31254360D01*
X28169000Y-30745640D01*
X28171716Y-30718062D01*
X28177971Y-30697443D01*
X28188124Y-30678447D01*
X28201792Y-30661792D01*
X28218447Y-30648124D01*
X28237443Y-30637971D01*
X28258062Y-30631716D01*
X28285640Y-30629000D01*
X28744360Y-30629000D01*
X28771938Y-30631716D01*
X28771938Y-30631716D01*
G37*
G36*
X29741938Y-30631716D02*
G01*
X29762557Y-30637971D01*
X29781553Y-30648124D01*
X29798208Y-30661792D01*
X29811876Y-30678447D01*
X29822029Y-30697443D01*
X29828284Y-30718062D01*
X29831000Y-30745640D01*
X29831000Y-31254360D01*
X29828284Y-31281938D01*
X29822029Y-31302557D01*
X29811876Y-31321553D01*
X29798208Y-31338208D01*
X29781553Y-31351876D01*
X29762557Y-31362029D01*
X29741938Y-31368284D01*
X29714360Y-31371000D01*
X29255640Y-31371000D01*
X29228062Y-31368284D01*
X29207443Y-31362029D01*
X29188447Y-31351876D01*
X29171792Y-31338208D01*
X29158124Y-31321553D01*
X29147971Y-31302557D01*
X29141716Y-31281938D01*
X29139000Y-31254360D01*
X29139000Y-30745640D01*
X29141716Y-30718062D01*
X29147971Y-30697443D01*
X29158124Y-30678447D01*
X29171792Y-30661792D01*
X29188447Y-30648124D01*
X29207443Y-30637971D01*
X29228062Y-30631716D01*
X29255640Y-30629000D01*
X29714360Y-30629000D01*
X29741938Y-30631716D01*
X29741938Y-30631716D01*
G37*
G36*
X32341938Y-30631716D02*
G01*
X32362557Y-30637971D01*
X32381553Y-30648124D01*
X32398208Y-30661792D01*
X32411876Y-30678447D01*
X32422029Y-30697443D01*
X32428284Y-30718062D01*
X32431000Y-30745640D01*
X32431000Y-31254360D01*
X32428284Y-31281938D01*
X32422029Y-31302557D01*
X32411876Y-31321553D01*
X32398208Y-31338208D01*
X32381553Y-31351876D01*
X32362557Y-31362029D01*
X32341938Y-31368284D01*
X32314360Y-31371000D01*
X31855640Y-31371000D01*
X31828062Y-31368284D01*
X31807443Y-31362029D01*
X31788447Y-31351876D01*
X31771792Y-31338208D01*
X31758124Y-31321553D01*
X31747971Y-31302557D01*
X31741716Y-31281938D01*
X31739000Y-31254360D01*
X31739000Y-30745640D01*
X31741716Y-30718062D01*
X31747971Y-30697443D01*
X31758124Y-30678447D01*
X31771792Y-30661792D01*
X31788447Y-30648124D01*
X31807443Y-30637971D01*
X31828062Y-30631716D01*
X31855640Y-30629000D01*
X32314360Y-30629000D01*
X32341938Y-30631716D01*
X32341938Y-30631716D01*
G37*
G36*
X33881938Y-30571716D02*
G01*
X33902557Y-30577971D01*
X33921553Y-30588124D01*
X33938208Y-30601792D01*
X33951876Y-30618447D01*
X33962029Y-30637443D01*
X33968284Y-30658062D01*
X33971000Y-30685640D01*
X33971000Y-31144360D01*
X33968284Y-31171938D01*
X33962029Y-31192557D01*
X33951876Y-31211553D01*
X33938208Y-31228208D01*
X33921553Y-31241876D01*
X33902557Y-31252029D01*
X33881938Y-31258284D01*
X33854360Y-31261000D01*
X33345640Y-31261000D01*
X33318062Y-31258284D01*
X33297443Y-31252029D01*
X33278447Y-31241876D01*
X33261792Y-31228208D01*
X33248124Y-31211553D01*
X33237971Y-31192557D01*
X33231716Y-31171938D01*
X33229000Y-31144360D01*
X33229000Y-30685640D01*
X33231716Y-30658062D01*
X33237971Y-30637443D01*
X33248124Y-30618447D01*
X33261792Y-30601792D01*
X33278447Y-30588124D01*
X33297443Y-30577971D01*
X33318062Y-30571716D01*
X33345640Y-30569000D01*
X33854360Y-30569000D01*
X33881938Y-30571716D01*
X33881938Y-30571716D01*
G37*
G36*
X34881938Y-30571716D02*
G01*
X34902557Y-30577971D01*
X34921553Y-30588124D01*
X34938208Y-30601792D01*
X34951876Y-30618447D01*
X34962029Y-30637443D01*
X34968284Y-30658062D01*
X34971000Y-30685640D01*
X34971000Y-31144360D01*
X34968284Y-31171938D01*
X34962029Y-31192557D01*
X34951876Y-31211553D01*
X34938208Y-31228208D01*
X34921553Y-31241876D01*
X34902557Y-31252029D01*
X34881938Y-31258284D01*
X34854360Y-31261000D01*
X34345640Y-31261000D01*
X34318062Y-31258284D01*
X34297443Y-31252029D01*
X34278447Y-31241876D01*
X34261792Y-31228208D01*
X34248124Y-31211553D01*
X34237971Y-31192557D01*
X34231716Y-31171938D01*
X34229000Y-31144360D01*
X34229000Y-30685640D01*
X34231716Y-30658062D01*
X34237971Y-30637443D01*
X34248124Y-30618447D01*
X34261792Y-30601792D01*
X34278447Y-30588124D01*
X34297443Y-30577971D01*
X34318062Y-30571716D01*
X34345640Y-30569000D01*
X34854360Y-30569000D01*
X34881938Y-30571716D01*
X34881938Y-30571716D01*
G37*
G36*
X37282063Y-29984438D02*
G01*
X37302682Y-29990693D01*
X37321678Y-30000846D01*
X37343099Y-30018426D01*
X37667468Y-30342795D01*
X37685048Y-30364216D01*
X37695201Y-30383212D01*
X37701456Y-30403831D01*
X37703567Y-30425269D01*
X37701456Y-30446707D01*
X37695201Y-30467326D01*
X37685048Y-30486322D01*
X37667468Y-30507743D01*
X37307743Y-30867468D01*
X37286322Y-30885048D01*
X37267326Y-30895201D01*
X37246707Y-30901456D01*
X37225269Y-30903567D01*
X37203831Y-30901456D01*
X37183212Y-30895201D01*
X37164216Y-30885048D01*
X37142795Y-30867468D01*
X36818426Y-30543099D01*
X36800846Y-30521678D01*
X36790693Y-30502682D01*
X36784438Y-30482063D01*
X36782327Y-30460625D01*
X36784438Y-30439187D01*
X36790693Y-30418568D01*
X36800846Y-30399572D01*
X36818426Y-30378151D01*
X37178151Y-30018426D01*
X37199572Y-30000846D01*
X37218568Y-29990693D01*
X37239187Y-29984438D01*
X37260625Y-29982327D01*
X37282063Y-29984438D01*
X37282063Y-29984438D01*
G37*
G36*
X59310443Y-29035519D02*
G01*
X59376627Y-29042037D01*
X59546466Y-29093557D01*
X59546468Y-29093558D01*
X59555796Y-29098544D01*
X59702991Y-29177222D01*
X59735391Y-29203812D01*
X59840186Y-29289814D01*
X59910662Y-29375691D01*
X59952778Y-29427009D01*
X59952779Y-29427011D01*
X60035320Y-29581432D01*
X60036443Y-29583534D01*
X60087963Y-29753373D01*
X60105359Y-29930000D01*
X60087963Y-30106627D01*
X60038404Y-30270001D01*
X60036442Y-30276468D01*
X60011014Y-30324040D01*
X59952778Y-30432991D01*
X59950140Y-30436205D01*
X59840186Y-30570186D01*
X59752473Y-30642169D01*
X59702991Y-30682778D01*
X59636980Y-30718062D01*
X59558223Y-30760159D01*
X59546466Y-30766443D01*
X59376627Y-30817963D01*
X59310443Y-30824481D01*
X59244260Y-30831000D01*
X59155740Y-30831000D01*
X59089557Y-30824481D01*
X59023373Y-30817963D01*
X58853534Y-30766443D01*
X58841778Y-30760159D01*
X58763020Y-30718062D01*
X58697009Y-30682778D01*
X58647527Y-30642169D01*
X58559814Y-30570186D01*
X58449860Y-30436205D01*
X58447222Y-30432991D01*
X58388986Y-30324040D01*
X58363558Y-30276468D01*
X58361596Y-30270001D01*
X58312037Y-30106627D01*
X58294641Y-29930000D01*
X58312037Y-29753373D01*
X58363557Y-29583534D01*
X58364681Y-29581432D01*
X58447221Y-29427011D01*
X58447222Y-29427009D01*
X58489338Y-29375691D01*
X58559814Y-29289814D01*
X58664609Y-29203812D01*
X58697009Y-29177222D01*
X58844204Y-29098544D01*
X58853532Y-29093558D01*
X58853534Y-29093557D01*
X59023373Y-29042037D01*
X59089557Y-29035519D01*
X59155740Y-29029000D01*
X59244260Y-29029000D01*
X59310443Y-29035519D01*
X59310443Y-29035519D01*
G37*
G36*
X47660813Y-29784438D02*
G01*
X47681432Y-29790693D01*
X47700428Y-29800846D01*
X47721849Y-29818426D01*
X48081574Y-30178151D01*
X48099154Y-30199572D01*
X48109307Y-30218568D01*
X48115562Y-30239187D01*
X48117673Y-30260625D01*
X48115562Y-30282063D01*
X48109307Y-30302682D01*
X48099154Y-30321678D01*
X48081574Y-30343099D01*
X47757205Y-30667468D01*
X47735784Y-30685048D01*
X47716788Y-30695201D01*
X47696169Y-30701456D01*
X47674731Y-30703567D01*
X47653293Y-30701456D01*
X47632674Y-30695201D01*
X47613678Y-30685048D01*
X47592257Y-30667468D01*
X47232532Y-30307743D01*
X47214952Y-30286322D01*
X47204799Y-30267326D01*
X47198544Y-30246707D01*
X47196433Y-30225269D01*
X47198544Y-30203831D01*
X47204799Y-30183212D01*
X47214952Y-30164216D01*
X47232532Y-30142795D01*
X47556901Y-29818426D01*
X47578322Y-29800846D01*
X47597318Y-29790693D01*
X47617937Y-29784438D01*
X47639375Y-29782327D01*
X47660813Y-29784438D01*
X47660813Y-29784438D01*
G37*
G36*
X54426000Y-29481000D02*
G01*
X53340786Y-29481000D01*
X53316400Y-29483402D01*
X53292951Y-29490515D01*
X53271340Y-29502066D01*
X53252398Y-29517611D01*
X53236853Y-29536553D01*
X53225302Y-29558164D01*
X53218189Y-29581613D01*
X53215787Y-29605999D01*
X53218189Y-29630385D01*
X53225302Y-29653834D01*
X53236853Y-29675445D01*
X53252398Y-29694387D01*
X53271340Y-29709932D01*
X53292951Y-29721483D01*
X53316400Y-29728596D01*
X53328534Y-29730396D01*
X53341938Y-29731716D01*
X53362557Y-29737971D01*
X53381553Y-29748124D01*
X53398208Y-29761792D01*
X53411876Y-29778447D01*
X53422029Y-29797443D01*
X53428284Y-29818062D01*
X53431000Y-29845640D01*
X53431000Y-30354360D01*
X53428284Y-30381938D01*
X53422029Y-30402557D01*
X53411876Y-30421553D01*
X53398208Y-30438208D01*
X53381553Y-30451876D01*
X53362557Y-30462029D01*
X53341938Y-30468284D01*
X53314360Y-30471000D01*
X52855640Y-30471000D01*
X52828062Y-30468284D01*
X52807443Y-30462029D01*
X52788447Y-30451876D01*
X52771792Y-30438208D01*
X52758124Y-30421553D01*
X52747971Y-30402557D01*
X52741716Y-30381938D01*
X52739000Y-30354360D01*
X52739000Y-29845640D01*
X52741716Y-29818062D01*
X52747971Y-29797443D01*
X52758124Y-29778447D01*
X52771792Y-29761792D01*
X52788447Y-29748124D01*
X52807443Y-29737971D01*
X52828062Y-29731716D01*
X52841466Y-29730396D01*
X52865499Y-29725616D01*
X52888138Y-29716238D01*
X52908512Y-29702625D01*
X52925839Y-29685298D01*
X52939453Y-29664924D01*
X52948830Y-29642285D01*
X52953611Y-29618251D01*
X52953611Y-29593747D01*
X52948831Y-29569714D01*
X52939453Y-29547075D01*
X52925840Y-29526701D01*
X52908513Y-29509374D01*
X52888139Y-29495760D01*
X52865500Y-29486383D01*
X52841466Y-29481602D01*
X52829214Y-29481000D01*
X52370786Y-29481000D01*
X52346400Y-29483402D01*
X52322951Y-29490515D01*
X52301340Y-29502066D01*
X52282398Y-29517611D01*
X52266853Y-29536553D01*
X52255302Y-29558164D01*
X52248189Y-29581613D01*
X52245787Y-29605999D01*
X52248189Y-29630385D01*
X52255302Y-29653834D01*
X52266853Y-29675445D01*
X52282398Y-29694387D01*
X52301340Y-29709932D01*
X52322951Y-29721483D01*
X52346400Y-29728596D01*
X52358534Y-29730396D01*
X52371938Y-29731716D01*
X52392557Y-29737971D01*
X52411553Y-29748124D01*
X52428208Y-29761792D01*
X52441876Y-29778447D01*
X52452029Y-29797443D01*
X52458284Y-29818062D01*
X52461000Y-29845640D01*
X52461000Y-30354360D01*
X52458284Y-30381938D01*
X52452029Y-30402557D01*
X52441876Y-30421553D01*
X52428208Y-30438208D01*
X52411553Y-30451876D01*
X52392557Y-30462029D01*
X52371938Y-30468284D01*
X52344360Y-30471000D01*
X51885640Y-30471000D01*
X51858062Y-30468284D01*
X51837443Y-30462029D01*
X51818447Y-30451876D01*
X51801792Y-30438208D01*
X51788124Y-30421553D01*
X51777971Y-30402557D01*
X51771716Y-30381938D01*
X51769000Y-30354360D01*
X51769000Y-29845640D01*
X51771716Y-29818062D01*
X51777971Y-29797443D01*
X51788124Y-29778447D01*
X51801792Y-29761792D01*
X51818447Y-29748124D01*
X51837443Y-29737971D01*
X51858062Y-29731716D01*
X51871466Y-29730396D01*
X51895499Y-29725616D01*
X51918138Y-29716238D01*
X51938512Y-29702625D01*
X51955839Y-29685298D01*
X51969453Y-29664924D01*
X51978830Y-29642285D01*
X51983611Y-29618251D01*
X51983611Y-29593747D01*
X51978831Y-29569714D01*
X51969453Y-29547075D01*
X51955840Y-29526701D01*
X51938513Y-29509374D01*
X51918139Y-29495760D01*
X51895500Y-29486383D01*
X51871466Y-29481602D01*
X51859214Y-29481000D01*
X51774000Y-29481000D01*
X51774000Y-28319000D01*
X54426000Y-28319000D01*
X54426000Y-29481000D01*
X54426000Y-29481000D01*
G37*
G36*
X51181938Y-29541716D02*
G01*
X51202557Y-29547971D01*
X51221553Y-29558124D01*
X51238208Y-29571792D01*
X51251876Y-29588447D01*
X51262029Y-29607443D01*
X51268284Y-29628062D01*
X51271000Y-29655640D01*
X51271000Y-30114360D01*
X51268284Y-30141938D01*
X51262029Y-30162557D01*
X51251876Y-30181553D01*
X51238208Y-30198208D01*
X51221553Y-30211876D01*
X51202557Y-30222029D01*
X51181938Y-30228284D01*
X51154360Y-30231000D01*
X50645640Y-30231000D01*
X50618062Y-30228284D01*
X50597443Y-30222029D01*
X50578447Y-30211876D01*
X50561792Y-30198208D01*
X50548124Y-30181553D01*
X50537971Y-30162557D01*
X50531716Y-30141938D01*
X50529000Y-30114360D01*
X50529000Y-29655640D01*
X50531716Y-29628062D01*
X50537971Y-29607443D01*
X50548124Y-29588447D01*
X50561792Y-29571792D01*
X50578447Y-29558124D01*
X50597443Y-29547971D01*
X50618062Y-29541716D01*
X50645640Y-29539000D01*
X51154360Y-29539000D01*
X51181938Y-29541716D01*
X51181938Y-29541716D01*
G37*
G36*
X36596169Y-29298544D02*
G01*
X36616788Y-29304799D01*
X36635784Y-29314952D01*
X36657205Y-29332532D01*
X36981574Y-29656901D01*
X36999154Y-29678322D01*
X37009307Y-29697318D01*
X37015562Y-29717937D01*
X37017673Y-29739375D01*
X37015562Y-29760813D01*
X37009307Y-29781432D01*
X36999154Y-29800428D01*
X36981574Y-29821849D01*
X36621849Y-30181574D01*
X36600428Y-30199154D01*
X36581432Y-30209307D01*
X36560813Y-30215562D01*
X36539375Y-30217673D01*
X36517937Y-30215562D01*
X36497318Y-30209307D01*
X36478322Y-30199154D01*
X36456901Y-30181574D01*
X36132532Y-29857205D01*
X36114952Y-29835784D01*
X36104799Y-29816788D01*
X36098544Y-29796169D01*
X36096433Y-29774731D01*
X36098544Y-29753293D01*
X36104799Y-29732674D01*
X36114952Y-29713678D01*
X36132532Y-29692257D01*
X36492257Y-29332532D01*
X36513678Y-29314952D01*
X36532674Y-29304799D01*
X36553293Y-29298544D01*
X36574731Y-29296433D01*
X36596169Y-29298544D01*
X36596169Y-29298544D01*
G37*
G36*
X33655355Y-26850083D02*
G01*
X33660029Y-26851501D01*
X33664330Y-26853800D01*
X33670702Y-26859029D01*
X33691076Y-26872643D01*
X33713715Y-26882020D01*
X33737749Y-26886800D01*
X33762253Y-26886800D01*
X33786286Y-26882019D01*
X33808925Y-26872642D01*
X33829298Y-26859029D01*
X33835670Y-26853800D01*
X33839971Y-26851501D01*
X33844645Y-26850083D01*
X33855641Y-26849000D01*
X34144359Y-26849000D01*
X34155355Y-26850083D01*
X34160029Y-26851501D01*
X34164330Y-26853800D01*
X34170702Y-26859029D01*
X34191076Y-26872643D01*
X34213715Y-26882020D01*
X34237749Y-26886800D01*
X34262253Y-26886800D01*
X34286286Y-26882019D01*
X34308925Y-26872642D01*
X34329298Y-26859029D01*
X34335670Y-26853800D01*
X34339971Y-26851501D01*
X34344645Y-26850083D01*
X34355641Y-26849000D01*
X34644359Y-26849000D01*
X34655355Y-26850083D01*
X34660029Y-26851501D01*
X34664331Y-26853800D01*
X34668104Y-26856896D01*
X34671200Y-26860669D01*
X34673499Y-26864971D01*
X34674917Y-26869645D01*
X34676000Y-26880641D01*
X34676000Y-27486583D01*
X34678402Y-27510969D01*
X34685515Y-27534418D01*
X34697066Y-27556029D01*
X34712611Y-27574971D01*
X34731553Y-27590516D01*
X34753164Y-27602067D01*
X34776613Y-27609180D01*
X34800999Y-27611582D01*
X34825385Y-27609180D01*
X34848834Y-27602067D01*
X34880296Y-27583209D01*
X34885667Y-27578802D01*
X34889971Y-27576501D01*
X34894645Y-27575083D01*
X34905641Y-27574000D01*
X35619359Y-27574000D01*
X35630355Y-27575083D01*
X35635029Y-27576501D01*
X35639331Y-27578800D01*
X35643104Y-27581896D01*
X35646200Y-27585669D01*
X35648499Y-27589971D01*
X35649917Y-27594645D01*
X35651000Y-27605641D01*
X35651000Y-27894359D01*
X35649917Y-27905355D01*
X35648499Y-27910029D01*
X35646200Y-27914330D01*
X35640971Y-27920702D01*
X35627357Y-27941076D01*
X35617980Y-27963715D01*
X35613200Y-27987749D01*
X35613200Y-28012253D01*
X35617981Y-28036286D01*
X35627358Y-28058925D01*
X35640971Y-28079298D01*
X35646200Y-28085670D01*
X35648499Y-28089971D01*
X35649917Y-28094645D01*
X35651000Y-28105641D01*
X35651000Y-28394359D01*
X35649917Y-28405355D01*
X35648499Y-28410029D01*
X35646200Y-28414330D01*
X35640971Y-28420702D01*
X35627357Y-28441076D01*
X35617980Y-28463715D01*
X35613200Y-28487749D01*
X35613200Y-28512253D01*
X35617981Y-28536286D01*
X35627358Y-28558925D01*
X35640971Y-28579298D01*
X35646200Y-28585670D01*
X35648499Y-28589971D01*
X35649917Y-28594645D01*
X35651000Y-28605641D01*
X35651000Y-28894359D01*
X35649917Y-28905355D01*
X35648499Y-28910029D01*
X35646200Y-28914330D01*
X35640971Y-28920702D01*
X35627357Y-28941076D01*
X35617980Y-28963715D01*
X35613200Y-28987749D01*
X35613200Y-29012253D01*
X35617981Y-29036286D01*
X35627358Y-29058925D01*
X35640971Y-29079298D01*
X35646200Y-29085670D01*
X35648499Y-29089971D01*
X35649917Y-29094645D01*
X35651000Y-29105641D01*
X35651000Y-29394359D01*
X35649917Y-29405355D01*
X35648499Y-29410029D01*
X35646200Y-29414331D01*
X35643104Y-29418104D01*
X35639331Y-29421200D01*
X35635029Y-29423499D01*
X35630355Y-29424917D01*
X35619359Y-29426000D01*
X34905641Y-29426000D01*
X34894645Y-29424917D01*
X34889971Y-29423499D01*
X34885667Y-29421198D01*
X34880296Y-29416791D01*
X34859922Y-29403177D01*
X34837283Y-29393800D01*
X34813250Y-29389020D01*
X34788746Y-29389020D01*
X34764712Y-29393801D01*
X34742074Y-29403178D01*
X34721699Y-29416792D01*
X34704373Y-29434120D01*
X34690759Y-29454494D01*
X34681382Y-29477133D01*
X34676000Y-29513417D01*
X34676000Y-30119359D01*
X34674917Y-30130355D01*
X34673499Y-30135029D01*
X34671200Y-30139331D01*
X34668104Y-30143104D01*
X34664331Y-30146200D01*
X34660029Y-30148499D01*
X34655355Y-30149917D01*
X34644359Y-30151000D01*
X34355641Y-30151000D01*
X34344645Y-30149917D01*
X34339971Y-30148499D01*
X34335670Y-30146200D01*
X34329298Y-30140971D01*
X34308924Y-30127357D01*
X34286285Y-30117980D01*
X34262251Y-30113200D01*
X34237747Y-30113200D01*
X34213714Y-30117981D01*
X34191075Y-30127358D01*
X34170702Y-30140971D01*
X34164330Y-30146200D01*
X34160029Y-30148499D01*
X34155355Y-30149917D01*
X34144359Y-30151000D01*
X33855641Y-30151000D01*
X33844645Y-30149917D01*
X33839971Y-30148499D01*
X33835670Y-30146200D01*
X33829298Y-30140971D01*
X33808924Y-30127357D01*
X33786285Y-30117980D01*
X33762251Y-30113200D01*
X33737747Y-30113200D01*
X33713714Y-30117981D01*
X33691075Y-30127358D01*
X33670702Y-30140971D01*
X33664330Y-30146200D01*
X33660029Y-30148499D01*
X33655355Y-30149917D01*
X33644359Y-30151000D01*
X33355641Y-30151000D01*
X33344645Y-30149917D01*
X33339971Y-30148499D01*
X33335669Y-30146200D01*
X33331896Y-30143104D01*
X33328800Y-30139331D01*
X33326501Y-30135029D01*
X33325083Y-30130355D01*
X33324000Y-30119359D01*
X33324000Y-29513417D01*
X33321598Y-29489031D01*
X33314485Y-29465582D01*
X33302934Y-29443971D01*
X33287389Y-29425029D01*
X33268447Y-29409484D01*
X33246836Y-29397933D01*
X33223387Y-29390820D01*
X33199001Y-29388418D01*
X33174615Y-29390820D01*
X33151166Y-29397933D01*
X33119704Y-29416791D01*
X33114333Y-29421198D01*
X33110029Y-29423499D01*
X33105355Y-29424917D01*
X33094359Y-29426000D01*
X32380641Y-29426000D01*
X32369645Y-29424917D01*
X32364971Y-29423499D01*
X32360669Y-29421200D01*
X32356896Y-29418104D01*
X32353800Y-29414331D01*
X32351501Y-29410029D01*
X32350083Y-29405355D01*
X32349000Y-29394359D01*
X32349000Y-29105641D01*
X32350083Y-29094645D01*
X32351501Y-29089971D01*
X32353800Y-29085670D01*
X32359029Y-29079298D01*
X32372643Y-29058924D01*
X32382020Y-29036285D01*
X32386800Y-29012251D01*
X32386800Y-28987747D01*
X32382019Y-28963714D01*
X32372642Y-28941075D01*
X32359029Y-28920702D01*
X32353800Y-28914330D01*
X32351501Y-28910029D01*
X32350083Y-28905355D01*
X32349000Y-28894359D01*
X32349000Y-28605641D01*
X32350083Y-28594645D01*
X32351501Y-28589971D01*
X32353800Y-28585670D01*
X32359029Y-28579298D01*
X32372643Y-28558924D01*
X32382020Y-28536285D01*
X32386800Y-28512251D01*
X32386800Y-28487747D01*
X32382019Y-28463714D01*
X32372642Y-28441075D01*
X32359029Y-28420702D01*
X32353800Y-28414330D01*
X32351501Y-28410029D01*
X32350083Y-28405355D01*
X32349000Y-28394359D01*
X32349000Y-28105641D01*
X32350083Y-28094645D01*
X32351501Y-28089971D01*
X32353800Y-28085670D01*
X32359029Y-28079298D01*
X32372643Y-28058924D01*
X32382020Y-28036285D01*
X32386800Y-28012251D01*
X32386800Y-27987747D01*
X32382019Y-27963714D01*
X32372642Y-27941075D01*
X32359029Y-27920702D01*
X32353800Y-27914330D01*
X32351501Y-27910029D01*
X32350083Y-27905355D01*
X32349000Y-27894359D01*
X32349000Y-27605641D01*
X32350083Y-27594645D01*
X32351501Y-27589971D01*
X32353800Y-27585669D01*
X32356896Y-27581896D01*
X32360669Y-27578800D01*
X32364971Y-27576501D01*
X32369645Y-27575083D01*
X32380641Y-27574000D01*
X33094359Y-27574000D01*
X33105355Y-27575083D01*
X33110029Y-27576501D01*
X33114333Y-27578802D01*
X33119704Y-27583209D01*
X33140078Y-27596823D01*
X33162717Y-27606200D01*
X33186750Y-27610980D01*
X33211254Y-27610980D01*
X33235288Y-27606199D01*
X33257926Y-27596822D01*
X33278301Y-27583208D01*
X33295627Y-27565880D01*
X33309241Y-27545506D01*
X33318618Y-27522867D01*
X33324000Y-27486583D01*
X33324000Y-26880641D01*
X33325083Y-26869645D01*
X33326501Y-26864971D01*
X33328800Y-26860669D01*
X33331896Y-26856896D01*
X33335669Y-26853800D01*
X33339971Y-26851501D01*
X33344645Y-26850083D01*
X33355641Y-26849000D01*
X33644359Y-26849000D01*
X33655355Y-26850083D01*
X33655355Y-26850083D01*
G37*
G36*
X48346707Y-29098544D02*
G01*
X48367326Y-29104799D01*
X48386322Y-29114952D01*
X48407743Y-29132532D01*
X48767468Y-29492257D01*
X48785048Y-29513678D01*
X48795201Y-29532674D01*
X48801456Y-29553293D01*
X48803567Y-29574731D01*
X48801456Y-29596169D01*
X48795201Y-29616788D01*
X48785048Y-29635784D01*
X48767468Y-29657205D01*
X48443099Y-29981574D01*
X48421678Y-29999154D01*
X48402682Y-30009307D01*
X48382063Y-30015562D01*
X48360625Y-30017673D01*
X48339187Y-30015562D01*
X48318568Y-30009307D01*
X48299572Y-29999154D01*
X48278151Y-29981574D01*
X47918426Y-29621849D01*
X47900846Y-29600428D01*
X47890693Y-29581432D01*
X47884438Y-29560813D01*
X47882327Y-29539375D01*
X47884438Y-29517937D01*
X47890693Y-29497318D01*
X47900846Y-29478322D01*
X47918426Y-29456901D01*
X48242795Y-29132532D01*
X48264216Y-29114952D01*
X48283212Y-29104799D01*
X48303831Y-29098544D01*
X48325269Y-29096433D01*
X48346707Y-29098544D01*
X48346707Y-29098544D01*
G37*
G36*
X29181000Y-29826000D02*
G01*
X28019000Y-29826000D01*
X28019000Y-27174000D01*
X29181000Y-27174000D01*
X29181000Y-29826000D01*
X29181000Y-29826000D01*
G37*
G36*
X31381000Y-29826000D02*
G01*
X30219000Y-29826000D01*
X30219000Y-27174000D01*
X31381000Y-27174000D01*
X31381000Y-29826000D01*
X31381000Y-29826000D01*
G37*
G36*
X51181938Y-28571716D02*
G01*
X51202557Y-28577971D01*
X51221553Y-28588124D01*
X51238208Y-28601792D01*
X51251876Y-28618447D01*
X51262029Y-28637443D01*
X51268284Y-28658062D01*
X51271000Y-28685640D01*
X51271000Y-29144360D01*
X51268284Y-29171938D01*
X51262029Y-29192557D01*
X51251876Y-29211553D01*
X51238208Y-29228208D01*
X51221553Y-29241876D01*
X51202557Y-29252029D01*
X51181938Y-29258284D01*
X51154360Y-29261000D01*
X50645640Y-29261000D01*
X50618062Y-29258284D01*
X50597443Y-29252029D01*
X50578447Y-29241876D01*
X50561792Y-29228208D01*
X50548124Y-29211553D01*
X50537971Y-29192557D01*
X50531716Y-29171938D01*
X50529000Y-29144360D01*
X50529000Y-28685640D01*
X50531716Y-28658062D01*
X50537971Y-28637443D01*
X50548124Y-28618447D01*
X50561792Y-28601792D01*
X50578447Y-28588124D01*
X50597443Y-28577971D01*
X50618062Y-28571716D01*
X50645640Y-28569000D01*
X51154360Y-28569000D01*
X51181938Y-28571716D01*
X51181938Y-28571716D01*
G37*
G36*
X57284468Y-28103565D02*
G01*
X57323138Y-28115296D01*
X57358777Y-28134346D01*
X57390017Y-28159983D01*
X57415654Y-28191223D01*
X57434704Y-28226862D01*
X57446435Y-28265532D01*
X57451000Y-28311888D01*
X57451000Y-28963112D01*
X57446435Y-29009468D01*
X57434704Y-29048138D01*
X57415654Y-29083777D01*
X57390017Y-29115017D01*
X57358777Y-29140654D01*
X57323138Y-29159704D01*
X57284468Y-29171435D01*
X57238112Y-29176000D01*
X56161888Y-29176000D01*
X56115532Y-29171435D01*
X56076862Y-29159704D01*
X56041223Y-29140654D01*
X56009983Y-29115017D01*
X55984346Y-29083777D01*
X55965296Y-29048138D01*
X55953565Y-29009468D01*
X55949000Y-28963112D01*
X55949000Y-28311888D01*
X55953565Y-28265532D01*
X55965296Y-28226862D01*
X55984346Y-28191223D01*
X56009983Y-28159983D01*
X56041223Y-28134346D01*
X56076862Y-28115296D01*
X56115532Y-28103565D01*
X56161888Y-28099000D01*
X57238112Y-28099000D01*
X57284468Y-28103565D01*
X57284468Y-28103565D01*
G37*
G36*
X49281938Y-28341716D02*
G01*
X49302557Y-28347971D01*
X49321553Y-28358124D01*
X49338208Y-28371792D01*
X49351876Y-28388447D01*
X49362029Y-28407443D01*
X49368284Y-28428062D01*
X49371000Y-28455640D01*
X49371000Y-28914360D01*
X49368284Y-28941938D01*
X49362029Y-28962557D01*
X49351876Y-28981553D01*
X49338208Y-28998208D01*
X49321553Y-29011876D01*
X49302557Y-29022029D01*
X49281938Y-29028284D01*
X49254360Y-29031000D01*
X48745640Y-29031000D01*
X48718062Y-29028284D01*
X48697443Y-29022029D01*
X48678447Y-29011876D01*
X48661792Y-28998208D01*
X48648124Y-28981553D01*
X48637971Y-28962557D01*
X48631716Y-28941938D01*
X48629000Y-28914360D01*
X48629000Y-28455640D01*
X48631716Y-28428062D01*
X48637971Y-28407443D01*
X48648124Y-28388447D01*
X48661792Y-28371792D01*
X48678447Y-28358124D01*
X48697443Y-28347971D01*
X48718062Y-28341716D01*
X48745640Y-28339000D01*
X49254360Y-28339000D01*
X49281938Y-28341716D01*
X49281938Y-28341716D01*
G37*
G36*
X59287410Y-26493250D02*
G01*
X59376627Y-26502037D01*
X59546466Y-26553557D01*
X59546468Y-26553558D01*
X59552939Y-26557017D01*
X59702991Y-26637222D01*
X59738729Y-26666552D01*
X59840186Y-26749814D01*
X59913665Y-26839350D01*
X59952778Y-26887009D01*
X59980768Y-26939375D01*
X60016156Y-27005579D01*
X60036443Y-27043534D01*
X60087963Y-27213373D01*
X60105359Y-27390000D01*
X60087963Y-27566627D01*
X60036443Y-27736466D01*
X59952778Y-27892991D01*
X59935265Y-27914330D01*
X59840186Y-28030186D01*
X59750030Y-28104174D01*
X59702991Y-28142778D01*
X59546466Y-28226443D01*
X59376627Y-28277963D01*
X59310443Y-28284481D01*
X59244260Y-28291000D01*
X59155740Y-28291000D01*
X59089557Y-28284481D01*
X59023373Y-28277963D01*
X58853534Y-28226443D01*
X58697009Y-28142778D01*
X58649970Y-28104174D01*
X58559814Y-28030186D01*
X58464735Y-27914330D01*
X58447222Y-27892991D01*
X58363557Y-27736466D01*
X58312037Y-27566627D01*
X58294641Y-27390000D01*
X58312037Y-27213373D01*
X58363557Y-27043534D01*
X58383845Y-27005579D01*
X58419232Y-26939375D01*
X58447222Y-26887009D01*
X58486335Y-26839350D01*
X58559814Y-26749814D01*
X58661271Y-26666552D01*
X58697009Y-26637222D01*
X58847061Y-26557017D01*
X58853532Y-26553558D01*
X58853534Y-26553557D01*
X59023373Y-26502037D01*
X59112590Y-26493250D01*
X59155740Y-26489000D01*
X59244260Y-26489000D01*
X59287410Y-26493250D01*
X59287410Y-26493250D01*
G37*
G36*
X37060813Y-27184438D02*
G01*
X37081432Y-27190693D01*
X37100428Y-27200846D01*
X37121849Y-27218426D01*
X37481574Y-27578151D01*
X37499154Y-27599572D01*
X37509307Y-27618568D01*
X37515562Y-27639187D01*
X37517673Y-27660625D01*
X37515562Y-27682063D01*
X37509307Y-27702682D01*
X37499154Y-27721678D01*
X37481574Y-27743099D01*
X37157205Y-28067468D01*
X37135784Y-28085048D01*
X37116788Y-28095201D01*
X37096169Y-28101456D01*
X37074731Y-28103567D01*
X37053293Y-28101456D01*
X37032674Y-28095201D01*
X37013678Y-28085048D01*
X36992257Y-28067468D01*
X36632532Y-27707743D01*
X36614952Y-27686322D01*
X36604799Y-27667326D01*
X36598544Y-27646707D01*
X36596433Y-27625269D01*
X36598544Y-27603831D01*
X36604800Y-27583209D01*
X36614952Y-27564216D01*
X36632532Y-27542795D01*
X36956901Y-27218426D01*
X36978322Y-27200846D01*
X36997318Y-27190693D01*
X37017937Y-27184438D01*
X37039375Y-27182327D01*
X37060813Y-27184438D01*
X37060813Y-27184438D01*
G37*
G36*
X50984468Y-27003565D02*
G01*
X51023138Y-27015296D01*
X51058777Y-27034346D01*
X51090017Y-27059983D01*
X51115654Y-27091223D01*
X51134704Y-27126862D01*
X51146435Y-27165532D01*
X51151000Y-27211888D01*
X51151000Y-27863112D01*
X51146435Y-27909468D01*
X51134704Y-27948138D01*
X51115654Y-27983777D01*
X51090017Y-28015017D01*
X51058777Y-28040654D01*
X51023138Y-28059704D01*
X50984468Y-28071435D01*
X50938112Y-28076000D01*
X49861888Y-28076000D01*
X49815532Y-28071435D01*
X49776862Y-28059704D01*
X49741223Y-28040654D01*
X49709983Y-28015017D01*
X49684346Y-27983777D01*
X49665296Y-27948138D01*
X49653565Y-27909468D01*
X49649000Y-27863112D01*
X49649000Y-27211888D01*
X49653565Y-27165532D01*
X49665296Y-27126862D01*
X49684346Y-27091223D01*
X49709983Y-27059983D01*
X49741223Y-27034346D01*
X49776862Y-27015296D01*
X49815532Y-27003565D01*
X49861888Y-26999000D01*
X50938112Y-26999000D01*
X50984468Y-27003565D01*
X50984468Y-27003565D01*
G37*
G36*
X49281938Y-27371716D02*
G01*
X49302557Y-27377971D01*
X49321553Y-27388124D01*
X49338208Y-27401792D01*
X49351876Y-27418447D01*
X49362029Y-27437443D01*
X49368284Y-27458062D01*
X49371000Y-27485640D01*
X49371000Y-27944360D01*
X49368284Y-27971938D01*
X49362029Y-27992557D01*
X49351876Y-28011553D01*
X49338208Y-28028208D01*
X49321553Y-28041876D01*
X49302557Y-28052029D01*
X49281938Y-28058284D01*
X49254360Y-28061000D01*
X48745640Y-28061000D01*
X48718062Y-28058284D01*
X48697443Y-28052029D01*
X48678447Y-28041876D01*
X48661792Y-28028208D01*
X48648124Y-28011553D01*
X48637971Y-27992557D01*
X48631716Y-27971938D01*
X48629000Y-27944360D01*
X48629000Y-27485640D01*
X48631716Y-27458062D01*
X48637971Y-27437443D01*
X48648124Y-27418447D01*
X48661792Y-27401792D01*
X48678447Y-27388124D01*
X48697443Y-27377971D01*
X48718062Y-27371716D01*
X48745640Y-27369000D01*
X49254360Y-27369000D01*
X49281938Y-27371716D01*
X49281938Y-27371716D01*
G37*
G36*
X55581938Y-27341716D02*
G01*
X55602557Y-27347971D01*
X55621553Y-27358124D01*
X55638208Y-27371792D01*
X55651876Y-27388447D01*
X55662029Y-27407443D01*
X55668284Y-27428062D01*
X55671000Y-27455640D01*
X55671000Y-27914360D01*
X55668284Y-27941938D01*
X55662029Y-27962557D01*
X55651876Y-27981553D01*
X55638208Y-27998208D01*
X55621553Y-28011876D01*
X55602557Y-28022029D01*
X55581938Y-28028284D01*
X55554360Y-28031000D01*
X55045640Y-28031000D01*
X55018062Y-28028284D01*
X54997443Y-28022029D01*
X54978447Y-28011876D01*
X54961792Y-27998208D01*
X54948124Y-27981553D01*
X54937971Y-27962557D01*
X54931716Y-27941938D01*
X54929000Y-27914360D01*
X54929000Y-27455640D01*
X54931716Y-27428062D01*
X54937971Y-27407443D01*
X54948124Y-27388447D01*
X54961792Y-27371792D01*
X54978447Y-27358124D01*
X54997443Y-27347971D01*
X55018062Y-27341716D01*
X55045640Y-27339000D01*
X55554360Y-27339000D01*
X55581938Y-27341716D01*
X55581938Y-27341716D01*
G37*
G36*
X37746707Y-26498544D02*
G01*
X37767326Y-26504799D01*
X37786322Y-26514952D01*
X37807743Y-26532532D01*
X38167468Y-26892257D01*
X38185048Y-26913678D01*
X38195201Y-26932674D01*
X38201456Y-26953293D01*
X38203567Y-26974731D01*
X38201456Y-26996169D01*
X38195201Y-27016788D01*
X38185048Y-27035784D01*
X38167468Y-27057205D01*
X37843099Y-27381574D01*
X37821678Y-27399154D01*
X37802682Y-27409307D01*
X37782063Y-27415562D01*
X37760625Y-27417673D01*
X37739187Y-27415562D01*
X37718568Y-27409307D01*
X37699572Y-27399154D01*
X37678151Y-27381574D01*
X37318426Y-27021849D01*
X37300846Y-27000428D01*
X37290693Y-26981432D01*
X37284438Y-26960813D01*
X37282327Y-26939375D01*
X37284438Y-26917937D01*
X37290693Y-26897318D01*
X37300846Y-26878322D01*
X37318426Y-26856901D01*
X37642795Y-26532532D01*
X37664216Y-26514952D01*
X37683212Y-26504799D01*
X37703831Y-26498544D01*
X37725269Y-26496433D01*
X37746707Y-26498544D01*
X37746707Y-26498544D01*
G37*
G36*
X57284468Y-26228565D02*
G01*
X57323138Y-26240296D01*
X57358777Y-26259346D01*
X57390017Y-26284983D01*
X57415654Y-26316223D01*
X57434704Y-26351862D01*
X57446435Y-26390532D01*
X57451000Y-26436888D01*
X57451000Y-27088112D01*
X57446435Y-27134468D01*
X57434704Y-27173138D01*
X57415654Y-27208777D01*
X57390017Y-27240017D01*
X57358777Y-27265654D01*
X57323138Y-27284704D01*
X57284468Y-27296435D01*
X57238112Y-27301000D01*
X56161888Y-27301000D01*
X56115532Y-27296435D01*
X56076862Y-27284704D01*
X56041223Y-27265654D01*
X56009983Y-27240017D01*
X55984346Y-27208777D01*
X55965296Y-27173138D01*
X55953565Y-27134468D01*
X55949000Y-27088112D01*
X55949000Y-26436888D01*
X55953565Y-26390532D01*
X55965296Y-26351862D01*
X55984346Y-26316223D01*
X56009983Y-26284983D01*
X56041223Y-26259346D01*
X56076862Y-26240296D01*
X56115532Y-26228565D01*
X56161888Y-26224000D01*
X57238112Y-26224000D01*
X57284468Y-26228565D01*
X57284468Y-26228565D01*
G37*
G36*
X54426000Y-27281000D02*
G01*
X51774000Y-27281000D01*
X51774000Y-26119000D01*
X54426000Y-26119000D01*
X54426000Y-27281000D01*
X54426000Y-27281000D01*
G37*
G36*
X55581938Y-26371716D02*
G01*
X55602557Y-26377971D01*
X55621553Y-26388124D01*
X55638208Y-26401792D01*
X55651876Y-26418447D01*
X55662029Y-26437443D01*
X55668284Y-26458062D01*
X55671000Y-26485640D01*
X55671000Y-26944360D01*
X55668284Y-26971938D01*
X55662029Y-26992557D01*
X55651876Y-27011553D01*
X55638208Y-27028208D01*
X55621553Y-27041876D01*
X55602557Y-27052029D01*
X55581938Y-27058284D01*
X55554360Y-27061000D01*
X55045640Y-27061000D01*
X55018062Y-27058284D01*
X54997443Y-27052029D01*
X54978447Y-27041876D01*
X54961792Y-27028208D01*
X54948124Y-27011553D01*
X54937971Y-26992557D01*
X54931716Y-26971938D01*
X54929000Y-26944360D01*
X54929000Y-26485640D01*
X54931716Y-26458062D01*
X54937971Y-26437443D01*
X54948124Y-26418447D01*
X54961792Y-26401792D01*
X54978447Y-26388124D01*
X54997443Y-26377971D01*
X55018062Y-26371716D01*
X55045640Y-26369000D01*
X55554360Y-26369000D01*
X55581938Y-26371716D01*
X55581938Y-26371716D01*
G37*
G36*
X48951000Y-27051000D02*
G01*
X47649000Y-27051000D01*
X47649000Y-26049000D01*
X48951000Y-26049000D01*
X48951000Y-27051000D01*
X48951000Y-27051000D01*
G37*
G36*
X29941938Y-25631716D02*
G01*
X29962557Y-25637971D01*
X29981553Y-25648124D01*
X29998208Y-25661792D01*
X30011876Y-25678447D01*
X30022029Y-25697443D01*
X30028284Y-25718062D01*
X30031000Y-25745640D01*
X30031000Y-26254360D01*
X30028284Y-26281938D01*
X30022029Y-26302557D01*
X30011876Y-26321553D01*
X29998208Y-26338208D01*
X29981553Y-26351876D01*
X29962557Y-26362029D01*
X29941938Y-26368284D01*
X29914360Y-26371000D01*
X29455640Y-26371000D01*
X29428062Y-26368284D01*
X29407443Y-26362029D01*
X29388447Y-26351876D01*
X29371792Y-26338208D01*
X29358124Y-26321553D01*
X29347971Y-26302557D01*
X29341716Y-26281938D01*
X29339000Y-26254360D01*
X29339000Y-25745640D01*
X29341716Y-25718062D01*
X29347971Y-25697443D01*
X29358124Y-25678447D01*
X29371792Y-25661792D01*
X29388447Y-25648124D01*
X29407443Y-25637971D01*
X29428062Y-25631716D01*
X29455640Y-25629000D01*
X29914360Y-25629000D01*
X29941938Y-25631716D01*
X29941938Y-25631716D01*
G37*
G36*
X32341938Y-25631716D02*
G01*
X32362557Y-25637971D01*
X32381553Y-25648124D01*
X32398208Y-25661792D01*
X32411876Y-25678447D01*
X32422029Y-25697443D01*
X32428284Y-25718062D01*
X32431000Y-25745640D01*
X32431000Y-26254360D01*
X32428284Y-26281938D01*
X32422029Y-26302557D01*
X32411876Y-26321553D01*
X32398208Y-26338208D01*
X32381553Y-26351876D01*
X32362557Y-26362029D01*
X32341938Y-26368284D01*
X32314360Y-26371000D01*
X31855640Y-26371000D01*
X31828062Y-26368284D01*
X31807443Y-26362029D01*
X31788447Y-26351876D01*
X31771792Y-26338208D01*
X31758124Y-26321553D01*
X31747971Y-26302557D01*
X31741716Y-26281938D01*
X31739000Y-26254360D01*
X31739000Y-25745640D01*
X31741716Y-25718062D01*
X31747971Y-25697443D01*
X31758124Y-25678447D01*
X31771792Y-25661792D01*
X31788447Y-25648124D01*
X31807443Y-25637971D01*
X31828062Y-25631716D01*
X31855640Y-25629000D01*
X32314360Y-25629000D01*
X32341938Y-25631716D01*
X32341938Y-25631716D01*
G37*
G36*
X31371938Y-25631716D02*
G01*
X31392557Y-25637971D01*
X31411553Y-25648124D01*
X31428208Y-25661792D01*
X31441876Y-25678447D01*
X31452029Y-25697443D01*
X31458284Y-25718062D01*
X31461000Y-25745640D01*
X31461000Y-26254360D01*
X31458284Y-26281938D01*
X31452029Y-26302557D01*
X31441876Y-26321553D01*
X31428208Y-26338208D01*
X31411553Y-26351876D01*
X31392557Y-26362029D01*
X31371938Y-26368284D01*
X31344360Y-26371000D01*
X30885640Y-26371000D01*
X30858062Y-26368284D01*
X30837443Y-26362029D01*
X30818447Y-26351876D01*
X30801792Y-26338208D01*
X30788124Y-26321553D01*
X30777971Y-26302557D01*
X30771716Y-26281938D01*
X30769000Y-26254360D01*
X30769000Y-25745640D01*
X30771716Y-25718062D01*
X30777971Y-25697443D01*
X30788124Y-25678447D01*
X30801792Y-25661792D01*
X30818447Y-25648124D01*
X30837443Y-25637971D01*
X30858062Y-25631716D01*
X30885640Y-25629000D01*
X31344360Y-25629000D01*
X31371938Y-25631716D01*
X31371938Y-25631716D01*
G37*
G36*
X28971938Y-25631716D02*
G01*
X28992557Y-25637971D01*
X29011553Y-25648124D01*
X29028208Y-25661792D01*
X29041876Y-25678447D01*
X29052029Y-25697443D01*
X29058284Y-25718062D01*
X29061000Y-25745640D01*
X29061000Y-26254360D01*
X29058284Y-26281938D01*
X29052029Y-26302557D01*
X29041876Y-26321553D01*
X29028208Y-26338208D01*
X29011553Y-26351876D01*
X28992557Y-26362029D01*
X28971938Y-26368284D01*
X28944360Y-26371000D01*
X28485640Y-26371000D01*
X28458062Y-26368284D01*
X28437443Y-26362029D01*
X28418447Y-26351876D01*
X28401792Y-26338208D01*
X28388124Y-26321553D01*
X28377971Y-26302557D01*
X28371716Y-26281938D01*
X28369000Y-26254360D01*
X28369000Y-25745640D01*
X28371716Y-25718062D01*
X28377971Y-25697443D01*
X28388124Y-25678447D01*
X28401792Y-25661792D01*
X28418447Y-25648124D01*
X28437443Y-25637971D01*
X28458062Y-25631716D01*
X28485640Y-25629000D01*
X28944360Y-25629000D01*
X28971938Y-25631716D01*
X28971938Y-25631716D01*
G37*
G36*
X34481938Y-25541716D02*
G01*
X34502557Y-25547971D01*
X34521553Y-25558124D01*
X34538208Y-25571792D01*
X34551876Y-25588447D01*
X34562029Y-25607443D01*
X34568284Y-25628062D01*
X34571000Y-25655640D01*
X34571000Y-26114360D01*
X34568284Y-26141938D01*
X34562029Y-26162557D01*
X34551876Y-26181553D01*
X34538208Y-26198208D01*
X34521553Y-26211876D01*
X34502557Y-26222029D01*
X34481938Y-26228284D01*
X34454360Y-26231000D01*
X33945640Y-26231000D01*
X33918062Y-26228284D01*
X33897443Y-26222029D01*
X33878447Y-26211876D01*
X33861792Y-26198208D01*
X33848124Y-26181553D01*
X33837971Y-26162557D01*
X33831716Y-26141938D01*
X33829000Y-26114360D01*
X33829000Y-25655640D01*
X33831716Y-25628062D01*
X33837971Y-25607443D01*
X33848124Y-25588447D01*
X33861792Y-25571792D01*
X33878447Y-25558124D01*
X33897443Y-25547971D01*
X33918062Y-25541716D01*
X33945640Y-25539000D01*
X34454360Y-25539000D01*
X34481938Y-25541716D01*
X34481938Y-25541716D01*
G37*
G36*
X35481938Y-25541715D02*
G01*
X35502557Y-25547970D01*
X35521553Y-25558123D01*
X35538208Y-25571791D01*
X35551876Y-25588446D01*
X35562029Y-25607442D01*
X35568284Y-25628061D01*
X35571000Y-25655639D01*
X35571000Y-26114359D01*
X35568284Y-26141937D01*
X35562029Y-26162556D01*
X35551876Y-26181552D01*
X35538208Y-26198207D01*
X35521553Y-26211875D01*
X35502557Y-26222028D01*
X35481938Y-26228283D01*
X35454360Y-26230999D01*
X34945640Y-26230999D01*
X34918062Y-26228283D01*
X34897443Y-26222028D01*
X34878447Y-26211875D01*
X34861792Y-26198207D01*
X34848124Y-26181552D01*
X34837971Y-26162556D01*
X34831716Y-26141937D01*
X34829000Y-26114359D01*
X34829000Y-25655639D01*
X34831716Y-25628061D01*
X34837971Y-25607442D01*
X34848124Y-25588446D01*
X34861792Y-25571791D01*
X34878447Y-25558123D01*
X34897443Y-25547970D01*
X34918062Y-25541715D01*
X34945640Y-25538999D01*
X35454360Y-25538999D01*
X35481938Y-25541715D01*
X35481938Y-25541715D01*
G37*
G36*
X50984468Y-25128565D02*
G01*
X51023138Y-25140296D01*
X51058777Y-25159346D01*
X51090017Y-25184983D01*
X51115654Y-25216223D01*
X51134704Y-25251862D01*
X51146435Y-25290532D01*
X51151000Y-25336888D01*
X51151000Y-25988112D01*
X51146435Y-26034468D01*
X51134704Y-26073138D01*
X51115654Y-26108777D01*
X51090017Y-26140017D01*
X51058777Y-26165654D01*
X51023138Y-26184704D01*
X50984468Y-26196435D01*
X50938112Y-26201000D01*
X49861888Y-26201000D01*
X49815532Y-26196435D01*
X49776862Y-26184704D01*
X49741223Y-26165654D01*
X49709983Y-26140017D01*
X49684346Y-26108777D01*
X49665296Y-26073138D01*
X49653565Y-26034468D01*
X49649000Y-25988112D01*
X49649000Y-25336888D01*
X49653565Y-25290532D01*
X49665296Y-25251862D01*
X49684346Y-25216223D01*
X49709983Y-25184983D01*
X49741223Y-25159346D01*
X49776862Y-25140296D01*
X49815532Y-25128565D01*
X49861888Y-25124000D01*
X50938112Y-25124000D01*
X50984468Y-25128565D01*
X50984468Y-25128565D01*
G37*
G36*
X25034671Y-25318449D02*
G01*
X25034673Y-25318450D01*
X25034674Y-25318450D01*
X25103102Y-25346793D01*
X25164685Y-25387942D01*
X25217057Y-25440314D01*
X25258206Y-25501897D01*
X25286549Y-25570325D01*
X25286550Y-25570328D01*
X25300999Y-25642966D01*
X25300999Y-25717034D01*
X25288735Y-25778690D01*
X25286549Y-25789675D01*
X25258206Y-25858103D01*
X25217057Y-25919686D01*
X25164685Y-25972058D01*
X25103102Y-26013207D01*
X25034674Y-26041550D01*
X25034673Y-26041550D01*
X25034671Y-26041551D01*
X24962033Y-26056000D01*
X24887965Y-26056000D01*
X24815327Y-26041551D01*
X24815325Y-26041550D01*
X24815324Y-26041550D01*
X24746896Y-26013207D01*
X24685313Y-25972058D01*
X24632941Y-25919686D01*
X24591792Y-25858103D01*
X24563449Y-25789675D01*
X24561264Y-25778690D01*
X24548999Y-25717034D01*
X24548999Y-25642966D01*
X24563448Y-25570328D01*
X24563449Y-25570325D01*
X24591792Y-25501897D01*
X24632941Y-25440314D01*
X24685313Y-25387942D01*
X24746896Y-25346793D01*
X24815324Y-25318450D01*
X24815325Y-25318450D01*
X24815327Y-25318449D01*
X24887965Y-25304000D01*
X24962033Y-25304000D01*
X25034671Y-25318449D01*
X25034671Y-25318449D01*
G37*
G36*
X60101000Y-25751000D02*
G01*
X58299000Y-25751000D01*
X58299000Y-23949000D01*
X60101000Y-23949000D01*
X60101000Y-25751000D01*
X60101000Y-25751000D01*
G37*
G36*
X57451000Y-25601000D02*
G01*
X56549000Y-25601000D01*
X56549000Y-22799000D01*
X57451000Y-22799000D01*
X57451000Y-25601000D01*
X57451000Y-25601000D01*
G37*
G36*
X55251000Y-25601000D02*
G01*
X54349000Y-25601000D01*
X54349000Y-22799000D01*
X55251000Y-22799000D01*
X55251000Y-25601000D01*
X55251000Y-25601000D01*
G37*
G36*
X29941938Y-24531716D02*
G01*
X29962557Y-24537971D01*
X29981553Y-24548124D01*
X29998208Y-24561792D01*
X30011876Y-24578447D01*
X30022029Y-24597443D01*
X30028284Y-24618062D01*
X30031000Y-24645640D01*
X30031000Y-25154360D01*
X30028284Y-25181938D01*
X30022029Y-25202557D01*
X30011876Y-25221553D01*
X29998208Y-25238208D01*
X29981553Y-25251876D01*
X29962557Y-25262029D01*
X29941938Y-25268284D01*
X29914360Y-25271000D01*
X29455640Y-25271000D01*
X29428062Y-25268284D01*
X29407443Y-25262029D01*
X29388447Y-25251876D01*
X29371792Y-25238208D01*
X29358124Y-25221553D01*
X29347971Y-25202557D01*
X29341716Y-25181938D01*
X29339000Y-25154360D01*
X29339000Y-24645640D01*
X29341716Y-24618062D01*
X29347971Y-24597443D01*
X29358124Y-24578447D01*
X29371792Y-24561792D01*
X29388447Y-24548124D01*
X29407443Y-24537971D01*
X29428062Y-24531716D01*
X29455640Y-24529000D01*
X29914360Y-24529000D01*
X29941938Y-24531716D01*
X29941938Y-24531716D01*
G37*
G36*
X28971938Y-24531716D02*
G01*
X28992557Y-24537971D01*
X29011553Y-24548124D01*
X29028208Y-24561792D01*
X29041876Y-24578447D01*
X29052029Y-24597443D01*
X29058284Y-24618062D01*
X29061000Y-24645640D01*
X29061000Y-25154360D01*
X29058284Y-25181938D01*
X29052029Y-25202557D01*
X29041876Y-25221553D01*
X29028208Y-25238208D01*
X29011553Y-25251876D01*
X28992557Y-25262029D01*
X28971938Y-25268284D01*
X28944360Y-25271000D01*
X28485640Y-25271000D01*
X28458062Y-25268284D01*
X28437443Y-25262029D01*
X28418447Y-25251876D01*
X28401792Y-25238208D01*
X28388124Y-25221553D01*
X28377971Y-25202557D01*
X28371716Y-25181938D01*
X28369000Y-25154360D01*
X28369000Y-24645640D01*
X28371716Y-24618062D01*
X28377971Y-24597443D01*
X28388124Y-24578447D01*
X28401792Y-24561792D01*
X28418447Y-24548124D01*
X28437443Y-24537971D01*
X28458062Y-24531716D01*
X28485640Y-24529000D01*
X28944360Y-24529000D01*
X28971938Y-24531716D01*
X28971938Y-24531716D01*
G37*
G36*
X34481938Y-24571716D02*
G01*
X34502557Y-24577971D01*
X34521553Y-24588124D01*
X34538208Y-24601792D01*
X34551876Y-24618447D01*
X34562029Y-24637443D01*
X34568284Y-24658062D01*
X34571000Y-24685640D01*
X34571000Y-25144360D01*
X34568284Y-25171938D01*
X34562029Y-25192557D01*
X34551876Y-25211553D01*
X34538208Y-25228208D01*
X34521553Y-25241876D01*
X34502557Y-25252029D01*
X34481938Y-25258284D01*
X34454360Y-25261000D01*
X33945640Y-25261000D01*
X33918062Y-25258284D01*
X33897443Y-25252029D01*
X33878447Y-25241876D01*
X33861792Y-25228208D01*
X33848124Y-25211553D01*
X33837971Y-25192557D01*
X33831716Y-25171938D01*
X33829000Y-25144360D01*
X33829000Y-24685640D01*
X33831716Y-24658062D01*
X33837971Y-24637443D01*
X33848124Y-24618447D01*
X33861792Y-24601792D01*
X33878447Y-24588124D01*
X33897443Y-24577971D01*
X33918062Y-24571716D01*
X33945640Y-24569000D01*
X34454360Y-24569000D01*
X34481938Y-24571716D01*
X34481938Y-24571716D01*
G37*
G36*
X35481938Y-24571715D02*
G01*
X35502557Y-24577970D01*
X35521553Y-24588123D01*
X35538208Y-24601791D01*
X35551876Y-24618446D01*
X35562029Y-24637442D01*
X35568284Y-24658061D01*
X35571000Y-24685639D01*
X35571000Y-25144359D01*
X35568284Y-25171937D01*
X35562029Y-25192556D01*
X35551876Y-25211552D01*
X35538208Y-25228207D01*
X35521553Y-25241875D01*
X35502557Y-25252028D01*
X35481938Y-25258283D01*
X35454360Y-25260999D01*
X34945640Y-25260999D01*
X34918062Y-25258283D01*
X34897443Y-25252028D01*
X34878447Y-25241875D01*
X34861792Y-25228207D01*
X34848124Y-25211552D01*
X34837971Y-25192556D01*
X34831716Y-25171937D01*
X34829000Y-25144359D01*
X34829000Y-24685639D01*
X34831716Y-24658061D01*
X34837971Y-24637442D01*
X34848124Y-24618446D01*
X34861792Y-24601791D01*
X34878447Y-24588123D01*
X34897443Y-24577970D01*
X34918062Y-24571715D01*
X34945640Y-24568999D01*
X35454360Y-24568999D01*
X35481938Y-24571715D01*
X35481938Y-24571715D01*
G37*
G36*
X45882063Y-24284438D02*
G01*
X45902682Y-24290693D01*
X45921678Y-24300846D01*
X45943099Y-24318426D01*
X46267468Y-24642795D01*
X46285048Y-24664216D01*
X46295201Y-24683212D01*
X46301456Y-24703831D01*
X46303567Y-24725269D01*
X46301456Y-24746707D01*
X46295202Y-24767324D01*
X46285048Y-24786322D01*
X46267468Y-24807743D01*
X45907743Y-25167468D01*
X45886322Y-25185048D01*
X45867326Y-25195201D01*
X45846707Y-25201456D01*
X45825269Y-25203567D01*
X45803831Y-25201456D01*
X45783212Y-25195201D01*
X45764216Y-25185048D01*
X45742795Y-25167468D01*
X45418426Y-24843099D01*
X45400846Y-24821678D01*
X45390693Y-24802682D01*
X45384438Y-24782063D01*
X45382327Y-24760625D01*
X45384438Y-24739187D01*
X45390693Y-24718568D01*
X45400846Y-24699572D01*
X45418426Y-24678151D01*
X45778151Y-24318426D01*
X45799572Y-24300846D01*
X45818568Y-24290693D01*
X45839187Y-24284438D01*
X45860625Y-24282327D01*
X45882063Y-24284438D01*
X45882063Y-24284438D01*
G37*
G36*
X21683014Y-23706973D02*
G01*
X21786878Y-23738479D01*
X21810303Y-23751000D01*
X21882599Y-23789643D01*
X21966500Y-23858499D01*
X22035356Y-23942400D01*
X22064710Y-23997318D01*
X22086520Y-24038121D01*
X22118026Y-24141985D01*
X22128665Y-24250000D01*
X22118026Y-24358015D01*
X22086520Y-24461879D01*
X22074382Y-24484587D01*
X22035356Y-24557600D01*
X21966500Y-24641501D01*
X21882599Y-24710357D01*
X21814592Y-24746707D01*
X21786878Y-24761521D01*
X21683014Y-24793027D01*
X21602066Y-24801000D01*
X20947932Y-24801000D01*
X20866984Y-24793027D01*
X20763120Y-24761521D01*
X20735406Y-24746707D01*
X20667399Y-24710357D01*
X20583498Y-24641501D01*
X20514642Y-24557600D01*
X20475616Y-24484587D01*
X20463478Y-24461879D01*
X20431972Y-24358015D01*
X20421333Y-24250000D01*
X20431972Y-24141985D01*
X20463478Y-24038121D01*
X20485288Y-23997318D01*
X20514642Y-23942400D01*
X20583498Y-23858499D01*
X20667399Y-23789643D01*
X20739695Y-23751000D01*
X20763120Y-23738479D01*
X20866984Y-23706973D01*
X20947932Y-23699000D01*
X21602066Y-23699000D01*
X21683014Y-23706973D01*
X21683014Y-23706973D01*
G37*
G36*
X45196169Y-23598544D02*
G01*
X45216788Y-23604799D01*
X45235784Y-23614952D01*
X45257205Y-23632532D01*
X45581574Y-23956901D01*
X45599154Y-23978322D01*
X45609307Y-23997318D01*
X45615562Y-24017937D01*
X45617673Y-24039375D01*
X45615562Y-24060813D01*
X45609307Y-24081432D01*
X45599154Y-24100428D01*
X45581574Y-24121849D01*
X45221849Y-24481574D01*
X45200428Y-24499154D01*
X45181432Y-24509307D01*
X45160813Y-24515562D01*
X45139375Y-24517673D01*
X45117937Y-24515562D01*
X45097318Y-24509307D01*
X45078322Y-24499154D01*
X45056901Y-24481574D01*
X44732532Y-24157205D01*
X44714952Y-24135784D01*
X44704799Y-24116788D01*
X44698544Y-24096169D01*
X44696433Y-24074731D01*
X44698544Y-24053293D01*
X44704799Y-24032674D01*
X44714952Y-24013678D01*
X44732532Y-23992257D01*
X45092257Y-23632532D01*
X45113678Y-23614952D01*
X45132674Y-23604799D01*
X45153293Y-23598544D01*
X45174731Y-23596433D01*
X45196169Y-23598544D01*
X45196169Y-23598544D01*
G37*
G36*
X50551000Y-24351000D02*
G01*
X49549000Y-24351000D01*
X49549000Y-23049000D01*
X50551000Y-23049000D01*
X50551000Y-24351000D01*
X50551000Y-24351000D01*
G37*
G36*
X53851000Y-24351000D02*
G01*
X52849000Y-24351000D01*
X52849000Y-23049000D01*
X53851000Y-23049000D01*
X53851000Y-24351000D01*
X53851000Y-24351000D01*
G37*
G36*
X28054591Y-23078085D02*
G01*
X28088569Y-23088393D01*
X28119890Y-23105134D01*
X28147339Y-23127661D01*
X28169866Y-23155110D01*
X28186607Y-23186431D01*
X28196915Y-23220409D01*
X28201000Y-23261890D01*
X28201000Y-23938110D01*
X28196915Y-23979591D01*
X28186607Y-24013569D01*
X28169866Y-24044890D01*
X28147339Y-24072339D01*
X28119890Y-24094866D01*
X28088569Y-24111607D01*
X28054591Y-24121915D01*
X28013110Y-24126000D01*
X27411890Y-24126000D01*
X27370409Y-24121915D01*
X27336431Y-24111607D01*
X27305110Y-24094866D01*
X27277661Y-24072339D01*
X27255134Y-24044890D01*
X27238393Y-24013569D01*
X27228085Y-23979591D01*
X27224000Y-23938110D01*
X27224000Y-23261890D01*
X27228085Y-23220409D01*
X27238393Y-23186431D01*
X27255134Y-23155110D01*
X27277661Y-23127661D01*
X27305110Y-23105134D01*
X27336431Y-23088393D01*
X27370409Y-23078085D01*
X27411890Y-23074000D01*
X28013110Y-23074000D01*
X28054591Y-23078085D01*
X28054591Y-23078085D01*
G37*
G36*
X29629591Y-23078085D02*
G01*
X29663569Y-23088393D01*
X29694890Y-23105134D01*
X29722339Y-23127661D01*
X29744866Y-23155110D01*
X29761607Y-23186431D01*
X29771915Y-23220409D01*
X29776000Y-23261890D01*
X29776000Y-23938110D01*
X29771915Y-23979591D01*
X29761607Y-24013569D01*
X29744866Y-24044890D01*
X29722339Y-24072339D01*
X29694890Y-24094866D01*
X29663569Y-24111607D01*
X29629591Y-24121915D01*
X29588110Y-24126000D01*
X28986890Y-24126000D01*
X28945409Y-24121915D01*
X28911431Y-24111607D01*
X28880110Y-24094866D01*
X28852661Y-24072339D01*
X28830134Y-24044890D01*
X28813393Y-24013569D01*
X28803085Y-23979591D01*
X28799000Y-23938110D01*
X28799000Y-23261890D01*
X28803085Y-23220409D01*
X28813393Y-23186431D01*
X28830134Y-23155110D01*
X28852661Y-23127661D01*
X28880110Y-23105134D01*
X28911431Y-23088393D01*
X28945409Y-23078085D01*
X28986890Y-23074000D01*
X29588110Y-23074000D01*
X29629591Y-23078085D01*
X29629591Y-23078085D01*
G37*
G36*
X48951000Y-23751000D02*
G01*
X47649000Y-23751000D01*
X47649000Y-22749000D01*
X48951000Y-22749000D01*
X48951000Y-23751000D01*
X48951000Y-23751000D01*
G37*
G36*
X59370443Y-20205519D02*
G01*
X59436627Y-20212037D01*
X59606466Y-20263557D01*
X59762991Y-20347222D01*
X59798729Y-20376552D01*
X59900186Y-20459814D01*
X59983448Y-20561271D01*
X60012778Y-20597009D01*
X60096443Y-20753534D01*
X60147963Y-20923373D01*
X60165359Y-21100000D01*
X60147963Y-21276627D01*
X60096443Y-21446466D01*
X60012778Y-21602991D01*
X59983448Y-21638729D01*
X59900186Y-21740186D01*
X59798729Y-21823448D01*
X59762991Y-21852778D01*
X59606466Y-21936443D01*
X59436627Y-21987963D01*
X59370443Y-21994481D01*
X59304260Y-22001000D01*
X59215740Y-22001000D01*
X59149557Y-21994481D01*
X59083373Y-21987963D01*
X58913534Y-21936443D01*
X58757009Y-21852778D01*
X58721271Y-21823448D01*
X58619814Y-21740186D01*
X58536552Y-21638729D01*
X58507222Y-21602991D01*
X58423557Y-21446466D01*
X58372037Y-21276627D01*
X58354641Y-21100000D01*
X58372037Y-20923373D01*
X58423557Y-20753534D01*
X58507222Y-20597009D01*
X58536552Y-20561271D01*
X58619814Y-20459814D01*
X58721271Y-20376552D01*
X58757009Y-20347222D01*
X58913534Y-20263557D01*
X59083373Y-20212037D01*
X59149557Y-20205519D01*
X59215740Y-20199000D01*
X59304260Y-20199000D01*
X59370443Y-20205519D01*
X59370443Y-20205519D01*
G37*
G36*
X56830443Y-20205519D02*
G01*
X56896627Y-20212037D01*
X57066466Y-20263557D01*
X57222991Y-20347222D01*
X57258729Y-20376552D01*
X57360186Y-20459814D01*
X57443448Y-20561271D01*
X57472778Y-20597009D01*
X57556443Y-20753534D01*
X57607963Y-20923373D01*
X57625359Y-21100000D01*
X57607963Y-21276627D01*
X57556443Y-21446466D01*
X57472778Y-21602991D01*
X57443448Y-21638729D01*
X57360186Y-21740186D01*
X57258729Y-21823448D01*
X57222991Y-21852778D01*
X57066466Y-21936443D01*
X56896627Y-21987963D01*
X56830443Y-21994481D01*
X56764260Y-22001000D01*
X56675740Y-22001000D01*
X56609557Y-21994481D01*
X56543373Y-21987963D01*
X56373534Y-21936443D01*
X56217009Y-21852778D01*
X56181271Y-21823448D01*
X56079814Y-21740186D01*
X55996552Y-21638729D01*
X55967222Y-21602991D01*
X55883557Y-21446466D01*
X55832037Y-21276627D01*
X55814641Y-21100000D01*
X55832037Y-20923373D01*
X55883557Y-20753534D01*
X55967222Y-20597009D01*
X55996552Y-20561271D01*
X56079814Y-20459814D01*
X56181271Y-20376552D01*
X56217009Y-20347222D01*
X56373534Y-20263557D01*
X56543373Y-20212037D01*
X56609557Y-20205519D01*
X56675740Y-20199000D01*
X56764260Y-20199000D01*
X56830443Y-20205519D01*
X56830443Y-20205519D01*
G37*
G36*
X24601000Y-22001000D02*
G01*
X22799000Y-22001000D01*
X22799000Y-20199000D01*
X24601000Y-20199000D01*
X24601000Y-22001000D01*
X24601000Y-22001000D01*
G37*
G36*
X26350443Y-20205519D02*
G01*
X26416627Y-20212037D01*
X26586466Y-20263557D01*
X26742991Y-20347222D01*
X26778729Y-20376552D01*
X26880186Y-20459814D01*
X26963448Y-20561271D01*
X26992778Y-20597009D01*
X27076443Y-20753534D01*
X27127963Y-20923373D01*
X27145359Y-21100000D01*
X27127963Y-21276627D01*
X27076443Y-21446466D01*
X26992778Y-21602991D01*
X26963448Y-21638729D01*
X26880186Y-21740186D01*
X26778729Y-21823448D01*
X26742991Y-21852778D01*
X26586466Y-21936443D01*
X26416627Y-21987963D01*
X26350443Y-21994481D01*
X26284260Y-22001000D01*
X26195740Y-22001000D01*
X26129557Y-21994481D01*
X26063373Y-21987963D01*
X25893534Y-21936443D01*
X25737009Y-21852778D01*
X25701271Y-21823448D01*
X25599814Y-21740186D01*
X25516552Y-21638729D01*
X25487222Y-21602991D01*
X25403557Y-21446466D01*
X25352037Y-21276627D01*
X25334641Y-21100000D01*
X25352037Y-20923373D01*
X25403557Y-20753534D01*
X25487222Y-20597009D01*
X25516552Y-20561271D01*
X25599814Y-20459814D01*
X25701271Y-20376552D01*
X25737009Y-20347222D01*
X25893534Y-20263557D01*
X26063373Y-20212037D01*
X26129557Y-20205519D01*
X26195740Y-20199000D01*
X26284260Y-20199000D01*
X26350443Y-20205519D01*
X26350443Y-20205519D01*
G37*
G36*
X28890443Y-20205519D02*
G01*
X28956627Y-20212037D01*
X29126466Y-20263557D01*
X29282991Y-20347222D01*
X29318729Y-20376552D01*
X29420186Y-20459814D01*
X29503448Y-20561271D01*
X29532778Y-20597009D01*
X29616443Y-20753534D01*
X29667963Y-20923373D01*
X29685359Y-21100000D01*
X29667963Y-21276627D01*
X29616443Y-21446466D01*
X29532778Y-21602991D01*
X29503448Y-21638729D01*
X29420186Y-21740186D01*
X29318729Y-21823448D01*
X29282991Y-21852778D01*
X29126466Y-21936443D01*
X28956627Y-21987963D01*
X28890443Y-21994481D01*
X28824260Y-22001000D01*
X28735740Y-22001000D01*
X28669557Y-21994481D01*
X28603373Y-21987963D01*
X28433534Y-21936443D01*
X28277009Y-21852778D01*
X28241271Y-21823448D01*
X28139814Y-21740186D01*
X28056552Y-21638729D01*
X28027222Y-21602991D01*
X27943557Y-21446466D01*
X27892037Y-21276627D01*
X27874641Y-21100000D01*
X27892037Y-20923373D01*
X27943557Y-20753534D01*
X28027222Y-20597009D01*
X28056552Y-20561271D01*
X28139814Y-20459814D01*
X28241271Y-20376552D01*
X28277009Y-20347222D01*
X28433534Y-20263557D01*
X28603373Y-20212037D01*
X28669557Y-20205519D01*
X28735740Y-20199000D01*
X28824260Y-20199000D01*
X28890443Y-20205519D01*
X28890443Y-20205519D01*
G37*
G36*
X31430443Y-20205519D02*
G01*
X31496627Y-20212037D01*
X31666466Y-20263557D01*
X31822991Y-20347222D01*
X31858729Y-20376552D01*
X31960186Y-20459814D01*
X32043448Y-20561271D01*
X32072778Y-20597009D01*
X32156443Y-20753534D01*
X32207963Y-20923373D01*
X32225359Y-21100000D01*
X32207963Y-21276627D01*
X32156443Y-21446466D01*
X32072778Y-21602991D01*
X32043448Y-21638729D01*
X31960186Y-21740186D01*
X31858729Y-21823448D01*
X31822991Y-21852778D01*
X31666466Y-21936443D01*
X31496627Y-21987963D01*
X31430443Y-21994481D01*
X31364260Y-22001000D01*
X31275740Y-22001000D01*
X31209557Y-21994481D01*
X31143373Y-21987963D01*
X30973534Y-21936443D01*
X30817009Y-21852778D01*
X30781271Y-21823448D01*
X30679814Y-21740186D01*
X30596552Y-21638729D01*
X30567222Y-21602991D01*
X30483557Y-21446466D01*
X30432037Y-21276627D01*
X30414641Y-21100000D01*
X30432037Y-20923373D01*
X30483557Y-20753534D01*
X30567222Y-20597009D01*
X30596552Y-20561271D01*
X30679814Y-20459814D01*
X30781271Y-20376552D01*
X30817009Y-20347222D01*
X30973534Y-20263557D01*
X31143373Y-20212037D01*
X31209557Y-20205519D01*
X31275740Y-20199000D01*
X31364260Y-20199000D01*
X31430443Y-20205519D01*
X31430443Y-20205519D01*
G37*
G36*
X33970443Y-20205519D02*
G01*
X34036627Y-20212037D01*
X34206466Y-20263557D01*
X34362991Y-20347222D01*
X34398729Y-20376552D01*
X34500186Y-20459814D01*
X34583448Y-20561271D01*
X34612778Y-20597009D01*
X34696443Y-20753534D01*
X34747963Y-20923373D01*
X34765359Y-21100000D01*
X34747963Y-21276627D01*
X34696443Y-21446466D01*
X34612778Y-21602991D01*
X34583448Y-21638729D01*
X34500186Y-21740186D01*
X34398729Y-21823448D01*
X34362991Y-21852778D01*
X34206466Y-21936443D01*
X34036627Y-21987963D01*
X33970443Y-21994481D01*
X33904260Y-22001000D01*
X33815740Y-22001000D01*
X33749557Y-21994481D01*
X33683373Y-21987963D01*
X33513534Y-21936443D01*
X33357009Y-21852778D01*
X33321271Y-21823448D01*
X33219814Y-21740186D01*
X33136552Y-21638729D01*
X33107222Y-21602991D01*
X33023557Y-21446466D01*
X32972037Y-21276627D01*
X32954641Y-21100000D01*
X32972037Y-20923373D01*
X33023557Y-20753534D01*
X33107222Y-20597009D01*
X33136552Y-20561271D01*
X33219814Y-20459814D01*
X33321271Y-20376552D01*
X33357009Y-20347222D01*
X33513534Y-20263557D01*
X33683373Y-20212037D01*
X33749557Y-20205519D01*
X33815740Y-20199000D01*
X33904260Y-20199000D01*
X33970443Y-20205519D01*
X33970443Y-20205519D01*
G37*
G36*
X36510443Y-20205519D02*
G01*
X36576627Y-20212037D01*
X36746466Y-20263557D01*
X36902991Y-20347222D01*
X36938729Y-20376552D01*
X37040186Y-20459814D01*
X37123448Y-20561271D01*
X37152778Y-20597009D01*
X37236443Y-20753534D01*
X37287963Y-20923373D01*
X37305359Y-21100000D01*
X37287963Y-21276627D01*
X37236443Y-21446466D01*
X37152778Y-21602991D01*
X37123448Y-21638729D01*
X37040186Y-21740186D01*
X36938729Y-21823448D01*
X36902991Y-21852778D01*
X36746466Y-21936443D01*
X36576627Y-21987963D01*
X36510443Y-21994481D01*
X36444260Y-22001000D01*
X36355740Y-22001000D01*
X36289557Y-21994481D01*
X36223373Y-21987963D01*
X36053534Y-21936443D01*
X35897009Y-21852778D01*
X35861271Y-21823448D01*
X35759814Y-21740186D01*
X35676552Y-21638729D01*
X35647222Y-21602991D01*
X35563557Y-21446466D01*
X35512037Y-21276627D01*
X35494641Y-21100000D01*
X35512037Y-20923373D01*
X35563557Y-20753534D01*
X35647222Y-20597009D01*
X35676552Y-20561271D01*
X35759814Y-20459814D01*
X35861271Y-20376552D01*
X35897009Y-20347222D01*
X36053534Y-20263557D01*
X36223373Y-20212037D01*
X36289557Y-20205519D01*
X36355740Y-20199000D01*
X36444260Y-20199000D01*
X36510443Y-20205519D01*
X36510443Y-20205519D01*
G37*
G36*
X39050443Y-20205519D02*
G01*
X39116627Y-20212037D01*
X39286466Y-20263557D01*
X39442991Y-20347222D01*
X39478729Y-20376552D01*
X39580186Y-20459814D01*
X39663448Y-20561271D01*
X39692778Y-20597009D01*
X39776443Y-20753534D01*
X39827963Y-20923373D01*
X39845359Y-21100000D01*
X39827963Y-21276627D01*
X39776443Y-21446466D01*
X39692778Y-21602991D01*
X39663448Y-21638729D01*
X39580186Y-21740186D01*
X39478729Y-21823448D01*
X39442991Y-21852778D01*
X39286466Y-21936443D01*
X39116627Y-21987963D01*
X39050443Y-21994481D01*
X38984260Y-22001000D01*
X38895740Y-22001000D01*
X38829557Y-21994481D01*
X38763373Y-21987963D01*
X38593534Y-21936443D01*
X38437009Y-21852778D01*
X38401271Y-21823448D01*
X38299814Y-21740186D01*
X38216552Y-21638729D01*
X38187222Y-21602991D01*
X38103557Y-21446466D01*
X38052037Y-21276627D01*
X38034641Y-21100000D01*
X38052037Y-20923373D01*
X38103557Y-20753534D01*
X38187222Y-20597009D01*
X38216552Y-20561271D01*
X38299814Y-20459814D01*
X38401271Y-20376552D01*
X38437009Y-20347222D01*
X38593534Y-20263557D01*
X38763373Y-20212037D01*
X38829557Y-20205519D01*
X38895740Y-20199000D01*
X38984260Y-20199000D01*
X39050443Y-20205519D01*
X39050443Y-20205519D01*
G37*
G36*
X41590443Y-20205519D02*
G01*
X41656627Y-20212037D01*
X41826466Y-20263557D01*
X41982991Y-20347222D01*
X42018729Y-20376552D01*
X42120186Y-20459814D01*
X42203448Y-20561271D01*
X42232778Y-20597009D01*
X42316443Y-20753534D01*
X42367963Y-20923373D01*
X42385359Y-21100000D01*
X42367963Y-21276627D01*
X42316443Y-21446466D01*
X42232778Y-21602991D01*
X42203448Y-21638729D01*
X42120186Y-21740186D01*
X42018729Y-21823448D01*
X41982991Y-21852778D01*
X41826466Y-21936443D01*
X41656627Y-21987963D01*
X41590443Y-21994481D01*
X41524260Y-22001000D01*
X41435740Y-22001000D01*
X41369557Y-21994481D01*
X41303373Y-21987963D01*
X41133534Y-21936443D01*
X40977009Y-21852778D01*
X40941271Y-21823448D01*
X40839814Y-21740186D01*
X40756552Y-21638729D01*
X40727222Y-21602991D01*
X40643557Y-21446466D01*
X40592037Y-21276627D01*
X40574641Y-21100000D01*
X40592037Y-20923373D01*
X40643557Y-20753534D01*
X40727222Y-20597009D01*
X40756552Y-20561271D01*
X40839814Y-20459814D01*
X40941271Y-20376552D01*
X40977009Y-20347222D01*
X41133534Y-20263557D01*
X41303373Y-20212037D01*
X41369557Y-20205519D01*
X41435740Y-20199000D01*
X41524260Y-20199000D01*
X41590443Y-20205519D01*
X41590443Y-20205519D01*
G37*
G36*
X44130443Y-20205519D02*
G01*
X44196627Y-20212037D01*
X44366466Y-20263557D01*
X44522991Y-20347222D01*
X44558729Y-20376552D01*
X44660186Y-20459814D01*
X44743448Y-20561271D01*
X44772778Y-20597009D01*
X44856443Y-20753534D01*
X44907963Y-20923373D01*
X44925359Y-21100000D01*
X44907963Y-21276627D01*
X44856443Y-21446466D01*
X44772778Y-21602991D01*
X44743448Y-21638729D01*
X44660186Y-21740186D01*
X44558729Y-21823448D01*
X44522991Y-21852778D01*
X44366466Y-21936443D01*
X44196627Y-21987963D01*
X44130443Y-21994481D01*
X44064260Y-22001000D01*
X43975740Y-22001000D01*
X43909557Y-21994481D01*
X43843373Y-21987963D01*
X43673534Y-21936443D01*
X43517009Y-21852778D01*
X43481271Y-21823448D01*
X43379814Y-21740186D01*
X43296552Y-21638729D01*
X43267222Y-21602991D01*
X43183557Y-21446466D01*
X43132037Y-21276627D01*
X43114641Y-21100000D01*
X43132037Y-20923373D01*
X43183557Y-20753534D01*
X43267222Y-20597009D01*
X43296552Y-20561271D01*
X43379814Y-20459814D01*
X43481271Y-20376552D01*
X43517009Y-20347222D01*
X43673534Y-20263557D01*
X43843373Y-20212037D01*
X43909557Y-20205519D01*
X43975740Y-20199000D01*
X44064260Y-20199000D01*
X44130443Y-20205519D01*
X44130443Y-20205519D01*
G37*
G36*
X46670443Y-20205519D02*
G01*
X46736627Y-20212037D01*
X46906466Y-20263557D01*
X47062991Y-20347222D01*
X47098729Y-20376552D01*
X47200186Y-20459814D01*
X47283448Y-20561271D01*
X47312778Y-20597009D01*
X47396443Y-20753534D01*
X47447963Y-20923373D01*
X47465359Y-21100000D01*
X47447963Y-21276627D01*
X47396443Y-21446466D01*
X47312778Y-21602991D01*
X47283448Y-21638729D01*
X47200186Y-21740186D01*
X47098729Y-21823448D01*
X47062991Y-21852778D01*
X46906466Y-21936443D01*
X46736627Y-21987963D01*
X46670443Y-21994481D01*
X46604260Y-22001000D01*
X46515740Y-22001000D01*
X46449557Y-21994481D01*
X46383373Y-21987963D01*
X46213534Y-21936443D01*
X46057009Y-21852778D01*
X46021271Y-21823448D01*
X45919814Y-21740186D01*
X45836552Y-21638729D01*
X45807222Y-21602991D01*
X45723557Y-21446466D01*
X45672037Y-21276627D01*
X45654641Y-21100000D01*
X45672037Y-20923373D01*
X45723557Y-20753534D01*
X45807222Y-20597009D01*
X45836552Y-20561271D01*
X45919814Y-20459814D01*
X46021271Y-20376552D01*
X46057009Y-20347222D01*
X46213534Y-20263557D01*
X46383373Y-20212037D01*
X46449557Y-20205519D01*
X46515740Y-20199000D01*
X46604260Y-20199000D01*
X46670443Y-20205519D01*
X46670443Y-20205519D01*
G37*
G36*
X49210443Y-20205519D02*
G01*
X49276627Y-20212037D01*
X49446466Y-20263557D01*
X49602991Y-20347222D01*
X49638729Y-20376552D01*
X49740186Y-20459814D01*
X49823448Y-20561271D01*
X49852778Y-20597009D01*
X49936443Y-20753534D01*
X49987963Y-20923373D01*
X50005359Y-21100000D01*
X49987963Y-21276627D01*
X49936443Y-21446466D01*
X49852778Y-21602991D01*
X49823448Y-21638729D01*
X49740186Y-21740186D01*
X49638729Y-21823448D01*
X49602991Y-21852778D01*
X49446466Y-21936443D01*
X49276627Y-21987963D01*
X49210443Y-21994481D01*
X49144260Y-22001000D01*
X49055740Y-22001000D01*
X48989557Y-21994481D01*
X48923373Y-21987963D01*
X48753534Y-21936443D01*
X48597009Y-21852778D01*
X48561271Y-21823448D01*
X48459814Y-21740186D01*
X48376552Y-21638729D01*
X48347222Y-21602991D01*
X48263557Y-21446466D01*
X48212037Y-21276627D01*
X48194641Y-21100000D01*
X48212037Y-20923373D01*
X48263557Y-20753534D01*
X48347222Y-20597009D01*
X48376552Y-20561271D01*
X48459814Y-20459814D01*
X48561271Y-20376552D01*
X48597009Y-20347222D01*
X48753534Y-20263557D01*
X48923373Y-20212037D01*
X48989557Y-20205519D01*
X49055740Y-20199000D01*
X49144260Y-20199000D01*
X49210443Y-20205519D01*
X49210443Y-20205519D01*
G37*
G36*
X54290443Y-20205519D02*
G01*
X54356627Y-20212037D01*
X54526466Y-20263557D01*
X54682991Y-20347222D01*
X54718729Y-20376552D01*
X54820186Y-20459814D01*
X54903448Y-20561271D01*
X54932778Y-20597009D01*
X55016443Y-20753534D01*
X55067963Y-20923373D01*
X55085359Y-21100000D01*
X55067963Y-21276627D01*
X55016443Y-21446466D01*
X54932778Y-21602991D01*
X54903448Y-21638729D01*
X54820186Y-21740186D01*
X54718729Y-21823448D01*
X54682991Y-21852778D01*
X54526466Y-21936443D01*
X54356627Y-21987963D01*
X54290443Y-21994481D01*
X54224260Y-22001000D01*
X54135740Y-22001000D01*
X54069557Y-21994481D01*
X54003373Y-21987963D01*
X53833534Y-21936443D01*
X53677009Y-21852778D01*
X53641271Y-21823448D01*
X53539814Y-21740186D01*
X53456552Y-21638729D01*
X53427222Y-21602991D01*
X53343557Y-21446466D01*
X53292037Y-21276627D01*
X53274641Y-21100000D01*
X53292037Y-20923373D01*
X53343557Y-20753534D01*
X53427222Y-20597009D01*
X53456552Y-20561271D01*
X53539814Y-20459814D01*
X53641271Y-20376552D01*
X53677009Y-20347222D01*
X53833534Y-20263557D01*
X54003373Y-20212037D01*
X54069557Y-20205519D01*
X54135740Y-20199000D01*
X54224260Y-20199000D01*
X54290443Y-20205519D01*
X54290443Y-20205519D01*
G37*
G36*
X51750443Y-20205519D02*
G01*
X51816627Y-20212037D01*
X51986466Y-20263557D01*
X52142991Y-20347222D01*
X52178729Y-20376552D01*
X52280186Y-20459814D01*
X52363448Y-20561271D01*
X52392778Y-20597009D01*
X52476443Y-20753534D01*
X52527963Y-20923373D01*
X52545359Y-21100000D01*
X52527963Y-21276627D01*
X52476443Y-21446466D01*
X52392778Y-21602991D01*
X52363448Y-21638729D01*
X52280186Y-21740186D01*
X52178729Y-21823448D01*
X52142991Y-21852778D01*
X51986466Y-21936443D01*
X51816627Y-21987963D01*
X51750443Y-21994481D01*
X51684260Y-22001000D01*
X51595740Y-22001000D01*
X51529557Y-21994481D01*
X51463373Y-21987963D01*
X51293534Y-21936443D01*
X51137009Y-21852778D01*
X51101271Y-21823448D01*
X50999814Y-21740186D01*
X50916552Y-21638729D01*
X50887222Y-21602991D01*
X50803557Y-21446466D01*
X50752037Y-21276627D01*
X50734641Y-21100000D01*
X50752037Y-20923373D01*
X50803557Y-20753534D01*
X50887222Y-20597009D01*
X50916552Y-20561271D01*
X50999814Y-20459814D01*
X51101271Y-20376552D01*
X51137009Y-20347222D01*
X51293534Y-20263557D01*
X51463373Y-20212037D01*
X51529557Y-20205519D01*
X51595740Y-20199000D01*
X51684260Y-20199000D01*
X51750443Y-20205519D01*
X51750443Y-20205519D01*
G37*
M02*
