G04 #@! TF.GenerationSoftware,KiCad,Pcbnew,5.0.1*
G04 #@! TF.CreationDate,2019-10-18T03:38:24+02:00*
G04 #@! TF.ProjectId,OtterPill,4F7474657250696C6C2E6B696361645F,rev?*
G04 #@! TF.SameCoordinates,Original*
G04 #@! TF.FileFunction,Legend,Top*
G04 #@! TF.FilePolarity,Positive*
%FSLAX46Y46*%
G04 Gerber Fmt 4.6, Leading zero omitted, Abs format (unit mm)*
G04 Created by KiCad (PCBNEW 5.0.1) date Fri 18 Oct 2019 03:38:24 AM CEST*
%MOMM*%
%LPD*%
G01*
G04 APERTURE LIST*
%ADD10C,0.100000*%
%ADD11C,0.150000*%
%ADD12C,0.050000*%
%ADD13C,0.120000*%
G04 APERTURE END LIST*
D10*
X29691666Y-22183333D02*
X29691666Y-22883333D01*
X29425000Y-22883333D01*
X29358333Y-22850000D01*
X29325000Y-22816666D01*
X29291666Y-22750000D01*
X29291666Y-22650000D01*
X29325000Y-22583333D01*
X29358333Y-22550000D01*
X29425000Y-22516666D01*
X29691666Y-22516666D01*
X28758333Y-22550000D02*
X28658333Y-22516666D01*
X28625000Y-22483333D01*
X28591666Y-22416666D01*
X28591666Y-22316666D01*
X28625000Y-22250000D01*
X28658333Y-22216666D01*
X28725000Y-22183333D01*
X28991666Y-22183333D01*
X28991666Y-22883333D01*
X28758333Y-22883333D01*
X28691666Y-22850000D01*
X28658333Y-22816666D01*
X28625000Y-22750000D01*
X28625000Y-22683333D01*
X28658333Y-22616666D01*
X28691666Y-22583333D01*
X28758333Y-22550000D01*
X28991666Y-22550000D01*
X28158333Y-22883333D02*
X28091666Y-22883333D01*
X28025000Y-22850000D01*
X27991666Y-22816666D01*
X27958333Y-22750000D01*
X27925000Y-22616666D01*
X27925000Y-22450000D01*
X27958333Y-22316666D01*
X27991666Y-22250000D01*
X28025000Y-22216666D01*
X28091666Y-22183333D01*
X28158333Y-22183333D01*
X28225000Y-22216666D01*
X28258333Y-22250000D01*
X28291666Y-22316666D01*
X28325000Y-22450000D01*
X28325000Y-22616666D01*
X28291666Y-22750000D01*
X28258333Y-22816666D01*
X28225000Y-22850000D01*
X28158333Y-22883333D01*
X24925000Y-22183333D02*
X24925000Y-22883333D01*
X24658333Y-22883333D01*
X24591666Y-22850000D01*
X24558333Y-22816666D01*
X24525000Y-22750000D01*
X24525000Y-22650000D01*
X24558333Y-22583333D01*
X24591666Y-22550000D01*
X24658333Y-22516666D01*
X24925000Y-22516666D01*
X23991666Y-22550000D02*
X23891666Y-22516666D01*
X23858333Y-22483333D01*
X23825000Y-22416666D01*
X23825000Y-22316666D01*
X23858333Y-22250000D01*
X23891666Y-22216666D01*
X23958333Y-22183333D01*
X24225000Y-22183333D01*
X24225000Y-22883333D01*
X23991666Y-22883333D01*
X23925000Y-22850000D01*
X23891666Y-22816666D01*
X23858333Y-22750000D01*
X23858333Y-22683333D01*
X23891666Y-22616666D01*
X23925000Y-22583333D01*
X23991666Y-22550000D01*
X24225000Y-22550000D01*
X23158333Y-22183333D02*
X23558333Y-22183333D01*
X23358333Y-22183333D02*
X23358333Y-22883333D01*
X23425000Y-22783333D01*
X23491666Y-22716666D01*
X23558333Y-22683333D01*
X22558333Y-22650000D02*
X22558333Y-22183333D01*
X22725000Y-22916666D02*
X22891666Y-22416666D01*
X22458333Y-22416666D01*
X27475000Y-22183333D02*
X27475000Y-22883333D01*
X27208333Y-22883333D01*
X27141666Y-22850000D01*
X27108333Y-22816666D01*
X27075000Y-22750000D01*
X27075000Y-22650000D01*
X27108333Y-22583333D01*
X27141666Y-22550000D01*
X27208333Y-22516666D01*
X27475000Y-22516666D01*
X26541666Y-22550000D02*
X26441666Y-22516666D01*
X26408333Y-22483333D01*
X26375000Y-22416666D01*
X26375000Y-22316666D01*
X26408333Y-22250000D01*
X26441666Y-22216666D01*
X26508333Y-22183333D01*
X26775000Y-22183333D01*
X26775000Y-22883333D01*
X26541666Y-22883333D01*
X26475000Y-22850000D01*
X26441666Y-22816666D01*
X26408333Y-22750000D01*
X26408333Y-22683333D01*
X26441666Y-22616666D01*
X26475000Y-22583333D01*
X26541666Y-22550000D01*
X26775000Y-22550000D01*
X25708333Y-22183333D02*
X26108333Y-22183333D01*
X25908333Y-22183333D02*
X25908333Y-22883333D01*
X25975000Y-22783333D01*
X26041666Y-22716666D01*
X26108333Y-22683333D01*
X25075000Y-22883333D02*
X25408333Y-22883333D01*
X25441666Y-22550000D01*
X25408333Y-22583333D01*
X25341666Y-22616666D01*
X25175000Y-22616666D01*
X25108333Y-22583333D01*
X25075000Y-22550000D01*
X25041666Y-22483333D01*
X25041666Y-22316666D01*
X25075000Y-22250000D01*
X25108333Y-22216666D01*
X25175000Y-22183333D01*
X25341666Y-22183333D01*
X25408333Y-22216666D01*
X25441666Y-22250000D01*
X32550000Y-22133333D02*
X32550000Y-22833333D01*
X32283333Y-22833333D01*
X32216666Y-22800000D01*
X32183333Y-22766666D01*
X32150000Y-22700000D01*
X32150000Y-22600000D01*
X32183333Y-22533333D01*
X32216666Y-22500000D01*
X32283333Y-22466666D01*
X32550000Y-22466666D01*
X31616666Y-22500000D02*
X31516666Y-22466666D01*
X31483333Y-22433333D01*
X31450000Y-22366666D01*
X31450000Y-22266666D01*
X31483333Y-22200000D01*
X31516666Y-22166666D01*
X31583333Y-22133333D01*
X31850000Y-22133333D01*
X31850000Y-22833333D01*
X31616666Y-22833333D01*
X31550000Y-22800000D01*
X31516666Y-22766666D01*
X31483333Y-22700000D01*
X31483333Y-22633333D01*
X31516666Y-22566666D01*
X31550000Y-22533333D01*
X31616666Y-22500000D01*
X31850000Y-22500000D01*
X30783333Y-22133333D02*
X31183333Y-22133333D01*
X30983333Y-22133333D02*
X30983333Y-22833333D01*
X31050000Y-22733333D01*
X31116666Y-22666666D01*
X31183333Y-22633333D01*
X30516666Y-22766666D02*
X30483333Y-22800000D01*
X30416666Y-22833333D01*
X30250000Y-22833333D01*
X30183333Y-22800000D01*
X30150000Y-22766666D01*
X30116666Y-22700000D01*
X30116666Y-22633333D01*
X30150000Y-22533333D01*
X30550000Y-22133333D01*
X30116666Y-22133333D01*
X34666666Y-22183333D02*
X34666666Y-22883333D01*
X34400000Y-22883333D01*
X34333333Y-22850000D01*
X34300000Y-22816666D01*
X34266666Y-22750000D01*
X34266666Y-22650000D01*
X34300000Y-22583333D01*
X34333333Y-22550000D01*
X34400000Y-22516666D01*
X34666666Y-22516666D01*
X34000000Y-22383333D02*
X33666666Y-22383333D01*
X34066666Y-22183333D02*
X33833333Y-22883333D01*
X33600000Y-22183333D01*
X33433333Y-22883333D02*
X32966666Y-22883333D01*
X33266666Y-22183333D01*
X37241666Y-22233333D02*
X37241666Y-22933333D01*
X36975000Y-22933333D01*
X36908333Y-22900000D01*
X36875000Y-22866666D01*
X36841666Y-22800000D01*
X36841666Y-22700000D01*
X36875000Y-22633333D01*
X36908333Y-22600000D01*
X36975000Y-22566666D01*
X37241666Y-22566666D01*
X36575000Y-22433333D02*
X36241666Y-22433333D01*
X36641666Y-22233333D02*
X36408333Y-22933333D01*
X36175000Y-22233333D01*
X35641666Y-22933333D02*
X35775000Y-22933333D01*
X35841666Y-22900000D01*
X35875000Y-22866666D01*
X35941666Y-22766666D01*
X35975000Y-22633333D01*
X35975000Y-22366666D01*
X35941666Y-22300000D01*
X35908333Y-22266666D01*
X35841666Y-22233333D01*
X35708333Y-22233333D01*
X35641666Y-22266666D01*
X35608333Y-22300000D01*
X35575000Y-22366666D01*
X35575000Y-22533333D01*
X35608333Y-22600000D01*
X35641666Y-22633333D01*
X35708333Y-22666666D01*
X35841666Y-22666666D01*
X35908333Y-22633333D01*
X35941666Y-22600000D01*
X35975000Y-22533333D01*
X39791666Y-22183333D02*
X39791666Y-22883333D01*
X39525000Y-22883333D01*
X39458333Y-22850000D01*
X39425000Y-22816666D01*
X39391666Y-22750000D01*
X39391666Y-22650000D01*
X39425000Y-22583333D01*
X39458333Y-22550000D01*
X39525000Y-22516666D01*
X39791666Y-22516666D01*
X39125000Y-22383333D02*
X38791666Y-22383333D01*
X39191666Y-22183333D02*
X38958333Y-22883333D01*
X38725000Y-22183333D01*
X38158333Y-22883333D02*
X38491666Y-22883333D01*
X38525000Y-22550000D01*
X38491666Y-22583333D01*
X38425000Y-22616666D01*
X38258333Y-22616666D01*
X38191666Y-22583333D01*
X38158333Y-22550000D01*
X38125000Y-22483333D01*
X38125000Y-22316666D01*
X38158333Y-22250000D01*
X38191666Y-22216666D01*
X38258333Y-22183333D01*
X38425000Y-22183333D01*
X38491666Y-22216666D01*
X38525000Y-22250000D01*
X42316666Y-22183333D02*
X42316666Y-22883333D01*
X42050000Y-22883333D01*
X41983333Y-22850000D01*
X41950000Y-22816666D01*
X41916666Y-22750000D01*
X41916666Y-22650000D01*
X41950000Y-22583333D01*
X41983333Y-22550000D01*
X42050000Y-22516666D01*
X42316666Y-22516666D01*
X41650000Y-22383333D02*
X41316666Y-22383333D01*
X41716666Y-22183333D02*
X41483333Y-22883333D01*
X41250000Y-22183333D01*
X40716666Y-22650000D02*
X40716666Y-22183333D01*
X40883333Y-22916666D02*
X41050000Y-22416666D01*
X40616666Y-22416666D01*
X44841666Y-22183333D02*
X44841666Y-22883333D01*
X44575000Y-22883333D01*
X44508333Y-22850000D01*
X44475000Y-22816666D01*
X44441666Y-22750000D01*
X44441666Y-22650000D01*
X44475000Y-22583333D01*
X44508333Y-22550000D01*
X44575000Y-22516666D01*
X44841666Y-22516666D01*
X44175000Y-22383333D02*
X43841666Y-22383333D01*
X44241666Y-22183333D02*
X44008333Y-22883333D01*
X43775000Y-22183333D01*
X43608333Y-22883333D02*
X43175000Y-22883333D01*
X43408333Y-22616666D01*
X43308333Y-22616666D01*
X43241666Y-22583333D01*
X43208333Y-22550000D01*
X43175000Y-22483333D01*
X43175000Y-22316666D01*
X43208333Y-22250000D01*
X43241666Y-22216666D01*
X43308333Y-22183333D01*
X43508333Y-22183333D01*
X43575000Y-22216666D01*
X43608333Y-22250000D01*
X47366666Y-22183333D02*
X47366666Y-22883333D01*
X47100000Y-22883333D01*
X47033333Y-22850000D01*
X47000000Y-22816666D01*
X46966666Y-22750000D01*
X46966666Y-22650000D01*
X47000000Y-22583333D01*
X47033333Y-22550000D01*
X47100000Y-22516666D01*
X47366666Y-22516666D01*
X46700000Y-22383333D02*
X46366666Y-22383333D01*
X46766666Y-22183333D02*
X46533333Y-22883333D01*
X46300000Y-22183333D01*
X46100000Y-22816666D02*
X46066666Y-22850000D01*
X46000000Y-22883333D01*
X45833333Y-22883333D01*
X45766666Y-22850000D01*
X45733333Y-22816666D01*
X45700000Y-22750000D01*
X45700000Y-22683333D01*
X45733333Y-22583333D01*
X46133333Y-22183333D01*
X45700000Y-22183333D01*
X49966666Y-22183333D02*
X49966666Y-22883333D01*
X49700000Y-22883333D01*
X49633333Y-22850000D01*
X49600000Y-22816666D01*
X49566666Y-22750000D01*
X49566666Y-22650000D01*
X49600000Y-22583333D01*
X49633333Y-22550000D01*
X49700000Y-22516666D01*
X49966666Y-22516666D01*
X49300000Y-22383333D02*
X48966666Y-22383333D01*
X49366666Y-22183333D02*
X49133333Y-22883333D01*
X48900000Y-22183333D01*
X48300000Y-22183333D02*
X48700000Y-22183333D01*
X48500000Y-22183333D02*
X48500000Y-22883333D01*
X48566666Y-22783333D01*
X48633333Y-22716666D01*
X48700000Y-22683333D01*
X52208333Y-22850000D02*
X52275000Y-22883333D01*
X52375000Y-22883333D01*
X52475000Y-22850000D01*
X52541666Y-22783333D01*
X52575000Y-22716666D01*
X52608333Y-22583333D01*
X52608333Y-22483333D01*
X52575000Y-22350000D01*
X52541666Y-22283333D01*
X52475000Y-22216666D01*
X52375000Y-22183333D01*
X52308333Y-22183333D01*
X52208333Y-22216666D01*
X52175000Y-22250000D01*
X52175000Y-22483333D01*
X52308333Y-22483333D01*
X51875000Y-22183333D02*
X51875000Y-22883333D01*
X51475000Y-22183333D01*
X51475000Y-22883333D01*
X51141666Y-22183333D02*
X51141666Y-22883333D01*
X50975000Y-22883333D01*
X50875000Y-22850000D01*
X50808333Y-22783333D01*
X50775000Y-22716666D01*
X50741666Y-22583333D01*
X50741666Y-22483333D01*
X50775000Y-22350000D01*
X50808333Y-22283333D01*
X50875000Y-22216666D01*
X50975000Y-22183333D01*
X51141666Y-22183333D01*
X55091666Y-22183333D02*
X55091666Y-22883333D01*
X54825000Y-22883333D01*
X54758333Y-22850000D01*
X54725000Y-22816666D01*
X54691666Y-22750000D01*
X54691666Y-22650000D01*
X54725000Y-22583333D01*
X54758333Y-22550000D01*
X54825000Y-22516666D01*
X55091666Y-22516666D01*
X54158333Y-22550000D02*
X54058333Y-22516666D01*
X54025000Y-22483333D01*
X53991666Y-22416666D01*
X53991666Y-22316666D01*
X54025000Y-22250000D01*
X54058333Y-22216666D01*
X54125000Y-22183333D01*
X54391666Y-22183333D01*
X54391666Y-22883333D01*
X54158333Y-22883333D01*
X54091666Y-22850000D01*
X54058333Y-22816666D01*
X54025000Y-22750000D01*
X54025000Y-22683333D01*
X54058333Y-22616666D01*
X54091666Y-22583333D01*
X54158333Y-22550000D01*
X54391666Y-22550000D01*
X53658333Y-22183333D02*
X53525000Y-22183333D01*
X53458333Y-22216666D01*
X53425000Y-22250000D01*
X53358333Y-22350000D01*
X53325000Y-22483333D01*
X53325000Y-22750000D01*
X53358333Y-22816666D01*
X53391666Y-22850000D01*
X53458333Y-22883333D01*
X53591666Y-22883333D01*
X53658333Y-22850000D01*
X53691666Y-22816666D01*
X53725000Y-22750000D01*
X53725000Y-22583333D01*
X53691666Y-22516666D01*
X53658333Y-22483333D01*
X53591666Y-22450000D01*
X53458333Y-22450000D01*
X53391666Y-22483333D01*
X53358333Y-22516666D01*
X53325000Y-22583333D01*
X57925000Y-22183333D02*
X57925000Y-22883333D01*
X57658333Y-22883333D01*
X57591666Y-22850000D01*
X57558333Y-22816666D01*
X57525000Y-22750000D01*
X57525000Y-22650000D01*
X57558333Y-22583333D01*
X57591666Y-22550000D01*
X57658333Y-22516666D01*
X57925000Y-22516666D01*
X57258333Y-22383333D02*
X56925000Y-22383333D01*
X57325000Y-22183333D02*
X57091666Y-22883333D01*
X56858333Y-22183333D01*
X56258333Y-22183333D02*
X56658333Y-22183333D01*
X56458333Y-22183333D02*
X56458333Y-22883333D01*
X56525000Y-22783333D01*
X56591666Y-22716666D01*
X56658333Y-22683333D01*
X55825000Y-22883333D02*
X55758333Y-22883333D01*
X55691666Y-22850000D01*
X55658333Y-22816666D01*
X55625000Y-22750000D01*
X55591666Y-22616666D01*
X55591666Y-22450000D01*
X55625000Y-22316666D01*
X55658333Y-22250000D01*
X55691666Y-22216666D01*
X55758333Y-22183333D01*
X55825000Y-22183333D01*
X55891666Y-22216666D01*
X55925000Y-22250000D01*
X55958333Y-22316666D01*
X55991666Y-22450000D01*
X55991666Y-22616666D01*
X55958333Y-22750000D01*
X55925000Y-22816666D01*
X55891666Y-22850000D01*
X55825000Y-22883333D01*
X60091666Y-22183333D02*
X60091666Y-22883333D01*
X59825000Y-22883333D01*
X59758333Y-22850000D01*
X59725000Y-22816666D01*
X59691666Y-22750000D01*
X59691666Y-22650000D01*
X59725000Y-22583333D01*
X59758333Y-22550000D01*
X59825000Y-22516666D01*
X60091666Y-22516666D01*
X59425000Y-22383333D02*
X59091666Y-22383333D01*
X59491666Y-22183333D02*
X59258333Y-22883333D01*
X59025000Y-22183333D01*
X58758333Y-22183333D02*
X58625000Y-22183333D01*
X58558333Y-22216666D01*
X58525000Y-22250000D01*
X58458333Y-22350000D01*
X58425000Y-22483333D01*
X58425000Y-22750000D01*
X58458333Y-22816666D01*
X58491666Y-22850000D01*
X58558333Y-22883333D01*
X58691666Y-22883333D01*
X58758333Y-22850000D01*
X58791666Y-22816666D01*
X58825000Y-22750000D01*
X58825000Y-22583333D01*
X58791666Y-22516666D01*
X58758333Y-22483333D01*
X58691666Y-22450000D01*
X58558333Y-22450000D01*
X58491666Y-22483333D01*
X58458333Y-22516666D01*
X58425000Y-22583333D01*
X58508333Y-34341666D02*
X58741666Y-35041666D01*
X58975000Y-34341666D01*
X59208333Y-35041666D02*
X59208333Y-34341666D01*
X59541666Y-35041666D02*
X59541666Y-34341666D01*
X59941666Y-35041666D01*
X59941666Y-34341666D01*
X56191666Y-34375000D02*
X56125000Y-34341666D01*
X56025000Y-34341666D01*
X55925000Y-34375000D01*
X55858333Y-34441666D01*
X55825000Y-34508333D01*
X55791666Y-34641666D01*
X55791666Y-34741666D01*
X55825000Y-34875000D01*
X55858333Y-34941666D01*
X55925000Y-35008333D01*
X56025000Y-35041666D01*
X56091666Y-35041666D01*
X56191666Y-35008333D01*
X56225000Y-34975000D01*
X56225000Y-34741666D01*
X56091666Y-34741666D01*
X56525000Y-35041666D02*
X56525000Y-34341666D01*
X56925000Y-35041666D01*
X56925000Y-34341666D01*
X57258333Y-35041666D02*
X57258333Y-34341666D01*
X57425000Y-34341666D01*
X57525000Y-34375000D01*
X57591666Y-34441666D01*
X57625000Y-34508333D01*
X57658333Y-34641666D01*
X57658333Y-34741666D01*
X57625000Y-34875000D01*
X57591666Y-34941666D01*
X57525000Y-35008333D01*
X57425000Y-35041666D01*
X57258333Y-35041666D01*
X53308333Y-35041666D02*
X53308333Y-34341666D01*
X53575000Y-34341666D01*
X53641666Y-34375000D01*
X53675000Y-34408333D01*
X53708333Y-34475000D01*
X53708333Y-34575000D01*
X53675000Y-34641666D01*
X53641666Y-34675000D01*
X53575000Y-34708333D01*
X53308333Y-34708333D01*
X54241666Y-34675000D02*
X54341666Y-34708333D01*
X54375000Y-34741666D01*
X54408333Y-34808333D01*
X54408333Y-34908333D01*
X54375000Y-34975000D01*
X54341666Y-35008333D01*
X54275000Y-35041666D01*
X54008333Y-35041666D01*
X54008333Y-34341666D01*
X54241666Y-34341666D01*
X54308333Y-34375000D01*
X54341666Y-34408333D01*
X54375000Y-34475000D01*
X54375000Y-34541666D01*
X54341666Y-34608333D01*
X54308333Y-34641666D01*
X54241666Y-34675000D01*
X54008333Y-34675000D01*
X55041666Y-34341666D02*
X54708333Y-34341666D01*
X54675000Y-34675000D01*
X54708333Y-34641666D01*
X54775000Y-34608333D01*
X54941666Y-34608333D01*
X55008333Y-34641666D01*
X55041666Y-34675000D01*
X55075000Y-34741666D01*
X55075000Y-34908333D01*
X55041666Y-34975000D01*
X55008333Y-35008333D01*
X54941666Y-35041666D01*
X54775000Y-35041666D01*
X54708333Y-35008333D01*
X54675000Y-34975000D01*
X50758333Y-34341666D02*
X51191666Y-34341666D01*
X50958333Y-34608333D01*
X51058333Y-34608333D01*
X51125000Y-34641666D01*
X51158333Y-34675000D01*
X51191666Y-34741666D01*
X51191666Y-34908333D01*
X51158333Y-34975000D01*
X51125000Y-35008333D01*
X51058333Y-35041666D01*
X50858333Y-35041666D01*
X50791666Y-35008333D01*
X50758333Y-34975000D01*
X51391666Y-34341666D02*
X51625000Y-35041666D01*
X51858333Y-34341666D01*
X52025000Y-34341666D02*
X52458333Y-34341666D01*
X52225000Y-34608333D01*
X52325000Y-34608333D01*
X52391666Y-34641666D01*
X52425000Y-34675000D01*
X52458333Y-34741666D01*
X52458333Y-34908333D01*
X52425000Y-34975000D01*
X52391666Y-35008333D01*
X52325000Y-35041666D01*
X52125000Y-35041666D01*
X52058333Y-35008333D01*
X52025000Y-34975000D01*
X48208333Y-35041666D02*
X48208333Y-34341666D01*
X48475000Y-34341666D01*
X48541666Y-34375000D01*
X48575000Y-34408333D01*
X48608333Y-34475000D01*
X48608333Y-34575000D01*
X48575000Y-34641666D01*
X48541666Y-34675000D01*
X48475000Y-34708333D01*
X48208333Y-34708333D01*
X49141666Y-34675000D02*
X49241666Y-34708333D01*
X49275000Y-34741666D01*
X49308333Y-34808333D01*
X49308333Y-34908333D01*
X49275000Y-34975000D01*
X49241666Y-35008333D01*
X49175000Y-35041666D01*
X48908333Y-35041666D01*
X48908333Y-34341666D01*
X49141666Y-34341666D01*
X49208333Y-34375000D01*
X49241666Y-34408333D01*
X49275000Y-34475000D01*
X49275000Y-34541666D01*
X49241666Y-34608333D01*
X49208333Y-34641666D01*
X49141666Y-34675000D01*
X48908333Y-34675000D01*
X49908333Y-34575000D02*
X49908333Y-35041666D01*
X49741666Y-34308333D02*
X49575000Y-34808333D01*
X50008333Y-34808333D01*
X45658333Y-35041666D02*
X45658333Y-34341666D01*
X45925000Y-34341666D01*
X45991666Y-34375000D01*
X46025000Y-34408333D01*
X46058333Y-34475000D01*
X46058333Y-34575000D01*
X46025000Y-34641666D01*
X45991666Y-34675000D01*
X45925000Y-34708333D01*
X45658333Y-34708333D01*
X46591666Y-34675000D02*
X46691666Y-34708333D01*
X46725000Y-34741666D01*
X46758333Y-34808333D01*
X46758333Y-34908333D01*
X46725000Y-34975000D01*
X46691666Y-35008333D01*
X46625000Y-35041666D01*
X46358333Y-35041666D01*
X46358333Y-34341666D01*
X46591666Y-34341666D01*
X46658333Y-34375000D01*
X46691666Y-34408333D01*
X46725000Y-34475000D01*
X46725000Y-34541666D01*
X46691666Y-34608333D01*
X46658333Y-34641666D01*
X46591666Y-34675000D01*
X46358333Y-34675000D01*
X46991666Y-34341666D02*
X47425000Y-34341666D01*
X47191666Y-34608333D01*
X47291666Y-34608333D01*
X47358333Y-34641666D01*
X47391666Y-34675000D01*
X47425000Y-34741666D01*
X47425000Y-34908333D01*
X47391666Y-34975000D01*
X47358333Y-35008333D01*
X47291666Y-35041666D01*
X47091666Y-35041666D01*
X47025000Y-35008333D01*
X46991666Y-34975000D01*
X43158333Y-35041666D02*
X43158333Y-34341666D01*
X43425000Y-34341666D01*
X43491666Y-34375000D01*
X43525000Y-34408333D01*
X43558333Y-34475000D01*
X43558333Y-34575000D01*
X43525000Y-34641666D01*
X43491666Y-34675000D01*
X43425000Y-34708333D01*
X43158333Y-34708333D01*
X44091666Y-34675000D02*
X44191666Y-34708333D01*
X44225000Y-34741666D01*
X44258333Y-34808333D01*
X44258333Y-34908333D01*
X44225000Y-34975000D01*
X44191666Y-35008333D01*
X44125000Y-35041666D01*
X43858333Y-35041666D01*
X43858333Y-34341666D01*
X44091666Y-34341666D01*
X44158333Y-34375000D01*
X44191666Y-34408333D01*
X44225000Y-34475000D01*
X44225000Y-34541666D01*
X44191666Y-34608333D01*
X44158333Y-34641666D01*
X44091666Y-34675000D01*
X43858333Y-34675000D01*
X44591666Y-35041666D02*
X44725000Y-35041666D01*
X44791666Y-35008333D01*
X44825000Y-34975000D01*
X44891666Y-34875000D01*
X44925000Y-34741666D01*
X44925000Y-34475000D01*
X44891666Y-34408333D01*
X44858333Y-34375000D01*
X44791666Y-34341666D01*
X44658333Y-34341666D01*
X44591666Y-34375000D01*
X44558333Y-34408333D01*
X44525000Y-34475000D01*
X44525000Y-34641666D01*
X44558333Y-34708333D01*
X44591666Y-34741666D01*
X44658333Y-34775000D01*
X44791666Y-34775000D01*
X44858333Y-34741666D01*
X44891666Y-34708333D01*
X44925000Y-34641666D01*
X40608333Y-35041666D02*
X40608333Y-34341666D01*
X40875000Y-34341666D01*
X40941666Y-34375000D01*
X40975000Y-34408333D01*
X41008333Y-34475000D01*
X41008333Y-34575000D01*
X40975000Y-34641666D01*
X40941666Y-34675000D01*
X40875000Y-34708333D01*
X40608333Y-34708333D01*
X41541666Y-34675000D02*
X41641666Y-34708333D01*
X41675000Y-34741666D01*
X41708333Y-34808333D01*
X41708333Y-34908333D01*
X41675000Y-34975000D01*
X41641666Y-35008333D01*
X41575000Y-35041666D01*
X41308333Y-35041666D01*
X41308333Y-34341666D01*
X41541666Y-34341666D01*
X41608333Y-34375000D01*
X41641666Y-34408333D01*
X41675000Y-34475000D01*
X41675000Y-34541666D01*
X41641666Y-34608333D01*
X41608333Y-34641666D01*
X41541666Y-34675000D01*
X41308333Y-34675000D01*
X41941666Y-34341666D02*
X42408333Y-34341666D01*
X42108333Y-35041666D01*
X38058333Y-35041666D02*
X38058333Y-34341666D01*
X38325000Y-34341666D01*
X38391666Y-34375000D01*
X38425000Y-34408333D01*
X38458333Y-34475000D01*
X38458333Y-34575000D01*
X38425000Y-34641666D01*
X38391666Y-34675000D01*
X38325000Y-34708333D01*
X38058333Y-34708333D01*
X38991666Y-34675000D02*
X39091666Y-34708333D01*
X39125000Y-34741666D01*
X39158333Y-34808333D01*
X39158333Y-34908333D01*
X39125000Y-34975000D01*
X39091666Y-35008333D01*
X39025000Y-35041666D01*
X38758333Y-35041666D01*
X38758333Y-34341666D01*
X38991666Y-34341666D01*
X39058333Y-34375000D01*
X39091666Y-34408333D01*
X39125000Y-34475000D01*
X39125000Y-34541666D01*
X39091666Y-34608333D01*
X39058333Y-34641666D01*
X38991666Y-34675000D01*
X38758333Y-34675000D01*
X39425000Y-34408333D02*
X39458333Y-34375000D01*
X39525000Y-34341666D01*
X39691666Y-34341666D01*
X39758333Y-34375000D01*
X39791666Y-34408333D01*
X39825000Y-34475000D01*
X39825000Y-34541666D01*
X39791666Y-34641666D01*
X39391666Y-35041666D01*
X39825000Y-35041666D01*
X35275000Y-35041666D02*
X35275000Y-34341666D01*
X35541666Y-34341666D01*
X35608333Y-34375000D01*
X35641666Y-34408333D01*
X35675000Y-34475000D01*
X35675000Y-34575000D01*
X35641666Y-34641666D01*
X35608333Y-34675000D01*
X35541666Y-34708333D01*
X35275000Y-34708333D01*
X35941666Y-34841666D02*
X36275000Y-34841666D01*
X35875000Y-35041666D02*
X36108333Y-34341666D01*
X36341666Y-35041666D01*
X36941666Y-35041666D02*
X36541666Y-35041666D01*
X36741666Y-35041666D02*
X36741666Y-34341666D01*
X36675000Y-34441666D01*
X36608333Y-34508333D01*
X36541666Y-34541666D01*
X37575000Y-34341666D02*
X37241666Y-34341666D01*
X37208333Y-34675000D01*
X37241666Y-34641666D01*
X37308333Y-34608333D01*
X37475000Y-34608333D01*
X37541666Y-34641666D01*
X37575000Y-34675000D01*
X37608333Y-34741666D01*
X37608333Y-34908333D01*
X37575000Y-34975000D01*
X37541666Y-35008333D01*
X37475000Y-35041666D01*
X37308333Y-35041666D01*
X37241666Y-35008333D01*
X37208333Y-34975000D01*
X32958333Y-35041666D02*
X32958333Y-34341666D01*
X33225000Y-34341666D01*
X33291666Y-34375000D01*
X33325000Y-34408333D01*
X33358333Y-34475000D01*
X33358333Y-34575000D01*
X33325000Y-34641666D01*
X33291666Y-34675000D01*
X33225000Y-34708333D01*
X32958333Y-34708333D01*
X33891666Y-34675000D02*
X33991666Y-34708333D01*
X34025000Y-34741666D01*
X34058333Y-34808333D01*
X34058333Y-34908333D01*
X34025000Y-34975000D01*
X33991666Y-35008333D01*
X33925000Y-35041666D01*
X33658333Y-35041666D01*
X33658333Y-34341666D01*
X33891666Y-34341666D01*
X33958333Y-34375000D01*
X33991666Y-34408333D01*
X34025000Y-34475000D01*
X34025000Y-34541666D01*
X33991666Y-34608333D01*
X33958333Y-34641666D01*
X33891666Y-34675000D01*
X33658333Y-34675000D01*
X34458333Y-34641666D02*
X34391666Y-34608333D01*
X34358333Y-34575000D01*
X34325000Y-34508333D01*
X34325000Y-34475000D01*
X34358333Y-34408333D01*
X34391666Y-34375000D01*
X34458333Y-34341666D01*
X34591666Y-34341666D01*
X34658333Y-34375000D01*
X34691666Y-34408333D01*
X34725000Y-34475000D01*
X34725000Y-34508333D01*
X34691666Y-34575000D01*
X34658333Y-34608333D01*
X34591666Y-34641666D01*
X34458333Y-34641666D01*
X34391666Y-34675000D01*
X34358333Y-34708333D01*
X34325000Y-34775000D01*
X34325000Y-34908333D01*
X34358333Y-34975000D01*
X34391666Y-35008333D01*
X34458333Y-35041666D01*
X34591666Y-35041666D01*
X34658333Y-35008333D01*
X34691666Y-34975000D01*
X34725000Y-34908333D01*
X34725000Y-34775000D01*
X34691666Y-34708333D01*
X34658333Y-34675000D01*
X34591666Y-34641666D01*
X30408333Y-35041666D02*
X30408333Y-34341666D01*
X30675000Y-34341666D01*
X30741666Y-34375000D01*
X30775000Y-34408333D01*
X30808333Y-34475000D01*
X30808333Y-34575000D01*
X30775000Y-34641666D01*
X30741666Y-34675000D01*
X30675000Y-34708333D01*
X30408333Y-34708333D01*
X31341666Y-34675000D02*
X31441666Y-34708333D01*
X31475000Y-34741666D01*
X31508333Y-34808333D01*
X31508333Y-34908333D01*
X31475000Y-34975000D01*
X31441666Y-35008333D01*
X31375000Y-35041666D01*
X31108333Y-35041666D01*
X31108333Y-34341666D01*
X31341666Y-34341666D01*
X31408333Y-34375000D01*
X31441666Y-34408333D01*
X31475000Y-34475000D01*
X31475000Y-34541666D01*
X31441666Y-34608333D01*
X31408333Y-34641666D01*
X31341666Y-34675000D01*
X31108333Y-34675000D01*
X32175000Y-35041666D02*
X31775000Y-35041666D01*
X31975000Y-35041666D02*
X31975000Y-34341666D01*
X31908333Y-34441666D01*
X31841666Y-34508333D01*
X31775000Y-34541666D01*
X27958333Y-35041666D02*
X27958333Y-34341666D01*
X28225000Y-34341666D01*
X28291666Y-34375000D01*
X28325000Y-34408333D01*
X28358333Y-34475000D01*
X28358333Y-34575000D01*
X28325000Y-34641666D01*
X28291666Y-34675000D01*
X28225000Y-34708333D01*
X27958333Y-34708333D01*
X28625000Y-34841666D02*
X28958333Y-34841666D01*
X28558333Y-35041666D02*
X28791666Y-34341666D01*
X29025000Y-35041666D01*
X29358333Y-34641666D02*
X29291666Y-34608333D01*
X29258333Y-34575000D01*
X29225000Y-34508333D01*
X29225000Y-34475000D01*
X29258333Y-34408333D01*
X29291666Y-34375000D01*
X29358333Y-34341666D01*
X29491666Y-34341666D01*
X29558333Y-34375000D01*
X29591666Y-34408333D01*
X29625000Y-34475000D01*
X29625000Y-34508333D01*
X29591666Y-34575000D01*
X29558333Y-34608333D01*
X29491666Y-34641666D01*
X29358333Y-34641666D01*
X29291666Y-34675000D01*
X29258333Y-34708333D01*
X29225000Y-34775000D01*
X29225000Y-34908333D01*
X29258333Y-34975000D01*
X29291666Y-35008333D01*
X29358333Y-35041666D01*
X29491666Y-35041666D01*
X29558333Y-35008333D01*
X29591666Y-34975000D01*
X29625000Y-34908333D01*
X29625000Y-34775000D01*
X29591666Y-34708333D01*
X29558333Y-34675000D01*
X29491666Y-34641666D01*
X22475000Y-35041666D02*
X22475000Y-34341666D01*
X22741666Y-34341666D01*
X22808333Y-34375000D01*
X22841666Y-34408333D01*
X22875000Y-34475000D01*
X22875000Y-34575000D01*
X22841666Y-34641666D01*
X22808333Y-34675000D01*
X22741666Y-34708333D01*
X22475000Y-34708333D01*
X23408333Y-34675000D02*
X23508333Y-34708333D01*
X23541666Y-34741666D01*
X23575000Y-34808333D01*
X23575000Y-34908333D01*
X23541666Y-34975000D01*
X23508333Y-35008333D01*
X23441666Y-35041666D01*
X23175000Y-35041666D01*
X23175000Y-34341666D01*
X23408333Y-34341666D01*
X23475000Y-34375000D01*
X23508333Y-34408333D01*
X23541666Y-34475000D01*
X23541666Y-34541666D01*
X23508333Y-34608333D01*
X23475000Y-34641666D01*
X23408333Y-34675000D01*
X23175000Y-34675000D01*
X24241666Y-35041666D02*
X23841666Y-35041666D01*
X24041666Y-35041666D02*
X24041666Y-34341666D01*
X23975000Y-34441666D01*
X23908333Y-34508333D01*
X23841666Y-34541666D01*
X24475000Y-34341666D02*
X24908333Y-34341666D01*
X24675000Y-34608333D01*
X24775000Y-34608333D01*
X24841666Y-34641666D01*
X24875000Y-34675000D01*
X24908333Y-34741666D01*
X24908333Y-34908333D01*
X24875000Y-34975000D01*
X24841666Y-35008333D01*
X24775000Y-35041666D01*
X24575000Y-35041666D01*
X24508333Y-35008333D01*
X24475000Y-34975000D01*
X25358333Y-34341666D02*
X25791666Y-34341666D01*
X25558333Y-34608333D01*
X25658333Y-34608333D01*
X25725000Y-34641666D01*
X25758333Y-34675000D01*
X25791666Y-34741666D01*
X25791666Y-34908333D01*
X25758333Y-34975000D01*
X25725000Y-35008333D01*
X25658333Y-35041666D01*
X25458333Y-35041666D01*
X25391666Y-35008333D01*
X25358333Y-34975000D01*
X25991666Y-34341666D02*
X26225000Y-35041666D01*
X26458333Y-34341666D01*
X26625000Y-34341666D02*
X27058333Y-34341666D01*
X26825000Y-34608333D01*
X26925000Y-34608333D01*
X26991666Y-34641666D01*
X27025000Y-34675000D01*
X27058333Y-34741666D01*
X27058333Y-34908333D01*
X27025000Y-34975000D01*
X26991666Y-35008333D01*
X26925000Y-35041666D01*
X26725000Y-35041666D01*
X26658333Y-35008333D01*
X26625000Y-34975000D01*
X58166666Y-28116666D02*
X57466666Y-28116666D01*
X57466666Y-27950000D01*
X57500000Y-27850000D01*
X57566666Y-27783333D01*
X57633333Y-27750000D01*
X57766666Y-27716666D01*
X57866666Y-27716666D01*
X58000000Y-27750000D01*
X58066666Y-27783333D01*
X58133333Y-27850000D01*
X58166666Y-27950000D01*
X58166666Y-28116666D01*
X58166666Y-27416666D02*
X57466666Y-27416666D01*
X57466666Y-26950000D02*
X57466666Y-26816666D01*
X57500000Y-26750000D01*
X57566666Y-26683333D01*
X57700000Y-26650000D01*
X57933333Y-26650000D01*
X58066666Y-26683333D01*
X58133333Y-26750000D01*
X58166666Y-26816666D01*
X58166666Y-26950000D01*
X58133333Y-27016666D01*
X58066666Y-27083333D01*
X57933333Y-27116666D01*
X57700000Y-27116666D01*
X57566666Y-27083333D01*
X57500000Y-27016666D01*
X57466666Y-26950000D01*
X58100000Y-30316666D02*
X58133333Y-30350000D01*
X58166666Y-30450000D01*
X58166666Y-30516666D01*
X58133333Y-30616666D01*
X58066666Y-30683333D01*
X58000000Y-30716666D01*
X57866666Y-30750000D01*
X57766666Y-30750000D01*
X57633333Y-30716666D01*
X57566666Y-30683333D01*
X57500000Y-30616666D01*
X57466666Y-30516666D01*
X57466666Y-30450000D01*
X57500000Y-30350000D01*
X57533333Y-30316666D01*
X58166666Y-29683333D02*
X58166666Y-30016666D01*
X57466666Y-30016666D01*
X58166666Y-29450000D02*
X57466666Y-29450000D01*
X58166666Y-29050000D02*
X57766666Y-29350000D01*
X57466666Y-29050000D02*
X57866666Y-29450000D01*
X57475000Y-33033333D02*
X57441666Y-33100000D01*
X57441666Y-33200000D01*
X57475000Y-33300000D01*
X57541666Y-33366666D01*
X57608333Y-33400000D01*
X57741666Y-33433333D01*
X57841666Y-33433333D01*
X57975000Y-33400000D01*
X58041666Y-33366666D01*
X58108333Y-33300000D01*
X58141666Y-33200000D01*
X58141666Y-33133333D01*
X58108333Y-33033333D01*
X58075000Y-33000000D01*
X57841666Y-33000000D01*
X57841666Y-33133333D01*
X58141666Y-32700000D02*
X57441666Y-32700000D01*
X58141666Y-32300000D01*
X57441666Y-32300000D01*
X58141666Y-31966666D02*
X57441666Y-31966666D01*
X57441666Y-31800000D01*
X57475000Y-31700000D01*
X57541666Y-31633333D01*
X57608333Y-31600000D01*
X57741666Y-31566666D01*
X57841666Y-31566666D01*
X57975000Y-31600000D01*
X58041666Y-31633333D01*
X58108333Y-31700000D01*
X58141666Y-31800000D01*
X58141666Y-31966666D01*
X61500000Y-30316666D02*
X61533333Y-30350000D01*
X61566666Y-30450000D01*
X61566666Y-30516666D01*
X61533333Y-30616666D01*
X61466666Y-30683333D01*
X61400000Y-30716666D01*
X61266666Y-30750000D01*
X61166666Y-30750000D01*
X61033333Y-30716666D01*
X60966666Y-30683333D01*
X60900000Y-30616666D01*
X60866666Y-30516666D01*
X60866666Y-30450000D01*
X60900000Y-30350000D01*
X60933333Y-30316666D01*
X61566666Y-29683333D02*
X61566666Y-30016666D01*
X60866666Y-30016666D01*
X61566666Y-29450000D02*
X60866666Y-29450000D01*
X61566666Y-29050000D02*
X61166666Y-29350000D01*
X60866666Y-29050000D02*
X61266666Y-29450000D01*
X61566666Y-28116666D02*
X60866666Y-28116666D01*
X60866666Y-27950000D01*
X60900000Y-27850000D01*
X60966666Y-27783333D01*
X61033333Y-27750000D01*
X61166666Y-27716666D01*
X61266666Y-27716666D01*
X61400000Y-27750000D01*
X61466666Y-27783333D01*
X61533333Y-27850000D01*
X61566666Y-27950000D01*
X61566666Y-28116666D01*
X61566666Y-27416666D02*
X60866666Y-27416666D01*
X60866666Y-26950000D02*
X60866666Y-26816666D01*
X60900000Y-26750000D01*
X60966666Y-26683333D01*
X61100000Y-26650000D01*
X61333333Y-26650000D01*
X61466666Y-26683333D01*
X61533333Y-26750000D01*
X61566666Y-26816666D01*
X61566666Y-26950000D01*
X61533333Y-27016666D01*
X61466666Y-27083333D01*
X61333333Y-27116666D01*
X61100000Y-27116666D01*
X60966666Y-27083333D01*
X60900000Y-27016666D01*
X60866666Y-26950000D01*
X60875000Y-33033333D02*
X60841666Y-33100000D01*
X60841666Y-33200000D01*
X60875000Y-33300000D01*
X60941666Y-33366666D01*
X61008333Y-33400000D01*
X61141666Y-33433333D01*
X61241666Y-33433333D01*
X61375000Y-33400000D01*
X61441666Y-33366666D01*
X61508333Y-33300000D01*
X61541666Y-33200000D01*
X61541666Y-33133333D01*
X61508333Y-33033333D01*
X61475000Y-33000000D01*
X61241666Y-33000000D01*
X61241666Y-33133333D01*
X61541666Y-32700000D02*
X60841666Y-32700000D01*
X61541666Y-32300000D01*
X60841666Y-32300000D01*
X61541666Y-31966666D02*
X60841666Y-31966666D01*
X60841666Y-31800000D01*
X60875000Y-31700000D01*
X60941666Y-31633333D01*
X61008333Y-31600000D01*
X61141666Y-31566666D01*
X61241666Y-31566666D01*
X61375000Y-31600000D01*
X61441666Y-31633333D01*
X61508333Y-31700000D01*
X61541666Y-31800000D01*
X61541666Y-31966666D01*
X60866666Y-25716666D02*
X60866666Y-25283333D01*
X61133333Y-25516666D01*
X61133333Y-25416666D01*
X61166666Y-25350000D01*
X61200000Y-25316666D01*
X61266666Y-25283333D01*
X61433333Y-25283333D01*
X61500000Y-25316666D01*
X61533333Y-25350000D01*
X61566666Y-25416666D01*
X61566666Y-25616666D01*
X61533333Y-25683333D01*
X61500000Y-25716666D01*
X60866666Y-25083333D02*
X61566666Y-24850000D01*
X60866666Y-24616666D01*
X60866666Y-24450000D02*
X60866666Y-24016666D01*
X61133333Y-24250000D01*
X61133333Y-24150000D01*
X61166666Y-24083333D01*
X61200000Y-24050000D01*
X61266666Y-24016666D01*
X61433333Y-24016666D01*
X61500000Y-24050000D01*
X61533333Y-24083333D01*
X61566666Y-24150000D01*
X61566666Y-24350000D01*
X61533333Y-24416666D01*
X61500000Y-24450000D01*
D11*
X53635714Y-30702380D02*
X53635714Y-29702380D01*
X53873809Y-29702380D01*
X54016666Y-29750000D01*
X54111904Y-29845238D01*
X54159523Y-29940476D01*
X54207142Y-30130952D01*
X54207142Y-30273809D01*
X54159523Y-30464285D01*
X54111904Y-30559523D01*
X54016666Y-30654761D01*
X53873809Y-30702380D01*
X53635714Y-30702380D01*
X54969047Y-30178571D02*
X54635714Y-30178571D01*
X54635714Y-30702380D02*
X54635714Y-29702380D01*
X55111904Y-29702380D01*
X55492857Y-29702380D02*
X55492857Y-30511904D01*
X55540476Y-30607142D01*
X55588095Y-30654761D01*
X55683333Y-30702380D01*
X55873809Y-30702380D01*
X55969047Y-30654761D01*
X56016666Y-30607142D01*
X56064285Y-30511904D01*
X56064285Y-29702380D01*
X30226071Y-33985714D02*
X30397500Y-34042857D01*
X30683214Y-34042857D01*
X30797500Y-33985714D01*
X30854642Y-33928571D01*
X30911785Y-33814285D01*
X30911785Y-33700000D01*
X30854642Y-33585714D01*
X30797500Y-33528571D01*
X30683214Y-33471428D01*
X30454642Y-33414285D01*
X30340357Y-33357142D01*
X30283214Y-33300000D01*
X30226071Y-33185714D01*
X30226071Y-33071428D01*
X30283214Y-32957142D01*
X30340357Y-32900000D01*
X30454642Y-32842857D01*
X30740357Y-32842857D01*
X30911785Y-32900000D01*
X31254642Y-33242857D02*
X31711785Y-33242857D01*
X31426071Y-32842857D02*
X31426071Y-33871428D01*
X31483214Y-33985714D01*
X31597500Y-34042857D01*
X31711785Y-34042857D01*
X32626071Y-34042857D02*
X32626071Y-33414285D01*
X32568928Y-33300000D01*
X32454642Y-33242857D01*
X32226071Y-33242857D01*
X32111785Y-33300000D01*
X32626071Y-33985714D02*
X32511785Y-34042857D01*
X32226071Y-34042857D01*
X32111785Y-33985714D01*
X32054642Y-33871428D01*
X32054642Y-33757142D01*
X32111785Y-33642857D01*
X32226071Y-33585714D01*
X32511785Y-33585714D01*
X32626071Y-33528571D01*
X33026071Y-33242857D02*
X33483214Y-33242857D01*
X33197500Y-32842857D02*
X33197500Y-33871428D01*
X33254642Y-33985714D01*
X33368928Y-34042857D01*
X33483214Y-34042857D01*
X34397500Y-33242857D02*
X34397500Y-34042857D01*
X33883214Y-33242857D02*
X33883214Y-33871428D01*
X33940357Y-33985714D01*
X34054642Y-34042857D01*
X34226071Y-34042857D01*
X34340357Y-33985714D01*
X34397500Y-33928571D01*
X34911785Y-33985714D02*
X35026071Y-34042857D01*
X35254642Y-34042857D01*
X35368928Y-33985714D01*
X35426071Y-33871428D01*
X35426071Y-33814285D01*
X35368928Y-33700000D01*
X35254642Y-33642857D01*
X35083214Y-33642857D01*
X34968928Y-33585714D01*
X34911785Y-33471428D01*
X34911785Y-33414285D01*
X34968928Y-33300000D01*
X35083214Y-33242857D01*
X35254642Y-33242857D01*
X35368928Y-33300000D01*
X30283214Y-24242857D02*
X30283214Y-23042857D01*
X30740357Y-23042857D01*
X30854642Y-23100000D01*
X30911785Y-23157142D01*
X30968928Y-23271428D01*
X30968928Y-23442857D01*
X30911785Y-23557142D01*
X30854642Y-23614285D01*
X30740357Y-23671428D01*
X30283214Y-23671428D01*
X31654642Y-24242857D02*
X31540357Y-24185714D01*
X31483214Y-24128571D01*
X31426071Y-24014285D01*
X31426071Y-23671428D01*
X31483214Y-23557142D01*
X31540357Y-23500000D01*
X31654642Y-23442857D01*
X31826071Y-23442857D01*
X31940357Y-23500000D01*
X31997500Y-23557142D01*
X32054642Y-23671428D01*
X32054642Y-24014285D01*
X31997500Y-24128571D01*
X31940357Y-24185714D01*
X31826071Y-24242857D01*
X31654642Y-24242857D01*
X32454642Y-23442857D02*
X32683214Y-24242857D01*
X32911785Y-23671428D01*
X33140357Y-24242857D01*
X33368928Y-23442857D01*
X34283214Y-24185714D02*
X34168928Y-24242857D01*
X33940357Y-24242857D01*
X33826071Y-24185714D01*
X33768928Y-24071428D01*
X33768928Y-23614285D01*
X33826071Y-23500000D01*
X33940357Y-23442857D01*
X34168928Y-23442857D01*
X34283214Y-23500000D01*
X34340357Y-23614285D01*
X34340357Y-23728571D01*
X33768928Y-23842857D01*
X34854642Y-24242857D02*
X34854642Y-23442857D01*
X34854642Y-23671428D02*
X34911785Y-23557142D01*
X34968928Y-23500000D01*
X35083214Y-23442857D01*
X35197500Y-23442857D01*
D12*
X63200000Y-37100000D02*
G75*
G02X62900000Y-37400000I-300000J0D01*
G01*
X62900000Y-19800000D02*
G75*
G02X63200000Y-20100000I0J-300000D01*
G01*
X20000000Y-20100000D02*
G75*
G02X20300000Y-19800000I300000J0D01*
G01*
X20300000Y-37400000D02*
G75*
G02X20000000Y-37100000I0J300000D01*
G01*
X20000000Y-37100000D02*
X20000000Y-20100000D01*
X62900000Y-37400000D02*
X20300000Y-37400000D01*
X63200000Y-20100000D02*
X63200000Y-37100000D01*
X20300000Y-19800000D02*
X62900000Y-19800000D01*
D13*
G04 #@! TO.C,U2*
X47469435Y-28925825D02*
X47805311Y-28589949D01*
X37594689Y-28589949D02*
X37930565Y-28925825D01*
X37930565Y-28254073D02*
X37594689Y-28589949D01*
X42700000Y-23484638D02*
X43035876Y-23820514D01*
X42364124Y-23820514D02*
X42700000Y-23484638D01*
X42700000Y-33695260D02*
X42364124Y-33359384D01*
X43035876Y-33359384D02*
X42700000Y-33695260D01*
G04 #@! TO.C,D3*
X53950000Y-24550000D02*
X50050000Y-24550000D01*
X53950000Y-22850000D02*
X50050000Y-22850000D01*
X53950000Y-24550000D02*
X53950000Y-22850000D01*
G04 #@! TO.C,L1*
X54400000Y-25800000D02*
X57400000Y-25800000D01*
G04 #@! TO.C,SW1*
X52500000Y-34212000D02*
X56900000Y-34212000D01*
X56900000Y-34212000D02*
X56900000Y-34092000D01*
X56900000Y-33082000D02*
X56900000Y-31942000D01*
X56900000Y-30932000D02*
X56900000Y-30812000D01*
X56900000Y-30812000D02*
X52500000Y-30812000D01*
X52500000Y-30812000D02*
X52500000Y-30932000D01*
X52500000Y-31942000D02*
X52500000Y-33082000D01*
X52500000Y-34092000D02*
X52500000Y-34212000D01*
G04 #@! TO.C,D4*
X47300000Y-27150000D02*
X47300000Y-23250000D01*
X49300000Y-27150000D02*
X49300000Y-23250000D01*
X47300000Y-27150000D02*
X49300000Y-27150000D01*
G04 #@! TO.C,U4*
X32640000Y-29635000D02*
X32640000Y-29860000D01*
X35360000Y-27140000D02*
X34885000Y-27140000D01*
X35360000Y-27365000D02*
X35360000Y-27140000D01*
X35360000Y-29860000D02*
X34885000Y-29860000D01*
X35360000Y-29635000D02*
X35360000Y-29860000D01*
X32640000Y-27140000D02*
X33115000Y-27140000D01*
X32640000Y-27365000D02*
X32640000Y-27140000D01*
G04 #@! TO.C,J5*
X57930000Y-23580000D02*
X59200000Y-23580000D01*
X57930000Y-24850000D02*
X57930000Y-23580000D01*
X60242929Y-32850000D02*
X60640000Y-32850000D01*
X60242929Y-32090000D02*
X60640000Y-32090000D01*
X69300000Y-32850000D02*
X63300000Y-32850000D01*
X69300000Y-32090000D02*
X69300000Y-32850000D01*
X63300000Y-32090000D02*
X69300000Y-32090000D01*
X60640000Y-31200000D02*
X63300000Y-31200000D01*
X60242929Y-30310000D02*
X60640000Y-30310000D01*
X60242929Y-29550000D02*
X60640000Y-29550000D01*
X69300000Y-30310000D02*
X63300000Y-30310000D01*
X69300000Y-29550000D02*
X69300000Y-30310000D01*
X63300000Y-29550000D02*
X69300000Y-29550000D01*
X60640000Y-28660000D02*
X63300000Y-28660000D01*
X60242929Y-27770000D02*
X60640000Y-27770000D01*
X60242929Y-27010000D02*
X60640000Y-27010000D01*
X69300000Y-27770000D02*
X63300000Y-27770000D01*
X69300000Y-27010000D02*
X69300000Y-27770000D01*
X63300000Y-27010000D02*
X69300000Y-27010000D01*
X60640000Y-26120000D02*
X63300000Y-26120000D01*
X60310000Y-25230000D02*
X60640000Y-25230000D01*
X60310000Y-24470000D02*
X60640000Y-24470000D01*
X63300000Y-25130000D02*
X69300000Y-25130000D01*
X63300000Y-25010000D02*
X69300000Y-25010000D01*
X63300000Y-24890000D02*
X69300000Y-24890000D01*
X63300000Y-24770000D02*
X69300000Y-24770000D01*
X63300000Y-24650000D02*
X69300000Y-24650000D01*
X63300000Y-24530000D02*
X69300000Y-24530000D01*
X69300000Y-25230000D02*
X63300000Y-25230000D01*
X69300000Y-24470000D02*
X69300000Y-25230000D01*
X63300000Y-24470000D02*
X69300000Y-24470000D01*
X63300000Y-23520000D02*
X60640000Y-23520000D01*
X63300000Y-33800000D02*
X63300000Y-23520000D01*
X60640000Y-33800000D02*
X63300000Y-33800000D01*
X60640000Y-23520000D02*
X60640000Y-33800000D01*
G04 #@! TO.C,U3*
X54710000Y-28700000D02*
X54710000Y-26250000D01*
X51490000Y-26900000D02*
X51490000Y-28700000D01*
G04 #@! TO.C,U1*
X28800000Y-30110000D02*
X31250000Y-30110000D01*
X30600000Y-26890000D02*
X28800000Y-26890000D01*
D11*
G04 #@! TO.C,J1*
X26869999Y-32570000D02*
X26869999Y-33070000D01*
X26869999Y-24070000D02*
X26869999Y-24570000D01*
X24369999Y-24070000D02*
X22369999Y-24070000D01*
X22369999Y-33070000D02*
X24369999Y-33070000D01*
X20369999Y-33070000D02*
X18674999Y-33070000D01*
X18674999Y-24070000D02*
X20369999Y-24070000D01*
X18674999Y-33070000D02*
X18674999Y-24070000D01*
D13*
G04 #@! TO.C,D2*
X29985000Y-32865000D02*
X27700000Y-32865000D01*
X29985000Y-34335000D02*
X29985000Y-32865000D01*
X27700000Y-34335000D02*
X29985000Y-34335000D01*
G04 #@! TO.C,D1*
X29985000Y-22865000D02*
X27700000Y-22865000D01*
X29985000Y-24335000D02*
X29985000Y-22865000D01*
X27700000Y-24335000D02*
X29985000Y-24335000D01*
G04 #@! TO.C,C4*
X55990000Y-27441422D02*
X55990000Y-27958578D01*
X57410000Y-27441422D02*
X57410000Y-27958578D01*
G04 #@! TO.C,C1*
X49690000Y-26341422D02*
X49690000Y-26858578D01*
X51110000Y-26341422D02*
X51110000Y-26858578D01*
G04 #@! TD*
G04 #@! TO.C,U2*
D10*
X47619047Y-27376190D02*
X47619047Y-27780952D01*
X47642857Y-27828571D01*
X47666666Y-27852380D01*
X47714285Y-27876190D01*
X47809523Y-27876190D01*
X47857142Y-27852380D01*
X47880952Y-27828571D01*
X47904761Y-27780952D01*
X47904761Y-27376190D01*
X48119047Y-27423809D02*
X48142857Y-27400000D01*
X48190476Y-27376190D01*
X48309523Y-27376190D01*
X48357142Y-27400000D01*
X48380952Y-27423809D01*
X48404761Y-27471428D01*
X48404761Y-27519047D01*
X48380952Y-27590476D01*
X48095238Y-27876190D01*
X48404761Y-27876190D01*
G04 #@! TO.C,D3*
X51680952Y-25301190D02*
X51680952Y-24801190D01*
X51800000Y-24801190D01*
X51871428Y-24825000D01*
X51919047Y-24872619D01*
X51942857Y-24920238D01*
X51966666Y-25015476D01*
X51966666Y-25086904D01*
X51942857Y-25182142D01*
X51919047Y-25229761D01*
X51871428Y-25277380D01*
X51800000Y-25301190D01*
X51680952Y-25301190D01*
X52133333Y-24801190D02*
X52442857Y-24801190D01*
X52276190Y-24991666D01*
X52347619Y-24991666D01*
X52395238Y-25015476D01*
X52419047Y-25039285D01*
X52442857Y-25086904D01*
X52442857Y-25205952D01*
X52419047Y-25253571D01*
X52395238Y-25277380D01*
X52347619Y-25301190D01*
X52204761Y-25301190D01*
X52157142Y-25277380D01*
X52133333Y-25253571D01*
G04 #@! TO.C,L1*
X53641666Y-25626190D02*
X53403571Y-25626190D01*
X53403571Y-25126190D01*
X54070238Y-25626190D02*
X53784523Y-25626190D01*
X53927380Y-25626190D02*
X53927380Y-25126190D01*
X53879761Y-25197619D01*
X53832142Y-25245238D01*
X53784523Y-25269047D01*
G04 #@! TO.C,SW1*
X54658333Y-34002380D02*
X54729761Y-34026190D01*
X54848809Y-34026190D01*
X54896428Y-34002380D01*
X54920238Y-33978571D01*
X54944047Y-33930952D01*
X54944047Y-33883333D01*
X54920238Y-33835714D01*
X54896428Y-33811904D01*
X54848809Y-33788095D01*
X54753571Y-33764285D01*
X54705952Y-33740476D01*
X54682142Y-33716666D01*
X54658333Y-33669047D01*
X54658333Y-33621428D01*
X54682142Y-33573809D01*
X54705952Y-33550000D01*
X54753571Y-33526190D01*
X54872619Y-33526190D01*
X54944047Y-33550000D01*
X55110714Y-33526190D02*
X55229761Y-34026190D01*
X55325000Y-33669047D01*
X55420238Y-34026190D01*
X55539285Y-33526190D01*
X55991666Y-34026190D02*
X55705952Y-34026190D01*
X55848809Y-34026190D02*
X55848809Y-33526190D01*
X55801190Y-33597619D01*
X55753571Y-33645238D01*
X55705952Y-33669047D01*
G04 #@! TO.C,D4*
X46355952Y-25776190D02*
X46355952Y-25276190D01*
X46475000Y-25276190D01*
X46546428Y-25300000D01*
X46594047Y-25347619D01*
X46617857Y-25395238D01*
X46641666Y-25490476D01*
X46641666Y-25561904D01*
X46617857Y-25657142D01*
X46594047Y-25704761D01*
X46546428Y-25752380D01*
X46475000Y-25776190D01*
X46355952Y-25776190D01*
X47070238Y-25442857D02*
X47070238Y-25776190D01*
X46951190Y-25252380D02*
X46832142Y-25609523D01*
X47141666Y-25609523D01*
G04 #@! TO.C,C10*
X32153571Y-32153571D02*
X32129761Y-32177380D01*
X32058333Y-32201190D01*
X32010714Y-32201190D01*
X31939285Y-32177380D01*
X31891666Y-32129761D01*
X31867857Y-32082142D01*
X31844047Y-31986904D01*
X31844047Y-31915476D01*
X31867857Y-31820238D01*
X31891666Y-31772619D01*
X31939285Y-31725000D01*
X32010714Y-31701190D01*
X32058333Y-31701190D01*
X32129761Y-31725000D01*
X32153571Y-31748809D01*
X32629761Y-32201190D02*
X32344047Y-32201190D01*
X32486904Y-32201190D02*
X32486904Y-31701190D01*
X32439285Y-31772619D01*
X32391666Y-31820238D01*
X32344047Y-31844047D01*
X32939285Y-31701190D02*
X32986904Y-31701190D01*
X33034523Y-31725000D01*
X33058333Y-31748809D01*
X33082142Y-31796428D01*
X33105952Y-31891666D01*
X33105952Y-32010714D01*
X33082142Y-32105952D01*
X33058333Y-32153571D01*
X33034523Y-32177380D01*
X32986904Y-32201190D01*
X32939285Y-32201190D01*
X32891666Y-32177380D01*
X32867857Y-32153571D01*
X32844047Y-32105952D01*
X32820238Y-32010714D01*
X32820238Y-31891666D01*
X32844047Y-31796428D01*
X32867857Y-31748809D01*
X32891666Y-31725000D01*
X32939285Y-31701190D01*
G04 #@! TO.C,C9*
X46243981Y-24053571D02*
X46220172Y-24077380D01*
X46148743Y-24101190D01*
X46101124Y-24101190D01*
X46029695Y-24077380D01*
X45982076Y-24029761D01*
X45958267Y-23982142D01*
X45934457Y-23886904D01*
X45934457Y-23815476D01*
X45958267Y-23720238D01*
X45982076Y-23672619D01*
X46029695Y-23625000D01*
X46101124Y-23601190D01*
X46148743Y-23601190D01*
X46220172Y-23625000D01*
X46243981Y-23648809D01*
X46482076Y-24101190D02*
X46577315Y-24101190D01*
X46624934Y-24077380D01*
X46648743Y-24053571D01*
X46696362Y-23982142D01*
X46720172Y-23886904D01*
X46720172Y-23696428D01*
X46696362Y-23648809D01*
X46672553Y-23625000D01*
X46624934Y-23601190D01*
X46529695Y-23601190D01*
X46482076Y-23625000D01*
X46458267Y-23648809D01*
X46434457Y-23696428D01*
X46434457Y-23815476D01*
X46458267Y-23863095D01*
X46482076Y-23886904D01*
X46529695Y-23910714D01*
X46624934Y-23910714D01*
X46672553Y-23886904D01*
X46696362Y-23863095D01*
X46720172Y-23815476D01*
G04 #@! TO.C,C8*
X35466666Y-32278571D02*
X35442857Y-32302380D01*
X35371428Y-32326190D01*
X35323809Y-32326190D01*
X35252380Y-32302380D01*
X35204761Y-32254761D01*
X35180952Y-32207142D01*
X35157142Y-32111904D01*
X35157142Y-32040476D01*
X35180952Y-31945238D01*
X35204761Y-31897619D01*
X35252380Y-31850000D01*
X35323809Y-31826190D01*
X35371428Y-31826190D01*
X35442857Y-31850000D01*
X35466666Y-31873809D01*
X35752380Y-32040476D02*
X35704761Y-32016666D01*
X35680952Y-31992857D01*
X35657142Y-31945238D01*
X35657142Y-31921428D01*
X35680952Y-31873809D01*
X35704761Y-31850000D01*
X35752380Y-31826190D01*
X35847619Y-31826190D01*
X35895238Y-31850000D01*
X35919047Y-31873809D01*
X35942857Y-31921428D01*
X35942857Y-31945238D01*
X35919047Y-31992857D01*
X35895238Y-32016666D01*
X35847619Y-32040476D01*
X35752380Y-32040476D01*
X35704761Y-32064285D01*
X35680952Y-32088095D01*
X35657142Y-32135714D01*
X35657142Y-32230952D01*
X35680952Y-32278571D01*
X35704761Y-32302380D01*
X35752380Y-32326190D01*
X35847619Y-32326190D01*
X35895238Y-32302380D01*
X35919047Y-32278571D01*
X35942857Y-32230952D01*
X35942857Y-32135714D01*
X35919047Y-32088095D01*
X35895238Y-32064285D01*
X35847619Y-32040476D01*
G04 #@! TO.C,C7*
X36691666Y-26903571D02*
X36667857Y-26927380D01*
X36596428Y-26951190D01*
X36548809Y-26951190D01*
X36477380Y-26927380D01*
X36429761Y-26879761D01*
X36405952Y-26832142D01*
X36382142Y-26736904D01*
X36382142Y-26665476D01*
X36405952Y-26570238D01*
X36429761Y-26522619D01*
X36477380Y-26475000D01*
X36548809Y-26451190D01*
X36596428Y-26451190D01*
X36667857Y-26475000D01*
X36691666Y-26498809D01*
X36858333Y-26451190D02*
X37191666Y-26451190D01*
X36977380Y-26951190D01*
G04 #@! TO.C,C6*
X40016666Y-34228571D02*
X39992857Y-34252380D01*
X39921428Y-34276190D01*
X39873809Y-34276190D01*
X39802380Y-34252380D01*
X39754761Y-34204761D01*
X39730952Y-34157142D01*
X39707142Y-34061904D01*
X39707142Y-33990476D01*
X39730952Y-33895238D01*
X39754761Y-33847619D01*
X39802380Y-33800000D01*
X39873809Y-33776190D01*
X39921428Y-33776190D01*
X39992857Y-33800000D01*
X40016666Y-33823809D01*
X40445238Y-33776190D02*
X40350000Y-33776190D01*
X40302380Y-33800000D01*
X40278571Y-33823809D01*
X40230952Y-33895238D01*
X40207142Y-33990476D01*
X40207142Y-34180952D01*
X40230952Y-34228571D01*
X40254761Y-34252380D01*
X40302380Y-34276190D01*
X40397619Y-34276190D01*
X40445238Y-34252380D01*
X40469047Y-34228571D01*
X40492857Y-34180952D01*
X40492857Y-34061904D01*
X40469047Y-34014285D01*
X40445238Y-33990476D01*
X40397619Y-33966666D01*
X40302380Y-33966666D01*
X40254761Y-33990476D01*
X40230952Y-34014285D01*
X40207142Y-34061904D01*
G04 #@! TO.C,C5*
X48691666Y-30703571D02*
X48667857Y-30727380D01*
X48596428Y-30751190D01*
X48548809Y-30751190D01*
X48477380Y-30727380D01*
X48429761Y-30679761D01*
X48405952Y-30632142D01*
X48382142Y-30536904D01*
X48382142Y-30465476D01*
X48405952Y-30370238D01*
X48429761Y-30322619D01*
X48477380Y-30275000D01*
X48548809Y-30251190D01*
X48596428Y-30251190D01*
X48667857Y-30275000D01*
X48691666Y-30298809D01*
X49144047Y-30251190D02*
X48905952Y-30251190D01*
X48882142Y-30489285D01*
X48905952Y-30465476D01*
X48953571Y-30441666D01*
X49072619Y-30441666D01*
X49120238Y-30465476D01*
X49144047Y-30489285D01*
X49167857Y-30536904D01*
X49167857Y-30655952D01*
X49144047Y-30703571D01*
X49120238Y-30727380D01*
X49072619Y-30751190D01*
X48953571Y-30751190D01*
X48905952Y-30727380D01*
X48882142Y-30703571D01*
G04 #@! TO.C,C3*
X55241666Y-28628571D02*
X55217857Y-28652380D01*
X55146428Y-28676190D01*
X55098809Y-28676190D01*
X55027380Y-28652380D01*
X54979761Y-28604761D01*
X54955952Y-28557142D01*
X54932142Y-28461904D01*
X54932142Y-28390476D01*
X54955952Y-28295238D01*
X54979761Y-28247619D01*
X55027380Y-28200000D01*
X55098809Y-28176190D01*
X55146428Y-28176190D01*
X55217857Y-28200000D01*
X55241666Y-28223809D01*
X55408333Y-28176190D02*
X55717857Y-28176190D01*
X55551190Y-28366666D01*
X55622619Y-28366666D01*
X55670238Y-28390476D01*
X55694047Y-28414285D01*
X55717857Y-28461904D01*
X55717857Y-28580952D01*
X55694047Y-28628571D01*
X55670238Y-28652380D01*
X55622619Y-28676190D01*
X55479761Y-28676190D01*
X55432142Y-28652380D01*
X55408333Y-28628571D01*
G04 #@! TO.C,C2*
X49366666Y-29678571D02*
X49342857Y-29702380D01*
X49271428Y-29726190D01*
X49223809Y-29726190D01*
X49152380Y-29702380D01*
X49104761Y-29654761D01*
X49080952Y-29607142D01*
X49057142Y-29511904D01*
X49057142Y-29440476D01*
X49080952Y-29345238D01*
X49104761Y-29297619D01*
X49152380Y-29250000D01*
X49223809Y-29226190D01*
X49271428Y-29226190D01*
X49342857Y-29250000D01*
X49366666Y-29273809D01*
X49557142Y-29273809D02*
X49580952Y-29250000D01*
X49628571Y-29226190D01*
X49747619Y-29226190D01*
X49795238Y-29250000D01*
X49819047Y-29273809D01*
X49842857Y-29321428D01*
X49842857Y-29369047D01*
X49819047Y-29440476D01*
X49533333Y-29726190D01*
X49842857Y-29726190D01*
G04 #@! TO.C,R12*
X35953571Y-31326190D02*
X35786904Y-31088095D01*
X35667857Y-31326190D02*
X35667857Y-30826190D01*
X35858333Y-30826190D01*
X35905952Y-30850000D01*
X35929761Y-30873809D01*
X35953571Y-30921428D01*
X35953571Y-30992857D01*
X35929761Y-31040476D01*
X35905952Y-31064285D01*
X35858333Y-31088095D01*
X35667857Y-31088095D01*
X36429761Y-31326190D02*
X36144047Y-31326190D01*
X36286904Y-31326190D02*
X36286904Y-30826190D01*
X36239285Y-30897619D01*
X36191666Y-30945238D01*
X36144047Y-30969047D01*
X36620238Y-30873809D02*
X36644047Y-30850000D01*
X36691666Y-30826190D01*
X36810714Y-30826190D01*
X36858333Y-30850000D01*
X36882142Y-30873809D01*
X36905952Y-30921428D01*
X36905952Y-30969047D01*
X36882142Y-31040476D01*
X36596428Y-31326190D01*
X36905952Y-31326190D01*
G04 #@! TO.C,R11*
X32753571Y-25376190D02*
X32586904Y-25138095D01*
X32467857Y-25376190D02*
X32467857Y-24876190D01*
X32658333Y-24876190D01*
X32705952Y-24900000D01*
X32729761Y-24923809D01*
X32753571Y-24971428D01*
X32753571Y-25042857D01*
X32729761Y-25090476D01*
X32705952Y-25114285D01*
X32658333Y-25138095D01*
X32467857Y-25138095D01*
X33229761Y-25376190D02*
X32944047Y-25376190D01*
X33086904Y-25376190D02*
X33086904Y-24876190D01*
X33039285Y-24947619D01*
X32991666Y-24995238D01*
X32944047Y-25019047D01*
X33705952Y-25376190D02*
X33420238Y-25376190D01*
X33563095Y-25376190D02*
X33563095Y-24876190D01*
X33515476Y-24947619D01*
X33467857Y-24995238D01*
X33420238Y-25019047D01*
G04 #@! TO.C,R10*
X36103571Y-25626189D02*
X35936904Y-25388094D01*
X35817857Y-25626189D02*
X35817857Y-25126189D01*
X36008333Y-25126189D01*
X36055952Y-25149999D01*
X36079761Y-25173808D01*
X36103571Y-25221427D01*
X36103571Y-25292856D01*
X36079761Y-25340475D01*
X36055952Y-25364284D01*
X36008333Y-25388094D01*
X35817857Y-25388094D01*
X36579761Y-25626189D02*
X36294047Y-25626189D01*
X36436904Y-25626189D02*
X36436904Y-25126189D01*
X36389285Y-25197618D01*
X36341666Y-25245237D01*
X36294047Y-25269046D01*
X36889285Y-25126189D02*
X36936904Y-25126189D01*
X36984523Y-25149999D01*
X37008333Y-25173808D01*
X37032142Y-25221427D01*
X37055952Y-25316665D01*
X37055952Y-25435713D01*
X37032142Y-25530951D01*
X37008333Y-25578570D01*
X36984523Y-25602379D01*
X36936904Y-25626189D01*
X36889285Y-25626189D01*
X36841666Y-25602379D01*
X36817857Y-25578570D01*
X36794047Y-25530951D01*
X36770238Y-25435713D01*
X36770238Y-25316665D01*
X36794047Y-25221427D01*
X36817857Y-25173808D01*
X36841666Y-25149999D01*
X36889285Y-25126189D01*
G04 #@! TO.C,R9*
X31141666Y-32051190D02*
X30975000Y-31813095D01*
X30855952Y-32051190D02*
X30855952Y-31551190D01*
X31046428Y-31551190D01*
X31094047Y-31575000D01*
X31117857Y-31598809D01*
X31141666Y-31646428D01*
X31141666Y-31717857D01*
X31117857Y-31765476D01*
X31094047Y-31789285D01*
X31046428Y-31813095D01*
X30855952Y-31813095D01*
X31379761Y-32051190D02*
X31475000Y-32051190D01*
X31522619Y-32027380D01*
X31546428Y-32003571D01*
X31594047Y-31932142D01*
X31617857Y-31836904D01*
X31617857Y-31646428D01*
X31594047Y-31598809D01*
X31570238Y-31575000D01*
X31522619Y-31551190D01*
X31427380Y-31551190D01*
X31379761Y-31575000D01*
X31355952Y-31598809D01*
X31332142Y-31646428D01*
X31332142Y-31765476D01*
X31355952Y-31813095D01*
X31379761Y-31836904D01*
X31427380Y-31860714D01*
X31522619Y-31860714D01*
X31570238Y-31836904D01*
X31594047Y-31813095D01*
X31617857Y-31765476D01*
G04 #@! TO.C,R8*
X31516666Y-25451190D02*
X31350000Y-25213095D01*
X31230952Y-25451190D02*
X31230952Y-24951190D01*
X31421428Y-24951190D01*
X31469047Y-24975000D01*
X31492857Y-24998809D01*
X31516666Y-25046428D01*
X31516666Y-25117857D01*
X31492857Y-25165476D01*
X31469047Y-25189285D01*
X31421428Y-25213095D01*
X31230952Y-25213095D01*
X31802380Y-25165476D02*
X31754761Y-25141666D01*
X31730952Y-25117857D01*
X31707142Y-25070238D01*
X31707142Y-25046428D01*
X31730952Y-24998809D01*
X31754761Y-24975000D01*
X31802380Y-24951190D01*
X31897619Y-24951190D01*
X31945238Y-24975000D01*
X31969047Y-24998809D01*
X31992857Y-25046428D01*
X31992857Y-25070238D01*
X31969047Y-25117857D01*
X31945238Y-25141666D01*
X31897619Y-25165476D01*
X31802380Y-25165476D01*
X31754761Y-25189285D01*
X31730952Y-25213095D01*
X31707142Y-25260714D01*
X31707142Y-25355952D01*
X31730952Y-25403571D01*
X31754761Y-25427380D01*
X31802380Y-25451190D01*
X31897619Y-25451190D01*
X31945238Y-25427380D01*
X31969047Y-25403571D01*
X31992857Y-25355952D01*
X31992857Y-25260714D01*
X31969047Y-25213095D01*
X31945238Y-25189285D01*
X31897619Y-25165476D01*
G04 #@! TO.C,R7*
X51541666Y-31151190D02*
X51375000Y-30913095D01*
X51255952Y-31151190D02*
X51255952Y-30651190D01*
X51446428Y-30651190D01*
X51494047Y-30675000D01*
X51517857Y-30698809D01*
X51541666Y-30746428D01*
X51541666Y-30817857D01*
X51517857Y-30865476D01*
X51494047Y-30889285D01*
X51446428Y-30913095D01*
X51255952Y-30913095D01*
X51708333Y-30651190D02*
X52041666Y-30651190D01*
X51827380Y-31151190D01*
G04 #@! TO.C,R6*
X50266666Y-30926190D02*
X50100000Y-30688095D01*
X49980952Y-30926190D02*
X49980952Y-30426190D01*
X50171428Y-30426190D01*
X50219047Y-30450000D01*
X50242857Y-30473809D01*
X50266666Y-30521428D01*
X50266666Y-30592857D01*
X50242857Y-30640476D01*
X50219047Y-30664285D01*
X50171428Y-30688095D01*
X49980952Y-30688095D01*
X50695238Y-30426190D02*
X50600000Y-30426190D01*
X50552380Y-30450000D01*
X50528571Y-30473809D01*
X50480952Y-30545238D01*
X50457142Y-30640476D01*
X50457142Y-30830952D01*
X50480952Y-30878571D01*
X50504761Y-30902380D01*
X50552380Y-30926190D01*
X50647619Y-30926190D01*
X50695238Y-30902380D01*
X50719047Y-30878571D01*
X50742857Y-30830952D01*
X50742857Y-30711904D01*
X50719047Y-30664285D01*
X50695238Y-30640476D01*
X50647619Y-30616666D01*
X50552380Y-30616666D01*
X50504761Y-30640476D01*
X50480952Y-30664285D01*
X50457142Y-30711904D01*
G04 #@! TO.C,R5*
X49970666Y-34051190D02*
X49804000Y-33813095D01*
X49684952Y-34051190D02*
X49684952Y-33551190D01*
X49875428Y-33551190D01*
X49923047Y-33575000D01*
X49946857Y-33598809D01*
X49970666Y-33646428D01*
X49970666Y-33717857D01*
X49946857Y-33765476D01*
X49923047Y-33789285D01*
X49875428Y-33813095D01*
X49684952Y-33813095D01*
X50423047Y-33551190D02*
X50184952Y-33551190D01*
X50161142Y-33789285D01*
X50184952Y-33765476D01*
X50232571Y-33741666D01*
X50351619Y-33741666D01*
X50399238Y-33765476D01*
X50423047Y-33789285D01*
X50446857Y-33836904D01*
X50446857Y-33955952D01*
X50423047Y-34003571D01*
X50399238Y-34027380D01*
X50351619Y-34051190D01*
X50232571Y-34051190D01*
X50184952Y-34027380D01*
X50161142Y-34003571D01*
G04 #@! TO.C,R4*
X27491666Y-32676190D02*
X27325000Y-32438095D01*
X27205952Y-32676190D02*
X27205952Y-32176190D01*
X27396428Y-32176190D01*
X27444047Y-32200000D01*
X27467857Y-32223809D01*
X27491666Y-32271428D01*
X27491666Y-32342857D01*
X27467857Y-32390476D01*
X27444047Y-32414285D01*
X27396428Y-32438095D01*
X27205952Y-32438095D01*
X27920238Y-32342857D02*
X27920238Y-32676190D01*
X27801190Y-32152380D02*
X27682142Y-32509523D01*
X27991666Y-32509523D01*
G04 #@! TO.C,R3*
X27691666Y-25151190D02*
X27525000Y-24913095D01*
X27405952Y-25151190D02*
X27405952Y-24651190D01*
X27596428Y-24651190D01*
X27644047Y-24675000D01*
X27667857Y-24698809D01*
X27691666Y-24746428D01*
X27691666Y-24817857D01*
X27667857Y-24865476D01*
X27644047Y-24889285D01*
X27596428Y-24913095D01*
X27405952Y-24913095D01*
X27858333Y-24651190D02*
X28167857Y-24651190D01*
X28001190Y-24841666D01*
X28072619Y-24841666D01*
X28120238Y-24865476D01*
X28144047Y-24889285D01*
X28167857Y-24936904D01*
X28167857Y-25055952D01*
X28144047Y-25103571D01*
X28120238Y-25127380D01*
X28072619Y-25151190D01*
X27929761Y-25151190D01*
X27882142Y-25127380D01*
X27858333Y-25103571D01*
G04 #@! TO.C,R2*
X28216666Y-27026190D02*
X28050000Y-26788095D01*
X27930952Y-27026190D02*
X27930952Y-26526190D01*
X28121428Y-26526190D01*
X28169047Y-26550000D01*
X28192857Y-26573809D01*
X28216666Y-26621428D01*
X28216666Y-26692857D01*
X28192857Y-26740476D01*
X28169047Y-26764285D01*
X28121428Y-26788095D01*
X27930952Y-26788095D01*
X28407142Y-26573809D02*
X28430952Y-26550000D01*
X28478571Y-26526190D01*
X28597619Y-26526190D01*
X28645238Y-26550000D01*
X28669047Y-26573809D01*
X28692857Y-26621428D01*
X28692857Y-26669047D01*
X28669047Y-26740476D01*
X28383333Y-27026190D01*
X28692857Y-27026190D01*
G04 #@! TO.C,R1*
X28266666Y-30476190D02*
X28100000Y-30238095D01*
X27980952Y-30476190D02*
X27980952Y-29976190D01*
X28171428Y-29976190D01*
X28219047Y-30000000D01*
X28242857Y-30023809D01*
X28266666Y-30071428D01*
X28266666Y-30142857D01*
X28242857Y-30190476D01*
X28219047Y-30214285D01*
X28171428Y-30238095D01*
X27980952Y-30238095D01*
X28742857Y-30476190D02*
X28457142Y-30476190D01*
X28600000Y-30476190D02*
X28600000Y-29976190D01*
X28552380Y-30047619D01*
X28504761Y-30095238D01*
X28457142Y-30119047D01*
G04 #@! TO.C,U4*
X35194047Y-30026190D02*
X35194047Y-30430952D01*
X35217857Y-30478571D01*
X35241666Y-30502380D01*
X35289285Y-30526190D01*
X35384523Y-30526190D01*
X35432142Y-30502380D01*
X35455952Y-30478571D01*
X35479761Y-30430952D01*
X35479761Y-30026190D01*
X35932142Y-30192857D02*
X35932142Y-30526190D01*
X35813095Y-30002380D02*
X35694047Y-30359523D01*
X36003571Y-30359523D01*
G04 #@! TO.C,U3*
X54769047Y-29026190D02*
X54769047Y-29430952D01*
X54792857Y-29478571D01*
X54816666Y-29502380D01*
X54864285Y-29526190D01*
X54959523Y-29526190D01*
X55007142Y-29502380D01*
X55030952Y-29478571D01*
X55054761Y-29430952D01*
X55054761Y-29026190D01*
X55245238Y-29026190D02*
X55554761Y-29026190D01*
X55388095Y-29216666D01*
X55459523Y-29216666D01*
X55507142Y-29240476D01*
X55530952Y-29264285D01*
X55554761Y-29311904D01*
X55554761Y-29430952D01*
X55530952Y-29478571D01*
X55507142Y-29502380D01*
X55459523Y-29526190D01*
X55316666Y-29526190D01*
X55269047Y-29502380D01*
X55245238Y-29478571D01*
G04 #@! TO.C,U1*
X30869047Y-26501190D02*
X30869047Y-26905952D01*
X30892857Y-26953571D01*
X30916666Y-26977380D01*
X30964285Y-27001190D01*
X31059523Y-27001190D01*
X31107142Y-26977380D01*
X31130952Y-26953571D01*
X31154761Y-26905952D01*
X31154761Y-26501190D01*
X31654761Y-27001190D02*
X31369047Y-27001190D01*
X31511904Y-27001190D02*
X31511904Y-26501190D01*
X31464285Y-26572619D01*
X31416666Y-26620238D01*
X31369047Y-26644047D01*
G04 #@! TO.C,C4*
X56766666Y-29953571D02*
X56742857Y-29977380D01*
X56671428Y-30001190D01*
X56623809Y-30001190D01*
X56552380Y-29977380D01*
X56504761Y-29929761D01*
X56480952Y-29882142D01*
X56457142Y-29786904D01*
X56457142Y-29715476D01*
X56480952Y-29620238D01*
X56504761Y-29572619D01*
X56552380Y-29525000D01*
X56623809Y-29501190D01*
X56671428Y-29501190D01*
X56742857Y-29525000D01*
X56766666Y-29548809D01*
X57195238Y-29667857D02*
X57195238Y-30001190D01*
X57076190Y-29477380D02*
X56957142Y-29834523D01*
X57266666Y-29834523D01*
G04 #@! TO.C,C1*
X51741666Y-25903571D02*
X51717857Y-25927380D01*
X51646428Y-25951190D01*
X51598809Y-25951190D01*
X51527380Y-25927380D01*
X51479761Y-25879761D01*
X51455952Y-25832142D01*
X51432142Y-25736904D01*
X51432142Y-25665476D01*
X51455952Y-25570238D01*
X51479761Y-25522619D01*
X51527380Y-25475000D01*
X51598809Y-25451190D01*
X51646428Y-25451190D01*
X51717857Y-25475000D01*
X51741666Y-25498809D01*
X52217857Y-25951190D02*
X51932142Y-25951190D01*
X52075000Y-25951190D02*
X52075000Y-25451190D01*
X52027380Y-25522619D01*
X51979761Y-25570238D01*
X51932142Y-25594047D01*
G04 #@! TD*
M02*
