G04 #@! TF.GenerationSoftware,KiCad,Pcbnew,5.0.1*
G04 #@! TF.CreationDate,2019-10-17T01:22:15+02:00*
G04 #@! TF.ProjectId,OtterPill,4F7474657250696C6C2E6B696361645F,rev?*
G04 #@! TF.SameCoordinates,Original*
G04 #@! TF.FileFunction,Legend,Bot*
G04 #@! TF.FilePolarity,Positive*
%FSLAX46Y46*%
G04 Gerber Fmt 4.6, Leading zero omitted, Abs format (unit mm)*
G04 Created by KiCad (PCBNEW 5.0.1) date Thu 17 Oct 2019 01:22:15 AM CEST*
%MOMM*%
%LPD*%
G01*
G04 APERTURE LIST*
%ADD10C,0.100000*%
%ADD11C,0.300000*%
%ADD12C,0.050000*%
G04 APERTURE END LIST*
D10*
X45250000Y-28983333D02*
X45250000Y-28483333D01*
X45216666Y-28383333D01*
X45150000Y-28316666D01*
X45050000Y-28283333D01*
X44983333Y-28283333D01*
X45883333Y-28283333D02*
X45883333Y-28650000D01*
X45850000Y-28716666D01*
X45783333Y-28750000D01*
X45650000Y-28750000D01*
X45583333Y-28716666D01*
X45883333Y-28316666D02*
X45816666Y-28283333D01*
X45650000Y-28283333D01*
X45583333Y-28316666D01*
X45550000Y-28383333D01*
X45550000Y-28450000D01*
X45583333Y-28516666D01*
X45650000Y-28550000D01*
X45816666Y-28550000D01*
X45883333Y-28583333D01*
X46216666Y-28750000D02*
X46216666Y-28283333D01*
X46216666Y-28683333D02*
X46250000Y-28716666D01*
X46316666Y-28750000D01*
X46416666Y-28750000D01*
X46483333Y-28716666D01*
X46516666Y-28650000D01*
X46516666Y-28283333D01*
X47383333Y-28283333D02*
X47383333Y-28983333D01*
X47383333Y-28650000D02*
X47783333Y-28650000D01*
X47783333Y-28283333D02*
X47783333Y-28983333D01*
X48383333Y-28316666D02*
X48316666Y-28283333D01*
X48183333Y-28283333D01*
X48116666Y-28316666D01*
X48083333Y-28383333D01*
X48083333Y-28650000D01*
X48116666Y-28716666D01*
X48183333Y-28750000D01*
X48316666Y-28750000D01*
X48383333Y-28716666D01*
X48416666Y-28650000D01*
X48416666Y-28583333D01*
X48083333Y-28516666D01*
X48716666Y-28750000D02*
X48716666Y-28283333D01*
X48716666Y-28683333D02*
X48749999Y-28716666D01*
X48816666Y-28750000D01*
X48916666Y-28750000D01*
X48983333Y-28716666D01*
X49016666Y-28650000D01*
X49016666Y-28283333D01*
X49349999Y-28283333D02*
X49349999Y-28750000D01*
X49349999Y-28616666D02*
X49383333Y-28683333D01*
X49416666Y-28716666D01*
X49483333Y-28750000D01*
X49549999Y-28750000D01*
X49783333Y-28283333D02*
X49783333Y-28750000D01*
X49783333Y-28983333D02*
X49749999Y-28950000D01*
X49783333Y-28916666D01*
X49816666Y-28950000D01*
X49783333Y-28983333D01*
X49783333Y-28916666D01*
X50116666Y-28283333D02*
X50116666Y-28983333D01*
X50183333Y-28550000D02*
X50383333Y-28283333D01*
X50383333Y-28750000D02*
X50116666Y-28483333D01*
X51183333Y-28916666D02*
X51216666Y-28950000D01*
X51283333Y-28983333D01*
X51449999Y-28983333D01*
X51516666Y-28950000D01*
X51549999Y-28916666D01*
X51583333Y-28850000D01*
X51583333Y-28783333D01*
X51549999Y-28683333D01*
X51149999Y-28283333D01*
X51583333Y-28283333D01*
X52016666Y-28983333D02*
X52083333Y-28983333D01*
X52149999Y-28950000D01*
X52183333Y-28916666D01*
X52216666Y-28850000D01*
X52249999Y-28716666D01*
X52249999Y-28550000D01*
X52216666Y-28416666D01*
X52183333Y-28350000D01*
X52149999Y-28316666D01*
X52083333Y-28283333D01*
X52016666Y-28283333D01*
X51949999Y-28316666D01*
X51916666Y-28350000D01*
X51883333Y-28416666D01*
X51849999Y-28550000D01*
X51849999Y-28716666D01*
X51883333Y-28850000D01*
X51916666Y-28916666D01*
X51949999Y-28950000D01*
X52016666Y-28983333D01*
X52916666Y-28283333D02*
X52516666Y-28283333D01*
X52716666Y-28283333D02*
X52716666Y-28983333D01*
X52649999Y-28883333D01*
X52583333Y-28816666D01*
X52516666Y-28783333D01*
X53249999Y-28283333D02*
X53383333Y-28283333D01*
X53449999Y-28316666D01*
X53483333Y-28350000D01*
X53549999Y-28450000D01*
X53583333Y-28583333D01*
X53583333Y-28850000D01*
X53549999Y-28916666D01*
X53516666Y-28950000D01*
X53449999Y-28983333D01*
X53316666Y-28983333D01*
X53249999Y-28950000D01*
X53216666Y-28916666D01*
X53183333Y-28850000D01*
X53183333Y-28683333D01*
X53216666Y-28616666D01*
X53249999Y-28583333D01*
X53316666Y-28550000D01*
X53449999Y-28550000D01*
X53516666Y-28583333D01*
X53549999Y-28616666D01*
X53583333Y-28683333D01*
D11*
X44061904Y-32295238D02*
X44442857Y-32295238D01*
X44633333Y-32200000D01*
X44823809Y-32009523D01*
X44919047Y-31628571D01*
X44919047Y-30961904D01*
X44823809Y-30580952D01*
X44633333Y-30390476D01*
X44442857Y-30295238D01*
X44061904Y-30295238D01*
X43871428Y-30390476D01*
X43680952Y-30580952D01*
X43585714Y-30961904D01*
X43585714Y-31628571D01*
X43680952Y-32009523D01*
X43871428Y-32200000D01*
X44061904Y-32295238D01*
X45490476Y-31628571D02*
X46252380Y-31628571D01*
X45776190Y-32295238D02*
X45776190Y-30580952D01*
X45871428Y-30390476D01*
X46061904Y-30295238D01*
X46252380Y-30295238D01*
X46633333Y-31628571D02*
X47395238Y-31628571D01*
X46919047Y-32295238D02*
X46919047Y-30580952D01*
X47014285Y-30390476D01*
X47204761Y-30295238D01*
X47395238Y-30295238D01*
X48823809Y-30390476D02*
X48633333Y-30295238D01*
X48252380Y-30295238D01*
X48061904Y-30390476D01*
X47966666Y-30580952D01*
X47966666Y-31342857D01*
X48061904Y-31533333D01*
X48252380Y-31628571D01*
X48633333Y-31628571D01*
X48823809Y-31533333D01*
X48919047Y-31342857D01*
X48919047Y-31152380D01*
X47966666Y-30961904D01*
X49776190Y-30295238D02*
X49776190Y-31628571D01*
X49776190Y-31247619D02*
X49871428Y-31438095D01*
X49966666Y-31533333D01*
X50157142Y-31628571D01*
X50347619Y-31628571D01*
X51014285Y-31628571D02*
X51014285Y-29628571D01*
X51014285Y-31533333D02*
X51204761Y-31628571D01*
X51585714Y-31628571D01*
X51776190Y-31533333D01*
X51871428Y-31438095D01*
X51966666Y-31247619D01*
X51966666Y-30676190D01*
X51871428Y-30485714D01*
X51776190Y-30390476D01*
X51585714Y-30295238D01*
X51204761Y-30295238D01*
X51014285Y-30390476D01*
X52823809Y-30295238D02*
X52823809Y-31628571D01*
X52823809Y-32295238D02*
X52728571Y-32200000D01*
X52823809Y-32104761D01*
X52919047Y-32200000D01*
X52823809Y-32295238D01*
X52823809Y-32104761D01*
X54061904Y-30295238D02*
X53871428Y-30390476D01*
X53776190Y-30580952D01*
X53776190Y-32295238D01*
X55109523Y-30295238D02*
X54919047Y-30390476D01*
X54823809Y-30580952D01*
X54823809Y-32295238D01*
D10*
X60816666Y-23983333D02*
X60816666Y-24416666D01*
X61083333Y-24183333D01*
X61083333Y-24283333D01*
X61116666Y-24350000D01*
X61150000Y-24383333D01*
X61216666Y-24416666D01*
X61383333Y-24416666D01*
X61450000Y-24383333D01*
X61483333Y-24350000D01*
X61516666Y-24283333D01*
X61516666Y-24083333D01*
X61483333Y-24016666D01*
X61450000Y-23983333D01*
X60816666Y-24616666D02*
X61516666Y-24850000D01*
X60816666Y-25083333D01*
X60816666Y-25250000D02*
X60816666Y-25683333D01*
X61083333Y-25450000D01*
X61083333Y-25550000D01*
X61116666Y-25616666D01*
X61150000Y-25650000D01*
X61216666Y-25683333D01*
X61383333Y-25683333D01*
X61450000Y-25650000D01*
X61483333Y-25616666D01*
X61516666Y-25550000D01*
X61516666Y-25350000D01*
X61483333Y-25283333D01*
X61450000Y-25250000D01*
X61516666Y-26683333D02*
X60816666Y-26683333D01*
X60816666Y-26850000D01*
X60850000Y-26950000D01*
X60916666Y-27016666D01*
X60983333Y-27050000D01*
X61116666Y-27083333D01*
X61216666Y-27083333D01*
X61350000Y-27050000D01*
X61416666Y-27016666D01*
X61483333Y-26950000D01*
X61516666Y-26850000D01*
X61516666Y-26683333D01*
X61516666Y-27383333D02*
X60816666Y-27383333D01*
X60816666Y-27850000D02*
X60816666Y-27983333D01*
X60850000Y-28050000D01*
X60916666Y-28116666D01*
X61050000Y-28150000D01*
X61283333Y-28150000D01*
X61416666Y-28116666D01*
X61483333Y-28050000D01*
X61516666Y-27983333D01*
X61516666Y-27850000D01*
X61483333Y-27783333D01*
X61416666Y-27716666D01*
X61283333Y-27683333D01*
X61050000Y-27683333D01*
X60916666Y-27716666D01*
X60850000Y-27783333D01*
X60816666Y-27850000D01*
X61450000Y-29483333D02*
X61483333Y-29450000D01*
X61516666Y-29350000D01*
X61516666Y-29283333D01*
X61483333Y-29183333D01*
X61416666Y-29116666D01*
X61350000Y-29083333D01*
X61216666Y-29050000D01*
X61116666Y-29050000D01*
X60983333Y-29083333D01*
X60916666Y-29116666D01*
X60850000Y-29183333D01*
X60816666Y-29283333D01*
X60816666Y-29350000D01*
X60850000Y-29450000D01*
X60883333Y-29483333D01*
X61516666Y-30116666D02*
X61516666Y-29783333D01*
X60816666Y-29783333D01*
X61516666Y-30350000D02*
X60816666Y-30350000D01*
X61516666Y-30750000D02*
X61116666Y-30450000D01*
X60816666Y-30750000D02*
X61216666Y-30350000D01*
X60875000Y-31966666D02*
X60841666Y-31900000D01*
X60841666Y-31800000D01*
X60875000Y-31700000D01*
X60941666Y-31633333D01*
X61008333Y-31600000D01*
X61141666Y-31566666D01*
X61241666Y-31566666D01*
X61375000Y-31600000D01*
X61441666Y-31633333D01*
X61508333Y-31700000D01*
X61541666Y-31800000D01*
X61541666Y-31866666D01*
X61508333Y-31966666D01*
X61475000Y-32000000D01*
X61241666Y-32000000D01*
X61241666Y-31866666D01*
X61541666Y-32300000D02*
X60841666Y-32300000D01*
X61541666Y-32700000D01*
X60841666Y-32700000D01*
X61541666Y-33033333D02*
X60841666Y-33033333D01*
X60841666Y-33200000D01*
X60875000Y-33300000D01*
X60941666Y-33366666D01*
X61008333Y-33400000D01*
X61141666Y-33433333D01*
X61241666Y-33433333D01*
X61375000Y-33400000D01*
X61441666Y-33366666D01*
X61508333Y-33300000D01*
X61541666Y-33200000D01*
X61541666Y-33033333D01*
X51191666Y-22850000D02*
X51125000Y-22883333D01*
X51025000Y-22883333D01*
X50925000Y-22850000D01*
X50858333Y-22783333D01*
X50825000Y-22716666D01*
X50791666Y-22583333D01*
X50791666Y-22483333D01*
X50825000Y-22350000D01*
X50858333Y-22283333D01*
X50925000Y-22216666D01*
X51025000Y-22183333D01*
X51091666Y-22183333D01*
X51191666Y-22216666D01*
X51225000Y-22250000D01*
X51225000Y-22483333D01*
X51091666Y-22483333D01*
X51525000Y-22183333D02*
X51525000Y-22883333D01*
X51925000Y-22183333D01*
X51925000Y-22883333D01*
X52258333Y-22183333D02*
X52258333Y-22883333D01*
X52425000Y-22883333D01*
X52525000Y-22850000D01*
X52591666Y-22783333D01*
X52625000Y-22716666D01*
X52658333Y-22583333D01*
X52658333Y-22483333D01*
X52625000Y-22350000D01*
X52591666Y-22283333D01*
X52525000Y-22216666D01*
X52425000Y-22183333D01*
X52258333Y-22183333D01*
X28008333Y-22183333D02*
X28008333Y-22883333D01*
X28275000Y-22883333D01*
X28341666Y-22850000D01*
X28375000Y-22816666D01*
X28408333Y-22750000D01*
X28408333Y-22650000D01*
X28375000Y-22583333D01*
X28341666Y-22550000D01*
X28275000Y-22516666D01*
X28008333Y-22516666D01*
X28941666Y-22550000D02*
X29041666Y-22516666D01*
X29075000Y-22483333D01*
X29108333Y-22416666D01*
X29108333Y-22316666D01*
X29075000Y-22250000D01*
X29041666Y-22216666D01*
X28975000Y-22183333D01*
X28708333Y-22183333D01*
X28708333Y-22883333D01*
X28941666Y-22883333D01*
X29008333Y-22850000D01*
X29041666Y-22816666D01*
X29075000Y-22750000D01*
X29075000Y-22683333D01*
X29041666Y-22616666D01*
X29008333Y-22583333D01*
X28941666Y-22550000D01*
X28708333Y-22550000D01*
X29541666Y-22883333D02*
X29608333Y-22883333D01*
X29675000Y-22850000D01*
X29708333Y-22816666D01*
X29741666Y-22750000D01*
X29775000Y-22616666D01*
X29775000Y-22450000D01*
X29741666Y-22316666D01*
X29708333Y-22250000D01*
X29675000Y-22216666D01*
X29608333Y-22183333D01*
X29541666Y-22183333D01*
X29475000Y-22216666D01*
X29441666Y-22250000D01*
X29408333Y-22316666D01*
X29375000Y-22450000D01*
X29375000Y-22616666D01*
X29408333Y-22750000D01*
X29441666Y-22816666D01*
X29475000Y-22850000D01*
X29541666Y-22883333D01*
X53408333Y-22183333D02*
X53408333Y-22883333D01*
X53675000Y-22883333D01*
X53741666Y-22850000D01*
X53775000Y-22816666D01*
X53808333Y-22750000D01*
X53808333Y-22650000D01*
X53775000Y-22583333D01*
X53741666Y-22550000D01*
X53675000Y-22516666D01*
X53408333Y-22516666D01*
X54341666Y-22550000D02*
X54441666Y-22516666D01*
X54475000Y-22483333D01*
X54508333Y-22416666D01*
X54508333Y-22316666D01*
X54475000Y-22250000D01*
X54441666Y-22216666D01*
X54375000Y-22183333D01*
X54108333Y-22183333D01*
X54108333Y-22883333D01*
X54341666Y-22883333D01*
X54408333Y-22850000D01*
X54441666Y-22816666D01*
X54475000Y-22750000D01*
X54475000Y-22683333D01*
X54441666Y-22616666D01*
X54408333Y-22583333D01*
X54341666Y-22550000D01*
X54108333Y-22550000D01*
X54841666Y-22183333D02*
X54975000Y-22183333D01*
X55041666Y-22216666D01*
X55075000Y-22250000D01*
X55141666Y-22350000D01*
X55175000Y-22483333D01*
X55175000Y-22750000D01*
X55141666Y-22816666D01*
X55108333Y-22850000D01*
X55041666Y-22883333D01*
X54908333Y-22883333D01*
X54841666Y-22850000D01*
X54808333Y-22816666D01*
X54775000Y-22750000D01*
X54775000Y-22583333D01*
X54808333Y-22516666D01*
X54841666Y-22483333D01*
X54908333Y-22450000D01*
X55041666Y-22450000D01*
X55108333Y-22483333D01*
X55141666Y-22516666D01*
X55175000Y-22583333D01*
X30200000Y-22233333D02*
X30200000Y-22933333D01*
X30466666Y-22933333D01*
X30533333Y-22900000D01*
X30566666Y-22866666D01*
X30600000Y-22800000D01*
X30600000Y-22700000D01*
X30566666Y-22633333D01*
X30533333Y-22600000D01*
X30466666Y-22566666D01*
X30200000Y-22566666D01*
X31133333Y-22600000D02*
X31233333Y-22566666D01*
X31266666Y-22533333D01*
X31300000Y-22466666D01*
X31300000Y-22366666D01*
X31266666Y-22300000D01*
X31233333Y-22266666D01*
X31166666Y-22233333D01*
X30900000Y-22233333D01*
X30900000Y-22933333D01*
X31133333Y-22933333D01*
X31200000Y-22900000D01*
X31233333Y-22866666D01*
X31266666Y-22800000D01*
X31266666Y-22733333D01*
X31233333Y-22666666D01*
X31200000Y-22633333D01*
X31133333Y-22600000D01*
X30900000Y-22600000D01*
X31966666Y-22233333D02*
X31566666Y-22233333D01*
X31766666Y-22233333D02*
X31766666Y-22933333D01*
X31700000Y-22833333D01*
X31633333Y-22766666D01*
X31566666Y-22733333D01*
X32233333Y-22866666D02*
X32266666Y-22900000D01*
X32333333Y-22933333D01*
X32500000Y-22933333D01*
X32566666Y-22900000D01*
X32600000Y-22866666D01*
X32633333Y-22800000D01*
X32633333Y-22733333D01*
X32600000Y-22633333D01*
X32200000Y-22233333D01*
X32633333Y-22233333D01*
X35658333Y-22133333D02*
X35658333Y-22833333D01*
X35925000Y-22833333D01*
X35991666Y-22800000D01*
X36025000Y-22766666D01*
X36058333Y-22700000D01*
X36058333Y-22600000D01*
X36025000Y-22533333D01*
X35991666Y-22500000D01*
X35925000Y-22466666D01*
X35658333Y-22466666D01*
X36325000Y-22333333D02*
X36658333Y-22333333D01*
X36258333Y-22133333D02*
X36491666Y-22833333D01*
X36725000Y-22133333D01*
X37258333Y-22833333D02*
X37125000Y-22833333D01*
X37058333Y-22800000D01*
X37025000Y-22766666D01*
X36958333Y-22666666D01*
X36925000Y-22533333D01*
X36925000Y-22266666D01*
X36958333Y-22200000D01*
X36991666Y-22166666D01*
X37058333Y-22133333D01*
X37191666Y-22133333D01*
X37258333Y-22166666D01*
X37291666Y-22200000D01*
X37325000Y-22266666D01*
X37325000Y-22433333D01*
X37291666Y-22500000D01*
X37258333Y-22533333D01*
X37191666Y-22566666D01*
X37058333Y-22566666D01*
X36991666Y-22533333D01*
X36958333Y-22500000D01*
X36925000Y-22433333D01*
X55675000Y-22183333D02*
X55675000Y-22883333D01*
X55941666Y-22883333D01*
X56008333Y-22850000D01*
X56041666Y-22816666D01*
X56075000Y-22750000D01*
X56075000Y-22650000D01*
X56041666Y-22583333D01*
X56008333Y-22550000D01*
X55941666Y-22516666D01*
X55675000Y-22516666D01*
X56341666Y-22383333D02*
X56675000Y-22383333D01*
X56275000Y-22183333D02*
X56508333Y-22883333D01*
X56741666Y-22183333D01*
X57341666Y-22183333D02*
X56941666Y-22183333D01*
X57141666Y-22183333D02*
X57141666Y-22883333D01*
X57075000Y-22783333D01*
X57008333Y-22716666D01*
X56941666Y-22683333D01*
X57775000Y-22883333D02*
X57841666Y-22883333D01*
X57908333Y-22850000D01*
X57941666Y-22816666D01*
X57975000Y-22750000D01*
X58008333Y-22616666D01*
X58008333Y-22450000D01*
X57975000Y-22316666D01*
X57941666Y-22250000D01*
X57908333Y-22216666D01*
X57841666Y-22183333D01*
X57775000Y-22183333D01*
X57708333Y-22216666D01*
X57675000Y-22250000D01*
X57641666Y-22316666D01*
X57608333Y-22450000D01*
X57608333Y-22616666D01*
X57641666Y-22750000D01*
X57675000Y-22816666D01*
X57708333Y-22850000D01*
X57775000Y-22883333D01*
X48383333Y-22183333D02*
X48383333Y-22883333D01*
X48650000Y-22883333D01*
X48716666Y-22850000D01*
X48750000Y-22816666D01*
X48783333Y-22750000D01*
X48783333Y-22650000D01*
X48750000Y-22583333D01*
X48716666Y-22550000D01*
X48650000Y-22516666D01*
X48383333Y-22516666D01*
X49050000Y-22383333D02*
X49383333Y-22383333D01*
X48983333Y-22183333D02*
X49216666Y-22883333D01*
X49450000Y-22183333D01*
X50050000Y-22183333D02*
X49650000Y-22183333D01*
X49850000Y-22183333D02*
X49850000Y-22883333D01*
X49783333Y-22783333D01*
X49716666Y-22716666D01*
X49650000Y-22683333D01*
X38208333Y-22183333D02*
X38208333Y-22883333D01*
X38475000Y-22883333D01*
X38541666Y-22850000D01*
X38575000Y-22816666D01*
X38608333Y-22750000D01*
X38608333Y-22650000D01*
X38575000Y-22583333D01*
X38541666Y-22550000D01*
X38475000Y-22516666D01*
X38208333Y-22516666D01*
X38875000Y-22383333D02*
X39208333Y-22383333D01*
X38808333Y-22183333D02*
X39041666Y-22883333D01*
X39275000Y-22183333D01*
X39841666Y-22883333D02*
X39508333Y-22883333D01*
X39475000Y-22550000D01*
X39508333Y-22583333D01*
X39575000Y-22616666D01*
X39741666Y-22616666D01*
X39808333Y-22583333D01*
X39841666Y-22550000D01*
X39875000Y-22483333D01*
X39875000Y-22316666D01*
X39841666Y-22250000D01*
X39808333Y-22216666D01*
X39741666Y-22183333D01*
X39575000Y-22183333D01*
X39508333Y-22216666D01*
X39475000Y-22250000D01*
X22575000Y-22183333D02*
X22575000Y-22883333D01*
X22841666Y-22883333D01*
X22908333Y-22850000D01*
X22941666Y-22816666D01*
X22975000Y-22750000D01*
X22975000Y-22650000D01*
X22941666Y-22583333D01*
X22908333Y-22550000D01*
X22841666Y-22516666D01*
X22575000Y-22516666D01*
X23508333Y-22550000D02*
X23608333Y-22516666D01*
X23641666Y-22483333D01*
X23675000Y-22416666D01*
X23675000Y-22316666D01*
X23641666Y-22250000D01*
X23608333Y-22216666D01*
X23541666Y-22183333D01*
X23275000Y-22183333D01*
X23275000Y-22883333D01*
X23508333Y-22883333D01*
X23575000Y-22850000D01*
X23608333Y-22816666D01*
X23641666Y-22750000D01*
X23641666Y-22683333D01*
X23608333Y-22616666D01*
X23575000Y-22583333D01*
X23508333Y-22550000D01*
X23275000Y-22550000D01*
X24341666Y-22183333D02*
X23941666Y-22183333D01*
X24141666Y-22183333D02*
X24141666Y-22883333D01*
X24075000Y-22783333D01*
X24008333Y-22716666D01*
X23941666Y-22683333D01*
X24941666Y-22650000D02*
X24941666Y-22183333D01*
X24775000Y-22916666D02*
X24608333Y-22416666D01*
X25041666Y-22416666D01*
X43258333Y-22183333D02*
X43258333Y-22883333D01*
X43525000Y-22883333D01*
X43591666Y-22850000D01*
X43625000Y-22816666D01*
X43658333Y-22750000D01*
X43658333Y-22650000D01*
X43625000Y-22583333D01*
X43591666Y-22550000D01*
X43525000Y-22516666D01*
X43258333Y-22516666D01*
X43925000Y-22383333D02*
X44258333Y-22383333D01*
X43858333Y-22183333D02*
X44091666Y-22883333D01*
X44325000Y-22183333D01*
X44491666Y-22883333D02*
X44925000Y-22883333D01*
X44691666Y-22616666D01*
X44791666Y-22616666D01*
X44858333Y-22583333D01*
X44891666Y-22550000D01*
X44925000Y-22483333D01*
X44925000Y-22316666D01*
X44891666Y-22250000D01*
X44858333Y-22216666D01*
X44791666Y-22183333D01*
X44591666Y-22183333D01*
X44525000Y-22216666D01*
X44491666Y-22250000D01*
X58508333Y-22183333D02*
X58508333Y-22883333D01*
X58775000Y-22883333D01*
X58841666Y-22850000D01*
X58875000Y-22816666D01*
X58908333Y-22750000D01*
X58908333Y-22650000D01*
X58875000Y-22583333D01*
X58841666Y-22550000D01*
X58775000Y-22516666D01*
X58508333Y-22516666D01*
X59175000Y-22383333D02*
X59508333Y-22383333D01*
X59108333Y-22183333D02*
X59341666Y-22883333D01*
X59575000Y-22183333D01*
X59841666Y-22183333D02*
X59975000Y-22183333D01*
X60041666Y-22216666D01*
X60075000Y-22250000D01*
X60141666Y-22350000D01*
X60175000Y-22483333D01*
X60175000Y-22750000D01*
X60141666Y-22816666D01*
X60108333Y-22850000D01*
X60041666Y-22883333D01*
X59908333Y-22883333D01*
X59841666Y-22850000D01*
X59808333Y-22816666D01*
X59775000Y-22750000D01*
X59775000Y-22583333D01*
X59808333Y-22516666D01*
X59841666Y-22483333D01*
X59908333Y-22450000D01*
X60041666Y-22450000D01*
X60108333Y-22483333D01*
X60141666Y-22516666D01*
X60175000Y-22583333D01*
X25125000Y-22183333D02*
X25125000Y-22883333D01*
X25391666Y-22883333D01*
X25458333Y-22850000D01*
X25491666Y-22816666D01*
X25525000Y-22750000D01*
X25525000Y-22650000D01*
X25491666Y-22583333D01*
X25458333Y-22550000D01*
X25391666Y-22516666D01*
X25125000Y-22516666D01*
X26058333Y-22550000D02*
X26158333Y-22516666D01*
X26191666Y-22483333D01*
X26225000Y-22416666D01*
X26225000Y-22316666D01*
X26191666Y-22250000D01*
X26158333Y-22216666D01*
X26091666Y-22183333D01*
X25825000Y-22183333D01*
X25825000Y-22883333D01*
X26058333Y-22883333D01*
X26125000Y-22850000D01*
X26158333Y-22816666D01*
X26191666Y-22750000D01*
X26191666Y-22683333D01*
X26158333Y-22616666D01*
X26125000Y-22583333D01*
X26058333Y-22550000D01*
X25825000Y-22550000D01*
X26891666Y-22183333D02*
X26491666Y-22183333D01*
X26691666Y-22183333D02*
X26691666Y-22883333D01*
X26625000Y-22783333D01*
X26558333Y-22716666D01*
X26491666Y-22683333D01*
X27525000Y-22883333D02*
X27191666Y-22883333D01*
X27158333Y-22550000D01*
X27191666Y-22583333D01*
X27258333Y-22616666D01*
X27425000Y-22616666D01*
X27491666Y-22583333D01*
X27525000Y-22550000D01*
X27558333Y-22483333D01*
X27558333Y-22316666D01*
X27525000Y-22250000D01*
X27491666Y-22216666D01*
X27425000Y-22183333D01*
X27258333Y-22183333D01*
X27191666Y-22216666D01*
X27158333Y-22250000D01*
X40733333Y-22183333D02*
X40733333Y-22883333D01*
X41000000Y-22883333D01*
X41066666Y-22850000D01*
X41100000Y-22816666D01*
X41133333Y-22750000D01*
X41133333Y-22650000D01*
X41100000Y-22583333D01*
X41066666Y-22550000D01*
X41000000Y-22516666D01*
X40733333Y-22516666D01*
X41400000Y-22383333D02*
X41733333Y-22383333D01*
X41333333Y-22183333D02*
X41566666Y-22883333D01*
X41800000Y-22183333D01*
X42333333Y-22650000D02*
X42333333Y-22183333D01*
X42166666Y-22916666D02*
X42000000Y-22416666D01*
X42433333Y-22416666D01*
X33083333Y-22183333D02*
X33083333Y-22883333D01*
X33350000Y-22883333D01*
X33416666Y-22850000D01*
X33450000Y-22816666D01*
X33483333Y-22750000D01*
X33483333Y-22650000D01*
X33450000Y-22583333D01*
X33416666Y-22550000D01*
X33350000Y-22516666D01*
X33083333Y-22516666D01*
X33750000Y-22383333D02*
X34083333Y-22383333D01*
X33683333Y-22183333D02*
X33916666Y-22883333D01*
X34150000Y-22183333D01*
X34316666Y-22883333D02*
X34783333Y-22883333D01*
X34483333Y-22183333D01*
X45783333Y-22183333D02*
X45783333Y-22883333D01*
X46050000Y-22883333D01*
X46116666Y-22850000D01*
X46150000Y-22816666D01*
X46183333Y-22750000D01*
X46183333Y-22650000D01*
X46150000Y-22583333D01*
X46116666Y-22550000D01*
X46050000Y-22516666D01*
X45783333Y-22516666D01*
X46450000Y-22383333D02*
X46783333Y-22383333D01*
X46383333Y-22183333D02*
X46616666Y-22883333D01*
X46850000Y-22183333D01*
X47050000Y-22816666D02*
X47083333Y-22850000D01*
X47150000Y-22883333D01*
X47316666Y-22883333D01*
X47383333Y-22850000D01*
X47416666Y-22816666D01*
X47450000Y-22750000D01*
X47450000Y-22683333D01*
X47416666Y-22583333D01*
X47016666Y-22183333D01*
X47450000Y-22183333D01*
X42341666Y-35041666D02*
X42341666Y-34341666D01*
X42075000Y-34341666D01*
X42008333Y-34375000D01*
X41975000Y-34408333D01*
X41941666Y-34475000D01*
X41941666Y-34575000D01*
X41975000Y-34641666D01*
X42008333Y-34675000D01*
X42075000Y-34708333D01*
X42341666Y-34708333D01*
X41408333Y-34675000D02*
X41308333Y-34708333D01*
X41275000Y-34741666D01*
X41241666Y-34808333D01*
X41241666Y-34908333D01*
X41275000Y-34975000D01*
X41308333Y-35008333D01*
X41375000Y-35041666D01*
X41641666Y-35041666D01*
X41641666Y-34341666D01*
X41408333Y-34341666D01*
X41341666Y-34375000D01*
X41308333Y-34408333D01*
X41275000Y-34475000D01*
X41275000Y-34541666D01*
X41308333Y-34608333D01*
X41341666Y-34641666D01*
X41408333Y-34675000D01*
X41641666Y-34675000D01*
X41008333Y-34341666D02*
X40541666Y-34341666D01*
X40841666Y-35041666D01*
X57258333Y-34375000D02*
X57325000Y-34341666D01*
X57425000Y-34341666D01*
X57525000Y-34375000D01*
X57591666Y-34441666D01*
X57625000Y-34508333D01*
X57658333Y-34641666D01*
X57658333Y-34741666D01*
X57625000Y-34875000D01*
X57591666Y-34941666D01*
X57525000Y-35008333D01*
X57425000Y-35041666D01*
X57358333Y-35041666D01*
X57258333Y-35008333D01*
X57225000Y-34975000D01*
X57225000Y-34741666D01*
X57358333Y-34741666D01*
X56925000Y-35041666D02*
X56925000Y-34341666D01*
X56525000Y-35041666D01*
X56525000Y-34341666D01*
X56191666Y-35041666D02*
X56191666Y-34341666D01*
X56025000Y-34341666D01*
X55925000Y-34375000D01*
X55858333Y-34441666D01*
X55825000Y-34508333D01*
X55791666Y-34641666D01*
X55791666Y-34741666D01*
X55825000Y-34875000D01*
X55858333Y-34941666D01*
X55925000Y-35008333D01*
X56025000Y-35041666D01*
X56191666Y-35041666D01*
X32141666Y-35041666D02*
X32141666Y-34341666D01*
X31875000Y-34341666D01*
X31808333Y-34375000D01*
X31775000Y-34408333D01*
X31741666Y-34475000D01*
X31741666Y-34575000D01*
X31775000Y-34641666D01*
X31808333Y-34675000D01*
X31875000Y-34708333D01*
X32141666Y-34708333D01*
X31208333Y-34675000D02*
X31108333Y-34708333D01*
X31075000Y-34741666D01*
X31041666Y-34808333D01*
X31041666Y-34908333D01*
X31075000Y-34975000D01*
X31108333Y-35008333D01*
X31175000Y-35041666D01*
X31441666Y-35041666D01*
X31441666Y-34341666D01*
X31208333Y-34341666D01*
X31141666Y-34375000D01*
X31108333Y-34408333D01*
X31075000Y-34475000D01*
X31075000Y-34541666D01*
X31108333Y-34608333D01*
X31141666Y-34641666D01*
X31208333Y-34675000D01*
X31441666Y-34675000D01*
X30375000Y-35041666D02*
X30775000Y-35041666D01*
X30575000Y-35041666D02*
X30575000Y-34341666D01*
X30641666Y-34441666D01*
X30708333Y-34508333D01*
X30775000Y-34541666D01*
X29591666Y-35041666D02*
X29591666Y-34341666D01*
X29325000Y-34341666D01*
X29258333Y-34375000D01*
X29225000Y-34408333D01*
X29191666Y-34475000D01*
X29191666Y-34575000D01*
X29225000Y-34641666D01*
X29258333Y-34675000D01*
X29325000Y-34708333D01*
X29591666Y-34708333D01*
X28925000Y-34841666D02*
X28591666Y-34841666D01*
X28991666Y-35041666D02*
X28758333Y-34341666D01*
X28525000Y-35041666D01*
X28191666Y-34641666D02*
X28258333Y-34608333D01*
X28291666Y-34575000D01*
X28325000Y-34508333D01*
X28325000Y-34475000D01*
X28291666Y-34408333D01*
X28258333Y-34375000D01*
X28191666Y-34341666D01*
X28058333Y-34341666D01*
X27991666Y-34375000D01*
X27958333Y-34408333D01*
X27925000Y-34475000D01*
X27925000Y-34508333D01*
X27958333Y-34575000D01*
X27991666Y-34608333D01*
X28058333Y-34641666D01*
X28191666Y-34641666D01*
X28258333Y-34675000D01*
X28291666Y-34708333D01*
X28325000Y-34775000D01*
X28325000Y-34908333D01*
X28291666Y-34975000D01*
X28258333Y-35008333D01*
X28191666Y-35041666D01*
X28058333Y-35041666D01*
X27991666Y-35008333D01*
X27958333Y-34975000D01*
X27925000Y-34908333D01*
X27925000Y-34775000D01*
X27958333Y-34708333D01*
X27991666Y-34675000D01*
X28058333Y-34641666D01*
X47391666Y-35041666D02*
X47391666Y-34341666D01*
X47125000Y-34341666D01*
X47058333Y-34375000D01*
X47025000Y-34408333D01*
X46991666Y-34475000D01*
X46991666Y-34575000D01*
X47025000Y-34641666D01*
X47058333Y-34675000D01*
X47125000Y-34708333D01*
X47391666Y-34708333D01*
X46458333Y-34675000D02*
X46358333Y-34708333D01*
X46325000Y-34741666D01*
X46291666Y-34808333D01*
X46291666Y-34908333D01*
X46325000Y-34975000D01*
X46358333Y-35008333D01*
X46425000Y-35041666D01*
X46691666Y-35041666D01*
X46691666Y-34341666D01*
X46458333Y-34341666D01*
X46391666Y-34375000D01*
X46358333Y-34408333D01*
X46325000Y-34475000D01*
X46325000Y-34541666D01*
X46358333Y-34608333D01*
X46391666Y-34641666D01*
X46458333Y-34675000D01*
X46691666Y-34675000D01*
X46058333Y-34341666D02*
X45625000Y-34341666D01*
X45858333Y-34608333D01*
X45758333Y-34608333D01*
X45691666Y-34641666D01*
X45658333Y-34675000D01*
X45625000Y-34741666D01*
X45625000Y-34908333D01*
X45658333Y-34975000D01*
X45691666Y-35008333D01*
X45758333Y-35041666D01*
X45958333Y-35041666D01*
X46025000Y-35008333D01*
X46058333Y-34975000D01*
X52491666Y-34341666D02*
X52058333Y-34341666D01*
X52291666Y-34608333D01*
X52191666Y-34608333D01*
X52125000Y-34641666D01*
X52091666Y-34675000D01*
X52058333Y-34741666D01*
X52058333Y-34908333D01*
X52091666Y-34975000D01*
X52125000Y-35008333D01*
X52191666Y-35041666D01*
X52391666Y-35041666D01*
X52458333Y-35008333D01*
X52491666Y-34975000D01*
X51858333Y-34341666D02*
X51625000Y-35041666D01*
X51391666Y-34341666D01*
X51225000Y-34341666D02*
X50791666Y-34341666D01*
X51025000Y-34608333D01*
X50925000Y-34608333D01*
X50858333Y-34641666D01*
X50825000Y-34675000D01*
X50791666Y-34741666D01*
X50791666Y-34908333D01*
X50825000Y-34975000D01*
X50858333Y-35008333D01*
X50925000Y-35041666D01*
X51125000Y-35041666D01*
X51191666Y-35008333D01*
X51225000Y-34975000D01*
X55041666Y-35041666D02*
X55041666Y-34341666D01*
X54775000Y-34341666D01*
X54708333Y-34375000D01*
X54675000Y-34408333D01*
X54641666Y-34475000D01*
X54641666Y-34575000D01*
X54675000Y-34641666D01*
X54708333Y-34675000D01*
X54775000Y-34708333D01*
X55041666Y-34708333D01*
X54108333Y-34675000D02*
X54008333Y-34708333D01*
X53975000Y-34741666D01*
X53941666Y-34808333D01*
X53941666Y-34908333D01*
X53975000Y-34975000D01*
X54008333Y-35008333D01*
X54075000Y-35041666D01*
X54341666Y-35041666D01*
X54341666Y-34341666D01*
X54108333Y-34341666D01*
X54041666Y-34375000D01*
X54008333Y-34408333D01*
X53975000Y-34475000D01*
X53975000Y-34541666D01*
X54008333Y-34608333D01*
X54041666Y-34641666D01*
X54108333Y-34675000D01*
X54341666Y-34675000D01*
X53308333Y-34341666D02*
X53641666Y-34341666D01*
X53675000Y-34675000D01*
X53641666Y-34641666D01*
X53575000Y-34608333D01*
X53408333Y-34608333D01*
X53341666Y-34641666D01*
X53308333Y-34675000D01*
X53275000Y-34741666D01*
X53275000Y-34908333D01*
X53308333Y-34975000D01*
X53341666Y-35008333D01*
X53408333Y-35041666D01*
X53575000Y-35041666D01*
X53641666Y-35008333D01*
X53675000Y-34975000D01*
X49941666Y-35041666D02*
X49941666Y-34341666D01*
X49675000Y-34341666D01*
X49608333Y-34375000D01*
X49575000Y-34408333D01*
X49541666Y-34475000D01*
X49541666Y-34575000D01*
X49575000Y-34641666D01*
X49608333Y-34675000D01*
X49675000Y-34708333D01*
X49941666Y-34708333D01*
X49008333Y-34675000D02*
X48908333Y-34708333D01*
X48875000Y-34741666D01*
X48841666Y-34808333D01*
X48841666Y-34908333D01*
X48875000Y-34975000D01*
X48908333Y-35008333D01*
X48975000Y-35041666D01*
X49241666Y-35041666D01*
X49241666Y-34341666D01*
X49008333Y-34341666D01*
X48941666Y-34375000D01*
X48908333Y-34408333D01*
X48875000Y-34475000D01*
X48875000Y-34541666D01*
X48908333Y-34608333D01*
X48941666Y-34641666D01*
X49008333Y-34675000D01*
X49241666Y-34675000D01*
X48241666Y-34575000D02*
X48241666Y-35041666D01*
X48408333Y-34308333D02*
X48575000Y-34808333D01*
X48141666Y-34808333D01*
X37575000Y-35041666D02*
X37575000Y-34341666D01*
X37308333Y-34341666D01*
X37241666Y-34375000D01*
X37208333Y-34408333D01*
X37175000Y-34475000D01*
X37175000Y-34575000D01*
X37208333Y-34641666D01*
X37241666Y-34675000D01*
X37308333Y-34708333D01*
X37575000Y-34708333D01*
X36908333Y-34841666D02*
X36575000Y-34841666D01*
X36975000Y-35041666D02*
X36741666Y-34341666D01*
X36508333Y-35041666D01*
X35908333Y-35041666D02*
X36308333Y-35041666D01*
X36108333Y-35041666D02*
X36108333Y-34341666D01*
X36175000Y-34441666D01*
X36241666Y-34508333D01*
X36308333Y-34541666D01*
X35275000Y-34341666D02*
X35608333Y-34341666D01*
X35641666Y-34675000D01*
X35608333Y-34641666D01*
X35541666Y-34608333D01*
X35375000Y-34608333D01*
X35308333Y-34641666D01*
X35275000Y-34675000D01*
X35241666Y-34741666D01*
X35241666Y-34908333D01*
X35275000Y-34975000D01*
X35308333Y-35008333D01*
X35375000Y-35041666D01*
X35541666Y-35041666D01*
X35608333Y-35008333D01*
X35641666Y-34975000D01*
X39791666Y-35041666D02*
X39791666Y-34341666D01*
X39525000Y-34341666D01*
X39458333Y-34375000D01*
X39425000Y-34408333D01*
X39391666Y-34475000D01*
X39391666Y-34575000D01*
X39425000Y-34641666D01*
X39458333Y-34675000D01*
X39525000Y-34708333D01*
X39791666Y-34708333D01*
X38858333Y-34675000D02*
X38758333Y-34708333D01*
X38725000Y-34741666D01*
X38691666Y-34808333D01*
X38691666Y-34908333D01*
X38725000Y-34975000D01*
X38758333Y-35008333D01*
X38825000Y-35041666D01*
X39091666Y-35041666D01*
X39091666Y-34341666D01*
X38858333Y-34341666D01*
X38791666Y-34375000D01*
X38758333Y-34408333D01*
X38725000Y-34475000D01*
X38725000Y-34541666D01*
X38758333Y-34608333D01*
X38791666Y-34641666D01*
X38858333Y-34675000D01*
X39091666Y-34675000D01*
X38425000Y-34408333D02*
X38391666Y-34375000D01*
X38325000Y-34341666D01*
X38158333Y-34341666D01*
X38091666Y-34375000D01*
X38058333Y-34408333D01*
X38025000Y-34475000D01*
X38025000Y-34541666D01*
X38058333Y-34641666D01*
X38458333Y-35041666D01*
X38025000Y-35041666D01*
X60041666Y-34341666D02*
X59808333Y-35041666D01*
X59575000Y-34341666D01*
X59341666Y-35041666D02*
X59341666Y-34341666D01*
X59008333Y-35041666D02*
X59008333Y-34341666D01*
X58608333Y-35041666D01*
X58608333Y-34341666D01*
X34691666Y-35041666D02*
X34691666Y-34341666D01*
X34425000Y-34341666D01*
X34358333Y-34375000D01*
X34325000Y-34408333D01*
X34291666Y-34475000D01*
X34291666Y-34575000D01*
X34325000Y-34641666D01*
X34358333Y-34675000D01*
X34425000Y-34708333D01*
X34691666Y-34708333D01*
X33758333Y-34675000D02*
X33658333Y-34708333D01*
X33625000Y-34741666D01*
X33591666Y-34808333D01*
X33591666Y-34908333D01*
X33625000Y-34975000D01*
X33658333Y-35008333D01*
X33725000Y-35041666D01*
X33991666Y-35041666D01*
X33991666Y-34341666D01*
X33758333Y-34341666D01*
X33691666Y-34375000D01*
X33658333Y-34408333D01*
X33625000Y-34475000D01*
X33625000Y-34541666D01*
X33658333Y-34608333D01*
X33691666Y-34641666D01*
X33758333Y-34675000D01*
X33991666Y-34675000D01*
X33191666Y-34641666D02*
X33258333Y-34608333D01*
X33291666Y-34575000D01*
X33325000Y-34508333D01*
X33325000Y-34475000D01*
X33291666Y-34408333D01*
X33258333Y-34375000D01*
X33191666Y-34341666D01*
X33058333Y-34341666D01*
X32991666Y-34375000D01*
X32958333Y-34408333D01*
X32925000Y-34475000D01*
X32925000Y-34508333D01*
X32958333Y-34575000D01*
X32991666Y-34608333D01*
X33058333Y-34641666D01*
X33191666Y-34641666D01*
X33258333Y-34675000D01*
X33291666Y-34708333D01*
X33325000Y-34775000D01*
X33325000Y-34908333D01*
X33291666Y-34975000D01*
X33258333Y-35008333D01*
X33191666Y-35041666D01*
X33058333Y-35041666D01*
X32991666Y-35008333D01*
X32958333Y-34975000D01*
X32925000Y-34908333D01*
X32925000Y-34775000D01*
X32958333Y-34708333D01*
X32991666Y-34675000D01*
X33058333Y-34641666D01*
X44891666Y-35041666D02*
X44891666Y-34341666D01*
X44625000Y-34341666D01*
X44558333Y-34375000D01*
X44525000Y-34408333D01*
X44491666Y-34475000D01*
X44491666Y-34575000D01*
X44525000Y-34641666D01*
X44558333Y-34675000D01*
X44625000Y-34708333D01*
X44891666Y-34708333D01*
X43958333Y-34675000D02*
X43858333Y-34708333D01*
X43825000Y-34741666D01*
X43791666Y-34808333D01*
X43791666Y-34908333D01*
X43825000Y-34975000D01*
X43858333Y-35008333D01*
X43925000Y-35041666D01*
X44191666Y-35041666D01*
X44191666Y-34341666D01*
X43958333Y-34341666D01*
X43891666Y-34375000D01*
X43858333Y-34408333D01*
X43825000Y-34475000D01*
X43825000Y-34541666D01*
X43858333Y-34608333D01*
X43891666Y-34641666D01*
X43958333Y-34675000D01*
X44191666Y-34675000D01*
X43458333Y-35041666D02*
X43325000Y-35041666D01*
X43258333Y-35008333D01*
X43225000Y-34975000D01*
X43158333Y-34875000D01*
X43125000Y-34741666D01*
X43125000Y-34475000D01*
X43158333Y-34408333D01*
X43191666Y-34375000D01*
X43258333Y-34341666D01*
X43391666Y-34341666D01*
X43458333Y-34375000D01*
X43491666Y-34408333D01*
X43525000Y-34475000D01*
X43525000Y-34641666D01*
X43491666Y-34708333D01*
X43458333Y-34741666D01*
X43391666Y-34775000D01*
X43258333Y-34775000D01*
X43191666Y-34741666D01*
X43158333Y-34708333D01*
X43125000Y-34641666D01*
X24875000Y-35041666D02*
X24875000Y-34341666D01*
X24608333Y-34341666D01*
X24541666Y-34375000D01*
X24508333Y-34408333D01*
X24475000Y-34475000D01*
X24475000Y-34575000D01*
X24508333Y-34641666D01*
X24541666Y-34675000D01*
X24608333Y-34708333D01*
X24875000Y-34708333D01*
X23941666Y-34675000D02*
X23841666Y-34708333D01*
X23808333Y-34741666D01*
X23775000Y-34808333D01*
X23775000Y-34908333D01*
X23808333Y-34975000D01*
X23841666Y-35008333D01*
X23908333Y-35041666D01*
X24175000Y-35041666D01*
X24175000Y-34341666D01*
X23941666Y-34341666D01*
X23875000Y-34375000D01*
X23841666Y-34408333D01*
X23808333Y-34475000D01*
X23808333Y-34541666D01*
X23841666Y-34608333D01*
X23875000Y-34641666D01*
X23941666Y-34675000D01*
X24175000Y-34675000D01*
X23108333Y-35041666D02*
X23508333Y-35041666D01*
X23308333Y-35041666D02*
X23308333Y-34341666D01*
X23375000Y-34441666D01*
X23441666Y-34508333D01*
X23508333Y-34541666D01*
X22875000Y-34341666D02*
X22441666Y-34341666D01*
X22675000Y-34608333D01*
X22575000Y-34608333D01*
X22508333Y-34641666D01*
X22475000Y-34675000D01*
X22441666Y-34741666D01*
X22441666Y-34908333D01*
X22475000Y-34975000D01*
X22508333Y-35008333D01*
X22575000Y-35041666D01*
X22775000Y-35041666D01*
X22841666Y-35008333D01*
X22875000Y-34975000D01*
X27091666Y-34341666D02*
X26658333Y-34341666D01*
X26891666Y-34608333D01*
X26791666Y-34608333D01*
X26725000Y-34641666D01*
X26691666Y-34675000D01*
X26658333Y-34741666D01*
X26658333Y-34908333D01*
X26691666Y-34975000D01*
X26725000Y-35008333D01*
X26791666Y-35041666D01*
X26991666Y-35041666D01*
X27058333Y-35008333D01*
X27091666Y-34975000D01*
X26458333Y-34341666D02*
X26225000Y-35041666D01*
X25991666Y-34341666D01*
X25825000Y-34341666D02*
X25391666Y-34341666D01*
X25625000Y-34608333D01*
X25525000Y-34608333D01*
X25458333Y-34641666D01*
X25425000Y-34675000D01*
X25391666Y-34741666D01*
X25391666Y-34908333D01*
X25425000Y-34975000D01*
X25458333Y-35008333D01*
X25525000Y-35041666D01*
X25725000Y-35041666D01*
X25791666Y-35008333D01*
X25825000Y-34975000D01*
D12*
X63200000Y-37100000D02*
G75*
G02X62900000Y-37400000I-300000J0D01*
G01*
X62900000Y-19800000D02*
G75*
G02X63200000Y-20100000I0J-300000D01*
G01*
X20000000Y-20100000D02*
G75*
G02X20300000Y-19800000I300000J0D01*
G01*
X20300000Y-37400000D02*
G75*
G02X20000000Y-37100000I0J300000D01*
G01*
X20000000Y-37100000D02*
X20000000Y-20100000D01*
X62900000Y-37400000D02*
X20300000Y-37400000D01*
X63200000Y-20100000D02*
X63200000Y-37100000D01*
X20300000Y-19800000D02*
X62900000Y-19800000D01*
M02*
