M48
;DRILL file {KiCad 5.0.1} date Thu 17 Oct 2019 01:14:02 AM CEST
;FORMAT={-:-/ absolute / inch / decimal}
FMAT,2
INCH,TZ
T1C0.0118
T2C0.0157
T3C0.0236
T4C0.0394
%
G90
G05
M72
T1
X0.9646Y-1.0984
X0.9646Y-1.1339
X0.9646Y-1.1693
X0.9862Y-0.8031
X0.9902Y-1.0709
X0.9902Y-1.1909
X0.9902Y-1.376
X1.0472Y-0.8976
X1.0827Y-0.8031
X1.0827Y-1.4488
X1.0904Y-1.0376
X1.0906Y-1.2165
X1.0906Y-1.2402
X1.0935Y-1.0079
X1.1257Y-1.122
X1.1722Y-1.1575
X1.1732Y-1.0856
X1.1831Y-1.4508
X1.2028Y-1.2608
X1.2028Y-1.2953
X1.2098Y-0.8946
X1.213Y-0.9829
X1.253Y-1.1132
X1.2593Y-0.8785
X1.2598Y-1.185
X1.2677Y-1.2835
X1.2815Y-1.4488
X1.2835Y-0.8031
X1.2865Y-0.8538
X1.2874Y-1.0551
X1.3098Y-1.0355
X1.3136Y-0.971
X1.3418Y-1.3567
X1.3425Y-1.2598
X1.3543Y-1.0984
X1.3816Y-1.0643
X1.3839Y-0.8031
X1.401Y-1.0242
X1.4182Y-1.1396
X1.4226Y-1.3249
X1.4282Y-1.2486
X1.4301Y-0.9724
X1.4456Y-1.3059
X1.4564Y-1.1981
X1.4591Y-1.2624
X1.4648Y-1.0216
X1.4663Y-0.9919
X1.4823Y-0.8031
X1.4843Y-1.1181
X1.4878Y-1.356
X1.4921Y-1.0669
X1.501Y-0.9311
X1.502Y-0.9852
X1.5368Y-1.0296
X1.5404Y-1.
X1.5435Y-1.244
X1.5551Y-0.8858
X1.5709Y-1.126
X1.5724Y-1.251
X1.5784Y-1.3685
X1.5787Y-1.3089
X1.5807Y-0.8031
X1.5827Y-1.4016
X1.6254Y-1.3065
X1.6673Y-1.2303
X1.6811Y-1.0118
X1.6831Y-0.8012
X1.689Y-1.3307
X1.7165Y-1.2087
X1.7376Y-1.3226
X1.7598Y-0.9291
X1.7815Y-0.8012
X1.7913Y-1.1299
X1.7921Y-1.3321
X1.7986Y-1.2658
X1.815Y-0.9134
X1.8228Y-1.3203
X1.8275Y-1.2283
X1.8295Y-1.2642
X1.8425Y-0.9134
X1.8504Y-1.2992
X1.8654Y-1.2351
X1.8819Y-1.4488
X1.8839Y-0.8012
X1.8878Y-1.123
X1.8986Y-1.0817
X1.9108Y-1.2362
X1.9449Y-1.315
X1.9705Y-1.2447
X1.9769Y-1.1378
X1.9783Y-1.2933
X1.9803Y-1.4469
X2.0217Y-1.0965
X2.0236Y-1.2037
X2.0276Y-0.9488
X2.0827Y-1.4488
X2.124Y-1.2878
X2.126Y-1.0906
X2.1631Y-1.2621
X2.1811Y-0.8031
X2.2087Y-0.9213
X2.2087Y-0.9862
X2.2369Y-1.0804
X2.2835Y-0.8031
X2.3031Y-0.9134
T2
X1.9077Y-0.9547
X1.9454Y-1.0483
T4
X2.3307Y-0.9783
X2.3307Y-1.0783
X2.3307Y-1.1783
X2.3307Y-1.2783
X0.9331Y-0.8307
X1.0331Y-0.8307
X1.1331Y-0.8307
X1.2331Y-0.8307
X1.3331Y-0.8307
X1.4331Y-0.8307
X1.5331Y-0.8307
X1.6331Y-0.8307
X1.7331Y-0.8307
X1.8331Y-0.8307
X1.9331Y-0.8307
X2.0331Y-0.8307
X2.1331Y-0.8307
X2.2331Y-0.8307
X2.3331Y-0.8307
X0.9331Y-1.4213
X1.0331Y-1.4213
X1.1331Y-1.4213
X1.2331Y-1.4213
X1.3331Y-1.4213
X1.4331Y-1.4213
X1.5331Y-1.4213
X1.6331Y-1.4213
X1.7331Y-1.4213
X1.8331Y-1.4213
X1.9331Y-1.4213
X2.0331Y-1.4213
X2.1331Y-1.4213
X2.2331Y-1.4213
X2.3331Y-1.4213
T3
X0.8494Y-0.9547G85X0.8258Y-0.9547
G05
X0.8494Y-1.2949G85X0.8258Y-1.2949
G05
X1.0238Y-0.9547G85X0.9805Y-0.9547
G05
X1.0238Y-1.2949G85X0.9805Y-1.2949
G05
T0
M30
