G04 #@! TF.GenerationSoftware,KiCad,Pcbnew,5.1.5+dfsg1-2build2*
G04 #@! TF.CreationDate,2020-10-31T17:23:00+01:00*
G04 #@! TF.ProjectId,OtterPill,4f747465-7250-4696-9c6c-2e6b69636164,rev?*
G04 #@! TF.SameCoordinates,Original*
G04 #@! TF.FileFunction,Legend,Bot*
G04 #@! TF.FilePolarity,Positive*
%FSLAX46Y46*%
G04 Gerber Fmt 4.6, Leading zero omitted, Abs format (unit mm)*
G04 Created by KiCad (PCBNEW 5.1.5+dfsg1-2build2) date 2020-10-31 17:23:00*
%MOMM*%
%LPD*%
G04 APERTURE LIST*
%ADD10C,0.100000*%
%ADD11C,0.300000*%
%ADD12C,0.050000*%
%ADD13C,0.120000*%
%ADD14C,0.010000*%
G04 APERTURE END LIST*
D10*
X21953333Y-33600000D02*
X22020000Y-33566666D01*
X22120000Y-33566666D01*
X22220000Y-33600000D01*
X22286666Y-33666666D01*
X22320000Y-33733333D01*
X22353333Y-33866666D01*
X22353333Y-33966666D01*
X22320000Y-34100000D01*
X22286666Y-34166666D01*
X22220000Y-34233333D01*
X22120000Y-34266666D01*
X22053333Y-34266666D01*
X21953333Y-34233333D01*
X21920000Y-34200000D01*
X21920000Y-33966666D01*
X22053333Y-33966666D01*
X21620000Y-34266666D02*
X21620000Y-33566666D01*
X21220000Y-34266666D01*
X21220000Y-33566666D01*
X20886666Y-34266666D02*
X20886666Y-33566666D01*
X20720000Y-33566666D01*
X20620000Y-33600000D01*
X20553333Y-33666666D01*
X20520000Y-33733333D01*
X20486666Y-33866666D01*
X20486666Y-33966666D01*
X20520000Y-34100000D01*
X20553333Y-34166666D01*
X20620000Y-34233333D01*
X20720000Y-34266666D01*
X20886666Y-34266666D01*
X20623333Y-23543333D02*
X20856666Y-22843333D01*
X21090000Y-23543333D01*
X21323333Y-22843333D02*
X21323333Y-23543333D01*
X21656666Y-22843333D02*
X21656666Y-23543333D01*
X22056666Y-22843333D01*
X22056666Y-23543333D01*
X54792857Y-33073809D02*
X54792857Y-33573809D01*
X54911904Y-33573809D01*
X54983333Y-33550000D01*
X55030952Y-33502380D01*
X55054761Y-33454761D01*
X55078571Y-33359523D01*
X55078571Y-33288095D01*
X55054761Y-33192857D01*
X55030952Y-33145238D01*
X54983333Y-33097619D01*
X54911904Y-33073809D01*
X54792857Y-33073809D01*
X55459523Y-33335714D02*
X55292857Y-33335714D01*
X55292857Y-33073809D02*
X55292857Y-33573809D01*
X55530952Y-33573809D01*
X55721428Y-33573809D02*
X55721428Y-33169047D01*
X55745238Y-33121428D01*
X55769047Y-33097619D01*
X55816666Y-33073809D01*
X55911904Y-33073809D01*
X55959523Y-33097619D01*
X55983333Y-33121428D01*
X56007142Y-33169047D01*
X56007142Y-33573809D01*
D11*
X45351904Y-32285238D02*
X45732857Y-32285238D01*
X45923333Y-32190000D01*
X46113809Y-31999523D01*
X46209047Y-31618571D01*
X46209047Y-30951904D01*
X46113809Y-30570952D01*
X45923333Y-30380476D01*
X45732857Y-30285238D01*
X45351904Y-30285238D01*
X45161428Y-30380476D01*
X44970952Y-30570952D01*
X44875714Y-30951904D01*
X44875714Y-31618571D01*
X44970952Y-31999523D01*
X45161428Y-32190000D01*
X45351904Y-32285238D01*
X46780476Y-31618571D02*
X47542380Y-31618571D01*
X47066190Y-32285238D02*
X47066190Y-30570952D01*
X47161428Y-30380476D01*
X47351904Y-30285238D01*
X47542380Y-30285238D01*
X47923333Y-31618571D02*
X48685238Y-31618571D01*
X48209047Y-32285238D02*
X48209047Y-30570952D01*
X48304285Y-30380476D01*
X48494761Y-30285238D01*
X48685238Y-30285238D01*
X50113809Y-30380476D02*
X49923333Y-30285238D01*
X49542380Y-30285238D01*
X49351904Y-30380476D01*
X49256666Y-30570952D01*
X49256666Y-31332857D01*
X49351904Y-31523333D01*
X49542380Y-31618571D01*
X49923333Y-31618571D01*
X50113809Y-31523333D01*
X50209047Y-31332857D01*
X50209047Y-31142380D01*
X49256666Y-30951904D01*
X51066190Y-30285238D02*
X51066190Y-31618571D01*
X51066190Y-31237619D02*
X51161428Y-31428095D01*
X51256666Y-31523333D01*
X51447142Y-31618571D01*
X51637619Y-31618571D01*
X52304285Y-31618571D02*
X52304285Y-29618571D01*
X52304285Y-31523333D02*
X52494761Y-31618571D01*
X52875714Y-31618571D01*
X53066190Y-31523333D01*
X53161428Y-31428095D01*
X53256666Y-31237619D01*
X53256666Y-30666190D01*
X53161428Y-30475714D01*
X53066190Y-30380476D01*
X52875714Y-30285238D01*
X52494761Y-30285238D01*
X52304285Y-30380476D01*
X54113809Y-30285238D02*
X54113809Y-31618571D01*
X54113809Y-32285238D02*
X54018571Y-32190000D01*
X54113809Y-32094761D01*
X54209047Y-32190000D01*
X54113809Y-32285238D01*
X54113809Y-32094761D01*
X55351904Y-30285238D02*
X55161428Y-30380476D01*
X55066190Y-30570952D01*
X55066190Y-32285238D01*
X56399523Y-30285238D02*
X56209047Y-30380476D01*
X56113809Y-30570952D01*
X56113809Y-32285238D01*
D10*
X45173333Y-28983333D02*
X45173333Y-28483333D01*
X45140000Y-28383333D01*
X45073333Y-28316666D01*
X44973333Y-28283333D01*
X44906666Y-28283333D01*
X45806666Y-28283333D02*
X45806666Y-28650000D01*
X45773333Y-28716666D01*
X45706666Y-28750000D01*
X45573333Y-28750000D01*
X45506666Y-28716666D01*
X45806666Y-28316666D02*
X45740000Y-28283333D01*
X45573333Y-28283333D01*
X45506666Y-28316666D01*
X45473333Y-28383333D01*
X45473333Y-28450000D01*
X45506666Y-28516666D01*
X45573333Y-28550000D01*
X45740000Y-28550000D01*
X45806666Y-28583333D01*
X46140000Y-28750000D02*
X46140000Y-28283333D01*
X46140000Y-28683333D02*
X46173333Y-28716666D01*
X46240000Y-28750000D01*
X46340000Y-28750000D01*
X46406666Y-28716666D01*
X46440000Y-28650000D01*
X46440000Y-28283333D01*
X47306666Y-28283333D02*
X47306666Y-28983333D01*
X47306666Y-28650000D02*
X47706666Y-28650000D01*
X47706666Y-28283333D02*
X47706666Y-28983333D01*
X48306666Y-28316666D02*
X48240000Y-28283333D01*
X48106666Y-28283333D01*
X48040000Y-28316666D01*
X48006666Y-28383333D01*
X48006666Y-28650000D01*
X48040000Y-28716666D01*
X48106666Y-28750000D01*
X48240000Y-28750000D01*
X48306666Y-28716666D01*
X48340000Y-28650000D01*
X48340000Y-28583333D01*
X48006666Y-28516666D01*
X48640000Y-28750000D02*
X48640000Y-28283333D01*
X48640000Y-28683333D02*
X48673333Y-28716666D01*
X48740000Y-28750000D01*
X48840000Y-28750000D01*
X48906666Y-28716666D01*
X48940000Y-28650000D01*
X48940000Y-28283333D01*
X49273333Y-28283333D02*
X49273333Y-28750000D01*
X49273333Y-28616666D02*
X49306666Y-28683333D01*
X49340000Y-28716666D01*
X49406666Y-28750000D01*
X49473333Y-28750000D01*
X49706666Y-28283333D02*
X49706666Y-28750000D01*
X49706666Y-28983333D02*
X49673333Y-28950000D01*
X49706666Y-28916666D01*
X49740000Y-28950000D01*
X49706666Y-28983333D01*
X49706666Y-28916666D01*
X50040000Y-28283333D02*
X50040000Y-28983333D01*
X50106666Y-28550000D02*
X50306666Y-28283333D01*
X50306666Y-28750000D02*
X50040000Y-28483333D01*
X51106666Y-28916666D02*
X51140000Y-28950000D01*
X51206666Y-28983333D01*
X51373333Y-28983333D01*
X51440000Y-28950000D01*
X51473333Y-28916666D01*
X51506666Y-28850000D01*
X51506666Y-28783333D01*
X51473333Y-28683333D01*
X51073333Y-28283333D01*
X51506666Y-28283333D01*
X51940000Y-28983333D02*
X52006666Y-28983333D01*
X52073333Y-28950000D01*
X52106666Y-28916666D01*
X52140000Y-28850000D01*
X52173333Y-28716666D01*
X52173333Y-28550000D01*
X52140000Y-28416666D01*
X52106666Y-28350000D01*
X52073333Y-28316666D01*
X52006666Y-28283333D01*
X51940000Y-28283333D01*
X51873333Y-28316666D01*
X51840000Y-28350000D01*
X51806666Y-28416666D01*
X51773333Y-28550000D01*
X51773333Y-28716666D01*
X51806666Y-28850000D01*
X51840000Y-28916666D01*
X51873333Y-28950000D01*
X51940000Y-28983333D01*
X52440000Y-28916666D02*
X52473333Y-28950000D01*
X52540000Y-28983333D01*
X52706666Y-28983333D01*
X52773333Y-28950000D01*
X52806666Y-28916666D01*
X52840000Y-28850000D01*
X52840000Y-28783333D01*
X52806666Y-28683333D01*
X52406666Y-28283333D01*
X52840000Y-28283333D01*
X53273333Y-28983333D02*
X53340000Y-28983333D01*
X53406666Y-28950000D01*
X53440000Y-28916666D01*
X53473333Y-28850000D01*
X53506666Y-28716666D01*
X53506666Y-28550000D01*
X53473333Y-28416666D01*
X53440000Y-28350000D01*
X53406666Y-28316666D01*
X53340000Y-28283333D01*
X53273333Y-28283333D01*
X53206666Y-28316666D01*
X53173333Y-28350000D01*
X53140000Y-28416666D01*
X53106666Y-28550000D01*
X53106666Y-28716666D01*
X53140000Y-28850000D01*
X53173333Y-28916666D01*
X53206666Y-28950000D01*
X53273333Y-28983333D01*
X54273333Y-28750000D02*
X54440000Y-28283333D01*
X54606666Y-28750000D01*
X55240000Y-28283333D02*
X54840000Y-28283333D01*
X55040000Y-28283333D02*
X55040000Y-28983333D01*
X54973333Y-28883333D01*
X54906666Y-28816666D01*
X54840000Y-28783333D01*
X55540000Y-28350000D02*
X55573333Y-28316666D01*
X55540000Y-28283333D01*
X55506666Y-28316666D01*
X55540000Y-28350000D01*
X55540000Y-28283333D01*
X55806666Y-28983333D02*
X56240000Y-28983333D01*
X56006666Y-28716666D01*
X56106666Y-28716666D01*
X56173333Y-28683333D01*
X56206666Y-28650000D01*
X56240000Y-28583333D01*
X56240000Y-28416666D01*
X56206666Y-28350000D01*
X56173333Y-28316666D01*
X56106666Y-28283333D01*
X55906666Y-28283333D01*
X55840000Y-28316666D01*
X55806666Y-28350000D01*
X60286666Y-24003333D02*
X60286666Y-24436666D01*
X60553333Y-24203333D01*
X60553333Y-24303333D01*
X60586666Y-24370000D01*
X60620000Y-24403333D01*
X60686666Y-24436666D01*
X60853333Y-24436666D01*
X60920000Y-24403333D01*
X60953333Y-24370000D01*
X60986666Y-24303333D01*
X60986666Y-24103333D01*
X60953333Y-24036666D01*
X60920000Y-24003333D01*
X60286666Y-24636666D02*
X60986666Y-24870000D01*
X60286666Y-25103333D01*
X60286666Y-25270000D02*
X60286666Y-25703333D01*
X60553333Y-25470000D01*
X60553333Y-25570000D01*
X60586666Y-25636666D01*
X60620000Y-25670000D01*
X60686666Y-25703333D01*
X60853333Y-25703333D01*
X60920000Y-25670000D01*
X60953333Y-25636666D01*
X60986666Y-25570000D01*
X60986666Y-25370000D01*
X60953333Y-25303333D01*
X60920000Y-25270000D01*
X60986666Y-26703333D02*
X60286666Y-26703333D01*
X60286666Y-26870000D01*
X60320000Y-26970000D01*
X60386666Y-27036666D01*
X60453333Y-27070000D01*
X60586666Y-27103333D01*
X60686666Y-27103333D01*
X60820000Y-27070000D01*
X60886666Y-27036666D01*
X60953333Y-26970000D01*
X60986666Y-26870000D01*
X60986666Y-26703333D01*
X60986666Y-27403333D02*
X60286666Y-27403333D01*
X60286666Y-27870000D02*
X60286666Y-28003333D01*
X60320000Y-28070000D01*
X60386666Y-28136666D01*
X60520000Y-28170000D01*
X60753333Y-28170000D01*
X60886666Y-28136666D01*
X60953333Y-28070000D01*
X60986666Y-28003333D01*
X60986666Y-27870000D01*
X60953333Y-27803333D01*
X60886666Y-27736666D01*
X60753333Y-27703333D01*
X60520000Y-27703333D01*
X60386666Y-27736666D01*
X60320000Y-27803333D01*
X60286666Y-27870000D01*
X60920000Y-29503333D02*
X60953333Y-29470000D01*
X60986666Y-29370000D01*
X60986666Y-29303333D01*
X60953333Y-29203333D01*
X60886666Y-29136666D01*
X60820000Y-29103333D01*
X60686666Y-29070000D01*
X60586666Y-29070000D01*
X60453333Y-29103333D01*
X60386666Y-29136666D01*
X60320000Y-29203333D01*
X60286666Y-29303333D01*
X60286666Y-29370000D01*
X60320000Y-29470000D01*
X60353333Y-29503333D01*
X60986666Y-30136666D02*
X60986666Y-29803333D01*
X60286666Y-29803333D01*
X60986666Y-30370000D02*
X60286666Y-30370000D01*
X60986666Y-30770000D02*
X60586666Y-30470000D01*
X60286666Y-30770000D02*
X60686666Y-30370000D01*
X60345000Y-31986666D02*
X60311666Y-31920000D01*
X60311666Y-31820000D01*
X60345000Y-31720000D01*
X60411666Y-31653333D01*
X60478333Y-31620000D01*
X60611666Y-31586666D01*
X60711666Y-31586666D01*
X60845000Y-31620000D01*
X60911666Y-31653333D01*
X60978333Y-31720000D01*
X61011666Y-31820000D01*
X61011666Y-31886666D01*
X60978333Y-31986666D01*
X60945000Y-32020000D01*
X60711666Y-32020000D01*
X60711666Y-31886666D01*
X61011666Y-32320000D02*
X60311666Y-32320000D01*
X61011666Y-32720000D01*
X60311666Y-32720000D01*
X61011666Y-33053333D02*
X60311666Y-33053333D01*
X60311666Y-33220000D01*
X60345000Y-33320000D01*
X60411666Y-33386666D01*
X60478333Y-33420000D01*
X60611666Y-33453333D01*
X60711666Y-33453333D01*
X60845000Y-33420000D01*
X60911666Y-33386666D01*
X60978333Y-33320000D01*
X61011666Y-33220000D01*
X61011666Y-33053333D01*
X51191666Y-22850000D02*
X51125000Y-22883333D01*
X51025000Y-22883333D01*
X50925000Y-22850000D01*
X50858333Y-22783333D01*
X50825000Y-22716666D01*
X50791666Y-22583333D01*
X50791666Y-22483333D01*
X50825000Y-22350000D01*
X50858333Y-22283333D01*
X50925000Y-22216666D01*
X51025000Y-22183333D01*
X51091666Y-22183333D01*
X51191666Y-22216666D01*
X51225000Y-22250000D01*
X51225000Y-22483333D01*
X51091666Y-22483333D01*
X51525000Y-22183333D02*
X51525000Y-22883333D01*
X51925000Y-22183333D01*
X51925000Y-22883333D01*
X52258333Y-22183333D02*
X52258333Y-22883333D01*
X52425000Y-22883333D01*
X52525000Y-22850000D01*
X52591666Y-22783333D01*
X52625000Y-22716666D01*
X52658333Y-22583333D01*
X52658333Y-22483333D01*
X52625000Y-22350000D01*
X52591666Y-22283333D01*
X52525000Y-22216666D01*
X52425000Y-22183333D01*
X52258333Y-22183333D01*
X28008333Y-22183333D02*
X28008333Y-22883333D01*
X28275000Y-22883333D01*
X28341666Y-22850000D01*
X28375000Y-22816666D01*
X28408333Y-22750000D01*
X28408333Y-22650000D01*
X28375000Y-22583333D01*
X28341666Y-22550000D01*
X28275000Y-22516666D01*
X28008333Y-22516666D01*
X28941666Y-22550000D02*
X29041666Y-22516666D01*
X29075000Y-22483333D01*
X29108333Y-22416666D01*
X29108333Y-22316666D01*
X29075000Y-22250000D01*
X29041666Y-22216666D01*
X28975000Y-22183333D01*
X28708333Y-22183333D01*
X28708333Y-22883333D01*
X28941666Y-22883333D01*
X29008333Y-22850000D01*
X29041666Y-22816666D01*
X29075000Y-22750000D01*
X29075000Y-22683333D01*
X29041666Y-22616666D01*
X29008333Y-22583333D01*
X28941666Y-22550000D01*
X28708333Y-22550000D01*
X29541666Y-22883333D02*
X29608333Y-22883333D01*
X29675000Y-22850000D01*
X29708333Y-22816666D01*
X29741666Y-22750000D01*
X29775000Y-22616666D01*
X29775000Y-22450000D01*
X29741666Y-22316666D01*
X29708333Y-22250000D01*
X29675000Y-22216666D01*
X29608333Y-22183333D01*
X29541666Y-22183333D01*
X29475000Y-22216666D01*
X29441666Y-22250000D01*
X29408333Y-22316666D01*
X29375000Y-22450000D01*
X29375000Y-22616666D01*
X29408333Y-22750000D01*
X29441666Y-22816666D01*
X29475000Y-22850000D01*
X29541666Y-22883333D01*
X53408333Y-22183333D02*
X53408333Y-22883333D01*
X53675000Y-22883333D01*
X53741666Y-22850000D01*
X53775000Y-22816666D01*
X53808333Y-22750000D01*
X53808333Y-22650000D01*
X53775000Y-22583333D01*
X53741666Y-22550000D01*
X53675000Y-22516666D01*
X53408333Y-22516666D01*
X54341666Y-22550000D02*
X54441666Y-22516666D01*
X54475000Y-22483333D01*
X54508333Y-22416666D01*
X54508333Y-22316666D01*
X54475000Y-22250000D01*
X54441666Y-22216666D01*
X54375000Y-22183333D01*
X54108333Y-22183333D01*
X54108333Y-22883333D01*
X54341666Y-22883333D01*
X54408333Y-22850000D01*
X54441666Y-22816666D01*
X54475000Y-22750000D01*
X54475000Y-22683333D01*
X54441666Y-22616666D01*
X54408333Y-22583333D01*
X54341666Y-22550000D01*
X54108333Y-22550000D01*
X54841666Y-22183333D02*
X54975000Y-22183333D01*
X55041666Y-22216666D01*
X55075000Y-22250000D01*
X55141666Y-22350000D01*
X55175000Y-22483333D01*
X55175000Y-22750000D01*
X55141666Y-22816666D01*
X55108333Y-22850000D01*
X55041666Y-22883333D01*
X54908333Y-22883333D01*
X54841666Y-22850000D01*
X54808333Y-22816666D01*
X54775000Y-22750000D01*
X54775000Y-22583333D01*
X54808333Y-22516666D01*
X54841666Y-22483333D01*
X54908333Y-22450000D01*
X55041666Y-22450000D01*
X55108333Y-22483333D01*
X55141666Y-22516666D01*
X55175000Y-22583333D01*
X30200000Y-22233333D02*
X30200000Y-22933333D01*
X30466666Y-22933333D01*
X30533333Y-22900000D01*
X30566666Y-22866666D01*
X30600000Y-22800000D01*
X30600000Y-22700000D01*
X30566666Y-22633333D01*
X30533333Y-22600000D01*
X30466666Y-22566666D01*
X30200000Y-22566666D01*
X31133333Y-22600000D02*
X31233333Y-22566666D01*
X31266666Y-22533333D01*
X31300000Y-22466666D01*
X31300000Y-22366666D01*
X31266666Y-22300000D01*
X31233333Y-22266666D01*
X31166666Y-22233333D01*
X30900000Y-22233333D01*
X30900000Y-22933333D01*
X31133333Y-22933333D01*
X31200000Y-22900000D01*
X31233333Y-22866666D01*
X31266666Y-22800000D01*
X31266666Y-22733333D01*
X31233333Y-22666666D01*
X31200000Y-22633333D01*
X31133333Y-22600000D01*
X30900000Y-22600000D01*
X31966666Y-22233333D02*
X31566666Y-22233333D01*
X31766666Y-22233333D02*
X31766666Y-22933333D01*
X31700000Y-22833333D01*
X31633333Y-22766666D01*
X31566666Y-22733333D01*
X32233333Y-22866666D02*
X32266666Y-22900000D01*
X32333333Y-22933333D01*
X32500000Y-22933333D01*
X32566666Y-22900000D01*
X32600000Y-22866666D01*
X32633333Y-22800000D01*
X32633333Y-22733333D01*
X32600000Y-22633333D01*
X32200000Y-22233333D01*
X32633333Y-22233333D01*
X35658333Y-22133333D02*
X35658333Y-22833333D01*
X35925000Y-22833333D01*
X35991666Y-22800000D01*
X36025000Y-22766666D01*
X36058333Y-22700000D01*
X36058333Y-22600000D01*
X36025000Y-22533333D01*
X35991666Y-22500000D01*
X35925000Y-22466666D01*
X35658333Y-22466666D01*
X36325000Y-22333333D02*
X36658333Y-22333333D01*
X36258333Y-22133333D02*
X36491666Y-22833333D01*
X36725000Y-22133333D01*
X37258333Y-22833333D02*
X37125000Y-22833333D01*
X37058333Y-22800000D01*
X37025000Y-22766666D01*
X36958333Y-22666666D01*
X36925000Y-22533333D01*
X36925000Y-22266666D01*
X36958333Y-22200000D01*
X36991666Y-22166666D01*
X37058333Y-22133333D01*
X37191666Y-22133333D01*
X37258333Y-22166666D01*
X37291666Y-22200000D01*
X37325000Y-22266666D01*
X37325000Y-22433333D01*
X37291666Y-22500000D01*
X37258333Y-22533333D01*
X37191666Y-22566666D01*
X37058333Y-22566666D01*
X36991666Y-22533333D01*
X36958333Y-22500000D01*
X36925000Y-22433333D01*
X55675000Y-22183333D02*
X55675000Y-22883333D01*
X55941666Y-22883333D01*
X56008333Y-22850000D01*
X56041666Y-22816666D01*
X56075000Y-22750000D01*
X56075000Y-22650000D01*
X56041666Y-22583333D01*
X56008333Y-22550000D01*
X55941666Y-22516666D01*
X55675000Y-22516666D01*
X56341666Y-22383333D02*
X56675000Y-22383333D01*
X56275000Y-22183333D02*
X56508333Y-22883333D01*
X56741666Y-22183333D01*
X57341666Y-22183333D02*
X56941666Y-22183333D01*
X57141666Y-22183333D02*
X57141666Y-22883333D01*
X57075000Y-22783333D01*
X57008333Y-22716666D01*
X56941666Y-22683333D01*
X57775000Y-22883333D02*
X57841666Y-22883333D01*
X57908333Y-22850000D01*
X57941666Y-22816666D01*
X57975000Y-22750000D01*
X58008333Y-22616666D01*
X58008333Y-22450000D01*
X57975000Y-22316666D01*
X57941666Y-22250000D01*
X57908333Y-22216666D01*
X57841666Y-22183333D01*
X57775000Y-22183333D01*
X57708333Y-22216666D01*
X57675000Y-22250000D01*
X57641666Y-22316666D01*
X57608333Y-22450000D01*
X57608333Y-22616666D01*
X57641666Y-22750000D01*
X57675000Y-22816666D01*
X57708333Y-22850000D01*
X57775000Y-22883333D01*
X48383333Y-22183333D02*
X48383333Y-22883333D01*
X48650000Y-22883333D01*
X48716666Y-22850000D01*
X48750000Y-22816666D01*
X48783333Y-22750000D01*
X48783333Y-22650000D01*
X48750000Y-22583333D01*
X48716666Y-22550000D01*
X48650000Y-22516666D01*
X48383333Y-22516666D01*
X49050000Y-22383333D02*
X49383333Y-22383333D01*
X48983333Y-22183333D02*
X49216666Y-22883333D01*
X49450000Y-22183333D01*
X50050000Y-22183333D02*
X49650000Y-22183333D01*
X49850000Y-22183333D02*
X49850000Y-22883333D01*
X49783333Y-22783333D01*
X49716666Y-22716666D01*
X49650000Y-22683333D01*
X38208333Y-22183333D02*
X38208333Y-22883333D01*
X38475000Y-22883333D01*
X38541666Y-22850000D01*
X38575000Y-22816666D01*
X38608333Y-22750000D01*
X38608333Y-22650000D01*
X38575000Y-22583333D01*
X38541666Y-22550000D01*
X38475000Y-22516666D01*
X38208333Y-22516666D01*
X38875000Y-22383333D02*
X39208333Y-22383333D01*
X38808333Y-22183333D02*
X39041666Y-22883333D01*
X39275000Y-22183333D01*
X39841666Y-22883333D02*
X39508333Y-22883333D01*
X39475000Y-22550000D01*
X39508333Y-22583333D01*
X39575000Y-22616666D01*
X39741666Y-22616666D01*
X39808333Y-22583333D01*
X39841666Y-22550000D01*
X39875000Y-22483333D01*
X39875000Y-22316666D01*
X39841666Y-22250000D01*
X39808333Y-22216666D01*
X39741666Y-22183333D01*
X39575000Y-22183333D01*
X39508333Y-22216666D01*
X39475000Y-22250000D01*
X22575000Y-22183333D02*
X22575000Y-22883333D01*
X22841666Y-22883333D01*
X22908333Y-22850000D01*
X22941666Y-22816666D01*
X22975000Y-22750000D01*
X22975000Y-22650000D01*
X22941666Y-22583333D01*
X22908333Y-22550000D01*
X22841666Y-22516666D01*
X22575000Y-22516666D01*
X23508333Y-22550000D02*
X23608333Y-22516666D01*
X23641666Y-22483333D01*
X23675000Y-22416666D01*
X23675000Y-22316666D01*
X23641666Y-22250000D01*
X23608333Y-22216666D01*
X23541666Y-22183333D01*
X23275000Y-22183333D01*
X23275000Y-22883333D01*
X23508333Y-22883333D01*
X23575000Y-22850000D01*
X23608333Y-22816666D01*
X23641666Y-22750000D01*
X23641666Y-22683333D01*
X23608333Y-22616666D01*
X23575000Y-22583333D01*
X23508333Y-22550000D01*
X23275000Y-22550000D01*
X24341666Y-22183333D02*
X23941666Y-22183333D01*
X24141666Y-22183333D02*
X24141666Y-22883333D01*
X24075000Y-22783333D01*
X24008333Y-22716666D01*
X23941666Y-22683333D01*
X24941666Y-22650000D02*
X24941666Y-22183333D01*
X24775000Y-22916666D02*
X24608333Y-22416666D01*
X25041666Y-22416666D01*
X43258333Y-22183333D02*
X43258333Y-22883333D01*
X43525000Y-22883333D01*
X43591666Y-22850000D01*
X43625000Y-22816666D01*
X43658333Y-22750000D01*
X43658333Y-22650000D01*
X43625000Y-22583333D01*
X43591666Y-22550000D01*
X43525000Y-22516666D01*
X43258333Y-22516666D01*
X43925000Y-22383333D02*
X44258333Y-22383333D01*
X43858333Y-22183333D02*
X44091666Y-22883333D01*
X44325000Y-22183333D01*
X44491666Y-22883333D02*
X44925000Y-22883333D01*
X44691666Y-22616666D01*
X44791666Y-22616666D01*
X44858333Y-22583333D01*
X44891666Y-22550000D01*
X44925000Y-22483333D01*
X44925000Y-22316666D01*
X44891666Y-22250000D01*
X44858333Y-22216666D01*
X44791666Y-22183333D01*
X44591666Y-22183333D01*
X44525000Y-22216666D01*
X44491666Y-22250000D01*
X58508333Y-22183333D02*
X58508333Y-22883333D01*
X58775000Y-22883333D01*
X58841666Y-22850000D01*
X58875000Y-22816666D01*
X58908333Y-22750000D01*
X58908333Y-22650000D01*
X58875000Y-22583333D01*
X58841666Y-22550000D01*
X58775000Y-22516666D01*
X58508333Y-22516666D01*
X59175000Y-22383333D02*
X59508333Y-22383333D01*
X59108333Y-22183333D02*
X59341666Y-22883333D01*
X59575000Y-22183333D01*
X59841666Y-22183333D02*
X59975000Y-22183333D01*
X60041666Y-22216666D01*
X60075000Y-22250000D01*
X60141666Y-22350000D01*
X60175000Y-22483333D01*
X60175000Y-22750000D01*
X60141666Y-22816666D01*
X60108333Y-22850000D01*
X60041666Y-22883333D01*
X59908333Y-22883333D01*
X59841666Y-22850000D01*
X59808333Y-22816666D01*
X59775000Y-22750000D01*
X59775000Y-22583333D01*
X59808333Y-22516666D01*
X59841666Y-22483333D01*
X59908333Y-22450000D01*
X60041666Y-22450000D01*
X60108333Y-22483333D01*
X60141666Y-22516666D01*
X60175000Y-22583333D01*
X25125000Y-22183333D02*
X25125000Y-22883333D01*
X25391666Y-22883333D01*
X25458333Y-22850000D01*
X25491666Y-22816666D01*
X25525000Y-22750000D01*
X25525000Y-22650000D01*
X25491666Y-22583333D01*
X25458333Y-22550000D01*
X25391666Y-22516666D01*
X25125000Y-22516666D01*
X26058333Y-22550000D02*
X26158333Y-22516666D01*
X26191666Y-22483333D01*
X26225000Y-22416666D01*
X26225000Y-22316666D01*
X26191666Y-22250000D01*
X26158333Y-22216666D01*
X26091666Y-22183333D01*
X25825000Y-22183333D01*
X25825000Y-22883333D01*
X26058333Y-22883333D01*
X26125000Y-22850000D01*
X26158333Y-22816666D01*
X26191666Y-22750000D01*
X26191666Y-22683333D01*
X26158333Y-22616666D01*
X26125000Y-22583333D01*
X26058333Y-22550000D01*
X25825000Y-22550000D01*
X26891666Y-22183333D02*
X26491666Y-22183333D01*
X26691666Y-22183333D02*
X26691666Y-22883333D01*
X26625000Y-22783333D01*
X26558333Y-22716666D01*
X26491666Y-22683333D01*
X27525000Y-22883333D02*
X27191666Y-22883333D01*
X27158333Y-22550000D01*
X27191666Y-22583333D01*
X27258333Y-22616666D01*
X27425000Y-22616666D01*
X27491666Y-22583333D01*
X27525000Y-22550000D01*
X27558333Y-22483333D01*
X27558333Y-22316666D01*
X27525000Y-22250000D01*
X27491666Y-22216666D01*
X27425000Y-22183333D01*
X27258333Y-22183333D01*
X27191666Y-22216666D01*
X27158333Y-22250000D01*
X40733333Y-22183333D02*
X40733333Y-22883333D01*
X41000000Y-22883333D01*
X41066666Y-22850000D01*
X41100000Y-22816666D01*
X41133333Y-22750000D01*
X41133333Y-22650000D01*
X41100000Y-22583333D01*
X41066666Y-22550000D01*
X41000000Y-22516666D01*
X40733333Y-22516666D01*
X41400000Y-22383333D02*
X41733333Y-22383333D01*
X41333333Y-22183333D02*
X41566666Y-22883333D01*
X41800000Y-22183333D01*
X42333333Y-22650000D02*
X42333333Y-22183333D01*
X42166666Y-22916666D02*
X42000000Y-22416666D01*
X42433333Y-22416666D01*
X33083333Y-22183333D02*
X33083333Y-22883333D01*
X33350000Y-22883333D01*
X33416666Y-22850000D01*
X33450000Y-22816666D01*
X33483333Y-22750000D01*
X33483333Y-22650000D01*
X33450000Y-22583333D01*
X33416666Y-22550000D01*
X33350000Y-22516666D01*
X33083333Y-22516666D01*
X33750000Y-22383333D02*
X34083333Y-22383333D01*
X33683333Y-22183333D02*
X33916666Y-22883333D01*
X34150000Y-22183333D01*
X34316666Y-22883333D02*
X34783333Y-22883333D01*
X34483333Y-22183333D01*
X45783333Y-22183333D02*
X45783333Y-22883333D01*
X46050000Y-22883333D01*
X46116666Y-22850000D01*
X46150000Y-22816666D01*
X46183333Y-22750000D01*
X46183333Y-22650000D01*
X46150000Y-22583333D01*
X46116666Y-22550000D01*
X46050000Y-22516666D01*
X45783333Y-22516666D01*
X46450000Y-22383333D02*
X46783333Y-22383333D01*
X46383333Y-22183333D02*
X46616666Y-22883333D01*
X46850000Y-22183333D01*
X47050000Y-22816666D02*
X47083333Y-22850000D01*
X47150000Y-22883333D01*
X47316666Y-22883333D01*
X47383333Y-22850000D01*
X47416666Y-22816666D01*
X47450000Y-22750000D01*
X47450000Y-22683333D01*
X47416666Y-22583333D01*
X47016666Y-22183333D01*
X47450000Y-22183333D01*
X42341666Y-35041666D02*
X42341666Y-34341666D01*
X42075000Y-34341666D01*
X42008333Y-34375000D01*
X41975000Y-34408333D01*
X41941666Y-34475000D01*
X41941666Y-34575000D01*
X41975000Y-34641666D01*
X42008333Y-34675000D01*
X42075000Y-34708333D01*
X42341666Y-34708333D01*
X41408333Y-34675000D02*
X41308333Y-34708333D01*
X41275000Y-34741666D01*
X41241666Y-34808333D01*
X41241666Y-34908333D01*
X41275000Y-34975000D01*
X41308333Y-35008333D01*
X41375000Y-35041666D01*
X41641666Y-35041666D01*
X41641666Y-34341666D01*
X41408333Y-34341666D01*
X41341666Y-34375000D01*
X41308333Y-34408333D01*
X41275000Y-34475000D01*
X41275000Y-34541666D01*
X41308333Y-34608333D01*
X41341666Y-34641666D01*
X41408333Y-34675000D01*
X41641666Y-34675000D01*
X41008333Y-34341666D02*
X40541666Y-34341666D01*
X40841666Y-35041666D01*
X57258333Y-34375000D02*
X57325000Y-34341666D01*
X57425000Y-34341666D01*
X57525000Y-34375000D01*
X57591666Y-34441666D01*
X57625000Y-34508333D01*
X57658333Y-34641666D01*
X57658333Y-34741666D01*
X57625000Y-34875000D01*
X57591666Y-34941666D01*
X57525000Y-35008333D01*
X57425000Y-35041666D01*
X57358333Y-35041666D01*
X57258333Y-35008333D01*
X57225000Y-34975000D01*
X57225000Y-34741666D01*
X57358333Y-34741666D01*
X56925000Y-35041666D02*
X56925000Y-34341666D01*
X56525000Y-35041666D01*
X56525000Y-34341666D01*
X56191666Y-35041666D02*
X56191666Y-34341666D01*
X56025000Y-34341666D01*
X55925000Y-34375000D01*
X55858333Y-34441666D01*
X55825000Y-34508333D01*
X55791666Y-34641666D01*
X55791666Y-34741666D01*
X55825000Y-34875000D01*
X55858333Y-34941666D01*
X55925000Y-35008333D01*
X56025000Y-35041666D01*
X56191666Y-35041666D01*
X32141666Y-35041666D02*
X32141666Y-34341666D01*
X31875000Y-34341666D01*
X31808333Y-34375000D01*
X31775000Y-34408333D01*
X31741666Y-34475000D01*
X31741666Y-34575000D01*
X31775000Y-34641666D01*
X31808333Y-34675000D01*
X31875000Y-34708333D01*
X32141666Y-34708333D01*
X31208333Y-34675000D02*
X31108333Y-34708333D01*
X31075000Y-34741666D01*
X31041666Y-34808333D01*
X31041666Y-34908333D01*
X31075000Y-34975000D01*
X31108333Y-35008333D01*
X31175000Y-35041666D01*
X31441666Y-35041666D01*
X31441666Y-34341666D01*
X31208333Y-34341666D01*
X31141666Y-34375000D01*
X31108333Y-34408333D01*
X31075000Y-34475000D01*
X31075000Y-34541666D01*
X31108333Y-34608333D01*
X31141666Y-34641666D01*
X31208333Y-34675000D01*
X31441666Y-34675000D01*
X30375000Y-35041666D02*
X30775000Y-35041666D01*
X30575000Y-35041666D02*
X30575000Y-34341666D01*
X30641666Y-34441666D01*
X30708333Y-34508333D01*
X30775000Y-34541666D01*
X29591666Y-35041666D02*
X29591666Y-34341666D01*
X29325000Y-34341666D01*
X29258333Y-34375000D01*
X29225000Y-34408333D01*
X29191666Y-34475000D01*
X29191666Y-34575000D01*
X29225000Y-34641666D01*
X29258333Y-34675000D01*
X29325000Y-34708333D01*
X29591666Y-34708333D01*
X28925000Y-34841666D02*
X28591666Y-34841666D01*
X28991666Y-35041666D02*
X28758333Y-34341666D01*
X28525000Y-35041666D01*
X28191666Y-34641666D02*
X28258333Y-34608333D01*
X28291666Y-34575000D01*
X28325000Y-34508333D01*
X28325000Y-34475000D01*
X28291666Y-34408333D01*
X28258333Y-34375000D01*
X28191666Y-34341666D01*
X28058333Y-34341666D01*
X27991666Y-34375000D01*
X27958333Y-34408333D01*
X27925000Y-34475000D01*
X27925000Y-34508333D01*
X27958333Y-34575000D01*
X27991666Y-34608333D01*
X28058333Y-34641666D01*
X28191666Y-34641666D01*
X28258333Y-34675000D01*
X28291666Y-34708333D01*
X28325000Y-34775000D01*
X28325000Y-34908333D01*
X28291666Y-34975000D01*
X28258333Y-35008333D01*
X28191666Y-35041666D01*
X28058333Y-35041666D01*
X27991666Y-35008333D01*
X27958333Y-34975000D01*
X27925000Y-34908333D01*
X27925000Y-34775000D01*
X27958333Y-34708333D01*
X27991666Y-34675000D01*
X28058333Y-34641666D01*
X47391666Y-35041666D02*
X47391666Y-34341666D01*
X47125000Y-34341666D01*
X47058333Y-34375000D01*
X47025000Y-34408333D01*
X46991666Y-34475000D01*
X46991666Y-34575000D01*
X47025000Y-34641666D01*
X47058333Y-34675000D01*
X47125000Y-34708333D01*
X47391666Y-34708333D01*
X46458333Y-34675000D02*
X46358333Y-34708333D01*
X46325000Y-34741666D01*
X46291666Y-34808333D01*
X46291666Y-34908333D01*
X46325000Y-34975000D01*
X46358333Y-35008333D01*
X46425000Y-35041666D01*
X46691666Y-35041666D01*
X46691666Y-34341666D01*
X46458333Y-34341666D01*
X46391666Y-34375000D01*
X46358333Y-34408333D01*
X46325000Y-34475000D01*
X46325000Y-34541666D01*
X46358333Y-34608333D01*
X46391666Y-34641666D01*
X46458333Y-34675000D01*
X46691666Y-34675000D01*
X46058333Y-34341666D02*
X45625000Y-34341666D01*
X45858333Y-34608333D01*
X45758333Y-34608333D01*
X45691666Y-34641666D01*
X45658333Y-34675000D01*
X45625000Y-34741666D01*
X45625000Y-34908333D01*
X45658333Y-34975000D01*
X45691666Y-35008333D01*
X45758333Y-35041666D01*
X45958333Y-35041666D01*
X46025000Y-35008333D01*
X46058333Y-34975000D01*
X52491666Y-34341666D02*
X52058333Y-34341666D01*
X52291666Y-34608333D01*
X52191666Y-34608333D01*
X52125000Y-34641666D01*
X52091666Y-34675000D01*
X52058333Y-34741666D01*
X52058333Y-34908333D01*
X52091666Y-34975000D01*
X52125000Y-35008333D01*
X52191666Y-35041666D01*
X52391666Y-35041666D01*
X52458333Y-35008333D01*
X52491666Y-34975000D01*
X51858333Y-34341666D02*
X51625000Y-35041666D01*
X51391666Y-34341666D01*
X51225000Y-34341666D02*
X50791666Y-34341666D01*
X51025000Y-34608333D01*
X50925000Y-34608333D01*
X50858333Y-34641666D01*
X50825000Y-34675000D01*
X50791666Y-34741666D01*
X50791666Y-34908333D01*
X50825000Y-34975000D01*
X50858333Y-35008333D01*
X50925000Y-35041666D01*
X51125000Y-35041666D01*
X51191666Y-35008333D01*
X51225000Y-34975000D01*
X55041666Y-35041666D02*
X55041666Y-34341666D01*
X54775000Y-34341666D01*
X54708333Y-34375000D01*
X54675000Y-34408333D01*
X54641666Y-34475000D01*
X54641666Y-34575000D01*
X54675000Y-34641666D01*
X54708333Y-34675000D01*
X54775000Y-34708333D01*
X55041666Y-34708333D01*
X54108333Y-34675000D02*
X54008333Y-34708333D01*
X53975000Y-34741666D01*
X53941666Y-34808333D01*
X53941666Y-34908333D01*
X53975000Y-34975000D01*
X54008333Y-35008333D01*
X54075000Y-35041666D01*
X54341666Y-35041666D01*
X54341666Y-34341666D01*
X54108333Y-34341666D01*
X54041666Y-34375000D01*
X54008333Y-34408333D01*
X53975000Y-34475000D01*
X53975000Y-34541666D01*
X54008333Y-34608333D01*
X54041666Y-34641666D01*
X54108333Y-34675000D01*
X54341666Y-34675000D01*
X53308333Y-34341666D02*
X53641666Y-34341666D01*
X53675000Y-34675000D01*
X53641666Y-34641666D01*
X53575000Y-34608333D01*
X53408333Y-34608333D01*
X53341666Y-34641666D01*
X53308333Y-34675000D01*
X53275000Y-34741666D01*
X53275000Y-34908333D01*
X53308333Y-34975000D01*
X53341666Y-35008333D01*
X53408333Y-35041666D01*
X53575000Y-35041666D01*
X53641666Y-35008333D01*
X53675000Y-34975000D01*
X49941666Y-35041666D02*
X49941666Y-34341666D01*
X49675000Y-34341666D01*
X49608333Y-34375000D01*
X49575000Y-34408333D01*
X49541666Y-34475000D01*
X49541666Y-34575000D01*
X49575000Y-34641666D01*
X49608333Y-34675000D01*
X49675000Y-34708333D01*
X49941666Y-34708333D01*
X49008333Y-34675000D02*
X48908333Y-34708333D01*
X48875000Y-34741666D01*
X48841666Y-34808333D01*
X48841666Y-34908333D01*
X48875000Y-34975000D01*
X48908333Y-35008333D01*
X48975000Y-35041666D01*
X49241666Y-35041666D01*
X49241666Y-34341666D01*
X49008333Y-34341666D01*
X48941666Y-34375000D01*
X48908333Y-34408333D01*
X48875000Y-34475000D01*
X48875000Y-34541666D01*
X48908333Y-34608333D01*
X48941666Y-34641666D01*
X49008333Y-34675000D01*
X49241666Y-34675000D01*
X48241666Y-34575000D02*
X48241666Y-35041666D01*
X48408333Y-34308333D02*
X48575000Y-34808333D01*
X48141666Y-34808333D01*
X37575000Y-35041666D02*
X37575000Y-34341666D01*
X37308333Y-34341666D01*
X37241666Y-34375000D01*
X37208333Y-34408333D01*
X37175000Y-34475000D01*
X37175000Y-34575000D01*
X37208333Y-34641666D01*
X37241666Y-34675000D01*
X37308333Y-34708333D01*
X37575000Y-34708333D01*
X36908333Y-34841666D02*
X36575000Y-34841666D01*
X36975000Y-35041666D02*
X36741666Y-34341666D01*
X36508333Y-35041666D01*
X35908333Y-35041666D02*
X36308333Y-35041666D01*
X36108333Y-35041666D02*
X36108333Y-34341666D01*
X36175000Y-34441666D01*
X36241666Y-34508333D01*
X36308333Y-34541666D01*
X35275000Y-34341666D02*
X35608333Y-34341666D01*
X35641666Y-34675000D01*
X35608333Y-34641666D01*
X35541666Y-34608333D01*
X35375000Y-34608333D01*
X35308333Y-34641666D01*
X35275000Y-34675000D01*
X35241666Y-34741666D01*
X35241666Y-34908333D01*
X35275000Y-34975000D01*
X35308333Y-35008333D01*
X35375000Y-35041666D01*
X35541666Y-35041666D01*
X35608333Y-35008333D01*
X35641666Y-34975000D01*
X39791666Y-35041666D02*
X39791666Y-34341666D01*
X39525000Y-34341666D01*
X39458333Y-34375000D01*
X39425000Y-34408333D01*
X39391666Y-34475000D01*
X39391666Y-34575000D01*
X39425000Y-34641666D01*
X39458333Y-34675000D01*
X39525000Y-34708333D01*
X39791666Y-34708333D01*
X38858333Y-34675000D02*
X38758333Y-34708333D01*
X38725000Y-34741666D01*
X38691666Y-34808333D01*
X38691666Y-34908333D01*
X38725000Y-34975000D01*
X38758333Y-35008333D01*
X38825000Y-35041666D01*
X39091666Y-35041666D01*
X39091666Y-34341666D01*
X38858333Y-34341666D01*
X38791666Y-34375000D01*
X38758333Y-34408333D01*
X38725000Y-34475000D01*
X38725000Y-34541666D01*
X38758333Y-34608333D01*
X38791666Y-34641666D01*
X38858333Y-34675000D01*
X39091666Y-34675000D01*
X38425000Y-34408333D02*
X38391666Y-34375000D01*
X38325000Y-34341666D01*
X38158333Y-34341666D01*
X38091666Y-34375000D01*
X38058333Y-34408333D01*
X38025000Y-34475000D01*
X38025000Y-34541666D01*
X38058333Y-34641666D01*
X38458333Y-35041666D01*
X38025000Y-35041666D01*
X60041666Y-34341666D02*
X59808333Y-35041666D01*
X59575000Y-34341666D01*
X59341666Y-35041666D02*
X59341666Y-34341666D01*
X59008333Y-35041666D02*
X59008333Y-34341666D01*
X58608333Y-35041666D01*
X58608333Y-34341666D01*
X34691666Y-35041666D02*
X34691666Y-34341666D01*
X34425000Y-34341666D01*
X34358333Y-34375000D01*
X34325000Y-34408333D01*
X34291666Y-34475000D01*
X34291666Y-34575000D01*
X34325000Y-34641666D01*
X34358333Y-34675000D01*
X34425000Y-34708333D01*
X34691666Y-34708333D01*
X33758333Y-34675000D02*
X33658333Y-34708333D01*
X33625000Y-34741666D01*
X33591666Y-34808333D01*
X33591666Y-34908333D01*
X33625000Y-34975000D01*
X33658333Y-35008333D01*
X33725000Y-35041666D01*
X33991666Y-35041666D01*
X33991666Y-34341666D01*
X33758333Y-34341666D01*
X33691666Y-34375000D01*
X33658333Y-34408333D01*
X33625000Y-34475000D01*
X33625000Y-34541666D01*
X33658333Y-34608333D01*
X33691666Y-34641666D01*
X33758333Y-34675000D01*
X33991666Y-34675000D01*
X33191666Y-34641666D02*
X33258333Y-34608333D01*
X33291666Y-34575000D01*
X33325000Y-34508333D01*
X33325000Y-34475000D01*
X33291666Y-34408333D01*
X33258333Y-34375000D01*
X33191666Y-34341666D01*
X33058333Y-34341666D01*
X32991666Y-34375000D01*
X32958333Y-34408333D01*
X32925000Y-34475000D01*
X32925000Y-34508333D01*
X32958333Y-34575000D01*
X32991666Y-34608333D01*
X33058333Y-34641666D01*
X33191666Y-34641666D01*
X33258333Y-34675000D01*
X33291666Y-34708333D01*
X33325000Y-34775000D01*
X33325000Y-34908333D01*
X33291666Y-34975000D01*
X33258333Y-35008333D01*
X33191666Y-35041666D01*
X33058333Y-35041666D01*
X32991666Y-35008333D01*
X32958333Y-34975000D01*
X32925000Y-34908333D01*
X32925000Y-34775000D01*
X32958333Y-34708333D01*
X32991666Y-34675000D01*
X33058333Y-34641666D01*
X44891666Y-35041666D02*
X44891666Y-34341666D01*
X44625000Y-34341666D01*
X44558333Y-34375000D01*
X44525000Y-34408333D01*
X44491666Y-34475000D01*
X44491666Y-34575000D01*
X44525000Y-34641666D01*
X44558333Y-34675000D01*
X44625000Y-34708333D01*
X44891666Y-34708333D01*
X43958333Y-34675000D02*
X43858333Y-34708333D01*
X43825000Y-34741666D01*
X43791666Y-34808333D01*
X43791666Y-34908333D01*
X43825000Y-34975000D01*
X43858333Y-35008333D01*
X43925000Y-35041666D01*
X44191666Y-35041666D01*
X44191666Y-34341666D01*
X43958333Y-34341666D01*
X43891666Y-34375000D01*
X43858333Y-34408333D01*
X43825000Y-34475000D01*
X43825000Y-34541666D01*
X43858333Y-34608333D01*
X43891666Y-34641666D01*
X43958333Y-34675000D01*
X44191666Y-34675000D01*
X43191666Y-34341666D02*
X43325000Y-34341666D01*
X43391666Y-34375000D01*
X43425000Y-34408333D01*
X43491666Y-34508333D01*
X43525000Y-34641666D01*
X43525000Y-34908333D01*
X43491666Y-34975000D01*
X43458333Y-35008333D01*
X43391666Y-35041666D01*
X43258333Y-35041666D01*
X43191666Y-35008333D01*
X43158333Y-34975000D01*
X43125000Y-34908333D01*
X43125000Y-34741666D01*
X43158333Y-34675000D01*
X43191666Y-34641666D01*
X43258333Y-34608333D01*
X43391666Y-34608333D01*
X43458333Y-34641666D01*
X43491666Y-34675000D01*
X43525000Y-34741666D01*
X24875000Y-35041666D02*
X24875000Y-34341666D01*
X24608333Y-34341666D01*
X24541666Y-34375000D01*
X24508333Y-34408333D01*
X24475000Y-34475000D01*
X24475000Y-34575000D01*
X24508333Y-34641666D01*
X24541666Y-34675000D01*
X24608333Y-34708333D01*
X24875000Y-34708333D01*
X23941666Y-34675000D02*
X23841666Y-34708333D01*
X23808333Y-34741666D01*
X23775000Y-34808333D01*
X23775000Y-34908333D01*
X23808333Y-34975000D01*
X23841666Y-35008333D01*
X23908333Y-35041666D01*
X24175000Y-35041666D01*
X24175000Y-34341666D01*
X23941666Y-34341666D01*
X23875000Y-34375000D01*
X23841666Y-34408333D01*
X23808333Y-34475000D01*
X23808333Y-34541666D01*
X23841666Y-34608333D01*
X23875000Y-34641666D01*
X23941666Y-34675000D01*
X24175000Y-34675000D01*
X23108333Y-35041666D02*
X23508333Y-35041666D01*
X23308333Y-35041666D02*
X23308333Y-34341666D01*
X23375000Y-34441666D01*
X23441666Y-34508333D01*
X23508333Y-34541666D01*
X22875000Y-34341666D02*
X22441666Y-34341666D01*
X22675000Y-34608333D01*
X22575000Y-34608333D01*
X22508333Y-34641666D01*
X22475000Y-34675000D01*
X22441666Y-34741666D01*
X22441666Y-34908333D01*
X22475000Y-34975000D01*
X22508333Y-35008333D01*
X22575000Y-35041666D01*
X22775000Y-35041666D01*
X22841666Y-35008333D01*
X22875000Y-34975000D01*
X27091666Y-34341666D02*
X26658333Y-34341666D01*
X26891666Y-34608333D01*
X26791666Y-34608333D01*
X26725000Y-34641666D01*
X26691666Y-34675000D01*
X26658333Y-34741666D01*
X26658333Y-34908333D01*
X26691666Y-34975000D01*
X26725000Y-35008333D01*
X26791666Y-35041666D01*
X26991666Y-35041666D01*
X27058333Y-35008333D01*
X27091666Y-34975000D01*
X26458333Y-34341666D02*
X26225000Y-35041666D01*
X25991666Y-34341666D01*
X25825000Y-34341666D02*
X25391666Y-34341666D01*
X25625000Y-34608333D01*
X25525000Y-34608333D01*
X25458333Y-34641666D01*
X25425000Y-34675000D01*
X25391666Y-34741666D01*
X25391666Y-34908333D01*
X25425000Y-34975000D01*
X25458333Y-35008333D01*
X25525000Y-35041666D01*
X25725000Y-35041666D01*
X25791666Y-35008333D01*
X25825000Y-34975000D01*
D12*
X63200000Y-37100000D02*
G75*
G02X62900000Y-37400000I-300000J0D01*
G01*
X62900000Y-19800000D02*
G75*
G02X63200000Y-20100000I0J-300000D01*
G01*
X20000000Y-20100000D02*
G75*
G02X20300000Y-19800000I300000J0D01*
G01*
X20300000Y-37400000D02*
G75*
G02X20000000Y-37100000I0J300000D01*
G01*
X20000000Y-37100000D02*
X20000000Y-20100000D01*
X62900000Y-37400000D02*
X20300000Y-37400000D01*
X63200000Y-20100000D02*
X63200000Y-37100000D01*
X20300000Y-19800000D02*
X62900000Y-19800000D01*
D13*
X53200000Y-34000000D02*
X54600000Y-34000000D01*
X54600000Y-34000000D02*
X54600000Y-32600000D01*
X54600000Y-32600000D02*
X53200000Y-32600000D01*
X53200000Y-32600000D02*
X53200000Y-34000000D01*
D14*
G36*
X26513979Y-30050858D02*
G01*
X26617797Y-29998308D01*
X26648494Y-29917835D01*
X26601696Y-29815256D01*
X26564333Y-29773334D01*
X26468388Y-29720589D01*
X26330789Y-29691475D01*
X26185313Y-29688104D01*
X26065739Y-29712588D01*
X26022466Y-29739467D01*
X25976030Y-29834777D01*
X25980027Y-29879167D01*
X26295024Y-29879167D01*
X26302162Y-29826904D01*
X26370910Y-29817912D01*
X26454794Y-29841270D01*
X26500401Y-29881080D01*
X26498091Y-29904770D01*
X26434897Y-29940578D01*
X26351697Y-29930348D01*
X26295345Y-29879987D01*
X26295024Y-29879167D01*
X25980027Y-29879167D01*
X25985713Y-29942290D01*
X26047191Y-30022192D01*
X26053550Y-30025844D01*
X26144139Y-30052135D01*
X26278112Y-30067775D01*
X26341416Y-30069667D01*
X26513979Y-30050858D01*
G37*
X26513979Y-30050858D02*
X26617797Y-29998308D01*
X26648494Y-29917835D01*
X26601696Y-29815256D01*
X26564333Y-29773334D01*
X26468388Y-29720589D01*
X26330789Y-29691475D01*
X26185313Y-29688104D01*
X26065739Y-29712588D01*
X26022466Y-29739467D01*
X25976030Y-29834777D01*
X25980027Y-29879167D01*
X26295024Y-29879167D01*
X26302162Y-29826904D01*
X26370910Y-29817912D01*
X26454794Y-29841270D01*
X26500401Y-29881080D01*
X26498091Y-29904770D01*
X26434897Y-29940578D01*
X26351697Y-29930348D01*
X26295345Y-29879987D01*
X26295024Y-29879167D01*
X25980027Y-29879167D01*
X25985713Y-29942290D01*
X26047191Y-30022192D01*
X26053550Y-30025844D01*
X26144139Y-30052135D01*
X26278112Y-30067775D01*
X26341416Y-30069667D01*
X26513979Y-30050858D01*
G36*
X27205688Y-30449892D02*
G01*
X27917537Y-30422771D01*
X28572250Y-30342456D01*
X29067705Y-30237544D01*
X29318704Y-30166716D01*
X29514025Y-30091079D01*
X29681975Y-29995099D01*
X29850860Y-29863240D01*
X30002480Y-29724508D01*
X30172340Y-29570412D01*
X30362792Y-29408923D01*
X30536853Y-29271241D01*
X30561648Y-29252817D01*
X30686209Y-29149998D01*
X30848871Y-28999161D01*
X31032839Y-28816748D01*
X31221319Y-28619201D01*
X31324001Y-28506501D01*
X31502853Y-28307761D01*
X31637116Y-28163481D01*
X31737825Y-28064292D01*
X31816012Y-28000821D01*
X31882714Y-27963698D01*
X31948963Y-27943551D01*
X31996732Y-27935161D01*
X32154516Y-27898512D01*
X32306595Y-27843619D01*
X32332668Y-27831183D01*
X32392907Y-27802386D01*
X32449397Y-27785488D01*
X32517632Y-27781825D01*
X32613105Y-27792732D01*
X32751310Y-27819545D01*
X32947741Y-27863601D01*
X33089558Y-27896443D01*
X33487415Y-27991719D01*
X33879795Y-28092014D01*
X34283394Y-28202028D01*
X34714909Y-28326461D01*
X35191035Y-28470010D01*
X35728468Y-28637377D01*
X35782360Y-28654384D01*
X36492216Y-28870939D01*
X37157371Y-29058362D01*
X37772681Y-29215514D01*
X38333002Y-29341259D01*
X38833190Y-29434458D01*
X39268102Y-29493975D01*
X39632593Y-29518672D01*
X39693938Y-29519334D01*
X39870566Y-29514161D01*
X40111711Y-29499868D01*
X40397936Y-29478295D01*
X40709806Y-29451281D01*
X41027881Y-29420663D01*
X41332726Y-29388282D01*
X41604903Y-29355977D01*
X41824976Y-29325586D01*
X41931333Y-29307643D01*
X42082767Y-29286758D01*
X42216570Y-29281549D01*
X42272780Y-29287175D01*
X42376226Y-29282112D01*
X42537220Y-29232057D01*
X42738447Y-29146059D01*
X42913221Y-29059307D01*
X43061538Y-28968520D01*
X43206510Y-28856740D01*
X43371249Y-28707005D01*
X43476500Y-28604458D01*
X43664011Y-28424667D01*
X43871646Y-28234515D01*
X44070635Y-28059947D01*
X44196166Y-27955442D01*
X44391290Y-27797761D01*
X44612127Y-27618110D01*
X44819242Y-27448595D01*
X44873500Y-27403945D01*
X45029748Y-27278931D01*
X45175330Y-27169110D01*
X45289661Y-27089696D01*
X45335358Y-27062636D01*
X45416661Y-27009703D01*
X45542129Y-26914110D01*
X45693419Y-26790306D01*
X45825054Y-26676837D01*
X46040427Y-26500222D01*
X46265154Y-26338980D01*
X46469105Y-26214423D01*
X46506196Y-26195061D01*
X46703891Y-26092995D01*
X46928425Y-25973004D01*
X47133518Y-25859848D01*
X47146767Y-25852361D01*
X47825093Y-25492215D01*
X48584095Y-25134542D01*
X49185698Y-24876327D01*
X49950751Y-24559846D01*
X51793625Y-24609735D01*
X52241004Y-24620559D01*
X52713229Y-24629675D01*
X53192321Y-24636891D01*
X53660302Y-24642014D01*
X54099193Y-24644849D01*
X54491016Y-24645203D01*
X54817792Y-24642884D01*
X54843000Y-24642543D01*
X55195204Y-24637346D01*
X55475791Y-24632099D01*
X55697804Y-24625654D01*
X55874283Y-24616861D01*
X56018272Y-24604571D01*
X56142812Y-24587637D01*
X56260946Y-24564908D01*
X56385716Y-24535237D01*
X56530164Y-24497474D01*
X56550066Y-24492177D01*
X56783037Y-24423927D01*
X57021519Y-24343616D01*
X57233637Y-24262492D01*
X57357774Y-24207131D01*
X57542338Y-24108300D01*
X57704712Y-24007326D01*
X57831954Y-23913849D01*
X57911122Y-23837511D01*
X57929273Y-23787953D01*
X57926201Y-23783692D01*
X57875438Y-23781117D01*
X57763116Y-23798403D01*
X57609071Y-23832100D01*
X57524034Y-23853646D01*
X57211620Y-23913156D01*
X56832867Y-23947147D01*
X56401849Y-23956590D01*
X55932641Y-23942460D01*
X55439319Y-23905729D01*
X54935959Y-23847371D01*
X54436635Y-23768358D01*
X53955422Y-23669663D01*
X53615333Y-23583441D01*
X53378221Y-23519607D01*
X53170912Y-23469690D01*
X52975821Y-23431363D01*
X52775367Y-23402301D01*
X52551966Y-23380176D01*
X52288035Y-23362663D01*
X51965990Y-23347436D01*
X51773833Y-23339805D01*
X51480173Y-23326995D01*
X51207133Y-23312078D01*
X50968625Y-23296052D01*
X50778565Y-23279915D01*
X50650865Y-23264664D01*
X50609946Y-23256348D01*
X50472984Y-23231929D01*
X50277928Y-23218387D01*
X50050589Y-23215280D01*
X49816780Y-23222167D01*
X49602311Y-23238606D01*
X49432996Y-23264155D01*
X49382000Y-23277356D01*
X49224526Y-23308888D01*
X48991917Y-23329302D01*
X48693063Y-23337869D01*
X48641166Y-23338090D01*
X48440224Y-23344093D01*
X48173489Y-23360755D01*
X47852525Y-23386693D01*
X47488897Y-23420520D01*
X47094169Y-23460854D01*
X46679905Y-23506308D01*
X46257671Y-23555498D01*
X45839030Y-23607040D01*
X45435547Y-23659548D01*
X45058786Y-23711639D01*
X44720312Y-23761926D01*
X44431689Y-23809027D01*
X44204482Y-23851555D01*
X44052184Y-23887568D01*
X43973646Y-23903550D01*
X43894947Y-23898382D01*
X43794637Y-23866460D01*
X43651265Y-23802181D01*
X43565351Y-23760404D01*
X43373389Y-23675124D01*
X43172606Y-23600644D01*
X43000202Y-23550463D01*
X42968500Y-23543783D01*
X42852119Y-23530513D01*
X42655206Y-23518978D01*
X42381879Y-23509282D01*
X42036257Y-23501529D01*
X41622458Y-23495824D01*
X41144601Y-23492269D01*
X40888197Y-23491343D01*
X40443351Y-23490497D01*
X40075512Y-23490532D01*
X39777026Y-23491712D01*
X39540237Y-23494302D01*
X39357488Y-23498564D01*
X39221123Y-23504762D01*
X39123487Y-23513159D01*
X39056924Y-23524020D01*
X39013777Y-23537607D01*
X38986390Y-23554184D01*
X38983197Y-23556920D01*
X38971472Y-23569086D01*
X38961815Y-23579794D01*
X38949039Y-23589066D01*
X38927961Y-23596921D01*
X38893395Y-23603378D01*
X38840157Y-23608459D01*
X38763061Y-23612184D01*
X38656924Y-23614571D01*
X38516559Y-23615643D01*
X38336782Y-23615418D01*
X38112408Y-23613916D01*
X37838252Y-23611159D01*
X37509129Y-23607166D01*
X37119855Y-23601957D01*
X36665244Y-23595553D01*
X36140112Y-23587972D01*
X35539274Y-23579237D01*
X35052166Y-23572175D01*
X34669421Y-23567825D01*
X34301852Y-23565884D01*
X33961167Y-23566255D01*
X33659073Y-23568839D01*
X33407277Y-23573542D01*
X33217487Y-23580264D01*
X33106571Y-23588282D01*
X32936320Y-23606397D01*
X32826385Y-23610053D01*
X32753186Y-23596202D01*
X32693145Y-23561797D01*
X32653249Y-23529702D01*
X32523034Y-23455885D01*
X32356223Y-23408424D01*
X32334010Y-23405117D01*
X32247254Y-23399179D01*
X32086281Y-23393596D01*
X31861539Y-23388528D01*
X31583479Y-23384132D01*
X31262549Y-23380567D01*
X30909198Y-23377991D01*
X30533876Y-23376563D01*
X30437833Y-23376404D01*
X30045152Y-23375839D01*
X29660272Y-23375126D01*
X29295750Y-23374300D01*
X28964146Y-23373395D01*
X28678019Y-23372447D01*
X28449929Y-23371489D01*
X28292434Y-23370557D01*
X28278833Y-23370448D01*
X28029149Y-23372091D01*
X27754528Y-23379771D01*
X27499587Y-23392048D01*
X27402054Y-23398775D01*
X27206084Y-23416639D01*
X27079385Y-23435810D01*
X27006598Y-23460070D01*
X26972363Y-23493201D01*
X26967177Y-23505865D01*
X26957984Y-23600432D01*
X26998414Y-23686050D01*
X27094975Y-23766514D01*
X27254175Y-23845620D01*
X27482519Y-23927164D01*
X27786516Y-24014943D01*
X27883744Y-24040551D01*
X28129177Y-24109348D01*
X28385611Y-24189874D01*
X28620380Y-24271425D01*
X28780516Y-24334418D01*
X29141043Y-24489299D01*
X28999736Y-24686566D01*
X28923264Y-24807913D01*
X28815800Y-25000456D01*
X28680495Y-25257913D01*
X28520501Y-25574004D01*
X28338972Y-25942449D01*
X28139058Y-26356966D01*
X27923913Y-26811275D01*
X27795872Y-27085202D01*
X27441297Y-27847237D01*
X27013398Y-28045316D01*
X26785855Y-28143608D01*
X26516681Y-28249245D01*
X26245837Y-28346956D01*
X26087711Y-28399021D01*
X25778941Y-28509165D01*
X25488377Y-28638370D01*
X25230157Y-28778508D01*
X25018419Y-28921450D01*
X24867304Y-29059067D01*
X24814197Y-29131176D01*
X24759113Y-29272421D01*
X24747790Y-29329574D01*
X24878576Y-29329574D01*
X24914086Y-29243022D01*
X24972883Y-29160917D01*
X25078888Y-29055010D01*
X25241035Y-28945120D01*
X25465907Y-28827831D01*
X25760085Y-28699726D01*
X26130154Y-28557388D01*
X26148951Y-28550500D01*
X26516912Y-28413195D01*
X26813268Y-28295695D01*
X27047420Y-28193181D01*
X27228769Y-28100837D01*
X27366719Y-28013846D01*
X27470671Y-27927390D01*
X27550027Y-27836651D01*
X27554771Y-27830198D01*
X27642934Y-27704457D01*
X27715885Y-27586483D01*
X27782771Y-27457541D01*
X27852740Y-27298899D01*
X27934942Y-27091822D01*
X28003161Y-26912010D01*
X28057878Y-26767650D01*
X28107358Y-26642642D01*
X28157318Y-26525938D01*
X28213479Y-26406489D01*
X28281560Y-26273244D01*
X28367280Y-26115155D01*
X28476359Y-25921172D01*
X28614516Y-25680245D01*
X28787469Y-25381325D01*
X28861702Y-25253339D01*
X29018723Y-24986491D01*
X29140833Y-24788235D01*
X29232445Y-24652183D01*
X29297975Y-24571946D01*
X29341836Y-24541137D01*
X29353864Y-24541095D01*
X29442120Y-24562547D01*
X29560269Y-24587929D01*
X29562403Y-24588360D01*
X29659280Y-24620521D01*
X29682352Y-24667218D01*
X29678639Y-24680120D01*
X29629322Y-24862458D01*
X29635766Y-25037146D01*
X29654597Y-25121566D01*
X29700581Y-25263961D01*
X29767499Y-25430687D01*
X29846405Y-25603868D01*
X29928353Y-25765628D01*
X30004395Y-25898092D01*
X30065586Y-25983384D01*
X30097089Y-26005667D01*
X30112729Y-25978118D01*
X30092602Y-25891771D01*
X30034971Y-25741073D01*
X29961748Y-25572792D01*
X29879501Y-25375810D01*
X29810856Y-25185682D01*
X29764456Y-25027851D01*
X29749662Y-24948375D01*
X29745091Y-24825788D01*
X29769883Y-24740574D01*
X29839040Y-24654992D01*
X29883793Y-24610946D01*
X29971574Y-24520322D01*
X30026425Y-24451568D01*
X30035666Y-24431029D01*
X30003653Y-24400059D01*
X29931630Y-24401889D01*
X29855626Y-24432078D01*
X29827121Y-24456740D01*
X29793648Y-24480101D01*
X29736770Y-24483864D01*
X29641363Y-24465475D01*
X29492298Y-24422378D01*
X29345687Y-24375408D01*
X29128485Y-24304695D01*
X28865407Y-24219405D01*
X28591208Y-24130789D01*
X28363500Y-24057445D01*
X28052687Y-23954395D01*
X27779338Y-23857577D01*
X27551676Y-23770356D01*
X27377922Y-23696100D01*
X27266298Y-23638173D01*
X27225028Y-23599942D01*
X27227894Y-23592535D01*
X27295052Y-23568591D01*
X27432725Y-23546861D01*
X27626776Y-23528006D01*
X27863070Y-23512685D01*
X28127468Y-23501560D01*
X28405835Y-23495289D01*
X28684032Y-23494534D01*
X28947924Y-23499955D01*
X29083166Y-23505879D01*
X29316546Y-23515052D01*
X29613934Y-23521485D01*
X29954710Y-23525035D01*
X30318254Y-23525558D01*
X30683947Y-23522912D01*
X30945833Y-23518789D01*
X31383062Y-23511143D01*
X31741845Y-23508381D01*
X32028337Y-23512136D01*
X32248696Y-23524044D01*
X32409080Y-23545737D01*
X32515645Y-23578851D01*
X32574548Y-23625019D01*
X32583763Y-23657255D01*
X39174451Y-23657255D01*
X39197248Y-23639795D01*
X39243166Y-23626963D01*
X39331691Y-23616825D01*
X39493313Y-23609713D01*
X39716524Y-23605424D01*
X39989816Y-23603753D01*
X40301681Y-23604496D01*
X40640611Y-23607450D01*
X40995098Y-23612410D01*
X41353635Y-23619174D01*
X41704713Y-23627535D01*
X42036824Y-23637292D01*
X42338461Y-23648240D01*
X42598115Y-23660174D01*
X42804278Y-23672892D01*
X42945442Y-23686189D01*
X42989739Y-23693351D01*
X43159917Y-23735526D01*
X43319619Y-23783677D01*
X43413073Y-23818630D01*
X43482099Y-23850505D01*
X43503698Y-23868328D01*
X43468285Y-23874118D01*
X43366275Y-23869893D01*
X43217722Y-23859771D01*
X43022199Y-23853705D01*
X42763239Y-23856851D01*
X42461415Y-23867896D01*
X42137299Y-23885526D01*
X41811465Y-23908430D01*
X41504486Y-23935296D01*
X41236934Y-23964810D01*
X41029383Y-23995661D01*
X41000000Y-24001251D01*
X40823823Y-24043375D01*
X40662058Y-24094039D01*
X40548565Y-24142578D01*
X40545204Y-24144501D01*
X40407909Y-24224472D01*
X40100704Y-24060433D01*
X39899782Y-23961568D01*
X39667985Y-23859880D01*
X39455398Y-23777335D01*
X39454833Y-23777136D01*
X39293758Y-23719195D01*
X39203459Y-23681478D01*
X39174451Y-23657255D01*
X32583763Y-23657255D01*
X32591946Y-23685876D01*
X32573997Y-23763056D01*
X32526858Y-23858192D01*
X32485373Y-23927392D01*
X32412783Y-24048416D01*
X32381075Y-24124235D01*
X32385331Y-24180854D01*
X32420629Y-24244275D01*
X32424349Y-24249966D01*
X32507775Y-24346506D01*
X32590309Y-24393325D01*
X32647788Y-24381323D01*
X32643148Y-24334611D01*
X32603629Y-24277510D01*
X32551878Y-24208067D01*
X32540414Y-24140622D01*
X32572274Y-24051525D01*
X32649750Y-23918326D01*
X32766166Y-23730752D01*
X33253000Y-23704040D01*
X33385768Y-23699790D01*
X33593768Y-23697108D01*
X33867580Y-23695955D01*
X34197783Y-23696289D01*
X34574960Y-23698072D01*
X34989688Y-23701263D01*
X35432549Y-23705820D01*
X35894123Y-23711705D01*
X36237500Y-23716816D01*
X36789684Y-23725928D01*
X37263827Y-23734670D01*
X37666550Y-23743291D01*
X38004477Y-23752045D01*
X38284230Y-23761180D01*
X38512431Y-23770949D01*
X38695702Y-23781603D01*
X38840668Y-23793393D01*
X38953949Y-23806569D01*
X39042169Y-23821383D01*
X39052666Y-23823553D01*
X39409280Y-23908548D01*
X39708461Y-24004307D01*
X39977437Y-24122612D01*
X40243434Y-24275247D01*
X40500757Y-24450251D01*
X40712402Y-24591607D01*
X40917953Y-24710026D01*
X41101710Y-24797876D01*
X41247974Y-24847523D01*
X41331178Y-24853970D01*
X41330942Y-24827389D01*
X41262191Y-24764600D01*
X41130582Y-24670225D01*
X41010583Y-24591961D01*
X40852637Y-24490544D01*
X40725186Y-24406301D01*
X40642776Y-24349003D01*
X40619000Y-24328859D01*
X40653026Y-24302715D01*
X40739225Y-24253434D01*
X40792268Y-24225660D01*
X40966697Y-24153727D01*
X41184421Y-24096049D01*
X41454731Y-24051229D01*
X41786921Y-24017874D01*
X42190280Y-23994589D01*
X42378668Y-23987621D01*
X42814681Y-23980828D01*
X43175527Y-23992352D01*
X43469121Y-24024202D01*
X43703375Y-24078387D01*
X43886205Y-24156915D01*
X44025525Y-24261796D01*
X44129248Y-24395039D01*
X44153190Y-24438090D01*
X44217367Y-24527487D01*
X44304285Y-24609656D01*
X44390503Y-24666595D01*
X44452582Y-24680300D01*
X44461529Y-24674916D01*
X44450072Y-24632769D01*
X44392247Y-24554763D01*
X44352023Y-24510768D01*
X44270702Y-24415986D01*
X44222771Y-24339088D01*
X44217333Y-24318515D01*
X44188264Y-24259180D01*
X44115299Y-24173761D01*
X44080898Y-24140614D01*
X44003347Y-24065893D01*
X43965403Y-24021412D01*
X43965639Y-24016000D01*
X44012923Y-24010402D01*
X44128556Y-23995010D01*
X44297056Y-23971932D01*
X44502945Y-23943274D01*
X44590913Y-23930915D01*
X45239966Y-23840929D01*
X45852188Y-23758891D01*
X46421750Y-23685480D01*
X46942821Y-23621369D01*
X47409570Y-23567236D01*
X47816165Y-23523755D01*
X48156777Y-23491603D01*
X48425574Y-23471455D01*
X48616725Y-23463988D01*
X48620000Y-23463971D01*
X48846031Y-23457897D01*
X49070156Y-23443088D01*
X49261793Y-23421991D01*
X49360833Y-23404658D01*
X49606183Y-23366460D01*
X49899342Y-23347008D01*
X50205404Y-23346979D01*
X50489462Y-23367053D01*
X50588500Y-23380765D01*
X50719826Y-23396798D01*
X50914210Y-23413532D01*
X51150075Y-23429432D01*
X51405842Y-23442960D01*
X51541000Y-23448602D01*
X51792027Y-23460561D01*
X52032006Y-23478160D01*
X52278279Y-23503535D01*
X52548187Y-23538823D01*
X52859074Y-23586159D01*
X53228283Y-23647680D01*
X53403666Y-23678045D01*
X53890084Y-23762343D01*
X54304619Y-23832415D01*
X54658617Y-23889558D01*
X54963428Y-23935066D01*
X55230400Y-23970233D01*
X55470881Y-23996356D01*
X55696219Y-24014728D01*
X55917763Y-24026644D01*
X56146860Y-24033400D01*
X56394858Y-24036290D01*
X56546879Y-24036703D01*
X56809242Y-24037436D01*
X57040351Y-24039218D01*
X57227762Y-24041860D01*
X57359033Y-24045170D01*
X57421721Y-24048959D01*
X57425296Y-24050131D01*
X57385918Y-24083654D01*
X57275375Y-24131289D01*
X57105271Y-24189319D01*
X56887211Y-24254029D01*
X56632797Y-24321701D01*
X56405678Y-24376683D01*
X55753166Y-24527866D01*
X53170833Y-24495351D01*
X52547235Y-24487482D01*
X52002547Y-24480664D01*
X51531016Y-24474963D01*
X51126890Y-24470444D01*
X50784418Y-24467173D01*
X50497848Y-24465215D01*
X50261428Y-24464635D01*
X50069406Y-24465500D01*
X49916031Y-24467873D01*
X49795550Y-24471821D01*
X49702212Y-24477409D01*
X49630264Y-24484703D01*
X49573956Y-24493768D01*
X49527536Y-24504669D01*
X49485251Y-24517471D01*
X49441349Y-24532241D01*
X49424333Y-24537955D01*
X49163897Y-24637244D01*
X48845669Y-24779878D01*
X48480982Y-24960313D01*
X48081171Y-25173005D01*
X47773333Y-25345629D01*
X47515099Y-25493177D01*
X47232199Y-25654335D01*
X46954425Y-25812159D01*
X46711570Y-25949705D01*
X46651500Y-25983623D01*
X46349913Y-26157030D01*
X46080326Y-26320413D01*
X45829082Y-26483668D01*
X45582528Y-26656695D01*
X45327009Y-26849392D01*
X45048871Y-27071657D01*
X44734458Y-27333388D01*
X44422552Y-27599381D01*
X44242985Y-27751547D01*
X44020124Y-27937171D01*
X43777074Y-28137183D01*
X43536942Y-28332513D01*
X43427719Y-28420437D01*
X43123918Y-28656736D01*
X42852107Y-28848451D01*
X42597009Y-29001143D01*
X42343341Y-29120374D01*
X42075824Y-29211708D01*
X41779177Y-29280705D01*
X41438121Y-29332929D01*
X41037376Y-29373941D01*
X40746000Y-29396625D01*
X40218244Y-29422880D01*
X39745235Y-29419144D01*
X39301559Y-29382684D01*
X38861804Y-29310771D01*
X38400558Y-29200672D01*
X38089539Y-29111093D01*
X37877515Y-29049881D01*
X37608954Y-28977057D01*
X37309959Y-28899439D01*
X37006629Y-28823846D01*
X36809000Y-28776561D01*
X36504671Y-28700828D01*
X36174599Y-28611314D01*
X35849018Y-28516687D01*
X35558161Y-28425610D01*
X35414545Y-28376859D01*
X35146556Y-28285838D01*
X34853727Y-28192496D01*
X34569360Y-28107107D01*
X34326755Y-28039943D01*
X34300867Y-28033301D01*
X34071489Y-27978361D01*
X33805537Y-27919906D01*
X33518842Y-27860878D01*
X33227232Y-27804216D01*
X32946539Y-27752860D01*
X32692592Y-27709750D01*
X32481222Y-27677825D01*
X32328257Y-27660026D01*
X32276433Y-27657325D01*
X32120483Y-27669996D01*
X31962148Y-27704662D01*
X31816819Y-27754346D01*
X31699888Y-27812073D01*
X31626746Y-27870867D01*
X31612784Y-27923752D01*
X31635762Y-27947704D01*
X31622713Y-27985037D01*
X31557446Y-28070390D01*
X31449582Y-28193950D01*
X31308741Y-28345904D01*
X31144545Y-28516442D01*
X30966614Y-28695749D01*
X30784568Y-28874015D01*
X30608027Y-29041426D01*
X30446613Y-29188171D01*
X30309946Y-29304437D01*
X30289666Y-29320623D01*
X30126820Y-29455109D01*
X29952015Y-29608666D01*
X29845166Y-29707986D01*
X29712670Y-29827414D01*
X29587753Y-29916115D01*
X29448185Y-29984810D01*
X29271734Y-30044222D01*
X29036169Y-30105071D01*
X29007831Y-30111807D01*
X28216485Y-30257639D01*
X27422027Y-30320665D01*
X27203828Y-30323667D01*
X26615098Y-30323667D01*
X25880632Y-30072472D01*
X25617511Y-29979375D01*
X25397944Y-29895466D01*
X25232202Y-29825012D01*
X25130556Y-29772280D01*
X25103833Y-29749717D01*
X25053322Y-29668251D01*
X24982206Y-29557717D01*
X24966249Y-29533366D01*
X24896165Y-29415021D01*
X24878576Y-29329574D01*
X24747790Y-29329574D01*
X24721130Y-29464124D01*
X24712022Y-29554509D01*
X24691839Y-29836834D01*
X25623857Y-30143750D01*
X26555876Y-30450667D01*
X27205688Y-30449892D01*
G37*
X27205688Y-30449892D02*
X27917537Y-30422771D01*
X28572250Y-30342456D01*
X29067705Y-30237544D01*
X29318704Y-30166716D01*
X29514025Y-30091079D01*
X29681975Y-29995099D01*
X29850860Y-29863240D01*
X30002480Y-29724508D01*
X30172340Y-29570412D01*
X30362792Y-29408923D01*
X30536853Y-29271241D01*
X30561648Y-29252817D01*
X30686209Y-29149998D01*
X30848871Y-28999161D01*
X31032839Y-28816748D01*
X31221319Y-28619201D01*
X31324001Y-28506501D01*
X31502853Y-28307761D01*
X31637116Y-28163481D01*
X31737825Y-28064292D01*
X31816012Y-28000821D01*
X31882714Y-27963698D01*
X31948963Y-27943551D01*
X31996732Y-27935161D01*
X32154516Y-27898512D01*
X32306595Y-27843619D01*
X32332668Y-27831183D01*
X32392907Y-27802386D01*
X32449397Y-27785488D01*
X32517632Y-27781825D01*
X32613105Y-27792732D01*
X32751310Y-27819545D01*
X32947741Y-27863601D01*
X33089558Y-27896443D01*
X33487415Y-27991719D01*
X33879795Y-28092014D01*
X34283394Y-28202028D01*
X34714909Y-28326461D01*
X35191035Y-28470010D01*
X35728468Y-28637377D01*
X35782360Y-28654384D01*
X36492216Y-28870939D01*
X37157371Y-29058362D01*
X37772681Y-29215514D01*
X38333002Y-29341259D01*
X38833190Y-29434458D01*
X39268102Y-29493975D01*
X39632593Y-29518672D01*
X39693938Y-29519334D01*
X39870566Y-29514161D01*
X40111711Y-29499868D01*
X40397936Y-29478295D01*
X40709806Y-29451281D01*
X41027881Y-29420663D01*
X41332726Y-29388282D01*
X41604903Y-29355977D01*
X41824976Y-29325586D01*
X41931333Y-29307643D01*
X42082767Y-29286758D01*
X42216570Y-29281549D01*
X42272780Y-29287175D01*
X42376226Y-29282112D01*
X42537220Y-29232057D01*
X42738447Y-29146059D01*
X42913221Y-29059307D01*
X43061538Y-28968520D01*
X43206510Y-28856740D01*
X43371249Y-28707005D01*
X43476500Y-28604458D01*
X43664011Y-28424667D01*
X43871646Y-28234515D01*
X44070635Y-28059947D01*
X44196166Y-27955442D01*
X44391290Y-27797761D01*
X44612127Y-27618110D01*
X44819242Y-27448595D01*
X44873500Y-27403945D01*
X45029748Y-27278931D01*
X45175330Y-27169110D01*
X45289661Y-27089696D01*
X45335358Y-27062636D01*
X45416661Y-27009703D01*
X45542129Y-26914110D01*
X45693419Y-26790306D01*
X45825054Y-26676837D01*
X46040427Y-26500222D01*
X46265154Y-26338980D01*
X46469105Y-26214423D01*
X46506196Y-26195061D01*
X46703891Y-26092995D01*
X46928425Y-25973004D01*
X47133518Y-25859848D01*
X47146767Y-25852361D01*
X47825093Y-25492215D01*
X48584095Y-25134542D01*
X49185698Y-24876327D01*
X49950751Y-24559846D01*
X51793625Y-24609735D01*
X52241004Y-24620559D01*
X52713229Y-24629675D01*
X53192321Y-24636891D01*
X53660302Y-24642014D01*
X54099193Y-24644849D01*
X54491016Y-24645203D01*
X54817792Y-24642884D01*
X54843000Y-24642543D01*
X55195204Y-24637346D01*
X55475791Y-24632099D01*
X55697804Y-24625654D01*
X55874283Y-24616861D01*
X56018272Y-24604571D01*
X56142812Y-24587637D01*
X56260946Y-24564908D01*
X56385716Y-24535237D01*
X56530164Y-24497474D01*
X56550066Y-24492177D01*
X56783037Y-24423927D01*
X57021519Y-24343616D01*
X57233637Y-24262492D01*
X57357774Y-24207131D01*
X57542338Y-24108300D01*
X57704712Y-24007326D01*
X57831954Y-23913849D01*
X57911122Y-23837511D01*
X57929273Y-23787953D01*
X57926201Y-23783692D01*
X57875438Y-23781117D01*
X57763116Y-23798403D01*
X57609071Y-23832100D01*
X57524034Y-23853646D01*
X57211620Y-23913156D01*
X56832867Y-23947147D01*
X56401849Y-23956590D01*
X55932641Y-23942460D01*
X55439319Y-23905729D01*
X54935959Y-23847371D01*
X54436635Y-23768358D01*
X53955422Y-23669663D01*
X53615333Y-23583441D01*
X53378221Y-23519607D01*
X53170912Y-23469690D01*
X52975821Y-23431363D01*
X52775367Y-23402301D01*
X52551966Y-23380176D01*
X52288035Y-23362663D01*
X51965990Y-23347436D01*
X51773833Y-23339805D01*
X51480173Y-23326995D01*
X51207133Y-23312078D01*
X50968625Y-23296052D01*
X50778565Y-23279915D01*
X50650865Y-23264664D01*
X50609946Y-23256348D01*
X50472984Y-23231929D01*
X50277928Y-23218387D01*
X50050589Y-23215280D01*
X49816780Y-23222167D01*
X49602311Y-23238606D01*
X49432996Y-23264155D01*
X49382000Y-23277356D01*
X49224526Y-23308888D01*
X48991917Y-23329302D01*
X48693063Y-23337869D01*
X48641166Y-23338090D01*
X48440224Y-23344093D01*
X48173489Y-23360755D01*
X47852525Y-23386693D01*
X47488897Y-23420520D01*
X47094169Y-23460854D01*
X46679905Y-23506308D01*
X46257671Y-23555498D01*
X45839030Y-23607040D01*
X45435547Y-23659548D01*
X45058786Y-23711639D01*
X44720312Y-23761926D01*
X44431689Y-23809027D01*
X44204482Y-23851555D01*
X44052184Y-23887568D01*
X43973646Y-23903550D01*
X43894947Y-23898382D01*
X43794637Y-23866460D01*
X43651265Y-23802181D01*
X43565351Y-23760404D01*
X43373389Y-23675124D01*
X43172606Y-23600644D01*
X43000202Y-23550463D01*
X42968500Y-23543783D01*
X42852119Y-23530513D01*
X42655206Y-23518978D01*
X42381879Y-23509282D01*
X42036257Y-23501529D01*
X41622458Y-23495824D01*
X41144601Y-23492269D01*
X40888197Y-23491343D01*
X40443351Y-23490497D01*
X40075512Y-23490532D01*
X39777026Y-23491712D01*
X39540237Y-23494302D01*
X39357488Y-23498564D01*
X39221123Y-23504762D01*
X39123487Y-23513159D01*
X39056924Y-23524020D01*
X39013777Y-23537607D01*
X38986390Y-23554184D01*
X38983197Y-23556920D01*
X38971472Y-23569086D01*
X38961815Y-23579794D01*
X38949039Y-23589066D01*
X38927961Y-23596921D01*
X38893395Y-23603378D01*
X38840157Y-23608459D01*
X38763061Y-23612184D01*
X38656924Y-23614571D01*
X38516559Y-23615643D01*
X38336782Y-23615418D01*
X38112408Y-23613916D01*
X37838252Y-23611159D01*
X37509129Y-23607166D01*
X37119855Y-23601957D01*
X36665244Y-23595553D01*
X36140112Y-23587972D01*
X35539274Y-23579237D01*
X35052166Y-23572175D01*
X34669421Y-23567825D01*
X34301852Y-23565884D01*
X33961167Y-23566255D01*
X33659073Y-23568839D01*
X33407277Y-23573542D01*
X33217487Y-23580264D01*
X33106571Y-23588282D01*
X32936320Y-23606397D01*
X32826385Y-23610053D01*
X32753186Y-23596202D01*
X32693145Y-23561797D01*
X32653249Y-23529702D01*
X32523034Y-23455885D01*
X32356223Y-23408424D01*
X32334010Y-23405117D01*
X32247254Y-23399179D01*
X32086281Y-23393596D01*
X31861539Y-23388528D01*
X31583479Y-23384132D01*
X31262549Y-23380567D01*
X30909198Y-23377991D01*
X30533876Y-23376563D01*
X30437833Y-23376404D01*
X30045152Y-23375839D01*
X29660272Y-23375126D01*
X29295750Y-23374300D01*
X28964146Y-23373395D01*
X28678019Y-23372447D01*
X28449929Y-23371489D01*
X28292434Y-23370557D01*
X28278833Y-23370448D01*
X28029149Y-23372091D01*
X27754528Y-23379771D01*
X27499587Y-23392048D01*
X27402054Y-23398775D01*
X27206084Y-23416639D01*
X27079385Y-23435810D01*
X27006598Y-23460070D01*
X26972363Y-23493201D01*
X26967177Y-23505865D01*
X26957984Y-23600432D01*
X26998414Y-23686050D01*
X27094975Y-23766514D01*
X27254175Y-23845620D01*
X27482519Y-23927164D01*
X27786516Y-24014943D01*
X27883744Y-24040551D01*
X28129177Y-24109348D01*
X28385611Y-24189874D01*
X28620380Y-24271425D01*
X28780516Y-24334418D01*
X29141043Y-24489299D01*
X28999736Y-24686566D01*
X28923264Y-24807913D01*
X28815800Y-25000456D01*
X28680495Y-25257913D01*
X28520501Y-25574004D01*
X28338972Y-25942449D01*
X28139058Y-26356966D01*
X27923913Y-26811275D01*
X27795872Y-27085202D01*
X27441297Y-27847237D01*
X27013398Y-28045316D01*
X26785855Y-28143608D01*
X26516681Y-28249245D01*
X26245837Y-28346956D01*
X26087711Y-28399021D01*
X25778941Y-28509165D01*
X25488377Y-28638370D01*
X25230157Y-28778508D01*
X25018419Y-28921450D01*
X24867304Y-29059067D01*
X24814197Y-29131176D01*
X24759113Y-29272421D01*
X24747790Y-29329574D01*
X24878576Y-29329574D01*
X24914086Y-29243022D01*
X24972883Y-29160917D01*
X25078888Y-29055010D01*
X25241035Y-28945120D01*
X25465907Y-28827831D01*
X25760085Y-28699726D01*
X26130154Y-28557388D01*
X26148951Y-28550500D01*
X26516912Y-28413195D01*
X26813268Y-28295695D01*
X27047420Y-28193181D01*
X27228769Y-28100837D01*
X27366719Y-28013846D01*
X27470671Y-27927390D01*
X27550027Y-27836651D01*
X27554771Y-27830198D01*
X27642934Y-27704457D01*
X27715885Y-27586483D01*
X27782771Y-27457541D01*
X27852740Y-27298899D01*
X27934942Y-27091822D01*
X28003161Y-26912010D01*
X28057878Y-26767650D01*
X28107358Y-26642642D01*
X28157318Y-26525938D01*
X28213479Y-26406489D01*
X28281560Y-26273244D01*
X28367280Y-26115155D01*
X28476359Y-25921172D01*
X28614516Y-25680245D01*
X28787469Y-25381325D01*
X28861702Y-25253339D01*
X29018723Y-24986491D01*
X29140833Y-24788235D01*
X29232445Y-24652183D01*
X29297975Y-24571946D01*
X29341836Y-24541137D01*
X29353864Y-24541095D01*
X29442120Y-24562547D01*
X29560269Y-24587929D01*
X29562403Y-24588360D01*
X29659280Y-24620521D01*
X29682352Y-24667218D01*
X29678639Y-24680120D01*
X29629322Y-24862458D01*
X29635766Y-25037146D01*
X29654597Y-25121566D01*
X29700581Y-25263961D01*
X29767499Y-25430687D01*
X29846405Y-25603868D01*
X29928353Y-25765628D01*
X30004395Y-25898092D01*
X30065586Y-25983384D01*
X30097089Y-26005667D01*
X30112729Y-25978118D01*
X30092602Y-25891771D01*
X30034971Y-25741073D01*
X29961748Y-25572792D01*
X29879501Y-25375810D01*
X29810856Y-25185682D01*
X29764456Y-25027851D01*
X29749662Y-24948375D01*
X29745091Y-24825788D01*
X29769883Y-24740574D01*
X29839040Y-24654992D01*
X29883793Y-24610946D01*
X29971574Y-24520322D01*
X30026425Y-24451568D01*
X30035666Y-24431029D01*
X30003653Y-24400059D01*
X29931630Y-24401889D01*
X29855626Y-24432078D01*
X29827121Y-24456740D01*
X29793648Y-24480101D01*
X29736770Y-24483864D01*
X29641363Y-24465475D01*
X29492298Y-24422378D01*
X29345687Y-24375408D01*
X29128485Y-24304695D01*
X28865407Y-24219405D01*
X28591208Y-24130789D01*
X28363500Y-24057445D01*
X28052687Y-23954395D01*
X27779338Y-23857577D01*
X27551676Y-23770356D01*
X27377922Y-23696100D01*
X27266298Y-23638173D01*
X27225028Y-23599942D01*
X27227894Y-23592535D01*
X27295052Y-23568591D01*
X27432725Y-23546861D01*
X27626776Y-23528006D01*
X27863070Y-23512685D01*
X28127468Y-23501560D01*
X28405835Y-23495289D01*
X28684032Y-23494534D01*
X28947924Y-23499955D01*
X29083166Y-23505879D01*
X29316546Y-23515052D01*
X29613934Y-23521485D01*
X29954710Y-23525035D01*
X30318254Y-23525558D01*
X30683947Y-23522912D01*
X30945833Y-23518789D01*
X31383062Y-23511143D01*
X31741845Y-23508381D01*
X32028337Y-23512136D01*
X32248696Y-23524044D01*
X32409080Y-23545737D01*
X32515645Y-23578851D01*
X32574548Y-23625019D01*
X32583763Y-23657255D01*
X39174451Y-23657255D01*
X39197248Y-23639795D01*
X39243166Y-23626963D01*
X39331691Y-23616825D01*
X39493313Y-23609713D01*
X39716524Y-23605424D01*
X39989816Y-23603753D01*
X40301681Y-23604496D01*
X40640611Y-23607450D01*
X40995098Y-23612410D01*
X41353635Y-23619174D01*
X41704713Y-23627535D01*
X42036824Y-23637292D01*
X42338461Y-23648240D01*
X42598115Y-23660174D01*
X42804278Y-23672892D01*
X42945442Y-23686189D01*
X42989739Y-23693351D01*
X43159917Y-23735526D01*
X43319619Y-23783677D01*
X43413073Y-23818630D01*
X43482099Y-23850505D01*
X43503698Y-23868328D01*
X43468285Y-23874118D01*
X43366275Y-23869893D01*
X43217722Y-23859771D01*
X43022199Y-23853705D01*
X42763239Y-23856851D01*
X42461415Y-23867896D01*
X42137299Y-23885526D01*
X41811465Y-23908430D01*
X41504486Y-23935296D01*
X41236934Y-23964810D01*
X41029383Y-23995661D01*
X41000000Y-24001251D01*
X40823823Y-24043375D01*
X40662058Y-24094039D01*
X40548565Y-24142578D01*
X40545204Y-24144501D01*
X40407909Y-24224472D01*
X40100704Y-24060433D01*
X39899782Y-23961568D01*
X39667985Y-23859880D01*
X39455398Y-23777335D01*
X39454833Y-23777136D01*
X39293758Y-23719195D01*
X39203459Y-23681478D01*
X39174451Y-23657255D01*
X32583763Y-23657255D01*
X32591946Y-23685876D01*
X32573997Y-23763056D01*
X32526858Y-23858192D01*
X32485373Y-23927392D01*
X32412783Y-24048416D01*
X32381075Y-24124235D01*
X32385331Y-24180854D01*
X32420629Y-24244275D01*
X32424349Y-24249966D01*
X32507775Y-24346506D01*
X32590309Y-24393325D01*
X32647788Y-24381323D01*
X32643148Y-24334611D01*
X32603629Y-24277510D01*
X32551878Y-24208067D01*
X32540414Y-24140622D01*
X32572274Y-24051525D01*
X32649750Y-23918326D01*
X32766166Y-23730752D01*
X33253000Y-23704040D01*
X33385768Y-23699790D01*
X33593768Y-23697108D01*
X33867580Y-23695955D01*
X34197783Y-23696289D01*
X34574960Y-23698072D01*
X34989688Y-23701263D01*
X35432549Y-23705820D01*
X35894123Y-23711705D01*
X36237500Y-23716816D01*
X36789684Y-23725928D01*
X37263827Y-23734670D01*
X37666550Y-23743291D01*
X38004477Y-23752045D01*
X38284230Y-23761180D01*
X38512431Y-23770949D01*
X38695702Y-23781603D01*
X38840668Y-23793393D01*
X38953949Y-23806569D01*
X39042169Y-23821383D01*
X39052666Y-23823553D01*
X39409280Y-23908548D01*
X39708461Y-24004307D01*
X39977437Y-24122612D01*
X40243434Y-24275247D01*
X40500757Y-24450251D01*
X40712402Y-24591607D01*
X40917953Y-24710026D01*
X41101710Y-24797876D01*
X41247974Y-24847523D01*
X41331178Y-24853970D01*
X41330942Y-24827389D01*
X41262191Y-24764600D01*
X41130582Y-24670225D01*
X41010583Y-24591961D01*
X40852637Y-24490544D01*
X40725186Y-24406301D01*
X40642776Y-24349003D01*
X40619000Y-24328859D01*
X40653026Y-24302715D01*
X40739225Y-24253434D01*
X40792268Y-24225660D01*
X40966697Y-24153727D01*
X41184421Y-24096049D01*
X41454731Y-24051229D01*
X41786921Y-24017874D01*
X42190280Y-23994589D01*
X42378668Y-23987621D01*
X42814681Y-23980828D01*
X43175527Y-23992352D01*
X43469121Y-24024202D01*
X43703375Y-24078387D01*
X43886205Y-24156915D01*
X44025525Y-24261796D01*
X44129248Y-24395039D01*
X44153190Y-24438090D01*
X44217367Y-24527487D01*
X44304285Y-24609656D01*
X44390503Y-24666595D01*
X44452582Y-24680300D01*
X44461529Y-24674916D01*
X44450072Y-24632769D01*
X44392247Y-24554763D01*
X44352023Y-24510768D01*
X44270702Y-24415986D01*
X44222771Y-24339088D01*
X44217333Y-24318515D01*
X44188264Y-24259180D01*
X44115299Y-24173761D01*
X44080898Y-24140614D01*
X44003347Y-24065893D01*
X43965403Y-24021412D01*
X43965639Y-24016000D01*
X44012923Y-24010402D01*
X44128556Y-23995010D01*
X44297056Y-23971932D01*
X44502945Y-23943274D01*
X44590913Y-23930915D01*
X45239966Y-23840929D01*
X45852188Y-23758891D01*
X46421750Y-23685480D01*
X46942821Y-23621369D01*
X47409570Y-23567236D01*
X47816165Y-23523755D01*
X48156777Y-23491603D01*
X48425574Y-23471455D01*
X48616725Y-23463988D01*
X48620000Y-23463971D01*
X48846031Y-23457897D01*
X49070156Y-23443088D01*
X49261793Y-23421991D01*
X49360833Y-23404658D01*
X49606183Y-23366460D01*
X49899342Y-23347008D01*
X50205404Y-23346979D01*
X50489462Y-23367053D01*
X50588500Y-23380765D01*
X50719826Y-23396798D01*
X50914210Y-23413532D01*
X51150075Y-23429432D01*
X51405842Y-23442960D01*
X51541000Y-23448602D01*
X51792027Y-23460561D01*
X52032006Y-23478160D01*
X52278279Y-23503535D01*
X52548187Y-23538823D01*
X52859074Y-23586159D01*
X53228283Y-23647680D01*
X53403666Y-23678045D01*
X53890084Y-23762343D01*
X54304619Y-23832415D01*
X54658617Y-23889558D01*
X54963428Y-23935066D01*
X55230400Y-23970233D01*
X55470881Y-23996356D01*
X55696219Y-24014728D01*
X55917763Y-24026644D01*
X56146860Y-24033400D01*
X56394858Y-24036290D01*
X56546879Y-24036703D01*
X56809242Y-24037436D01*
X57040351Y-24039218D01*
X57227762Y-24041860D01*
X57359033Y-24045170D01*
X57421721Y-24048959D01*
X57425296Y-24050131D01*
X57385918Y-24083654D01*
X57275375Y-24131289D01*
X57105271Y-24189319D01*
X56887211Y-24254029D01*
X56632797Y-24321701D01*
X56405678Y-24376683D01*
X55753166Y-24527866D01*
X53170833Y-24495351D01*
X52547235Y-24487482D01*
X52002547Y-24480664D01*
X51531016Y-24474963D01*
X51126890Y-24470444D01*
X50784418Y-24467173D01*
X50497848Y-24465215D01*
X50261428Y-24464635D01*
X50069406Y-24465500D01*
X49916031Y-24467873D01*
X49795550Y-24471821D01*
X49702212Y-24477409D01*
X49630264Y-24484703D01*
X49573956Y-24493768D01*
X49527536Y-24504669D01*
X49485251Y-24517471D01*
X49441349Y-24532241D01*
X49424333Y-24537955D01*
X49163897Y-24637244D01*
X48845669Y-24779878D01*
X48480982Y-24960313D01*
X48081171Y-25173005D01*
X47773333Y-25345629D01*
X47515099Y-25493177D01*
X47232199Y-25654335D01*
X46954425Y-25812159D01*
X46711570Y-25949705D01*
X46651500Y-25983623D01*
X46349913Y-26157030D01*
X46080326Y-26320413D01*
X45829082Y-26483668D01*
X45582528Y-26656695D01*
X45327009Y-26849392D01*
X45048871Y-27071657D01*
X44734458Y-27333388D01*
X44422552Y-27599381D01*
X44242985Y-27751547D01*
X44020124Y-27937171D01*
X43777074Y-28137183D01*
X43536942Y-28332513D01*
X43427719Y-28420437D01*
X43123918Y-28656736D01*
X42852107Y-28848451D01*
X42597009Y-29001143D01*
X42343341Y-29120374D01*
X42075824Y-29211708D01*
X41779177Y-29280705D01*
X41438121Y-29332929D01*
X41037376Y-29373941D01*
X40746000Y-29396625D01*
X40218244Y-29422880D01*
X39745235Y-29419144D01*
X39301559Y-29382684D01*
X38861804Y-29310771D01*
X38400558Y-29200672D01*
X38089539Y-29111093D01*
X37877515Y-29049881D01*
X37608954Y-28977057D01*
X37309959Y-28899439D01*
X37006629Y-28823846D01*
X36809000Y-28776561D01*
X36504671Y-28700828D01*
X36174599Y-28611314D01*
X35849018Y-28516687D01*
X35558161Y-28425610D01*
X35414545Y-28376859D01*
X35146556Y-28285838D01*
X34853727Y-28192496D01*
X34569360Y-28107107D01*
X34326755Y-28039943D01*
X34300867Y-28033301D01*
X34071489Y-27978361D01*
X33805537Y-27919906D01*
X33518842Y-27860878D01*
X33227232Y-27804216D01*
X32946539Y-27752860D01*
X32692592Y-27709750D01*
X32481222Y-27677825D01*
X32328257Y-27660026D01*
X32276433Y-27657325D01*
X32120483Y-27669996D01*
X31962148Y-27704662D01*
X31816819Y-27754346D01*
X31699888Y-27812073D01*
X31626746Y-27870867D01*
X31612784Y-27923752D01*
X31635762Y-27947704D01*
X31622713Y-27985037D01*
X31557446Y-28070390D01*
X31449582Y-28193950D01*
X31308741Y-28345904D01*
X31144545Y-28516442D01*
X30966614Y-28695749D01*
X30784568Y-28874015D01*
X30608027Y-29041426D01*
X30446613Y-29188171D01*
X30309946Y-29304437D01*
X30289666Y-29320623D01*
X30126820Y-29455109D01*
X29952015Y-29608666D01*
X29845166Y-29707986D01*
X29712670Y-29827414D01*
X29587753Y-29916115D01*
X29448185Y-29984810D01*
X29271734Y-30044222D01*
X29036169Y-30105071D01*
X29007831Y-30111807D01*
X28216485Y-30257639D01*
X27422027Y-30320665D01*
X27203828Y-30323667D01*
X26615098Y-30323667D01*
X25880632Y-30072472D01*
X25617511Y-29979375D01*
X25397944Y-29895466D01*
X25232202Y-29825012D01*
X25130556Y-29772280D01*
X25103833Y-29749717D01*
X25053322Y-29668251D01*
X24982206Y-29557717D01*
X24966249Y-29533366D01*
X24896165Y-29415021D01*
X24878576Y-29329574D01*
X24747790Y-29329574D01*
X24721130Y-29464124D01*
X24712022Y-29554509D01*
X24691839Y-29836834D01*
X25623857Y-30143750D01*
X26555876Y-30450667D01*
X27205688Y-30449892D01*
M02*
