G04 #@! TF.GenerationSoftware,KiCad,Pcbnew,5.1.5+dfsg1-2build2*
G04 #@! TF.CreationDate,2020-10-31T17:23:00+01:00*
G04 #@! TF.ProjectId,OtterPill,4f747465-7250-4696-9c6c-2e6b69636164,rev?*
G04 #@! TF.SameCoordinates,Original*
G04 #@! TF.FileFunction,Legend,Top*
G04 #@! TF.FilePolarity,Positive*
%FSLAX46Y46*%
G04 Gerber Fmt 4.6, Leading zero omitted, Abs format (unit mm)*
G04 Created by KiCad (PCBNEW 5.1.5+dfsg1-2build2) date 2020-10-31 17:23:00*
%MOMM*%
%LPD*%
G04 APERTURE LIST*
%ADD10C,0.120000*%
%ADD11C,0.100000*%
%ADD12C,0.150000*%
%ADD13C,0.050000*%
%ADD14C,0.112500*%
G04 APERTURE END LIST*
D10*
X35440952Y-31571904D02*
X35593333Y-31571904D01*
X35669523Y-31610000D01*
X35745714Y-31686190D01*
X35783809Y-31838571D01*
X35783809Y-32105238D01*
X35745714Y-32257619D01*
X35669523Y-32333809D01*
X35593333Y-32371904D01*
X35440952Y-32371904D01*
X35364761Y-32333809D01*
X35288571Y-32257619D01*
X35250476Y-32105238D01*
X35250476Y-31838571D01*
X35288571Y-31686190D01*
X35364761Y-31610000D01*
X35440952Y-31571904D01*
X36012380Y-31838571D02*
X36317142Y-31838571D01*
X36126666Y-31571904D02*
X36126666Y-32257619D01*
X36164761Y-32333809D01*
X36240952Y-32371904D01*
X36317142Y-32371904D01*
X36469523Y-31838571D02*
X36774285Y-31838571D01*
X36583809Y-31571904D02*
X36583809Y-32257619D01*
X36621904Y-32333809D01*
X36698095Y-32371904D01*
X36774285Y-32371904D01*
X37345714Y-32333809D02*
X37269523Y-32371904D01*
X37117142Y-32371904D01*
X37040952Y-32333809D01*
X37002857Y-32257619D01*
X37002857Y-31952857D01*
X37040952Y-31876666D01*
X37117142Y-31838571D01*
X37269523Y-31838571D01*
X37345714Y-31876666D01*
X37383809Y-31952857D01*
X37383809Y-32029047D01*
X37002857Y-32105238D01*
X37726666Y-32371904D02*
X37726666Y-31838571D01*
X37726666Y-31990952D02*
X37764761Y-31914761D01*
X37802857Y-31876666D01*
X37879047Y-31838571D01*
X37955238Y-31838571D01*
X38221904Y-32067142D02*
X38831428Y-32067142D01*
X37764761Y-33691904D02*
X37764761Y-32891904D01*
X38069523Y-32891904D01*
X38145714Y-32930000D01*
X38183809Y-32968095D01*
X38221904Y-33044285D01*
X38221904Y-33158571D01*
X38183809Y-33234761D01*
X38145714Y-33272857D01*
X38069523Y-33310952D01*
X37764761Y-33310952D01*
X38564761Y-33691904D02*
X38564761Y-33158571D01*
X38564761Y-32891904D02*
X38526666Y-32930000D01*
X38564761Y-32968095D01*
X38602857Y-32930000D01*
X38564761Y-32891904D01*
X38564761Y-32968095D01*
X39060000Y-33691904D02*
X38983809Y-33653809D01*
X38945714Y-33577619D01*
X38945714Y-32891904D01*
X39479047Y-33691904D02*
X39402857Y-33653809D01*
X39364761Y-33577619D01*
X39364761Y-32891904D01*
D11*
X57436666Y-25706666D02*
X57436666Y-25273333D01*
X57703333Y-25506666D01*
X57703333Y-25406666D01*
X57736666Y-25340000D01*
X57770000Y-25306666D01*
X57836666Y-25273333D01*
X58003333Y-25273333D01*
X58070000Y-25306666D01*
X58103333Y-25340000D01*
X58136666Y-25406666D01*
X58136666Y-25606666D01*
X58103333Y-25673333D01*
X58070000Y-25706666D01*
X57436666Y-25073333D02*
X58136666Y-24840000D01*
X57436666Y-24606666D01*
X57436666Y-24440000D02*
X57436666Y-24006666D01*
X57703333Y-24240000D01*
X57703333Y-24140000D01*
X57736666Y-24073333D01*
X57770000Y-24040000D01*
X57836666Y-24006666D01*
X58003333Y-24006666D01*
X58070000Y-24040000D01*
X58103333Y-24073333D01*
X58136666Y-24140000D01*
X58136666Y-24340000D01*
X58103333Y-24406666D01*
X58070000Y-24440000D01*
X22943333Y-22986666D02*
X23176666Y-23686666D01*
X23410000Y-22986666D01*
X23643333Y-23686666D02*
X23643333Y-22986666D01*
X23976666Y-23686666D02*
X23976666Y-22986666D01*
X24376666Y-23686666D01*
X24376666Y-22986666D01*
X23276666Y-33540000D02*
X23210000Y-33506666D01*
X23110000Y-33506666D01*
X23010000Y-33540000D01*
X22943333Y-33606666D01*
X22910000Y-33673333D01*
X22876666Y-33806666D01*
X22876666Y-33906666D01*
X22910000Y-34040000D01*
X22943333Y-34106666D01*
X23010000Y-34173333D01*
X23110000Y-34206666D01*
X23176666Y-34206666D01*
X23276666Y-34173333D01*
X23310000Y-34140000D01*
X23310000Y-33906666D01*
X23176666Y-33906666D01*
X23610000Y-34206666D02*
X23610000Y-33506666D01*
X24010000Y-34206666D01*
X24010000Y-33506666D01*
X24343333Y-34206666D02*
X24343333Y-33506666D01*
X24510000Y-33506666D01*
X24610000Y-33540000D01*
X24676666Y-33606666D01*
X24710000Y-33673333D01*
X24743333Y-33806666D01*
X24743333Y-33906666D01*
X24710000Y-34040000D01*
X24676666Y-34106666D01*
X24610000Y-34173333D01*
X24510000Y-34206666D01*
X24343333Y-34206666D01*
X29696666Y-22093333D02*
X29696666Y-22793333D01*
X29430000Y-22793333D01*
X29363333Y-22760000D01*
X29330000Y-22726666D01*
X29296666Y-22660000D01*
X29296666Y-22560000D01*
X29330000Y-22493333D01*
X29363333Y-22460000D01*
X29430000Y-22426666D01*
X29696666Y-22426666D01*
X28763333Y-22460000D02*
X28663333Y-22426666D01*
X28630000Y-22393333D01*
X28596666Y-22326666D01*
X28596666Y-22226666D01*
X28630000Y-22160000D01*
X28663333Y-22126666D01*
X28730000Y-22093333D01*
X28996666Y-22093333D01*
X28996666Y-22793333D01*
X28763333Y-22793333D01*
X28696666Y-22760000D01*
X28663333Y-22726666D01*
X28630000Y-22660000D01*
X28630000Y-22593333D01*
X28663333Y-22526666D01*
X28696666Y-22493333D01*
X28763333Y-22460000D01*
X28996666Y-22460000D01*
X28163333Y-22793333D02*
X28096666Y-22793333D01*
X28030000Y-22760000D01*
X27996666Y-22726666D01*
X27963333Y-22660000D01*
X27930000Y-22526666D01*
X27930000Y-22360000D01*
X27963333Y-22226666D01*
X27996666Y-22160000D01*
X28030000Y-22126666D01*
X28096666Y-22093333D01*
X28163333Y-22093333D01*
X28230000Y-22126666D01*
X28263333Y-22160000D01*
X28296666Y-22226666D01*
X28330000Y-22360000D01*
X28330000Y-22526666D01*
X28296666Y-22660000D01*
X28263333Y-22726666D01*
X28230000Y-22760000D01*
X28163333Y-22793333D01*
X24925000Y-22183333D02*
X24925000Y-22883333D01*
X24658333Y-22883333D01*
X24591666Y-22850000D01*
X24558333Y-22816666D01*
X24525000Y-22750000D01*
X24525000Y-22650000D01*
X24558333Y-22583333D01*
X24591666Y-22550000D01*
X24658333Y-22516666D01*
X24925000Y-22516666D01*
X23991666Y-22550000D02*
X23891666Y-22516666D01*
X23858333Y-22483333D01*
X23825000Y-22416666D01*
X23825000Y-22316666D01*
X23858333Y-22250000D01*
X23891666Y-22216666D01*
X23958333Y-22183333D01*
X24225000Y-22183333D01*
X24225000Y-22883333D01*
X23991666Y-22883333D01*
X23925000Y-22850000D01*
X23891666Y-22816666D01*
X23858333Y-22750000D01*
X23858333Y-22683333D01*
X23891666Y-22616666D01*
X23925000Y-22583333D01*
X23991666Y-22550000D01*
X24225000Y-22550000D01*
X23158333Y-22183333D02*
X23558333Y-22183333D01*
X23358333Y-22183333D02*
X23358333Y-22883333D01*
X23425000Y-22783333D01*
X23491666Y-22716666D01*
X23558333Y-22683333D01*
X22558333Y-22650000D02*
X22558333Y-22183333D01*
X22725000Y-22916666D02*
X22891666Y-22416666D01*
X22458333Y-22416666D01*
X27475000Y-22183333D02*
X27475000Y-22883333D01*
X27208333Y-22883333D01*
X27141666Y-22850000D01*
X27108333Y-22816666D01*
X27075000Y-22750000D01*
X27075000Y-22650000D01*
X27108333Y-22583333D01*
X27141666Y-22550000D01*
X27208333Y-22516666D01*
X27475000Y-22516666D01*
X26541666Y-22550000D02*
X26441666Y-22516666D01*
X26408333Y-22483333D01*
X26375000Y-22416666D01*
X26375000Y-22316666D01*
X26408333Y-22250000D01*
X26441666Y-22216666D01*
X26508333Y-22183333D01*
X26775000Y-22183333D01*
X26775000Y-22883333D01*
X26541666Y-22883333D01*
X26475000Y-22850000D01*
X26441666Y-22816666D01*
X26408333Y-22750000D01*
X26408333Y-22683333D01*
X26441666Y-22616666D01*
X26475000Y-22583333D01*
X26541666Y-22550000D01*
X26775000Y-22550000D01*
X25708333Y-22183333D02*
X26108333Y-22183333D01*
X25908333Y-22183333D02*
X25908333Y-22883333D01*
X25975000Y-22783333D01*
X26041666Y-22716666D01*
X26108333Y-22683333D01*
X25075000Y-22883333D02*
X25408333Y-22883333D01*
X25441666Y-22550000D01*
X25408333Y-22583333D01*
X25341666Y-22616666D01*
X25175000Y-22616666D01*
X25108333Y-22583333D01*
X25075000Y-22550000D01*
X25041666Y-22483333D01*
X25041666Y-22316666D01*
X25075000Y-22250000D01*
X25108333Y-22216666D01*
X25175000Y-22183333D01*
X25341666Y-22183333D01*
X25408333Y-22216666D01*
X25441666Y-22250000D01*
X32550000Y-22133333D02*
X32550000Y-22833333D01*
X32283333Y-22833333D01*
X32216666Y-22800000D01*
X32183333Y-22766666D01*
X32150000Y-22700000D01*
X32150000Y-22600000D01*
X32183333Y-22533333D01*
X32216666Y-22500000D01*
X32283333Y-22466666D01*
X32550000Y-22466666D01*
X31616666Y-22500000D02*
X31516666Y-22466666D01*
X31483333Y-22433333D01*
X31450000Y-22366666D01*
X31450000Y-22266666D01*
X31483333Y-22200000D01*
X31516666Y-22166666D01*
X31583333Y-22133333D01*
X31850000Y-22133333D01*
X31850000Y-22833333D01*
X31616666Y-22833333D01*
X31550000Y-22800000D01*
X31516666Y-22766666D01*
X31483333Y-22700000D01*
X31483333Y-22633333D01*
X31516666Y-22566666D01*
X31550000Y-22533333D01*
X31616666Y-22500000D01*
X31850000Y-22500000D01*
X30783333Y-22133333D02*
X31183333Y-22133333D01*
X30983333Y-22133333D02*
X30983333Y-22833333D01*
X31050000Y-22733333D01*
X31116666Y-22666666D01*
X31183333Y-22633333D01*
X30516666Y-22766666D02*
X30483333Y-22800000D01*
X30416666Y-22833333D01*
X30250000Y-22833333D01*
X30183333Y-22800000D01*
X30150000Y-22766666D01*
X30116666Y-22700000D01*
X30116666Y-22633333D01*
X30150000Y-22533333D01*
X30550000Y-22133333D01*
X30116666Y-22133333D01*
X34666666Y-22183333D02*
X34666666Y-22883333D01*
X34400000Y-22883333D01*
X34333333Y-22850000D01*
X34300000Y-22816666D01*
X34266666Y-22750000D01*
X34266666Y-22650000D01*
X34300000Y-22583333D01*
X34333333Y-22550000D01*
X34400000Y-22516666D01*
X34666666Y-22516666D01*
X34000000Y-22383333D02*
X33666666Y-22383333D01*
X34066666Y-22183333D02*
X33833333Y-22883333D01*
X33600000Y-22183333D01*
X33433333Y-22883333D02*
X32966666Y-22883333D01*
X33266666Y-22183333D01*
X37241666Y-22233333D02*
X37241666Y-22933333D01*
X36975000Y-22933333D01*
X36908333Y-22900000D01*
X36875000Y-22866666D01*
X36841666Y-22800000D01*
X36841666Y-22700000D01*
X36875000Y-22633333D01*
X36908333Y-22600000D01*
X36975000Y-22566666D01*
X37241666Y-22566666D01*
X36575000Y-22433333D02*
X36241666Y-22433333D01*
X36641666Y-22233333D02*
X36408333Y-22933333D01*
X36175000Y-22233333D01*
X35641666Y-22933333D02*
X35775000Y-22933333D01*
X35841666Y-22900000D01*
X35875000Y-22866666D01*
X35941666Y-22766666D01*
X35975000Y-22633333D01*
X35975000Y-22366666D01*
X35941666Y-22300000D01*
X35908333Y-22266666D01*
X35841666Y-22233333D01*
X35708333Y-22233333D01*
X35641666Y-22266666D01*
X35608333Y-22300000D01*
X35575000Y-22366666D01*
X35575000Y-22533333D01*
X35608333Y-22600000D01*
X35641666Y-22633333D01*
X35708333Y-22666666D01*
X35841666Y-22666666D01*
X35908333Y-22633333D01*
X35941666Y-22600000D01*
X35975000Y-22533333D01*
X39791666Y-22183333D02*
X39791666Y-22883333D01*
X39525000Y-22883333D01*
X39458333Y-22850000D01*
X39425000Y-22816666D01*
X39391666Y-22750000D01*
X39391666Y-22650000D01*
X39425000Y-22583333D01*
X39458333Y-22550000D01*
X39525000Y-22516666D01*
X39791666Y-22516666D01*
X39125000Y-22383333D02*
X38791666Y-22383333D01*
X39191666Y-22183333D02*
X38958333Y-22883333D01*
X38725000Y-22183333D01*
X38158333Y-22883333D02*
X38491666Y-22883333D01*
X38525000Y-22550000D01*
X38491666Y-22583333D01*
X38425000Y-22616666D01*
X38258333Y-22616666D01*
X38191666Y-22583333D01*
X38158333Y-22550000D01*
X38125000Y-22483333D01*
X38125000Y-22316666D01*
X38158333Y-22250000D01*
X38191666Y-22216666D01*
X38258333Y-22183333D01*
X38425000Y-22183333D01*
X38491666Y-22216666D01*
X38525000Y-22250000D01*
X42316666Y-22183333D02*
X42316666Y-22883333D01*
X42050000Y-22883333D01*
X41983333Y-22850000D01*
X41950000Y-22816666D01*
X41916666Y-22750000D01*
X41916666Y-22650000D01*
X41950000Y-22583333D01*
X41983333Y-22550000D01*
X42050000Y-22516666D01*
X42316666Y-22516666D01*
X41650000Y-22383333D02*
X41316666Y-22383333D01*
X41716666Y-22183333D02*
X41483333Y-22883333D01*
X41250000Y-22183333D01*
X40716666Y-22650000D02*
X40716666Y-22183333D01*
X40883333Y-22916666D02*
X41050000Y-22416666D01*
X40616666Y-22416666D01*
X44841666Y-22183333D02*
X44841666Y-22883333D01*
X44575000Y-22883333D01*
X44508333Y-22850000D01*
X44475000Y-22816666D01*
X44441666Y-22750000D01*
X44441666Y-22650000D01*
X44475000Y-22583333D01*
X44508333Y-22550000D01*
X44575000Y-22516666D01*
X44841666Y-22516666D01*
X44175000Y-22383333D02*
X43841666Y-22383333D01*
X44241666Y-22183333D02*
X44008333Y-22883333D01*
X43775000Y-22183333D01*
X43608333Y-22883333D02*
X43175000Y-22883333D01*
X43408333Y-22616666D01*
X43308333Y-22616666D01*
X43241666Y-22583333D01*
X43208333Y-22550000D01*
X43175000Y-22483333D01*
X43175000Y-22316666D01*
X43208333Y-22250000D01*
X43241666Y-22216666D01*
X43308333Y-22183333D01*
X43508333Y-22183333D01*
X43575000Y-22216666D01*
X43608333Y-22250000D01*
X47208333Y-22148809D02*
X47208333Y-22648809D01*
X47017857Y-22648809D01*
X46970238Y-22625000D01*
X46946428Y-22601190D01*
X46922619Y-22553571D01*
X46922619Y-22482142D01*
X46946428Y-22434523D01*
X46970238Y-22410714D01*
X47017857Y-22386904D01*
X47208333Y-22386904D01*
X46732142Y-22291666D02*
X46494047Y-22291666D01*
X46779761Y-22148809D02*
X46613095Y-22648809D01*
X46446428Y-22148809D01*
X46303571Y-22601190D02*
X46279761Y-22625000D01*
X46232142Y-22648809D01*
X46113095Y-22648809D01*
X46065476Y-22625000D01*
X46041666Y-22601190D01*
X46017857Y-22553571D01*
X46017857Y-22505952D01*
X46041666Y-22434523D01*
X46327380Y-22148809D01*
X46017857Y-22148809D01*
X50046666Y-22183333D02*
X50046666Y-22883333D01*
X49780000Y-22883333D01*
X49713333Y-22850000D01*
X49680000Y-22816666D01*
X49646666Y-22750000D01*
X49646666Y-22650000D01*
X49680000Y-22583333D01*
X49713333Y-22550000D01*
X49780000Y-22516666D01*
X50046666Y-22516666D01*
X49380000Y-22383333D02*
X49046666Y-22383333D01*
X49446666Y-22183333D02*
X49213333Y-22883333D01*
X48980000Y-22183333D01*
X48380000Y-22183333D02*
X48780000Y-22183333D01*
X48580000Y-22183333D02*
X48580000Y-22883333D01*
X48646666Y-22783333D01*
X48713333Y-22716666D01*
X48780000Y-22683333D01*
X52208333Y-22850000D02*
X52275000Y-22883333D01*
X52375000Y-22883333D01*
X52475000Y-22850000D01*
X52541666Y-22783333D01*
X52575000Y-22716666D01*
X52608333Y-22583333D01*
X52608333Y-22483333D01*
X52575000Y-22350000D01*
X52541666Y-22283333D01*
X52475000Y-22216666D01*
X52375000Y-22183333D01*
X52308333Y-22183333D01*
X52208333Y-22216666D01*
X52175000Y-22250000D01*
X52175000Y-22483333D01*
X52308333Y-22483333D01*
X51875000Y-22183333D02*
X51875000Y-22883333D01*
X51475000Y-22183333D01*
X51475000Y-22883333D01*
X51141666Y-22183333D02*
X51141666Y-22883333D01*
X50975000Y-22883333D01*
X50875000Y-22850000D01*
X50808333Y-22783333D01*
X50775000Y-22716666D01*
X50741666Y-22583333D01*
X50741666Y-22483333D01*
X50775000Y-22350000D01*
X50808333Y-22283333D01*
X50875000Y-22216666D01*
X50975000Y-22183333D01*
X51141666Y-22183333D01*
X55091666Y-22183333D02*
X55091666Y-22883333D01*
X54825000Y-22883333D01*
X54758333Y-22850000D01*
X54725000Y-22816666D01*
X54691666Y-22750000D01*
X54691666Y-22650000D01*
X54725000Y-22583333D01*
X54758333Y-22550000D01*
X54825000Y-22516666D01*
X55091666Y-22516666D01*
X54158333Y-22550000D02*
X54058333Y-22516666D01*
X54025000Y-22483333D01*
X53991666Y-22416666D01*
X53991666Y-22316666D01*
X54025000Y-22250000D01*
X54058333Y-22216666D01*
X54125000Y-22183333D01*
X54391666Y-22183333D01*
X54391666Y-22883333D01*
X54158333Y-22883333D01*
X54091666Y-22850000D01*
X54058333Y-22816666D01*
X54025000Y-22750000D01*
X54025000Y-22683333D01*
X54058333Y-22616666D01*
X54091666Y-22583333D01*
X54158333Y-22550000D01*
X54391666Y-22550000D01*
X53658333Y-22183333D02*
X53525000Y-22183333D01*
X53458333Y-22216666D01*
X53425000Y-22250000D01*
X53358333Y-22350000D01*
X53325000Y-22483333D01*
X53325000Y-22750000D01*
X53358333Y-22816666D01*
X53391666Y-22850000D01*
X53458333Y-22883333D01*
X53591666Y-22883333D01*
X53658333Y-22850000D01*
X53691666Y-22816666D01*
X53725000Y-22750000D01*
X53725000Y-22583333D01*
X53691666Y-22516666D01*
X53658333Y-22483333D01*
X53591666Y-22450000D01*
X53458333Y-22450000D01*
X53391666Y-22483333D01*
X53358333Y-22516666D01*
X53325000Y-22583333D01*
X57925000Y-22183333D02*
X57925000Y-22883333D01*
X57658333Y-22883333D01*
X57591666Y-22850000D01*
X57558333Y-22816666D01*
X57525000Y-22750000D01*
X57525000Y-22650000D01*
X57558333Y-22583333D01*
X57591666Y-22550000D01*
X57658333Y-22516666D01*
X57925000Y-22516666D01*
X57258333Y-22383333D02*
X56925000Y-22383333D01*
X57325000Y-22183333D02*
X57091666Y-22883333D01*
X56858333Y-22183333D01*
X56258333Y-22183333D02*
X56658333Y-22183333D01*
X56458333Y-22183333D02*
X56458333Y-22883333D01*
X56525000Y-22783333D01*
X56591666Y-22716666D01*
X56658333Y-22683333D01*
X55825000Y-22883333D02*
X55758333Y-22883333D01*
X55691666Y-22850000D01*
X55658333Y-22816666D01*
X55625000Y-22750000D01*
X55591666Y-22616666D01*
X55591666Y-22450000D01*
X55625000Y-22316666D01*
X55658333Y-22250000D01*
X55691666Y-22216666D01*
X55758333Y-22183333D01*
X55825000Y-22183333D01*
X55891666Y-22216666D01*
X55925000Y-22250000D01*
X55958333Y-22316666D01*
X55991666Y-22450000D01*
X55991666Y-22616666D01*
X55958333Y-22750000D01*
X55925000Y-22816666D01*
X55891666Y-22850000D01*
X55825000Y-22883333D01*
X60091666Y-22183333D02*
X60091666Y-22883333D01*
X59825000Y-22883333D01*
X59758333Y-22850000D01*
X59725000Y-22816666D01*
X59691666Y-22750000D01*
X59691666Y-22650000D01*
X59725000Y-22583333D01*
X59758333Y-22550000D01*
X59825000Y-22516666D01*
X60091666Y-22516666D01*
X59425000Y-22383333D02*
X59091666Y-22383333D01*
X59491666Y-22183333D02*
X59258333Y-22883333D01*
X59025000Y-22183333D01*
X58758333Y-22183333D02*
X58625000Y-22183333D01*
X58558333Y-22216666D01*
X58525000Y-22250000D01*
X58458333Y-22350000D01*
X58425000Y-22483333D01*
X58425000Y-22750000D01*
X58458333Y-22816666D01*
X58491666Y-22850000D01*
X58558333Y-22883333D01*
X58691666Y-22883333D01*
X58758333Y-22850000D01*
X58791666Y-22816666D01*
X58825000Y-22750000D01*
X58825000Y-22583333D01*
X58791666Y-22516666D01*
X58758333Y-22483333D01*
X58691666Y-22450000D01*
X58558333Y-22450000D01*
X58491666Y-22483333D01*
X58458333Y-22516666D01*
X58425000Y-22583333D01*
X58508333Y-34341666D02*
X58741666Y-35041666D01*
X58975000Y-34341666D01*
X59208333Y-35041666D02*
X59208333Y-34341666D01*
X59541666Y-35041666D02*
X59541666Y-34341666D01*
X59941666Y-35041666D01*
X59941666Y-34341666D01*
X56191666Y-34375000D02*
X56125000Y-34341666D01*
X56025000Y-34341666D01*
X55925000Y-34375000D01*
X55858333Y-34441666D01*
X55825000Y-34508333D01*
X55791666Y-34641666D01*
X55791666Y-34741666D01*
X55825000Y-34875000D01*
X55858333Y-34941666D01*
X55925000Y-35008333D01*
X56025000Y-35041666D01*
X56091666Y-35041666D01*
X56191666Y-35008333D01*
X56225000Y-34975000D01*
X56225000Y-34741666D01*
X56091666Y-34741666D01*
X56525000Y-35041666D02*
X56525000Y-34341666D01*
X56925000Y-35041666D01*
X56925000Y-34341666D01*
X57258333Y-35041666D02*
X57258333Y-34341666D01*
X57425000Y-34341666D01*
X57525000Y-34375000D01*
X57591666Y-34441666D01*
X57625000Y-34508333D01*
X57658333Y-34641666D01*
X57658333Y-34741666D01*
X57625000Y-34875000D01*
X57591666Y-34941666D01*
X57525000Y-35008333D01*
X57425000Y-35041666D01*
X57258333Y-35041666D01*
X53308333Y-35041666D02*
X53308333Y-34341666D01*
X53575000Y-34341666D01*
X53641666Y-34375000D01*
X53675000Y-34408333D01*
X53708333Y-34475000D01*
X53708333Y-34575000D01*
X53675000Y-34641666D01*
X53641666Y-34675000D01*
X53575000Y-34708333D01*
X53308333Y-34708333D01*
X54241666Y-34675000D02*
X54341666Y-34708333D01*
X54375000Y-34741666D01*
X54408333Y-34808333D01*
X54408333Y-34908333D01*
X54375000Y-34975000D01*
X54341666Y-35008333D01*
X54275000Y-35041666D01*
X54008333Y-35041666D01*
X54008333Y-34341666D01*
X54241666Y-34341666D01*
X54308333Y-34375000D01*
X54341666Y-34408333D01*
X54375000Y-34475000D01*
X54375000Y-34541666D01*
X54341666Y-34608333D01*
X54308333Y-34641666D01*
X54241666Y-34675000D01*
X54008333Y-34675000D01*
X55041666Y-34341666D02*
X54708333Y-34341666D01*
X54675000Y-34675000D01*
X54708333Y-34641666D01*
X54775000Y-34608333D01*
X54941666Y-34608333D01*
X55008333Y-34641666D01*
X55041666Y-34675000D01*
X55075000Y-34741666D01*
X55075000Y-34908333D01*
X55041666Y-34975000D01*
X55008333Y-35008333D01*
X54941666Y-35041666D01*
X54775000Y-35041666D01*
X54708333Y-35008333D01*
X54675000Y-34975000D01*
X50758333Y-34341666D02*
X51191666Y-34341666D01*
X50958333Y-34608333D01*
X51058333Y-34608333D01*
X51125000Y-34641666D01*
X51158333Y-34675000D01*
X51191666Y-34741666D01*
X51191666Y-34908333D01*
X51158333Y-34975000D01*
X51125000Y-35008333D01*
X51058333Y-35041666D01*
X50858333Y-35041666D01*
X50791666Y-35008333D01*
X50758333Y-34975000D01*
X51391666Y-34341666D02*
X51625000Y-35041666D01*
X51858333Y-34341666D01*
X52025000Y-34341666D02*
X52458333Y-34341666D01*
X52225000Y-34608333D01*
X52325000Y-34608333D01*
X52391666Y-34641666D01*
X52425000Y-34675000D01*
X52458333Y-34741666D01*
X52458333Y-34908333D01*
X52425000Y-34975000D01*
X52391666Y-35008333D01*
X52325000Y-35041666D01*
X52125000Y-35041666D01*
X52058333Y-35008333D01*
X52025000Y-34975000D01*
X48208333Y-35041666D02*
X48208333Y-34341666D01*
X48475000Y-34341666D01*
X48541666Y-34375000D01*
X48575000Y-34408333D01*
X48608333Y-34475000D01*
X48608333Y-34575000D01*
X48575000Y-34641666D01*
X48541666Y-34675000D01*
X48475000Y-34708333D01*
X48208333Y-34708333D01*
X49141666Y-34675000D02*
X49241666Y-34708333D01*
X49275000Y-34741666D01*
X49308333Y-34808333D01*
X49308333Y-34908333D01*
X49275000Y-34975000D01*
X49241666Y-35008333D01*
X49175000Y-35041666D01*
X48908333Y-35041666D01*
X48908333Y-34341666D01*
X49141666Y-34341666D01*
X49208333Y-34375000D01*
X49241666Y-34408333D01*
X49275000Y-34475000D01*
X49275000Y-34541666D01*
X49241666Y-34608333D01*
X49208333Y-34641666D01*
X49141666Y-34675000D01*
X48908333Y-34675000D01*
X49908333Y-34575000D02*
X49908333Y-35041666D01*
X49741666Y-34308333D02*
X49575000Y-34808333D01*
X50008333Y-34808333D01*
X45658333Y-35041666D02*
X45658333Y-34341666D01*
X45925000Y-34341666D01*
X45991666Y-34375000D01*
X46025000Y-34408333D01*
X46058333Y-34475000D01*
X46058333Y-34575000D01*
X46025000Y-34641666D01*
X45991666Y-34675000D01*
X45925000Y-34708333D01*
X45658333Y-34708333D01*
X46591666Y-34675000D02*
X46691666Y-34708333D01*
X46725000Y-34741666D01*
X46758333Y-34808333D01*
X46758333Y-34908333D01*
X46725000Y-34975000D01*
X46691666Y-35008333D01*
X46625000Y-35041666D01*
X46358333Y-35041666D01*
X46358333Y-34341666D01*
X46591666Y-34341666D01*
X46658333Y-34375000D01*
X46691666Y-34408333D01*
X46725000Y-34475000D01*
X46725000Y-34541666D01*
X46691666Y-34608333D01*
X46658333Y-34641666D01*
X46591666Y-34675000D01*
X46358333Y-34675000D01*
X46991666Y-34341666D02*
X47425000Y-34341666D01*
X47191666Y-34608333D01*
X47291666Y-34608333D01*
X47358333Y-34641666D01*
X47391666Y-34675000D01*
X47425000Y-34741666D01*
X47425000Y-34908333D01*
X47391666Y-34975000D01*
X47358333Y-35008333D01*
X47291666Y-35041666D01*
X47091666Y-35041666D01*
X47025000Y-35008333D01*
X46991666Y-34975000D01*
X43158333Y-35041666D02*
X43158333Y-34341666D01*
X43425000Y-34341666D01*
X43491666Y-34375000D01*
X43525000Y-34408333D01*
X43558333Y-34475000D01*
X43558333Y-34575000D01*
X43525000Y-34641666D01*
X43491666Y-34675000D01*
X43425000Y-34708333D01*
X43158333Y-34708333D01*
X44091666Y-34675000D02*
X44191666Y-34708333D01*
X44225000Y-34741666D01*
X44258333Y-34808333D01*
X44258333Y-34908333D01*
X44225000Y-34975000D01*
X44191666Y-35008333D01*
X44125000Y-35041666D01*
X43858333Y-35041666D01*
X43858333Y-34341666D01*
X44091666Y-34341666D01*
X44158333Y-34375000D01*
X44191666Y-34408333D01*
X44225000Y-34475000D01*
X44225000Y-34541666D01*
X44191666Y-34608333D01*
X44158333Y-34641666D01*
X44091666Y-34675000D01*
X43858333Y-34675000D01*
X44858333Y-34341666D02*
X44725000Y-34341666D01*
X44658333Y-34375000D01*
X44625000Y-34408333D01*
X44558333Y-34508333D01*
X44525000Y-34641666D01*
X44525000Y-34908333D01*
X44558333Y-34975000D01*
X44591666Y-35008333D01*
X44658333Y-35041666D01*
X44791666Y-35041666D01*
X44858333Y-35008333D01*
X44891666Y-34975000D01*
X44925000Y-34908333D01*
X44925000Y-34741666D01*
X44891666Y-34675000D01*
X44858333Y-34641666D01*
X44791666Y-34608333D01*
X44658333Y-34608333D01*
X44591666Y-34641666D01*
X44558333Y-34675000D01*
X44525000Y-34741666D01*
X40608333Y-35041666D02*
X40608333Y-34341666D01*
X40875000Y-34341666D01*
X40941666Y-34375000D01*
X40975000Y-34408333D01*
X41008333Y-34475000D01*
X41008333Y-34575000D01*
X40975000Y-34641666D01*
X40941666Y-34675000D01*
X40875000Y-34708333D01*
X40608333Y-34708333D01*
X41541666Y-34675000D02*
X41641666Y-34708333D01*
X41675000Y-34741666D01*
X41708333Y-34808333D01*
X41708333Y-34908333D01*
X41675000Y-34975000D01*
X41641666Y-35008333D01*
X41575000Y-35041666D01*
X41308333Y-35041666D01*
X41308333Y-34341666D01*
X41541666Y-34341666D01*
X41608333Y-34375000D01*
X41641666Y-34408333D01*
X41675000Y-34475000D01*
X41675000Y-34541666D01*
X41641666Y-34608333D01*
X41608333Y-34641666D01*
X41541666Y-34675000D01*
X41308333Y-34675000D01*
X41941666Y-34341666D02*
X42408333Y-34341666D01*
X42108333Y-35041666D01*
X38058333Y-35041666D02*
X38058333Y-34341666D01*
X38325000Y-34341666D01*
X38391666Y-34375000D01*
X38425000Y-34408333D01*
X38458333Y-34475000D01*
X38458333Y-34575000D01*
X38425000Y-34641666D01*
X38391666Y-34675000D01*
X38325000Y-34708333D01*
X38058333Y-34708333D01*
X38991666Y-34675000D02*
X39091666Y-34708333D01*
X39125000Y-34741666D01*
X39158333Y-34808333D01*
X39158333Y-34908333D01*
X39125000Y-34975000D01*
X39091666Y-35008333D01*
X39025000Y-35041666D01*
X38758333Y-35041666D01*
X38758333Y-34341666D01*
X38991666Y-34341666D01*
X39058333Y-34375000D01*
X39091666Y-34408333D01*
X39125000Y-34475000D01*
X39125000Y-34541666D01*
X39091666Y-34608333D01*
X39058333Y-34641666D01*
X38991666Y-34675000D01*
X38758333Y-34675000D01*
X39425000Y-34408333D02*
X39458333Y-34375000D01*
X39525000Y-34341666D01*
X39691666Y-34341666D01*
X39758333Y-34375000D01*
X39791666Y-34408333D01*
X39825000Y-34475000D01*
X39825000Y-34541666D01*
X39791666Y-34641666D01*
X39391666Y-35041666D01*
X39825000Y-35041666D01*
X35275000Y-35041666D02*
X35275000Y-34341666D01*
X35541666Y-34341666D01*
X35608333Y-34375000D01*
X35641666Y-34408333D01*
X35675000Y-34475000D01*
X35675000Y-34575000D01*
X35641666Y-34641666D01*
X35608333Y-34675000D01*
X35541666Y-34708333D01*
X35275000Y-34708333D01*
X35941666Y-34841666D02*
X36275000Y-34841666D01*
X35875000Y-35041666D02*
X36108333Y-34341666D01*
X36341666Y-35041666D01*
X36941666Y-35041666D02*
X36541666Y-35041666D01*
X36741666Y-35041666D02*
X36741666Y-34341666D01*
X36675000Y-34441666D01*
X36608333Y-34508333D01*
X36541666Y-34541666D01*
X37575000Y-34341666D02*
X37241666Y-34341666D01*
X37208333Y-34675000D01*
X37241666Y-34641666D01*
X37308333Y-34608333D01*
X37475000Y-34608333D01*
X37541666Y-34641666D01*
X37575000Y-34675000D01*
X37608333Y-34741666D01*
X37608333Y-34908333D01*
X37575000Y-34975000D01*
X37541666Y-35008333D01*
X37475000Y-35041666D01*
X37308333Y-35041666D01*
X37241666Y-35008333D01*
X37208333Y-34975000D01*
X32958333Y-35041666D02*
X32958333Y-34341666D01*
X33225000Y-34341666D01*
X33291666Y-34375000D01*
X33325000Y-34408333D01*
X33358333Y-34475000D01*
X33358333Y-34575000D01*
X33325000Y-34641666D01*
X33291666Y-34675000D01*
X33225000Y-34708333D01*
X32958333Y-34708333D01*
X33891666Y-34675000D02*
X33991666Y-34708333D01*
X34025000Y-34741666D01*
X34058333Y-34808333D01*
X34058333Y-34908333D01*
X34025000Y-34975000D01*
X33991666Y-35008333D01*
X33925000Y-35041666D01*
X33658333Y-35041666D01*
X33658333Y-34341666D01*
X33891666Y-34341666D01*
X33958333Y-34375000D01*
X33991666Y-34408333D01*
X34025000Y-34475000D01*
X34025000Y-34541666D01*
X33991666Y-34608333D01*
X33958333Y-34641666D01*
X33891666Y-34675000D01*
X33658333Y-34675000D01*
X34458333Y-34641666D02*
X34391666Y-34608333D01*
X34358333Y-34575000D01*
X34325000Y-34508333D01*
X34325000Y-34475000D01*
X34358333Y-34408333D01*
X34391666Y-34375000D01*
X34458333Y-34341666D01*
X34591666Y-34341666D01*
X34658333Y-34375000D01*
X34691666Y-34408333D01*
X34725000Y-34475000D01*
X34725000Y-34508333D01*
X34691666Y-34575000D01*
X34658333Y-34608333D01*
X34591666Y-34641666D01*
X34458333Y-34641666D01*
X34391666Y-34675000D01*
X34358333Y-34708333D01*
X34325000Y-34775000D01*
X34325000Y-34908333D01*
X34358333Y-34975000D01*
X34391666Y-35008333D01*
X34458333Y-35041666D01*
X34591666Y-35041666D01*
X34658333Y-35008333D01*
X34691666Y-34975000D01*
X34725000Y-34908333D01*
X34725000Y-34775000D01*
X34691666Y-34708333D01*
X34658333Y-34675000D01*
X34591666Y-34641666D01*
X30408333Y-35041666D02*
X30408333Y-34341666D01*
X30675000Y-34341666D01*
X30741666Y-34375000D01*
X30775000Y-34408333D01*
X30808333Y-34475000D01*
X30808333Y-34575000D01*
X30775000Y-34641666D01*
X30741666Y-34675000D01*
X30675000Y-34708333D01*
X30408333Y-34708333D01*
X31341666Y-34675000D02*
X31441666Y-34708333D01*
X31475000Y-34741666D01*
X31508333Y-34808333D01*
X31508333Y-34908333D01*
X31475000Y-34975000D01*
X31441666Y-35008333D01*
X31375000Y-35041666D01*
X31108333Y-35041666D01*
X31108333Y-34341666D01*
X31341666Y-34341666D01*
X31408333Y-34375000D01*
X31441666Y-34408333D01*
X31475000Y-34475000D01*
X31475000Y-34541666D01*
X31441666Y-34608333D01*
X31408333Y-34641666D01*
X31341666Y-34675000D01*
X31108333Y-34675000D01*
X32175000Y-35041666D02*
X31775000Y-35041666D01*
X31975000Y-35041666D02*
X31975000Y-34341666D01*
X31908333Y-34441666D01*
X31841666Y-34508333D01*
X31775000Y-34541666D01*
X27958333Y-35041666D02*
X27958333Y-34341666D01*
X28225000Y-34341666D01*
X28291666Y-34375000D01*
X28325000Y-34408333D01*
X28358333Y-34475000D01*
X28358333Y-34575000D01*
X28325000Y-34641666D01*
X28291666Y-34675000D01*
X28225000Y-34708333D01*
X27958333Y-34708333D01*
X28625000Y-34841666D02*
X28958333Y-34841666D01*
X28558333Y-35041666D02*
X28791666Y-34341666D01*
X29025000Y-35041666D01*
X29358333Y-34641666D02*
X29291666Y-34608333D01*
X29258333Y-34575000D01*
X29225000Y-34508333D01*
X29225000Y-34475000D01*
X29258333Y-34408333D01*
X29291666Y-34375000D01*
X29358333Y-34341666D01*
X29491666Y-34341666D01*
X29558333Y-34375000D01*
X29591666Y-34408333D01*
X29625000Y-34475000D01*
X29625000Y-34508333D01*
X29591666Y-34575000D01*
X29558333Y-34608333D01*
X29491666Y-34641666D01*
X29358333Y-34641666D01*
X29291666Y-34675000D01*
X29258333Y-34708333D01*
X29225000Y-34775000D01*
X29225000Y-34908333D01*
X29258333Y-34975000D01*
X29291666Y-35008333D01*
X29358333Y-35041666D01*
X29491666Y-35041666D01*
X29558333Y-35008333D01*
X29591666Y-34975000D01*
X29625000Y-34908333D01*
X29625000Y-34775000D01*
X29591666Y-34708333D01*
X29558333Y-34675000D01*
X29491666Y-34641666D01*
X22475000Y-35041666D02*
X22475000Y-34341666D01*
X22741666Y-34341666D01*
X22808333Y-34375000D01*
X22841666Y-34408333D01*
X22875000Y-34475000D01*
X22875000Y-34575000D01*
X22841666Y-34641666D01*
X22808333Y-34675000D01*
X22741666Y-34708333D01*
X22475000Y-34708333D01*
X23408333Y-34675000D02*
X23508333Y-34708333D01*
X23541666Y-34741666D01*
X23575000Y-34808333D01*
X23575000Y-34908333D01*
X23541666Y-34975000D01*
X23508333Y-35008333D01*
X23441666Y-35041666D01*
X23175000Y-35041666D01*
X23175000Y-34341666D01*
X23408333Y-34341666D01*
X23475000Y-34375000D01*
X23508333Y-34408333D01*
X23541666Y-34475000D01*
X23541666Y-34541666D01*
X23508333Y-34608333D01*
X23475000Y-34641666D01*
X23408333Y-34675000D01*
X23175000Y-34675000D01*
X24241666Y-35041666D02*
X23841666Y-35041666D01*
X24041666Y-35041666D02*
X24041666Y-34341666D01*
X23975000Y-34441666D01*
X23908333Y-34508333D01*
X23841666Y-34541666D01*
X24475000Y-34341666D02*
X24908333Y-34341666D01*
X24675000Y-34608333D01*
X24775000Y-34608333D01*
X24841666Y-34641666D01*
X24875000Y-34675000D01*
X24908333Y-34741666D01*
X24908333Y-34908333D01*
X24875000Y-34975000D01*
X24841666Y-35008333D01*
X24775000Y-35041666D01*
X24575000Y-35041666D01*
X24508333Y-35008333D01*
X24475000Y-34975000D01*
X25358333Y-34341666D02*
X25791666Y-34341666D01*
X25558333Y-34608333D01*
X25658333Y-34608333D01*
X25725000Y-34641666D01*
X25758333Y-34675000D01*
X25791666Y-34741666D01*
X25791666Y-34908333D01*
X25758333Y-34975000D01*
X25725000Y-35008333D01*
X25658333Y-35041666D01*
X25458333Y-35041666D01*
X25391666Y-35008333D01*
X25358333Y-34975000D01*
X25991666Y-34341666D02*
X26225000Y-35041666D01*
X26458333Y-34341666D01*
X26625000Y-34341666D02*
X27058333Y-34341666D01*
X26825000Y-34608333D01*
X26925000Y-34608333D01*
X26991666Y-34641666D01*
X27025000Y-34675000D01*
X27058333Y-34741666D01*
X27058333Y-34908333D01*
X27025000Y-34975000D01*
X26991666Y-35008333D01*
X26925000Y-35041666D01*
X26725000Y-35041666D01*
X26658333Y-35008333D01*
X26625000Y-34975000D01*
X58166666Y-28116666D02*
X57466666Y-28116666D01*
X57466666Y-27950000D01*
X57500000Y-27850000D01*
X57566666Y-27783333D01*
X57633333Y-27750000D01*
X57766666Y-27716666D01*
X57866666Y-27716666D01*
X58000000Y-27750000D01*
X58066666Y-27783333D01*
X58133333Y-27850000D01*
X58166666Y-27950000D01*
X58166666Y-28116666D01*
X58166666Y-27416666D02*
X57466666Y-27416666D01*
X57466666Y-26950000D02*
X57466666Y-26816666D01*
X57500000Y-26750000D01*
X57566666Y-26683333D01*
X57700000Y-26650000D01*
X57933333Y-26650000D01*
X58066666Y-26683333D01*
X58133333Y-26750000D01*
X58166666Y-26816666D01*
X58166666Y-26950000D01*
X58133333Y-27016666D01*
X58066666Y-27083333D01*
X57933333Y-27116666D01*
X57700000Y-27116666D01*
X57566666Y-27083333D01*
X57500000Y-27016666D01*
X57466666Y-26950000D01*
X58100000Y-30316666D02*
X58133333Y-30350000D01*
X58166666Y-30450000D01*
X58166666Y-30516666D01*
X58133333Y-30616666D01*
X58066666Y-30683333D01*
X58000000Y-30716666D01*
X57866666Y-30750000D01*
X57766666Y-30750000D01*
X57633333Y-30716666D01*
X57566666Y-30683333D01*
X57500000Y-30616666D01*
X57466666Y-30516666D01*
X57466666Y-30450000D01*
X57500000Y-30350000D01*
X57533333Y-30316666D01*
X58166666Y-29683333D02*
X58166666Y-30016666D01*
X57466666Y-30016666D01*
X58166666Y-29450000D02*
X57466666Y-29450000D01*
X58166666Y-29050000D02*
X57766666Y-29350000D01*
X57466666Y-29050000D02*
X57866666Y-29450000D01*
X57475000Y-33033333D02*
X57441666Y-33100000D01*
X57441666Y-33200000D01*
X57475000Y-33300000D01*
X57541666Y-33366666D01*
X57608333Y-33400000D01*
X57741666Y-33433333D01*
X57841666Y-33433333D01*
X57975000Y-33400000D01*
X58041666Y-33366666D01*
X58108333Y-33300000D01*
X58141666Y-33200000D01*
X58141666Y-33133333D01*
X58108333Y-33033333D01*
X58075000Y-33000000D01*
X57841666Y-33000000D01*
X57841666Y-33133333D01*
X58141666Y-32700000D02*
X57441666Y-32700000D01*
X58141666Y-32300000D01*
X57441666Y-32300000D01*
X58141666Y-31966666D02*
X57441666Y-31966666D01*
X57441666Y-31800000D01*
X57475000Y-31700000D01*
X57541666Y-31633333D01*
X57608333Y-31600000D01*
X57741666Y-31566666D01*
X57841666Y-31566666D01*
X57975000Y-31600000D01*
X58041666Y-31633333D01*
X58108333Y-31700000D01*
X58141666Y-31800000D01*
X58141666Y-31966666D01*
D12*
X51802380Y-33734285D02*
X50802380Y-33734285D01*
X50802380Y-33496190D01*
X50850000Y-33353333D01*
X50945238Y-33258095D01*
X51040476Y-33210476D01*
X51230952Y-33162857D01*
X51373809Y-33162857D01*
X51564285Y-33210476D01*
X51659523Y-33258095D01*
X51754761Y-33353333D01*
X51802380Y-33496190D01*
X51802380Y-33734285D01*
X51278571Y-32400952D02*
X51278571Y-32734285D01*
X51802380Y-32734285D02*
X50802380Y-32734285D01*
X50802380Y-32258095D01*
X50802380Y-31877142D02*
X51611904Y-31877142D01*
X51707142Y-31829523D01*
X51754761Y-31781904D01*
X51802380Y-31686666D01*
X51802380Y-31496190D01*
X51754761Y-31400952D01*
X51707142Y-31353333D01*
X51611904Y-31305714D01*
X50802380Y-31305714D01*
X30216071Y-33775714D02*
X30387500Y-33832857D01*
X30673214Y-33832857D01*
X30787500Y-33775714D01*
X30844642Y-33718571D01*
X30901785Y-33604285D01*
X30901785Y-33490000D01*
X30844642Y-33375714D01*
X30787500Y-33318571D01*
X30673214Y-33261428D01*
X30444642Y-33204285D01*
X30330357Y-33147142D01*
X30273214Y-33090000D01*
X30216071Y-32975714D01*
X30216071Y-32861428D01*
X30273214Y-32747142D01*
X30330357Y-32690000D01*
X30444642Y-32632857D01*
X30730357Y-32632857D01*
X30901785Y-32690000D01*
X31244642Y-33032857D02*
X31701785Y-33032857D01*
X31416071Y-32632857D02*
X31416071Y-33661428D01*
X31473214Y-33775714D01*
X31587500Y-33832857D01*
X31701785Y-33832857D01*
X32616071Y-33832857D02*
X32616071Y-33204285D01*
X32558928Y-33090000D01*
X32444642Y-33032857D01*
X32216071Y-33032857D01*
X32101785Y-33090000D01*
X32616071Y-33775714D02*
X32501785Y-33832857D01*
X32216071Y-33832857D01*
X32101785Y-33775714D01*
X32044642Y-33661428D01*
X32044642Y-33547142D01*
X32101785Y-33432857D01*
X32216071Y-33375714D01*
X32501785Y-33375714D01*
X32616071Y-33318571D01*
X33016071Y-33032857D02*
X33473214Y-33032857D01*
X33187500Y-32632857D02*
X33187500Y-33661428D01*
X33244642Y-33775714D01*
X33358928Y-33832857D01*
X33473214Y-33832857D01*
X34387500Y-33032857D02*
X34387500Y-33832857D01*
X33873214Y-33032857D02*
X33873214Y-33661428D01*
X33930357Y-33775714D01*
X34044642Y-33832857D01*
X34216071Y-33832857D01*
X34330357Y-33775714D01*
X34387500Y-33718571D01*
X34901785Y-33775714D02*
X35016071Y-33832857D01*
X35244642Y-33832857D01*
X35358928Y-33775714D01*
X35416071Y-33661428D01*
X35416071Y-33604285D01*
X35358928Y-33490000D01*
X35244642Y-33432857D01*
X35073214Y-33432857D01*
X34958928Y-33375714D01*
X34901785Y-33261428D01*
X34901785Y-33204285D01*
X34958928Y-33090000D01*
X35073214Y-33032857D01*
X35244642Y-33032857D01*
X35358928Y-33090000D01*
X30273214Y-24432857D02*
X30273214Y-23232857D01*
X30730357Y-23232857D01*
X30844642Y-23290000D01*
X30901785Y-23347142D01*
X30958928Y-23461428D01*
X30958928Y-23632857D01*
X30901785Y-23747142D01*
X30844642Y-23804285D01*
X30730357Y-23861428D01*
X30273214Y-23861428D01*
X31644642Y-24432857D02*
X31530357Y-24375714D01*
X31473214Y-24318571D01*
X31416071Y-24204285D01*
X31416071Y-23861428D01*
X31473214Y-23747142D01*
X31530357Y-23690000D01*
X31644642Y-23632857D01*
X31816071Y-23632857D01*
X31930357Y-23690000D01*
X31987500Y-23747142D01*
X32044642Y-23861428D01*
X32044642Y-24204285D01*
X31987500Y-24318571D01*
X31930357Y-24375714D01*
X31816071Y-24432857D01*
X31644642Y-24432857D01*
X32444642Y-23632857D02*
X32673214Y-24432857D01*
X32901785Y-23861428D01*
X33130357Y-24432857D01*
X33358928Y-23632857D01*
X34273214Y-24375714D02*
X34158928Y-24432857D01*
X33930357Y-24432857D01*
X33816071Y-24375714D01*
X33758928Y-24261428D01*
X33758928Y-23804285D01*
X33816071Y-23690000D01*
X33930357Y-23632857D01*
X34158928Y-23632857D01*
X34273214Y-23690000D01*
X34330357Y-23804285D01*
X34330357Y-23918571D01*
X33758928Y-24032857D01*
X34844642Y-24432857D02*
X34844642Y-23632857D01*
X34844642Y-23861428D02*
X34901785Y-23747142D01*
X34958928Y-23690000D01*
X35073214Y-23632857D01*
X35187500Y-23632857D01*
D13*
X63200000Y-37100000D02*
G75*
G02X62900000Y-37400000I-300000J0D01*
G01*
X62900000Y-19800000D02*
G75*
G02X63200000Y-20100000I0J-300000D01*
G01*
X20000000Y-20100000D02*
G75*
G02X20300000Y-19800000I300000J0D01*
G01*
X20300000Y-37400000D02*
G75*
G02X20000000Y-37100000I0J300000D01*
G01*
X20000000Y-37100000D02*
X20000000Y-20100000D01*
X62900000Y-37400000D02*
X20300000Y-37400000D01*
X63200000Y-20100000D02*
X63200000Y-37100000D01*
X20300000Y-19800000D02*
X62900000Y-19800000D01*
D10*
X49710000Y-24562779D02*
X49710000Y-24237221D01*
X48690000Y-24562779D02*
X48690000Y-24237221D01*
X51690000Y-29177221D02*
X51690000Y-29502779D01*
X50670000Y-29177221D02*
X50670000Y-29502779D01*
X60242929Y-32850000D02*
X60640000Y-32850000D01*
X60242929Y-32090000D02*
X60640000Y-32090000D01*
X69300000Y-32850000D02*
X63300000Y-32850000D01*
X69300000Y-32090000D02*
X69300000Y-32850000D01*
X63300000Y-32090000D02*
X69300000Y-32090000D01*
X60640000Y-31200000D02*
X63300000Y-31200000D01*
X60242929Y-30310000D02*
X60640000Y-30310000D01*
X60242929Y-29550000D02*
X60640000Y-29550000D01*
X69300000Y-30310000D02*
X63300000Y-30310000D01*
X69300000Y-29550000D02*
X69300000Y-30310000D01*
X63300000Y-29550000D02*
X69300000Y-29550000D01*
X60640000Y-28660000D02*
X63300000Y-28660000D01*
X60242929Y-27770000D02*
X60640000Y-27770000D01*
X60242929Y-27010000D02*
X60640000Y-27010000D01*
X69300000Y-27770000D02*
X63300000Y-27770000D01*
X69300000Y-27010000D02*
X69300000Y-27770000D01*
X63300000Y-27010000D02*
X69300000Y-27010000D01*
X60640000Y-26120000D02*
X63300000Y-26120000D01*
X60310000Y-25230000D02*
X60640000Y-25230000D01*
X60310000Y-24470000D02*
X60640000Y-24470000D01*
X63300000Y-25130000D02*
X69300000Y-25130000D01*
X63300000Y-25010000D02*
X69300000Y-25010000D01*
X63300000Y-24890000D02*
X69300000Y-24890000D01*
X63300000Y-24770000D02*
X69300000Y-24770000D01*
X63300000Y-24650000D02*
X69300000Y-24650000D01*
X63300000Y-24530000D02*
X69300000Y-24530000D01*
X69300000Y-25230000D02*
X63300000Y-25230000D01*
X69300000Y-24470000D02*
X69300000Y-25230000D01*
X63300000Y-24470000D02*
X69300000Y-24470000D01*
X63300000Y-23520000D02*
X60640000Y-23520000D01*
X63300000Y-33800000D02*
X63300000Y-23520000D01*
X60640000Y-33800000D02*
X63300000Y-33800000D01*
X60640000Y-23520000D02*
X60640000Y-33800000D01*
X57180000Y-24497936D02*
X57180000Y-25702064D01*
X54460000Y-24497936D02*
X54460000Y-25702064D01*
X55400000Y-28691422D02*
X55400000Y-29208578D01*
X53980000Y-28691422D02*
X53980000Y-29208578D01*
X20090000Y-20450000D02*
X21420000Y-20450000D01*
X20090000Y-21780000D02*
X20090000Y-20450000D01*
X20090000Y-23050000D02*
X22750000Y-23050000D01*
X22750000Y-23050000D02*
X22750000Y-23110000D01*
X20090000Y-23050000D02*
X20090000Y-23110000D01*
X20090000Y-23110000D02*
X22750000Y-23110000D01*
X22750000Y-34010000D02*
X20090000Y-34010000D01*
X22750000Y-34070000D02*
X22750000Y-34010000D01*
X20090000Y-34070000D02*
X20090000Y-34010000D01*
X22750000Y-34070000D02*
X20090000Y-34070000D01*
X22750000Y-35340000D02*
X22750000Y-36670000D01*
X22750000Y-36670000D02*
X21420000Y-36670000D01*
X37912887Y-28271751D02*
X37594689Y-28589949D01*
X37594689Y-28589949D02*
X37912887Y-28908147D01*
X42381802Y-23802836D02*
X42700000Y-23484638D01*
X42700000Y-23484638D02*
X43018198Y-23802836D01*
X43018198Y-33377062D02*
X42700000Y-33695260D01*
X42700000Y-33695260D02*
X42381802Y-33377062D01*
X47487113Y-28908147D02*
X47805311Y-28589949D01*
X47805311Y-28589949D02*
X47487113Y-28271751D01*
X47487113Y-28271751D02*
X48399281Y-27359583D01*
X52500000Y-34212000D02*
X56900000Y-34212000D01*
X56900000Y-34212000D02*
X56900000Y-34092000D01*
X56900000Y-33082000D02*
X56900000Y-31942000D01*
X56900000Y-30932000D02*
X56900000Y-30812000D01*
X56900000Y-30812000D02*
X52500000Y-30812000D01*
X52500000Y-30812000D02*
X52500000Y-30932000D01*
X52500000Y-31942000D02*
X52500000Y-33082000D01*
X52500000Y-34092000D02*
X52500000Y-34212000D01*
X32640000Y-29635000D02*
X32640000Y-29860000D01*
X35360000Y-27140000D02*
X34885000Y-27140000D01*
X35360000Y-27365000D02*
X35360000Y-27140000D01*
X35360000Y-29860000D02*
X34885000Y-29860000D01*
X35360000Y-29635000D02*
X35360000Y-29860000D01*
X32640000Y-27140000D02*
X33115000Y-27140000D01*
X32640000Y-27365000D02*
X32640000Y-27140000D01*
X52870000Y-24870000D02*
X50420000Y-24870000D01*
X51070000Y-28090000D02*
X52870000Y-28090000D01*
X28800000Y-30110000D02*
X31250000Y-30110000D01*
X30600000Y-26890000D02*
X28800000Y-26890000D01*
D12*
X26869999Y-32570000D02*
X26869999Y-33070000D01*
X26869999Y-24070000D02*
X26869999Y-24570000D01*
X24369999Y-24070000D02*
X22369999Y-24070000D01*
X22369999Y-33070000D02*
X24369999Y-33070000D01*
X20369999Y-33070000D02*
X18674999Y-33070000D01*
X18674999Y-24070000D02*
X20369999Y-24070000D01*
X18674999Y-33070000D02*
X18674999Y-24070000D01*
D10*
X29985000Y-32865000D02*
X27700000Y-32865000D01*
X29985000Y-34335000D02*
X29985000Y-32865000D01*
X27700000Y-34335000D02*
X29985000Y-34335000D01*
X29985000Y-22865000D02*
X27700000Y-22865000D01*
X29985000Y-24335000D02*
X29985000Y-22865000D01*
X27700000Y-24335000D02*
X29985000Y-24335000D01*
X55790000Y-28701422D02*
X55790000Y-29218578D01*
X57210000Y-28701422D02*
X57210000Y-29218578D01*
X51838578Y-23180000D02*
X51321422Y-23180000D01*
X51838578Y-24600000D02*
X51321422Y-24600000D01*
D14*
X45339390Y-28048502D02*
X45081801Y-28003045D01*
X45157563Y-28230330D02*
X44839365Y-27912132D01*
X44960583Y-27790913D01*
X45006040Y-27775761D01*
X45036345Y-27775761D01*
X45081801Y-27790913D01*
X45127258Y-27836370D01*
X45142411Y-27881827D01*
X45142411Y-27912132D01*
X45127258Y-27957588D01*
X45006040Y-28078807D01*
X45642436Y-27745456D02*
X45460609Y-27927284D01*
X45551522Y-27836370D02*
X45233324Y-27518172D01*
X45248477Y-27593933D01*
X45248477Y-27654543D01*
X45233324Y-27700000D01*
X45596979Y-27154517D02*
X45536370Y-27215126D01*
X45521218Y-27260583D01*
X45521218Y-27290888D01*
X45536370Y-27366649D01*
X45581827Y-27442411D01*
X45703045Y-27563629D01*
X45748502Y-27578781D01*
X45778807Y-27578781D01*
X45824264Y-27563629D01*
X45884873Y-27503020D01*
X45900025Y-27457563D01*
X45900025Y-27427258D01*
X45884873Y-27381801D01*
X45809111Y-27306040D01*
X45763654Y-27290888D01*
X45733350Y-27290888D01*
X45687893Y-27306040D01*
X45627284Y-27366649D01*
X45612132Y-27412106D01*
X45612132Y-27442411D01*
X45627284Y-27487867D01*
X44939390Y-27648502D02*
X44681801Y-27603045D01*
X44757563Y-27830330D02*
X44439365Y-27512132D01*
X44560583Y-27390913D01*
X44606040Y-27375761D01*
X44636345Y-27375761D01*
X44681801Y-27390913D01*
X44727258Y-27436370D01*
X44742411Y-27481827D01*
X44742411Y-27512132D01*
X44727258Y-27557588D01*
X44606040Y-27678807D01*
X45242436Y-27345456D02*
X45060609Y-27527284D01*
X45151522Y-27436370D02*
X44833324Y-27118172D01*
X44848477Y-27193933D01*
X44848477Y-27254543D01*
X44833324Y-27300000D01*
X45212132Y-26739365D02*
X45060609Y-26890888D01*
X45196979Y-27057563D01*
X45196979Y-27027258D01*
X45212132Y-26981801D01*
X45287893Y-26906040D01*
X45333350Y-26890888D01*
X45363654Y-26890888D01*
X45409111Y-26906040D01*
X45484873Y-26981801D01*
X45500025Y-27027258D01*
X45500025Y-27057563D01*
X45484873Y-27103020D01*
X45409111Y-27178781D01*
X45363654Y-27193933D01*
X45333350Y-27193933D01*
X45851497Y-28139390D02*
X45896954Y-27881801D01*
X45669669Y-27957563D02*
X45987867Y-27639365D01*
X46109086Y-27760583D01*
X46124238Y-27806040D01*
X46124238Y-27836345D01*
X46109086Y-27881801D01*
X46063629Y-27927258D01*
X46018172Y-27942411D01*
X45987867Y-27942411D01*
X45942411Y-27927258D01*
X45821192Y-27806040D01*
X46154543Y-28442436D02*
X45972715Y-28260609D01*
X46063629Y-28351522D02*
X46381827Y-28033324D01*
X46306066Y-28048477D01*
X46245456Y-28048477D01*
X46200000Y-28033324D01*
X46639416Y-28503045D02*
X46427284Y-28715177D01*
X46684873Y-28306066D02*
X46381827Y-28457588D01*
X46578807Y-28654568D01*
X43910714Y-26660714D02*
X43889285Y-26682142D01*
X43825000Y-26703571D01*
X43782142Y-26703571D01*
X43717857Y-26682142D01*
X43675000Y-26639285D01*
X43653571Y-26596428D01*
X43632142Y-26510714D01*
X43632142Y-26446428D01*
X43653571Y-26360714D01*
X43675000Y-26317857D01*
X43717857Y-26275000D01*
X43782142Y-26253571D01*
X43825000Y-26253571D01*
X43889285Y-26275000D01*
X43910714Y-26296428D01*
X44339285Y-26703571D02*
X44082142Y-26703571D01*
X44210714Y-26703571D02*
X44210714Y-26253571D01*
X44167857Y-26317857D01*
X44125000Y-26360714D01*
X44082142Y-26382142D01*
X44510714Y-26296428D02*
X44532142Y-26275000D01*
X44575000Y-26253571D01*
X44682142Y-26253571D01*
X44725000Y-26275000D01*
X44746428Y-26296428D01*
X44767857Y-26339285D01*
X44767857Y-26382142D01*
X44746428Y-26446428D01*
X44489285Y-26703571D01*
X44767857Y-26703571D01*
D11*
X51473333Y-31102857D02*
X51454285Y-31121904D01*
X51397142Y-31140952D01*
X51359047Y-31140952D01*
X51301904Y-31121904D01*
X51263809Y-31083809D01*
X51244761Y-31045714D01*
X51225714Y-30969523D01*
X51225714Y-30912380D01*
X51244761Y-30836190D01*
X51263809Y-30798095D01*
X51301904Y-30760000D01*
X51359047Y-30740952D01*
X51397142Y-30740952D01*
X51454285Y-30760000D01*
X51473333Y-30779047D01*
X51625714Y-30779047D02*
X51644761Y-30760000D01*
X51682857Y-30740952D01*
X51778095Y-30740952D01*
X51816190Y-30760000D01*
X51835238Y-30779047D01*
X51854285Y-30817142D01*
X51854285Y-30855238D01*
X51835238Y-30912380D01*
X51606666Y-31140952D01*
X51854285Y-31140952D01*
X48210952Y-33347142D02*
X48020476Y-33480476D01*
X48210952Y-33575714D02*
X47810952Y-33575714D01*
X47810952Y-33423333D01*
X47830000Y-33385238D01*
X47849047Y-33366190D01*
X47887142Y-33347142D01*
X47944285Y-33347142D01*
X47982380Y-33366190D01*
X48001428Y-33385238D01*
X48020476Y-33423333D01*
X48020476Y-33575714D01*
X48210952Y-32966190D02*
X48210952Y-33194761D01*
X48210952Y-33080476D02*
X47810952Y-33080476D01*
X47868095Y-33118571D01*
X47906190Y-33156666D01*
X47925238Y-33194761D01*
X47810952Y-32832857D02*
X47810952Y-32585238D01*
X47963333Y-32718571D01*
X47963333Y-32661428D01*
X47982380Y-32623333D01*
X48001428Y-32604285D01*
X48039523Y-32585238D01*
X48134761Y-32585238D01*
X48172857Y-32604285D01*
X48191904Y-32623333D01*
X48210952Y-32661428D01*
X48210952Y-32775714D01*
X48191904Y-32813809D01*
X48172857Y-32832857D01*
D14*
X55745000Y-25303571D02*
X55530714Y-25303571D01*
X55530714Y-24853571D01*
X56130714Y-25303571D02*
X55873571Y-25303571D01*
X56002142Y-25303571D02*
X56002142Y-24853571D01*
X55959285Y-24917857D01*
X55916428Y-24960714D01*
X55873571Y-24982142D01*
X52150714Y-30470714D02*
X52129285Y-30492142D01*
X52065000Y-30513571D01*
X52022142Y-30513571D01*
X51957857Y-30492142D01*
X51915000Y-30449285D01*
X51893571Y-30406428D01*
X51872142Y-30320714D01*
X51872142Y-30256428D01*
X51893571Y-30170714D01*
X51915000Y-30127857D01*
X51957857Y-30085000D01*
X52022142Y-30063571D01*
X52065000Y-30063571D01*
X52129285Y-30085000D01*
X52150714Y-30106428D01*
X52579285Y-30513571D02*
X52322142Y-30513571D01*
X52450714Y-30513571D02*
X52450714Y-30063571D01*
X52407857Y-30127857D01*
X52365000Y-30170714D01*
X52322142Y-30192142D01*
X53007857Y-30513571D02*
X52750714Y-30513571D01*
X52879285Y-30513571D02*
X52879285Y-30063571D01*
X52836428Y-30127857D01*
X52793571Y-30170714D01*
X52750714Y-30192142D01*
X52530714Y-29753571D02*
X52380714Y-29539285D01*
X52273571Y-29753571D02*
X52273571Y-29303571D01*
X52445000Y-29303571D01*
X52487857Y-29325000D01*
X52509285Y-29346428D01*
X52530714Y-29389285D01*
X52530714Y-29453571D01*
X52509285Y-29496428D01*
X52487857Y-29517857D01*
X52445000Y-29539285D01*
X52273571Y-29539285D01*
X52959285Y-29753571D02*
X52702142Y-29753571D01*
X52830714Y-29753571D02*
X52830714Y-29303571D01*
X52787857Y-29367857D01*
X52745000Y-29410714D01*
X52702142Y-29432142D01*
X53130714Y-29346428D02*
X53152142Y-29325000D01*
X53195000Y-29303571D01*
X53302142Y-29303571D01*
X53345000Y-29325000D01*
X53366428Y-29346428D01*
X53387857Y-29389285D01*
X53387857Y-29432142D01*
X53366428Y-29496428D01*
X53109285Y-29753571D01*
X53387857Y-29753571D01*
X38357142Y-24353571D02*
X38357142Y-24717857D01*
X38378571Y-24760714D01*
X38400000Y-24782142D01*
X38442857Y-24803571D01*
X38528571Y-24803571D01*
X38571428Y-24782142D01*
X38592857Y-24760714D01*
X38614285Y-24717857D01*
X38614285Y-24353571D01*
X38807142Y-24396428D02*
X38828571Y-24375000D01*
X38871428Y-24353571D01*
X38978571Y-24353571D01*
X39021428Y-24375000D01*
X39042857Y-24396428D01*
X39064285Y-24439285D01*
X39064285Y-24482142D01*
X39042857Y-24546428D01*
X38785714Y-24803571D01*
X39064285Y-24803571D01*
X54725000Y-33982142D02*
X54789285Y-34003571D01*
X54896428Y-34003571D01*
X54939285Y-33982142D01*
X54960714Y-33960714D01*
X54982142Y-33917857D01*
X54982142Y-33875000D01*
X54960714Y-33832142D01*
X54939285Y-33810714D01*
X54896428Y-33789285D01*
X54810714Y-33767857D01*
X54767857Y-33746428D01*
X54746428Y-33725000D01*
X54725000Y-33682142D01*
X54725000Y-33639285D01*
X54746428Y-33596428D01*
X54767857Y-33575000D01*
X54810714Y-33553571D01*
X54917857Y-33553571D01*
X54982142Y-33575000D01*
X55132142Y-33553571D02*
X55239285Y-34003571D01*
X55325000Y-33682142D01*
X55410714Y-34003571D01*
X55517857Y-33553571D01*
X55925000Y-34003571D02*
X55667857Y-34003571D01*
X55796428Y-34003571D02*
X55796428Y-33553571D01*
X55753571Y-33617857D01*
X55710714Y-33660714D01*
X55667857Y-33682142D01*
X33010714Y-31689285D02*
X33032142Y-31710714D01*
X33053571Y-31775000D01*
X33053571Y-31817857D01*
X33032142Y-31882142D01*
X32989285Y-31925000D01*
X32946428Y-31946428D01*
X32860714Y-31967857D01*
X32796428Y-31967857D01*
X32710714Y-31946428D01*
X32667857Y-31925000D01*
X32625000Y-31882142D01*
X32603571Y-31817857D01*
X32603571Y-31775000D01*
X32625000Y-31710714D01*
X32646428Y-31689285D01*
X33053571Y-31260714D02*
X33053571Y-31517857D01*
X33053571Y-31389285D02*
X32603571Y-31389285D01*
X32667857Y-31432142D01*
X32710714Y-31475000D01*
X32732142Y-31517857D01*
X32603571Y-30982142D02*
X32603571Y-30939285D01*
X32625000Y-30896428D01*
X32646428Y-30875000D01*
X32689285Y-30853571D01*
X32775000Y-30832142D01*
X32882142Y-30832142D01*
X32967857Y-30853571D01*
X33010714Y-30875000D01*
X33032142Y-30896428D01*
X33053571Y-30939285D01*
X33053571Y-30982142D01*
X33032142Y-31025000D01*
X33010714Y-31046428D01*
X32967857Y-31067857D01*
X32882142Y-31089285D01*
X32775000Y-31089285D01*
X32689285Y-31067857D01*
X32646428Y-31046428D01*
X32625000Y-31025000D01*
X32603571Y-30982142D01*
X43625000Y-25860714D02*
X43603571Y-25882142D01*
X43539285Y-25903571D01*
X43496428Y-25903571D01*
X43432142Y-25882142D01*
X43389285Y-25839285D01*
X43367857Y-25796428D01*
X43346428Y-25710714D01*
X43346428Y-25646428D01*
X43367857Y-25560714D01*
X43389285Y-25517857D01*
X43432142Y-25475000D01*
X43496428Y-25453571D01*
X43539285Y-25453571D01*
X43603571Y-25475000D01*
X43625000Y-25496428D01*
X43839285Y-25903571D02*
X43925000Y-25903571D01*
X43967857Y-25882142D01*
X43989285Y-25860714D01*
X44032142Y-25796428D01*
X44053571Y-25710714D01*
X44053571Y-25539285D01*
X44032142Y-25496428D01*
X44010714Y-25475000D01*
X43967857Y-25453571D01*
X43882142Y-25453571D01*
X43839285Y-25475000D01*
X43817857Y-25496428D01*
X43796428Y-25539285D01*
X43796428Y-25646428D01*
X43817857Y-25689285D01*
X43839285Y-25710714D01*
X43882142Y-25732142D01*
X43967857Y-25732142D01*
X44010714Y-25710714D01*
X44032142Y-25689285D01*
X44053571Y-25646428D01*
X35435000Y-30870714D02*
X35413571Y-30892142D01*
X35349285Y-30913571D01*
X35306428Y-30913571D01*
X35242142Y-30892142D01*
X35199285Y-30849285D01*
X35177857Y-30806428D01*
X35156428Y-30720714D01*
X35156428Y-30656428D01*
X35177857Y-30570714D01*
X35199285Y-30527857D01*
X35242142Y-30485000D01*
X35306428Y-30463571D01*
X35349285Y-30463571D01*
X35413571Y-30485000D01*
X35435000Y-30506428D01*
X35692142Y-30656428D02*
X35649285Y-30635000D01*
X35627857Y-30613571D01*
X35606428Y-30570714D01*
X35606428Y-30549285D01*
X35627857Y-30506428D01*
X35649285Y-30485000D01*
X35692142Y-30463571D01*
X35777857Y-30463571D01*
X35820714Y-30485000D01*
X35842142Y-30506428D01*
X35863571Y-30549285D01*
X35863571Y-30570714D01*
X35842142Y-30613571D01*
X35820714Y-30635000D01*
X35777857Y-30656428D01*
X35692142Y-30656428D01*
X35649285Y-30677857D01*
X35627857Y-30699285D01*
X35606428Y-30742142D01*
X35606428Y-30827857D01*
X35627857Y-30870714D01*
X35649285Y-30892142D01*
X35692142Y-30913571D01*
X35777857Y-30913571D01*
X35820714Y-30892142D01*
X35842142Y-30870714D01*
X35863571Y-30827857D01*
X35863571Y-30742142D01*
X35842142Y-30699285D01*
X35820714Y-30677857D01*
X35777857Y-30656428D01*
X36385000Y-29100714D02*
X36363571Y-29122142D01*
X36299285Y-29143571D01*
X36256428Y-29143571D01*
X36192142Y-29122142D01*
X36149285Y-29079285D01*
X36127857Y-29036428D01*
X36106428Y-28950714D01*
X36106428Y-28886428D01*
X36127857Y-28800714D01*
X36149285Y-28757857D01*
X36192142Y-28715000D01*
X36256428Y-28693571D01*
X36299285Y-28693571D01*
X36363571Y-28715000D01*
X36385000Y-28736428D01*
X36535000Y-28693571D02*
X36835000Y-28693571D01*
X36642142Y-29143571D01*
X48125000Y-31560714D02*
X48103571Y-31582142D01*
X48039285Y-31603571D01*
X47996428Y-31603571D01*
X47932142Y-31582142D01*
X47889285Y-31539285D01*
X47867857Y-31496428D01*
X47846428Y-31410714D01*
X47846428Y-31346428D01*
X47867857Y-31260714D01*
X47889285Y-31217857D01*
X47932142Y-31175000D01*
X47996428Y-31153571D01*
X48039285Y-31153571D01*
X48103571Y-31175000D01*
X48125000Y-31196428D01*
X48510714Y-31153571D02*
X48425000Y-31153571D01*
X48382142Y-31175000D01*
X48360714Y-31196428D01*
X48317857Y-31260714D01*
X48296428Y-31346428D01*
X48296428Y-31517857D01*
X48317857Y-31560714D01*
X48339285Y-31582142D01*
X48382142Y-31603571D01*
X48467857Y-31603571D01*
X48510714Y-31582142D01*
X48532142Y-31560714D01*
X48553571Y-31517857D01*
X48553571Y-31410714D01*
X48532142Y-31367857D01*
X48510714Y-31346428D01*
X48467857Y-31325000D01*
X48382142Y-31325000D01*
X48339285Y-31346428D01*
X48317857Y-31367857D01*
X48296428Y-31410714D01*
X48975000Y-32110714D02*
X48953571Y-32132142D01*
X48889285Y-32153571D01*
X48846428Y-32153571D01*
X48782142Y-32132142D01*
X48739285Y-32089285D01*
X48717857Y-32046428D01*
X48696428Y-31960714D01*
X48696428Y-31896428D01*
X48717857Y-31810714D01*
X48739285Y-31767857D01*
X48782142Y-31725000D01*
X48846428Y-31703571D01*
X48889285Y-31703571D01*
X48953571Y-31725000D01*
X48975000Y-31746428D01*
X49382142Y-31703571D02*
X49167857Y-31703571D01*
X49146428Y-31917857D01*
X49167857Y-31896428D01*
X49210714Y-31875000D01*
X49317857Y-31875000D01*
X49360714Y-31896428D01*
X49382142Y-31917857D01*
X49403571Y-31960714D01*
X49403571Y-32067857D01*
X49382142Y-32110714D01*
X49360714Y-32132142D01*
X49317857Y-32153571D01*
X49210714Y-32153571D01*
X49167857Y-32132142D01*
X49146428Y-32110714D01*
X54270714Y-25355000D02*
X54292142Y-25376428D01*
X54313571Y-25440714D01*
X54313571Y-25483571D01*
X54292142Y-25547857D01*
X54249285Y-25590714D01*
X54206428Y-25612142D01*
X54120714Y-25633571D01*
X54056428Y-25633571D01*
X53970714Y-25612142D01*
X53927857Y-25590714D01*
X53885000Y-25547857D01*
X53863571Y-25483571D01*
X53863571Y-25440714D01*
X53885000Y-25376428D01*
X53906428Y-25355000D01*
X53863571Y-25205000D02*
X53863571Y-24926428D01*
X54035000Y-25076428D01*
X54035000Y-25012142D01*
X54056428Y-24969285D01*
X54077857Y-24947857D01*
X54120714Y-24926428D01*
X54227857Y-24926428D01*
X54270714Y-24947857D01*
X54292142Y-24969285D01*
X54313571Y-25012142D01*
X54313571Y-25140714D01*
X54292142Y-25183571D01*
X54270714Y-25205000D01*
X36400714Y-24733571D02*
X36250714Y-24519285D01*
X36143571Y-24733571D02*
X36143571Y-24283571D01*
X36315000Y-24283571D01*
X36357857Y-24305000D01*
X36379285Y-24326428D01*
X36400714Y-24369285D01*
X36400714Y-24433571D01*
X36379285Y-24476428D01*
X36357857Y-24497857D01*
X36315000Y-24519285D01*
X36143571Y-24519285D01*
X36829285Y-24733571D02*
X36572142Y-24733571D01*
X36700714Y-24733571D02*
X36700714Y-24283571D01*
X36657857Y-24347857D01*
X36615000Y-24390714D01*
X36572142Y-24412142D01*
X37257857Y-24733571D02*
X37000714Y-24733571D01*
X37129285Y-24733571D02*
X37129285Y-24283571D01*
X37086428Y-24347857D01*
X37043571Y-24390714D01*
X37000714Y-24412142D01*
X34330714Y-25983571D02*
X34180714Y-25769285D01*
X34073571Y-25983571D02*
X34073571Y-25533571D01*
X34245000Y-25533571D01*
X34287857Y-25555000D01*
X34309285Y-25576428D01*
X34330714Y-25619285D01*
X34330714Y-25683571D01*
X34309285Y-25726428D01*
X34287857Y-25747857D01*
X34245000Y-25769285D01*
X34073571Y-25769285D01*
X34759285Y-25983571D02*
X34502142Y-25983571D01*
X34630714Y-25983571D02*
X34630714Y-25533571D01*
X34587857Y-25597857D01*
X34545000Y-25640714D01*
X34502142Y-25662142D01*
X35037857Y-25533571D02*
X35080714Y-25533571D01*
X35123571Y-25555000D01*
X35145000Y-25576428D01*
X35166428Y-25619285D01*
X35187857Y-25705000D01*
X35187857Y-25812142D01*
X35166428Y-25897857D01*
X35145000Y-25940714D01*
X35123571Y-25962142D01*
X35080714Y-25983571D01*
X35037857Y-25983571D01*
X34995000Y-25962142D01*
X34973571Y-25940714D01*
X34952142Y-25897857D01*
X34930714Y-25812142D01*
X34930714Y-25705000D01*
X34952142Y-25619285D01*
X34973571Y-25576428D01*
X34995000Y-25555000D01*
X35037857Y-25533571D01*
X31525000Y-32003571D02*
X31375000Y-31789285D01*
X31267857Y-32003571D02*
X31267857Y-31553571D01*
X31439285Y-31553571D01*
X31482142Y-31575000D01*
X31503571Y-31596428D01*
X31525000Y-31639285D01*
X31525000Y-31703571D01*
X31503571Y-31746428D01*
X31482142Y-31767857D01*
X31439285Y-31789285D01*
X31267857Y-31789285D01*
X31739285Y-32003571D02*
X31825000Y-32003571D01*
X31867857Y-31982142D01*
X31889285Y-31960714D01*
X31932142Y-31896428D01*
X31953571Y-31810714D01*
X31953571Y-31639285D01*
X31932142Y-31596428D01*
X31910714Y-31575000D01*
X31867857Y-31553571D01*
X31782142Y-31553571D01*
X31739285Y-31575000D01*
X31717857Y-31596428D01*
X31696428Y-31639285D01*
X31696428Y-31746428D01*
X31717857Y-31789285D01*
X31739285Y-31810714D01*
X31782142Y-31832142D01*
X31867857Y-31832142D01*
X31910714Y-31810714D01*
X31932142Y-31789285D01*
X31953571Y-31746428D01*
X31525000Y-25463571D02*
X31375000Y-25249285D01*
X31267857Y-25463571D02*
X31267857Y-25013571D01*
X31439285Y-25013571D01*
X31482142Y-25035000D01*
X31503571Y-25056428D01*
X31525000Y-25099285D01*
X31525000Y-25163571D01*
X31503571Y-25206428D01*
X31482142Y-25227857D01*
X31439285Y-25249285D01*
X31267857Y-25249285D01*
X31782142Y-25206428D02*
X31739285Y-25185000D01*
X31717857Y-25163571D01*
X31696428Y-25120714D01*
X31696428Y-25099285D01*
X31717857Y-25056428D01*
X31739285Y-25035000D01*
X31782142Y-25013571D01*
X31867857Y-25013571D01*
X31910714Y-25035000D01*
X31932142Y-25056428D01*
X31953571Y-25099285D01*
X31953571Y-25120714D01*
X31932142Y-25163571D01*
X31910714Y-25185000D01*
X31867857Y-25206428D01*
X31782142Y-25206428D01*
X31739285Y-25227857D01*
X31717857Y-25249285D01*
X31696428Y-25292142D01*
X31696428Y-25377857D01*
X31717857Y-25420714D01*
X31739285Y-25442142D01*
X31782142Y-25463571D01*
X31867857Y-25463571D01*
X31910714Y-25442142D01*
X31932142Y-25420714D01*
X31953571Y-25377857D01*
X31953571Y-25292142D01*
X31932142Y-25249285D01*
X31910714Y-25227857D01*
X31867857Y-25206428D01*
X48525000Y-28203571D02*
X48375000Y-27989285D01*
X48267857Y-28203571D02*
X48267857Y-27753571D01*
X48439285Y-27753571D01*
X48482142Y-27775000D01*
X48503571Y-27796428D01*
X48525000Y-27839285D01*
X48525000Y-27903571D01*
X48503571Y-27946428D01*
X48482142Y-27967857D01*
X48439285Y-27989285D01*
X48267857Y-27989285D01*
X48675000Y-27753571D02*
X48975000Y-27753571D01*
X48782142Y-28203571D01*
X48825000Y-29203571D02*
X48675000Y-28989285D01*
X48567857Y-29203571D02*
X48567857Y-28753571D01*
X48739285Y-28753571D01*
X48782142Y-28775000D01*
X48803571Y-28796428D01*
X48825000Y-28839285D01*
X48825000Y-28903571D01*
X48803571Y-28946428D01*
X48782142Y-28967857D01*
X48739285Y-28989285D01*
X48567857Y-28989285D01*
X49210714Y-28753571D02*
X49125000Y-28753571D01*
X49082142Y-28775000D01*
X49060714Y-28796428D01*
X49017857Y-28860714D01*
X48996428Y-28946428D01*
X48996428Y-29117857D01*
X49017857Y-29160714D01*
X49039285Y-29182142D01*
X49082142Y-29203571D01*
X49167857Y-29203571D01*
X49210714Y-29182142D01*
X49232142Y-29160714D01*
X49253571Y-29117857D01*
X49253571Y-29010714D01*
X49232142Y-28967857D01*
X49210714Y-28946428D01*
X49167857Y-28925000D01*
X49082142Y-28925000D01*
X49039285Y-28946428D01*
X49017857Y-28967857D01*
X48996428Y-29010714D01*
X47633571Y-33165000D02*
X47419285Y-33315000D01*
X47633571Y-33422142D02*
X47183571Y-33422142D01*
X47183571Y-33250714D01*
X47205000Y-33207857D01*
X47226428Y-33186428D01*
X47269285Y-33165000D01*
X47333571Y-33165000D01*
X47376428Y-33186428D01*
X47397857Y-33207857D01*
X47419285Y-33250714D01*
X47419285Y-33422142D01*
X47183571Y-32757857D02*
X47183571Y-32972142D01*
X47397857Y-32993571D01*
X47376428Y-32972142D01*
X47355000Y-32929285D01*
X47355000Y-32822142D01*
X47376428Y-32779285D01*
X47397857Y-32757857D01*
X47440714Y-32736428D01*
X47547857Y-32736428D01*
X47590714Y-32757857D01*
X47612142Y-32779285D01*
X47633571Y-32822142D01*
X47633571Y-32929285D01*
X47612142Y-32972142D01*
X47590714Y-32993571D01*
X27545000Y-32403571D02*
X27395000Y-32189285D01*
X27287857Y-32403571D02*
X27287857Y-31953571D01*
X27459285Y-31953571D01*
X27502142Y-31975000D01*
X27523571Y-31996428D01*
X27545000Y-32039285D01*
X27545000Y-32103571D01*
X27523571Y-32146428D01*
X27502142Y-32167857D01*
X27459285Y-32189285D01*
X27287857Y-32189285D01*
X27930714Y-32103571D02*
X27930714Y-32403571D01*
X27823571Y-31932142D02*
X27716428Y-32253571D01*
X27995000Y-32253571D01*
X27735000Y-25103571D02*
X27585000Y-24889285D01*
X27477857Y-25103571D02*
X27477857Y-24653571D01*
X27649285Y-24653571D01*
X27692142Y-24675000D01*
X27713571Y-24696428D01*
X27735000Y-24739285D01*
X27735000Y-24803571D01*
X27713571Y-24846428D01*
X27692142Y-24867857D01*
X27649285Y-24889285D01*
X27477857Y-24889285D01*
X27885000Y-24653571D02*
X28163571Y-24653571D01*
X28013571Y-24825000D01*
X28077857Y-24825000D01*
X28120714Y-24846428D01*
X28142142Y-24867857D01*
X28163571Y-24910714D01*
X28163571Y-25017857D01*
X28142142Y-25060714D01*
X28120714Y-25082142D01*
X28077857Y-25103571D01*
X27949285Y-25103571D01*
X27906428Y-25082142D01*
X27885000Y-25060714D01*
X27755000Y-26203571D02*
X27605000Y-25989285D01*
X27497857Y-26203571D02*
X27497857Y-25753571D01*
X27669285Y-25753571D01*
X27712142Y-25775000D01*
X27733571Y-25796428D01*
X27755000Y-25839285D01*
X27755000Y-25903571D01*
X27733571Y-25946428D01*
X27712142Y-25967857D01*
X27669285Y-25989285D01*
X27497857Y-25989285D01*
X27926428Y-25796428D02*
X27947857Y-25775000D01*
X27990714Y-25753571D01*
X28097857Y-25753571D01*
X28140714Y-25775000D01*
X28162142Y-25796428D01*
X28183571Y-25839285D01*
X28183571Y-25882142D01*
X28162142Y-25946428D01*
X27905000Y-26203571D01*
X28183571Y-26203571D01*
X27565000Y-31203571D02*
X27415000Y-30989285D01*
X27307857Y-31203571D02*
X27307857Y-30753571D01*
X27479285Y-30753571D01*
X27522142Y-30775000D01*
X27543571Y-30796428D01*
X27565000Y-30839285D01*
X27565000Y-30903571D01*
X27543571Y-30946428D01*
X27522142Y-30967857D01*
X27479285Y-30989285D01*
X27307857Y-30989285D01*
X27993571Y-31203571D02*
X27736428Y-31203571D01*
X27865000Y-31203571D02*
X27865000Y-30753571D01*
X27822142Y-30817857D01*
X27779285Y-30860714D01*
X27736428Y-30882142D01*
X34727142Y-26533571D02*
X34727142Y-26897857D01*
X34748571Y-26940714D01*
X34770000Y-26962142D01*
X34812857Y-26983571D01*
X34898571Y-26983571D01*
X34941428Y-26962142D01*
X34962857Y-26940714D01*
X34984285Y-26897857D01*
X34984285Y-26533571D01*
X35391428Y-26683571D02*
X35391428Y-26983571D01*
X35284285Y-26512142D02*
X35177142Y-26833571D01*
X35455714Y-26833571D01*
X54266428Y-26137142D02*
X53902142Y-26137142D01*
X53859285Y-26158571D01*
X53837857Y-26180000D01*
X53816428Y-26222857D01*
X53816428Y-26308571D01*
X53837857Y-26351428D01*
X53859285Y-26372857D01*
X53902142Y-26394285D01*
X54266428Y-26394285D01*
X54266428Y-26565714D02*
X54266428Y-26844285D01*
X54095000Y-26694285D01*
X54095000Y-26758571D01*
X54073571Y-26801428D01*
X54052142Y-26822857D01*
X54009285Y-26844285D01*
X53902142Y-26844285D01*
X53859285Y-26822857D01*
X53837857Y-26801428D01*
X53816428Y-26758571D01*
X53816428Y-26630000D01*
X53837857Y-26587142D01*
X53859285Y-26565714D01*
X30907142Y-26528571D02*
X30907142Y-26892857D01*
X30928571Y-26935714D01*
X30950000Y-26957142D01*
X30992857Y-26978571D01*
X31078571Y-26978571D01*
X31121428Y-26957142D01*
X31142857Y-26935714D01*
X31164285Y-26892857D01*
X31164285Y-26528571D01*
X31614285Y-26978571D02*
X31357142Y-26978571D01*
X31485714Y-26978571D02*
X31485714Y-26528571D01*
X31442857Y-26592857D01*
X31400000Y-26635714D01*
X31357142Y-26657142D01*
X53415000Y-30490714D02*
X53393571Y-30512142D01*
X53329285Y-30533571D01*
X53286428Y-30533571D01*
X53222142Y-30512142D01*
X53179285Y-30469285D01*
X53157857Y-30426428D01*
X53136428Y-30340714D01*
X53136428Y-30276428D01*
X53157857Y-30190714D01*
X53179285Y-30147857D01*
X53222142Y-30105000D01*
X53286428Y-30083571D01*
X53329285Y-30083571D01*
X53393571Y-30105000D01*
X53415000Y-30126428D01*
X53800714Y-30233571D02*
X53800714Y-30533571D01*
X53693571Y-30062142D02*
X53586428Y-30383571D01*
X53865000Y-30383571D01*
X52160714Y-25475000D02*
X52182142Y-25496428D01*
X52203571Y-25560714D01*
X52203571Y-25603571D01*
X52182142Y-25667857D01*
X52139285Y-25710714D01*
X52096428Y-25732142D01*
X52010714Y-25753571D01*
X51946428Y-25753571D01*
X51860714Y-25732142D01*
X51817857Y-25710714D01*
X51775000Y-25667857D01*
X51753571Y-25603571D01*
X51753571Y-25560714D01*
X51775000Y-25496428D01*
X51796428Y-25475000D01*
X52203571Y-25046428D02*
X52203571Y-25303571D01*
X52203571Y-25175000D02*
X51753571Y-25175000D01*
X51817857Y-25217857D01*
X51860714Y-25260714D01*
X51882142Y-25303571D01*
M02*
