G04 #@! TF.GenerationSoftware,KiCad,Pcbnew,5.1.5+dfsg1-2build2*
G04 #@! TF.CreationDate,2020-10-31T17:38:58+01:00*
G04 #@! TF.ProjectId,edgerails,65646765-7261-4696-9c73-2e6b69636164,rev?*
G04 #@! TF.SameCoordinates,Original*
G04 #@! TF.FileFunction,Legend,Top*
G04 #@! TF.FilePolarity,Positive*
%FSLAX46Y46*%
G04 Gerber Fmt 4.6, Leading zero omitted, Abs format (unit mm)*
G04 Created by KiCad (PCBNEW 5.1.5+dfsg1-2build2) date 2020-10-31 17:38:58*
%MOMM*%
%LPD*%
G04 APERTURE LIST*
%ADD10C,0.150000*%
%ADD11C,0.100000*%
G04 APERTURE END LIST*
D10*
X12321428Y-42107142D02*
X12321428Y-42392857D01*
X12250000Y-42535714D01*
X12107142Y-42678571D01*
X11821428Y-42750000D01*
X11321428Y-42750000D01*
X11035714Y-42678571D01*
X10892857Y-42535714D01*
X10821428Y-42392857D01*
X10821428Y-42107142D01*
X10892857Y-41964285D01*
X11035714Y-41821428D01*
X11321428Y-41750000D01*
X11821428Y-41750000D01*
X12107142Y-41821428D01*
X12250000Y-41964285D01*
X12321428Y-42107142D01*
X11821428Y-43178571D02*
X11821428Y-43750000D01*
X12321428Y-43392857D02*
X11035714Y-43392857D01*
X10892857Y-43464285D01*
X10821428Y-43607142D01*
X10821428Y-43750000D01*
X11821428Y-44035714D02*
X11821428Y-44607142D01*
X12321428Y-44250000D02*
X11035714Y-44250000D01*
X10892857Y-44321428D01*
X10821428Y-44464285D01*
X10821428Y-44607142D01*
X10892857Y-45678571D02*
X10821428Y-45535714D01*
X10821428Y-45250000D01*
X10892857Y-45107142D01*
X11035714Y-45035714D01*
X11607142Y-45035714D01*
X11750000Y-45107142D01*
X11821428Y-45250000D01*
X11821428Y-45535714D01*
X11750000Y-45678571D01*
X11607142Y-45750000D01*
X11464285Y-45750000D01*
X11321428Y-45035714D01*
X10821428Y-46392857D02*
X11821428Y-46392857D01*
X11535714Y-46392857D02*
X11678571Y-46464285D01*
X11750000Y-46535714D01*
X11821428Y-46678571D01*
X11821428Y-46821428D01*
X10821428Y-47321428D02*
X12321428Y-47321428D01*
X12321428Y-47892857D01*
X12250000Y-48035714D01*
X12178571Y-48107142D01*
X12035714Y-48178571D01*
X11821428Y-48178571D01*
X11678571Y-48107142D01*
X11607142Y-48035714D01*
X11535714Y-47892857D01*
X11535714Y-47321428D01*
X10821428Y-48821428D02*
X11821428Y-48821428D01*
X12321428Y-48821428D02*
X12250000Y-48750000D01*
X12178571Y-48821428D01*
X12250000Y-48892857D01*
X12321428Y-48821428D01*
X12178571Y-48821428D01*
X10821428Y-49750000D02*
X10892857Y-49607142D01*
X11035714Y-49535714D01*
X12321428Y-49535714D01*
X10821428Y-50535714D02*
X10892857Y-50392857D01*
X11035714Y-50321428D01*
X12321428Y-50321428D01*
X12321428Y-52035714D02*
X10821428Y-52535714D01*
X12321428Y-53035714D01*
X10821428Y-54321428D02*
X10821428Y-53464285D01*
X10821428Y-53892857D02*
X12321428Y-53892857D01*
X12107142Y-53750000D01*
X11964285Y-53607142D01*
X11892857Y-53464285D01*
X10964285Y-54964285D02*
X10892857Y-55035714D01*
X10821428Y-54964285D01*
X10892857Y-54892857D01*
X10964285Y-54964285D01*
X10821428Y-54964285D01*
X12321428Y-55535714D02*
X12321428Y-56464285D01*
X11750000Y-55964285D01*
X11749999Y-56178571D01*
X11678571Y-56321428D01*
X11607142Y-56392857D01*
X11464285Y-56464285D01*
X11107142Y-56464285D01*
X10964285Y-56392857D01*
X10892857Y-56321428D01*
X10821428Y-56178571D01*
X10821428Y-55750000D01*
X10892857Y-55607142D01*
X10964285Y-55535714D01*
X10821428Y-58107142D02*
X11821428Y-58892857D01*
X11821428Y-58107142D02*
X10821428Y-58892857D01*
X11821428Y-60107142D02*
X10821428Y-60107142D01*
X12392857Y-59750000D02*
X11321428Y-59392857D01*
X11321428Y-60321428D01*
D11*
X11938095Y-12304761D02*
X11366666Y-12304761D01*
X11252380Y-12266666D01*
X11176190Y-12190476D01*
X11138095Y-12076190D01*
X11138095Y-12000000D01*
X11138095Y-13066666D02*
X11138095Y-12685714D01*
X11938095Y-12685714D01*
X11214285Y-13790476D02*
X11176190Y-13752380D01*
X11138095Y-13638095D01*
X11138095Y-13561904D01*
X11176190Y-13447619D01*
X11252380Y-13371428D01*
X11328571Y-13333333D01*
X11480952Y-13295238D01*
X11595238Y-13295238D01*
X11747619Y-13333333D01*
X11823809Y-13371428D01*
X11900000Y-13447619D01*
X11938095Y-13561904D01*
X11938095Y-13638095D01*
X11900000Y-13752380D01*
X11861904Y-13790476D01*
X11938095Y-14361904D02*
X11366666Y-14361904D01*
X11252380Y-14323809D01*
X11176190Y-14247619D01*
X11138095Y-14133333D01*
X11138095Y-14057142D01*
X11138095Y-15123809D02*
X11138095Y-14742857D01*
X11938095Y-14742857D01*
X11214285Y-15847619D02*
X11176190Y-15809523D01*
X11138095Y-15695238D01*
X11138095Y-15619047D01*
X11176190Y-15504761D01*
X11252380Y-15428571D01*
X11328571Y-15390476D01*
X11480952Y-15352380D01*
X11595238Y-15352380D01*
X11747619Y-15390476D01*
X11823809Y-15428571D01*
X11900000Y-15504761D01*
X11938095Y-15619047D01*
X11938095Y-15695238D01*
X11900000Y-15809523D01*
X11861904Y-15847619D01*
X11938095Y-16419047D02*
X11366666Y-16419047D01*
X11252380Y-16380952D01*
X11176190Y-16304761D01*
X11138095Y-16190476D01*
X11138095Y-16114285D01*
X11138095Y-17180952D02*
X11138095Y-16800000D01*
X11938095Y-16800000D01*
X11214285Y-17904761D02*
X11176190Y-17866666D01*
X11138095Y-17752380D01*
X11138095Y-17676190D01*
X11176190Y-17561904D01*
X11252380Y-17485714D01*
X11328571Y-17447619D01*
X11480952Y-17409523D01*
X11595238Y-17409523D01*
X11747619Y-17447619D01*
X11823809Y-17485714D01*
X11900000Y-17561904D01*
X11938095Y-17676190D01*
X11938095Y-17752380D01*
X11900000Y-17866666D01*
X11861904Y-17904761D01*
X11938095Y-18476190D02*
X11366666Y-18476190D01*
X11252380Y-18438095D01*
X11176190Y-18361904D01*
X11138095Y-18247619D01*
X11138095Y-18171428D01*
X11138095Y-19238095D02*
X11138095Y-18857142D01*
X11938095Y-18857142D01*
X11214285Y-19961904D02*
X11176190Y-19923809D01*
X11138095Y-19809523D01*
X11138095Y-19733333D01*
X11176190Y-19619047D01*
X11252380Y-19542857D01*
X11328571Y-19504761D01*
X11480952Y-19466666D01*
X11595238Y-19466666D01*
X11747619Y-19504761D01*
X11823809Y-19542857D01*
X11900000Y-19619047D01*
X11938095Y-19733333D01*
X11938095Y-19809523D01*
X11900000Y-19923809D01*
X11861904Y-19961904D01*
M02*
