G04 #@! TF.GenerationSoftware,KiCad,Pcbnew,5.1.5+dfsg1-2build2*
G04 #@! TF.CreationDate,2020-09-15T00:57:58+02:00*
G04 #@! TF.ProjectId,OtterPillG,4f747465-7250-4696-9c6c-472e6b696361,rev?*
G04 #@! TF.SameCoordinates,Original*
G04 #@! TF.FileFunction,Soldermask,Bot*
G04 #@! TF.FilePolarity,Negative*
%FSLAX46Y46*%
G04 Gerber Fmt 4.6, Leading zero omitted, Abs format (unit mm)*
G04 Created by KiCad (PCBNEW 5.1.5+dfsg1-2build2) date 2020-09-15 00:57:58*
%MOMM*%
%LPD*%
G04 APERTURE LIST*
%ADD10C,0.050000*%
%ADD11C,0.100000*%
G04 APERTURE END LIST*
D10*
X63200000Y-37100000D02*
G75*
G02X62900000Y-37400000I-300000J0D01*
G01*
X62900000Y-19800000D02*
G75*
G02X63200000Y-20100000I0J-300000D01*
G01*
X20000000Y-20100000D02*
G75*
G02X20300000Y-19800000I300000J0D01*
G01*
X20300000Y-37400000D02*
G75*
G02X20000000Y-37100000I0J300000D01*
G01*
X20000000Y-37100000D02*
X20000000Y-20100000D01*
X62900000Y-37400000D02*
X20300000Y-37400000D01*
X63200000Y-20100000D02*
X63200000Y-37100000D01*
X20300000Y-19800000D02*
X62900000Y-19800000D01*
D11*
G36*
X63300000Y-37600000D02*
G01*
X61070000Y-37600000D01*
X61070000Y-19700000D01*
X63300000Y-19700000D01*
X63300000Y-37600000D01*
G37*
G36*
X34110853Y-35273049D02*
G01*
X34110856Y-35273050D01*
X34110855Y-35273050D01*
X34267360Y-35337876D01*
X34267363Y-35337878D01*
X34408218Y-35431995D01*
X34528005Y-35551782D01*
X34622122Y-35692637D01*
X34622124Y-35692640D01*
X34674977Y-35820239D01*
X34686951Y-35849147D01*
X34720000Y-36015297D01*
X34720000Y-36184703D01*
X34686951Y-36350853D01*
X34686950Y-36350855D01*
X34622124Y-36507360D01*
X34622122Y-36507363D01*
X34528005Y-36648218D01*
X34408218Y-36768005D01*
X34267363Y-36862122D01*
X34267360Y-36862124D01*
X34139761Y-36914977D01*
X34110853Y-36926951D01*
X33944703Y-36960000D01*
X33775297Y-36960000D01*
X33609147Y-36926951D01*
X33580239Y-36914977D01*
X33452640Y-36862124D01*
X33452637Y-36862122D01*
X33311782Y-36768005D01*
X33191995Y-36648218D01*
X33097878Y-36507363D01*
X33097876Y-36507360D01*
X33033050Y-36350855D01*
X33033049Y-36350853D01*
X33000000Y-36184703D01*
X33000000Y-36015297D01*
X33033049Y-35849147D01*
X33045023Y-35820239D01*
X33097876Y-35692640D01*
X33097878Y-35692637D01*
X33191995Y-35551782D01*
X33311782Y-35431995D01*
X33452637Y-35337878D01*
X33452640Y-35337876D01*
X33609145Y-35273050D01*
X33609144Y-35273050D01*
X33609147Y-35273049D01*
X33775297Y-35240000D01*
X33944703Y-35240000D01*
X34110853Y-35273049D01*
G37*
G36*
X24560000Y-36960000D02*
G01*
X22840000Y-36960000D01*
X22840000Y-35240000D01*
X24560000Y-35240000D01*
X24560000Y-36960000D01*
G37*
G36*
X26490853Y-35273049D02*
G01*
X26490856Y-35273050D01*
X26490855Y-35273050D01*
X26647360Y-35337876D01*
X26647363Y-35337878D01*
X26788218Y-35431995D01*
X26908005Y-35551782D01*
X27002122Y-35692637D01*
X27002124Y-35692640D01*
X27054977Y-35820239D01*
X27066951Y-35849147D01*
X27100000Y-36015297D01*
X27100000Y-36184703D01*
X27066951Y-36350853D01*
X27066950Y-36350855D01*
X27002124Y-36507360D01*
X27002122Y-36507363D01*
X26908005Y-36648218D01*
X26788218Y-36768005D01*
X26647363Y-36862122D01*
X26647360Y-36862124D01*
X26519761Y-36914977D01*
X26490853Y-36926951D01*
X26324703Y-36960000D01*
X26155297Y-36960000D01*
X25989147Y-36926951D01*
X25960239Y-36914977D01*
X25832640Y-36862124D01*
X25832637Y-36862122D01*
X25691782Y-36768005D01*
X25571995Y-36648218D01*
X25477878Y-36507363D01*
X25477876Y-36507360D01*
X25413050Y-36350855D01*
X25413049Y-36350853D01*
X25380000Y-36184703D01*
X25380000Y-36015297D01*
X25413049Y-35849147D01*
X25425023Y-35820239D01*
X25477876Y-35692640D01*
X25477878Y-35692637D01*
X25571995Y-35551782D01*
X25691782Y-35431995D01*
X25832637Y-35337878D01*
X25832640Y-35337876D01*
X25989145Y-35273050D01*
X25989144Y-35273050D01*
X25989147Y-35273049D01*
X26155297Y-35240000D01*
X26324703Y-35240000D01*
X26490853Y-35273049D01*
G37*
G36*
X29030853Y-35273049D02*
G01*
X29030856Y-35273050D01*
X29030855Y-35273050D01*
X29187360Y-35337876D01*
X29187363Y-35337878D01*
X29328218Y-35431995D01*
X29448005Y-35551782D01*
X29542122Y-35692637D01*
X29542124Y-35692640D01*
X29594977Y-35820239D01*
X29606951Y-35849147D01*
X29640000Y-36015297D01*
X29640000Y-36184703D01*
X29606951Y-36350853D01*
X29606950Y-36350855D01*
X29542124Y-36507360D01*
X29542122Y-36507363D01*
X29448005Y-36648218D01*
X29328218Y-36768005D01*
X29187363Y-36862122D01*
X29187360Y-36862124D01*
X29059761Y-36914977D01*
X29030853Y-36926951D01*
X28864703Y-36960000D01*
X28695297Y-36960000D01*
X28529147Y-36926951D01*
X28500239Y-36914977D01*
X28372640Y-36862124D01*
X28372637Y-36862122D01*
X28231782Y-36768005D01*
X28111995Y-36648218D01*
X28017878Y-36507363D01*
X28017876Y-36507360D01*
X27953050Y-36350855D01*
X27953049Y-36350853D01*
X27920000Y-36184703D01*
X27920000Y-36015297D01*
X27953049Y-35849147D01*
X27965023Y-35820239D01*
X28017876Y-35692640D01*
X28017878Y-35692637D01*
X28111995Y-35551782D01*
X28231782Y-35431995D01*
X28372637Y-35337878D01*
X28372640Y-35337876D01*
X28529145Y-35273050D01*
X28529144Y-35273050D01*
X28529147Y-35273049D01*
X28695297Y-35240000D01*
X28864703Y-35240000D01*
X29030853Y-35273049D01*
G37*
G36*
X31570853Y-35273049D02*
G01*
X31570856Y-35273050D01*
X31570855Y-35273050D01*
X31727360Y-35337876D01*
X31727363Y-35337878D01*
X31868218Y-35431995D01*
X31988005Y-35551782D01*
X32082122Y-35692637D01*
X32082124Y-35692640D01*
X32134977Y-35820239D01*
X32146951Y-35849147D01*
X32180000Y-36015297D01*
X32180000Y-36184703D01*
X32146951Y-36350853D01*
X32146950Y-36350855D01*
X32082124Y-36507360D01*
X32082122Y-36507363D01*
X31988005Y-36648218D01*
X31868218Y-36768005D01*
X31727363Y-36862122D01*
X31727360Y-36862124D01*
X31599761Y-36914977D01*
X31570853Y-36926951D01*
X31404703Y-36960000D01*
X31235297Y-36960000D01*
X31069147Y-36926951D01*
X31040239Y-36914977D01*
X30912640Y-36862124D01*
X30912637Y-36862122D01*
X30771782Y-36768005D01*
X30651995Y-36648218D01*
X30557878Y-36507363D01*
X30557876Y-36507360D01*
X30493050Y-36350855D01*
X30493049Y-36350853D01*
X30460000Y-36184703D01*
X30460000Y-36015297D01*
X30493049Y-35849147D01*
X30505023Y-35820239D01*
X30557876Y-35692640D01*
X30557878Y-35692637D01*
X30651995Y-35551782D01*
X30771782Y-35431995D01*
X30912637Y-35337878D01*
X30912640Y-35337876D01*
X31069145Y-35273050D01*
X31069144Y-35273050D01*
X31069147Y-35273049D01*
X31235297Y-35240000D01*
X31404703Y-35240000D01*
X31570853Y-35273049D01*
G37*
G36*
X36650853Y-35273049D02*
G01*
X36650856Y-35273050D01*
X36650855Y-35273050D01*
X36807360Y-35337876D01*
X36807363Y-35337878D01*
X36948218Y-35431995D01*
X37068005Y-35551782D01*
X37162122Y-35692637D01*
X37162124Y-35692640D01*
X37214977Y-35820239D01*
X37226951Y-35849147D01*
X37260000Y-36015297D01*
X37260000Y-36184703D01*
X37226951Y-36350853D01*
X37226950Y-36350855D01*
X37162124Y-36507360D01*
X37162122Y-36507363D01*
X37068005Y-36648218D01*
X36948218Y-36768005D01*
X36807363Y-36862122D01*
X36807360Y-36862124D01*
X36679761Y-36914977D01*
X36650853Y-36926951D01*
X36484703Y-36960000D01*
X36315297Y-36960000D01*
X36149147Y-36926951D01*
X36120239Y-36914977D01*
X35992640Y-36862124D01*
X35992637Y-36862122D01*
X35851782Y-36768005D01*
X35731995Y-36648218D01*
X35637878Y-36507363D01*
X35637876Y-36507360D01*
X35573050Y-36350855D01*
X35573049Y-36350853D01*
X35540000Y-36184703D01*
X35540000Y-36015297D01*
X35573049Y-35849147D01*
X35585023Y-35820239D01*
X35637876Y-35692640D01*
X35637878Y-35692637D01*
X35731995Y-35551782D01*
X35851782Y-35431995D01*
X35992637Y-35337878D01*
X35992640Y-35337876D01*
X36149145Y-35273050D01*
X36149144Y-35273050D01*
X36149147Y-35273049D01*
X36315297Y-35240000D01*
X36484703Y-35240000D01*
X36650853Y-35273049D01*
G37*
G36*
X39190853Y-35273049D02*
G01*
X39190856Y-35273050D01*
X39190855Y-35273050D01*
X39347360Y-35337876D01*
X39347363Y-35337878D01*
X39488218Y-35431995D01*
X39608005Y-35551782D01*
X39702122Y-35692637D01*
X39702124Y-35692640D01*
X39754977Y-35820239D01*
X39766951Y-35849147D01*
X39800000Y-36015297D01*
X39800000Y-36184703D01*
X39766951Y-36350853D01*
X39766950Y-36350855D01*
X39702124Y-36507360D01*
X39702122Y-36507363D01*
X39608005Y-36648218D01*
X39488218Y-36768005D01*
X39347363Y-36862122D01*
X39347360Y-36862124D01*
X39219761Y-36914977D01*
X39190853Y-36926951D01*
X39024703Y-36960000D01*
X38855297Y-36960000D01*
X38689147Y-36926951D01*
X38660239Y-36914977D01*
X38532640Y-36862124D01*
X38532637Y-36862122D01*
X38391782Y-36768005D01*
X38271995Y-36648218D01*
X38177878Y-36507363D01*
X38177876Y-36507360D01*
X38113050Y-36350855D01*
X38113049Y-36350853D01*
X38080000Y-36184703D01*
X38080000Y-36015297D01*
X38113049Y-35849147D01*
X38125023Y-35820239D01*
X38177876Y-35692640D01*
X38177878Y-35692637D01*
X38271995Y-35551782D01*
X38391782Y-35431995D01*
X38532637Y-35337878D01*
X38532640Y-35337876D01*
X38689145Y-35273050D01*
X38689144Y-35273050D01*
X38689147Y-35273049D01*
X38855297Y-35240000D01*
X39024703Y-35240000D01*
X39190853Y-35273049D01*
G37*
G36*
X41730853Y-35273049D02*
G01*
X41730856Y-35273050D01*
X41730855Y-35273050D01*
X41887360Y-35337876D01*
X41887363Y-35337878D01*
X42028218Y-35431995D01*
X42148005Y-35551782D01*
X42242122Y-35692637D01*
X42242124Y-35692640D01*
X42294977Y-35820239D01*
X42306951Y-35849147D01*
X42340000Y-36015297D01*
X42340000Y-36184703D01*
X42306951Y-36350853D01*
X42306950Y-36350855D01*
X42242124Y-36507360D01*
X42242122Y-36507363D01*
X42148005Y-36648218D01*
X42028218Y-36768005D01*
X41887363Y-36862122D01*
X41887360Y-36862124D01*
X41759761Y-36914977D01*
X41730853Y-36926951D01*
X41564703Y-36960000D01*
X41395297Y-36960000D01*
X41229147Y-36926951D01*
X41200239Y-36914977D01*
X41072640Y-36862124D01*
X41072637Y-36862122D01*
X40931782Y-36768005D01*
X40811995Y-36648218D01*
X40717878Y-36507363D01*
X40717876Y-36507360D01*
X40653050Y-36350855D01*
X40653049Y-36350853D01*
X40620000Y-36184703D01*
X40620000Y-36015297D01*
X40653049Y-35849147D01*
X40665023Y-35820239D01*
X40717876Y-35692640D01*
X40717878Y-35692637D01*
X40811995Y-35551782D01*
X40931782Y-35431995D01*
X41072637Y-35337878D01*
X41072640Y-35337876D01*
X41229145Y-35273050D01*
X41229144Y-35273050D01*
X41229147Y-35273049D01*
X41395297Y-35240000D01*
X41564703Y-35240000D01*
X41730853Y-35273049D01*
G37*
G36*
X44270853Y-35273049D02*
G01*
X44270856Y-35273050D01*
X44270855Y-35273050D01*
X44427360Y-35337876D01*
X44427363Y-35337878D01*
X44568218Y-35431995D01*
X44688005Y-35551782D01*
X44782122Y-35692637D01*
X44782124Y-35692640D01*
X44834977Y-35820239D01*
X44846951Y-35849147D01*
X44880000Y-36015297D01*
X44880000Y-36184703D01*
X44846951Y-36350853D01*
X44846950Y-36350855D01*
X44782124Y-36507360D01*
X44782122Y-36507363D01*
X44688005Y-36648218D01*
X44568218Y-36768005D01*
X44427363Y-36862122D01*
X44427360Y-36862124D01*
X44299761Y-36914977D01*
X44270853Y-36926951D01*
X44104703Y-36960000D01*
X43935297Y-36960000D01*
X43769147Y-36926951D01*
X43740239Y-36914977D01*
X43612640Y-36862124D01*
X43612637Y-36862122D01*
X43471782Y-36768005D01*
X43351995Y-36648218D01*
X43257878Y-36507363D01*
X43257876Y-36507360D01*
X43193050Y-36350855D01*
X43193049Y-36350853D01*
X43160000Y-36184703D01*
X43160000Y-36015297D01*
X43193049Y-35849147D01*
X43205023Y-35820239D01*
X43257876Y-35692640D01*
X43257878Y-35692637D01*
X43351995Y-35551782D01*
X43471782Y-35431995D01*
X43612637Y-35337878D01*
X43612640Y-35337876D01*
X43769145Y-35273050D01*
X43769144Y-35273050D01*
X43769147Y-35273049D01*
X43935297Y-35240000D01*
X44104703Y-35240000D01*
X44270853Y-35273049D01*
G37*
G36*
X46810853Y-35273049D02*
G01*
X46810856Y-35273050D01*
X46810855Y-35273050D01*
X46967360Y-35337876D01*
X46967363Y-35337878D01*
X47108218Y-35431995D01*
X47228005Y-35551782D01*
X47322122Y-35692637D01*
X47322124Y-35692640D01*
X47374977Y-35820239D01*
X47386951Y-35849147D01*
X47420000Y-36015297D01*
X47420000Y-36184703D01*
X47386951Y-36350853D01*
X47386950Y-36350855D01*
X47322124Y-36507360D01*
X47322122Y-36507363D01*
X47228005Y-36648218D01*
X47108218Y-36768005D01*
X46967363Y-36862122D01*
X46967360Y-36862124D01*
X46839761Y-36914977D01*
X46810853Y-36926951D01*
X46644703Y-36960000D01*
X46475297Y-36960000D01*
X46309147Y-36926951D01*
X46280239Y-36914977D01*
X46152640Y-36862124D01*
X46152637Y-36862122D01*
X46011782Y-36768005D01*
X45891995Y-36648218D01*
X45797878Y-36507363D01*
X45797876Y-36507360D01*
X45733050Y-36350855D01*
X45733049Y-36350853D01*
X45700000Y-36184703D01*
X45700000Y-36015297D01*
X45733049Y-35849147D01*
X45745023Y-35820239D01*
X45797876Y-35692640D01*
X45797878Y-35692637D01*
X45891995Y-35551782D01*
X46011782Y-35431995D01*
X46152637Y-35337878D01*
X46152640Y-35337876D01*
X46309145Y-35273050D01*
X46309144Y-35273050D01*
X46309147Y-35273049D01*
X46475297Y-35240000D01*
X46644703Y-35240000D01*
X46810853Y-35273049D01*
G37*
G36*
X49350853Y-35273049D02*
G01*
X49350856Y-35273050D01*
X49350855Y-35273050D01*
X49507360Y-35337876D01*
X49507363Y-35337878D01*
X49648218Y-35431995D01*
X49768005Y-35551782D01*
X49862122Y-35692637D01*
X49862124Y-35692640D01*
X49914977Y-35820239D01*
X49926951Y-35849147D01*
X49960000Y-36015297D01*
X49960000Y-36184703D01*
X49926951Y-36350853D01*
X49926950Y-36350855D01*
X49862124Y-36507360D01*
X49862122Y-36507363D01*
X49768005Y-36648218D01*
X49648218Y-36768005D01*
X49507363Y-36862122D01*
X49507360Y-36862124D01*
X49379761Y-36914977D01*
X49350853Y-36926951D01*
X49184703Y-36960000D01*
X49015297Y-36960000D01*
X48849147Y-36926951D01*
X48820239Y-36914977D01*
X48692640Y-36862124D01*
X48692637Y-36862122D01*
X48551782Y-36768005D01*
X48431995Y-36648218D01*
X48337878Y-36507363D01*
X48337876Y-36507360D01*
X48273050Y-36350855D01*
X48273049Y-36350853D01*
X48240000Y-36184703D01*
X48240000Y-36015297D01*
X48273049Y-35849147D01*
X48285023Y-35820239D01*
X48337876Y-35692640D01*
X48337878Y-35692637D01*
X48431995Y-35551782D01*
X48551782Y-35431995D01*
X48692637Y-35337878D01*
X48692640Y-35337876D01*
X48849145Y-35273050D01*
X48849144Y-35273050D01*
X48849147Y-35273049D01*
X49015297Y-35240000D01*
X49184703Y-35240000D01*
X49350853Y-35273049D01*
G37*
G36*
X51890853Y-35273049D02*
G01*
X51890856Y-35273050D01*
X51890855Y-35273050D01*
X52047360Y-35337876D01*
X52047363Y-35337878D01*
X52188218Y-35431995D01*
X52308005Y-35551782D01*
X52402122Y-35692637D01*
X52402124Y-35692640D01*
X52454977Y-35820239D01*
X52466951Y-35849147D01*
X52500000Y-36015297D01*
X52500000Y-36184703D01*
X52466951Y-36350853D01*
X52466950Y-36350855D01*
X52402124Y-36507360D01*
X52402122Y-36507363D01*
X52308005Y-36648218D01*
X52188218Y-36768005D01*
X52047363Y-36862122D01*
X52047360Y-36862124D01*
X51919761Y-36914977D01*
X51890853Y-36926951D01*
X51724703Y-36960000D01*
X51555297Y-36960000D01*
X51389147Y-36926951D01*
X51360239Y-36914977D01*
X51232640Y-36862124D01*
X51232637Y-36862122D01*
X51091782Y-36768005D01*
X50971995Y-36648218D01*
X50877878Y-36507363D01*
X50877876Y-36507360D01*
X50813050Y-36350855D01*
X50813049Y-36350853D01*
X50780000Y-36184703D01*
X50780000Y-36015297D01*
X50813049Y-35849147D01*
X50825023Y-35820239D01*
X50877876Y-35692640D01*
X50877878Y-35692637D01*
X50971995Y-35551782D01*
X51091782Y-35431995D01*
X51232637Y-35337878D01*
X51232640Y-35337876D01*
X51389145Y-35273050D01*
X51389144Y-35273050D01*
X51389147Y-35273049D01*
X51555297Y-35240000D01*
X51724703Y-35240000D01*
X51890853Y-35273049D01*
G37*
G36*
X54430853Y-35273049D02*
G01*
X54430856Y-35273050D01*
X54430855Y-35273050D01*
X54587360Y-35337876D01*
X54587363Y-35337878D01*
X54728218Y-35431995D01*
X54848005Y-35551782D01*
X54942122Y-35692637D01*
X54942124Y-35692640D01*
X54994977Y-35820239D01*
X55006951Y-35849147D01*
X55040000Y-36015297D01*
X55040000Y-36184703D01*
X55006951Y-36350853D01*
X55006950Y-36350855D01*
X54942124Y-36507360D01*
X54942122Y-36507363D01*
X54848005Y-36648218D01*
X54728218Y-36768005D01*
X54587363Y-36862122D01*
X54587360Y-36862124D01*
X54459761Y-36914977D01*
X54430853Y-36926951D01*
X54264703Y-36960000D01*
X54095297Y-36960000D01*
X53929147Y-36926951D01*
X53900239Y-36914977D01*
X53772640Y-36862124D01*
X53772637Y-36862122D01*
X53631782Y-36768005D01*
X53511995Y-36648218D01*
X53417878Y-36507363D01*
X53417876Y-36507360D01*
X53353050Y-36350855D01*
X53353049Y-36350853D01*
X53320000Y-36184703D01*
X53320000Y-36015297D01*
X53353049Y-35849147D01*
X53365023Y-35820239D01*
X53417876Y-35692640D01*
X53417878Y-35692637D01*
X53511995Y-35551782D01*
X53631782Y-35431995D01*
X53772637Y-35337878D01*
X53772640Y-35337876D01*
X53929145Y-35273050D01*
X53929144Y-35273050D01*
X53929147Y-35273049D01*
X54095297Y-35240000D01*
X54264703Y-35240000D01*
X54430853Y-35273049D01*
G37*
G36*
X56970853Y-35273049D02*
G01*
X56970856Y-35273050D01*
X56970855Y-35273050D01*
X57127360Y-35337876D01*
X57127363Y-35337878D01*
X57268218Y-35431995D01*
X57388005Y-35551782D01*
X57482122Y-35692637D01*
X57482124Y-35692640D01*
X57534977Y-35820239D01*
X57546951Y-35849147D01*
X57580000Y-36015297D01*
X57580000Y-36184703D01*
X57546951Y-36350853D01*
X57546950Y-36350855D01*
X57482124Y-36507360D01*
X57482122Y-36507363D01*
X57388005Y-36648218D01*
X57268218Y-36768005D01*
X57127363Y-36862122D01*
X57127360Y-36862124D01*
X56999761Y-36914977D01*
X56970853Y-36926951D01*
X56804703Y-36960000D01*
X56635297Y-36960000D01*
X56469147Y-36926951D01*
X56440239Y-36914977D01*
X56312640Y-36862124D01*
X56312637Y-36862122D01*
X56171782Y-36768005D01*
X56051995Y-36648218D01*
X55957878Y-36507363D01*
X55957876Y-36507360D01*
X55893050Y-36350855D01*
X55893049Y-36350853D01*
X55860000Y-36184703D01*
X55860000Y-36015297D01*
X55893049Y-35849147D01*
X55905023Y-35820239D01*
X55957876Y-35692640D01*
X55957878Y-35692637D01*
X56051995Y-35551782D01*
X56171782Y-35431995D01*
X56312637Y-35337878D01*
X56312640Y-35337876D01*
X56469145Y-35273050D01*
X56469144Y-35273050D01*
X56469147Y-35273049D01*
X56635297Y-35240000D01*
X56804703Y-35240000D01*
X56970853Y-35273049D01*
G37*
G36*
X59510853Y-35273049D02*
G01*
X59510856Y-35273050D01*
X59510855Y-35273050D01*
X59667360Y-35337876D01*
X59667363Y-35337878D01*
X59808218Y-35431995D01*
X59928005Y-35551782D01*
X60022122Y-35692637D01*
X60022124Y-35692640D01*
X60074977Y-35820239D01*
X60086951Y-35849147D01*
X60120000Y-36015297D01*
X60120000Y-36184703D01*
X60086951Y-36350853D01*
X60086950Y-36350855D01*
X60022124Y-36507360D01*
X60022122Y-36507363D01*
X59928005Y-36648218D01*
X59808218Y-36768005D01*
X59667363Y-36862122D01*
X59667360Y-36862124D01*
X59539761Y-36914977D01*
X59510853Y-36926951D01*
X59344703Y-36960000D01*
X59175297Y-36960000D01*
X59009147Y-36926951D01*
X58980239Y-36914977D01*
X58852640Y-36862124D01*
X58852637Y-36862122D01*
X58711782Y-36768005D01*
X58591995Y-36648218D01*
X58497878Y-36507363D01*
X58497876Y-36507360D01*
X58433050Y-36350855D01*
X58433049Y-36350853D01*
X58400000Y-36184703D01*
X58400000Y-36015297D01*
X58433049Y-35849147D01*
X58445023Y-35820239D01*
X58497876Y-35692640D01*
X58497878Y-35692637D01*
X58591995Y-35551782D01*
X58711782Y-35431995D01*
X58852637Y-35337878D01*
X58852640Y-35337876D01*
X59009145Y-35273050D01*
X59009144Y-35273050D01*
X59009147Y-35273049D01*
X59175297Y-35240000D01*
X59344703Y-35240000D01*
X59510853Y-35273049D01*
G37*
G36*
X22280000Y-36200000D02*
G01*
X20560000Y-36200000D01*
X20560000Y-34480000D01*
X22280000Y-34480000D01*
X22280000Y-36200000D01*
G37*
G36*
X21674976Y-32387380D02*
G01*
X21771112Y-32416542D01*
X21859710Y-32463899D01*
X21937368Y-32527631D01*
X22001100Y-32605289D01*
X22048457Y-32693887D01*
X22077619Y-32790023D01*
X22087466Y-32890000D01*
X22077619Y-32989977D01*
X22048457Y-33086113D01*
X22001100Y-33174711D01*
X22001098Y-33174714D01*
X22001097Y-33174715D01*
X21937368Y-33252369D01*
X21883045Y-33296951D01*
X21859710Y-33316101D01*
X21771112Y-33363458D01*
X21674976Y-33392620D01*
X21600047Y-33400000D01*
X20949951Y-33400000D01*
X20875022Y-33392620D01*
X20778886Y-33363458D01*
X20690288Y-33316101D01*
X20666954Y-33296951D01*
X20612630Y-33252369D01*
X20548901Y-33174715D01*
X20548900Y-33174714D01*
X20548898Y-33174711D01*
X20501541Y-33086113D01*
X20472379Y-32989977D01*
X20462532Y-32890000D01*
X20472379Y-32790023D01*
X20501541Y-32693887D01*
X20548898Y-32605289D01*
X20612630Y-32527631D01*
X20690288Y-32463899D01*
X20778886Y-32416542D01*
X20875022Y-32387380D01*
X20949951Y-32380000D01*
X21600047Y-32380000D01*
X21674976Y-32387380D01*
G37*
G36*
X26104976Y-32387380D02*
G01*
X26201112Y-32416542D01*
X26289710Y-32463899D01*
X26367368Y-32527631D01*
X26431100Y-32605289D01*
X26478457Y-32693887D01*
X26507619Y-32790023D01*
X26517466Y-32890000D01*
X26507619Y-32989977D01*
X26478457Y-33086113D01*
X26431100Y-33174711D01*
X26431098Y-33174714D01*
X26431097Y-33174715D01*
X26367368Y-33252369D01*
X26313045Y-33296951D01*
X26289710Y-33316101D01*
X26201112Y-33363458D01*
X26104976Y-33392620D01*
X26030047Y-33400000D01*
X24879951Y-33400000D01*
X24805022Y-33392620D01*
X24708886Y-33363458D01*
X24620288Y-33316101D01*
X24596954Y-33296951D01*
X24542630Y-33252369D01*
X24478901Y-33174715D01*
X24478900Y-33174714D01*
X24478898Y-33174711D01*
X24431541Y-33086113D01*
X24402379Y-32989977D01*
X24392532Y-32890000D01*
X24402379Y-32790023D01*
X24431541Y-32693887D01*
X24478898Y-32605289D01*
X24542630Y-32527631D01*
X24620288Y-32463899D01*
X24708886Y-32416542D01*
X24805022Y-32387380D01*
X24879951Y-32380000D01*
X26030047Y-32380000D01*
X26104976Y-32387380D01*
G37*
G36*
X59450853Y-31643049D02*
G01*
X59450856Y-31643050D01*
X59450855Y-31643050D01*
X59607360Y-31707876D01*
X59607363Y-31707878D01*
X59748218Y-31801995D01*
X59868005Y-31921782D01*
X59962122Y-32062637D01*
X59962124Y-32062640D01*
X60014977Y-32190239D01*
X60026951Y-32219147D01*
X60060000Y-32385297D01*
X60060000Y-32554703D01*
X60026951Y-32720853D01*
X60026950Y-32720855D01*
X59962124Y-32877360D01*
X59962122Y-32877363D01*
X59868005Y-33018218D01*
X59748218Y-33138005D01*
X59607363Y-33232122D01*
X59607360Y-33232124D01*
X59479761Y-33284977D01*
X59450853Y-33296951D01*
X59284703Y-33330000D01*
X59115297Y-33330000D01*
X58949147Y-33296951D01*
X58920239Y-33284977D01*
X58792640Y-33232124D01*
X58792637Y-33232122D01*
X58651782Y-33138005D01*
X58531995Y-33018218D01*
X58437878Y-32877363D01*
X58437876Y-32877360D01*
X58373050Y-32720855D01*
X58373049Y-32720853D01*
X58340000Y-32554703D01*
X58340000Y-32385297D01*
X58373049Y-32219147D01*
X58385023Y-32190239D01*
X58437876Y-32062640D01*
X58437878Y-32062637D01*
X58531995Y-31921782D01*
X58651782Y-31801995D01*
X58792637Y-31707878D01*
X58792640Y-31707876D01*
X58949145Y-31643050D01*
X58949144Y-31643050D01*
X58949147Y-31643049D01*
X59115297Y-31610000D01*
X59284703Y-31610000D01*
X59450853Y-31643049D01*
G37*
G36*
X25022717Y-31137874D02*
G01*
X25083678Y-31163125D01*
X25083681Y-31163127D01*
X25138549Y-31199788D01*
X25185211Y-31246450D01*
X25221872Y-31301318D01*
X25221874Y-31301321D01*
X25247125Y-31362282D01*
X25259999Y-31427005D01*
X25259999Y-31492995D01*
X25247125Y-31557718D01*
X25221874Y-31618679D01*
X25221872Y-31618682D01*
X25185211Y-31673550D01*
X25138549Y-31720212D01*
X25083681Y-31756873D01*
X25083678Y-31756875D01*
X25022717Y-31782126D01*
X24957994Y-31795000D01*
X24892004Y-31795000D01*
X24827281Y-31782126D01*
X24766320Y-31756875D01*
X24766317Y-31756873D01*
X24711449Y-31720212D01*
X24664787Y-31673550D01*
X24628126Y-31618682D01*
X24628124Y-31618679D01*
X24602873Y-31557718D01*
X24589999Y-31492995D01*
X24589999Y-31427005D01*
X24602873Y-31362282D01*
X24628124Y-31301321D01*
X24628126Y-31301318D01*
X24664787Y-31246450D01*
X24711449Y-31199788D01*
X24766317Y-31163127D01*
X24766320Y-31163125D01*
X24827281Y-31137874D01*
X24892004Y-31125000D01*
X24957994Y-31125000D01*
X25022717Y-31137874D01*
G37*
G36*
X59450853Y-29103049D02*
G01*
X59450856Y-29103050D01*
X59450855Y-29103050D01*
X59607360Y-29167876D01*
X59607363Y-29167878D01*
X59748218Y-29261995D01*
X59868005Y-29381782D01*
X59962122Y-29522637D01*
X59962124Y-29522640D01*
X60014977Y-29650239D01*
X60026951Y-29679147D01*
X60060000Y-29845297D01*
X60060000Y-30014703D01*
X60026951Y-30180853D01*
X60026950Y-30180855D01*
X59962124Y-30337360D01*
X59962122Y-30337363D01*
X59868005Y-30478218D01*
X59748218Y-30598005D01*
X59607363Y-30692122D01*
X59607360Y-30692124D01*
X59479761Y-30744977D01*
X59450853Y-30756951D01*
X59284703Y-30790000D01*
X59115297Y-30790000D01*
X58949147Y-30756951D01*
X58920239Y-30744977D01*
X58792640Y-30692124D01*
X58792637Y-30692122D01*
X58651782Y-30598005D01*
X58531995Y-30478218D01*
X58437878Y-30337363D01*
X58437876Y-30337360D01*
X58373050Y-30180855D01*
X58373049Y-30180853D01*
X58340000Y-30014703D01*
X58340000Y-29845297D01*
X58373049Y-29679147D01*
X58385023Y-29650239D01*
X58437876Y-29522640D01*
X58437878Y-29522637D01*
X58531995Y-29381782D01*
X58651782Y-29261995D01*
X58792637Y-29167878D01*
X58792640Y-29167876D01*
X58949145Y-29103050D01*
X58949144Y-29103050D01*
X58949147Y-29103049D01*
X59115297Y-29070000D01*
X59284703Y-29070000D01*
X59450853Y-29103049D01*
G37*
G36*
X59450853Y-26563049D02*
G01*
X59450856Y-26563050D01*
X59450855Y-26563050D01*
X59607360Y-26627876D01*
X59607363Y-26627878D01*
X59748218Y-26721995D01*
X59868005Y-26841782D01*
X59962122Y-26982637D01*
X59962124Y-26982640D01*
X60014977Y-27110239D01*
X60026951Y-27139147D01*
X60060000Y-27305297D01*
X60060000Y-27474703D01*
X60026951Y-27640853D01*
X60026950Y-27640855D01*
X59962124Y-27797360D01*
X59962122Y-27797363D01*
X59868005Y-27938218D01*
X59748218Y-28058005D01*
X59607363Y-28152122D01*
X59607360Y-28152124D01*
X59479761Y-28204977D01*
X59450853Y-28216951D01*
X59284703Y-28250000D01*
X59115297Y-28250000D01*
X58949147Y-28216951D01*
X58920239Y-28204977D01*
X58792640Y-28152124D01*
X58792637Y-28152122D01*
X58651782Y-28058005D01*
X58531995Y-27938218D01*
X58437878Y-27797363D01*
X58437876Y-27797360D01*
X58373050Y-27640855D01*
X58373049Y-27640853D01*
X58340000Y-27474703D01*
X58340000Y-27305297D01*
X58373049Y-27139147D01*
X58385023Y-27110239D01*
X58437876Y-26982640D01*
X58437878Y-26982637D01*
X58531995Y-26841782D01*
X58651782Y-26721995D01*
X58792637Y-26627878D01*
X58792640Y-26627876D01*
X58949145Y-26563050D01*
X58949144Y-26563050D01*
X58949147Y-26563049D01*
X59115297Y-26530000D01*
X59284703Y-26530000D01*
X59450853Y-26563049D01*
G37*
G36*
X25022717Y-25357874D02*
G01*
X25083678Y-25383125D01*
X25083681Y-25383127D01*
X25138549Y-25419788D01*
X25185211Y-25466450D01*
X25221872Y-25521318D01*
X25221874Y-25521321D01*
X25247125Y-25582282D01*
X25259999Y-25647005D01*
X25259999Y-25712995D01*
X25247125Y-25777718D01*
X25221874Y-25838679D01*
X25221872Y-25838682D01*
X25185211Y-25893550D01*
X25138549Y-25940212D01*
X25083681Y-25976873D01*
X25083678Y-25976875D01*
X25022717Y-26002126D01*
X24957994Y-26015000D01*
X24892004Y-26015000D01*
X24827281Y-26002126D01*
X24766320Y-25976875D01*
X24766317Y-25976873D01*
X24711449Y-25940212D01*
X24664787Y-25893550D01*
X24628126Y-25838682D01*
X24628124Y-25838679D01*
X24602873Y-25777718D01*
X24589999Y-25712995D01*
X24589999Y-25647005D01*
X24602873Y-25582282D01*
X24628124Y-25521321D01*
X24628126Y-25521318D01*
X24664787Y-25466450D01*
X24711449Y-25419788D01*
X24766317Y-25383127D01*
X24766320Y-25383125D01*
X24827281Y-25357874D01*
X24892004Y-25345000D01*
X24957994Y-25345000D01*
X25022717Y-25357874D01*
G37*
G36*
X60060000Y-25710000D02*
G01*
X58340000Y-25710000D01*
X58340000Y-23990000D01*
X60060000Y-23990000D01*
X60060000Y-25710000D01*
G37*
G36*
X21674976Y-23747380D02*
G01*
X21771112Y-23776542D01*
X21859710Y-23823899D01*
X21937368Y-23887631D01*
X22001100Y-23965289D01*
X22048457Y-24053887D01*
X22077619Y-24150023D01*
X22087466Y-24250000D01*
X22077619Y-24349977D01*
X22048457Y-24446113D01*
X22001100Y-24534711D01*
X21937368Y-24612369D01*
X21859710Y-24676101D01*
X21771112Y-24723458D01*
X21674976Y-24752620D01*
X21600047Y-24760000D01*
X20949951Y-24760000D01*
X20875022Y-24752620D01*
X20778886Y-24723458D01*
X20690288Y-24676101D01*
X20612630Y-24612369D01*
X20548898Y-24534711D01*
X20501541Y-24446113D01*
X20472379Y-24349977D01*
X20462532Y-24250000D01*
X20472379Y-24150023D01*
X20501541Y-24053887D01*
X20548898Y-23965289D01*
X20612630Y-23887631D01*
X20690288Y-23823899D01*
X20778886Y-23776542D01*
X20875022Y-23747380D01*
X20949951Y-23740000D01*
X21600047Y-23740000D01*
X21674976Y-23747380D01*
G37*
G36*
X26104976Y-23747380D02*
G01*
X26201112Y-23776542D01*
X26289710Y-23823899D01*
X26367368Y-23887631D01*
X26431100Y-23965289D01*
X26478457Y-24053887D01*
X26507619Y-24150023D01*
X26517466Y-24250000D01*
X26507619Y-24349977D01*
X26478457Y-24446113D01*
X26431100Y-24534711D01*
X26367368Y-24612369D01*
X26289710Y-24676101D01*
X26201112Y-24723458D01*
X26104976Y-24752620D01*
X26030047Y-24760000D01*
X24879951Y-24760000D01*
X24805022Y-24752620D01*
X24708886Y-24723458D01*
X24620288Y-24676101D01*
X24542630Y-24612369D01*
X24478898Y-24534711D01*
X24431541Y-24446113D01*
X24402379Y-24349977D01*
X24392532Y-24250000D01*
X24402379Y-24150023D01*
X24431541Y-24053887D01*
X24478898Y-23965289D01*
X24542630Y-23887631D01*
X24620288Y-23823899D01*
X24708886Y-23776542D01*
X24805022Y-23747380D01*
X24879951Y-23740000D01*
X26030047Y-23740000D01*
X26104976Y-23747380D01*
G37*
G36*
X22280000Y-22640000D02*
G01*
X20560000Y-22640000D01*
X20560000Y-20920000D01*
X22280000Y-20920000D01*
X22280000Y-22640000D01*
G37*
G36*
X29030853Y-20273049D02*
G01*
X29030856Y-20273050D01*
X29030855Y-20273050D01*
X29187360Y-20337876D01*
X29187363Y-20337878D01*
X29328218Y-20431995D01*
X29448005Y-20551782D01*
X29542122Y-20692637D01*
X29542124Y-20692640D01*
X29594977Y-20820239D01*
X29606951Y-20849147D01*
X29640000Y-21015297D01*
X29640000Y-21184703D01*
X29606951Y-21350853D01*
X29606950Y-21350855D01*
X29542124Y-21507360D01*
X29542122Y-21507363D01*
X29448005Y-21648218D01*
X29328218Y-21768005D01*
X29187363Y-21862122D01*
X29187360Y-21862124D01*
X29059761Y-21914977D01*
X29030853Y-21926951D01*
X28864703Y-21960000D01*
X28695297Y-21960000D01*
X28529147Y-21926951D01*
X28500239Y-21914977D01*
X28372640Y-21862124D01*
X28372637Y-21862122D01*
X28231782Y-21768005D01*
X28111995Y-21648218D01*
X28017878Y-21507363D01*
X28017876Y-21507360D01*
X27953050Y-21350855D01*
X27953049Y-21350853D01*
X27920000Y-21184703D01*
X27920000Y-21015297D01*
X27953049Y-20849147D01*
X27965023Y-20820239D01*
X28017876Y-20692640D01*
X28017878Y-20692637D01*
X28111995Y-20551782D01*
X28231782Y-20431995D01*
X28372637Y-20337878D01*
X28372640Y-20337876D01*
X28529145Y-20273050D01*
X28529144Y-20273050D01*
X28529147Y-20273049D01*
X28695297Y-20240000D01*
X28864703Y-20240000D01*
X29030853Y-20273049D01*
G37*
G36*
X36650853Y-20273049D02*
G01*
X36650856Y-20273050D01*
X36650855Y-20273050D01*
X36807360Y-20337876D01*
X36807363Y-20337878D01*
X36948218Y-20431995D01*
X37068005Y-20551782D01*
X37162122Y-20692637D01*
X37162124Y-20692640D01*
X37214977Y-20820239D01*
X37226951Y-20849147D01*
X37260000Y-21015297D01*
X37260000Y-21184703D01*
X37226951Y-21350853D01*
X37226950Y-21350855D01*
X37162124Y-21507360D01*
X37162122Y-21507363D01*
X37068005Y-21648218D01*
X36948218Y-21768005D01*
X36807363Y-21862122D01*
X36807360Y-21862124D01*
X36679761Y-21914977D01*
X36650853Y-21926951D01*
X36484703Y-21960000D01*
X36315297Y-21960000D01*
X36149147Y-21926951D01*
X36120239Y-21914977D01*
X35992640Y-21862124D01*
X35992637Y-21862122D01*
X35851782Y-21768005D01*
X35731995Y-21648218D01*
X35637878Y-21507363D01*
X35637876Y-21507360D01*
X35573050Y-21350855D01*
X35573049Y-21350853D01*
X35540000Y-21184703D01*
X35540000Y-21015297D01*
X35573049Y-20849147D01*
X35585023Y-20820239D01*
X35637876Y-20692640D01*
X35637878Y-20692637D01*
X35731995Y-20551782D01*
X35851782Y-20431995D01*
X35992637Y-20337878D01*
X35992640Y-20337876D01*
X36149145Y-20273050D01*
X36149144Y-20273050D01*
X36149147Y-20273049D01*
X36315297Y-20240000D01*
X36484703Y-20240000D01*
X36650853Y-20273049D01*
G37*
G36*
X39190853Y-20273049D02*
G01*
X39190856Y-20273050D01*
X39190855Y-20273050D01*
X39347360Y-20337876D01*
X39347363Y-20337878D01*
X39488218Y-20431995D01*
X39608005Y-20551782D01*
X39702122Y-20692637D01*
X39702124Y-20692640D01*
X39754977Y-20820239D01*
X39766951Y-20849147D01*
X39800000Y-21015297D01*
X39800000Y-21184703D01*
X39766951Y-21350853D01*
X39766950Y-21350855D01*
X39702124Y-21507360D01*
X39702122Y-21507363D01*
X39608005Y-21648218D01*
X39488218Y-21768005D01*
X39347363Y-21862122D01*
X39347360Y-21862124D01*
X39219761Y-21914977D01*
X39190853Y-21926951D01*
X39024703Y-21960000D01*
X38855297Y-21960000D01*
X38689147Y-21926951D01*
X38660239Y-21914977D01*
X38532640Y-21862124D01*
X38532637Y-21862122D01*
X38391782Y-21768005D01*
X38271995Y-21648218D01*
X38177878Y-21507363D01*
X38177876Y-21507360D01*
X38113050Y-21350855D01*
X38113049Y-21350853D01*
X38080000Y-21184703D01*
X38080000Y-21015297D01*
X38113049Y-20849147D01*
X38125023Y-20820239D01*
X38177876Y-20692640D01*
X38177878Y-20692637D01*
X38271995Y-20551782D01*
X38391782Y-20431995D01*
X38532637Y-20337878D01*
X38532640Y-20337876D01*
X38689145Y-20273050D01*
X38689144Y-20273050D01*
X38689147Y-20273049D01*
X38855297Y-20240000D01*
X39024703Y-20240000D01*
X39190853Y-20273049D01*
G37*
G36*
X34110853Y-20273049D02*
G01*
X34110856Y-20273050D01*
X34110855Y-20273050D01*
X34267360Y-20337876D01*
X34267363Y-20337878D01*
X34408218Y-20431995D01*
X34528005Y-20551782D01*
X34622122Y-20692637D01*
X34622124Y-20692640D01*
X34674977Y-20820239D01*
X34686951Y-20849147D01*
X34720000Y-21015297D01*
X34720000Y-21184703D01*
X34686951Y-21350853D01*
X34686950Y-21350855D01*
X34622124Y-21507360D01*
X34622122Y-21507363D01*
X34528005Y-21648218D01*
X34408218Y-21768005D01*
X34267363Y-21862122D01*
X34267360Y-21862124D01*
X34139761Y-21914977D01*
X34110853Y-21926951D01*
X33944703Y-21960000D01*
X33775297Y-21960000D01*
X33609147Y-21926951D01*
X33580239Y-21914977D01*
X33452640Y-21862124D01*
X33452637Y-21862122D01*
X33311782Y-21768005D01*
X33191995Y-21648218D01*
X33097878Y-21507363D01*
X33097876Y-21507360D01*
X33033050Y-21350855D01*
X33033049Y-21350853D01*
X33000000Y-21184703D01*
X33000000Y-21015297D01*
X33033049Y-20849147D01*
X33045023Y-20820239D01*
X33097876Y-20692640D01*
X33097878Y-20692637D01*
X33191995Y-20551782D01*
X33311782Y-20431995D01*
X33452637Y-20337878D01*
X33452640Y-20337876D01*
X33609145Y-20273050D01*
X33609144Y-20273050D01*
X33609147Y-20273049D01*
X33775297Y-20240000D01*
X33944703Y-20240000D01*
X34110853Y-20273049D01*
G37*
G36*
X31570853Y-20273049D02*
G01*
X31570856Y-20273050D01*
X31570855Y-20273050D01*
X31727360Y-20337876D01*
X31727363Y-20337878D01*
X31868218Y-20431995D01*
X31988005Y-20551782D01*
X32082122Y-20692637D01*
X32082124Y-20692640D01*
X32134977Y-20820239D01*
X32146951Y-20849147D01*
X32180000Y-21015297D01*
X32180000Y-21184703D01*
X32146951Y-21350853D01*
X32146950Y-21350855D01*
X32082124Y-21507360D01*
X32082122Y-21507363D01*
X31988005Y-21648218D01*
X31868218Y-21768005D01*
X31727363Y-21862122D01*
X31727360Y-21862124D01*
X31599761Y-21914977D01*
X31570853Y-21926951D01*
X31404703Y-21960000D01*
X31235297Y-21960000D01*
X31069147Y-21926951D01*
X31040239Y-21914977D01*
X30912640Y-21862124D01*
X30912637Y-21862122D01*
X30771782Y-21768005D01*
X30651995Y-21648218D01*
X30557878Y-21507363D01*
X30557876Y-21507360D01*
X30493050Y-21350855D01*
X30493049Y-21350853D01*
X30460000Y-21184703D01*
X30460000Y-21015297D01*
X30493049Y-20849147D01*
X30505023Y-20820239D01*
X30557876Y-20692640D01*
X30557878Y-20692637D01*
X30651995Y-20551782D01*
X30771782Y-20431995D01*
X30912637Y-20337878D01*
X30912640Y-20337876D01*
X31069145Y-20273050D01*
X31069144Y-20273050D01*
X31069147Y-20273049D01*
X31235297Y-20240000D01*
X31404703Y-20240000D01*
X31570853Y-20273049D01*
G37*
G36*
X26490853Y-20273049D02*
G01*
X26490856Y-20273050D01*
X26490855Y-20273050D01*
X26647360Y-20337876D01*
X26647363Y-20337878D01*
X26788218Y-20431995D01*
X26908005Y-20551782D01*
X27002122Y-20692637D01*
X27002124Y-20692640D01*
X27054977Y-20820239D01*
X27066951Y-20849147D01*
X27100000Y-21015297D01*
X27100000Y-21184703D01*
X27066951Y-21350853D01*
X27066950Y-21350855D01*
X27002124Y-21507360D01*
X27002122Y-21507363D01*
X26908005Y-21648218D01*
X26788218Y-21768005D01*
X26647363Y-21862122D01*
X26647360Y-21862124D01*
X26519761Y-21914977D01*
X26490853Y-21926951D01*
X26324703Y-21960000D01*
X26155297Y-21960000D01*
X25989147Y-21926951D01*
X25960239Y-21914977D01*
X25832640Y-21862124D01*
X25832637Y-21862122D01*
X25691782Y-21768005D01*
X25571995Y-21648218D01*
X25477878Y-21507363D01*
X25477876Y-21507360D01*
X25413050Y-21350855D01*
X25413049Y-21350853D01*
X25380000Y-21184703D01*
X25380000Y-21015297D01*
X25413049Y-20849147D01*
X25425023Y-20820239D01*
X25477876Y-20692640D01*
X25477878Y-20692637D01*
X25571995Y-20551782D01*
X25691782Y-20431995D01*
X25832637Y-20337878D01*
X25832640Y-20337876D01*
X25989145Y-20273050D01*
X25989144Y-20273050D01*
X25989147Y-20273049D01*
X26155297Y-20240000D01*
X26324703Y-20240000D01*
X26490853Y-20273049D01*
G37*
G36*
X41730853Y-20273049D02*
G01*
X41730856Y-20273050D01*
X41730855Y-20273050D01*
X41887360Y-20337876D01*
X41887363Y-20337878D01*
X42028218Y-20431995D01*
X42148005Y-20551782D01*
X42242122Y-20692637D01*
X42242124Y-20692640D01*
X42294977Y-20820239D01*
X42306951Y-20849147D01*
X42340000Y-21015297D01*
X42340000Y-21184703D01*
X42306951Y-21350853D01*
X42306950Y-21350855D01*
X42242124Y-21507360D01*
X42242122Y-21507363D01*
X42148005Y-21648218D01*
X42028218Y-21768005D01*
X41887363Y-21862122D01*
X41887360Y-21862124D01*
X41759761Y-21914977D01*
X41730853Y-21926951D01*
X41564703Y-21960000D01*
X41395297Y-21960000D01*
X41229147Y-21926951D01*
X41200239Y-21914977D01*
X41072640Y-21862124D01*
X41072637Y-21862122D01*
X40931782Y-21768005D01*
X40811995Y-21648218D01*
X40717878Y-21507363D01*
X40717876Y-21507360D01*
X40653050Y-21350855D01*
X40653049Y-21350853D01*
X40620000Y-21184703D01*
X40620000Y-21015297D01*
X40653049Y-20849147D01*
X40665023Y-20820239D01*
X40717876Y-20692640D01*
X40717878Y-20692637D01*
X40811995Y-20551782D01*
X40931782Y-20431995D01*
X41072637Y-20337878D01*
X41072640Y-20337876D01*
X41229145Y-20273050D01*
X41229144Y-20273050D01*
X41229147Y-20273049D01*
X41395297Y-20240000D01*
X41564703Y-20240000D01*
X41730853Y-20273049D01*
G37*
G36*
X44270853Y-20273049D02*
G01*
X44270856Y-20273050D01*
X44270855Y-20273050D01*
X44427360Y-20337876D01*
X44427363Y-20337878D01*
X44568218Y-20431995D01*
X44688005Y-20551782D01*
X44782122Y-20692637D01*
X44782124Y-20692640D01*
X44834977Y-20820239D01*
X44846951Y-20849147D01*
X44880000Y-21015297D01*
X44880000Y-21184703D01*
X44846951Y-21350853D01*
X44846950Y-21350855D01*
X44782124Y-21507360D01*
X44782122Y-21507363D01*
X44688005Y-21648218D01*
X44568218Y-21768005D01*
X44427363Y-21862122D01*
X44427360Y-21862124D01*
X44299761Y-21914977D01*
X44270853Y-21926951D01*
X44104703Y-21960000D01*
X43935297Y-21960000D01*
X43769147Y-21926951D01*
X43740239Y-21914977D01*
X43612640Y-21862124D01*
X43612637Y-21862122D01*
X43471782Y-21768005D01*
X43351995Y-21648218D01*
X43257878Y-21507363D01*
X43257876Y-21507360D01*
X43193050Y-21350855D01*
X43193049Y-21350853D01*
X43160000Y-21184703D01*
X43160000Y-21015297D01*
X43193049Y-20849147D01*
X43205023Y-20820239D01*
X43257876Y-20692640D01*
X43257878Y-20692637D01*
X43351995Y-20551782D01*
X43471782Y-20431995D01*
X43612637Y-20337878D01*
X43612640Y-20337876D01*
X43769145Y-20273050D01*
X43769144Y-20273050D01*
X43769147Y-20273049D01*
X43935297Y-20240000D01*
X44104703Y-20240000D01*
X44270853Y-20273049D01*
G37*
G36*
X46810853Y-20273049D02*
G01*
X46810856Y-20273050D01*
X46810855Y-20273050D01*
X46967360Y-20337876D01*
X46967363Y-20337878D01*
X47108218Y-20431995D01*
X47228005Y-20551782D01*
X47322122Y-20692637D01*
X47322124Y-20692640D01*
X47374977Y-20820239D01*
X47386951Y-20849147D01*
X47420000Y-21015297D01*
X47420000Y-21184703D01*
X47386951Y-21350853D01*
X47386950Y-21350855D01*
X47322124Y-21507360D01*
X47322122Y-21507363D01*
X47228005Y-21648218D01*
X47108218Y-21768005D01*
X46967363Y-21862122D01*
X46967360Y-21862124D01*
X46839761Y-21914977D01*
X46810853Y-21926951D01*
X46644703Y-21960000D01*
X46475297Y-21960000D01*
X46309147Y-21926951D01*
X46280239Y-21914977D01*
X46152640Y-21862124D01*
X46152637Y-21862122D01*
X46011782Y-21768005D01*
X45891995Y-21648218D01*
X45797878Y-21507363D01*
X45797876Y-21507360D01*
X45733050Y-21350855D01*
X45733049Y-21350853D01*
X45700000Y-21184703D01*
X45700000Y-21015297D01*
X45733049Y-20849147D01*
X45745023Y-20820239D01*
X45797876Y-20692640D01*
X45797878Y-20692637D01*
X45891995Y-20551782D01*
X46011782Y-20431995D01*
X46152637Y-20337878D01*
X46152640Y-20337876D01*
X46309145Y-20273050D01*
X46309144Y-20273050D01*
X46309147Y-20273049D01*
X46475297Y-20240000D01*
X46644703Y-20240000D01*
X46810853Y-20273049D01*
G37*
G36*
X49350853Y-20273049D02*
G01*
X49350856Y-20273050D01*
X49350855Y-20273050D01*
X49507360Y-20337876D01*
X49507363Y-20337878D01*
X49648218Y-20431995D01*
X49768005Y-20551782D01*
X49862122Y-20692637D01*
X49862124Y-20692640D01*
X49914977Y-20820239D01*
X49926951Y-20849147D01*
X49960000Y-21015297D01*
X49960000Y-21184703D01*
X49926951Y-21350853D01*
X49926950Y-21350855D01*
X49862124Y-21507360D01*
X49862122Y-21507363D01*
X49768005Y-21648218D01*
X49648218Y-21768005D01*
X49507363Y-21862122D01*
X49507360Y-21862124D01*
X49379761Y-21914977D01*
X49350853Y-21926951D01*
X49184703Y-21960000D01*
X49015297Y-21960000D01*
X48849147Y-21926951D01*
X48820239Y-21914977D01*
X48692640Y-21862124D01*
X48692637Y-21862122D01*
X48551782Y-21768005D01*
X48431995Y-21648218D01*
X48337878Y-21507363D01*
X48337876Y-21507360D01*
X48273050Y-21350855D01*
X48273049Y-21350853D01*
X48240000Y-21184703D01*
X48240000Y-21015297D01*
X48273049Y-20849147D01*
X48285023Y-20820239D01*
X48337876Y-20692640D01*
X48337878Y-20692637D01*
X48431995Y-20551782D01*
X48551782Y-20431995D01*
X48692637Y-20337878D01*
X48692640Y-20337876D01*
X48849145Y-20273050D01*
X48849144Y-20273050D01*
X48849147Y-20273049D01*
X49015297Y-20240000D01*
X49184703Y-20240000D01*
X49350853Y-20273049D01*
G37*
G36*
X51890853Y-20273049D02*
G01*
X51890856Y-20273050D01*
X51890855Y-20273050D01*
X52047360Y-20337876D01*
X52047363Y-20337878D01*
X52188218Y-20431995D01*
X52308005Y-20551782D01*
X52402122Y-20692637D01*
X52402124Y-20692640D01*
X52454977Y-20820239D01*
X52466951Y-20849147D01*
X52500000Y-21015297D01*
X52500000Y-21184703D01*
X52466951Y-21350853D01*
X52466950Y-21350855D01*
X52402124Y-21507360D01*
X52402122Y-21507363D01*
X52308005Y-21648218D01*
X52188218Y-21768005D01*
X52047363Y-21862122D01*
X52047360Y-21862124D01*
X51919761Y-21914977D01*
X51890853Y-21926951D01*
X51724703Y-21960000D01*
X51555297Y-21960000D01*
X51389147Y-21926951D01*
X51360239Y-21914977D01*
X51232640Y-21862124D01*
X51232637Y-21862122D01*
X51091782Y-21768005D01*
X50971995Y-21648218D01*
X50877878Y-21507363D01*
X50877876Y-21507360D01*
X50813050Y-21350855D01*
X50813049Y-21350853D01*
X50780000Y-21184703D01*
X50780000Y-21015297D01*
X50813049Y-20849147D01*
X50825023Y-20820239D01*
X50877876Y-20692640D01*
X50877878Y-20692637D01*
X50971995Y-20551782D01*
X51091782Y-20431995D01*
X51232637Y-20337878D01*
X51232640Y-20337876D01*
X51389145Y-20273050D01*
X51389144Y-20273050D01*
X51389147Y-20273049D01*
X51555297Y-20240000D01*
X51724703Y-20240000D01*
X51890853Y-20273049D01*
G37*
G36*
X54430853Y-20273049D02*
G01*
X54430856Y-20273050D01*
X54430855Y-20273050D01*
X54587360Y-20337876D01*
X54587363Y-20337878D01*
X54728218Y-20431995D01*
X54848005Y-20551782D01*
X54942122Y-20692637D01*
X54942124Y-20692640D01*
X54994977Y-20820239D01*
X55006951Y-20849147D01*
X55040000Y-21015297D01*
X55040000Y-21184703D01*
X55006951Y-21350853D01*
X55006950Y-21350855D01*
X54942124Y-21507360D01*
X54942122Y-21507363D01*
X54848005Y-21648218D01*
X54728218Y-21768005D01*
X54587363Y-21862122D01*
X54587360Y-21862124D01*
X54459761Y-21914977D01*
X54430853Y-21926951D01*
X54264703Y-21960000D01*
X54095297Y-21960000D01*
X53929147Y-21926951D01*
X53900239Y-21914977D01*
X53772640Y-21862124D01*
X53772637Y-21862122D01*
X53631782Y-21768005D01*
X53511995Y-21648218D01*
X53417878Y-21507363D01*
X53417876Y-21507360D01*
X53353050Y-21350855D01*
X53353049Y-21350853D01*
X53320000Y-21184703D01*
X53320000Y-21015297D01*
X53353049Y-20849147D01*
X53365023Y-20820239D01*
X53417876Y-20692640D01*
X53417878Y-20692637D01*
X53511995Y-20551782D01*
X53631782Y-20431995D01*
X53772637Y-20337878D01*
X53772640Y-20337876D01*
X53929145Y-20273050D01*
X53929144Y-20273050D01*
X53929147Y-20273049D01*
X54095297Y-20240000D01*
X54264703Y-20240000D01*
X54430853Y-20273049D01*
G37*
G36*
X56970853Y-20273049D02*
G01*
X56970856Y-20273050D01*
X56970855Y-20273050D01*
X57127360Y-20337876D01*
X57127363Y-20337878D01*
X57268218Y-20431995D01*
X57388005Y-20551782D01*
X57482122Y-20692637D01*
X57482124Y-20692640D01*
X57534977Y-20820239D01*
X57546951Y-20849147D01*
X57580000Y-21015297D01*
X57580000Y-21184703D01*
X57546951Y-21350853D01*
X57546950Y-21350855D01*
X57482124Y-21507360D01*
X57482122Y-21507363D01*
X57388005Y-21648218D01*
X57268218Y-21768005D01*
X57127363Y-21862122D01*
X57127360Y-21862124D01*
X56999761Y-21914977D01*
X56970853Y-21926951D01*
X56804703Y-21960000D01*
X56635297Y-21960000D01*
X56469147Y-21926951D01*
X56440239Y-21914977D01*
X56312640Y-21862124D01*
X56312637Y-21862122D01*
X56171782Y-21768005D01*
X56051995Y-21648218D01*
X55957878Y-21507363D01*
X55957876Y-21507360D01*
X55893050Y-21350855D01*
X55893049Y-21350853D01*
X55860000Y-21184703D01*
X55860000Y-21015297D01*
X55893049Y-20849147D01*
X55905023Y-20820239D01*
X55957876Y-20692640D01*
X55957878Y-20692637D01*
X56051995Y-20551782D01*
X56171782Y-20431995D01*
X56312637Y-20337878D01*
X56312640Y-20337876D01*
X56469145Y-20273050D01*
X56469144Y-20273050D01*
X56469147Y-20273049D01*
X56635297Y-20240000D01*
X56804703Y-20240000D01*
X56970853Y-20273049D01*
G37*
G36*
X59510853Y-20273049D02*
G01*
X59510856Y-20273050D01*
X59510855Y-20273050D01*
X59667360Y-20337876D01*
X59667363Y-20337878D01*
X59808218Y-20431995D01*
X59928005Y-20551782D01*
X60022122Y-20692637D01*
X60022124Y-20692640D01*
X60074977Y-20820239D01*
X60086951Y-20849147D01*
X60120000Y-21015297D01*
X60120000Y-21184703D01*
X60086951Y-21350853D01*
X60086950Y-21350855D01*
X60022124Y-21507360D01*
X60022122Y-21507363D01*
X59928005Y-21648218D01*
X59808218Y-21768005D01*
X59667363Y-21862122D01*
X59667360Y-21862124D01*
X59539761Y-21914977D01*
X59510853Y-21926951D01*
X59344703Y-21960000D01*
X59175297Y-21960000D01*
X59009147Y-21926951D01*
X58980239Y-21914977D01*
X58852640Y-21862124D01*
X58852637Y-21862122D01*
X58711782Y-21768005D01*
X58591995Y-21648218D01*
X58497878Y-21507363D01*
X58497876Y-21507360D01*
X58433050Y-21350855D01*
X58433049Y-21350853D01*
X58400000Y-21184703D01*
X58400000Y-21015297D01*
X58433049Y-20849147D01*
X58445023Y-20820239D01*
X58497876Y-20692640D01*
X58497878Y-20692637D01*
X58591995Y-20551782D01*
X58711782Y-20431995D01*
X58852637Y-20337878D01*
X58852640Y-20337876D01*
X59009145Y-20273050D01*
X59009144Y-20273050D01*
X59009147Y-20273049D01*
X59175297Y-20240000D01*
X59344703Y-20240000D01*
X59510853Y-20273049D01*
G37*
G36*
X24560000Y-21960000D02*
G01*
X22840000Y-21960000D01*
X22840000Y-20240000D01*
X24560000Y-20240000D01*
X24560000Y-21960000D01*
G37*
M02*
