G04 #@! TF.GenerationSoftware,KiCad,Pcbnew,5.1.5+dfsg1-2build2*
G04 #@! TF.CreationDate,2020-09-14T17:30:23+02:00*
G04 #@! TF.ProjectId,OtterPillG,4f747465-7250-4696-9c6c-472e6b696361,rev?*
G04 #@! TF.SameCoordinates,Original*
G04 #@! TF.FileFunction,Copper,L2,Bot*
G04 #@! TF.FilePolarity,Positive*
%FSLAX46Y46*%
G04 Gerber Fmt 4.6, Leading zero omitted, Abs format (unit mm)*
G04 Created by KiCad (PCBNEW 5.1.5+dfsg1-2build2) date 2020-09-14 17:30:23*
%MOMM*%
%LPD*%
G04 APERTURE LIST*
%ADD10C,0.050000*%
%ADD11O,1.700000X1.700000*%
%ADD12R,1.700000X1.700000*%
%ADD13O,2.100000X1.000000*%
%ADD14O,1.600000X1.000000*%
%ADD15C,0.600000*%
%ADD16C,0.157000*%
%ADD17C,0.400000*%
%ADD18C,0.200000*%
%ADD19C,0.600000*%
%ADD20C,0.800000*%
%ADD21C,0.100000*%
G04 APERTURE END LIST*
D10*
X63200000Y-37100000D02*
G75*
G02X62900000Y-37400000I-300000J0D01*
G01*
X62900000Y-19800000D02*
G75*
G02X63200000Y-20100000I0J-300000D01*
G01*
X20000000Y-20100000D02*
G75*
G02X20300000Y-19800000I300000J0D01*
G01*
X20300000Y-37400000D02*
G75*
G02X20000000Y-37100000I0J300000D01*
G01*
X20000000Y-37100000D02*
X20000000Y-20100000D01*
X62900000Y-37400000D02*
X20300000Y-37400000D01*
X63200000Y-20100000D02*
X63200000Y-37100000D01*
X20300000Y-19800000D02*
X62900000Y-19800000D01*
D11*
X59200000Y-32470000D03*
X59200000Y-29930000D03*
X59200000Y-27390000D03*
D12*
X59200000Y-24850000D03*
X21420000Y-21780000D03*
X21420000Y-35340000D03*
D11*
X59260000Y-21100000D03*
X56720000Y-21100000D03*
X54180000Y-21100000D03*
X51640000Y-21100000D03*
X49100000Y-21100000D03*
X46560000Y-21100000D03*
X44020000Y-21100000D03*
X41480000Y-21100000D03*
X38940000Y-21100000D03*
X36400000Y-21100000D03*
X33860000Y-21100000D03*
X31320000Y-21100000D03*
X28780000Y-21100000D03*
X26240000Y-21100000D03*
D12*
X23700000Y-21100000D03*
D11*
X59260000Y-36100000D03*
X56720000Y-36100000D03*
X54180000Y-36100000D03*
X51640000Y-36100000D03*
X49100000Y-36100000D03*
X46560000Y-36100000D03*
X44020000Y-36100000D03*
X41480000Y-36100000D03*
X38940000Y-36100000D03*
X36400000Y-36100000D03*
X33860000Y-36100000D03*
X31320000Y-36100000D03*
X28780000Y-36100000D03*
X26240000Y-36100000D03*
D12*
X23700000Y-36100000D03*
D13*
X25454999Y-24250000D03*
X25454999Y-32890000D03*
D14*
X21274999Y-24250000D03*
X21274999Y-32890000D03*
D15*
X32600000Y-34800000D03*
X58500000Y-23200000D03*
X30300000Y-31000000D03*
X49882999Y-24887575D03*
X61680000Y-20540000D03*
X62680000Y-20540000D03*
X61680000Y-21540000D03*
X62680000Y-21540000D03*
X61680000Y-22540000D03*
X62680000Y-22540000D03*
X61680000Y-23540000D03*
X62680000Y-23540000D03*
X61680000Y-24540000D03*
X62680000Y-24540000D03*
X61680000Y-25540000D03*
X62680000Y-25540000D03*
X61680000Y-26540000D03*
X62680000Y-26540000D03*
X61680000Y-27540000D03*
X62680000Y-27540000D03*
X61680000Y-28540000D03*
X62680000Y-28540000D03*
X61680000Y-29540000D03*
X62680000Y-29540000D03*
X61680000Y-30540000D03*
X62680000Y-30540000D03*
X61680000Y-31540000D03*
X62680000Y-31540000D03*
X61680000Y-32540000D03*
X62680000Y-32540000D03*
X61680000Y-33540000D03*
X62680000Y-33540000D03*
X61680000Y-34540000D03*
X62680000Y-34540000D03*
X61680000Y-35540000D03*
X62680000Y-35540000D03*
X61680000Y-36540000D03*
X62680000Y-36540000D03*
X31800000Y-28500000D03*
X30500000Y-26000000D03*
X32000000Y-25400000D03*
X32000000Y-27000000D03*
X34100000Y-25500000D03*
X31600000Y-31400000D03*
X32800000Y-29700000D03*
X30800000Y-33200000D03*
X37000000Y-26400000D03*
X38100000Y-25400000D03*
X40200000Y-25400000D03*
X42400000Y-28000000D03*
X38400000Y-29200000D03*
X37600000Y-27800000D03*
X41000000Y-29300000D03*
X45100000Y-27800000D03*
X46100000Y-30600000D03*
X49000000Y-31400000D03*
X45600000Y-32400000D03*
X47300000Y-27200000D03*
X45500000Y-23500000D03*
X49000000Y-25200000D03*
X49800000Y-25800000D03*
X46600000Y-25200000D03*
X51400000Y-23900000D03*
X50100000Y-23890000D03*
X51200000Y-29500000D03*
X52200000Y-30600000D03*
X54300000Y-29000000D03*
X55100000Y-29000000D03*
X55900000Y-29000000D03*
X56700000Y-29000000D03*
X53400000Y-29600000D03*
X50870000Y-25530000D03*
X53300000Y-23000000D03*
X28592990Y-28500000D03*
X51500030Y-31437000D03*
X27900000Y-26342990D03*
X39300000Y-30600000D03*
X27800000Y-30600000D03*
X38000000Y-34500000D03*
X48014332Y-33611991D03*
X38600000Y-34000000D03*
X50700000Y-33350479D03*
X35900010Y-28200000D03*
X33600000Y-28700000D03*
X35121337Y-28021337D03*
X32999998Y-28100000D03*
X29600000Y-28900000D03*
X33999479Y-33100521D03*
X29577893Y-28084211D03*
X34600521Y-32499479D03*
X24500000Y-28800000D03*
X24500000Y-27900000D03*
X25150000Y-27200000D03*
X25150000Y-30357010D03*
X24770000Y-29600000D03*
X24300000Y-30450000D03*
X24460000Y-26810000D03*
X46300000Y-23600000D03*
X46300000Y-24300000D03*
X53700006Y-34763530D03*
X27828661Y-32628665D03*
X30200000Y-32600000D03*
X39539784Y-32668374D03*
X46300000Y-33000000D03*
X39500000Y-33900000D03*
X51628658Y-33228668D03*
X38700000Y-23200000D03*
X40200000Y-21900000D03*
X44834371Y-31955737D03*
X43905121Y-33464490D03*
X43200000Y-33000000D03*
X44596698Y-31237003D03*
X39900722Y-29857747D03*
X42500000Y-33300000D03*
X36800000Y-34200000D03*
X39878064Y-31214977D03*
X34396773Y-31737508D03*
X37199998Y-28799998D03*
X31900702Y-23099298D03*
D16*
X50870000Y-25430000D02*
X53300000Y-23000000D01*
X50870000Y-25530000D02*
X50870000Y-25430000D01*
X28592990Y-28500000D02*
X27900000Y-27807010D01*
X27900000Y-27807010D02*
X27900000Y-26342990D01*
D17*
X28240000Y-34100000D02*
X26240000Y-36100000D01*
D16*
X28592990Y-28500000D02*
X28592990Y-29792990D01*
D17*
X30700000Y-34100000D02*
X28240000Y-34100000D01*
X39000001Y-30899999D02*
X39300000Y-30600000D01*
X30700000Y-34100000D02*
X35800000Y-34100000D01*
X35800000Y-34100000D02*
X39000001Y-30899999D01*
D16*
X28592990Y-28500000D02*
X28592990Y-29807010D01*
X28592990Y-29807010D02*
X27800000Y-30600000D01*
D17*
X51937000Y-31437000D02*
X51500030Y-31437000D01*
X53000000Y-32500000D02*
X51937000Y-31437000D01*
X53000000Y-35220000D02*
X53000000Y-32500000D01*
X52120000Y-36100000D02*
X53000000Y-35220000D01*
X51640000Y-36100000D02*
X52120000Y-36100000D01*
D16*
X47711991Y-33611991D02*
X48014332Y-33611991D01*
X47700000Y-33600000D02*
X47711991Y-33611991D01*
X46357967Y-34942033D02*
X47700000Y-33600000D01*
X38442033Y-34942033D02*
X46357967Y-34942033D01*
X38000000Y-34500000D02*
X38442033Y-34942033D01*
X46216057Y-34628021D02*
X47793598Y-33050480D01*
X38600000Y-34000000D02*
X39228022Y-34628022D01*
X47793598Y-33050480D02*
X50400001Y-33050480D01*
X39228022Y-34628022D02*
X46216057Y-34628021D01*
X50400001Y-33050480D02*
X50700000Y-33350479D01*
X35900010Y-28200000D02*
X35400010Y-28700000D01*
X35400010Y-28700000D02*
X33600000Y-28700000D01*
X35121337Y-28021337D02*
X33078661Y-28021337D01*
X33078661Y-28021337D02*
X32999998Y-28100000D01*
D18*
X33999479Y-32817678D02*
X33999479Y-33100521D01*
X29600000Y-28900000D02*
X29771841Y-28728159D01*
X29771841Y-28728159D02*
X29909960Y-28728159D01*
X29909960Y-28728159D02*
X33999479Y-32817678D01*
X29577893Y-28084211D02*
X29771841Y-28278159D01*
X34317678Y-32499479D02*
X34600521Y-32499479D01*
X29771841Y-28278159D02*
X30096359Y-28278160D01*
X30096359Y-28278160D02*
X34317678Y-32499479D01*
D19*
X59260000Y-35527602D02*
X59260000Y-36100000D01*
D20*
X21420000Y-21780000D02*
X23650000Y-24010000D01*
X23650000Y-26000000D02*
X24460000Y-26810000D01*
X23650000Y-24010000D02*
X23650000Y-26000000D01*
D19*
X46300000Y-23600000D02*
X46300000Y-24300000D01*
X46057002Y-24542998D02*
X46300000Y-24300000D01*
X27219363Y-24542998D02*
X46057002Y-24542998D01*
X25707000Y-26055361D02*
X27219363Y-24542998D01*
D17*
X46300000Y-23600000D02*
X53700006Y-31000006D01*
X53700006Y-31000006D02*
X53700006Y-34763530D01*
D16*
X27528662Y-32928664D02*
X27828661Y-32628665D01*
X24357326Y-36100000D02*
X27528662Y-32928664D01*
X23700000Y-36100000D02*
X24357326Y-36100000D01*
X30171335Y-32628665D02*
X30200000Y-32600000D01*
X27828661Y-32628665D02*
X30171335Y-32628665D01*
X39539784Y-32668374D02*
X40871410Y-34000000D01*
X40871410Y-34000000D02*
X45300000Y-34000000D01*
X45950000Y-33350000D02*
X46300000Y-33000000D01*
X45300000Y-34000000D02*
X45950000Y-33350000D01*
X45950000Y-33350000D02*
X46000000Y-33300000D01*
X47700000Y-32700000D02*
X51099990Y-32700000D01*
X39914011Y-34314011D02*
X46085989Y-34314011D01*
X46085989Y-34314011D02*
X47700000Y-32700000D01*
X39500000Y-33900000D02*
X39914011Y-34314011D01*
X51328659Y-32928669D02*
X51628658Y-33228668D01*
X51099990Y-32700000D02*
X51328659Y-32928669D01*
X38700000Y-23200000D02*
X39200000Y-22700000D01*
X44960000Y-22700000D02*
X46560000Y-21100000D01*
X39200000Y-22700000D02*
X44960000Y-22700000D01*
X40599999Y-22299999D02*
X40499999Y-22199999D01*
X42820001Y-22299999D02*
X40599999Y-22299999D01*
X40499999Y-22199999D02*
X40200000Y-21900000D01*
X44020000Y-21100000D02*
X42820001Y-22299999D01*
X44834371Y-31955737D02*
X44834371Y-32535240D01*
X44834371Y-32535240D02*
X43905121Y-33464490D01*
X43200000Y-32209437D02*
X44172434Y-31237003D01*
X43200000Y-33000000D02*
X43200000Y-32209437D01*
X44172434Y-31237003D02*
X44596698Y-31237003D01*
X42500000Y-32457025D02*
X42500000Y-33300000D01*
X39900722Y-29857747D02*
X42500000Y-32457025D01*
X36800000Y-34200000D02*
X39785023Y-31214977D01*
X39785023Y-31214977D02*
X39878064Y-31214977D01*
X34396773Y-31737508D02*
X37199998Y-28934283D01*
X37199998Y-28934283D02*
X37199998Y-28799998D01*
X31320000Y-21100000D02*
X31320000Y-22518596D01*
X31320000Y-22518596D02*
X31600703Y-22799299D01*
X31600703Y-22799299D02*
X31900702Y-23099298D01*
D21*
G36*
X24413444Y-25524821D02*
G01*
X24392999Y-25627603D01*
X24392999Y-25732397D01*
X24413444Y-25835179D01*
X24453547Y-25931996D01*
X24511768Y-26019130D01*
X24585869Y-26093231D01*
X24673003Y-26151452D01*
X24769820Y-26191555D01*
X24872602Y-26212000D01*
X24977396Y-26212000D01*
X25080178Y-26191555D01*
X25176995Y-26151452D01*
X25264129Y-26093231D01*
X25338230Y-26019130D01*
X25396451Y-25931996D01*
X25436554Y-25835179D01*
X25456999Y-25732397D01*
X25456999Y-25627603D01*
X25436554Y-25524821D01*
X25405562Y-25450000D01*
X28050000Y-25450000D01*
X28050000Y-25856350D01*
X28047886Y-25855474D01*
X27949935Y-25835990D01*
X27850065Y-25835990D01*
X27752114Y-25855474D01*
X27659846Y-25893693D01*
X27576806Y-25949178D01*
X27506188Y-26019796D01*
X27450703Y-26102836D01*
X27412484Y-26195104D01*
X27393000Y-26293055D01*
X27393000Y-26392925D01*
X27412484Y-26490876D01*
X27450703Y-26583144D01*
X27506188Y-26666184D01*
X27576806Y-26736802D01*
X27614501Y-26761989D01*
X27614500Y-27792988D01*
X27613119Y-27807010D01*
X27614500Y-27821031D01*
X27618631Y-27862977D01*
X27634957Y-27916794D01*
X27661467Y-27966392D01*
X27697144Y-28009866D01*
X27708046Y-28018813D01*
X28050000Y-28360768D01*
X28050000Y-29946242D01*
X27894398Y-30101844D01*
X27849935Y-30093000D01*
X27750065Y-30093000D01*
X27652114Y-30112484D01*
X27559846Y-30150703D01*
X27476806Y-30206188D01*
X27406188Y-30276806D01*
X27350703Y-30359846D01*
X27312484Y-30452114D01*
X27293000Y-30550065D01*
X27293000Y-30649935D01*
X27312484Y-30747886D01*
X27350703Y-30840154D01*
X27406188Y-30923194D01*
X27476806Y-30993812D01*
X27559846Y-31049297D01*
X27652114Y-31087516D01*
X27750065Y-31107000D01*
X27849935Y-31107000D01*
X27947886Y-31087516D01*
X28040154Y-31049297D01*
X28050000Y-31042718D01*
X28050000Y-31750000D01*
X25371058Y-31750000D01*
X25396451Y-31711996D01*
X25436554Y-31615179D01*
X25456999Y-31512397D01*
X25456999Y-31407603D01*
X25436554Y-31304821D01*
X25396451Y-31208004D01*
X25338230Y-31120870D01*
X25264129Y-31046769D01*
X25176995Y-30988548D01*
X25080178Y-30948445D01*
X24977396Y-30928000D01*
X24872602Y-30928000D01*
X24769820Y-30948445D01*
X24673003Y-30988548D01*
X24585869Y-31046769D01*
X24511768Y-31120870D01*
X24453547Y-31208004D01*
X24413444Y-31304821D01*
X24392999Y-31407603D01*
X24392999Y-31512397D01*
X24413444Y-31615179D01*
X24453547Y-31711996D01*
X24478940Y-31750000D01*
X23950000Y-31750000D01*
X23950000Y-25450000D01*
X24444436Y-25450000D01*
X24413444Y-25524821D01*
G37*
X24413444Y-25524821D02*
X24392999Y-25627603D01*
X24392999Y-25732397D01*
X24413444Y-25835179D01*
X24453547Y-25931996D01*
X24511768Y-26019130D01*
X24585869Y-26093231D01*
X24673003Y-26151452D01*
X24769820Y-26191555D01*
X24872602Y-26212000D01*
X24977396Y-26212000D01*
X25080178Y-26191555D01*
X25176995Y-26151452D01*
X25264129Y-26093231D01*
X25338230Y-26019130D01*
X25396451Y-25931996D01*
X25436554Y-25835179D01*
X25456999Y-25732397D01*
X25456999Y-25627603D01*
X25436554Y-25524821D01*
X25405562Y-25450000D01*
X28050000Y-25450000D01*
X28050000Y-25856350D01*
X28047886Y-25855474D01*
X27949935Y-25835990D01*
X27850065Y-25835990D01*
X27752114Y-25855474D01*
X27659846Y-25893693D01*
X27576806Y-25949178D01*
X27506188Y-26019796D01*
X27450703Y-26102836D01*
X27412484Y-26195104D01*
X27393000Y-26293055D01*
X27393000Y-26392925D01*
X27412484Y-26490876D01*
X27450703Y-26583144D01*
X27506188Y-26666184D01*
X27576806Y-26736802D01*
X27614501Y-26761989D01*
X27614500Y-27792988D01*
X27613119Y-27807010D01*
X27614500Y-27821031D01*
X27618631Y-27862977D01*
X27634957Y-27916794D01*
X27661467Y-27966392D01*
X27697144Y-28009866D01*
X27708046Y-28018813D01*
X28050000Y-28360768D01*
X28050000Y-29946242D01*
X27894398Y-30101844D01*
X27849935Y-30093000D01*
X27750065Y-30093000D01*
X27652114Y-30112484D01*
X27559846Y-30150703D01*
X27476806Y-30206188D01*
X27406188Y-30276806D01*
X27350703Y-30359846D01*
X27312484Y-30452114D01*
X27293000Y-30550065D01*
X27293000Y-30649935D01*
X27312484Y-30747886D01*
X27350703Y-30840154D01*
X27406188Y-30923194D01*
X27476806Y-30993812D01*
X27559846Y-31049297D01*
X27652114Y-31087516D01*
X27750065Y-31107000D01*
X27849935Y-31107000D01*
X27947886Y-31087516D01*
X28040154Y-31049297D01*
X28050000Y-31042718D01*
X28050000Y-31750000D01*
X25371058Y-31750000D01*
X25396451Y-31711996D01*
X25436554Y-31615179D01*
X25456999Y-31512397D01*
X25456999Y-31407603D01*
X25436554Y-31304821D01*
X25396451Y-31208004D01*
X25338230Y-31120870D01*
X25264129Y-31046769D01*
X25176995Y-30988548D01*
X25080178Y-30948445D01*
X24977396Y-30928000D01*
X24872602Y-30928000D01*
X24769820Y-30948445D01*
X24673003Y-30988548D01*
X24585869Y-31046769D01*
X24511768Y-31120870D01*
X24453547Y-31208004D01*
X24413444Y-31304821D01*
X24392999Y-31407603D01*
X24392999Y-31512397D01*
X24413444Y-31615179D01*
X24453547Y-31711996D01*
X24478940Y-31750000D01*
X23950000Y-31750000D01*
X23950000Y-25450000D01*
X24444436Y-25450000D01*
X24413444Y-25524821D01*
D16*
G36*
X22682671Y-20082671D02*
G01*
X22653242Y-20118530D01*
X22631374Y-20159442D01*
X22617908Y-20203834D01*
X22613361Y-20250000D01*
X22613361Y-21950000D01*
X22617908Y-21996166D01*
X22631374Y-22040558D01*
X22653242Y-22081470D01*
X22682671Y-22117329D01*
X22718530Y-22146758D01*
X22759442Y-22168626D01*
X22803834Y-22182092D01*
X22850000Y-22186639D01*
X24550000Y-22186639D01*
X24596166Y-22182092D01*
X24640558Y-22168626D01*
X24681470Y-22146758D01*
X24717329Y-22117329D01*
X24746758Y-22081470D01*
X24768626Y-22040558D01*
X24782092Y-21996166D01*
X24786639Y-21950000D01*
X24786639Y-20250000D01*
X24782092Y-20203834D01*
X24768626Y-20159442D01*
X24746758Y-20118530D01*
X24717329Y-20082671D01*
X24690314Y-20060500D01*
X25913026Y-20060500D01*
X25725823Y-20138043D01*
X25548034Y-20256837D01*
X25396837Y-20408034D01*
X25278043Y-20585823D01*
X25196215Y-20783371D01*
X25154500Y-20993088D01*
X25154500Y-21206912D01*
X25196215Y-21416629D01*
X25278043Y-21614177D01*
X25396837Y-21791966D01*
X25548034Y-21943163D01*
X25725823Y-22061957D01*
X25923371Y-22143785D01*
X26133088Y-22185500D01*
X26346912Y-22185500D01*
X26556629Y-22143785D01*
X26754177Y-22061957D01*
X26931966Y-21943163D01*
X27083163Y-21791966D01*
X27201957Y-21614177D01*
X27283785Y-21416629D01*
X27325500Y-21206912D01*
X27325500Y-20993088D01*
X27283785Y-20783371D01*
X27201957Y-20585823D01*
X27083163Y-20408034D01*
X26931966Y-20256837D01*
X26754177Y-20138043D01*
X26566974Y-20060500D01*
X28453026Y-20060500D01*
X28265823Y-20138043D01*
X28088034Y-20256837D01*
X27936837Y-20408034D01*
X27818043Y-20585823D01*
X27736215Y-20783371D01*
X27694500Y-20993088D01*
X27694500Y-21206912D01*
X27736215Y-21416629D01*
X27818043Y-21614177D01*
X27936837Y-21791966D01*
X28088034Y-21943163D01*
X28265823Y-22061957D01*
X28463371Y-22143785D01*
X28673088Y-22185500D01*
X28886912Y-22185500D01*
X29096629Y-22143785D01*
X29294177Y-22061957D01*
X29471966Y-21943163D01*
X29623163Y-21791966D01*
X29741957Y-21614177D01*
X29823785Y-21416629D01*
X29865500Y-21206912D01*
X29865500Y-20993088D01*
X29823785Y-20783371D01*
X29741957Y-20585823D01*
X29623163Y-20408034D01*
X29471966Y-20256837D01*
X29294177Y-20138043D01*
X29106974Y-20060500D01*
X30993026Y-20060500D01*
X30805823Y-20138043D01*
X30628034Y-20256837D01*
X30476837Y-20408034D01*
X30358043Y-20585823D01*
X30276215Y-20783371D01*
X30234500Y-20993088D01*
X30234500Y-21206912D01*
X30276215Y-21416629D01*
X30358043Y-21614177D01*
X30476837Y-21791966D01*
X30628034Y-21943163D01*
X30805823Y-22061957D01*
X31003371Y-22143785D01*
X31006001Y-22144308D01*
X31006001Y-22503165D01*
X31004481Y-22518596D01*
X31010544Y-22580150D01*
X31028499Y-22639340D01*
X31052948Y-22685079D01*
X31057657Y-22693889D01*
X31096895Y-22741702D01*
X31108877Y-22751535D01*
X31371622Y-23014281D01*
X31365202Y-23046556D01*
X31365202Y-23152040D01*
X31385781Y-23255498D01*
X31426148Y-23352952D01*
X31484752Y-23440659D01*
X31559341Y-23515248D01*
X31647048Y-23573852D01*
X31744502Y-23614219D01*
X31847960Y-23634798D01*
X31953444Y-23634798D01*
X32056902Y-23614219D01*
X32154356Y-23573852D01*
X32242063Y-23515248D01*
X32316652Y-23440659D01*
X32375256Y-23352952D01*
X32415623Y-23255498D01*
X32436202Y-23152040D01*
X32436202Y-23046556D01*
X32415623Y-22943098D01*
X32375256Y-22845644D01*
X32316652Y-22757937D01*
X32242063Y-22683348D01*
X32154356Y-22624744D01*
X32056902Y-22584377D01*
X31953444Y-22563798D01*
X31847960Y-22563798D01*
X31815685Y-22570218D01*
X31634000Y-22388534D01*
X31634000Y-22144308D01*
X31636629Y-22143785D01*
X31834177Y-22061957D01*
X32011966Y-21943163D01*
X32163163Y-21791966D01*
X32281957Y-21614177D01*
X32363785Y-21416629D01*
X32405500Y-21206912D01*
X32405500Y-20993088D01*
X32363785Y-20783371D01*
X32281957Y-20585823D01*
X32163163Y-20408034D01*
X32011966Y-20256837D01*
X31834177Y-20138043D01*
X31646974Y-20060500D01*
X33533026Y-20060500D01*
X33345823Y-20138043D01*
X33168034Y-20256837D01*
X33016837Y-20408034D01*
X32898043Y-20585823D01*
X32816215Y-20783371D01*
X32774500Y-20993088D01*
X32774500Y-21206912D01*
X32816215Y-21416629D01*
X32898043Y-21614177D01*
X33016837Y-21791966D01*
X33168034Y-21943163D01*
X33345823Y-22061957D01*
X33543371Y-22143785D01*
X33753088Y-22185500D01*
X33966912Y-22185500D01*
X34176629Y-22143785D01*
X34374177Y-22061957D01*
X34551966Y-21943163D01*
X34703163Y-21791966D01*
X34821957Y-21614177D01*
X34903785Y-21416629D01*
X34945500Y-21206912D01*
X34945500Y-20993088D01*
X34903785Y-20783371D01*
X34821957Y-20585823D01*
X34703163Y-20408034D01*
X34551966Y-20256837D01*
X34374177Y-20138043D01*
X34186974Y-20060500D01*
X36073026Y-20060500D01*
X35885823Y-20138043D01*
X35708034Y-20256837D01*
X35556837Y-20408034D01*
X35438043Y-20585823D01*
X35356215Y-20783371D01*
X35314500Y-20993088D01*
X35314500Y-21206912D01*
X35356215Y-21416629D01*
X35438043Y-21614177D01*
X35556837Y-21791966D01*
X35708034Y-21943163D01*
X35885823Y-22061957D01*
X36083371Y-22143785D01*
X36293088Y-22185500D01*
X36506912Y-22185500D01*
X36716629Y-22143785D01*
X36914177Y-22061957D01*
X37091966Y-21943163D01*
X37243163Y-21791966D01*
X37361957Y-21614177D01*
X37443785Y-21416629D01*
X37485500Y-21206912D01*
X37485500Y-20993088D01*
X37443785Y-20783371D01*
X37361957Y-20585823D01*
X37243163Y-20408034D01*
X37091966Y-20256837D01*
X36914177Y-20138043D01*
X36726974Y-20060500D01*
X38613026Y-20060500D01*
X38425823Y-20138043D01*
X38248034Y-20256837D01*
X38096837Y-20408034D01*
X37978043Y-20585823D01*
X37896215Y-20783371D01*
X37854500Y-20993088D01*
X37854500Y-21206912D01*
X37896215Y-21416629D01*
X37978043Y-21614177D01*
X38096837Y-21791966D01*
X38248034Y-21943163D01*
X38425823Y-22061957D01*
X38623371Y-22143785D01*
X38833088Y-22185500D01*
X39046912Y-22185500D01*
X39256629Y-22143785D01*
X39454177Y-22061957D01*
X39631966Y-21943163D01*
X39664500Y-21910629D01*
X39664500Y-21952742D01*
X39685079Y-22056200D01*
X39725446Y-22153654D01*
X39784050Y-22241361D01*
X39858639Y-22315950D01*
X39946346Y-22374554D01*
X39973979Y-22386000D01*
X39215421Y-22386000D01*
X39200000Y-22384481D01*
X39184578Y-22386000D01*
X39138445Y-22390544D01*
X39079256Y-22408498D01*
X39024707Y-22437656D01*
X38976894Y-22476894D01*
X38967063Y-22488874D01*
X38785017Y-22670920D01*
X38752742Y-22664500D01*
X38647258Y-22664500D01*
X38543800Y-22685079D01*
X38446346Y-22725446D01*
X38358639Y-22784050D01*
X38284050Y-22858639D01*
X38225446Y-22946346D01*
X38185079Y-23043800D01*
X38164500Y-23147258D01*
X38164500Y-23252742D01*
X38185079Y-23356200D01*
X38225446Y-23453654D01*
X38284050Y-23541361D01*
X38358639Y-23615950D01*
X38446346Y-23674554D01*
X38543800Y-23714921D01*
X38647258Y-23735500D01*
X38752742Y-23735500D01*
X38856200Y-23714921D01*
X38953654Y-23674554D01*
X39041361Y-23615950D01*
X39115950Y-23541361D01*
X39174554Y-23453654D01*
X39214921Y-23356200D01*
X39235500Y-23252742D01*
X39235500Y-23147258D01*
X39229080Y-23114983D01*
X39330063Y-23014000D01*
X44944579Y-23014000D01*
X44960000Y-23015519D01*
X44975421Y-23014000D01*
X44975422Y-23014000D01*
X45021555Y-23009456D01*
X45080744Y-22991502D01*
X45135293Y-22962344D01*
X45183106Y-22923106D01*
X45192944Y-22911118D01*
X46043595Y-22060468D01*
X46045823Y-22061957D01*
X46243371Y-22143785D01*
X46453088Y-22185500D01*
X46666912Y-22185500D01*
X46876629Y-22143785D01*
X47074177Y-22061957D01*
X47251966Y-21943163D01*
X47403163Y-21791966D01*
X47521957Y-21614177D01*
X47603785Y-21416629D01*
X47645500Y-21206912D01*
X47645500Y-20993088D01*
X47603785Y-20783371D01*
X47521957Y-20585823D01*
X47403163Y-20408034D01*
X47251966Y-20256837D01*
X47074177Y-20138043D01*
X46886974Y-20060500D01*
X48773026Y-20060500D01*
X48585823Y-20138043D01*
X48408034Y-20256837D01*
X48256837Y-20408034D01*
X48138043Y-20585823D01*
X48056215Y-20783371D01*
X48014500Y-20993088D01*
X48014500Y-21206912D01*
X48056215Y-21416629D01*
X48138043Y-21614177D01*
X48256837Y-21791966D01*
X48408034Y-21943163D01*
X48585823Y-22061957D01*
X48783371Y-22143785D01*
X48993088Y-22185500D01*
X49206912Y-22185500D01*
X49416629Y-22143785D01*
X49614177Y-22061957D01*
X49791966Y-21943163D01*
X49943163Y-21791966D01*
X50061957Y-21614177D01*
X50112615Y-21491877D01*
X50581714Y-21491877D01*
X50678500Y-21690809D01*
X50812236Y-21867036D01*
X50977783Y-22013786D01*
X51168778Y-22125420D01*
X51248125Y-22158275D01*
X51418500Y-22135449D01*
X51418500Y-21321500D01*
X51861500Y-21321500D01*
X51861500Y-22135449D01*
X52031875Y-22158275D01*
X52111222Y-22125420D01*
X52302217Y-22013786D01*
X52467764Y-21867036D01*
X52601500Y-21690809D01*
X52698286Y-21491877D01*
X52676935Y-21321500D01*
X51861500Y-21321500D01*
X51418500Y-21321500D01*
X50603065Y-21321500D01*
X50581714Y-21491877D01*
X50112615Y-21491877D01*
X50143785Y-21416629D01*
X50185500Y-21206912D01*
X50185500Y-20993088D01*
X50143785Y-20783371D01*
X50061957Y-20585823D01*
X49943163Y-20408034D01*
X49791966Y-20256837D01*
X49614177Y-20138043D01*
X49426974Y-20060500D01*
X51202782Y-20060500D01*
X51168778Y-20074580D01*
X50977783Y-20186214D01*
X50812236Y-20332964D01*
X50678500Y-20509191D01*
X50581714Y-20708123D01*
X50603065Y-20878500D01*
X51418500Y-20878500D01*
X51418500Y-20858500D01*
X51861500Y-20858500D01*
X51861500Y-20878500D01*
X52676935Y-20878500D01*
X52698286Y-20708123D01*
X52601500Y-20509191D01*
X52467764Y-20332964D01*
X52302217Y-20186214D01*
X52111222Y-20074580D01*
X52077218Y-20060500D01*
X53853026Y-20060500D01*
X53665823Y-20138043D01*
X53488034Y-20256837D01*
X53336837Y-20408034D01*
X53218043Y-20585823D01*
X53136215Y-20783371D01*
X53094500Y-20993088D01*
X53094500Y-21206912D01*
X53136215Y-21416629D01*
X53218043Y-21614177D01*
X53336837Y-21791966D01*
X53488034Y-21943163D01*
X53665823Y-22061957D01*
X53863371Y-22143785D01*
X54073088Y-22185500D01*
X54286912Y-22185500D01*
X54496629Y-22143785D01*
X54694177Y-22061957D01*
X54871966Y-21943163D01*
X55023163Y-21791966D01*
X55141957Y-21614177D01*
X55223785Y-21416629D01*
X55265500Y-21206912D01*
X55265500Y-20993088D01*
X55223785Y-20783371D01*
X55141957Y-20585823D01*
X55023163Y-20408034D01*
X54871966Y-20256837D01*
X54694177Y-20138043D01*
X54506974Y-20060500D01*
X56393026Y-20060500D01*
X56205823Y-20138043D01*
X56028034Y-20256837D01*
X55876837Y-20408034D01*
X55758043Y-20585823D01*
X55676215Y-20783371D01*
X55634500Y-20993088D01*
X55634500Y-21206912D01*
X55676215Y-21416629D01*
X55758043Y-21614177D01*
X55876837Y-21791966D01*
X56028034Y-21943163D01*
X56205823Y-22061957D01*
X56403371Y-22143785D01*
X56613088Y-22185500D01*
X56826912Y-22185500D01*
X57036629Y-22143785D01*
X57234177Y-22061957D01*
X57411966Y-21943163D01*
X57563163Y-21791966D01*
X57681957Y-21614177D01*
X57763785Y-21416629D01*
X57805500Y-21206912D01*
X57805500Y-20993088D01*
X57763785Y-20783371D01*
X57681957Y-20585823D01*
X57563163Y-20408034D01*
X57411966Y-20256837D01*
X57234177Y-20138043D01*
X57046974Y-20060500D01*
X58933026Y-20060500D01*
X58745823Y-20138043D01*
X58568034Y-20256837D01*
X58416837Y-20408034D01*
X58298043Y-20585823D01*
X58216215Y-20783371D01*
X58174500Y-20993088D01*
X58174500Y-21206912D01*
X58216215Y-21416629D01*
X58298043Y-21614177D01*
X58416837Y-21791966D01*
X58568034Y-21943163D01*
X58745823Y-22061957D01*
X58943371Y-22143785D01*
X59153088Y-22185500D01*
X59366912Y-22185500D01*
X59576629Y-22143785D01*
X59774177Y-22061957D01*
X59951966Y-21943163D01*
X60103163Y-21791966D01*
X60221957Y-21614177D01*
X60303785Y-21416629D01*
X60345500Y-21206912D01*
X60345500Y-20993088D01*
X60303785Y-20783371D01*
X60221957Y-20585823D01*
X60103163Y-20408034D01*
X59951966Y-20256837D01*
X59774177Y-20138043D01*
X59586974Y-20060500D01*
X62887260Y-20060500D01*
X62907432Y-20062478D01*
X62914573Y-20064634D01*
X62921165Y-20068139D01*
X62926955Y-20072861D01*
X62931710Y-20078608D01*
X62935262Y-20085179D01*
X62937470Y-20092311D01*
X62939500Y-20111624D01*
X62939501Y-37087250D01*
X62937522Y-37107432D01*
X62935366Y-37114575D01*
X62931862Y-37121163D01*
X62927140Y-37126954D01*
X62921389Y-37131711D01*
X62914821Y-37135263D01*
X62907690Y-37137470D01*
X62888376Y-37139500D01*
X59586974Y-37139500D01*
X59774177Y-37061957D01*
X59951966Y-36943163D01*
X60103163Y-36791966D01*
X60221957Y-36614177D01*
X60303785Y-36416629D01*
X60345500Y-36206912D01*
X60345500Y-35993088D01*
X60303785Y-35783371D01*
X60221957Y-35585823D01*
X60103163Y-35408034D01*
X59951966Y-35256837D01*
X59774177Y-35138043D01*
X59576629Y-35056215D01*
X59477010Y-35036400D01*
X59465918Y-35030471D01*
X59364975Y-34999850D01*
X59260000Y-34989511D01*
X59155024Y-34999850D01*
X59054081Y-35030471D01*
X59042989Y-35036400D01*
X58943371Y-35056215D01*
X58745823Y-35138043D01*
X58568034Y-35256837D01*
X58416837Y-35408034D01*
X58298043Y-35585823D01*
X58216215Y-35783371D01*
X58174500Y-35993088D01*
X58174500Y-36206912D01*
X58216215Y-36416629D01*
X58298043Y-36614177D01*
X58416837Y-36791966D01*
X58568034Y-36943163D01*
X58745823Y-37061957D01*
X58933026Y-37139500D01*
X57157218Y-37139500D01*
X57191222Y-37125420D01*
X57382217Y-37013786D01*
X57547764Y-36867036D01*
X57681500Y-36690809D01*
X57778286Y-36491877D01*
X57756935Y-36321500D01*
X56941500Y-36321500D01*
X56941500Y-36341500D01*
X56498500Y-36341500D01*
X56498500Y-36321500D01*
X55683065Y-36321500D01*
X55661714Y-36491877D01*
X55758500Y-36690809D01*
X55892236Y-36867036D01*
X56057783Y-37013786D01*
X56248778Y-37125420D01*
X56282782Y-37139500D01*
X54506974Y-37139500D01*
X54694177Y-37061957D01*
X54871966Y-36943163D01*
X55023163Y-36791966D01*
X55141957Y-36614177D01*
X55223785Y-36416629D01*
X55265500Y-36206912D01*
X55265500Y-35993088D01*
X55223785Y-35783371D01*
X55192616Y-35708123D01*
X55661714Y-35708123D01*
X55683065Y-35878500D01*
X56498500Y-35878500D01*
X56498500Y-35064551D01*
X56941500Y-35064551D01*
X56941500Y-35878500D01*
X57756935Y-35878500D01*
X57778286Y-35708123D01*
X57681500Y-35509191D01*
X57547764Y-35332964D01*
X57382217Y-35186214D01*
X57191222Y-35074580D01*
X57111875Y-35041725D01*
X56941500Y-35064551D01*
X56498500Y-35064551D01*
X56328125Y-35041725D01*
X56248778Y-35074580D01*
X56057783Y-35186214D01*
X55892236Y-35332964D01*
X55758500Y-35509191D01*
X55661714Y-35708123D01*
X55192616Y-35708123D01*
X55141957Y-35585823D01*
X55023163Y-35408034D01*
X54871966Y-35256837D01*
X54694177Y-35138043D01*
X54496629Y-35056215D01*
X54286912Y-35014500D01*
X54175672Y-35014500D01*
X54214927Y-34919730D01*
X54235506Y-34816272D01*
X54235506Y-34710788D01*
X54214927Y-34607330D01*
X54174560Y-34509876D01*
X54135506Y-34451428D01*
X54135506Y-32861875D01*
X58141725Y-32861875D01*
X58174580Y-32941222D01*
X58286214Y-33132217D01*
X58432964Y-33297764D01*
X58609191Y-33431500D01*
X58808123Y-33528286D01*
X58978500Y-33506935D01*
X58978500Y-32691500D01*
X59421500Y-32691500D01*
X59421500Y-33506935D01*
X59591877Y-33528286D01*
X59790809Y-33431500D01*
X59967036Y-33297764D01*
X60113786Y-33132217D01*
X60225420Y-32941222D01*
X60258275Y-32861875D01*
X60235449Y-32691500D01*
X59421500Y-32691500D01*
X58978500Y-32691500D01*
X58164551Y-32691500D01*
X58141725Y-32861875D01*
X54135506Y-32861875D01*
X54135506Y-32078125D01*
X58141725Y-32078125D01*
X58164551Y-32248500D01*
X58978500Y-32248500D01*
X58978500Y-31433065D01*
X59421500Y-31433065D01*
X59421500Y-32248500D01*
X60235449Y-32248500D01*
X60258275Y-32078125D01*
X60225420Y-31998778D01*
X60113786Y-31807783D01*
X59967036Y-31642236D01*
X59790809Y-31508500D01*
X59591877Y-31411714D01*
X59421500Y-31433065D01*
X58978500Y-31433065D01*
X58808123Y-31411714D01*
X58609191Y-31508500D01*
X58432964Y-31642236D01*
X58286214Y-31807783D01*
X58174580Y-31998778D01*
X58141725Y-32078125D01*
X54135506Y-32078125D01*
X54135506Y-31021397D01*
X54137613Y-31000006D01*
X54135506Y-30978612D01*
X54129205Y-30914633D01*
X54104302Y-30832541D01*
X54094726Y-30814626D01*
X54063863Y-30756884D01*
X54023078Y-30707188D01*
X54009441Y-30690571D01*
X53992825Y-30676935D01*
X53138978Y-29823088D01*
X58114500Y-29823088D01*
X58114500Y-30036912D01*
X58156215Y-30246629D01*
X58238043Y-30444177D01*
X58356837Y-30621966D01*
X58508034Y-30773163D01*
X58685823Y-30891957D01*
X58883371Y-30973785D01*
X59093088Y-31015500D01*
X59306912Y-31015500D01*
X59516629Y-30973785D01*
X59714177Y-30891957D01*
X59891966Y-30773163D01*
X60043163Y-30621966D01*
X60161957Y-30444177D01*
X60243785Y-30246629D01*
X60285500Y-30036912D01*
X60285500Y-29823088D01*
X60243785Y-29613371D01*
X60161957Y-29415823D01*
X60043163Y-29238034D01*
X59891966Y-29086837D01*
X59714177Y-28968043D01*
X59516629Y-28886215D01*
X59306912Y-28844500D01*
X59093088Y-28844500D01*
X58883371Y-28886215D01*
X58685823Y-28968043D01*
X58508034Y-29086837D01*
X58356837Y-29238034D01*
X58238043Y-29415823D01*
X58156215Y-29613371D01*
X58114500Y-29823088D01*
X53138978Y-29823088D01*
X50598978Y-27283088D01*
X58114500Y-27283088D01*
X58114500Y-27496912D01*
X58156215Y-27706629D01*
X58238043Y-27904177D01*
X58356837Y-28081966D01*
X58508034Y-28233163D01*
X58685823Y-28351957D01*
X58883371Y-28433785D01*
X59093088Y-28475500D01*
X59306912Y-28475500D01*
X59516629Y-28433785D01*
X59714177Y-28351957D01*
X59891966Y-28233163D01*
X60043163Y-28081966D01*
X60161957Y-27904177D01*
X60243785Y-27706629D01*
X60285500Y-27496912D01*
X60285500Y-27283088D01*
X60243785Y-27073371D01*
X60161957Y-26875823D01*
X60043163Y-26698034D01*
X59891966Y-26546837D01*
X59714177Y-26428043D01*
X59516629Y-26346215D01*
X59306912Y-26304500D01*
X59093088Y-26304500D01*
X58883371Y-26346215D01*
X58685823Y-26428043D01*
X58508034Y-26546837D01*
X58356837Y-26698034D01*
X58238043Y-26875823D01*
X58156215Y-27073371D01*
X58114500Y-27283088D01*
X50598978Y-27283088D01*
X48793148Y-25477258D01*
X50334500Y-25477258D01*
X50334500Y-25582742D01*
X50355079Y-25686200D01*
X50395446Y-25783654D01*
X50454050Y-25871361D01*
X50528639Y-25945950D01*
X50616346Y-26004554D01*
X50713800Y-26044921D01*
X50817258Y-26065500D01*
X50922742Y-26065500D01*
X51026200Y-26044921D01*
X51123654Y-26004554D01*
X51211361Y-25945950D01*
X51285950Y-25871361D01*
X51344554Y-25783654D01*
X51384921Y-25686200D01*
X51405500Y-25582742D01*
X51405500Y-25477258D01*
X51384921Y-25373800D01*
X51380627Y-25363435D01*
X52744062Y-24000000D01*
X58113361Y-24000000D01*
X58113361Y-25700000D01*
X58117908Y-25746166D01*
X58131374Y-25790558D01*
X58153242Y-25831470D01*
X58182671Y-25867329D01*
X58218530Y-25896758D01*
X58259442Y-25918626D01*
X58303834Y-25932092D01*
X58350000Y-25936639D01*
X60050000Y-25936639D01*
X60096166Y-25932092D01*
X60140558Y-25918626D01*
X60181470Y-25896758D01*
X60217329Y-25867329D01*
X60246758Y-25831470D01*
X60268626Y-25790558D01*
X60282092Y-25746166D01*
X60286639Y-25700000D01*
X60286639Y-24000000D01*
X60282092Y-23953834D01*
X60268626Y-23909442D01*
X60246758Y-23868530D01*
X60217329Y-23832671D01*
X60181470Y-23803242D01*
X60140558Y-23781374D01*
X60096166Y-23767908D01*
X60050000Y-23763361D01*
X58350000Y-23763361D01*
X58303834Y-23767908D01*
X58259442Y-23781374D01*
X58218530Y-23803242D01*
X58182671Y-23832671D01*
X58153242Y-23868530D01*
X58131374Y-23909442D01*
X58117908Y-23953834D01*
X58113361Y-24000000D01*
X52744062Y-24000000D01*
X53214983Y-23529080D01*
X53247258Y-23535500D01*
X53352742Y-23535500D01*
X53456200Y-23514921D01*
X53553654Y-23474554D01*
X53641361Y-23415950D01*
X53715950Y-23341361D01*
X53774554Y-23253654D01*
X53814921Y-23156200D01*
X53835500Y-23052742D01*
X53835500Y-22947258D01*
X53814921Y-22843800D01*
X53774554Y-22746346D01*
X53715950Y-22658639D01*
X53641361Y-22584050D01*
X53553654Y-22525446D01*
X53456200Y-22485079D01*
X53352742Y-22464500D01*
X53247258Y-22464500D01*
X53143800Y-22485079D01*
X53046346Y-22525446D01*
X52958639Y-22584050D01*
X52884050Y-22658639D01*
X52825446Y-22746346D01*
X52785079Y-22843800D01*
X52764500Y-22947258D01*
X52764500Y-23052742D01*
X52770920Y-23085017D01*
X50861438Y-24994500D01*
X50817258Y-24994500D01*
X50713800Y-25015079D01*
X50616346Y-25055446D01*
X50528639Y-25114050D01*
X50454050Y-25188639D01*
X50395446Y-25276346D01*
X50355079Y-25373800D01*
X50334500Y-25477258D01*
X48793148Y-25477258D01*
X46829592Y-23513703D01*
X46827752Y-23495024D01*
X46820078Y-23469727D01*
X46814921Y-23443800D01*
X46804804Y-23419376D01*
X46797131Y-23394081D01*
X46784671Y-23370769D01*
X46774554Y-23346346D01*
X46759866Y-23324364D01*
X46747406Y-23301053D01*
X46730637Y-23280620D01*
X46715950Y-23258639D01*
X46697260Y-23239949D01*
X46680488Y-23219512D01*
X46660051Y-23202740D01*
X46641361Y-23184050D01*
X46619380Y-23169363D01*
X46598947Y-23152594D01*
X46575637Y-23140134D01*
X46553654Y-23125446D01*
X46529227Y-23115328D01*
X46505918Y-23102869D01*
X46480626Y-23095197D01*
X46456200Y-23085079D01*
X46430270Y-23079921D01*
X46404975Y-23072248D01*
X46378668Y-23069657D01*
X46352742Y-23064500D01*
X46326307Y-23064500D01*
X46300000Y-23061909D01*
X46273693Y-23064500D01*
X46247258Y-23064500D01*
X46221332Y-23069657D01*
X46195024Y-23072248D01*
X46169727Y-23079922D01*
X46143800Y-23085079D01*
X46119376Y-23095196D01*
X46094081Y-23102869D01*
X46070769Y-23115329D01*
X46046346Y-23125446D01*
X46024364Y-23140134D01*
X46001053Y-23152594D01*
X45980620Y-23169363D01*
X45958639Y-23184050D01*
X45939949Y-23202740D01*
X45919512Y-23219512D01*
X45902740Y-23239949D01*
X45884050Y-23258639D01*
X45869363Y-23280620D01*
X45852594Y-23301053D01*
X45840134Y-23324363D01*
X45825446Y-23346346D01*
X45815328Y-23370773D01*
X45802869Y-23394082D01*
X45795197Y-23419374D01*
X45785079Y-23443800D01*
X45779921Y-23469730D01*
X45772248Y-23495025D01*
X45769657Y-23521331D01*
X45764500Y-23547258D01*
X45764500Y-24007498D01*
X27245667Y-24007498D01*
X27219362Y-24004907D01*
X27193057Y-24007498D01*
X27193056Y-24007498D01*
X27114387Y-24015246D01*
X27013444Y-24045867D01*
X26920415Y-24095592D01*
X26859308Y-24145741D01*
X26838875Y-24162510D01*
X26822108Y-24182942D01*
X26783499Y-24221551D01*
X26783499Y-24028498D01*
X26678381Y-24028498D01*
X26707484Y-23914476D01*
X26621682Y-23725760D01*
X26507558Y-23615524D01*
X26374121Y-23529671D01*
X26226499Y-23471500D01*
X25676499Y-23471500D01*
X25676499Y-24028500D01*
X25696499Y-24028500D01*
X25696499Y-24471500D01*
X25676499Y-24471500D01*
X25676499Y-25028500D01*
X25976550Y-25028500D01*
X25840550Y-25164500D01*
X25145129Y-25164500D01*
X25088491Y-25141040D01*
X24980203Y-25119500D01*
X24869795Y-25119500D01*
X24761507Y-25141040D01*
X24704869Y-25164500D01*
X24285500Y-25164500D01*
X24285500Y-24768046D01*
X24288316Y-24774240D01*
X24402440Y-24884476D01*
X24535877Y-24970329D01*
X24683499Y-25028500D01*
X25233499Y-25028500D01*
X25233499Y-24471500D01*
X25213499Y-24471500D01*
X25213499Y-24028500D01*
X25233499Y-24028500D01*
X25233499Y-23471500D01*
X24683499Y-23471500D01*
X24535877Y-23529671D01*
X24402440Y-23615524D01*
X24288316Y-23725760D01*
X24252061Y-23805501D01*
X24239965Y-23765628D01*
X24180955Y-23655227D01*
X24101540Y-23558460D01*
X24077299Y-23538566D01*
X22506639Y-21967907D01*
X22506639Y-20930000D01*
X22502092Y-20883834D01*
X22488626Y-20839442D01*
X22466758Y-20798530D01*
X22437329Y-20762671D01*
X22401470Y-20733242D01*
X22360558Y-20711374D01*
X22316166Y-20697908D01*
X22270000Y-20693361D01*
X20570000Y-20693361D01*
X20523834Y-20697908D01*
X20479442Y-20711374D01*
X20438530Y-20733242D01*
X20402671Y-20762671D01*
X20373242Y-20798530D01*
X20351374Y-20839442D01*
X20337908Y-20883834D01*
X20333361Y-20930000D01*
X20333361Y-22630000D01*
X20337908Y-22676166D01*
X20351374Y-22720558D01*
X20373242Y-22761470D01*
X20402671Y-22797329D01*
X20438530Y-22826758D01*
X20479442Y-22848626D01*
X20523834Y-22862092D01*
X20570000Y-22866639D01*
X21607907Y-22866639D01*
X23014500Y-24273233D01*
X23014501Y-25968787D01*
X23011427Y-26000000D01*
X23023696Y-26124579D01*
X23060035Y-26244371D01*
X23118797Y-26354308D01*
X23119046Y-26354773D01*
X23198461Y-26451540D01*
X23222708Y-26471439D01*
X23664500Y-26913232D01*
X23664500Y-31800000D01*
X23669025Y-31845944D01*
X23682426Y-31890122D01*
X23704189Y-31930837D01*
X23733476Y-31966524D01*
X23769163Y-31995811D01*
X23809878Y-32017574D01*
X23854056Y-32030975D01*
X23900000Y-32035500D01*
X28100000Y-32035500D01*
X28145944Y-32030975D01*
X28190122Y-32017574D01*
X28230837Y-31995811D01*
X28266524Y-31966524D01*
X28295811Y-31930837D01*
X28317574Y-31890122D01*
X28330975Y-31845944D01*
X28335500Y-31800000D01*
X28335500Y-30508562D01*
X28804113Y-30039950D01*
X28816096Y-30030116D01*
X28855334Y-29982303D01*
X28884492Y-29927754D01*
X28902446Y-29868565D01*
X28906990Y-29822432D01*
X28906990Y-29822430D01*
X28908509Y-29807011D01*
X28906990Y-29791592D01*
X28906990Y-28934232D01*
X28934351Y-28915950D01*
X29008940Y-28841361D01*
X29067544Y-28753654D01*
X29107911Y-28656200D01*
X29128490Y-28552742D01*
X29128490Y-28447258D01*
X29108168Y-28345092D01*
X29161943Y-28425572D01*
X29236532Y-28500161D01*
X29240126Y-28502563D01*
X29184050Y-28558639D01*
X29125446Y-28646346D01*
X29085079Y-28743800D01*
X29064500Y-28847258D01*
X29064500Y-28952742D01*
X29085079Y-29056200D01*
X29125446Y-29153654D01*
X29184050Y-29241361D01*
X29258639Y-29315950D01*
X29346346Y-29374554D01*
X29443800Y-29414921D01*
X29547258Y-29435500D01*
X29652742Y-29435500D01*
X29756200Y-29414921D01*
X29853654Y-29374554D01*
X29941361Y-29315950D01*
X29982322Y-29274989D01*
X33536651Y-32829318D01*
X33524925Y-32846867D01*
X33484558Y-32944321D01*
X33463979Y-33047779D01*
X33463979Y-33153263D01*
X33484558Y-33256721D01*
X33524925Y-33354175D01*
X33583529Y-33441882D01*
X33658118Y-33516471D01*
X33745825Y-33575075D01*
X33843279Y-33615442D01*
X33946737Y-33636021D01*
X34052221Y-33636021D01*
X34155679Y-33615442D01*
X34253133Y-33575075D01*
X34340840Y-33516471D01*
X34415429Y-33441882D01*
X34474033Y-33354175D01*
X34514400Y-33256721D01*
X34534979Y-33153263D01*
X34534979Y-33047779D01*
X34531801Y-33031801D01*
X34547779Y-33034979D01*
X34653263Y-33034979D01*
X34756721Y-33014400D01*
X34854175Y-32974033D01*
X34941882Y-32915429D01*
X35016471Y-32840840D01*
X35075075Y-32753133D01*
X35115442Y-32655679D01*
X35136021Y-32552221D01*
X35136021Y-32446737D01*
X35115442Y-32343279D01*
X35075075Y-32245825D01*
X35016471Y-32158118D01*
X34941882Y-32083529D01*
X34854175Y-32024925D01*
X34849940Y-32023171D01*
X34871327Y-31991162D01*
X34911694Y-31893708D01*
X34932273Y-31790250D01*
X34932273Y-31684766D01*
X34925853Y-31652490D01*
X37242846Y-29335498D01*
X37252740Y-29335498D01*
X37356198Y-29314919D01*
X37453652Y-29274552D01*
X37541359Y-29215948D01*
X37615948Y-29141359D01*
X37674552Y-29053652D01*
X37714919Y-28956198D01*
X37735498Y-28852740D01*
X37735498Y-28747256D01*
X37714919Y-28643798D01*
X37674552Y-28546344D01*
X37615948Y-28458637D01*
X37541359Y-28384048D01*
X37453652Y-28325444D01*
X37356198Y-28285077D01*
X37252740Y-28264498D01*
X37147256Y-28264498D01*
X37043798Y-28285077D01*
X36946344Y-28325444D01*
X36858637Y-28384048D01*
X36784048Y-28458637D01*
X36725444Y-28546344D01*
X36685077Y-28643798D01*
X36664498Y-28747256D01*
X36664498Y-28852740D01*
X36685077Y-28956198D01*
X36699412Y-28990806D01*
X34481791Y-31208428D01*
X34449515Y-31202008D01*
X34344031Y-31202008D01*
X34240573Y-31222587D01*
X34143119Y-31262954D01*
X34055412Y-31321558D01*
X33980823Y-31396147D01*
X33922219Y-31483854D01*
X33881852Y-31581308D01*
X33880545Y-31587877D01*
X30345244Y-28052577D01*
X30340879Y-28047258D01*
X32464498Y-28047258D01*
X32464498Y-28152742D01*
X32485077Y-28256200D01*
X32525444Y-28353654D01*
X32584048Y-28441361D01*
X32658637Y-28515950D01*
X32746344Y-28574554D01*
X32843798Y-28614921D01*
X32947256Y-28635500D01*
X33052740Y-28635500D01*
X33067420Y-28632580D01*
X33064500Y-28647258D01*
X33064500Y-28752742D01*
X33085079Y-28856200D01*
X33125446Y-28953654D01*
X33184050Y-29041361D01*
X33258639Y-29115950D01*
X33346346Y-29174554D01*
X33443800Y-29214921D01*
X33547258Y-29235500D01*
X33652742Y-29235500D01*
X33756200Y-29214921D01*
X33853654Y-29174554D01*
X33941361Y-29115950D01*
X34015950Y-29041361D01*
X34034232Y-29014000D01*
X35384589Y-29014000D01*
X35400010Y-29015519D01*
X35415431Y-29014000D01*
X35415432Y-29014000D01*
X35461565Y-29009456D01*
X35520754Y-28991502D01*
X35575303Y-28962344D01*
X35623116Y-28923106D01*
X35632954Y-28911118D01*
X35814992Y-28729080D01*
X35847268Y-28735500D01*
X35952752Y-28735500D01*
X36056210Y-28714921D01*
X36153664Y-28674554D01*
X36241371Y-28615950D01*
X36315960Y-28541361D01*
X36374564Y-28453654D01*
X36414931Y-28356200D01*
X36435510Y-28252742D01*
X36435510Y-28147258D01*
X36414931Y-28043800D01*
X36374564Y-27946346D01*
X36315960Y-27858639D01*
X36241371Y-27784050D01*
X36153664Y-27725446D01*
X36056210Y-27685079D01*
X35952752Y-27664500D01*
X35847268Y-27664500D01*
X35743810Y-27685079D01*
X35646356Y-27725446D01*
X35591957Y-27761795D01*
X35537287Y-27679976D01*
X35462698Y-27605387D01*
X35374991Y-27546783D01*
X35277537Y-27506416D01*
X35174079Y-27485837D01*
X35068595Y-27485837D01*
X34965137Y-27506416D01*
X34867683Y-27546783D01*
X34779976Y-27605387D01*
X34705387Y-27679976D01*
X34687105Y-27707337D01*
X33364646Y-27707337D01*
X33341359Y-27684050D01*
X33253652Y-27625446D01*
X33156198Y-27585079D01*
X33052740Y-27564500D01*
X32947256Y-27564500D01*
X32843798Y-27585079D01*
X32746344Y-27625446D01*
X32658637Y-27684050D01*
X32584048Y-27758639D01*
X32525444Y-27846346D01*
X32485077Y-27943800D01*
X32464498Y-28047258D01*
X30340879Y-28047258D01*
X30334741Y-28039779D01*
X30283655Y-27997853D01*
X30225370Y-27966700D01*
X30218118Y-27964500D01*
X30162128Y-27947515D01*
X30096359Y-27941037D01*
X30095423Y-27941129D01*
X30092814Y-27928011D01*
X30052447Y-27830557D01*
X29993843Y-27742850D01*
X29919254Y-27668261D01*
X29831547Y-27609657D01*
X29734093Y-27569290D01*
X29630635Y-27548711D01*
X29525151Y-27548711D01*
X29421693Y-27569290D01*
X29324239Y-27609657D01*
X29236532Y-27668261D01*
X29161943Y-27742850D01*
X29103339Y-27830557D01*
X29062972Y-27928011D01*
X29042393Y-28031469D01*
X29042393Y-28136953D01*
X29062715Y-28239119D01*
X29008940Y-28158639D01*
X28934351Y-28084050D01*
X28846644Y-28025446D01*
X28749190Y-27985079D01*
X28645732Y-27964500D01*
X28540248Y-27964500D01*
X28507973Y-27970920D01*
X28335500Y-27798448D01*
X28335500Y-26655092D01*
X28374554Y-26596644D01*
X28414921Y-26499190D01*
X28435500Y-26395732D01*
X28435500Y-26290248D01*
X28414921Y-26186790D01*
X28374554Y-26089336D01*
X28335500Y-26030888D01*
X28335500Y-25400000D01*
X28330975Y-25354056D01*
X28317574Y-25309878D01*
X28295811Y-25269163D01*
X28266524Y-25233476D01*
X28230837Y-25204189D01*
X28190122Y-25182426D01*
X28145944Y-25169025D01*
X28100000Y-25164500D01*
X27355173Y-25164500D01*
X27441175Y-25078498D01*
X46030697Y-25078498D01*
X46057002Y-25081089D01*
X46083307Y-25078498D01*
X46083309Y-25078498D01*
X46161978Y-25070750D01*
X46262921Y-25040129D01*
X46355949Y-24990404D01*
X46437490Y-24923486D01*
X46454266Y-24903044D01*
X46641358Y-24715952D01*
X46641361Y-24715950D01*
X46660051Y-24697260D01*
X46680488Y-24680488D01*
X46697260Y-24660051D01*
X46715950Y-24641361D01*
X46719764Y-24635653D01*
X53264506Y-31180396D01*
X53264506Y-32148616D01*
X52260077Y-31144188D01*
X52246435Y-31127565D01*
X52180121Y-31073143D01*
X52104465Y-31032704D01*
X52022373Y-31007801D01*
X51958394Y-31001500D01*
X51958391Y-31001500D01*
X51937000Y-30999393D01*
X51915609Y-31001500D01*
X51812132Y-31001500D01*
X51753684Y-30962446D01*
X51656230Y-30922079D01*
X51552772Y-30901500D01*
X51447288Y-30901500D01*
X51343830Y-30922079D01*
X51246376Y-30962446D01*
X51158669Y-31021050D01*
X51084080Y-31095639D01*
X51025476Y-31183346D01*
X50985109Y-31280800D01*
X50964530Y-31384258D01*
X50964530Y-31489742D01*
X50985109Y-31593200D01*
X51025476Y-31690654D01*
X51084080Y-31778361D01*
X51158669Y-31852950D01*
X51246376Y-31911554D01*
X51343830Y-31951921D01*
X51447288Y-31972500D01*
X51552772Y-31972500D01*
X51656230Y-31951921D01*
X51753684Y-31911554D01*
X51778850Y-31894739D01*
X52564501Y-32680391D01*
X52564500Y-35039610D01*
X52339620Y-35264491D01*
X52331966Y-35256837D01*
X52154177Y-35138043D01*
X51956629Y-35056215D01*
X51746912Y-35014500D01*
X51533088Y-35014500D01*
X51323371Y-35056215D01*
X51125823Y-35138043D01*
X50948034Y-35256837D01*
X50796837Y-35408034D01*
X50678043Y-35585823D01*
X50596215Y-35783371D01*
X50554500Y-35993088D01*
X50554500Y-36206912D01*
X50596215Y-36416629D01*
X50678043Y-36614177D01*
X50796837Y-36791966D01*
X50948034Y-36943163D01*
X51125823Y-37061957D01*
X51313026Y-37139500D01*
X49426974Y-37139500D01*
X49614177Y-37061957D01*
X49791966Y-36943163D01*
X49943163Y-36791966D01*
X50061957Y-36614177D01*
X50143785Y-36416629D01*
X50185500Y-36206912D01*
X50185500Y-35993088D01*
X50143785Y-35783371D01*
X50061957Y-35585823D01*
X49943163Y-35408034D01*
X49791966Y-35256837D01*
X49614177Y-35138043D01*
X49416629Y-35056215D01*
X49206912Y-35014500D01*
X48993088Y-35014500D01*
X48783371Y-35056215D01*
X48585823Y-35138043D01*
X48408034Y-35256837D01*
X48256837Y-35408034D01*
X48138043Y-35585823D01*
X48056215Y-35783371D01*
X48014500Y-35993088D01*
X48014500Y-36206912D01*
X48056215Y-36416629D01*
X48138043Y-36614177D01*
X48256837Y-36791966D01*
X48408034Y-36943163D01*
X48585823Y-37061957D01*
X48773026Y-37139500D01*
X46886974Y-37139500D01*
X47074177Y-37061957D01*
X47251966Y-36943163D01*
X47403163Y-36791966D01*
X47521957Y-36614177D01*
X47603785Y-36416629D01*
X47645500Y-36206912D01*
X47645500Y-35993088D01*
X47603785Y-35783371D01*
X47521957Y-35585823D01*
X47403163Y-35408034D01*
X47251966Y-35256837D01*
X47074177Y-35138043D01*
X46876629Y-35056215D01*
X46719168Y-35024894D01*
X47698838Y-34045225D01*
X47760678Y-34086545D01*
X47858132Y-34126912D01*
X47961590Y-34147491D01*
X48067074Y-34147491D01*
X48170532Y-34126912D01*
X48267986Y-34086545D01*
X48355693Y-34027941D01*
X48430282Y-33953352D01*
X48488886Y-33865645D01*
X48529253Y-33768191D01*
X48549832Y-33664733D01*
X48549832Y-33559249D01*
X48529253Y-33455791D01*
X48491431Y-33364480D01*
X50164500Y-33364480D01*
X50164500Y-33403221D01*
X50185079Y-33506679D01*
X50225446Y-33604133D01*
X50284050Y-33691840D01*
X50358639Y-33766429D01*
X50446346Y-33825033D01*
X50543800Y-33865400D01*
X50647258Y-33885979D01*
X50752742Y-33885979D01*
X50856200Y-33865400D01*
X50953654Y-33825033D01*
X51041361Y-33766429D01*
X51115950Y-33691840D01*
X51174554Y-33604133D01*
X51197875Y-33547830D01*
X51212708Y-33570029D01*
X51287297Y-33644618D01*
X51375004Y-33703222D01*
X51472458Y-33743589D01*
X51575916Y-33764168D01*
X51681400Y-33764168D01*
X51784858Y-33743589D01*
X51882312Y-33703222D01*
X51970019Y-33644618D01*
X52044608Y-33570029D01*
X52103212Y-33482322D01*
X52143579Y-33384868D01*
X52164158Y-33281410D01*
X52164158Y-33175926D01*
X52143579Y-33072468D01*
X52103212Y-32975014D01*
X52044608Y-32887307D01*
X51970019Y-32812718D01*
X51882312Y-32754114D01*
X51784858Y-32713747D01*
X51681400Y-32693168D01*
X51575916Y-32693168D01*
X51543641Y-32699588D01*
X51332934Y-32488882D01*
X51323096Y-32476894D01*
X51275283Y-32437656D01*
X51220734Y-32408498D01*
X51161545Y-32390544D01*
X51115412Y-32386000D01*
X51115411Y-32386000D01*
X51099990Y-32384481D01*
X51084569Y-32386000D01*
X47715418Y-32386000D01*
X47699999Y-32384481D01*
X47684580Y-32386000D01*
X47684578Y-32386000D01*
X47638445Y-32390544D01*
X47579256Y-32408498D01*
X47524707Y-32437656D01*
X47476894Y-32476894D01*
X47467060Y-32488877D01*
X46818691Y-33137246D01*
X46835500Y-33052742D01*
X46835500Y-32947258D01*
X46814921Y-32843800D01*
X46774554Y-32746346D01*
X46715950Y-32658639D01*
X46641361Y-32584050D01*
X46553654Y-32525446D01*
X46456200Y-32485079D01*
X46352742Y-32464500D01*
X46247258Y-32464500D01*
X46143800Y-32485079D01*
X46046346Y-32525446D01*
X45958639Y-32584050D01*
X45884050Y-32658639D01*
X45825446Y-32746346D01*
X45785079Y-32843800D01*
X45764500Y-32947258D01*
X45764500Y-33052742D01*
X45770920Y-33085018D01*
X45738878Y-33117060D01*
X45738873Y-33117064D01*
X45169938Y-33686000D01*
X44392990Y-33686000D01*
X44420042Y-33620690D01*
X44440621Y-33517232D01*
X44440621Y-33411748D01*
X44434201Y-33379472D01*
X45045494Y-32768180D01*
X45057477Y-32758346D01*
X45096715Y-32710533D01*
X45125873Y-32655984D01*
X45143827Y-32596795D01*
X45148371Y-32550662D01*
X45149890Y-32535240D01*
X45148371Y-32519819D01*
X45148371Y-32389969D01*
X45175732Y-32371687D01*
X45250321Y-32297098D01*
X45308925Y-32209391D01*
X45349292Y-32111937D01*
X45369871Y-32008479D01*
X45369871Y-31902995D01*
X45349292Y-31799537D01*
X45308925Y-31702083D01*
X45250321Y-31614376D01*
X45175732Y-31539787D01*
X45088025Y-31481183D01*
X45077058Y-31476640D01*
X45111619Y-31393203D01*
X45132198Y-31289745D01*
X45132198Y-31184261D01*
X45111619Y-31080803D01*
X45071252Y-30983349D01*
X45012648Y-30895642D01*
X44938059Y-30821053D01*
X44850352Y-30762449D01*
X44752898Y-30722082D01*
X44649440Y-30701503D01*
X44543956Y-30701503D01*
X44440498Y-30722082D01*
X44343044Y-30762449D01*
X44255337Y-30821053D01*
X44180748Y-30895642D01*
X44162850Y-30922428D01*
X44157014Y-30923003D01*
X44157012Y-30923003D01*
X44110879Y-30927547D01*
X44051690Y-30945501D01*
X43997141Y-30974659D01*
X43949328Y-31013897D01*
X43939494Y-31025880D01*
X42988877Y-31976498D01*
X42976895Y-31986331D01*
X42966531Y-31998960D01*
X42937656Y-32034145D01*
X42908499Y-32088693D01*
X42890544Y-32147883D01*
X42884481Y-32209437D01*
X42886001Y-32224868D01*
X42886001Y-32565768D01*
X42858639Y-32584050D01*
X42814000Y-32628689D01*
X42814000Y-32472443D01*
X42815519Y-32457024D01*
X42813611Y-32437656D01*
X42809456Y-32395470D01*
X42791502Y-32336281D01*
X42762344Y-32281732D01*
X42723106Y-32233919D01*
X42711125Y-32224087D01*
X40429802Y-29942765D01*
X40436222Y-29910489D01*
X40436222Y-29805005D01*
X40415643Y-29701547D01*
X40375276Y-29604093D01*
X40316672Y-29516386D01*
X40242083Y-29441797D01*
X40154376Y-29383193D01*
X40056922Y-29342826D01*
X39953464Y-29322247D01*
X39847980Y-29322247D01*
X39744522Y-29342826D01*
X39647068Y-29383193D01*
X39559361Y-29441797D01*
X39484772Y-29516386D01*
X39426168Y-29604093D01*
X39385801Y-29701547D01*
X39365222Y-29805005D01*
X39365222Y-29910489D01*
X39385801Y-30013947D01*
X39411589Y-30076205D01*
X39352742Y-30064500D01*
X39247258Y-30064500D01*
X39143800Y-30085079D01*
X39046346Y-30125446D01*
X38958639Y-30184050D01*
X38884050Y-30258639D01*
X38825446Y-30346346D01*
X38785079Y-30443800D01*
X38771365Y-30512746D01*
X38707188Y-30576923D01*
X38707183Y-30576927D01*
X35619611Y-33664500D01*
X28261391Y-33664500D01*
X28239999Y-33662393D01*
X28218608Y-33664500D01*
X28218606Y-33664500D01*
X28154627Y-33670801D01*
X28072535Y-33695704D01*
X28025687Y-33720745D01*
X27996878Y-33736143D01*
X27962730Y-33764168D01*
X27930565Y-33790565D01*
X27916927Y-33807183D01*
X26635306Y-35088805D01*
X26556629Y-35056215D01*
X26346912Y-35014500D01*
X26133088Y-35014500D01*
X25923371Y-35056215D01*
X25789878Y-35111510D01*
X27743644Y-33157745D01*
X27775919Y-33164165D01*
X27881403Y-33164165D01*
X27984861Y-33143586D01*
X28082315Y-33103219D01*
X28170022Y-33044615D01*
X28244611Y-32970026D01*
X28262893Y-32942665D01*
X29785354Y-32942665D01*
X29858639Y-33015950D01*
X29946346Y-33074554D01*
X30043800Y-33114921D01*
X30147258Y-33135500D01*
X30252742Y-33135500D01*
X30356200Y-33114921D01*
X30453654Y-33074554D01*
X30541361Y-33015950D01*
X30615950Y-32941361D01*
X30674554Y-32853654D01*
X30714921Y-32756200D01*
X30735500Y-32652742D01*
X30735500Y-32547258D01*
X30714921Y-32443800D01*
X30674554Y-32346346D01*
X30615950Y-32258639D01*
X30541361Y-32184050D01*
X30453654Y-32125446D01*
X30356200Y-32085079D01*
X30252742Y-32064500D01*
X30147258Y-32064500D01*
X30043800Y-32085079D01*
X29946346Y-32125446D01*
X29858639Y-32184050D01*
X29784050Y-32258639D01*
X29746615Y-32314665D01*
X28262893Y-32314665D01*
X28244611Y-32287304D01*
X28170022Y-32212715D01*
X28082315Y-32154111D01*
X27984861Y-32113744D01*
X27881403Y-32093165D01*
X27775919Y-32093165D01*
X27672461Y-32113744D01*
X27575007Y-32154111D01*
X27487300Y-32212715D01*
X27412711Y-32287304D01*
X27354107Y-32375011D01*
X27313740Y-32472465D01*
X27293161Y-32575923D01*
X27293161Y-32681407D01*
X27299581Y-32713682D01*
X26640573Y-33372690D01*
X26707484Y-33225524D01*
X26678380Y-33111500D01*
X25676499Y-33111500D01*
X25676499Y-33668500D01*
X26226499Y-33668500D01*
X26374121Y-33610329D01*
X26454920Y-33558343D01*
X24784543Y-35228721D01*
X24782092Y-35203834D01*
X24768626Y-35159442D01*
X24746758Y-35118530D01*
X24717329Y-35082671D01*
X24681470Y-35053242D01*
X24640558Y-35031374D01*
X24596166Y-35017908D01*
X24550000Y-35013361D01*
X22850000Y-35013361D01*
X22803834Y-35017908D01*
X22759442Y-35031374D01*
X22718530Y-35053242D01*
X22682671Y-35082671D01*
X22653242Y-35118530D01*
X22631374Y-35159442D01*
X22617908Y-35203834D01*
X22613361Y-35250000D01*
X22613361Y-36950000D01*
X22617908Y-36996166D01*
X22631374Y-37040558D01*
X22653242Y-37081470D01*
X22682671Y-37117329D01*
X22709686Y-37139500D01*
X20312740Y-37139500D01*
X20292568Y-37137522D01*
X20285425Y-37135366D01*
X20278837Y-37131862D01*
X20273046Y-37127140D01*
X20268289Y-37121389D01*
X20264737Y-37114821D01*
X20262530Y-37107690D01*
X20260500Y-37088376D01*
X20260500Y-36190000D01*
X20290152Y-36190000D01*
X20295529Y-36244596D01*
X20311454Y-36297093D01*
X20337315Y-36345475D01*
X20372118Y-36387882D01*
X20414525Y-36422685D01*
X20462907Y-36448546D01*
X20515404Y-36464471D01*
X20570000Y-36469848D01*
X21128875Y-36468500D01*
X21198500Y-36398875D01*
X21198500Y-35561500D01*
X21641500Y-35561500D01*
X21641500Y-36398875D01*
X21711125Y-36468500D01*
X22270000Y-36469848D01*
X22324596Y-36464471D01*
X22377093Y-36448546D01*
X22425475Y-36422685D01*
X22467882Y-36387882D01*
X22502685Y-36345475D01*
X22528546Y-36297093D01*
X22544471Y-36244596D01*
X22549848Y-36190000D01*
X22548500Y-35631125D01*
X22478875Y-35561500D01*
X21641500Y-35561500D01*
X21198500Y-35561500D01*
X20361125Y-35561500D01*
X20291500Y-35631125D01*
X20290152Y-36190000D01*
X20260500Y-36190000D01*
X20260500Y-34490000D01*
X20290152Y-34490000D01*
X20291500Y-35048875D01*
X20361125Y-35118500D01*
X21198500Y-35118500D01*
X21198500Y-34281125D01*
X21641500Y-34281125D01*
X21641500Y-35118500D01*
X22478875Y-35118500D01*
X22548500Y-35048875D01*
X22549848Y-34490000D01*
X22544471Y-34435404D01*
X22528546Y-34382907D01*
X22502685Y-34334525D01*
X22467882Y-34292118D01*
X22425475Y-34257315D01*
X22377093Y-34231454D01*
X22324596Y-34215529D01*
X22270000Y-34210152D01*
X21711125Y-34211500D01*
X21641500Y-34281125D01*
X21198500Y-34281125D01*
X21128875Y-34211500D01*
X20570000Y-34210152D01*
X20515404Y-34215529D01*
X20462907Y-34231454D01*
X20414525Y-34257315D01*
X20372118Y-34292118D01*
X20337315Y-34334525D01*
X20311454Y-34382907D01*
X20295529Y-34435404D01*
X20290152Y-34490000D01*
X20260500Y-34490000D01*
X20260500Y-33111502D01*
X20301617Y-33111502D01*
X20272514Y-33225524D01*
X20290809Y-33291856D01*
X20382354Y-33417613D01*
X20496674Y-33523094D01*
X20629375Y-33604246D01*
X20775359Y-33657950D01*
X20929015Y-33682142D01*
X21053499Y-33609958D01*
X21053499Y-33111500D01*
X21496499Y-33111500D01*
X21496499Y-33609958D01*
X21620983Y-33682142D01*
X21774639Y-33657950D01*
X21920623Y-33604246D01*
X22053324Y-33523094D01*
X22167644Y-33417613D01*
X22259189Y-33291856D01*
X22277484Y-33225524D01*
X24202514Y-33225524D01*
X24288316Y-33414240D01*
X24402440Y-33524476D01*
X24535877Y-33610329D01*
X24683499Y-33668500D01*
X25233499Y-33668500D01*
X25233499Y-33111500D01*
X24231618Y-33111500D01*
X24202514Y-33225524D01*
X22277484Y-33225524D01*
X22248380Y-33111500D01*
X21496499Y-33111500D01*
X21053499Y-33111500D01*
X21033499Y-33111500D01*
X21033499Y-32668500D01*
X21053499Y-32668500D01*
X21053499Y-32170042D01*
X21496499Y-32170042D01*
X21496499Y-32668500D01*
X22248380Y-32668500D01*
X22277484Y-32554476D01*
X24202514Y-32554476D01*
X24231618Y-32668500D01*
X25233499Y-32668500D01*
X25233499Y-32111500D01*
X25676499Y-32111500D01*
X25676499Y-32668500D01*
X26678380Y-32668500D01*
X26707484Y-32554476D01*
X26621682Y-32365760D01*
X26507558Y-32255524D01*
X26374121Y-32169671D01*
X26226499Y-32111500D01*
X25676499Y-32111500D01*
X25233499Y-32111500D01*
X24683499Y-32111500D01*
X24535877Y-32169671D01*
X24402440Y-32255524D01*
X24288316Y-32365760D01*
X24202514Y-32554476D01*
X22277484Y-32554476D01*
X22259189Y-32488144D01*
X22167644Y-32362387D01*
X22053324Y-32256906D01*
X21920623Y-32175754D01*
X21774639Y-32122050D01*
X21620983Y-32097858D01*
X21496499Y-32170042D01*
X21053499Y-32170042D01*
X20929015Y-32097858D01*
X20775359Y-32122050D01*
X20629375Y-32175754D01*
X20496674Y-32256906D01*
X20382354Y-32362387D01*
X20290809Y-32488144D01*
X20272514Y-32554476D01*
X20301617Y-32668498D01*
X20260500Y-32668498D01*
X20260500Y-24471502D01*
X20301617Y-24471502D01*
X20272514Y-24585524D01*
X20290809Y-24651856D01*
X20382354Y-24777613D01*
X20496674Y-24883094D01*
X20629375Y-24964246D01*
X20775359Y-25017950D01*
X20929015Y-25042142D01*
X21053499Y-24969958D01*
X21053499Y-24471500D01*
X21496499Y-24471500D01*
X21496499Y-24969958D01*
X21620983Y-25042142D01*
X21774639Y-25017950D01*
X21920623Y-24964246D01*
X22053324Y-24883094D01*
X22167644Y-24777613D01*
X22259189Y-24651856D01*
X22277484Y-24585524D01*
X22248380Y-24471500D01*
X21496499Y-24471500D01*
X21053499Y-24471500D01*
X21033499Y-24471500D01*
X21033499Y-24028500D01*
X21053499Y-24028500D01*
X21053499Y-23530042D01*
X21496499Y-23530042D01*
X21496499Y-24028500D01*
X22248380Y-24028500D01*
X22277484Y-23914476D01*
X22259189Y-23848144D01*
X22167644Y-23722387D01*
X22053324Y-23616906D01*
X21920623Y-23535754D01*
X21774639Y-23482050D01*
X21620983Y-23457858D01*
X21496499Y-23530042D01*
X21053499Y-23530042D01*
X20929015Y-23457858D01*
X20775359Y-23482050D01*
X20629375Y-23535754D01*
X20496674Y-23616906D01*
X20382354Y-23722387D01*
X20290809Y-23848144D01*
X20272514Y-23914476D01*
X20301617Y-24028498D01*
X20260500Y-24028498D01*
X20260500Y-20112740D01*
X20262478Y-20092568D01*
X20264634Y-20085427D01*
X20268139Y-20078835D01*
X20272861Y-20073045D01*
X20278608Y-20068290D01*
X20285179Y-20064738D01*
X20292311Y-20062530D01*
X20311624Y-20060500D01*
X22709686Y-20060500D01*
X22682671Y-20082671D01*
G37*
X22682671Y-20082671D02*
X22653242Y-20118530D01*
X22631374Y-20159442D01*
X22617908Y-20203834D01*
X22613361Y-20250000D01*
X22613361Y-21950000D01*
X22617908Y-21996166D01*
X22631374Y-22040558D01*
X22653242Y-22081470D01*
X22682671Y-22117329D01*
X22718530Y-22146758D01*
X22759442Y-22168626D01*
X22803834Y-22182092D01*
X22850000Y-22186639D01*
X24550000Y-22186639D01*
X24596166Y-22182092D01*
X24640558Y-22168626D01*
X24681470Y-22146758D01*
X24717329Y-22117329D01*
X24746758Y-22081470D01*
X24768626Y-22040558D01*
X24782092Y-21996166D01*
X24786639Y-21950000D01*
X24786639Y-20250000D01*
X24782092Y-20203834D01*
X24768626Y-20159442D01*
X24746758Y-20118530D01*
X24717329Y-20082671D01*
X24690314Y-20060500D01*
X25913026Y-20060500D01*
X25725823Y-20138043D01*
X25548034Y-20256837D01*
X25396837Y-20408034D01*
X25278043Y-20585823D01*
X25196215Y-20783371D01*
X25154500Y-20993088D01*
X25154500Y-21206912D01*
X25196215Y-21416629D01*
X25278043Y-21614177D01*
X25396837Y-21791966D01*
X25548034Y-21943163D01*
X25725823Y-22061957D01*
X25923371Y-22143785D01*
X26133088Y-22185500D01*
X26346912Y-22185500D01*
X26556629Y-22143785D01*
X26754177Y-22061957D01*
X26931966Y-21943163D01*
X27083163Y-21791966D01*
X27201957Y-21614177D01*
X27283785Y-21416629D01*
X27325500Y-21206912D01*
X27325500Y-20993088D01*
X27283785Y-20783371D01*
X27201957Y-20585823D01*
X27083163Y-20408034D01*
X26931966Y-20256837D01*
X26754177Y-20138043D01*
X26566974Y-20060500D01*
X28453026Y-20060500D01*
X28265823Y-20138043D01*
X28088034Y-20256837D01*
X27936837Y-20408034D01*
X27818043Y-20585823D01*
X27736215Y-20783371D01*
X27694500Y-20993088D01*
X27694500Y-21206912D01*
X27736215Y-21416629D01*
X27818043Y-21614177D01*
X27936837Y-21791966D01*
X28088034Y-21943163D01*
X28265823Y-22061957D01*
X28463371Y-22143785D01*
X28673088Y-22185500D01*
X28886912Y-22185500D01*
X29096629Y-22143785D01*
X29294177Y-22061957D01*
X29471966Y-21943163D01*
X29623163Y-21791966D01*
X29741957Y-21614177D01*
X29823785Y-21416629D01*
X29865500Y-21206912D01*
X29865500Y-20993088D01*
X29823785Y-20783371D01*
X29741957Y-20585823D01*
X29623163Y-20408034D01*
X29471966Y-20256837D01*
X29294177Y-20138043D01*
X29106974Y-20060500D01*
X30993026Y-20060500D01*
X30805823Y-20138043D01*
X30628034Y-20256837D01*
X30476837Y-20408034D01*
X30358043Y-20585823D01*
X30276215Y-20783371D01*
X30234500Y-20993088D01*
X30234500Y-21206912D01*
X30276215Y-21416629D01*
X30358043Y-21614177D01*
X30476837Y-21791966D01*
X30628034Y-21943163D01*
X30805823Y-22061957D01*
X31003371Y-22143785D01*
X31006001Y-22144308D01*
X31006001Y-22503165D01*
X31004481Y-22518596D01*
X31010544Y-22580150D01*
X31028499Y-22639340D01*
X31052948Y-22685079D01*
X31057657Y-22693889D01*
X31096895Y-22741702D01*
X31108877Y-22751535D01*
X31371622Y-23014281D01*
X31365202Y-23046556D01*
X31365202Y-23152040D01*
X31385781Y-23255498D01*
X31426148Y-23352952D01*
X31484752Y-23440659D01*
X31559341Y-23515248D01*
X31647048Y-23573852D01*
X31744502Y-23614219D01*
X31847960Y-23634798D01*
X31953444Y-23634798D01*
X32056902Y-23614219D01*
X32154356Y-23573852D01*
X32242063Y-23515248D01*
X32316652Y-23440659D01*
X32375256Y-23352952D01*
X32415623Y-23255498D01*
X32436202Y-23152040D01*
X32436202Y-23046556D01*
X32415623Y-22943098D01*
X32375256Y-22845644D01*
X32316652Y-22757937D01*
X32242063Y-22683348D01*
X32154356Y-22624744D01*
X32056902Y-22584377D01*
X31953444Y-22563798D01*
X31847960Y-22563798D01*
X31815685Y-22570218D01*
X31634000Y-22388534D01*
X31634000Y-22144308D01*
X31636629Y-22143785D01*
X31834177Y-22061957D01*
X32011966Y-21943163D01*
X32163163Y-21791966D01*
X32281957Y-21614177D01*
X32363785Y-21416629D01*
X32405500Y-21206912D01*
X32405500Y-20993088D01*
X32363785Y-20783371D01*
X32281957Y-20585823D01*
X32163163Y-20408034D01*
X32011966Y-20256837D01*
X31834177Y-20138043D01*
X31646974Y-20060500D01*
X33533026Y-20060500D01*
X33345823Y-20138043D01*
X33168034Y-20256837D01*
X33016837Y-20408034D01*
X32898043Y-20585823D01*
X32816215Y-20783371D01*
X32774500Y-20993088D01*
X32774500Y-21206912D01*
X32816215Y-21416629D01*
X32898043Y-21614177D01*
X33016837Y-21791966D01*
X33168034Y-21943163D01*
X33345823Y-22061957D01*
X33543371Y-22143785D01*
X33753088Y-22185500D01*
X33966912Y-22185500D01*
X34176629Y-22143785D01*
X34374177Y-22061957D01*
X34551966Y-21943163D01*
X34703163Y-21791966D01*
X34821957Y-21614177D01*
X34903785Y-21416629D01*
X34945500Y-21206912D01*
X34945500Y-20993088D01*
X34903785Y-20783371D01*
X34821957Y-20585823D01*
X34703163Y-20408034D01*
X34551966Y-20256837D01*
X34374177Y-20138043D01*
X34186974Y-20060500D01*
X36073026Y-20060500D01*
X35885823Y-20138043D01*
X35708034Y-20256837D01*
X35556837Y-20408034D01*
X35438043Y-20585823D01*
X35356215Y-20783371D01*
X35314500Y-20993088D01*
X35314500Y-21206912D01*
X35356215Y-21416629D01*
X35438043Y-21614177D01*
X35556837Y-21791966D01*
X35708034Y-21943163D01*
X35885823Y-22061957D01*
X36083371Y-22143785D01*
X36293088Y-22185500D01*
X36506912Y-22185500D01*
X36716629Y-22143785D01*
X36914177Y-22061957D01*
X37091966Y-21943163D01*
X37243163Y-21791966D01*
X37361957Y-21614177D01*
X37443785Y-21416629D01*
X37485500Y-21206912D01*
X37485500Y-20993088D01*
X37443785Y-20783371D01*
X37361957Y-20585823D01*
X37243163Y-20408034D01*
X37091966Y-20256837D01*
X36914177Y-20138043D01*
X36726974Y-20060500D01*
X38613026Y-20060500D01*
X38425823Y-20138043D01*
X38248034Y-20256837D01*
X38096837Y-20408034D01*
X37978043Y-20585823D01*
X37896215Y-20783371D01*
X37854500Y-20993088D01*
X37854500Y-21206912D01*
X37896215Y-21416629D01*
X37978043Y-21614177D01*
X38096837Y-21791966D01*
X38248034Y-21943163D01*
X38425823Y-22061957D01*
X38623371Y-22143785D01*
X38833088Y-22185500D01*
X39046912Y-22185500D01*
X39256629Y-22143785D01*
X39454177Y-22061957D01*
X39631966Y-21943163D01*
X39664500Y-21910629D01*
X39664500Y-21952742D01*
X39685079Y-22056200D01*
X39725446Y-22153654D01*
X39784050Y-22241361D01*
X39858639Y-22315950D01*
X39946346Y-22374554D01*
X39973979Y-22386000D01*
X39215421Y-22386000D01*
X39200000Y-22384481D01*
X39184578Y-22386000D01*
X39138445Y-22390544D01*
X39079256Y-22408498D01*
X39024707Y-22437656D01*
X38976894Y-22476894D01*
X38967063Y-22488874D01*
X38785017Y-22670920D01*
X38752742Y-22664500D01*
X38647258Y-22664500D01*
X38543800Y-22685079D01*
X38446346Y-22725446D01*
X38358639Y-22784050D01*
X38284050Y-22858639D01*
X38225446Y-22946346D01*
X38185079Y-23043800D01*
X38164500Y-23147258D01*
X38164500Y-23252742D01*
X38185079Y-23356200D01*
X38225446Y-23453654D01*
X38284050Y-23541361D01*
X38358639Y-23615950D01*
X38446346Y-23674554D01*
X38543800Y-23714921D01*
X38647258Y-23735500D01*
X38752742Y-23735500D01*
X38856200Y-23714921D01*
X38953654Y-23674554D01*
X39041361Y-23615950D01*
X39115950Y-23541361D01*
X39174554Y-23453654D01*
X39214921Y-23356200D01*
X39235500Y-23252742D01*
X39235500Y-23147258D01*
X39229080Y-23114983D01*
X39330063Y-23014000D01*
X44944579Y-23014000D01*
X44960000Y-23015519D01*
X44975421Y-23014000D01*
X44975422Y-23014000D01*
X45021555Y-23009456D01*
X45080744Y-22991502D01*
X45135293Y-22962344D01*
X45183106Y-22923106D01*
X45192944Y-22911118D01*
X46043595Y-22060468D01*
X46045823Y-22061957D01*
X46243371Y-22143785D01*
X46453088Y-22185500D01*
X46666912Y-22185500D01*
X46876629Y-22143785D01*
X47074177Y-22061957D01*
X47251966Y-21943163D01*
X47403163Y-21791966D01*
X47521957Y-21614177D01*
X47603785Y-21416629D01*
X47645500Y-21206912D01*
X47645500Y-20993088D01*
X47603785Y-20783371D01*
X47521957Y-20585823D01*
X47403163Y-20408034D01*
X47251966Y-20256837D01*
X47074177Y-20138043D01*
X46886974Y-20060500D01*
X48773026Y-20060500D01*
X48585823Y-20138043D01*
X48408034Y-20256837D01*
X48256837Y-20408034D01*
X48138043Y-20585823D01*
X48056215Y-20783371D01*
X48014500Y-20993088D01*
X48014500Y-21206912D01*
X48056215Y-21416629D01*
X48138043Y-21614177D01*
X48256837Y-21791966D01*
X48408034Y-21943163D01*
X48585823Y-22061957D01*
X48783371Y-22143785D01*
X48993088Y-22185500D01*
X49206912Y-22185500D01*
X49416629Y-22143785D01*
X49614177Y-22061957D01*
X49791966Y-21943163D01*
X49943163Y-21791966D01*
X50061957Y-21614177D01*
X50112615Y-21491877D01*
X50581714Y-21491877D01*
X50678500Y-21690809D01*
X50812236Y-21867036D01*
X50977783Y-22013786D01*
X51168778Y-22125420D01*
X51248125Y-22158275D01*
X51418500Y-22135449D01*
X51418500Y-21321500D01*
X51861500Y-21321500D01*
X51861500Y-22135449D01*
X52031875Y-22158275D01*
X52111222Y-22125420D01*
X52302217Y-22013786D01*
X52467764Y-21867036D01*
X52601500Y-21690809D01*
X52698286Y-21491877D01*
X52676935Y-21321500D01*
X51861500Y-21321500D01*
X51418500Y-21321500D01*
X50603065Y-21321500D01*
X50581714Y-21491877D01*
X50112615Y-21491877D01*
X50143785Y-21416629D01*
X50185500Y-21206912D01*
X50185500Y-20993088D01*
X50143785Y-20783371D01*
X50061957Y-20585823D01*
X49943163Y-20408034D01*
X49791966Y-20256837D01*
X49614177Y-20138043D01*
X49426974Y-20060500D01*
X51202782Y-20060500D01*
X51168778Y-20074580D01*
X50977783Y-20186214D01*
X50812236Y-20332964D01*
X50678500Y-20509191D01*
X50581714Y-20708123D01*
X50603065Y-20878500D01*
X51418500Y-20878500D01*
X51418500Y-20858500D01*
X51861500Y-20858500D01*
X51861500Y-20878500D01*
X52676935Y-20878500D01*
X52698286Y-20708123D01*
X52601500Y-20509191D01*
X52467764Y-20332964D01*
X52302217Y-20186214D01*
X52111222Y-20074580D01*
X52077218Y-20060500D01*
X53853026Y-20060500D01*
X53665823Y-20138043D01*
X53488034Y-20256837D01*
X53336837Y-20408034D01*
X53218043Y-20585823D01*
X53136215Y-20783371D01*
X53094500Y-20993088D01*
X53094500Y-21206912D01*
X53136215Y-21416629D01*
X53218043Y-21614177D01*
X53336837Y-21791966D01*
X53488034Y-21943163D01*
X53665823Y-22061957D01*
X53863371Y-22143785D01*
X54073088Y-22185500D01*
X54286912Y-22185500D01*
X54496629Y-22143785D01*
X54694177Y-22061957D01*
X54871966Y-21943163D01*
X55023163Y-21791966D01*
X55141957Y-21614177D01*
X55223785Y-21416629D01*
X55265500Y-21206912D01*
X55265500Y-20993088D01*
X55223785Y-20783371D01*
X55141957Y-20585823D01*
X55023163Y-20408034D01*
X54871966Y-20256837D01*
X54694177Y-20138043D01*
X54506974Y-20060500D01*
X56393026Y-20060500D01*
X56205823Y-20138043D01*
X56028034Y-20256837D01*
X55876837Y-20408034D01*
X55758043Y-20585823D01*
X55676215Y-20783371D01*
X55634500Y-20993088D01*
X55634500Y-21206912D01*
X55676215Y-21416629D01*
X55758043Y-21614177D01*
X55876837Y-21791966D01*
X56028034Y-21943163D01*
X56205823Y-22061957D01*
X56403371Y-22143785D01*
X56613088Y-22185500D01*
X56826912Y-22185500D01*
X57036629Y-22143785D01*
X57234177Y-22061957D01*
X57411966Y-21943163D01*
X57563163Y-21791966D01*
X57681957Y-21614177D01*
X57763785Y-21416629D01*
X57805500Y-21206912D01*
X57805500Y-20993088D01*
X57763785Y-20783371D01*
X57681957Y-20585823D01*
X57563163Y-20408034D01*
X57411966Y-20256837D01*
X57234177Y-20138043D01*
X57046974Y-20060500D01*
X58933026Y-20060500D01*
X58745823Y-20138043D01*
X58568034Y-20256837D01*
X58416837Y-20408034D01*
X58298043Y-20585823D01*
X58216215Y-20783371D01*
X58174500Y-20993088D01*
X58174500Y-21206912D01*
X58216215Y-21416629D01*
X58298043Y-21614177D01*
X58416837Y-21791966D01*
X58568034Y-21943163D01*
X58745823Y-22061957D01*
X58943371Y-22143785D01*
X59153088Y-22185500D01*
X59366912Y-22185500D01*
X59576629Y-22143785D01*
X59774177Y-22061957D01*
X59951966Y-21943163D01*
X60103163Y-21791966D01*
X60221957Y-21614177D01*
X60303785Y-21416629D01*
X60345500Y-21206912D01*
X60345500Y-20993088D01*
X60303785Y-20783371D01*
X60221957Y-20585823D01*
X60103163Y-20408034D01*
X59951966Y-20256837D01*
X59774177Y-20138043D01*
X59586974Y-20060500D01*
X62887260Y-20060500D01*
X62907432Y-20062478D01*
X62914573Y-20064634D01*
X62921165Y-20068139D01*
X62926955Y-20072861D01*
X62931710Y-20078608D01*
X62935262Y-20085179D01*
X62937470Y-20092311D01*
X62939500Y-20111624D01*
X62939501Y-37087250D01*
X62937522Y-37107432D01*
X62935366Y-37114575D01*
X62931862Y-37121163D01*
X62927140Y-37126954D01*
X62921389Y-37131711D01*
X62914821Y-37135263D01*
X62907690Y-37137470D01*
X62888376Y-37139500D01*
X59586974Y-37139500D01*
X59774177Y-37061957D01*
X59951966Y-36943163D01*
X60103163Y-36791966D01*
X60221957Y-36614177D01*
X60303785Y-36416629D01*
X60345500Y-36206912D01*
X60345500Y-35993088D01*
X60303785Y-35783371D01*
X60221957Y-35585823D01*
X60103163Y-35408034D01*
X59951966Y-35256837D01*
X59774177Y-35138043D01*
X59576629Y-35056215D01*
X59477010Y-35036400D01*
X59465918Y-35030471D01*
X59364975Y-34999850D01*
X59260000Y-34989511D01*
X59155024Y-34999850D01*
X59054081Y-35030471D01*
X59042989Y-35036400D01*
X58943371Y-35056215D01*
X58745823Y-35138043D01*
X58568034Y-35256837D01*
X58416837Y-35408034D01*
X58298043Y-35585823D01*
X58216215Y-35783371D01*
X58174500Y-35993088D01*
X58174500Y-36206912D01*
X58216215Y-36416629D01*
X58298043Y-36614177D01*
X58416837Y-36791966D01*
X58568034Y-36943163D01*
X58745823Y-37061957D01*
X58933026Y-37139500D01*
X57157218Y-37139500D01*
X57191222Y-37125420D01*
X57382217Y-37013786D01*
X57547764Y-36867036D01*
X57681500Y-36690809D01*
X57778286Y-36491877D01*
X57756935Y-36321500D01*
X56941500Y-36321500D01*
X56941500Y-36341500D01*
X56498500Y-36341500D01*
X56498500Y-36321500D01*
X55683065Y-36321500D01*
X55661714Y-36491877D01*
X55758500Y-36690809D01*
X55892236Y-36867036D01*
X56057783Y-37013786D01*
X56248778Y-37125420D01*
X56282782Y-37139500D01*
X54506974Y-37139500D01*
X54694177Y-37061957D01*
X54871966Y-36943163D01*
X55023163Y-36791966D01*
X55141957Y-36614177D01*
X55223785Y-36416629D01*
X55265500Y-36206912D01*
X55265500Y-35993088D01*
X55223785Y-35783371D01*
X55192616Y-35708123D01*
X55661714Y-35708123D01*
X55683065Y-35878500D01*
X56498500Y-35878500D01*
X56498500Y-35064551D01*
X56941500Y-35064551D01*
X56941500Y-35878500D01*
X57756935Y-35878500D01*
X57778286Y-35708123D01*
X57681500Y-35509191D01*
X57547764Y-35332964D01*
X57382217Y-35186214D01*
X57191222Y-35074580D01*
X57111875Y-35041725D01*
X56941500Y-35064551D01*
X56498500Y-35064551D01*
X56328125Y-35041725D01*
X56248778Y-35074580D01*
X56057783Y-35186214D01*
X55892236Y-35332964D01*
X55758500Y-35509191D01*
X55661714Y-35708123D01*
X55192616Y-35708123D01*
X55141957Y-35585823D01*
X55023163Y-35408034D01*
X54871966Y-35256837D01*
X54694177Y-35138043D01*
X54496629Y-35056215D01*
X54286912Y-35014500D01*
X54175672Y-35014500D01*
X54214927Y-34919730D01*
X54235506Y-34816272D01*
X54235506Y-34710788D01*
X54214927Y-34607330D01*
X54174560Y-34509876D01*
X54135506Y-34451428D01*
X54135506Y-32861875D01*
X58141725Y-32861875D01*
X58174580Y-32941222D01*
X58286214Y-33132217D01*
X58432964Y-33297764D01*
X58609191Y-33431500D01*
X58808123Y-33528286D01*
X58978500Y-33506935D01*
X58978500Y-32691500D01*
X59421500Y-32691500D01*
X59421500Y-33506935D01*
X59591877Y-33528286D01*
X59790809Y-33431500D01*
X59967036Y-33297764D01*
X60113786Y-33132217D01*
X60225420Y-32941222D01*
X60258275Y-32861875D01*
X60235449Y-32691500D01*
X59421500Y-32691500D01*
X58978500Y-32691500D01*
X58164551Y-32691500D01*
X58141725Y-32861875D01*
X54135506Y-32861875D01*
X54135506Y-32078125D01*
X58141725Y-32078125D01*
X58164551Y-32248500D01*
X58978500Y-32248500D01*
X58978500Y-31433065D01*
X59421500Y-31433065D01*
X59421500Y-32248500D01*
X60235449Y-32248500D01*
X60258275Y-32078125D01*
X60225420Y-31998778D01*
X60113786Y-31807783D01*
X59967036Y-31642236D01*
X59790809Y-31508500D01*
X59591877Y-31411714D01*
X59421500Y-31433065D01*
X58978500Y-31433065D01*
X58808123Y-31411714D01*
X58609191Y-31508500D01*
X58432964Y-31642236D01*
X58286214Y-31807783D01*
X58174580Y-31998778D01*
X58141725Y-32078125D01*
X54135506Y-32078125D01*
X54135506Y-31021397D01*
X54137613Y-31000006D01*
X54135506Y-30978612D01*
X54129205Y-30914633D01*
X54104302Y-30832541D01*
X54094726Y-30814626D01*
X54063863Y-30756884D01*
X54023078Y-30707188D01*
X54009441Y-30690571D01*
X53992825Y-30676935D01*
X53138978Y-29823088D01*
X58114500Y-29823088D01*
X58114500Y-30036912D01*
X58156215Y-30246629D01*
X58238043Y-30444177D01*
X58356837Y-30621966D01*
X58508034Y-30773163D01*
X58685823Y-30891957D01*
X58883371Y-30973785D01*
X59093088Y-31015500D01*
X59306912Y-31015500D01*
X59516629Y-30973785D01*
X59714177Y-30891957D01*
X59891966Y-30773163D01*
X60043163Y-30621966D01*
X60161957Y-30444177D01*
X60243785Y-30246629D01*
X60285500Y-30036912D01*
X60285500Y-29823088D01*
X60243785Y-29613371D01*
X60161957Y-29415823D01*
X60043163Y-29238034D01*
X59891966Y-29086837D01*
X59714177Y-28968043D01*
X59516629Y-28886215D01*
X59306912Y-28844500D01*
X59093088Y-28844500D01*
X58883371Y-28886215D01*
X58685823Y-28968043D01*
X58508034Y-29086837D01*
X58356837Y-29238034D01*
X58238043Y-29415823D01*
X58156215Y-29613371D01*
X58114500Y-29823088D01*
X53138978Y-29823088D01*
X50598978Y-27283088D01*
X58114500Y-27283088D01*
X58114500Y-27496912D01*
X58156215Y-27706629D01*
X58238043Y-27904177D01*
X58356837Y-28081966D01*
X58508034Y-28233163D01*
X58685823Y-28351957D01*
X58883371Y-28433785D01*
X59093088Y-28475500D01*
X59306912Y-28475500D01*
X59516629Y-28433785D01*
X59714177Y-28351957D01*
X59891966Y-28233163D01*
X60043163Y-28081966D01*
X60161957Y-27904177D01*
X60243785Y-27706629D01*
X60285500Y-27496912D01*
X60285500Y-27283088D01*
X60243785Y-27073371D01*
X60161957Y-26875823D01*
X60043163Y-26698034D01*
X59891966Y-26546837D01*
X59714177Y-26428043D01*
X59516629Y-26346215D01*
X59306912Y-26304500D01*
X59093088Y-26304500D01*
X58883371Y-26346215D01*
X58685823Y-26428043D01*
X58508034Y-26546837D01*
X58356837Y-26698034D01*
X58238043Y-26875823D01*
X58156215Y-27073371D01*
X58114500Y-27283088D01*
X50598978Y-27283088D01*
X48793148Y-25477258D01*
X50334500Y-25477258D01*
X50334500Y-25582742D01*
X50355079Y-25686200D01*
X50395446Y-25783654D01*
X50454050Y-25871361D01*
X50528639Y-25945950D01*
X50616346Y-26004554D01*
X50713800Y-26044921D01*
X50817258Y-26065500D01*
X50922742Y-26065500D01*
X51026200Y-26044921D01*
X51123654Y-26004554D01*
X51211361Y-25945950D01*
X51285950Y-25871361D01*
X51344554Y-25783654D01*
X51384921Y-25686200D01*
X51405500Y-25582742D01*
X51405500Y-25477258D01*
X51384921Y-25373800D01*
X51380627Y-25363435D01*
X52744062Y-24000000D01*
X58113361Y-24000000D01*
X58113361Y-25700000D01*
X58117908Y-25746166D01*
X58131374Y-25790558D01*
X58153242Y-25831470D01*
X58182671Y-25867329D01*
X58218530Y-25896758D01*
X58259442Y-25918626D01*
X58303834Y-25932092D01*
X58350000Y-25936639D01*
X60050000Y-25936639D01*
X60096166Y-25932092D01*
X60140558Y-25918626D01*
X60181470Y-25896758D01*
X60217329Y-25867329D01*
X60246758Y-25831470D01*
X60268626Y-25790558D01*
X60282092Y-25746166D01*
X60286639Y-25700000D01*
X60286639Y-24000000D01*
X60282092Y-23953834D01*
X60268626Y-23909442D01*
X60246758Y-23868530D01*
X60217329Y-23832671D01*
X60181470Y-23803242D01*
X60140558Y-23781374D01*
X60096166Y-23767908D01*
X60050000Y-23763361D01*
X58350000Y-23763361D01*
X58303834Y-23767908D01*
X58259442Y-23781374D01*
X58218530Y-23803242D01*
X58182671Y-23832671D01*
X58153242Y-23868530D01*
X58131374Y-23909442D01*
X58117908Y-23953834D01*
X58113361Y-24000000D01*
X52744062Y-24000000D01*
X53214983Y-23529080D01*
X53247258Y-23535500D01*
X53352742Y-23535500D01*
X53456200Y-23514921D01*
X53553654Y-23474554D01*
X53641361Y-23415950D01*
X53715950Y-23341361D01*
X53774554Y-23253654D01*
X53814921Y-23156200D01*
X53835500Y-23052742D01*
X53835500Y-22947258D01*
X53814921Y-22843800D01*
X53774554Y-22746346D01*
X53715950Y-22658639D01*
X53641361Y-22584050D01*
X53553654Y-22525446D01*
X53456200Y-22485079D01*
X53352742Y-22464500D01*
X53247258Y-22464500D01*
X53143800Y-22485079D01*
X53046346Y-22525446D01*
X52958639Y-22584050D01*
X52884050Y-22658639D01*
X52825446Y-22746346D01*
X52785079Y-22843800D01*
X52764500Y-22947258D01*
X52764500Y-23052742D01*
X52770920Y-23085017D01*
X50861438Y-24994500D01*
X50817258Y-24994500D01*
X50713800Y-25015079D01*
X50616346Y-25055446D01*
X50528639Y-25114050D01*
X50454050Y-25188639D01*
X50395446Y-25276346D01*
X50355079Y-25373800D01*
X50334500Y-25477258D01*
X48793148Y-25477258D01*
X46829592Y-23513703D01*
X46827752Y-23495024D01*
X46820078Y-23469727D01*
X46814921Y-23443800D01*
X46804804Y-23419376D01*
X46797131Y-23394081D01*
X46784671Y-23370769D01*
X46774554Y-23346346D01*
X46759866Y-23324364D01*
X46747406Y-23301053D01*
X46730637Y-23280620D01*
X46715950Y-23258639D01*
X46697260Y-23239949D01*
X46680488Y-23219512D01*
X46660051Y-23202740D01*
X46641361Y-23184050D01*
X46619380Y-23169363D01*
X46598947Y-23152594D01*
X46575637Y-23140134D01*
X46553654Y-23125446D01*
X46529227Y-23115328D01*
X46505918Y-23102869D01*
X46480626Y-23095197D01*
X46456200Y-23085079D01*
X46430270Y-23079921D01*
X46404975Y-23072248D01*
X46378668Y-23069657D01*
X46352742Y-23064500D01*
X46326307Y-23064500D01*
X46300000Y-23061909D01*
X46273693Y-23064500D01*
X46247258Y-23064500D01*
X46221332Y-23069657D01*
X46195024Y-23072248D01*
X46169727Y-23079922D01*
X46143800Y-23085079D01*
X46119376Y-23095196D01*
X46094081Y-23102869D01*
X46070769Y-23115329D01*
X46046346Y-23125446D01*
X46024364Y-23140134D01*
X46001053Y-23152594D01*
X45980620Y-23169363D01*
X45958639Y-23184050D01*
X45939949Y-23202740D01*
X45919512Y-23219512D01*
X45902740Y-23239949D01*
X45884050Y-23258639D01*
X45869363Y-23280620D01*
X45852594Y-23301053D01*
X45840134Y-23324363D01*
X45825446Y-23346346D01*
X45815328Y-23370773D01*
X45802869Y-23394082D01*
X45795197Y-23419374D01*
X45785079Y-23443800D01*
X45779921Y-23469730D01*
X45772248Y-23495025D01*
X45769657Y-23521331D01*
X45764500Y-23547258D01*
X45764500Y-24007498D01*
X27245667Y-24007498D01*
X27219362Y-24004907D01*
X27193057Y-24007498D01*
X27193056Y-24007498D01*
X27114387Y-24015246D01*
X27013444Y-24045867D01*
X26920415Y-24095592D01*
X26859308Y-24145741D01*
X26838875Y-24162510D01*
X26822108Y-24182942D01*
X26783499Y-24221551D01*
X26783499Y-24028498D01*
X26678381Y-24028498D01*
X26707484Y-23914476D01*
X26621682Y-23725760D01*
X26507558Y-23615524D01*
X26374121Y-23529671D01*
X26226499Y-23471500D01*
X25676499Y-23471500D01*
X25676499Y-24028500D01*
X25696499Y-24028500D01*
X25696499Y-24471500D01*
X25676499Y-24471500D01*
X25676499Y-25028500D01*
X25976550Y-25028500D01*
X25840550Y-25164500D01*
X25145129Y-25164500D01*
X25088491Y-25141040D01*
X24980203Y-25119500D01*
X24869795Y-25119500D01*
X24761507Y-25141040D01*
X24704869Y-25164500D01*
X24285500Y-25164500D01*
X24285500Y-24768046D01*
X24288316Y-24774240D01*
X24402440Y-24884476D01*
X24535877Y-24970329D01*
X24683499Y-25028500D01*
X25233499Y-25028500D01*
X25233499Y-24471500D01*
X25213499Y-24471500D01*
X25213499Y-24028500D01*
X25233499Y-24028500D01*
X25233499Y-23471500D01*
X24683499Y-23471500D01*
X24535877Y-23529671D01*
X24402440Y-23615524D01*
X24288316Y-23725760D01*
X24252061Y-23805501D01*
X24239965Y-23765628D01*
X24180955Y-23655227D01*
X24101540Y-23558460D01*
X24077299Y-23538566D01*
X22506639Y-21967907D01*
X22506639Y-20930000D01*
X22502092Y-20883834D01*
X22488626Y-20839442D01*
X22466758Y-20798530D01*
X22437329Y-20762671D01*
X22401470Y-20733242D01*
X22360558Y-20711374D01*
X22316166Y-20697908D01*
X22270000Y-20693361D01*
X20570000Y-20693361D01*
X20523834Y-20697908D01*
X20479442Y-20711374D01*
X20438530Y-20733242D01*
X20402671Y-20762671D01*
X20373242Y-20798530D01*
X20351374Y-20839442D01*
X20337908Y-20883834D01*
X20333361Y-20930000D01*
X20333361Y-22630000D01*
X20337908Y-22676166D01*
X20351374Y-22720558D01*
X20373242Y-22761470D01*
X20402671Y-22797329D01*
X20438530Y-22826758D01*
X20479442Y-22848626D01*
X20523834Y-22862092D01*
X20570000Y-22866639D01*
X21607907Y-22866639D01*
X23014500Y-24273233D01*
X23014501Y-25968787D01*
X23011427Y-26000000D01*
X23023696Y-26124579D01*
X23060035Y-26244371D01*
X23118797Y-26354308D01*
X23119046Y-26354773D01*
X23198461Y-26451540D01*
X23222708Y-26471439D01*
X23664500Y-26913232D01*
X23664500Y-31800000D01*
X23669025Y-31845944D01*
X23682426Y-31890122D01*
X23704189Y-31930837D01*
X23733476Y-31966524D01*
X23769163Y-31995811D01*
X23809878Y-32017574D01*
X23854056Y-32030975D01*
X23900000Y-32035500D01*
X28100000Y-32035500D01*
X28145944Y-32030975D01*
X28190122Y-32017574D01*
X28230837Y-31995811D01*
X28266524Y-31966524D01*
X28295811Y-31930837D01*
X28317574Y-31890122D01*
X28330975Y-31845944D01*
X28335500Y-31800000D01*
X28335500Y-30508562D01*
X28804113Y-30039950D01*
X28816096Y-30030116D01*
X28855334Y-29982303D01*
X28884492Y-29927754D01*
X28902446Y-29868565D01*
X28906990Y-29822432D01*
X28906990Y-29822430D01*
X28908509Y-29807011D01*
X28906990Y-29791592D01*
X28906990Y-28934232D01*
X28934351Y-28915950D01*
X29008940Y-28841361D01*
X29067544Y-28753654D01*
X29107911Y-28656200D01*
X29128490Y-28552742D01*
X29128490Y-28447258D01*
X29108168Y-28345092D01*
X29161943Y-28425572D01*
X29236532Y-28500161D01*
X29240126Y-28502563D01*
X29184050Y-28558639D01*
X29125446Y-28646346D01*
X29085079Y-28743800D01*
X29064500Y-28847258D01*
X29064500Y-28952742D01*
X29085079Y-29056200D01*
X29125446Y-29153654D01*
X29184050Y-29241361D01*
X29258639Y-29315950D01*
X29346346Y-29374554D01*
X29443800Y-29414921D01*
X29547258Y-29435500D01*
X29652742Y-29435500D01*
X29756200Y-29414921D01*
X29853654Y-29374554D01*
X29941361Y-29315950D01*
X29982322Y-29274989D01*
X33536651Y-32829318D01*
X33524925Y-32846867D01*
X33484558Y-32944321D01*
X33463979Y-33047779D01*
X33463979Y-33153263D01*
X33484558Y-33256721D01*
X33524925Y-33354175D01*
X33583529Y-33441882D01*
X33658118Y-33516471D01*
X33745825Y-33575075D01*
X33843279Y-33615442D01*
X33946737Y-33636021D01*
X34052221Y-33636021D01*
X34155679Y-33615442D01*
X34253133Y-33575075D01*
X34340840Y-33516471D01*
X34415429Y-33441882D01*
X34474033Y-33354175D01*
X34514400Y-33256721D01*
X34534979Y-33153263D01*
X34534979Y-33047779D01*
X34531801Y-33031801D01*
X34547779Y-33034979D01*
X34653263Y-33034979D01*
X34756721Y-33014400D01*
X34854175Y-32974033D01*
X34941882Y-32915429D01*
X35016471Y-32840840D01*
X35075075Y-32753133D01*
X35115442Y-32655679D01*
X35136021Y-32552221D01*
X35136021Y-32446737D01*
X35115442Y-32343279D01*
X35075075Y-32245825D01*
X35016471Y-32158118D01*
X34941882Y-32083529D01*
X34854175Y-32024925D01*
X34849940Y-32023171D01*
X34871327Y-31991162D01*
X34911694Y-31893708D01*
X34932273Y-31790250D01*
X34932273Y-31684766D01*
X34925853Y-31652490D01*
X37242846Y-29335498D01*
X37252740Y-29335498D01*
X37356198Y-29314919D01*
X37453652Y-29274552D01*
X37541359Y-29215948D01*
X37615948Y-29141359D01*
X37674552Y-29053652D01*
X37714919Y-28956198D01*
X37735498Y-28852740D01*
X37735498Y-28747256D01*
X37714919Y-28643798D01*
X37674552Y-28546344D01*
X37615948Y-28458637D01*
X37541359Y-28384048D01*
X37453652Y-28325444D01*
X37356198Y-28285077D01*
X37252740Y-28264498D01*
X37147256Y-28264498D01*
X37043798Y-28285077D01*
X36946344Y-28325444D01*
X36858637Y-28384048D01*
X36784048Y-28458637D01*
X36725444Y-28546344D01*
X36685077Y-28643798D01*
X36664498Y-28747256D01*
X36664498Y-28852740D01*
X36685077Y-28956198D01*
X36699412Y-28990806D01*
X34481791Y-31208428D01*
X34449515Y-31202008D01*
X34344031Y-31202008D01*
X34240573Y-31222587D01*
X34143119Y-31262954D01*
X34055412Y-31321558D01*
X33980823Y-31396147D01*
X33922219Y-31483854D01*
X33881852Y-31581308D01*
X33880545Y-31587877D01*
X30345244Y-28052577D01*
X30340879Y-28047258D01*
X32464498Y-28047258D01*
X32464498Y-28152742D01*
X32485077Y-28256200D01*
X32525444Y-28353654D01*
X32584048Y-28441361D01*
X32658637Y-28515950D01*
X32746344Y-28574554D01*
X32843798Y-28614921D01*
X32947256Y-28635500D01*
X33052740Y-28635500D01*
X33067420Y-28632580D01*
X33064500Y-28647258D01*
X33064500Y-28752742D01*
X33085079Y-28856200D01*
X33125446Y-28953654D01*
X33184050Y-29041361D01*
X33258639Y-29115950D01*
X33346346Y-29174554D01*
X33443800Y-29214921D01*
X33547258Y-29235500D01*
X33652742Y-29235500D01*
X33756200Y-29214921D01*
X33853654Y-29174554D01*
X33941361Y-29115950D01*
X34015950Y-29041361D01*
X34034232Y-29014000D01*
X35384589Y-29014000D01*
X35400010Y-29015519D01*
X35415431Y-29014000D01*
X35415432Y-29014000D01*
X35461565Y-29009456D01*
X35520754Y-28991502D01*
X35575303Y-28962344D01*
X35623116Y-28923106D01*
X35632954Y-28911118D01*
X35814992Y-28729080D01*
X35847268Y-28735500D01*
X35952752Y-28735500D01*
X36056210Y-28714921D01*
X36153664Y-28674554D01*
X36241371Y-28615950D01*
X36315960Y-28541361D01*
X36374564Y-28453654D01*
X36414931Y-28356200D01*
X36435510Y-28252742D01*
X36435510Y-28147258D01*
X36414931Y-28043800D01*
X36374564Y-27946346D01*
X36315960Y-27858639D01*
X36241371Y-27784050D01*
X36153664Y-27725446D01*
X36056210Y-27685079D01*
X35952752Y-27664500D01*
X35847268Y-27664500D01*
X35743810Y-27685079D01*
X35646356Y-27725446D01*
X35591957Y-27761795D01*
X35537287Y-27679976D01*
X35462698Y-27605387D01*
X35374991Y-27546783D01*
X35277537Y-27506416D01*
X35174079Y-27485837D01*
X35068595Y-27485837D01*
X34965137Y-27506416D01*
X34867683Y-27546783D01*
X34779976Y-27605387D01*
X34705387Y-27679976D01*
X34687105Y-27707337D01*
X33364646Y-27707337D01*
X33341359Y-27684050D01*
X33253652Y-27625446D01*
X33156198Y-27585079D01*
X33052740Y-27564500D01*
X32947256Y-27564500D01*
X32843798Y-27585079D01*
X32746344Y-27625446D01*
X32658637Y-27684050D01*
X32584048Y-27758639D01*
X32525444Y-27846346D01*
X32485077Y-27943800D01*
X32464498Y-28047258D01*
X30340879Y-28047258D01*
X30334741Y-28039779D01*
X30283655Y-27997853D01*
X30225370Y-27966700D01*
X30218118Y-27964500D01*
X30162128Y-27947515D01*
X30096359Y-27941037D01*
X30095423Y-27941129D01*
X30092814Y-27928011D01*
X30052447Y-27830557D01*
X29993843Y-27742850D01*
X29919254Y-27668261D01*
X29831547Y-27609657D01*
X29734093Y-27569290D01*
X29630635Y-27548711D01*
X29525151Y-27548711D01*
X29421693Y-27569290D01*
X29324239Y-27609657D01*
X29236532Y-27668261D01*
X29161943Y-27742850D01*
X29103339Y-27830557D01*
X29062972Y-27928011D01*
X29042393Y-28031469D01*
X29042393Y-28136953D01*
X29062715Y-28239119D01*
X29008940Y-28158639D01*
X28934351Y-28084050D01*
X28846644Y-28025446D01*
X28749190Y-27985079D01*
X28645732Y-27964500D01*
X28540248Y-27964500D01*
X28507973Y-27970920D01*
X28335500Y-27798448D01*
X28335500Y-26655092D01*
X28374554Y-26596644D01*
X28414921Y-26499190D01*
X28435500Y-26395732D01*
X28435500Y-26290248D01*
X28414921Y-26186790D01*
X28374554Y-26089336D01*
X28335500Y-26030888D01*
X28335500Y-25400000D01*
X28330975Y-25354056D01*
X28317574Y-25309878D01*
X28295811Y-25269163D01*
X28266524Y-25233476D01*
X28230837Y-25204189D01*
X28190122Y-25182426D01*
X28145944Y-25169025D01*
X28100000Y-25164500D01*
X27355173Y-25164500D01*
X27441175Y-25078498D01*
X46030697Y-25078498D01*
X46057002Y-25081089D01*
X46083307Y-25078498D01*
X46083309Y-25078498D01*
X46161978Y-25070750D01*
X46262921Y-25040129D01*
X46355949Y-24990404D01*
X46437490Y-24923486D01*
X46454266Y-24903044D01*
X46641358Y-24715952D01*
X46641361Y-24715950D01*
X46660051Y-24697260D01*
X46680488Y-24680488D01*
X46697260Y-24660051D01*
X46715950Y-24641361D01*
X46719764Y-24635653D01*
X53264506Y-31180396D01*
X53264506Y-32148616D01*
X52260077Y-31144188D01*
X52246435Y-31127565D01*
X52180121Y-31073143D01*
X52104465Y-31032704D01*
X52022373Y-31007801D01*
X51958394Y-31001500D01*
X51958391Y-31001500D01*
X51937000Y-30999393D01*
X51915609Y-31001500D01*
X51812132Y-31001500D01*
X51753684Y-30962446D01*
X51656230Y-30922079D01*
X51552772Y-30901500D01*
X51447288Y-30901500D01*
X51343830Y-30922079D01*
X51246376Y-30962446D01*
X51158669Y-31021050D01*
X51084080Y-31095639D01*
X51025476Y-31183346D01*
X50985109Y-31280800D01*
X50964530Y-31384258D01*
X50964530Y-31489742D01*
X50985109Y-31593200D01*
X51025476Y-31690654D01*
X51084080Y-31778361D01*
X51158669Y-31852950D01*
X51246376Y-31911554D01*
X51343830Y-31951921D01*
X51447288Y-31972500D01*
X51552772Y-31972500D01*
X51656230Y-31951921D01*
X51753684Y-31911554D01*
X51778850Y-31894739D01*
X52564501Y-32680391D01*
X52564500Y-35039610D01*
X52339620Y-35264491D01*
X52331966Y-35256837D01*
X52154177Y-35138043D01*
X51956629Y-35056215D01*
X51746912Y-35014500D01*
X51533088Y-35014500D01*
X51323371Y-35056215D01*
X51125823Y-35138043D01*
X50948034Y-35256837D01*
X50796837Y-35408034D01*
X50678043Y-35585823D01*
X50596215Y-35783371D01*
X50554500Y-35993088D01*
X50554500Y-36206912D01*
X50596215Y-36416629D01*
X50678043Y-36614177D01*
X50796837Y-36791966D01*
X50948034Y-36943163D01*
X51125823Y-37061957D01*
X51313026Y-37139500D01*
X49426974Y-37139500D01*
X49614177Y-37061957D01*
X49791966Y-36943163D01*
X49943163Y-36791966D01*
X50061957Y-36614177D01*
X50143785Y-36416629D01*
X50185500Y-36206912D01*
X50185500Y-35993088D01*
X50143785Y-35783371D01*
X50061957Y-35585823D01*
X49943163Y-35408034D01*
X49791966Y-35256837D01*
X49614177Y-35138043D01*
X49416629Y-35056215D01*
X49206912Y-35014500D01*
X48993088Y-35014500D01*
X48783371Y-35056215D01*
X48585823Y-35138043D01*
X48408034Y-35256837D01*
X48256837Y-35408034D01*
X48138043Y-35585823D01*
X48056215Y-35783371D01*
X48014500Y-35993088D01*
X48014500Y-36206912D01*
X48056215Y-36416629D01*
X48138043Y-36614177D01*
X48256837Y-36791966D01*
X48408034Y-36943163D01*
X48585823Y-37061957D01*
X48773026Y-37139500D01*
X46886974Y-37139500D01*
X47074177Y-37061957D01*
X47251966Y-36943163D01*
X47403163Y-36791966D01*
X47521957Y-36614177D01*
X47603785Y-36416629D01*
X47645500Y-36206912D01*
X47645500Y-35993088D01*
X47603785Y-35783371D01*
X47521957Y-35585823D01*
X47403163Y-35408034D01*
X47251966Y-35256837D01*
X47074177Y-35138043D01*
X46876629Y-35056215D01*
X46719168Y-35024894D01*
X47698838Y-34045225D01*
X47760678Y-34086545D01*
X47858132Y-34126912D01*
X47961590Y-34147491D01*
X48067074Y-34147491D01*
X48170532Y-34126912D01*
X48267986Y-34086545D01*
X48355693Y-34027941D01*
X48430282Y-33953352D01*
X48488886Y-33865645D01*
X48529253Y-33768191D01*
X48549832Y-33664733D01*
X48549832Y-33559249D01*
X48529253Y-33455791D01*
X48491431Y-33364480D01*
X50164500Y-33364480D01*
X50164500Y-33403221D01*
X50185079Y-33506679D01*
X50225446Y-33604133D01*
X50284050Y-33691840D01*
X50358639Y-33766429D01*
X50446346Y-33825033D01*
X50543800Y-33865400D01*
X50647258Y-33885979D01*
X50752742Y-33885979D01*
X50856200Y-33865400D01*
X50953654Y-33825033D01*
X51041361Y-33766429D01*
X51115950Y-33691840D01*
X51174554Y-33604133D01*
X51197875Y-33547830D01*
X51212708Y-33570029D01*
X51287297Y-33644618D01*
X51375004Y-33703222D01*
X51472458Y-33743589D01*
X51575916Y-33764168D01*
X51681400Y-33764168D01*
X51784858Y-33743589D01*
X51882312Y-33703222D01*
X51970019Y-33644618D01*
X52044608Y-33570029D01*
X52103212Y-33482322D01*
X52143579Y-33384868D01*
X52164158Y-33281410D01*
X52164158Y-33175926D01*
X52143579Y-33072468D01*
X52103212Y-32975014D01*
X52044608Y-32887307D01*
X51970019Y-32812718D01*
X51882312Y-32754114D01*
X51784858Y-32713747D01*
X51681400Y-32693168D01*
X51575916Y-32693168D01*
X51543641Y-32699588D01*
X51332934Y-32488882D01*
X51323096Y-32476894D01*
X51275283Y-32437656D01*
X51220734Y-32408498D01*
X51161545Y-32390544D01*
X51115412Y-32386000D01*
X51115411Y-32386000D01*
X51099990Y-32384481D01*
X51084569Y-32386000D01*
X47715418Y-32386000D01*
X47699999Y-32384481D01*
X47684580Y-32386000D01*
X47684578Y-32386000D01*
X47638445Y-32390544D01*
X47579256Y-32408498D01*
X47524707Y-32437656D01*
X47476894Y-32476894D01*
X47467060Y-32488877D01*
X46818691Y-33137246D01*
X46835500Y-33052742D01*
X46835500Y-32947258D01*
X46814921Y-32843800D01*
X46774554Y-32746346D01*
X46715950Y-32658639D01*
X46641361Y-32584050D01*
X46553654Y-32525446D01*
X46456200Y-32485079D01*
X46352742Y-32464500D01*
X46247258Y-32464500D01*
X46143800Y-32485079D01*
X46046346Y-32525446D01*
X45958639Y-32584050D01*
X45884050Y-32658639D01*
X45825446Y-32746346D01*
X45785079Y-32843800D01*
X45764500Y-32947258D01*
X45764500Y-33052742D01*
X45770920Y-33085018D01*
X45738878Y-33117060D01*
X45738873Y-33117064D01*
X45169938Y-33686000D01*
X44392990Y-33686000D01*
X44420042Y-33620690D01*
X44440621Y-33517232D01*
X44440621Y-33411748D01*
X44434201Y-33379472D01*
X45045494Y-32768180D01*
X45057477Y-32758346D01*
X45096715Y-32710533D01*
X45125873Y-32655984D01*
X45143827Y-32596795D01*
X45148371Y-32550662D01*
X45149890Y-32535240D01*
X45148371Y-32519819D01*
X45148371Y-32389969D01*
X45175732Y-32371687D01*
X45250321Y-32297098D01*
X45308925Y-32209391D01*
X45349292Y-32111937D01*
X45369871Y-32008479D01*
X45369871Y-31902995D01*
X45349292Y-31799537D01*
X45308925Y-31702083D01*
X45250321Y-31614376D01*
X45175732Y-31539787D01*
X45088025Y-31481183D01*
X45077058Y-31476640D01*
X45111619Y-31393203D01*
X45132198Y-31289745D01*
X45132198Y-31184261D01*
X45111619Y-31080803D01*
X45071252Y-30983349D01*
X45012648Y-30895642D01*
X44938059Y-30821053D01*
X44850352Y-30762449D01*
X44752898Y-30722082D01*
X44649440Y-30701503D01*
X44543956Y-30701503D01*
X44440498Y-30722082D01*
X44343044Y-30762449D01*
X44255337Y-30821053D01*
X44180748Y-30895642D01*
X44162850Y-30922428D01*
X44157014Y-30923003D01*
X44157012Y-30923003D01*
X44110879Y-30927547D01*
X44051690Y-30945501D01*
X43997141Y-30974659D01*
X43949328Y-31013897D01*
X43939494Y-31025880D01*
X42988877Y-31976498D01*
X42976895Y-31986331D01*
X42966531Y-31998960D01*
X42937656Y-32034145D01*
X42908499Y-32088693D01*
X42890544Y-32147883D01*
X42884481Y-32209437D01*
X42886001Y-32224868D01*
X42886001Y-32565768D01*
X42858639Y-32584050D01*
X42814000Y-32628689D01*
X42814000Y-32472443D01*
X42815519Y-32457024D01*
X42813611Y-32437656D01*
X42809456Y-32395470D01*
X42791502Y-32336281D01*
X42762344Y-32281732D01*
X42723106Y-32233919D01*
X42711125Y-32224087D01*
X40429802Y-29942765D01*
X40436222Y-29910489D01*
X40436222Y-29805005D01*
X40415643Y-29701547D01*
X40375276Y-29604093D01*
X40316672Y-29516386D01*
X40242083Y-29441797D01*
X40154376Y-29383193D01*
X40056922Y-29342826D01*
X39953464Y-29322247D01*
X39847980Y-29322247D01*
X39744522Y-29342826D01*
X39647068Y-29383193D01*
X39559361Y-29441797D01*
X39484772Y-29516386D01*
X39426168Y-29604093D01*
X39385801Y-29701547D01*
X39365222Y-29805005D01*
X39365222Y-29910489D01*
X39385801Y-30013947D01*
X39411589Y-30076205D01*
X39352742Y-30064500D01*
X39247258Y-30064500D01*
X39143800Y-30085079D01*
X39046346Y-30125446D01*
X38958639Y-30184050D01*
X38884050Y-30258639D01*
X38825446Y-30346346D01*
X38785079Y-30443800D01*
X38771365Y-30512746D01*
X38707188Y-30576923D01*
X38707183Y-30576927D01*
X35619611Y-33664500D01*
X28261391Y-33664500D01*
X28239999Y-33662393D01*
X28218608Y-33664500D01*
X28218606Y-33664500D01*
X28154627Y-33670801D01*
X28072535Y-33695704D01*
X28025687Y-33720745D01*
X27996878Y-33736143D01*
X27962730Y-33764168D01*
X27930565Y-33790565D01*
X27916927Y-33807183D01*
X26635306Y-35088805D01*
X26556629Y-35056215D01*
X26346912Y-35014500D01*
X26133088Y-35014500D01*
X25923371Y-35056215D01*
X25789878Y-35111510D01*
X27743644Y-33157745D01*
X27775919Y-33164165D01*
X27881403Y-33164165D01*
X27984861Y-33143586D01*
X28082315Y-33103219D01*
X28170022Y-33044615D01*
X28244611Y-32970026D01*
X28262893Y-32942665D01*
X29785354Y-32942665D01*
X29858639Y-33015950D01*
X29946346Y-33074554D01*
X30043800Y-33114921D01*
X30147258Y-33135500D01*
X30252742Y-33135500D01*
X30356200Y-33114921D01*
X30453654Y-33074554D01*
X30541361Y-33015950D01*
X30615950Y-32941361D01*
X30674554Y-32853654D01*
X30714921Y-32756200D01*
X30735500Y-32652742D01*
X30735500Y-32547258D01*
X30714921Y-32443800D01*
X30674554Y-32346346D01*
X30615950Y-32258639D01*
X30541361Y-32184050D01*
X30453654Y-32125446D01*
X30356200Y-32085079D01*
X30252742Y-32064500D01*
X30147258Y-32064500D01*
X30043800Y-32085079D01*
X29946346Y-32125446D01*
X29858639Y-32184050D01*
X29784050Y-32258639D01*
X29746615Y-32314665D01*
X28262893Y-32314665D01*
X28244611Y-32287304D01*
X28170022Y-32212715D01*
X28082315Y-32154111D01*
X27984861Y-32113744D01*
X27881403Y-32093165D01*
X27775919Y-32093165D01*
X27672461Y-32113744D01*
X27575007Y-32154111D01*
X27487300Y-32212715D01*
X27412711Y-32287304D01*
X27354107Y-32375011D01*
X27313740Y-32472465D01*
X27293161Y-32575923D01*
X27293161Y-32681407D01*
X27299581Y-32713682D01*
X26640573Y-33372690D01*
X26707484Y-33225524D01*
X26678380Y-33111500D01*
X25676499Y-33111500D01*
X25676499Y-33668500D01*
X26226499Y-33668500D01*
X26374121Y-33610329D01*
X26454920Y-33558343D01*
X24784543Y-35228721D01*
X24782092Y-35203834D01*
X24768626Y-35159442D01*
X24746758Y-35118530D01*
X24717329Y-35082671D01*
X24681470Y-35053242D01*
X24640558Y-35031374D01*
X24596166Y-35017908D01*
X24550000Y-35013361D01*
X22850000Y-35013361D01*
X22803834Y-35017908D01*
X22759442Y-35031374D01*
X22718530Y-35053242D01*
X22682671Y-35082671D01*
X22653242Y-35118530D01*
X22631374Y-35159442D01*
X22617908Y-35203834D01*
X22613361Y-35250000D01*
X22613361Y-36950000D01*
X22617908Y-36996166D01*
X22631374Y-37040558D01*
X22653242Y-37081470D01*
X22682671Y-37117329D01*
X22709686Y-37139500D01*
X20312740Y-37139500D01*
X20292568Y-37137522D01*
X20285425Y-37135366D01*
X20278837Y-37131862D01*
X20273046Y-37127140D01*
X20268289Y-37121389D01*
X20264737Y-37114821D01*
X20262530Y-37107690D01*
X20260500Y-37088376D01*
X20260500Y-36190000D01*
X20290152Y-36190000D01*
X20295529Y-36244596D01*
X20311454Y-36297093D01*
X20337315Y-36345475D01*
X20372118Y-36387882D01*
X20414525Y-36422685D01*
X20462907Y-36448546D01*
X20515404Y-36464471D01*
X20570000Y-36469848D01*
X21128875Y-36468500D01*
X21198500Y-36398875D01*
X21198500Y-35561500D01*
X21641500Y-35561500D01*
X21641500Y-36398875D01*
X21711125Y-36468500D01*
X22270000Y-36469848D01*
X22324596Y-36464471D01*
X22377093Y-36448546D01*
X22425475Y-36422685D01*
X22467882Y-36387882D01*
X22502685Y-36345475D01*
X22528546Y-36297093D01*
X22544471Y-36244596D01*
X22549848Y-36190000D01*
X22548500Y-35631125D01*
X22478875Y-35561500D01*
X21641500Y-35561500D01*
X21198500Y-35561500D01*
X20361125Y-35561500D01*
X20291500Y-35631125D01*
X20290152Y-36190000D01*
X20260500Y-36190000D01*
X20260500Y-34490000D01*
X20290152Y-34490000D01*
X20291500Y-35048875D01*
X20361125Y-35118500D01*
X21198500Y-35118500D01*
X21198500Y-34281125D01*
X21641500Y-34281125D01*
X21641500Y-35118500D01*
X22478875Y-35118500D01*
X22548500Y-35048875D01*
X22549848Y-34490000D01*
X22544471Y-34435404D01*
X22528546Y-34382907D01*
X22502685Y-34334525D01*
X22467882Y-34292118D01*
X22425475Y-34257315D01*
X22377093Y-34231454D01*
X22324596Y-34215529D01*
X22270000Y-34210152D01*
X21711125Y-34211500D01*
X21641500Y-34281125D01*
X21198500Y-34281125D01*
X21128875Y-34211500D01*
X20570000Y-34210152D01*
X20515404Y-34215529D01*
X20462907Y-34231454D01*
X20414525Y-34257315D01*
X20372118Y-34292118D01*
X20337315Y-34334525D01*
X20311454Y-34382907D01*
X20295529Y-34435404D01*
X20290152Y-34490000D01*
X20260500Y-34490000D01*
X20260500Y-33111502D01*
X20301617Y-33111502D01*
X20272514Y-33225524D01*
X20290809Y-33291856D01*
X20382354Y-33417613D01*
X20496674Y-33523094D01*
X20629375Y-33604246D01*
X20775359Y-33657950D01*
X20929015Y-33682142D01*
X21053499Y-33609958D01*
X21053499Y-33111500D01*
X21496499Y-33111500D01*
X21496499Y-33609958D01*
X21620983Y-33682142D01*
X21774639Y-33657950D01*
X21920623Y-33604246D01*
X22053324Y-33523094D01*
X22167644Y-33417613D01*
X22259189Y-33291856D01*
X22277484Y-33225524D01*
X24202514Y-33225524D01*
X24288316Y-33414240D01*
X24402440Y-33524476D01*
X24535877Y-33610329D01*
X24683499Y-33668500D01*
X25233499Y-33668500D01*
X25233499Y-33111500D01*
X24231618Y-33111500D01*
X24202514Y-33225524D01*
X22277484Y-33225524D01*
X22248380Y-33111500D01*
X21496499Y-33111500D01*
X21053499Y-33111500D01*
X21033499Y-33111500D01*
X21033499Y-32668500D01*
X21053499Y-32668500D01*
X21053499Y-32170042D01*
X21496499Y-32170042D01*
X21496499Y-32668500D01*
X22248380Y-32668500D01*
X22277484Y-32554476D01*
X24202514Y-32554476D01*
X24231618Y-32668500D01*
X25233499Y-32668500D01*
X25233499Y-32111500D01*
X25676499Y-32111500D01*
X25676499Y-32668500D01*
X26678380Y-32668500D01*
X26707484Y-32554476D01*
X26621682Y-32365760D01*
X26507558Y-32255524D01*
X26374121Y-32169671D01*
X26226499Y-32111500D01*
X25676499Y-32111500D01*
X25233499Y-32111500D01*
X24683499Y-32111500D01*
X24535877Y-32169671D01*
X24402440Y-32255524D01*
X24288316Y-32365760D01*
X24202514Y-32554476D01*
X22277484Y-32554476D01*
X22259189Y-32488144D01*
X22167644Y-32362387D01*
X22053324Y-32256906D01*
X21920623Y-32175754D01*
X21774639Y-32122050D01*
X21620983Y-32097858D01*
X21496499Y-32170042D01*
X21053499Y-32170042D01*
X20929015Y-32097858D01*
X20775359Y-32122050D01*
X20629375Y-32175754D01*
X20496674Y-32256906D01*
X20382354Y-32362387D01*
X20290809Y-32488144D01*
X20272514Y-32554476D01*
X20301617Y-32668498D01*
X20260500Y-32668498D01*
X20260500Y-24471502D01*
X20301617Y-24471502D01*
X20272514Y-24585524D01*
X20290809Y-24651856D01*
X20382354Y-24777613D01*
X20496674Y-24883094D01*
X20629375Y-24964246D01*
X20775359Y-25017950D01*
X20929015Y-25042142D01*
X21053499Y-24969958D01*
X21053499Y-24471500D01*
X21496499Y-24471500D01*
X21496499Y-24969958D01*
X21620983Y-25042142D01*
X21774639Y-25017950D01*
X21920623Y-24964246D01*
X22053324Y-24883094D01*
X22167644Y-24777613D01*
X22259189Y-24651856D01*
X22277484Y-24585524D01*
X22248380Y-24471500D01*
X21496499Y-24471500D01*
X21053499Y-24471500D01*
X21033499Y-24471500D01*
X21033499Y-24028500D01*
X21053499Y-24028500D01*
X21053499Y-23530042D01*
X21496499Y-23530042D01*
X21496499Y-24028500D01*
X22248380Y-24028500D01*
X22277484Y-23914476D01*
X22259189Y-23848144D01*
X22167644Y-23722387D01*
X22053324Y-23616906D01*
X21920623Y-23535754D01*
X21774639Y-23482050D01*
X21620983Y-23457858D01*
X21496499Y-23530042D01*
X21053499Y-23530042D01*
X20929015Y-23457858D01*
X20775359Y-23482050D01*
X20629375Y-23535754D01*
X20496674Y-23616906D01*
X20382354Y-23722387D01*
X20290809Y-23848144D01*
X20272514Y-23914476D01*
X20301617Y-24028498D01*
X20260500Y-24028498D01*
X20260500Y-20112740D01*
X20262478Y-20092568D01*
X20264634Y-20085427D01*
X20268139Y-20078835D01*
X20272861Y-20073045D01*
X20278608Y-20068290D01*
X20285179Y-20064738D01*
X20292311Y-20062530D01*
X20311624Y-20060500D01*
X22709686Y-20060500D01*
X22682671Y-20082671D01*
M02*
