M48
; DRILL file {KiCad 5.1.5+dfsg1-2build2} date Tue 15 Sep 2020 12:58:00 AM CEST
; FORMAT={-:-/ absolute / inch / decimal}
; #@! TF.CreationDate,2020-09-15T00:58:00+02:00
; #@! TF.GenerationSoftware,Kicad,Pcbnew,5.1.5+dfsg1-2build2
; #@! TF.FileFunction,Plated,1,2,PTH
FMAT,2
INCH
T1C0.0118
T2C0.0236
T3C0.0394
%
G90
G05
T1
X0.9567Y-1.1988
X0.963Y-1.0555
X0.9646Y-1.0984
X0.9646Y-1.1339
X0.9752Y-1.1654
X0.9902Y-1.0709
X0.9902Y-1.1952
X1.0945Y-1.2047
X1.0956Y-1.2846
X1.0984Y-1.0371
X1.1257Y-1.122
X1.1645Y-1.1057
X1.1654Y-1.1378
X1.189Y-1.2835
X1.1929Y-1.2205
X1.2008Y-1.0236
X1.2126Y-1.3071
X1.2441Y-1.2362
X1.252Y-1.122
X1.2559Y-0.9094
X1.2598Y-1.0
X1.2598Y-1.063
X1.2835Y-1.3701
X1.2913Y-1.1693
X1.2992Y-1.1063
X1.3228Y-1.1299
X1.3386Y-1.3032
X1.3425Y-1.0039
X1.3542Y-1.2495
X1.3622Y-1.2795
X1.3827Y-1.1032
X1.4134Y-1.1102
X1.4488Y-1.3465
X1.4567Y-1.0394
X1.4646Y-1.1339
X1.4803Y-1.0945
X1.4961Y-1.3583
X1.5Y-1.0
X1.5118Y-1.1496
X1.5197Y-1.3386
X1.5236Y-0.9134
X1.5472Y-1.2047
X1.5551Y-1.3346
X1.5567Y-1.2862
X1.57Y-1.2289
X1.5709Y-1.1755
X1.5827Y-0.8622
X1.5827Y-1.0
X1.6142Y-1.1535
X1.6693Y-1.1024
X1.6732Y-1.311
X1.7008Y-1.2992
X1.7285Y-1.3175
X1.7558Y-1.2298
X1.7651Y-1.2581
X1.7756Y-1.0945
X1.7913Y-0.9252
X1.7953Y-1.2756
X1.815Y-1.2047
X1.8228Y-0.9291
X1.8228Y-0.9567
X1.8228Y-1.2992
X1.8346Y-0.9921
X1.8622Y-1.0709
X1.8903Y-1.3233
X1.9291Y-0.9921
X1.9291Y-1.2362
X1.9606Y-1.0157
X1.9639Y-0.9798
X1.9724Y-0.9406
X1.9961Y-1.313
X2.0028Y-1.0051
X2.0157Y-1.1614
X2.0236Y-0.9409
X2.0276Y-1.2377
X2.0326Y-1.3082
X2.0551Y-1.2047
X2.0984Y-0.9055
X2.1024Y-1.1654
X2.1142Y-1.3686
X2.1378Y-1.1417
X2.1693Y-1.1417
X2.2008Y-1.1417
X2.2323Y-1.1417
X2.3031Y-0.9134
X2.4283Y-0.8087
X2.4283Y-0.848
X2.4283Y-0.8874
X2.4283Y-0.9268
X2.4283Y-0.9661
X2.4283Y-1.0055
X2.4283Y-1.0449
X2.4283Y-1.0843
X2.4283Y-1.1236
X2.4283Y-1.163
X2.4283Y-1.2024
X2.4283Y-1.2417
X2.4283Y-1.2811
X2.4283Y-1.3205
X2.4283Y-1.3598
X2.4283Y-1.3992
X2.4283Y-1.4386
X2.4677Y-0.8087
X2.4677Y-0.848
X2.4677Y-0.8874
X2.4677Y-0.9268
X2.4677Y-0.9661
X2.4677Y-1.0055
X2.4677Y-1.0449
X2.4677Y-1.0843
X2.4677Y-1.1236
X2.4677Y-1.163
X2.4677Y-1.2024
X2.4677Y-1.2417
X2.4677Y-1.2811
X2.4677Y-1.3205
X2.4677Y-1.3598
X2.4677Y-1.3992
X2.4677Y-1.4386
T3
X0.9331Y-1.4213
X1.0331Y-1.4213
X1.1331Y-1.4213
X1.2331Y-1.4213
X1.3331Y-1.4213
X1.4331Y-1.4213
X1.5331Y-1.4213
X1.6331Y-1.4213
X1.7331Y-1.4213
X1.8331Y-1.4213
X1.9331Y-1.4213
X2.0331Y-1.4213
X2.1331Y-1.4213
X2.2331Y-1.4213
X2.3331Y-1.4213
X0.9331Y-0.8307
X1.0331Y-0.8307
X1.1331Y-0.8307
X1.2331Y-0.8307
X1.3331Y-0.8307
X1.4331Y-0.8307
X1.5331Y-0.8307
X1.6331Y-0.8307
X1.7331Y-0.8307
X1.8331Y-0.8307
X1.9331Y-0.8307
X2.0331Y-0.8307
X2.1331Y-0.8307
X2.2331Y-0.8307
X2.3331Y-0.8307
X2.3307Y-0.9783
X2.3307Y-1.0783
X2.3307Y-1.1783
X2.3307Y-1.2783
X0.8433Y-0.8575
X0.8433Y-1.3913
T2
X0.8494Y-0.9547G85X0.8258Y-0.9547
G05
X0.8494Y-1.2949G85X0.8258Y-1.2949
G05
X1.0238Y-0.9547G85X0.9805Y-0.9547
G05
X1.0238Y-1.2949G85X0.9805Y-1.2949
G05
T0
M30
