G04 #@! TF.GenerationSoftware,KiCad,Pcbnew,5.1.5+dfsg1-2build2*
G04 #@! TF.CreationDate,2020-09-14T17:30:23+02:00*
G04 #@! TF.ProjectId,OtterPillG,4f747465-7250-4696-9c6c-472e6b696361,rev?*
G04 #@! TF.SameCoordinates,Original*
G04 #@! TF.FileFunction,Copper,L1,Top*
G04 #@! TF.FilePolarity,Positive*
%FSLAX46Y46*%
G04 Gerber Fmt 4.6, Leading zero omitted, Abs format (unit mm)*
G04 Created by KiCad (PCBNEW 5.1.5+dfsg1-2build2) date 2020-09-14 17:30:23*
%MOMM*%
%LPD*%
G04 APERTURE LIST*
%ADD10C,0.050000*%
%ADD11R,0.600000X0.500000*%
%ADD12R,0.500000X0.600000*%
%ADD13R,0.700000X1.300000*%
%ADD14R,0.800000X0.900000*%
%ADD15C,0.100000*%
%ADD16R,1.300000X0.700000*%
%ADD17R,0.900000X0.600000*%
%ADD18O,1.700000X1.700000*%
%ADD19R,1.700000X1.700000*%
%ADD20R,1.050000X0.650000*%
%ADD21R,1.060000X0.650000*%
%ADD22O,2.100000X1.000000*%
%ADD23O,1.600000X1.000000*%
%ADD24R,1.450000X0.600000*%
%ADD25R,1.450000X0.300000*%
%ADD26C,0.600000*%
%ADD27C,0.400000*%
%ADD28C,0.157000*%
%ADD29C,0.600000*%
%ADD30C,0.200000*%
%ADD31C,0.800000*%
%ADD32C,0.254000*%
G04 APERTURE END LIST*
D10*
X63200000Y-37100000D02*
G75*
G02X62900000Y-37400000I-300000J0D01*
G01*
X62900000Y-19800000D02*
G75*
G02X63200000Y-20100000I0J-300000D01*
G01*
X20000000Y-20100000D02*
G75*
G02X20300000Y-19800000I300000J0D01*
G01*
X20300000Y-37400000D02*
G75*
G02X20000000Y-37100000I0J300000D01*
G01*
X20000000Y-37100000D02*
X20000000Y-20100000D01*
X62900000Y-37400000D02*
X20300000Y-37400000D01*
X63200000Y-20100000D02*
X63200000Y-37100000D01*
X20300000Y-19800000D02*
X62900000Y-19800000D01*
D11*
X49830000Y-32620000D03*
X49830000Y-33560000D03*
D12*
X53270000Y-28750000D03*
X52330000Y-28750000D03*
D11*
X48400000Y-28630000D03*
X48400000Y-29570000D03*
D13*
X49150000Y-23900000D03*
X47250000Y-23900000D03*
D11*
X49600000Y-26615000D03*
X49600000Y-27555000D03*
X49930000Y-28520000D03*
X49930000Y-29460000D03*
X48800000Y-32625000D03*
X48800000Y-33565000D03*
D12*
X29470000Y-32200000D03*
X28530000Y-32200000D03*
X29670000Y-24900000D03*
X28730000Y-24900000D03*
X28730000Y-26000000D03*
X29670000Y-26000000D03*
X28530000Y-31000000D03*
X29470000Y-31000000D03*
D14*
X47300000Y-28300000D03*
X46350000Y-26300000D03*
X48250000Y-26300000D03*
G04 #@! TA.AperFunction,SMDPad,CuDef*
D15*
G36*
X43626866Y-29340140D02*
G01*
X43803643Y-29163363D01*
X44722882Y-30082602D01*
X44546105Y-30259379D01*
X43626866Y-29340140D01*
G37*
G04 #@! TD.AperFunction*
G04 #@! TA.AperFunction,SMDPad,CuDef*
G36*
X43273313Y-29693693D02*
G01*
X43450090Y-29516916D01*
X44369329Y-30436155D01*
X44192552Y-30612932D01*
X43273313Y-29693693D01*
G37*
G04 #@! TD.AperFunction*
G04 #@! TA.AperFunction,SMDPad,CuDef*
G36*
X42919759Y-30047247D02*
G01*
X43096536Y-29870470D01*
X44015775Y-30789709D01*
X43838998Y-30966486D01*
X42919759Y-30047247D01*
G37*
G04 #@! TD.AperFunction*
G04 #@! TA.AperFunction,SMDPad,CuDef*
G36*
X42566206Y-30400800D02*
G01*
X42742983Y-30224023D01*
X43662222Y-31143262D01*
X43485445Y-31320039D01*
X42566206Y-30400800D01*
G37*
G04 #@! TD.AperFunction*
G04 #@! TA.AperFunction,SMDPad,CuDef*
G36*
X42212653Y-30754353D02*
G01*
X42389430Y-30577576D01*
X43308669Y-31496815D01*
X43131892Y-31673592D01*
X42212653Y-30754353D01*
G37*
G04 #@! TD.AperFunction*
G04 #@! TA.AperFunction,SMDPad,CuDef*
G36*
X41859099Y-31107907D02*
G01*
X42035876Y-30931130D01*
X42955115Y-31850369D01*
X42778338Y-32027146D01*
X41859099Y-31107907D01*
G37*
G04 #@! TD.AperFunction*
G04 #@! TA.AperFunction,SMDPad,CuDef*
G36*
X41505546Y-31461460D02*
G01*
X41682323Y-31284683D01*
X42601562Y-32203922D01*
X42424785Y-32380699D01*
X41505546Y-31461460D01*
G37*
G04 #@! TD.AperFunction*
G04 #@! TA.AperFunction,SMDPad,CuDef*
G36*
X41151992Y-31815014D02*
G01*
X41328769Y-31638237D01*
X42248008Y-32557476D01*
X42071231Y-32734253D01*
X41151992Y-31815014D01*
G37*
G04 #@! TD.AperFunction*
G04 #@! TA.AperFunction,SMDPad,CuDef*
G36*
X40798439Y-32168567D02*
G01*
X40975216Y-31991790D01*
X41894455Y-32911029D01*
X41717678Y-33087806D01*
X40798439Y-32168567D01*
G37*
G04 #@! TD.AperFunction*
G04 #@! TA.AperFunction,SMDPad,CuDef*
G36*
X40444886Y-32522120D02*
G01*
X40621663Y-32345343D01*
X41540902Y-33264582D01*
X41364125Y-33441359D01*
X40444886Y-32522120D01*
G37*
G04 #@! TD.AperFunction*
G04 #@! TA.AperFunction,SMDPad,CuDef*
G36*
X40091332Y-32875674D02*
G01*
X40268109Y-32698897D01*
X41187348Y-33618136D01*
X41010571Y-33794913D01*
X40091332Y-32875674D01*
G37*
G04 #@! TD.AperFunction*
G04 #@! TA.AperFunction,SMDPad,CuDef*
G36*
X39737779Y-33229227D02*
G01*
X39914556Y-33052450D01*
X40833795Y-33971689D01*
X40657018Y-34148466D01*
X39737779Y-33229227D01*
G37*
G04 #@! TD.AperFunction*
G04 #@! TA.AperFunction,SMDPad,CuDef*
G36*
X38394276Y-33052450D02*
G01*
X38571053Y-33229227D01*
X37651814Y-34148466D01*
X37475037Y-33971689D01*
X38394276Y-33052450D01*
G37*
G04 #@! TD.AperFunction*
G04 #@! TA.AperFunction,SMDPad,CuDef*
G36*
X38040723Y-32698897D02*
G01*
X38217500Y-32875674D01*
X37298261Y-33794913D01*
X37121484Y-33618136D01*
X38040723Y-32698897D01*
G37*
G04 #@! TD.AperFunction*
G04 #@! TA.AperFunction,SMDPad,CuDef*
G36*
X37687169Y-32345343D02*
G01*
X37863946Y-32522120D01*
X36944707Y-33441359D01*
X36767930Y-33264582D01*
X37687169Y-32345343D01*
G37*
G04 #@! TD.AperFunction*
G04 #@! TA.AperFunction,SMDPad,CuDef*
G36*
X37333616Y-31991790D02*
G01*
X37510393Y-32168567D01*
X36591154Y-33087806D01*
X36414377Y-32911029D01*
X37333616Y-31991790D01*
G37*
G04 #@! TD.AperFunction*
G04 #@! TA.AperFunction,SMDPad,CuDef*
G36*
X36980063Y-31638237D02*
G01*
X37156840Y-31815014D01*
X36237601Y-32734253D01*
X36060824Y-32557476D01*
X36980063Y-31638237D01*
G37*
G04 #@! TD.AperFunction*
G04 #@! TA.AperFunction,SMDPad,CuDef*
G36*
X36626509Y-31284683D02*
G01*
X36803286Y-31461460D01*
X35884047Y-32380699D01*
X35707270Y-32203922D01*
X36626509Y-31284683D01*
G37*
G04 #@! TD.AperFunction*
G04 #@! TA.AperFunction,SMDPad,CuDef*
G36*
X36272956Y-30931130D02*
G01*
X36449733Y-31107907D01*
X35530494Y-32027146D01*
X35353717Y-31850369D01*
X36272956Y-30931130D01*
G37*
G04 #@! TD.AperFunction*
G04 #@! TA.AperFunction,SMDPad,CuDef*
G36*
X35919402Y-30577576D02*
G01*
X36096179Y-30754353D01*
X35176940Y-31673592D01*
X35000163Y-31496815D01*
X35919402Y-30577576D01*
G37*
G04 #@! TD.AperFunction*
G04 #@! TA.AperFunction,SMDPad,CuDef*
G36*
X35565849Y-30224023D02*
G01*
X35742626Y-30400800D01*
X34823387Y-31320039D01*
X34646610Y-31143262D01*
X35565849Y-30224023D01*
G37*
G04 #@! TD.AperFunction*
G04 #@! TA.AperFunction,SMDPad,CuDef*
G36*
X35212296Y-29870470D02*
G01*
X35389073Y-30047247D01*
X34469834Y-30966486D01*
X34293057Y-30789709D01*
X35212296Y-29870470D01*
G37*
G04 #@! TD.AperFunction*
G04 #@! TA.AperFunction,SMDPad,CuDef*
G36*
X34858742Y-29516916D02*
G01*
X35035519Y-29693693D01*
X34116280Y-30612932D01*
X33939503Y-30436155D01*
X34858742Y-29516916D01*
G37*
G04 #@! TD.AperFunction*
G04 #@! TA.AperFunction,SMDPad,CuDef*
G36*
X34505189Y-29163363D02*
G01*
X34681966Y-29340140D01*
X33762727Y-30259379D01*
X33585950Y-30082602D01*
X34505189Y-29163363D01*
G37*
G04 #@! TD.AperFunction*
G04 #@! TA.AperFunction,SMDPad,CuDef*
G36*
X33585950Y-27077398D02*
G01*
X33762727Y-26900621D01*
X34681966Y-27819860D01*
X34505189Y-27996637D01*
X33585950Y-27077398D01*
G37*
G04 #@! TD.AperFunction*
G04 #@! TA.AperFunction,SMDPad,CuDef*
G36*
X33939503Y-26723845D02*
G01*
X34116280Y-26547068D01*
X35035519Y-27466307D01*
X34858742Y-27643084D01*
X33939503Y-26723845D01*
G37*
G04 #@! TD.AperFunction*
G04 #@! TA.AperFunction,SMDPad,CuDef*
G36*
X34293057Y-26370291D02*
G01*
X34469834Y-26193514D01*
X35389073Y-27112753D01*
X35212296Y-27289530D01*
X34293057Y-26370291D01*
G37*
G04 #@! TD.AperFunction*
G04 #@! TA.AperFunction,SMDPad,CuDef*
G36*
X34646610Y-26016738D02*
G01*
X34823387Y-25839961D01*
X35742626Y-26759200D01*
X35565849Y-26935977D01*
X34646610Y-26016738D01*
G37*
G04 #@! TD.AperFunction*
G04 #@! TA.AperFunction,SMDPad,CuDef*
G36*
X35000163Y-25663185D02*
G01*
X35176940Y-25486408D01*
X36096179Y-26405647D01*
X35919402Y-26582424D01*
X35000163Y-25663185D01*
G37*
G04 #@! TD.AperFunction*
G04 #@! TA.AperFunction,SMDPad,CuDef*
G36*
X35353717Y-25309631D02*
G01*
X35530494Y-25132854D01*
X36449733Y-26052093D01*
X36272956Y-26228870D01*
X35353717Y-25309631D01*
G37*
G04 #@! TD.AperFunction*
G04 #@! TA.AperFunction,SMDPad,CuDef*
G36*
X35707270Y-24956078D02*
G01*
X35884047Y-24779301D01*
X36803286Y-25698540D01*
X36626509Y-25875317D01*
X35707270Y-24956078D01*
G37*
G04 #@! TD.AperFunction*
G04 #@! TA.AperFunction,SMDPad,CuDef*
G36*
X36060824Y-24602524D02*
G01*
X36237601Y-24425747D01*
X37156840Y-25344986D01*
X36980063Y-25521763D01*
X36060824Y-24602524D01*
G37*
G04 #@! TD.AperFunction*
G04 #@! TA.AperFunction,SMDPad,CuDef*
G36*
X36414377Y-24248971D02*
G01*
X36591154Y-24072194D01*
X37510393Y-24991433D01*
X37333616Y-25168210D01*
X36414377Y-24248971D01*
G37*
G04 #@! TD.AperFunction*
G04 #@! TA.AperFunction,SMDPad,CuDef*
G36*
X36767930Y-23895418D02*
G01*
X36944707Y-23718641D01*
X37863946Y-24637880D01*
X37687169Y-24814657D01*
X36767930Y-23895418D01*
G37*
G04 #@! TD.AperFunction*
G04 #@! TA.AperFunction,SMDPad,CuDef*
G36*
X37121484Y-23541864D02*
G01*
X37298261Y-23365087D01*
X38217500Y-24284326D01*
X38040723Y-24461103D01*
X37121484Y-23541864D01*
G37*
G04 #@! TD.AperFunction*
G04 #@! TA.AperFunction,SMDPad,CuDef*
G36*
X37475037Y-23188311D02*
G01*
X37651814Y-23011534D01*
X38571053Y-23930773D01*
X38394276Y-24107550D01*
X37475037Y-23188311D01*
G37*
G04 #@! TD.AperFunction*
G04 #@! TA.AperFunction,SMDPad,CuDef*
G36*
X40657018Y-23011534D02*
G01*
X40833795Y-23188311D01*
X39914556Y-24107550D01*
X39737779Y-23930773D01*
X40657018Y-23011534D01*
G37*
G04 #@! TD.AperFunction*
G04 #@! TA.AperFunction,SMDPad,CuDef*
G36*
X41010571Y-23365087D02*
G01*
X41187348Y-23541864D01*
X40268109Y-24461103D01*
X40091332Y-24284326D01*
X41010571Y-23365087D01*
G37*
G04 #@! TD.AperFunction*
G04 #@! TA.AperFunction,SMDPad,CuDef*
G36*
X41364125Y-23718641D02*
G01*
X41540902Y-23895418D01*
X40621663Y-24814657D01*
X40444886Y-24637880D01*
X41364125Y-23718641D01*
G37*
G04 #@! TD.AperFunction*
G04 #@! TA.AperFunction,SMDPad,CuDef*
G36*
X41717678Y-24072194D02*
G01*
X41894455Y-24248971D01*
X40975216Y-25168210D01*
X40798439Y-24991433D01*
X41717678Y-24072194D01*
G37*
G04 #@! TD.AperFunction*
G04 #@! TA.AperFunction,SMDPad,CuDef*
G36*
X42071231Y-24425747D02*
G01*
X42248008Y-24602524D01*
X41328769Y-25521763D01*
X41151992Y-25344986D01*
X42071231Y-24425747D01*
G37*
G04 #@! TD.AperFunction*
G04 #@! TA.AperFunction,SMDPad,CuDef*
G36*
X42424785Y-24779301D02*
G01*
X42601562Y-24956078D01*
X41682323Y-25875317D01*
X41505546Y-25698540D01*
X42424785Y-24779301D01*
G37*
G04 #@! TD.AperFunction*
G04 #@! TA.AperFunction,SMDPad,CuDef*
G36*
X42778338Y-25132854D02*
G01*
X42955115Y-25309631D01*
X42035876Y-26228870D01*
X41859099Y-26052093D01*
X42778338Y-25132854D01*
G37*
G04 #@! TD.AperFunction*
G04 #@! TA.AperFunction,SMDPad,CuDef*
G36*
X43131892Y-25486408D02*
G01*
X43308669Y-25663185D01*
X42389430Y-26582424D01*
X42212653Y-26405647D01*
X43131892Y-25486408D01*
G37*
G04 #@! TD.AperFunction*
G04 #@! TA.AperFunction,SMDPad,CuDef*
G36*
X43485445Y-25839961D02*
G01*
X43662222Y-26016738D01*
X42742983Y-26935977D01*
X42566206Y-26759200D01*
X43485445Y-25839961D01*
G37*
G04 #@! TD.AperFunction*
G04 #@! TA.AperFunction,SMDPad,CuDef*
G36*
X43838998Y-26193514D02*
G01*
X44015775Y-26370291D01*
X43096536Y-27289530D01*
X42919759Y-27112753D01*
X43838998Y-26193514D01*
G37*
G04 #@! TD.AperFunction*
G04 #@! TA.AperFunction,SMDPad,CuDef*
G36*
X44192552Y-26547068D02*
G01*
X44369329Y-26723845D01*
X43450090Y-27643084D01*
X43273313Y-27466307D01*
X44192552Y-26547068D01*
G37*
G04 #@! TD.AperFunction*
G04 #@! TA.AperFunction,SMDPad,CuDef*
G36*
X44546105Y-26900621D02*
G01*
X44722882Y-27077398D01*
X43803643Y-27996637D01*
X43626866Y-27819860D01*
X44546105Y-26900621D01*
G37*
G04 #@! TD.AperFunction*
G04 #@! TA.AperFunction,SMDPad,CuDef*
G36*
X44543431Y-26067695D02*
G01*
X44967695Y-25643431D01*
X45321249Y-25996985D01*
X44896985Y-26421249D01*
X44543431Y-26067695D01*
G37*
G04 #@! TD.AperFunction*
G04 #@! TA.AperFunction,SMDPad,CuDef*
G36*
X43878751Y-25403015D02*
G01*
X44303015Y-24978751D01*
X44656569Y-25332305D01*
X44232305Y-25756569D01*
X43878751Y-25403015D01*
G37*
G04 #@! TD.AperFunction*
D12*
X44770000Y-23500000D03*
X43830000Y-23500000D03*
D16*
X54690000Y-29900000D03*
X54690000Y-28000000D03*
G04 #@! TA.AperFunction,SMDPad,CuDef*
D15*
G36*
X43356569Y-24132305D02*
G01*
X42932305Y-24556569D01*
X42578751Y-24203015D01*
X43003015Y-23778751D01*
X43356569Y-24132305D01*
G37*
G04 #@! TD.AperFunction*
G04 #@! TA.AperFunction,SMDPad,CuDef*
G36*
X44021249Y-24796985D02*
G01*
X43596985Y-25221249D01*
X43243431Y-24867695D01*
X43667695Y-24443431D01*
X44021249Y-24796985D01*
G37*
G04 #@! TD.AperFunction*
D11*
X49800000Y-31470000D03*
X49800000Y-30530000D03*
D16*
X56400000Y-29910000D03*
X56400000Y-28010000D03*
D11*
X53720000Y-24340000D03*
X53720000Y-23400000D03*
D17*
X51180000Y-30090000D03*
X51180000Y-28590000D03*
D13*
X50630000Y-23890000D03*
X52530000Y-23890000D03*
D18*
X59200000Y-32470000D03*
X59200000Y-29930000D03*
X59200000Y-27390000D03*
D19*
X59200000Y-24850000D03*
G04 #@! TA.AperFunction,SMDPad,CuDef*
D15*
G36*
X56919504Y-23076204D02*
G01*
X56943773Y-23079804D01*
X56967571Y-23085765D01*
X56990671Y-23094030D01*
X57012849Y-23104520D01*
X57033893Y-23117133D01*
X57053598Y-23131747D01*
X57071777Y-23148223D01*
X57088253Y-23166402D01*
X57102867Y-23186107D01*
X57115480Y-23207151D01*
X57125970Y-23229329D01*
X57134235Y-23252429D01*
X57140196Y-23276227D01*
X57143796Y-23300496D01*
X57145000Y-23325000D01*
X57145000Y-24075000D01*
X57143796Y-24099504D01*
X57140196Y-24123773D01*
X57134235Y-24147571D01*
X57125970Y-24170671D01*
X57115480Y-24192849D01*
X57102867Y-24213893D01*
X57088253Y-24233598D01*
X57071777Y-24251777D01*
X57053598Y-24268253D01*
X57033893Y-24282867D01*
X57012849Y-24295480D01*
X56990671Y-24305970D01*
X56967571Y-24314235D01*
X56943773Y-24320196D01*
X56919504Y-24323796D01*
X56895000Y-24325000D01*
X54745000Y-24325000D01*
X54720496Y-24323796D01*
X54696227Y-24320196D01*
X54672429Y-24314235D01*
X54649329Y-24305970D01*
X54627151Y-24295480D01*
X54606107Y-24282867D01*
X54586402Y-24268253D01*
X54568223Y-24251777D01*
X54551747Y-24233598D01*
X54537133Y-24213893D01*
X54524520Y-24192849D01*
X54514030Y-24170671D01*
X54505765Y-24147571D01*
X54499804Y-24123773D01*
X54496204Y-24099504D01*
X54495000Y-24075000D01*
X54495000Y-23325000D01*
X54496204Y-23300496D01*
X54499804Y-23276227D01*
X54505765Y-23252429D01*
X54514030Y-23229329D01*
X54524520Y-23207151D01*
X54537133Y-23186107D01*
X54551747Y-23166402D01*
X54568223Y-23148223D01*
X54586402Y-23131747D01*
X54606107Y-23117133D01*
X54627151Y-23104520D01*
X54649329Y-23094030D01*
X54672429Y-23085765D01*
X54696227Y-23079804D01*
X54720496Y-23076204D01*
X54745000Y-23075000D01*
X56895000Y-23075000D01*
X56919504Y-23076204D01*
G37*
G04 #@! TD.AperFunction*
G04 #@! TA.AperFunction,SMDPad,CuDef*
G36*
X56919504Y-25876204D02*
G01*
X56943773Y-25879804D01*
X56967571Y-25885765D01*
X56990671Y-25894030D01*
X57012849Y-25904520D01*
X57033893Y-25917133D01*
X57053598Y-25931747D01*
X57071777Y-25948223D01*
X57088253Y-25966402D01*
X57102867Y-25986107D01*
X57115480Y-26007151D01*
X57125970Y-26029329D01*
X57134235Y-26052429D01*
X57140196Y-26076227D01*
X57143796Y-26100496D01*
X57145000Y-26125000D01*
X57145000Y-26875000D01*
X57143796Y-26899504D01*
X57140196Y-26923773D01*
X57134235Y-26947571D01*
X57125970Y-26970671D01*
X57115480Y-26992849D01*
X57102867Y-27013893D01*
X57088253Y-27033598D01*
X57071777Y-27051777D01*
X57053598Y-27068253D01*
X57033893Y-27082867D01*
X57012849Y-27095480D01*
X56990671Y-27105970D01*
X56967571Y-27114235D01*
X56943773Y-27120196D01*
X56919504Y-27123796D01*
X56895000Y-27125000D01*
X54745000Y-27125000D01*
X54720496Y-27123796D01*
X54696227Y-27120196D01*
X54672429Y-27114235D01*
X54649329Y-27105970D01*
X54627151Y-27095480D01*
X54606107Y-27082867D01*
X54586402Y-27068253D01*
X54568223Y-27051777D01*
X54551747Y-27033598D01*
X54537133Y-27013893D01*
X54524520Y-26992849D01*
X54514030Y-26970671D01*
X54505765Y-26947571D01*
X54499804Y-26923773D01*
X54496204Y-26899504D01*
X54495000Y-26875000D01*
X54495000Y-26125000D01*
X54496204Y-26100496D01*
X54499804Y-26076227D01*
X54505765Y-26052429D01*
X54514030Y-26029329D01*
X54524520Y-26007151D01*
X54537133Y-25986107D01*
X54551747Y-25966402D01*
X54568223Y-25948223D01*
X54586402Y-25931747D01*
X54606107Y-25917133D01*
X54627151Y-25904520D01*
X54649329Y-25894030D01*
X54672429Y-25885765D01*
X54696227Y-25879804D01*
X54720496Y-25876204D01*
X54745000Y-25875000D01*
X56895000Y-25875000D01*
X56919504Y-25876204D01*
G37*
G04 #@! TD.AperFunction*
D19*
X21420000Y-21780000D03*
X21420000Y-35340000D03*
D18*
X59260000Y-21100000D03*
X56720000Y-21100000D03*
X54180000Y-21100000D03*
X51640000Y-21100000D03*
X49100000Y-21100000D03*
X46560000Y-21100000D03*
X44020000Y-21100000D03*
X41480000Y-21100000D03*
X38940000Y-21100000D03*
X36400000Y-21100000D03*
X33860000Y-21100000D03*
X31320000Y-21100000D03*
X28780000Y-21100000D03*
X26240000Y-21100000D03*
D19*
X23700000Y-21100000D03*
D18*
X59260000Y-36100000D03*
X56720000Y-36100000D03*
X54180000Y-36100000D03*
X51640000Y-36100000D03*
X49100000Y-36100000D03*
X46560000Y-36100000D03*
X44020000Y-36100000D03*
X41480000Y-36100000D03*
X38940000Y-36100000D03*
X36400000Y-36100000D03*
X33860000Y-36100000D03*
X31320000Y-36100000D03*
X28780000Y-36100000D03*
X26240000Y-36100000D03*
D19*
X23700000Y-36100000D03*
D20*
X52625000Y-31437000D03*
X56775000Y-31437000D03*
X52625000Y-33587000D03*
X56775000Y-33587000D03*
D21*
X53070000Y-26480000D03*
X53070000Y-25530000D03*
X53070000Y-27430000D03*
X50870000Y-27430000D03*
X50870000Y-26480000D03*
X50870000Y-25530000D03*
X28600000Y-28500000D03*
X28600000Y-29450000D03*
X28600000Y-27550000D03*
X30800000Y-27550000D03*
X30800000Y-28500000D03*
X30800000Y-29450000D03*
D22*
X25454999Y-24250000D03*
X25454999Y-32890000D03*
D23*
X21274999Y-24250000D03*
X21274999Y-32890000D03*
D24*
X26369999Y-31770000D03*
X26369999Y-30970000D03*
D25*
X26369999Y-30320000D03*
X26369999Y-29820000D03*
X26369999Y-29320000D03*
X26369999Y-28820000D03*
X26369999Y-28320000D03*
X26369999Y-27820000D03*
X26369999Y-27320000D03*
X26369999Y-26820000D03*
D24*
X26369999Y-26170000D03*
X26369999Y-25370000D03*
G04 #@! TA.AperFunction,SMDPad,CuDef*
D15*
G36*
X27952691Y-33126053D02*
G01*
X27973926Y-33129203D01*
X27994750Y-33134419D01*
X28014962Y-33141651D01*
X28034368Y-33150830D01*
X28052781Y-33161866D01*
X28070024Y-33174654D01*
X28085930Y-33189070D01*
X28100346Y-33204976D01*
X28113134Y-33222219D01*
X28124170Y-33240632D01*
X28133349Y-33260038D01*
X28140581Y-33280250D01*
X28145797Y-33301074D01*
X28148947Y-33322309D01*
X28150000Y-33343750D01*
X28150000Y-33856250D01*
X28148947Y-33877691D01*
X28145797Y-33898926D01*
X28140581Y-33919750D01*
X28133349Y-33939962D01*
X28124170Y-33959368D01*
X28113134Y-33977781D01*
X28100346Y-33995024D01*
X28085930Y-34010930D01*
X28070024Y-34025346D01*
X28052781Y-34038134D01*
X28034368Y-34049170D01*
X28014962Y-34058349D01*
X27994750Y-34065581D01*
X27973926Y-34070797D01*
X27952691Y-34073947D01*
X27931250Y-34075000D01*
X27493750Y-34075000D01*
X27472309Y-34073947D01*
X27451074Y-34070797D01*
X27430250Y-34065581D01*
X27410038Y-34058349D01*
X27390632Y-34049170D01*
X27372219Y-34038134D01*
X27354976Y-34025346D01*
X27339070Y-34010930D01*
X27324654Y-33995024D01*
X27311866Y-33977781D01*
X27300830Y-33959368D01*
X27291651Y-33939962D01*
X27284419Y-33919750D01*
X27279203Y-33898926D01*
X27276053Y-33877691D01*
X27275000Y-33856250D01*
X27275000Y-33343750D01*
X27276053Y-33322309D01*
X27279203Y-33301074D01*
X27284419Y-33280250D01*
X27291651Y-33260038D01*
X27300830Y-33240632D01*
X27311866Y-33222219D01*
X27324654Y-33204976D01*
X27339070Y-33189070D01*
X27354976Y-33174654D01*
X27372219Y-33161866D01*
X27390632Y-33150830D01*
X27410038Y-33141651D01*
X27430250Y-33134419D01*
X27451074Y-33129203D01*
X27472309Y-33126053D01*
X27493750Y-33125000D01*
X27931250Y-33125000D01*
X27952691Y-33126053D01*
G37*
G04 #@! TD.AperFunction*
G04 #@! TA.AperFunction,SMDPad,CuDef*
G36*
X29527691Y-33126053D02*
G01*
X29548926Y-33129203D01*
X29569750Y-33134419D01*
X29589962Y-33141651D01*
X29609368Y-33150830D01*
X29627781Y-33161866D01*
X29645024Y-33174654D01*
X29660930Y-33189070D01*
X29675346Y-33204976D01*
X29688134Y-33222219D01*
X29699170Y-33240632D01*
X29708349Y-33260038D01*
X29715581Y-33280250D01*
X29720797Y-33301074D01*
X29723947Y-33322309D01*
X29725000Y-33343750D01*
X29725000Y-33856250D01*
X29723947Y-33877691D01*
X29720797Y-33898926D01*
X29715581Y-33919750D01*
X29708349Y-33939962D01*
X29699170Y-33959368D01*
X29688134Y-33977781D01*
X29675346Y-33995024D01*
X29660930Y-34010930D01*
X29645024Y-34025346D01*
X29627781Y-34038134D01*
X29609368Y-34049170D01*
X29589962Y-34058349D01*
X29569750Y-34065581D01*
X29548926Y-34070797D01*
X29527691Y-34073947D01*
X29506250Y-34075000D01*
X29068750Y-34075000D01*
X29047309Y-34073947D01*
X29026074Y-34070797D01*
X29005250Y-34065581D01*
X28985038Y-34058349D01*
X28965632Y-34049170D01*
X28947219Y-34038134D01*
X28929976Y-34025346D01*
X28914070Y-34010930D01*
X28899654Y-33995024D01*
X28886866Y-33977781D01*
X28875830Y-33959368D01*
X28866651Y-33939962D01*
X28859419Y-33919750D01*
X28854203Y-33898926D01*
X28851053Y-33877691D01*
X28850000Y-33856250D01*
X28850000Y-33343750D01*
X28851053Y-33322309D01*
X28854203Y-33301074D01*
X28859419Y-33280250D01*
X28866651Y-33260038D01*
X28875830Y-33240632D01*
X28886866Y-33222219D01*
X28899654Y-33204976D01*
X28914070Y-33189070D01*
X28929976Y-33174654D01*
X28947219Y-33161866D01*
X28965632Y-33150830D01*
X28985038Y-33141651D01*
X29005250Y-33134419D01*
X29026074Y-33129203D01*
X29047309Y-33126053D01*
X29068750Y-33125000D01*
X29506250Y-33125000D01*
X29527691Y-33126053D01*
G37*
G04 #@! TD.AperFunction*
G04 #@! TA.AperFunction,SMDPad,CuDef*
G36*
X27952691Y-23126053D02*
G01*
X27973926Y-23129203D01*
X27994750Y-23134419D01*
X28014962Y-23141651D01*
X28034368Y-23150830D01*
X28052781Y-23161866D01*
X28070024Y-23174654D01*
X28085930Y-23189070D01*
X28100346Y-23204976D01*
X28113134Y-23222219D01*
X28124170Y-23240632D01*
X28133349Y-23260038D01*
X28140581Y-23280250D01*
X28145797Y-23301074D01*
X28148947Y-23322309D01*
X28150000Y-23343750D01*
X28150000Y-23856250D01*
X28148947Y-23877691D01*
X28145797Y-23898926D01*
X28140581Y-23919750D01*
X28133349Y-23939962D01*
X28124170Y-23959368D01*
X28113134Y-23977781D01*
X28100346Y-23995024D01*
X28085930Y-24010930D01*
X28070024Y-24025346D01*
X28052781Y-24038134D01*
X28034368Y-24049170D01*
X28014962Y-24058349D01*
X27994750Y-24065581D01*
X27973926Y-24070797D01*
X27952691Y-24073947D01*
X27931250Y-24075000D01*
X27493750Y-24075000D01*
X27472309Y-24073947D01*
X27451074Y-24070797D01*
X27430250Y-24065581D01*
X27410038Y-24058349D01*
X27390632Y-24049170D01*
X27372219Y-24038134D01*
X27354976Y-24025346D01*
X27339070Y-24010930D01*
X27324654Y-23995024D01*
X27311866Y-23977781D01*
X27300830Y-23959368D01*
X27291651Y-23939962D01*
X27284419Y-23919750D01*
X27279203Y-23898926D01*
X27276053Y-23877691D01*
X27275000Y-23856250D01*
X27275000Y-23343750D01*
X27276053Y-23322309D01*
X27279203Y-23301074D01*
X27284419Y-23280250D01*
X27291651Y-23260038D01*
X27300830Y-23240632D01*
X27311866Y-23222219D01*
X27324654Y-23204976D01*
X27339070Y-23189070D01*
X27354976Y-23174654D01*
X27372219Y-23161866D01*
X27390632Y-23150830D01*
X27410038Y-23141651D01*
X27430250Y-23134419D01*
X27451074Y-23129203D01*
X27472309Y-23126053D01*
X27493750Y-23125000D01*
X27931250Y-23125000D01*
X27952691Y-23126053D01*
G37*
G04 #@! TD.AperFunction*
G04 #@! TA.AperFunction,SMDPad,CuDef*
G36*
X29527691Y-23126053D02*
G01*
X29548926Y-23129203D01*
X29569750Y-23134419D01*
X29589962Y-23141651D01*
X29609368Y-23150830D01*
X29627781Y-23161866D01*
X29645024Y-23174654D01*
X29660930Y-23189070D01*
X29675346Y-23204976D01*
X29688134Y-23222219D01*
X29699170Y-23240632D01*
X29708349Y-23260038D01*
X29715581Y-23280250D01*
X29720797Y-23301074D01*
X29723947Y-23322309D01*
X29725000Y-23343750D01*
X29725000Y-23856250D01*
X29723947Y-23877691D01*
X29720797Y-23898926D01*
X29715581Y-23919750D01*
X29708349Y-23939962D01*
X29699170Y-23959368D01*
X29688134Y-23977781D01*
X29675346Y-23995024D01*
X29660930Y-24010930D01*
X29645024Y-24025346D01*
X29627781Y-24038134D01*
X29609368Y-24049170D01*
X29589962Y-24058349D01*
X29569750Y-24065581D01*
X29548926Y-24070797D01*
X29527691Y-24073947D01*
X29506250Y-24075000D01*
X29068750Y-24075000D01*
X29047309Y-24073947D01*
X29026074Y-24070797D01*
X29005250Y-24065581D01*
X28985038Y-24058349D01*
X28965632Y-24049170D01*
X28947219Y-24038134D01*
X28929976Y-24025346D01*
X28914070Y-24010930D01*
X28899654Y-23995024D01*
X28886866Y-23977781D01*
X28875830Y-23959368D01*
X28866651Y-23939962D01*
X28859419Y-23919750D01*
X28854203Y-23898926D01*
X28851053Y-23877691D01*
X28850000Y-23856250D01*
X28850000Y-23343750D01*
X28851053Y-23322309D01*
X28854203Y-23301074D01*
X28859419Y-23280250D01*
X28866651Y-23260038D01*
X28875830Y-23240632D01*
X28886866Y-23222219D01*
X28899654Y-23204976D01*
X28914070Y-23189070D01*
X28929976Y-23174654D01*
X28947219Y-23161866D01*
X28965632Y-23150830D01*
X28985038Y-23141651D01*
X29005250Y-23134419D01*
X29026074Y-23129203D01*
X29047309Y-23126053D01*
X29068750Y-23125000D01*
X29506250Y-23125000D01*
X29527691Y-23126053D01*
G37*
G04 #@! TD.AperFunction*
D26*
X32600000Y-34800000D03*
X58500000Y-23200000D03*
X30300000Y-31000000D03*
X49882999Y-24887575D03*
X61680000Y-20540000D03*
X62680000Y-20540000D03*
X61680000Y-21540000D03*
X62680000Y-21540000D03*
X61680000Y-22540000D03*
X62680000Y-22540000D03*
X61680000Y-23540000D03*
X62680000Y-23540000D03*
X61680000Y-24540000D03*
X62680000Y-24540000D03*
X61680000Y-25540000D03*
X62680000Y-25540000D03*
X61680000Y-26540000D03*
X62680000Y-26540000D03*
X61680000Y-27540000D03*
X62680000Y-27540000D03*
X61680000Y-28540000D03*
X62680000Y-28540000D03*
X61680000Y-29540000D03*
X62680000Y-29540000D03*
X61680000Y-30540000D03*
X62680000Y-30540000D03*
X61680000Y-31540000D03*
X62680000Y-31540000D03*
X61680000Y-32540000D03*
X62680000Y-32540000D03*
X61680000Y-33540000D03*
X62680000Y-33540000D03*
X61680000Y-34540000D03*
X62680000Y-34540000D03*
X61680000Y-35540000D03*
X62680000Y-35540000D03*
X61680000Y-36540000D03*
X62680000Y-36540000D03*
X31800000Y-28500000D03*
X30500000Y-26000000D03*
X32000000Y-25400000D03*
X32000000Y-27000000D03*
X34100000Y-25500000D03*
X31600000Y-31400000D03*
X32800000Y-29700000D03*
X30800000Y-33200000D03*
X37000000Y-26400000D03*
X38100000Y-25400000D03*
X40200000Y-25400000D03*
X42400000Y-28000000D03*
X38400000Y-29200000D03*
X37600000Y-27800000D03*
X41000000Y-29300000D03*
X45100000Y-27800000D03*
X46100000Y-30600000D03*
X49000000Y-31400000D03*
X45600000Y-32400000D03*
X47300000Y-27200000D03*
X45500000Y-23500000D03*
X49000000Y-25200000D03*
X49800000Y-25800000D03*
X46600000Y-25200000D03*
X51400000Y-23900000D03*
X50100000Y-23890000D03*
X51200000Y-29500000D03*
X52200000Y-30600000D03*
X54300000Y-29000000D03*
X55100000Y-29000000D03*
X55900000Y-29000000D03*
X56700000Y-29000000D03*
X53400000Y-29600000D03*
X50870000Y-25530000D03*
X53300000Y-23000000D03*
X28592990Y-28500000D03*
X51500030Y-31437000D03*
X27900000Y-26342990D03*
X39300000Y-30600000D03*
X27800000Y-30600000D03*
X38000000Y-34500000D03*
X48014332Y-33611991D03*
X38600000Y-34000000D03*
X50700000Y-33350479D03*
X35900010Y-28200000D03*
X33600000Y-28700000D03*
X35121337Y-28021337D03*
X32999998Y-28100000D03*
X29600000Y-28900000D03*
X33999479Y-33100521D03*
X29577893Y-28084211D03*
X34600521Y-32499479D03*
X24500000Y-28800000D03*
X24500000Y-27900000D03*
X25150000Y-27200000D03*
X25150000Y-30357010D03*
X24770000Y-29600000D03*
X24300000Y-30450000D03*
X24460000Y-26810000D03*
X46300000Y-23600000D03*
X46300000Y-24300000D03*
X53700006Y-34763530D03*
X27828661Y-32628665D03*
X30200000Y-32600000D03*
X39539784Y-32668374D03*
X46300000Y-33000000D03*
X39500000Y-33900000D03*
X51628658Y-33228668D03*
X38700000Y-23200000D03*
X40200000Y-21900000D03*
X44834371Y-31955737D03*
X43905121Y-33464490D03*
X43200000Y-33000000D03*
X44596698Y-31237003D03*
X39900722Y-29857747D03*
X42500000Y-33300000D03*
X36800000Y-34200000D03*
X39878064Y-31214977D03*
X34396773Y-31737508D03*
X37199998Y-28799998D03*
X31900702Y-23099298D03*
D27*
X25454999Y-32685000D02*
X26369999Y-31770000D01*
X25454999Y-32890000D02*
X25454999Y-32685000D01*
X26369999Y-25165000D02*
X25454999Y-24250000D01*
X26369999Y-25370000D02*
X26369999Y-25165000D01*
D28*
X24942500Y-32890000D02*
X25454999Y-32890000D01*
D29*
X50760000Y-26480000D02*
X50692990Y-26412990D01*
X49660000Y-26470000D02*
X49890000Y-26470000D01*
X49530000Y-26600000D02*
X49660000Y-26470000D01*
X49890000Y-26470000D02*
X49890000Y-26312001D01*
X50057999Y-26480000D02*
X49890000Y-26312001D01*
X50760000Y-26480000D02*
X50057999Y-26480000D01*
X50542500Y-24228074D02*
X50542500Y-23890000D01*
X49890000Y-26312001D02*
X49882999Y-26305000D01*
X49882999Y-26305000D02*
X49882999Y-24887575D01*
X49882999Y-24887575D02*
X50542500Y-24228074D01*
X49882999Y-24887575D02*
X49882999Y-24887575D01*
X50542500Y-23890000D02*
X50542500Y-23890000D01*
D30*
X53720000Y-24770000D02*
X52960000Y-25530000D01*
X53720000Y-24355000D02*
X53720000Y-24770000D01*
X50760000Y-25530000D02*
X50760000Y-25390684D01*
X50760000Y-25390685D02*
X50760000Y-25530000D01*
D28*
X53599999Y-23299999D02*
X53300000Y-23000000D01*
X53720000Y-23385000D02*
X53685000Y-23385000D01*
X53685000Y-23385000D02*
X53599999Y-23299999D01*
D30*
X27712500Y-23600000D02*
X27400000Y-23600000D01*
D31*
X56490000Y-28012500D02*
X56500000Y-28022500D01*
X54690000Y-28012500D02*
X56490000Y-28012500D01*
X55600000Y-27102500D02*
X54690000Y-28012500D01*
X55600000Y-26680000D02*
X55600000Y-27102500D01*
X55600000Y-27122500D02*
X56500000Y-28022500D01*
X55600000Y-26680000D02*
X55600000Y-27122500D01*
D29*
X56775000Y-31437000D02*
X51500030Y-31437000D01*
D28*
X51924294Y-31437000D02*
X51500030Y-31437000D01*
X53090532Y-31437000D02*
X51924294Y-31437000D01*
D29*
X50230000Y-29485000D02*
X49810000Y-29485000D01*
X50230000Y-30166970D02*
X50230000Y-29485000D01*
X49265000Y-29770000D02*
X48920000Y-29770000D01*
X49930000Y-30435000D02*
X49265000Y-29770000D01*
X49930000Y-29605000D02*
X49810000Y-29485000D01*
X49930000Y-30435000D02*
X49930000Y-29605000D01*
X50134908Y-30515000D02*
X49930000Y-30515000D01*
X50756909Y-31137001D02*
X50134908Y-30515000D01*
X51200031Y-31137001D02*
X50756909Y-31137001D01*
X51500030Y-31437000D02*
X51200031Y-31137001D01*
D30*
X27775000Y-23675000D02*
X27900000Y-23800000D01*
X27900000Y-23800000D02*
X27900000Y-25918726D01*
X27900000Y-25918726D02*
X27900000Y-26342990D01*
X43255629Y-24832340D02*
X42407107Y-25680862D01*
X43632340Y-24832340D02*
X43255629Y-24832340D01*
X41900000Y-26187969D02*
X42407107Y-25680862D01*
X41900000Y-26600000D02*
X41900000Y-26187969D01*
X42602183Y-26900000D02*
X42200000Y-26900000D01*
X42200000Y-26900000D02*
X41900000Y-26600000D01*
X43114214Y-26387969D02*
X42602183Y-26900000D01*
D31*
X57177500Y-28022500D02*
X57200000Y-28000000D01*
X56500000Y-28022500D02*
X57177500Y-28022500D01*
X57165000Y-28010000D02*
X57177500Y-28022500D01*
X56500000Y-28010000D02*
X57165000Y-28010000D01*
D27*
X57600000Y-26294498D02*
X57600000Y-27400000D01*
X59044498Y-24850000D02*
X57600000Y-26294498D01*
X59200000Y-24850000D02*
X59044498Y-24850000D01*
X57165000Y-27835000D02*
X57600000Y-27400000D01*
X57165000Y-28010000D02*
X57165000Y-27835000D01*
D29*
X56775000Y-31357602D02*
X56775000Y-31437000D01*
X57165000Y-28010000D02*
X57507001Y-28352001D01*
X57507001Y-28352001D02*
X57507001Y-30625601D01*
X57507001Y-30625601D02*
X56775000Y-31357602D01*
D30*
X42229364Y-25858605D02*
X42407107Y-25680862D01*
X41900000Y-26187969D02*
X42229364Y-25858605D01*
D28*
X27800000Y-31024264D02*
X27800000Y-30600000D01*
X26240000Y-34897919D02*
X26900000Y-34237919D01*
X26240000Y-36100000D02*
X26240000Y-34897919D01*
X26900000Y-34237919D02*
X26900000Y-32800000D01*
X26900000Y-32800000D02*
X27800000Y-31900000D01*
X27800000Y-31900000D02*
X27800000Y-31024264D01*
D29*
X44500000Y-28600000D02*
X43200000Y-28600000D01*
X45630000Y-29730000D02*
X44500000Y-28600000D01*
X49565000Y-29730000D02*
X45630000Y-29730000D01*
X49810000Y-29485000D02*
X49565000Y-29730000D01*
D30*
X43200000Y-27900000D02*
X41900000Y-26600000D01*
X43200000Y-28600000D02*
X43200000Y-27900000D01*
D27*
X39342025Y-30557975D02*
X39300000Y-30600000D01*
X40942025Y-30557975D02*
X39342025Y-30557975D01*
X42900000Y-28600000D02*
X40942025Y-30557975D01*
X43200000Y-28600000D02*
X42900000Y-28600000D01*
D30*
X29287500Y-24327500D02*
X28715000Y-24900000D01*
X29287500Y-23600000D02*
X29287500Y-24327500D01*
X29287500Y-32972500D02*
X28515000Y-32200000D01*
X29287500Y-33600000D02*
X29287500Y-32972500D01*
X49930000Y-28370000D02*
X49930000Y-28505000D01*
X49580000Y-27620000D02*
X50570000Y-27620000D01*
X49540000Y-27580000D02*
X49580000Y-27620000D01*
X50570000Y-27620000D02*
X50760000Y-27430000D01*
X50760000Y-27430000D02*
X50760000Y-27540000D01*
X50760000Y-27540000D02*
X49930000Y-28370000D01*
D28*
X48885000Y-33565000D02*
X49830000Y-32620000D01*
X48800000Y-33565000D02*
X48885000Y-33565000D01*
X38023045Y-34476955D02*
X38000000Y-34500000D01*
X38023045Y-33600458D02*
X38023045Y-34476955D01*
X48061323Y-33565000D02*
X48014332Y-33611991D01*
X48800000Y-33565000D02*
X48061323Y-33565000D01*
X50880000Y-32620000D02*
X49830000Y-32620000D01*
X51149512Y-32350488D02*
X50880000Y-32620000D01*
X57549512Y-32350488D02*
X51149512Y-32350488D01*
X59200000Y-30700000D02*
X57549512Y-32350488D01*
X59200000Y-29930000D02*
X59200000Y-30700000D01*
X38600000Y-33575736D02*
X38600000Y-34000000D01*
X38806563Y-33369173D02*
X38600000Y-33575736D01*
X38806563Y-33131674D02*
X38806563Y-33369173D01*
X38374889Y-32700000D02*
X38806563Y-33131674D01*
X38216397Y-32700000D02*
X38374889Y-32700000D01*
X37669492Y-33246905D02*
X38216397Y-32700000D01*
X50999999Y-33050480D02*
X50700000Y-33350479D01*
X58723458Y-33600000D02*
X57787957Y-32664499D01*
X60300000Y-33000000D02*
X59700000Y-33600000D01*
X60300000Y-28490000D02*
X60300000Y-33000000D01*
X59200000Y-27390000D02*
X60300000Y-28490000D01*
X59700000Y-33600000D02*
X58723458Y-33600000D01*
X57787957Y-32664499D02*
X51385980Y-32664499D01*
X51385980Y-32664499D02*
X50999999Y-33050480D01*
X28400000Y-30340000D02*
X28380000Y-30320000D01*
X28400000Y-31012500D02*
X28400000Y-30340000D01*
X40900000Y-31700000D02*
X40900000Y-32093351D01*
X40900000Y-32093351D02*
X41346447Y-32539798D01*
X41200000Y-31700000D02*
X40900000Y-31700000D01*
X41700000Y-32200000D02*
X41200000Y-31700000D01*
X41700000Y-32186245D02*
X41700000Y-32200000D01*
X29725000Y-30320000D02*
X28380000Y-30320000D01*
X30595000Y-29450000D02*
X29725000Y-30320000D01*
X30800000Y-29450000D02*
X30595000Y-29450000D01*
X32400000Y-28700000D02*
X33600000Y-28700000D01*
X31650000Y-29450000D02*
X32400000Y-28700000D01*
X30800000Y-29450000D02*
X31650000Y-29450000D01*
X27251999Y-30320000D02*
X26369999Y-30320000D01*
X27507500Y-30064499D02*
X27251999Y-30320000D01*
X28124499Y-30064499D02*
X27507500Y-30064499D01*
X28380000Y-30320000D02*
X28124499Y-30064499D01*
X37306409Y-29650487D02*
X36813867Y-29650487D01*
X40849513Y-31750487D02*
X39406409Y-31750487D01*
X39406409Y-31750487D02*
X37306409Y-29650487D01*
X36813867Y-29650487D02*
X35900010Y-28736630D01*
X40900000Y-31700000D02*
X40849513Y-31750487D01*
X35900010Y-28736630D02*
X35900010Y-28624264D01*
X35900010Y-28624264D02*
X35900010Y-28200000D01*
X28600000Y-26900000D02*
X28600000Y-26087500D01*
X27294999Y-27320000D02*
X26369999Y-27320000D01*
X27714999Y-26900000D02*
X27294999Y-27320000D01*
X28600000Y-26900000D02*
X27714999Y-26900000D01*
X40992894Y-32892894D02*
X40400000Y-32300000D01*
X40400000Y-32300000D02*
X40100000Y-32300000D01*
X40992894Y-32893351D02*
X40992894Y-32892894D01*
X29524364Y-26900000D02*
X28600000Y-26900000D01*
X29945000Y-26900000D02*
X29524364Y-26900000D01*
X30595000Y-27550000D02*
X29945000Y-26900000D01*
X30800000Y-27550000D02*
X30595000Y-27550000D01*
X32349999Y-28100000D02*
X32999998Y-28100000D01*
X31799999Y-27550000D02*
X32349999Y-28100000D01*
X30800000Y-27550000D02*
X31799999Y-27550000D01*
X37114498Y-29964498D02*
X36640234Y-29964498D01*
X39864498Y-32064498D02*
X39214498Y-32064498D01*
X39214498Y-32064498D02*
X37114498Y-29964498D01*
X35121337Y-28445601D02*
X35121337Y-28021337D01*
X36640234Y-29964498D02*
X35121337Y-28445601D01*
X40100000Y-32300000D02*
X39864498Y-32064498D01*
X40200000Y-32400000D02*
X40200000Y-32807565D01*
X40200000Y-32807565D02*
X40639340Y-33246905D01*
X40100000Y-32300000D02*
X40200000Y-32400000D01*
D30*
X28470000Y-29320000D02*
X28600000Y-29450000D01*
X26369999Y-29320000D02*
X28470000Y-29320000D01*
X27950000Y-29450000D02*
X28600000Y-29450000D01*
X27600000Y-29100000D02*
X27950000Y-29450000D01*
X27600000Y-28625001D02*
X27600000Y-29100000D01*
X27294999Y-28320000D02*
X27600000Y-28625001D01*
X26369999Y-28320000D02*
X27294999Y-28320000D01*
X29050000Y-29450000D02*
X29600000Y-28900000D01*
X28600000Y-29450000D02*
X29050000Y-29450000D01*
X34282322Y-33100521D02*
X35006801Y-33825000D01*
X33999479Y-33100521D02*
X34282322Y-33100521D01*
X37280584Y-32893351D02*
X37315938Y-32893351D01*
X36348935Y-33825000D02*
X37280584Y-32893351D01*
X35006801Y-33825000D02*
X36348935Y-33825000D01*
X28330000Y-27820000D02*
X28600000Y-27550000D01*
X26369999Y-27820000D02*
X28330000Y-27820000D01*
X25444999Y-28820000D02*
X25300000Y-28675001D01*
X26369999Y-28820000D02*
X25444999Y-28820000D01*
X25444999Y-27820000D02*
X26369999Y-27820000D01*
X25300000Y-27964999D02*
X25444999Y-27820000D01*
X25300000Y-28675001D02*
X25300000Y-27964999D01*
X29043682Y-27550000D02*
X29577893Y-28084211D01*
X28600000Y-27550000D02*
X29043682Y-27550000D01*
X34600521Y-32782322D02*
X35193199Y-33375000D01*
X34600521Y-32499479D02*
X34600521Y-32782322D01*
X36962385Y-32575152D02*
X36962385Y-32539798D01*
X36162537Y-33375000D02*
X36962385Y-32575152D01*
X35193199Y-33375000D02*
X36162537Y-33375000D01*
D31*
X21420000Y-21780000D02*
X23750000Y-24110000D01*
X23750000Y-24110000D02*
X23750000Y-26100000D01*
X23750000Y-26100000D02*
X24460000Y-26810000D01*
D29*
X52080000Y-26480000D02*
X52960000Y-26480000D01*
X51972999Y-26587001D02*
X52080000Y-26480000D01*
X51972999Y-27894603D02*
X51972999Y-26587001D01*
X51800000Y-28235000D02*
X51800000Y-28067602D01*
X52315000Y-28750000D02*
X51800000Y-28235000D01*
X51800000Y-28067602D02*
X51972999Y-27894603D01*
X51972999Y-26372999D02*
X52080000Y-26480000D01*
X51972999Y-24965417D02*
X51972999Y-26372999D01*
X52417500Y-23890000D02*
X52417500Y-24520916D01*
X52417500Y-24520916D02*
X51972999Y-24965417D01*
X51373058Y-28494544D02*
X51500001Y-28367601D01*
X51500001Y-28367601D02*
X51800000Y-28067602D01*
D27*
X53285000Y-27755000D02*
X52960000Y-27430000D01*
X53285000Y-28750000D02*
X53285000Y-27755000D01*
D29*
X46950000Y-23600000D02*
X47250000Y-23900000D01*
X46300000Y-23600000D02*
X46950000Y-23600000D01*
X46950000Y-23650000D02*
X46950000Y-23600000D01*
X46300000Y-24300000D02*
X46950000Y-23650000D01*
D27*
X54124270Y-34763530D02*
X53700006Y-34763530D01*
X57923530Y-34763530D02*
X54124270Y-34763530D01*
X59260000Y-36100000D02*
X57923530Y-34763530D01*
D28*
X56773000Y-33585000D02*
X56775000Y-33587000D01*
X50140989Y-33885989D02*
X52326011Y-33885989D01*
X49830000Y-33575000D02*
X50140989Y-33885989D01*
X52326011Y-33885989D02*
X52625000Y-33587000D01*
X52625000Y-33587000D02*
X56775000Y-33587000D01*
X23700000Y-36100000D02*
X24300000Y-36100000D01*
X27712500Y-32744826D02*
X27828661Y-32628665D01*
X27712500Y-33600000D02*
X27712500Y-32744826D01*
X30499999Y-32300001D02*
X30200000Y-32600000D01*
X31545328Y-32300001D02*
X30499999Y-32300001D01*
X34133958Y-29711371D02*
X31545328Y-32300001D01*
X39500000Y-32800000D02*
X39500000Y-32708158D01*
X39500000Y-32708158D02*
X39539784Y-32668374D01*
X39261177Y-32397236D02*
X39561176Y-32697235D01*
X39009653Y-32397236D02*
X39261177Y-32397236D01*
X37112417Y-30500000D02*
X39009653Y-32397236D01*
X36173755Y-30500000D02*
X37112417Y-30500000D01*
X35548171Y-31125584D02*
X36173755Y-30500000D01*
X59260000Y-21860000D02*
X59260000Y-21100000D01*
X61000000Y-23600000D02*
X59260000Y-21860000D01*
X61000000Y-33188154D02*
X61000000Y-23600000D01*
X59960135Y-34228021D02*
X61000000Y-33188154D01*
X47528020Y-34228020D02*
X59960135Y-34228021D01*
X46300000Y-33000000D02*
X47528020Y-34228020D01*
X39200001Y-33600001D02*
X39500000Y-33900000D01*
X39120574Y-33001607D02*
X39120574Y-33520574D01*
X37614044Y-31495077D02*
X39120574Y-33001607D01*
X39120574Y-33520574D02*
X39200001Y-33600001D01*
X37300000Y-31495077D02*
X37614044Y-31495077D01*
X36608832Y-32186245D02*
X37300000Y-31495077D01*
X51857326Y-33000000D02*
X51628658Y-33228668D01*
X57679380Y-33000000D02*
X51857326Y-33000000D01*
X58593390Y-33914010D02*
X57679380Y-33000000D01*
X59830067Y-33914011D02*
X58593390Y-33914010D01*
X60614011Y-23696031D02*
X60614010Y-33130068D01*
X57920000Y-22300000D02*
X59217980Y-22300000D01*
X60614010Y-33130068D02*
X59830067Y-33914011D01*
X56720000Y-21100000D02*
X57920000Y-22300000D01*
X59217980Y-22300000D02*
X60614011Y-23696031D01*
X59087913Y-22614011D02*
X55694011Y-22614011D01*
X60300000Y-23826098D02*
X59087913Y-22614011D01*
X60300000Y-25873902D02*
X60300000Y-23826098D01*
X59973902Y-26200000D02*
X60300000Y-25873902D01*
X55694011Y-22614011D02*
X55029999Y-21949999D01*
X58700000Y-26200000D02*
X59973902Y-26200000D01*
X55029999Y-21949999D02*
X54180000Y-21100000D01*
X58100000Y-31355922D02*
X58100000Y-26800000D01*
X58100000Y-26800000D02*
X58700000Y-26200000D01*
X46499980Y-32036477D02*
X57419445Y-32036477D01*
X57419445Y-32036477D02*
X58100000Y-31355922D01*
X44174874Y-29711371D02*
X46499980Y-32036477D01*
X48250001Y-21949999D02*
X49100000Y-21100000D01*
X47700000Y-22500000D02*
X48250001Y-21949999D01*
X41345329Y-22500000D02*
X47700000Y-22500000D01*
X40285787Y-23559542D02*
X41345329Y-22500000D01*
X38340458Y-23559542D02*
X38700000Y-23200000D01*
X38023045Y-23559542D02*
X38340458Y-23559542D01*
X40200000Y-22524364D02*
X40200000Y-22324264D01*
X39000000Y-23724364D02*
X40200000Y-22524364D01*
X39000000Y-23900000D02*
X39000000Y-23724364D01*
X40200000Y-22324264D02*
X40200000Y-21900000D01*
X38500000Y-24400000D02*
X39000000Y-23900000D01*
X38156397Y-24400000D02*
X38500000Y-24400000D01*
X37669492Y-23913095D02*
X38156397Y-24400000D01*
X41480000Y-21749253D02*
X41480000Y-21100000D01*
X39400000Y-23829253D02*
X41480000Y-21749253D01*
X39400000Y-24000000D02*
X39400000Y-23829253D01*
X38678429Y-24721571D02*
X39400000Y-24000000D01*
X37770860Y-24721571D02*
X38678429Y-24721571D01*
X37315938Y-24266649D02*
X37770860Y-24721571D01*
D30*
X38090001Y-21949999D02*
X38940000Y-21100000D01*
X36510920Y-23529080D02*
X38090001Y-21949999D01*
X36510920Y-24168737D02*
X36510920Y-23529080D01*
X36962385Y-24620202D02*
X36510920Y-24168737D01*
D28*
X35550001Y-21949999D02*
X36400000Y-21100000D01*
X35550001Y-23914924D02*
X35550001Y-21949999D01*
X36608832Y-24973755D02*
X35550001Y-23914924D01*
X33860000Y-22932031D02*
X33860000Y-21100000D01*
X36255278Y-25327309D02*
X33860000Y-22932031D01*
X29629999Y-21949999D02*
X28780000Y-21100000D01*
X30438155Y-21949999D02*
X29629999Y-21949999D01*
X30888156Y-22400000D02*
X30438155Y-21949999D01*
X32620863Y-22400000D02*
X30888156Y-22400000D01*
X35901725Y-25680862D02*
X32620863Y-22400000D01*
X35314011Y-29945532D02*
X34841065Y-30418478D01*
X35314011Y-29138522D02*
X35314011Y-29945532D01*
X33085989Y-26910500D02*
X35314011Y-29138522D01*
X30351087Y-22307009D02*
X33085989Y-25041911D01*
X27447009Y-22307009D02*
X30351087Y-22307009D01*
X33085989Y-25041911D02*
X33085989Y-26910500D01*
X26240000Y-21100000D02*
X27447009Y-22307009D01*
X35000000Y-29552435D02*
X34487511Y-30064924D01*
X35000000Y-29268589D02*
X35000000Y-29552435D01*
X32771978Y-25171978D02*
X32771979Y-27040568D01*
X30264020Y-22664020D02*
X32771978Y-25171978D01*
X24214020Y-22664020D02*
X30264020Y-22664020D01*
X32771979Y-27040568D02*
X35000000Y-29268589D01*
X23700000Y-22150000D02*
X24214020Y-22664020D01*
X23700000Y-21100000D02*
X23700000Y-22150000D01*
X53330001Y-35250001D02*
X54180000Y-36100000D01*
X46721307Y-34600000D02*
X52680000Y-34600000D01*
X43957785Y-31836478D02*
X46721307Y-34600000D01*
X43471555Y-31836478D02*
X43957785Y-31836478D01*
X52680000Y-34600000D02*
X53330001Y-35250001D01*
X42760661Y-31125584D02*
X43471555Y-31836478D01*
X48250001Y-35250001D02*
X49100000Y-36100000D01*
X47928022Y-34928022D02*
X48250001Y-35250001D01*
X46605251Y-34928022D02*
X47928022Y-34928022D01*
X43827718Y-32150489D02*
X46605251Y-34928022D01*
X43078458Y-32150489D02*
X43827718Y-32150489D01*
X42407107Y-31479138D02*
X43078458Y-32150489D01*
X45710001Y-35250001D02*
X46560000Y-36100000D01*
X45710001Y-34476850D02*
X45710001Y-35250001D01*
X43697650Y-32464499D02*
X45710001Y-34476850D01*
X42685362Y-32464499D02*
X43697650Y-32464499D01*
X42053554Y-31832691D02*
X42685362Y-32464499D01*
X44020000Y-36100000D02*
X44020000Y-33579369D01*
X44020000Y-33579369D02*
X43905121Y-33464490D01*
X44555737Y-31955737D02*
X44834371Y-31955737D01*
X44100000Y-31500000D02*
X44555737Y-31955737D01*
X43842183Y-31500000D02*
X44100000Y-31500000D01*
X43114214Y-30772031D02*
X43842183Y-31500000D01*
X43200000Y-34380000D02*
X43200000Y-33000000D01*
X41480000Y-36100000D02*
X43200000Y-34380000D01*
X44286292Y-31237003D02*
X44596698Y-31237003D01*
X43467767Y-30418478D02*
X44286292Y-31237003D01*
X42200001Y-33799999D02*
X42200001Y-33599999D01*
X39789999Y-35250001D02*
X40749999Y-35250001D01*
X38940000Y-36100000D02*
X39789999Y-35250001D01*
X42200001Y-33599999D02*
X42500000Y-33300000D01*
X40749999Y-35250001D02*
X42200001Y-33799999D01*
X39858469Y-29900000D02*
X39900722Y-29857747D01*
X38000000Y-29900000D02*
X39858469Y-29900000D01*
X37436476Y-29336476D02*
X38000000Y-29900000D01*
X36943934Y-29336476D02*
X37436476Y-29336476D01*
X36564499Y-28957041D02*
X36943934Y-29336476D01*
X36564499Y-27764499D02*
X36564499Y-28957041D01*
X35194618Y-26394618D02*
X36564499Y-27764499D01*
X35194618Y-26387969D02*
X35194618Y-26394618D01*
X37249999Y-35250001D02*
X36400000Y-36100000D01*
X38242543Y-35250001D02*
X37249999Y-35250001D01*
X40285787Y-33600458D02*
X40285787Y-33906757D01*
X38592544Y-34900000D02*
X38242543Y-35250001D01*
X40285787Y-33906757D02*
X39292544Y-34900000D01*
X39292544Y-34900000D02*
X38592544Y-34900000D01*
X42800000Y-29500000D02*
X41085023Y-31214977D01*
X41085023Y-31214977D02*
X39878064Y-31214977D01*
X43256397Y-29500000D02*
X42800000Y-29500000D01*
X43821321Y-30064924D02*
X43256397Y-29500000D01*
X33860000Y-36100000D02*
X35760000Y-34200000D01*
X35760000Y-34200000D02*
X36375736Y-34200000D01*
X36375736Y-34200000D02*
X36800000Y-34200000D01*
X31320000Y-36100000D02*
X31320000Y-34814281D01*
X31320000Y-34814281D02*
X34396773Y-31737508D01*
X36900000Y-28600000D02*
X37099998Y-28799998D01*
X36900000Y-27386245D02*
X36900000Y-28600000D01*
X37099998Y-28799998D02*
X37199998Y-28799998D01*
X35548171Y-26034416D02*
X36900000Y-27386245D01*
X29629999Y-35250001D02*
X28780000Y-36100000D01*
X33678004Y-31201996D02*
X29629999Y-35250001D01*
X34764653Y-31201996D02*
X33678004Y-31201996D01*
X35194618Y-30772031D02*
X34764653Y-31201996D01*
D29*
X51340000Y-22700000D02*
X52530000Y-23890000D01*
X50000000Y-22700000D02*
X51340000Y-22700000D01*
X49150000Y-23550000D02*
X50000000Y-22700000D01*
X49150000Y-23900000D02*
X49150000Y-23550000D01*
D30*
X41759543Y-23500000D02*
X43830000Y-23500000D01*
X40992894Y-24266649D02*
X41759543Y-23500000D01*
X44055528Y-25579792D02*
X44267660Y-25367660D01*
X44052369Y-25582951D02*
X44055528Y-25579792D01*
X43212126Y-25582951D02*
X44052369Y-25582951D01*
X42760661Y-26034416D02*
X43212126Y-25582951D01*
X48250000Y-26300000D02*
X46350000Y-26300000D01*
X46200000Y-26450000D02*
X46350000Y-26300000D01*
X44621214Y-25367660D02*
X44267660Y-25367660D01*
X45567660Y-25367660D02*
X44621214Y-25367660D01*
X46350000Y-26150000D02*
X45567660Y-25367660D01*
X46350000Y-26300000D02*
X46350000Y-26150000D01*
X48400000Y-26450000D02*
X48250000Y-26300000D01*
X48400000Y-28630000D02*
X48400000Y-26450000D01*
D28*
X32200701Y-23399297D02*
X31900702Y-23099298D01*
X33400000Y-24598596D02*
X32200701Y-23399297D01*
X33400000Y-26714671D02*
X33400000Y-24598596D01*
X34133958Y-27448629D02*
X33400000Y-26714671D01*
D15*
G36*
X24413444Y-25524821D02*
G01*
X24392999Y-25627603D01*
X24392999Y-25732397D01*
X24413444Y-25835179D01*
X24453547Y-25931996D01*
X24511768Y-26019130D01*
X24585869Y-26093231D01*
X24673003Y-26151452D01*
X24769820Y-26191555D01*
X24872602Y-26212000D01*
X24977396Y-26212000D01*
X25080178Y-26191555D01*
X25176995Y-26151452D01*
X25264129Y-26093231D01*
X25338230Y-26019130D01*
X25396451Y-25931996D01*
X25436554Y-25835179D01*
X25453375Y-25750616D01*
X25472052Y-25785559D01*
X25497920Y-25817079D01*
X25529440Y-25842947D01*
X25565400Y-25862168D01*
X25604420Y-25874004D01*
X25644999Y-25878001D01*
X27094999Y-25878001D01*
X27135578Y-25874004D01*
X27174598Y-25862168D01*
X27210558Y-25842947D01*
X27242078Y-25817079D01*
X27267946Y-25785559D01*
X27287167Y-25749599D01*
X27299003Y-25710579D01*
X27303000Y-25670000D01*
X27303000Y-25450000D01*
X27593001Y-25450000D01*
X27593001Y-25903638D01*
X27593000Y-25903648D01*
X27593000Y-25938358D01*
X27576806Y-25949178D01*
X27506188Y-26019796D01*
X27450703Y-26102836D01*
X27412484Y-26195104D01*
X27393000Y-26293055D01*
X27393000Y-26392925D01*
X27412484Y-26490876D01*
X27450703Y-26583144D01*
X27506188Y-26666184D01*
X27525877Y-26685873D01*
X27512143Y-26697144D01*
X27503201Y-26708040D01*
X27303000Y-26908242D01*
X27303000Y-26670000D01*
X27299003Y-26629421D01*
X27287167Y-26590401D01*
X27267946Y-26554441D01*
X27242078Y-26522921D01*
X27210558Y-26497053D01*
X27174598Y-26477832D01*
X27135578Y-26465996D01*
X27094999Y-26461999D01*
X25644999Y-26461999D01*
X25604420Y-26465996D01*
X25565400Y-26477832D01*
X25529440Y-26497053D01*
X25497920Y-26522921D01*
X25472052Y-26554441D01*
X25452831Y-26590401D01*
X25440995Y-26629421D01*
X25436998Y-26670000D01*
X25436998Y-26970000D01*
X25440995Y-27010579D01*
X25452831Y-27049599D01*
X25463736Y-27070000D01*
X25452831Y-27090401D01*
X25440995Y-27129421D01*
X25436998Y-27170000D01*
X25436998Y-27470000D01*
X25440995Y-27510579D01*
X25441387Y-27511871D01*
X25429923Y-27513000D01*
X25429920Y-27513000D01*
X25384817Y-27517442D01*
X25326947Y-27534997D01*
X25273614Y-27563504D01*
X25226867Y-27601868D01*
X25217252Y-27613584D01*
X25093579Y-27737257D01*
X25081869Y-27746867D01*
X25072259Y-27758577D01*
X25072256Y-27758580D01*
X25043505Y-27793614D01*
X25014998Y-27846947D01*
X24997443Y-27904817D01*
X24991515Y-27964999D01*
X24993001Y-27980085D01*
X24993000Y-28659925D01*
X24991515Y-28675001D01*
X24993000Y-28690077D01*
X24993000Y-28690079D01*
X24997442Y-28735182D01*
X25014997Y-28793052D01*
X25043504Y-28846385D01*
X25081868Y-28893133D01*
X25093584Y-28902748D01*
X25217252Y-29026416D01*
X25226867Y-29038132D01*
X25273614Y-29076496D01*
X25326947Y-29105003D01*
X25384817Y-29122558D01*
X25429920Y-29127000D01*
X25429923Y-29127000D01*
X25441387Y-29128129D01*
X25440995Y-29129421D01*
X25436998Y-29170000D01*
X25436998Y-29470000D01*
X25440995Y-29510579D01*
X25452831Y-29549599D01*
X25463736Y-29570000D01*
X25452831Y-29590401D01*
X25440995Y-29629421D01*
X25436998Y-29670000D01*
X25436998Y-29970000D01*
X25440995Y-30010579D01*
X25452831Y-30049599D01*
X25463736Y-30070000D01*
X25452831Y-30090401D01*
X25440995Y-30129421D01*
X25436998Y-30170000D01*
X25436998Y-30470000D01*
X25440995Y-30510579D01*
X25452831Y-30549599D01*
X25472052Y-30585559D01*
X25497920Y-30617079D01*
X25529440Y-30642947D01*
X25565400Y-30662168D01*
X25604420Y-30674004D01*
X25644999Y-30678001D01*
X27094999Y-30678001D01*
X27135578Y-30674004D01*
X27174598Y-30662168D01*
X27210558Y-30642947D01*
X27242078Y-30617079D01*
X27250563Y-30606740D01*
X27251999Y-30606881D01*
X27266021Y-30605500D01*
X27293000Y-30602843D01*
X27293000Y-30649935D01*
X27312484Y-30747886D01*
X27350703Y-30840154D01*
X27406188Y-30923194D01*
X27476806Y-30993812D01*
X27514500Y-31018998D01*
X27514500Y-31038285D01*
X27514501Y-31038295D01*
X27514500Y-31750000D01*
X27303000Y-31750000D01*
X27303000Y-31470000D01*
X27299003Y-31429421D01*
X27287167Y-31390401D01*
X27267946Y-31354441D01*
X27242078Y-31322921D01*
X27210558Y-31297053D01*
X27174598Y-31277832D01*
X27135578Y-31265996D01*
X27094999Y-31261999D01*
X25644999Y-31261999D01*
X25604420Y-31265996D01*
X25565400Y-31277832D01*
X25529440Y-31297053D01*
X25497920Y-31322921D01*
X25472052Y-31354441D01*
X25453375Y-31389384D01*
X25436554Y-31304821D01*
X25396451Y-31208004D01*
X25338230Y-31120870D01*
X25264129Y-31046769D01*
X25176995Y-30988548D01*
X25080178Y-30948445D01*
X24977396Y-30928000D01*
X24872602Y-30928000D01*
X24769820Y-30948445D01*
X24673003Y-30988548D01*
X24585869Y-31046769D01*
X24511768Y-31120870D01*
X24453547Y-31208004D01*
X24413444Y-31304821D01*
X24392999Y-31407603D01*
X24392999Y-31512397D01*
X24413444Y-31615179D01*
X24453547Y-31711996D01*
X24478940Y-31750000D01*
X23950000Y-31750000D01*
X23950000Y-25450000D01*
X24444436Y-25450000D01*
X24413444Y-25524821D01*
G37*
X24413444Y-25524821D02*
X24392999Y-25627603D01*
X24392999Y-25732397D01*
X24413444Y-25835179D01*
X24453547Y-25931996D01*
X24511768Y-26019130D01*
X24585869Y-26093231D01*
X24673003Y-26151452D01*
X24769820Y-26191555D01*
X24872602Y-26212000D01*
X24977396Y-26212000D01*
X25080178Y-26191555D01*
X25176995Y-26151452D01*
X25264129Y-26093231D01*
X25338230Y-26019130D01*
X25396451Y-25931996D01*
X25436554Y-25835179D01*
X25453375Y-25750616D01*
X25472052Y-25785559D01*
X25497920Y-25817079D01*
X25529440Y-25842947D01*
X25565400Y-25862168D01*
X25604420Y-25874004D01*
X25644999Y-25878001D01*
X27094999Y-25878001D01*
X27135578Y-25874004D01*
X27174598Y-25862168D01*
X27210558Y-25842947D01*
X27242078Y-25817079D01*
X27267946Y-25785559D01*
X27287167Y-25749599D01*
X27299003Y-25710579D01*
X27303000Y-25670000D01*
X27303000Y-25450000D01*
X27593001Y-25450000D01*
X27593001Y-25903638D01*
X27593000Y-25903648D01*
X27593000Y-25938358D01*
X27576806Y-25949178D01*
X27506188Y-26019796D01*
X27450703Y-26102836D01*
X27412484Y-26195104D01*
X27393000Y-26293055D01*
X27393000Y-26392925D01*
X27412484Y-26490876D01*
X27450703Y-26583144D01*
X27506188Y-26666184D01*
X27525877Y-26685873D01*
X27512143Y-26697144D01*
X27503201Y-26708040D01*
X27303000Y-26908242D01*
X27303000Y-26670000D01*
X27299003Y-26629421D01*
X27287167Y-26590401D01*
X27267946Y-26554441D01*
X27242078Y-26522921D01*
X27210558Y-26497053D01*
X27174598Y-26477832D01*
X27135578Y-26465996D01*
X27094999Y-26461999D01*
X25644999Y-26461999D01*
X25604420Y-26465996D01*
X25565400Y-26477832D01*
X25529440Y-26497053D01*
X25497920Y-26522921D01*
X25472052Y-26554441D01*
X25452831Y-26590401D01*
X25440995Y-26629421D01*
X25436998Y-26670000D01*
X25436998Y-26970000D01*
X25440995Y-27010579D01*
X25452831Y-27049599D01*
X25463736Y-27070000D01*
X25452831Y-27090401D01*
X25440995Y-27129421D01*
X25436998Y-27170000D01*
X25436998Y-27470000D01*
X25440995Y-27510579D01*
X25441387Y-27511871D01*
X25429923Y-27513000D01*
X25429920Y-27513000D01*
X25384817Y-27517442D01*
X25326947Y-27534997D01*
X25273614Y-27563504D01*
X25226867Y-27601868D01*
X25217252Y-27613584D01*
X25093579Y-27737257D01*
X25081869Y-27746867D01*
X25072259Y-27758577D01*
X25072256Y-27758580D01*
X25043505Y-27793614D01*
X25014998Y-27846947D01*
X24997443Y-27904817D01*
X24991515Y-27964999D01*
X24993001Y-27980085D01*
X24993000Y-28659925D01*
X24991515Y-28675001D01*
X24993000Y-28690077D01*
X24993000Y-28690079D01*
X24997442Y-28735182D01*
X25014997Y-28793052D01*
X25043504Y-28846385D01*
X25081868Y-28893133D01*
X25093584Y-28902748D01*
X25217252Y-29026416D01*
X25226867Y-29038132D01*
X25273614Y-29076496D01*
X25326947Y-29105003D01*
X25384817Y-29122558D01*
X25429920Y-29127000D01*
X25429923Y-29127000D01*
X25441387Y-29128129D01*
X25440995Y-29129421D01*
X25436998Y-29170000D01*
X25436998Y-29470000D01*
X25440995Y-29510579D01*
X25452831Y-29549599D01*
X25463736Y-29570000D01*
X25452831Y-29590401D01*
X25440995Y-29629421D01*
X25436998Y-29670000D01*
X25436998Y-29970000D01*
X25440995Y-30010579D01*
X25452831Y-30049599D01*
X25463736Y-30070000D01*
X25452831Y-30090401D01*
X25440995Y-30129421D01*
X25436998Y-30170000D01*
X25436998Y-30470000D01*
X25440995Y-30510579D01*
X25452831Y-30549599D01*
X25472052Y-30585559D01*
X25497920Y-30617079D01*
X25529440Y-30642947D01*
X25565400Y-30662168D01*
X25604420Y-30674004D01*
X25644999Y-30678001D01*
X27094999Y-30678001D01*
X27135578Y-30674004D01*
X27174598Y-30662168D01*
X27210558Y-30642947D01*
X27242078Y-30617079D01*
X27250563Y-30606740D01*
X27251999Y-30606881D01*
X27266021Y-30605500D01*
X27293000Y-30602843D01*
X27293000Y-30649935D01*
X27312484Y-30747886D01*
X27350703Y-30840154D01*
X27406188Y-30923194D01*
X27476806Y-30993812D01*
X27514500Y-31018998D01*
X27514500Y-31038285D01*
X27514501Y-31038295D01*
X27514500Y-31750000D01*
X27303000Y-31750000D01*
X27303000Y-31470000D01*
X27299003Y-31429421D01*
X27287167Y-31390401D01*
X27267946Y-31354441D01*
X27242078Y-31322921D01*
X27210558Y-31297053D01*
X27174598Y-31277832D01*
X27135578Y-31265996D01*
X27094999Y-31261999D01*
X25644999Y-31261999D01*
X25604420Y-31265996D01*
X25565400Y-31277832D01*
X25529440Y-31297053D01*
X25497920Y-31322921D01*
X25472052Y-31354441D01*
X25453375Y-31389384D01*
X25436554Y-31304821D01*
X25396451Y-31208004D01*
X25338230Y-31120870D01*
X25264129Y-31046769D01*
X25176995Y-30988548D01*
X25080178Y-30948445D01*
X24977396Y-30928000D01*
X24872602Y-30928000D01*
X24769820Y-30948445D01*
X24673003Y-30988548D01*
X24585869Y-31046769D01*
X24511768Y-31120870D01*
X24453547Y-31208004D01*
X24413444Y-31304821D01*
X24392999Y-31407603D01*
X24392999Y-31512397D01*
X24413444Y-31615179D01*
X24453547Y-31711996D01*
X24478940Y-31750000D01*
X23950000Y-31750000D01*
X23950000Y-25450000D01*
X24444436Y-25450000D01*
X24413444Y-25524821D01*
D28*
G36*
X22682671Y-20082671D02*
G01*
X22653242Y-20118530D01*
X22631374Y-20159442D01*
X22617908Y-20203834D01*
X22613361Y-20250000D01*
X22613361Y-21950000D01*
X22617908Y-21996166D01*
X22631374Y-22040558D01*
X22653242Y-22081470D01*
X22682671Y-22117329D01*
X22718530Y-22146758D01*
X22759442Y-22168626D01*
X22803834Y-22182092D01*
X22850000Y-22186639D01*
X23388090Y-22186639D01*
X23390544Y-22211554D01*
X23408499Y-22270744D01*
X23437344Y-22324707D01*
X23437657Y-22325293D01*
X23476895Y-22373106D01*
X23488877Y-22382939D01*
X23981080Y-22875143D01*
X23990914Y-22887126D01*
X24038727Y-22926364D01*
X24093276Y-22955522D01*
X24152465Y-22973476D01*
X24214019Y-22979539D01*
X24229441Y-22978020D01*
X27225016Y-22978020D01*
X27171741Y-23021741D01*
X27115108Y-23090749D01*
X27073025Y-23169480D01*
X27047111Y-23254908D01*
X27038361Y-23343750D01*
X27038361Y-23856250D01*
X27047111Y-23945092D01*
X27073025Y-24030520D01*
X27115108Y-24109251D01*
X27171741Y-24178259D01*
X27240749Y-24234892D01*
X27319480Y-24276975D01*
X27404908Y-24302889D01*
X27493750Y-24311639D01*
X27564500Y-24311639D01*
X27564501Y-25164500D01*
X25145129Y-25164500D01*
X25088491Y-25141040D01*
X24980203Y-25119500D01*
X24869795Y-25119500D01*
X24761507Y-25141040D01*
X24704869Y-25164500D01*
X24385500Y-25164500D01*
X24385500Y-24141211D01*
X24388574Y-24110000D01*
X24376304Y-23985420D01*
X24370816Y-23967329D01*
X24339965Y-23865628D01*
X24280955Y-23755227D01*
X24236057Y-23700519D01*
X24221436Y-23682703D01*
X24221435Y-23682702D01*
X24201540Y-23658460D01*
X24177299Y-23638566D01*
X22506639Y-21967907D01*
X22506639Y-20930000D01*
X22502092Y-20883834D01*
X22488626Y-20839442D01*
X22466758Y-20798530D01*
X22437329Y-20762671D01*
X22401470Y-20733242D01*
X22360558Y-20711374D01*
X22316166Y-20697908D01*
X22270000Y-20693361D01*
X20570000Y-20693361D01*
X20523834Y-20697908D01*
X20479442Y-20711374D01*
X20438530Y-20733242D01*
X20402671Y-20762671D01*
X20373242Y-20798530D01*
X20351374Y-20839442D01*
X20337908Y-20883834D01*
X20333361Y-20930000D01*
X20333361Y-22630000D01*
X20337908Y-22676166D01*
X20351374Y-22720558D01*
X20373242Y-22761470D01*
X20402671Y-22797329D01*
X20438530Y-22826758D01*
X20479442Y-22848626D01*
X20523834Y-22862092D01*
X20570000Y-22866639D01*
X21607907Y-22866639D01*
X23114500Y-24373233D01*
X23114501Y-26068787D01*
X23111427Y-26100000D01*
X23123696Y-26224579D01*
X23160035Y-26344371D01*
X23219045Y-26454772D01*
X23227857Y-26465509D01*
X23298461Y-26551540D01*
X23322708Y-26571439D01*
X23664500Y-26913232D01*
X23664500Y-31800000D01*
X23669025Y-31845944D01*
X23682426Y-31890122D01*
X23704189Y-31930837D01*
X23733476Y-31966524D01*
X23769163Y-31995811D01*
X23809878Y-32017574D01*
X23854056Y-32030975D01*
X23900000Y-32035500D01*
X27220437Y-32035500D01*
X26688877Y-32567061D01*
X26676895Y-32576894D01*
X26656791Y-32601392D01*
X26637656Y-32624708D01*
X26608499Y-32679256D01*
X26590544Y-32738446D01*
X26584481Y-32800000D01*
X26586001Y-32815431D01*
X26586000Y-34107856D01*
X26028877Y-34664980D01*
X26016895Y-34674813D01*
X26001529Y-34693537D01*
X25977656Y-34722627D01*
X25948499Y-34777175D01*
X25930544Y-34836365D01*
X25924481Y-34897919D01*
X25926001Y-34913350D01*
X25926001Y-35055692D01*
X25923371Y-35056215D01*
X25725823Y-35138043D01*
X25548034Y-35256837D01*
X25396837Y-35408034D01*
X25278043Y-35585823D01*
X25196215Y-35783371D01*
X25154500Y-35993088D01*
X25154500Y-36206912D01*
X25196215Y-36416629D01*
X25278043Y-36614177D01*
X25396837Y-36791966D01*
X25548034Y-36943163D01*
X25725823Y-37061957D01*
X25913026Y-37139500D01*
X24690314Y-37139500D01*
X24717329Y-37117329D01*
X24746758Y-37081470D01*
X24768626Y-37040558D01*
X24782092Y-36996166D01*
X24786639Y-36950000D01*
X24786639Y-35250000D01*
X24782092Y-35203834D01*
X24768626Y-35159442D01*
X24746758Y-35118530D01*
X24717329Y-35082671D01*
X24681470Y-35053242D01*
X24640558Y-35031374D01*
X24596166Y-35017908D01*
X24550000Y-35013361D01*
X22850000Y-35013361D01*
X22803834Y-35017908D01*
X22759442Y-35031374D01*
X22718530Y-35053242D01*
X22682671Y-35082671D01*
X22653242Y-35118530D01*
X22631374Y-35159442D01*
X22617908Y-35203834D01*
X22613361Y-35250000D01*
X22613361Y-36950000D01*
X22617908Y-36996166D01*
X22631374Y-37040558D01*
X22653242Y-37081470D01*
X22682671Y-37117329D01*
X22709686Y-37139500D01*
X20312740Y-37139500D01*
X20292568Y-37137522D01*
X20285425Y-37135366D01*
X20278837Y-37131862D01*
X20273046Y-37127140D01*
X20268289Y-37121389D01*
X20264737Y-37114821D01*
X20262530Y-37107690D01*
X20260500Y-37088376D01*
X20260500Y-20112740D01*
X20262478Y-20092568D01*
X20264634Y-20085427D01*
X20268139Y-20078835D01*
X20272861Y-20073045D01*
X20278608Y-20068290D01*
X20285179Y-20064738D01*
X20292311Y-20062530D01*
X20311624Y-20060500D01*
X22709686Y-20060500D01*
X22682671Y-20082671D01*
G37*
X22682671Y-20082671D02*
X22653242Y-20118530D01*
X22631374Y-20159442D01*
X22617908Y-20203834D01*
X22613361Y-20250000D01*
X22613361Y-21950000D01*
X22617908Y-21996166D01*
X22631374Y-22040558D01*
X22653242Y-22081470D01*
X22682671Y-22117329D01*
X22718530Y-22146758D01*
X22759442Y-22168626D01*
X22803834Y-22182092D01*
X22850000Y-22186639D01*
X23388090Y-22186639D01*
X23390544Y-22211554D01*
X23408499Y-22270744D01*
X23437344Y-22324707D01*
X23437657Y-22325293D01*
X23476895Y-22373106D01*
X23488877Y-22382939D01*
X23981080Y-22875143D01*
X23990914Y-22887126D01*
X24038727Y-22926364D01*
X24093276Y-22955522D01*
X24152465Y-22973476D01*
X24214019Y-22979539D01*
X24229441Y-22978020D01*
X27225016Y-22978020D01*
X27171741Y-23021741D01*
X27115108Y-23090749D01*
X27073025Y-23169480D01*
X27047111Y-23254908D01*
X27038361Y-23343750D01*
X27038361Y-23856250D01*
X27047111Y-23945092D01*
X27073025Y-24030520D01*
X27115108Y-24109251D01*
X27171741Y-24178259D01*
X27240749Y-24234892D01*
X27319480Y-24276975D01*
X27404908Y-24302889D01*
X27493750Y-24311639D01*
X27564500Y-24311639D01*
X27564501Y-25164500D01*
X25145129Y-25164500D01*
X25088491Y-25141040D01*
X24980203Y-25119500D01*
X24869795Y-25119500D01*
X24761507Y-25141040D01*
X24704869Y-25164500D01*
X24385500Y-25164500D01*
X24385500Y-24141211D01*
X24388574Y-24110000D01*
X24376304Y-23985420D01*
X24370816Y-23967329D01*
X24339965Y-23865628D01*
X24280955Y-23755227D01*
X24236057Y-23700519D01*
X24221436Y-23682703D01*
X24221435Y-23682702D01*
X24201540Y-23658460D01*
X24177299Y-23638566D01*
X22506639Y-21967907D01*
X22506639Y-20930000D01*
X22502092Y-20883834D01*
X22488626Y-20839442D01*
X22466758Y-20798530D01*
X22437329Y-20762671D01*
X22401470Y-20733242D01*
X22360558Y-20711374D01*
X22316166Y-20697908D01*
X22270000Y-20693361D01*
X20570000Y-20693361D01*
X20523834Y-20697908D01*
X20479442Y-20711374D01*
X20438530Y-20733242D01*
X20402671Y-20762671D01*
X20373242Y-20798530D01*
X20351374Y-20839442D01*
X20337908Y-20883834D01*
X20333361Y-20930000D01*
X20333361Y-22630000D01*
X20337908Y-22676166D01*
X20351374Y-22720558D01*
X20373242Y-22761470D01*
X20402671Y-22797329D01*
X20438530Y-22826758D01*
X20479442Y-22848626D01*
X20523834Y-22862092D01*
X20570000Y-22866639D01*
X21607907Y-22866639D01*
X23114500Y-24373233D01*
X23114501Y-26068787D01*
X23111427Y-26100000D01*
X23123696Y-26224579D01*
X23160035Y-26344371D01*
X23219045Y-26454772D01*
X23227857Y-26465509D01*
X23298461Y-26551540D01*
X23322708Y-26571439D01*
X23664500Y-26913232D01*
X23664500Y-31800000D01*
X23669025Y-31845944D01*
X23682426Y-31890122D01*
X23704189Y-31930837D01*
X23733476Y-31966524D01*
X23769163Y-31995811D01*
X23809878Y-32017574D01*
X23854056Y-32030975D01*
X23900000Y-32035500D01*
X27220437Y-32035500D01*
X26688877Y-32567061D01*
X26676895Y-32576894D01*
X26656791Y-32601392D01*
X26637656Y-32624708D01*
X26608499Y-32679256D01*
X26590544Y-32738446D01*
X26584481Y-32800000D01*
X26586001Y-32815431D01*
X26586000Y-34107856D01*
X26028877Y-34664980D01*
X26016895Y-34674813D01*
X26001529Y-34693537D01*
X25977656Y-34722627D01*
X25948499Y-34777175D01*
X25930544Y-34836365D01*
X25924481Y-34897919D01*
X25926001Y-34913350D01*
X25926001Y-35055692D01*
X25923371Y-35056215D01*
X25725823Y-35138043D01*
X25548034Y-35256837D01*
X25396837Y-35408034D01*
X25278043Y-35585823D01*
X25196215Y-35783371D01*
X25154500Y-35993088D01*
X25154500Y-36206912D01*
X25196215Y-36416629D01*
X25278043Y-36614177D01*
X25396837Y-36791966D01*
X25548034Y-36943163D01*
X25725823Y-37061957D01*
X25913026Y-37139500D01*
X24690314Y-37139500D01*
X24717329Y-37117329D01*
X24746758Y-37081470D01*
X24768626Y-37040558D01*
X24782092Y-36996166D01*
X24786639Y-36950000D01*
X24786639Y-35250000D01*
X24782092Y-35203834D01*
X24768626Y-35159442D01*
X24746758Y-35118530D01*
X24717329Y-35082671D01*
X24681470Y-35053242D01*
X24640558Y-35031374D01*
X24596166Y-35017908D01*
X24550000Y-35013361D01*
X22850000Y-35013361D01*
X22803834Y-35017908D01*
X22759442Y-35031374D01*
X22718530Y-35053242D01*
X22682671Y-35082671D01*
X22653242Y-35118530D01*
X22631374Y-35159442D01*
X22617908Y-35203834D01*
X22613361Y-35250000D01*
X22613361Y-36950000D01*
X22617908Y-36996166D01*
X22631374Y-37040558D01*
X22653242Y-37081470D01*
X22682671Y-37117329D01*
X22709686Y-37139500D01*
X20312740Y-37139500D01*
X20292568Y-37137522D01*
X20285425Y-37135366D01*
X20278837Y-37131862D01*
X20273046Y-37127140D01*
X20268289Y-37121389D01*
X20264737Y-37114821D01*
X20262530Y-37107690D01*
X20260500Y-37088376D01*
X20260500Y-20112740D01*
X20262478Y-20092568D01*
X20264634Y-20085427D01*
X20268139Y-20078835D01*
X20272861Y-20073045D01*
X20278608Y-20068290D01*
X20285179Y-20064738D01*
X20292311Y-20062530D01*
X20311624Y-20060500D01*
X22709686Y-20060500D01*
X22682671Y-20082671D01*
G36*
X58248804Y-35704694D02*
G01*
X58216215Y-35783371D01*
X58174500Y-35993088D01*
X58174500Y-36206912D01*
X58216215Y-36416629D01*
X58298043Y-36614177D01*
X58416837Y-36791966D01*
X58568034Y-36943163D01*
X58745823Y-37061957D01*
X58933026Y-37139500D01*
X54506974Y-37139500D01*
X54694177Y-37061957D01*
X54871966Y-36943163D01*
X55023163Y-36791966D01*
X55141957Y-36614177D01*
X55223785Y-36416629D01*
X55265500Y-36206912D01*
X55265500Y-35993088D01*
X55223785Y-35783371D01*
X55141957Y-35585823D01*
X55023163Y-35408034D01*
X54871966Y-35256837D01*
X54785451Y-35199030D01*
X57743141Y-35199030D01*
X58248804Y-35704694D01*
G37*
X58248804Y-35704694D02*
X58216215Y-35783371D01*
X58174500Y-35993088D01*
X58174500Y-36206912D01*
X58216215Y-36416629D01*
X58298043Y-36614177D01*
X58416837Y-36791966D01*
X58568034Y-36943163D01*
X58745823Y-37061957D01*
X58933026Y-37139500D01*
X54506974Y-37139500D01*
X54694177Y-37061957D01*
X54871966Y-36943163D01*
X55023163Y-36791966D01*
X55141957Y-36614177D01*
X55223785Y-36416629D01*
X55265500Y-36206912D01*
X55265500Y-35993088D01*
X55223785Y-35783371D01*
X55141957Y-35585823D01*
X55023163Y-35408034D01*
X54871966Y-35256837D01*
X54785451Y-35199030D01*
X57743141Y-35199030D01*
X58248804Y-35704694D01*
G36*
X34310621Y-29023273D02*
G01*
X33418621Y-29915273D01*
X33389192Y-29951132D01*
X33367324Y-29992044D01*
X33353858Y-30036436D01*
X33352659Y-30048607D01*
X31415266Y-31986001D01*
X30515420Y-31986001D01*
X30499999Y-31984482D01*
X30484577Y-31986001D01*
X30438444Y-31990545D01*
X30379255Y-32008499D01*
X30324706Y-32037657D01*
X30284338Y-32070785D01*
X30252742Y-32064500D01*
X30147258Y-32064500D01*
X30043800Y-32085079D01*
X29946346Y-32125446D01*
X29858639Y-32184050D01*
X29784050Y-32258639D01*
X29725446Y-32346346D01*
X29685079Y-32443800D01*
X29664500Y-32547258D01*
X29664500Y-32652742D01*
X29685079Y-32756200D01*
X29725446Y-32853654D01*
X29784050Y-32941361D01*
X29858639Y-33015950D01*
X29946346Y-33074554D01*
X30043800Y-33114921D01*
X30147258Y-33135500D01*
X30252742Y-33135500D01*
X30356200Y-33114921D01*
X30453654Y-33074554D01*
X30541361Y-33015950D01*
X30615950Y-32941361D01*
X30674554Y-32853654D01*
X30714921Y-32756200D01*
X30735500Y-32652742D01*
X30735500Y-32614001D01*
X31529907Y-32614001D01*
X31545328Y-32615520D01*
X31560749Y-32614001D01*
X31560750Y-32614001D01*
X31606883Y-32609457D01*
X31666072Y-32591503D01*
X31720621Y-32562345D01*
X31768434Y-32523107D01*
X31778272Y-32511119D01*
X33735438Y-30553954D01*
X33742745Y-30567625D01*
X33772174Y-30603484D01*
X33948951Y-30780261D01*
X33984810Y-30809690D01*
X34025722Y-30831558D01*
X34063094Y-30842895D01*
X34074431Y-30880267D01*
X34078562Y-30887996D01*
X33693425Y-30887996D01*
X33678004Y-30886477D01*
X33662582Y-30887996D01*
X33616449Y-30892540D01*
X33557260Y-30910494D01*
X33502711Y-30939652D01*
X33454898Y-30978890D01*
X33445067Y-30990870D01*
X29418878Y-35017060D01*
X29418872Y-35017065D01*
X29296405Y-35139532D01*
X29294177Y-35138043D01*
X29096629Y-35056215D01*
X28886912Y-35014500D01*
X28673088Y-35014500D01*
X28463371Y-35056215D01*
X28265823Y-35138043D01*
X28088034Y-35256837D01*
X27936837Y-35408034D01*
X27818043Y-35585823D01*
X27736215Y-35783371D01*
X27694500Y-35993088D01*
X27694500Y-36206912D01*
X27736215Y-36416629D01*
X27818043Y-36614177D01*
X27936837Y-36791966D01*
X28088034Y-36943163D01*
X28265823Y-37061957D01*
X28453026Y-37139500D01*
X26566974Y-37139500D01*
X26754177Y-37061957D01*
X26931966Y-36943163D01*
X27083163Y-36791966D01*
X27201957Y-36614177D01*
X27283785Y-36416629D01*
X27325500Y-36206912D01*
X27325500Y-35993088D01*
X27283785Y-35783371D01*
X27201957Y-35585823D01*
X27083163Y-35408034D01*
X26931966Y-35256837D01*
X26754177Y-35138043D01*
X26556629Y-35056215D01*
X26554000Y-35055692D01*
X26554000Y-35027981D01*
X27111124Y-34470858D01*
X27123106Y-34461025D01*
X27162344Y-34413212D01*
X27191502Y-34358663D01*
X27209456Y-34299474D01*
X27214000Y-34253341D01*
X27214000Y-34253340D01*
X27215519Y-34237919D01*
X27214000Y-34222498D01*
X27214000Y-34212940D01*
X27240749Y-34234892D01*
X27319480Y-34276975D01*
X27404908Y-34302889D01*
X27493750Y-34311639D01*
X27931250Y-34311639D01*
X28020092Y-34302889D01*
X28105520Y-34276975D01*
X28184251Y-34234892D01*
X28253259Y-34178259D01*
X28309892Y-34109251D01*
X28351975Y-34030520D01*
X28377889Y-33945092D01*
X28386639Y-33856250D01*
X28386639Y-33343750D01*
X28377889Y-33254908D01*
X28351975Y-33169480D01*
X28309892Y-33090749D01*
X28253259Y-33021741D01*
X28220105Y-32994532D01*
X28244611Y-32970026D01*
X28303215Y-32882319D01*
X28343582Y-32784865D01*
X28353175Y-32736639D01*
X28577171Y-32736639D01*
X28810196Y-32969665D01*
X28746741Y-33021741D01*
X28690108Y-33090749D01*
X28648025Y-33169480D01*
X28622111Y-33254908D01*
X28613361Y-33343750D01*
X28613361Y-33856250D01*
X28622111Y-33945092D01*
X28648025Y-34030520D01*
X28690108Y-34109251D01*
X28746741Y-34178259D01*
X28815749Y-34234892D01*
X28894480Y-34276975D01*
X28979908Y-34302889D01*
X29068750Y-34311639D01*
X29506250Y-34311639D01*
X29595092Y-34302889D01*
X29680520Y-34276975D01*
X29759251Y-34234892D01*
X29828259Y-34178259D01*
X29884892Y-34109251D01*
X29926975Y-34030520D01*
X29952889Y-33945092D01*
X29961639Y-33856250D01*
X29961639Y-33343750D01*
X29952889Y-33254908D01*
X29926975Y-33169480D01*
X29884892Y-33090749D01*
X29828259Y-33021741D01*
X29759251Y-32965108D01*
X29680520Y-32923025D01*
X29617268Y-32903838D01*
X29608724Y-32875674D01*
X29598961Y-32843489D01*
X29567808Y-32785204D01*
X29525882Y-32734118D01*
X29513082Y-32723613D01*
X29016639Y-32227171D01*
X29016639Y-31900000D01*
X29012092Y-31853834D01*
X28998626Y-31809442D01*
X28976758Y-31768530D01*
X28947329Y-31732671D01*
X28911470Y-31703242D01*
X28870558Y-31681374D01*
X28826166Y-31667908D01*
X28780000Y-31663361D01*
X28335500Y-31663361D01*
X28335500Y-31536639D01*
X28780000Y-31536639D01*
X28826166Y-31532092D01*
X28870558Y-31518626D01*
X28911470Y-31496758D01*
X28947329Y-31467329D01*
X28976758Y-31431470D01*
X28998626Y-31390558D01*
X29012092Y-31346166D01*
X29016639Y-31300000D01*
X29016639Y-30700000D01*
X29012092Y-30653834D01*
X29006075Y-30634000D01*
X29709579Y-30634000D01*
X29725000Y-30635519D01*
X29740421Y-30634000D01*
X29740422Y-30634000D01*
X29786555Y-30629456D01*
X29845744Y-30611502D01*
X29900293Y-30582344D01*
X29948106Y-30543106D01*
X29957944Y-30531118D01*
X30477424Y-30011639D01*
X31330000Y-30011639D01*
X31376166Y-30007092D01*
X31420558Y-29993626D01*
X31461470Y-29971758D01*
X31497329Y-29942329D01*
X31526758Y-29906470D01*
X31548626Y-29865558D01*
X31562092Y-29821166D01*
X31566639Y-29775000D01*
X31566639Y-29764000D01*
X31634579Y-29764000D01*
X31650000Y-29765519D01*
X31665421Y-29764000D01*
X31665422Y-29764000D01*
X31711555Y-29759456D01*
X31770744Y-29741502D01*
X31825293Y-29712344D01*
X31873106Y-29673106D01*
X31882944Y-29661118D01*
X32530063Y-29014000D01*
X33165768Y-29014000D01*
X33184050Y-29041361D01*
X33258639Y-29115950D01*
X33346346Y-29174554D01*
X33443800Y-29214921D01*
X33547258Y-29235500D01*
X33652742Y-29235500D01*
X33756200Y-29214921D01*
X33853654Y-29174554D01*
X33941361Y-29115950D01*
X34015950Y-29041361D01*
X34074554Y-28953654D01*
X34114921Y-28856200D01*
X34119671Y-28832322D01*
X34310621Y-29023273D01*
G37*
X34310621Y-29023273D02*
X33418621Y-29915273D01*
X33389192Y-29951132D01*
X33367324Y-29992044D01*
X33353858Y-30036436D01*
X33352659Y-30048607D01*
X31415266Y-31986001D01*
X30515420Y-31986001D01*
X30499999Y-31984482D01*
X30484577Y-31986001D01*
X30438444Y-31990545D01*
X30379255Y-32008499D01*
X30324706Y-32037657D01*
X30284338Y-32070785D01*
X30252742Y-32064500D01*
X30147258Y-32064500D01*
X30043800Y-32085079D01*
X29946346Y-32125446D01*
X29858639Y-32184050D01*
X29784050Y-32258639D01*
X29725446Y-32346346D01*
X29685079Y-32443800D01*
X29664500Y-32547258D01*
X29664500Y-32652742D01*
X29685079Y-32756200D01*
X29725446Y-32853654D01*
X29784050Y-32941361D01*
X29858639Y-33015950D01*
X29946346Y-33074554D01*
X30043800Y-33114921D01*
X30147258Y-33135500D01*
X30252742Y-33135500D01*
X30356200Y-33114921D01*
X30453654Y-33074554D01*
X30541361Y-33015950D01*
X30615950Y-32941361D01*
X30674554Y-32853654D01*
X30714921Y-32756200D01*
X30735500Y-32652742D01*
X30735500Y-32614001D01*
X31529907Y-32614001D01*
X31545328Y-32615520D01*
X31560749Y-32614001D01*
X31560750Y-32614001D01*
X31606883Y-32609457D01*
X31666072Y-32591503D01*
X31720621Y-32562345D01*
X31768434Y-32523107D01*
X31778272Y-32511119D01*
X33735438Y-30553954D01*
X33742745Y-30567625D01*
X33772174Y-30603484D01*
X33948951Y-30780261D01*
X33984810Y-30809690D01*
X34025722Y-30831558D01*
X34063094Y-30842895D01*
X34074431Y-30880267D01*
X34078562Y-30887996D01*
X33693425Y-30887996D01*
X33678004Y-30886477D01*
X33662582Y-30887996D01*
X33616449Y-30892540D01*
X33557260Y-30910494D01*
X33502711Y-30939652D01*
X33454898Y-30978890D01*
X33445067Y-30990870D01*
X29418878Y-35017060D01*
X29418872Y-35017065D01*
X29296405Y-35139532D01*
X29294177Y-35138043D01*
X29096629Y-35056215D01*
X28886912Y-35014500D01*
X28673088Y-35014500D01*
X28463371Y-35056215D01*
X28265823Y-35138043D01*
X28088034Y-35256837D01*
X27936837Y-35408034D01*
X27818043Y-35585823D01*
X27736215Y-35783371D01*
X27694500Y-35993088D01*
X27694500Y-36206912D01*
X27736215Y-36416629D01*
X27818043Y-36614177D01*
X27936837Y-36791966D01*
X28088034Y-36943163D01*
X28265823Y-37061957D01*
X28453026Y-37139500D01*
X26566974Y-37139500D01*
X26754177Y-37061957D01*
X26931966Y-36943163D01*
X27083163Y-36791966D01*
X27201957Y-36614177D01*
X27283785Y-36416629D01*
X27325500Y-36206912D01*
X27325500Y-35993088D01*
X27283785Y-35783371D01*
X27201957Y-35585823D01*
X27083163Y-35408034D01*
X26931966Y-35256837D01*
X26754177Y-35138043D01*
X26556629Y-35056215D01*
X26554000Y-35055692D01*
X26554000Y-35027981D01*
X27111124Y-34470858D01*
X27123106Y-34461025D01*
X27162344Y-34413212D01*
X27191502Y-34358663D01*
X27209456Y-34299474D01*
X27214000Y-34253341D01*
X27214000Y-34253340D01*
X27215519Y-34237919D01*
X27214000Y-34222498D01*
X27214000Y-34212940D01*
X27240749Y-34234892D01*
X27319480Y-34276975D01*
X27404908Y-34302889D01*
X27493750Y-34311639D01*
X27931250Y-34311639D01*
X28020092Y-34302889D01*
X28105520Y-34276975D01*
X28184251Y-34234892D01*
X28253259Y-34178259D01*
X28309892Y-34109251D01*
X28351975Y-34030520D01*
X28377889Y-33945092D01*
X28386639Y-33856250D01*
X28386639Y-33343750D01*
X28377889Y-33254908D01*
X28351975Y-33169480D01*
X28309892Y-33090749D01*
X28253259Y-33021741D01*
X28220105Y-32994532D01*
X28244611Y-32970026D01*
X28303215Y-32882319D01*
X28343582Y-32784865D01*
X28353175Y-32736639D01*
X28577171Y-32736639D01*
X28810196Y-32969665D01*
X28746741Y-33021741D01*
X28690108Y-33090749D01*
X28648025Y-33169480D01*
X28622111Y-33254908D01*
X28613361Y-33343750D01*
X28613361Y-33856250D01*
X28622111Y-33945092D01*
X28648025Y-34030520D01*
X28690108Y-34109251D01*
X28746741Y-34178259D01*
X28815749Y-34234892D01*
X28894480Y-34276975D01*
X28979908Y-34302889D01*
X29068750Y-34311639D01*
X29506250Y-34311639D01*
X29595092Y-34302889D01*
X29680520Y-34276975D01*
X29759251Y-34234892D01*
X29828259Y-34178259D01*
X29884892Y-34109251D01*
X29926975Y-34030520D01*
X29952889Y-33945092D01*
X29961639Y-33856250D01*
X29961639Y-33343750D01*
X29952889Y-33254908D01*
X29926975Y-33169480D01*
X29884892Y-33090749D01*
X29828259Y-33021741D01*
X29759251Y-32965108D01*
X29680520Y-32923025D01*
X29617268Y-32903838D01*
X29608724Y-32875674D01*
X29598961Y-32843489D01*
X29567808Y-32785204D01*
X29525882Y-32734118D01*
X29513082Y-32723613D01*
X29016639Y-32227171D01*
X29016639Y-31900000D01*
X29012092Y-31853834D01*
X28998626Y-31809442D01*
X28976758Y-31768530D01*
X28947329Y-31732671D01*
X28911470Y-31703242D01*
X28870558Y-31681374D01*
X28826166Y-31667908D01*
X28780000Y-31663361D01*
X28335500Y-31663361D01*
X28335500Y-31536639D01*
X28780000Y-31536639D01*
X28826166Y-31532092D01*
X28870558Y-31518626D01*
X28911470Y-31496758D01*
X28947329Y-31467329D01*
X28976758Y-31431470D01*
X28998626Y-31390558D01*
X29012092Y-31346166D01*
X29016639Y-31300000D01*
X29016639Y-30700000D01*
X29012092Y-30653834D01*
X29006075Y-30634000D01*
X29709579Y-30634000D01*
X29725000Y-30635519D01*
X29740421Y-30634000D01*
X29740422Y-30634000D01*
X29786555Y-30629456D01*
X29845744Y-30611502D01*
X29900293Y-30582344D01*
X29948106Y-30543106D01*
X29957944Y-30531118D01*
X30477424Y-30011639D01*
X31330000Y-30011639D01*
X31376166Y-30007092D01*
X31420558Y-29993626D01*
X31461470Y-29971758D01*
X31497329Y-29942329D01*
X31526758Y-29906470D01*
X31548626Y-29865558D01*
X31562092Y-29821166D01*
X31566639Y-29775000D01*
X31566639Y-29764000D01*
X31634579Y-29764000D01*
X31650000Y-29765519D01*
X31665421Y-29764000D01*
X31665422Y-29764000D01*
X31711555Y-29759456D01*
X31770744Y-29741502D01*
X31825293Y-29712344D01*
X31873106Y-29673106D01*
X31882944Y-29661118D01*
X32530063Y-29014000D01*
X33165768Y-29014000D01*
X33184050Y-29041361D01*
X33258639Y-29115950D01*
X33346346Y-29174554D01*
X33443800Y-29214921D01*
X33547258Y-29235500D01*
X33652742Y-29235500D01*
X33756200Y-29214921D01*
X33853654Y-29174554D01*
X33941361Y-29115950D01*
X34015950Y-29041361D01*
X34074554Y-28953654D01*
X34114921Y-28856200D01*
X34119671Y-28832322D01*
X34310621Y-29023273D01*
G36*
X62907432Y-20062478D02*
G01*
X62914573Y-20064634D01*
X62921165Y-20068139D01*
X62926955Y-20072861D01*
X62931710Y-20078608D01*
X62935262Y-20085179D01*
X62937470Y-20092311D01*
X62939500Y-20111624D01*
X62939501Y-37087250D01*
X62937522Y-37107432D01*
X62935366Y-37114575D01*
X62931862Y-37121163D01*
X62927140Y-37126954D01*
X62921389Y-37131711D01*
X62914821Y-37135263D01*
X62907690Y-37137470D01*
X62888376Y-37139500D01*
X59586974Y-37139500D01*
X59774177Y-37061957D01*
X59951966Y-36943163D01*
X60103163Y-36791966D01*
X60221957Y-36614177D01*
X60303785Y-36416629D01*
X60345500Y-36206912D01*
X60345500Y-35993088D01*
X60303785Y-35783371D01*
X60221957Y-35585823D01*
X60103163Y-35408034D01*
X59951966Y-35256837D01*
X59774177Y-35138043D01*
X59576629Y-35056215D01*
X59366912Y-35014500D01*
X59153088Y-35014500D01*
X58943371Y-35056215D01*
X58864694Y-35088804D01*
X58317910Y-34542021D01*
X59944713Y-34542021D01*
X59960135Y-34543540D01*
X59975556Y-34542021D01*
X59975577Y-34542019D01*
X60021689Y-34537477D01*
X60021696Y-34537475D01*
X60080878Y-34519523D01*
X60135427Y-34490365D01*
X60183240Y-34451127D01*
X60193074Y-34439144D01*
X61211130Y-33421088D01*
X61223106Y-33411260D01*
X61262344Y-33363447D01*
X61291502Y-33308898D01*
X61309456Y-33249709D01*
X61314000Y-33203576D01*
X61314000Y-33203575D01*
X61315519Y-33188154D01*
X61314000Y-33172733D01*
X61314000Y-23615421D01*
X61315519Y-23600000D01*
X61312944Y-23573852D01*
X61309456Y-23538445D01*
X61291502Y-23479256D01*
X61262344Y-23424707D01*
X61223106Y-23376894D01*
X61211123Y-23367060D01*
X59853211Y-22009149D01*
X59951966Y-21943163D01*
X60103163Y-21791966D01*
X60221957Y-21614177D01*
X60303785Y-21416629D01*
X60345500Y-21206912D01*
X60345500Y-20993088D01*
X60303785Y-20783371D01*
X60221957Y-20585823D01*
X60103163Y-20408034D01*
X59951966Y-20256837D01*
X59774177Y-20138043D01*
X59586974Y-20060500D01*
X62887260Y-20060500D01*
X62907432Y-20062478D01*
G37*
X62907432Y-20062478D02*
X62914573Y-20064634D01*
X62921165Y-20068139D01*
X62926955Y-20072861D01*
X62931710Y-20078608D01*
X62935262Y-20085179D01*
X62937470Y-20092311D01*
X62939500Y-20111624D01*
X62939501Y-37087250D01*
X62937522Y-37107432D01*
X62935366Y-37114575D01*
X62931862Y-37121163D01*
X62927140Y-37126954D01*
X62921389Y-37131711D01*
X62914821Y-37135263D01*
X62907690Y-37137470D01*
X62888376Y-37139500D01*
X59586974Y-37139500D01*
X59774177Y-37061957D01*
X59951966Y-36943163D01*
X60103163Y-36791966D01*
X60221957Y-36614177D01*
X60303785Y-36416629D01*
X60345500Y-36206912D01*
X60345500Y-35993088D01*
X60303785Y-35783371D01*
X60221957Y-35585823D01*
X60103163Y-35408034D01*
X59951966Y-35256837D01*
X59774177Y-35138043D01*
X59576629Y-35056215D01*
X59366912Y-35014500D01*
X59153088Y-35014500D01*
X58943371Y-35056215D01*
X58864694Y-35088804D01*
X58317910Y-34542021D01*
X59944713Y-34542021D01*
X59960135Y-34543540D01*
X59975556Y-34542021D01*
X59975577Y-34542019D01*
X60021689Y-34537477D01*
X60021696Y-34537475D01*
X60080878Y-34519523D01*
X60135427Y-34490365D01*
X60183240Y-34451127D01*
X60193074Y-34439144D01*
X61211130Y-33421088D01*
X61223106Y-33411260D01*
X61262344Y-33363447D01*
X61291502Y-33308898D01*
X61309456Y-33249709D01*
X61314000Y-33203576D01*
X61314000Y-33203575D01*
X61315519Y-33188154D01*
X61314000Y-33172733D01*
X61314000Y-23615421D01*
X61315519Y-23600000D01*
X61312944Y-23573852D01*
X61309456Y-23538445D01*
X61291502Y-23479256D01*
X61262344Y-23424707D01*
X61223106Y-23376894D01*
X61211123Y-23367060D01*
X59853211Y-22009149D01*
X59951966Y-21943163D01*
X60103163Y-21791966D01*
X60221957Y-21614177D01*
X60303785Y-21416629D01*
X60345500Y-21206912D01*
X60345500Y-20993088D01*
X60303785Y-20783371D01*
X60221957Y-20585823D01*
X60103163Y-20408034D01*
X59951966Y-20256837D01*
X59774177Y-20138043D01*
X59586974Y-20060500D01*
X62887260Y-20060500D01*
X62907432Y-20062478D01*
G36*
X46267040Y-32247600D02*
G01*
X46276874Y-32259583D01*
X46324687Y-32298821D01*
X46379236Y-32327979D01*
X46438425Y-32345933D01*
X46484558Y-32350477D01*
X46484560Y-32350477D01*
X46499979Y-32351996D01*
X46515398Y-32350477D01*
X49295284Y-32350477D01*
X49293361Y-32370000D01*
X49293361Y-32712576D01*
X48927577Y-33078361D01*
X48500000Y-33078361D01*
X48453834Y-33082908D01*
X48409442Y-33096374D01*
X48368530Y-33118242D01*
X48332671Y-33147671D01*
X48315187Y-33168976D01*
X48267986Y-33137437D01*
X48170532Y-33097070D01*
X48067074Y-33076491D01*
X47961590Y-33076491D01*
X47858132Y-33097070D01*
X47760678Y-33137437D01*
X47672971Y-33196041D01*
X47598382Y-33270630D01*
X47539778Y-33358337D01*
X47499411Y-33455791D01*
X47478832Y-33559249D01*
X47478832Y-33664733D01*
X47496222Y-33752159D01*
X46829080Y-33085018D01*
X46835500Y-33052742D01*
X46835500Y-32947258D01*
X46814921Y-32843800D01*
X46774554Y-32746346D01*
X46715950Y-32658639D01*
X46641361Y-32584050D01*
X46553654Y-32525446D01*
X46456200Y-32485079D01*
X46352742Y-32464500D01*
X46247258Y-32464500D01*
X46143800Y-32485079D01*
X46046346Y-32525446D01*
X45958639Y-32584050D01*
X45884050Y-32658639D01*
X45825446Y-32746346D01*
X45785079Y-32843800D01*
X45764500Y-32947258D01*
X45764500Y-33052742D01*
X45785079Y-33156200D01*
X45825446Y-33253654D01*
X45838379Y-33273009D01*
X45022713Y-32457344D01*
X45088025Y-32430291D01*
X45175732Y-32371687D01*
X45250321Y-32297098D01*
X45308925Y-32209391D01*
X45349292Y-32111937D01*
X45369871Y-32008479D01*
X45369871Y-31902995D01*
X45349292Y-31799537D01*
X45308925Y-31702083D01*
X45250321Y-31614376D01*
X45175732Y-31539787D01*
X45088025Y-31481183D01*
X45077058Y-31476640D01*
X45111619Y-31393203D01*
X45132198Y-31289745D01*
X45132198Y-31184261D01*
X45114444Y-31095003D01*
X46267040Y-32247600D01*
G37*
X46267040Y-32247600D02*
X46276874Y-32259583D01*
X46324687Y-32298821D01*
X46379236Y-32327979D01*
X46438425Y-32345933D01*
X46484558Y-32350477D01*
X46484560Y-32350477D01*
X46499979Y-32351996D01*
X46515398Y-32350477D01*
X49295284Y-32350477D01*
X49293361Y-32370000D01*
X49293361Y-32712576D01*
X48927577Y-33078361D01*
X48500000Y-33078361D01*
X48453834Y-33082908D01*
X48409442Y-33096374D01*
X48368530Y-33118242D01*
X48332671Y-33147671D01*
X48315187Y-33168976D01*
X48267986Y-33137437D01*
X48170532Y-33097070D01*
X48067074Y-33076491D01*
X47961590Y-33076491D01*
X47858132Y-33097070D01*
X47760678Y-33137437D01*
X47672971Y-33196041D01*
X47598382Y-33270630D01*
X47539778Y-33358337D01*
X47499411Y-33455791D01*
X47478832Y-33559249D01*
X47478832Y-33664733D01*
X47496222Y-33752159D01*
X46829080Y-33085018D01*
X46835500Y-33052742D01*
X46835500Y-32947258D01*
X46814921Y-32843800D01*
X46774554Y-32746346D01*
X46715950Y-32658639D01*
X46641361Y-32584050D01*
X46553654Y-32525446D01*
X46456200Y-32485079D01*
X46352742Y-32464500D01*
X46247258Y-32464500D01*
X46143800Y-32485079D01*
X46046346Y-32525446D01*
X45958639Y-32584050D01*
X45884050Y-32658639D01*
X45825446Y-32746346D01*
X45785079Y-32843800D01*
X45764500Y-32947258D01*
X45764500Y-33052742D01*
X45785079Y-33156200D01*
X45825446Y-33253654D01*
X45838379Y-33273009D01*
X45022713Y-32457344D01*
X45088025Y-32430291D01*
X45175732Y-32371687D01*
X45250321Y-32297098D01*
X45308925Y-32209391D01*
X45349292Y-32111937D01*
X45369871Y-32008479D01*
X45369871Y-31902995D01*
X45349292Y-31799537D01*
X45308925Y-31702083D01*
X45250321Y-31614376D01*
X45175732Y-31539787D01*
X45088025Y-31481183D01*
X45077058Y-31476640D01*
X45111619Y-31393203D01*
X45132198Y-31289745D01*
X45132198Y-31184261D01*
X45114444Y-31095003D01*
X46267040Y-32247600D01*
G36*
X59986001Y-32869936D02*
G01*
X59569938Y-33286000D01*
X58853521Y-33286000D01*
X58020901Y-32453381D01*
X58011063Y-32441393D01*
X57963250Y-32402155D01*
X57949342Y-32394721D01*
X59333939Y-31010124D01*
X59516629Y-30973785D01*
X59714177Y-30891957D01*
X59891966Y-30773163D01*
X59986000Y-30679129D01*
X59986001Y-32869936D01*
G37*
X59986001Y-32869936D02*
X59569938Y-33286000D01*
X58853521Y-33286000D01*
X58020901Y-32453381D01*
X58011063Y-32441393D01*
X57963250Y-32402155D01*
X57949342Y-32394721D01*
X59333939Y-31010124D01*
X59516629Y-30973785D01*
X59714177Y-30891957D01*
X59891966Y-30773163D01*
X59986000Y-30679129D01*
X59986001Y-32869936D01*
G36*
X45232744Y-30090056D02*
G01*
X45249512Y-30110488D01*
X45269943Y-30127255D01*
X45269945Y-30127257D01*
X45331051Y-30177406D01*
X45405887Y-30217406D01*
X45424081Y-30227131D01*
X45525024Y-30257752D01*
X45603693Y-30265500D01*
X45603694Y-30265500D01*
X45629999Y-30268091D01*
X45656304Y-30265500D01*
X48711030Y-30265500D01*
X48714081Y-30267131D01*
X48815024Y-30297752D01*
X48893693Y-30305500D01*
X49043190Y-30305500D01*
X49263361Y-30525672D01*
X49263361Y-30780000D01*
X49267908Y-30826166D01*
X49281374Y-30870558D01*
X49303242Y-30911470D01*
X49332671Y-30947329D01*
X49368530Y-30976758D01*
X49409442Y-30998626D01*
X49453834Y-31012092D01*
X49500000Y-31016639D01*
X49738942Y-31016639D01*
X49825024Y-31042752D01*
X49903693Y-31050500D01*
X49913097Y-31050500D01*
X50359653Y-31497057D01*
X50376421Y-31517489D01*
X50396852Y-31534256D01*
X50396854Y-31534258D01*
X50457961Y-31584407D01*
X50518497Y-31616764D01*
X50550990Y-31634132D01*
X50651933Y-31664753D01*
X50730602Y-31672501D01*
X50730603Y-31672501D01*
X50756908Y-31675092D01*
X50783213Y-31672501D01*
X50978221Y-31672501D01*
X51028197Y-31722477D01*
X46630043Y-31722477D01*
X44956173Y-30048608D01*
X44954974Y-30036436D01*
X44941508Y-29992044D01*
X44919640Y-29951132D01*
X44890211Y-29915273D01*
X44110438Y-29135500D01*
X44278190Y-29135500D01*
X45232744Y-30090056D01*
G37*
X45232744Y-30090056D02*
X45249512Y-30110488D01*
X45269943Y-30127255D01*
X45269945Y-30127257D01*
X45331051Y-30177406D01*
X45405887Y-30217406D01*
X45424081Y-30227131D01*
X45525024Y-30257752D01*
X45603693Y-30265500D01*
X45603694Y-30265500D01*
X45629999Y-30268091D01*
X45656304Y-30265500D01*
X48711030Y-30265500D01*
X48714081Y-30267131D01*
X48815024Y-30297752D01*
X48893693Y-30305500D01*
X49043190Y-30305500D01*
X49263361Y-30525672D01*
X49263361Y-30780000D01*
X49267908Y-30826166D01*
X49281374Y-30870558D01*
X49303242Y-30911470D01*
X49332671Y-30947329D01*
X49368530Y-30976758D01*
X49409442Y-30998626D01*
X49453834Y-31012092D01*
X49500000Y-31016639D01*
X49738942Y-31016639D01*
X49825024Y-31042752D01*
X49903693Y-31050500D01*
X49913097Y-31050500D01*
X50359653Y-31497057D01*
X50376421Y-31517489D01*
X50396852Y-31534256D01*
X50396854Y-31534258D01*
X50457961Y-31584407D01*
X50518497Y-31616764D01*
X50550990Y-31634132D01*
X50651933Y-31664753D01*
X50730602Y-31672501D01*
X50730603Y-31672501D01*
X50756908Y-31675092D01*
X50783213Y-31672501D01*
X50978221Y-31672501D01*
X51028197Y-31722477D01*
X46630043Y-31722477D01*
X44956173Y-30048608D01*
X44954974Y-30036436D01*
X44941508Y-29992044D01*
X44919640Y-29951132D01*
X44890211Y-29915273D01*
X44110438Y-29135500D01*
X44278190Y-29135500D01*
X45232744Y-30090056D01*
G36*
X53803361Y-28350000D02*
G01*
X53807908Y-28396166D01*
X53821374Y-28440558D01*
X53843242Y-28481470D01*
X53872671Y-28517329D01*
X53908530Y-28546758D01*
X53949442Y-28568626D01*
X53993834Y-28582092D01*
X54040000Y-28586639D01*
X54416019Y-28586639D01*
X54445628Y-28602465D01*
X54565420Y-28638804D01*
X54658789Y-28648000D01*
X54658797Y-28648000D01*
X54690000Y-28651073D01*
X54721203Y-28648000D01*
X56372770Y-28648000D01*
X56375420Y-28648804D01*
X56468789Y-28658000D01*
X56468796Y-28658000D01*
X56499999Y-28661073D01*
X56531202Y-28658000D01*
X56971501Y-28658000D01*
X56971502Y-30403789D01*
X56499931Y-30875361D01*
X56250000Y-30875361D01*
X56203834Y-30879908D01*
X56159442Y-30893374D01*
X56144239Y-30901500D01*
X53255761Y-30901500D01*
X53240558Y-30893374D01*
X53196166Y-30879908D01*
X53150000Y-30875361D01*
X52100000Y-30875361D01*
X52053834Y-30879908D01*
X52009442Y-30893374D01*
X51994239Y-30901500D01*
X51721840Y-30901500D01*
X51597295Y-30776955D01*
X51580519Y-30756513D01*
X51498978Y-30689595D01*
X51405950Y-30639870D01*
X51305007Y-30609249D01*
X51226338Y-30601501D01*
X51226336Y-30601501D01*
X51200031Y-30598910D01*
X51173726Y-30601501D01*
X50978720Y-30601501D01*
X50732479Y-30355260D01*
X50757752Y-30271946D01*
X50765500Y-30193277D01*
X50765500Y-29511307D01*
X50768091Y-29485000D01*
X50757752Y-29380024D01*
X50727131Y-29279081D01*
X50677406Y-29186053D01*
X50610488Y-29104512D01*
X50528947Y-29037594D01*
X50435919Y-28987869D01*
X50362781Y-28965682D01*
X50397329Y-28937329D01*
X50426758Y-28901470D01*
X50448626Y-28860558D01*
X50462092Y-28816166D01*
X50466639Y-28770000D01*
X50466639Y-28307829D01*
X50494333Y-28280135D01*
X50493361Y-28290000D01*
X50493361Y-28890000D01*
X50497908Y-28936166D01*
X50511374Y-28980558D01*
X50533242Y-29021470D01*
X50562671Y-29057329D01*
X50598530Y-29086758D01*
X50639442Y-29108626D01*
X50683834Y-29122092D01*
X50730000Y-29126639D01*
X51630000Y-29126639D01*
X51676166Y-29122092D01*
X51720558Y-29108626D01*
X51761470Y-29086758D01*
X51797329Y-29057329D01*
X51826758Y-29021470D01*
X51827594Y-29019905D01*
X51843361Y-29035672D01*
X51843361Y-29050000D01*
X51847908Y-29096166D01*
X51861374Y-29140558D01*
X51883242Y-29181470D01*
X51912671Y-29217329D01*
X51948530Y-29246758D01*
X51989442Y-29268626D01*
X52033834Y-29282092D01*
X52080000Y-29286639D01*
X52300259Y-29286639D01*
X52315000Y-29288091D01*
X52329741Y-29286639D01*
X52580000Y-29286639D01*
X52626166Y-29282092D01*
X52670558Y-29268626D01*
X52711470Y-29246758D01*
X52747329Y-29217329D01*
X52776758Y-29181470D01*
X52798626Y-29140558D01*
X52800000Y-29136028D01*
X52801374Y-29140558D01*
X52823242Y-29181470D01*
X52852671Y-29217329D01*
X52888530Y-29246758D01*
X52929442Y-29268626D01*
X52973834Y-29282092D01*
X53020000Y-29286639D01*
X53520000Y-29286639D01*
X53566166Y-29282092D01*
X53610558Y-29268626D01*
X53651470Y-29246758D01*
X53687329Y-29217329D01*
X53716758Y-29181470D01*
X53738626Y-29140558D01*
X53752092Y-29096166D01*
X53756639Y-29050000D01*
X53756639Y-28450000D01*
X53752092Y-28403834D01*
X53738626Y-28359442D01*
X53720500Y-28325531D01*
X53720500Y-27957622D01*
X53731470Y-27951758D01*
X53767329Y-27922329D01*
X53796758Y-27886470D01*
X53803361Y-27874117D01*
X53803361Y-28350000D01*
G37*
X53803361Y-28350000D02*
X53807908Y-28396166D01*
X53821374Y-28440558D01*
X53843242Y-28481470D01*
X53872671Y-28517329D01*
X53908530Y-28546758D01*
X53949442Y-28568626D01*
X53993834Y-28582092D01*
X54040000Y-28586639D01*
X54416019Y-28586639D01*
X54445628Y-28602465D01*
X54565420Y-28638804D01*
X54658789Y-28648000D01*
X54658797Y-28648000D01*
X54690000Y-28651073D01*
X54721203Y-28648000D01*
X56372770Y-28648000D01*
X56375420Y-28648804D01*
X56468789Y-28658000D01*
X56468796Y-28658000D01*
X56499999Y-28661073D01*
X56531202Y-28658000D01*
X56971501Y-28658000D01*
X56971502Y-30403789D01*
X56499931Y-30875361D01*
X56250000Y-30875361D01*
X56203834Y-30879908D01*
X56159442Y-30893374D01*
X56144239Y-30901500D01*
X53255761Y-30901500D01*
X53240558Y-30893374D01*
X53196166Y-30879908D01*
X53150000Y-30875361D01*
X52100000Y-30875361D01*
X52053834Y-30879908D01*
X52009442Y-30893374D01*
X51994239Y-30901500D01*
X51721840Y-30901500D01*
X51597295Y-30776955D01*
X51580519Y-30756513D01*
X51498978Y-30689595D01*
X51405950Y-30639870D01*
X51305007Y-30609249D01*
X51226338Y-30601501D01*
X51226336Y-30601501D01*
X51200031Y-30598910D01*
X51173726Y-30601501D01*
X50978720Y-30601501D01*
X50732479Y-30355260D01*
X50757752Y-30271946D01*
X50765500Y-30193277D01*
X50765500Y-29511307D01*
X50768091Y-29485000D01*
X50757752Y-29380024D01*
X50727131Y-29279081D01*
X50677406Y-29186053D01*
X50610488Y-29104512D01*
X50528947Y-29037594D01*
X50435919Y-28987869D01*
X50362781Y-28965682D01*
X50397329Y-28937329D01*
X50426758Y-28901470D01*
X50448626Y-28860558D01*
X50462092Y-28816166D01*
X50466639Y-28770000D01*
X50466639Y-28307829D01*
X50494333Y-28280135D01*
X50493361Y-28290000D01*
X50493361Y-28890000D01*
X50497908Y-28936166D01*
X50511374Y-28980558D01*
X50533242Y-29021470D01*
X50562671Y-29057329D01*
X50598530Y-29086758D01*
X50639442Y-29108626D01*
X50683834Y-29122092D01*
X50730000Y-29126639D01*
X51630000Y-29126639D01*
X51676166Y-29122092D01*
X51720558Y-29108626D01*
X51761470Y-29086758D01*
X51797329Y-29057329D01*
X51826758Y-29021470D01*
X51827594Y-29019905D01*
X51843361Y-29035672D01*
X51843361Y-29050000D01*
X51847908Y-29096166D01*
X51861374Y-29140558D01*
X51883242Y-29181470D01*
X51912671Y-29217329D01*
X51948530Y-29246758D01*
X51989442Y-29268626D01*
X52033834Y-29282092D01*
X52080000Y-29286639D01*
X52300259Y-29286639D01*
X52315000Y-29288091D01*
X52329741Y-29286639D01*
X52580000Y-29286639D01*
X52626166Y-29282092D01*
X52670558Y-29268626D01*
X52711470Y-29246758D01*
X52747329Y-29217329D01*
X52776758Y-29181470D01*
X52798626Y-29140558D01*
X52800000Y-29136028D01*
X52801374Y-29140558D01*
X52823242Y-29181470D01*
X52852671Y-29217329D01*
X52888530Y-29246758D01*
X52929442Y-29268626D01*
X52973834Y-29282092D01*
X53020000Y-29286639D01*
X53520000Y-29286639D01*
X53566166Y-29282092D01*
X53610558Y-29268626D01*
X53651470Y-29246758D01*
X53687329Y-29217329D01*
X53716758Y-29181470D01*
X53738626Y-29140558D01*
X53752092Y-29096166D01*
X53756639Y-29050000D01*
X53756639Y-28450000D01*
X53752092Y-28403834D01*
X53738626Y-28359442D01*
X53720500Y-28325531D01*
X53720500Y-27957622D01*
X53731470Y-27951758D01*
X53767329Y-27922329D01*
X53796758Y-27886470D01*
X53803361Y-27874117D01*
X53803361Y-28350000D01*
G36*
X53665823Y-20138043D02*
G01*
X53488034Y-20256837D01*
X53336837Y-20408034D01*
X53218043Y-20585823D01*
X53136215Y-20783371D01*
X53094500Y-20993088D01*
X53094500Y-21206912D01*
X53136215Y-21416629D01*
X53218043Y-21614177D01*
X53336837Y-21791966D01*
X53488034Y-21943163D01*
X53665823Y-22061957D01*
X53863371Y-22143785D01*
X54073088Y-22185500D01*
X54286912Y-22185500D01*
X54496629Y-22143785D01*
X54694177Y-22061957D01*
X54696405Y-22060468D01*
X54818872Y-22182935D01*
X54818877Y-22182939D01*
X55330437Y-22694500D01*
X54662843Y-22694500D01*
X54616899Y-22699025D01*
X54572721Y-22712426D01*
X54431299Y-22771005D01*
X54390584Y-22792768D01*
X54354897Y-22822055D01*
X54190463Y-22986489D01*
X54187329Y-22982671D01*
X54151470Y-22953242D01*
X54110558Y-22931374D01*
X54066166Y-22917908D01*
X54020000Y-22913361D01*
X53828757Y-22913361D01*
X53814921Y-22843800D01*
X53774554Y-22746346D01*
X53715950Y-22658639D01*
X53641361Y-22584050D01*
X53553654Y-22525446D01*
X53456200Y-22485079D01*
X53352742Y-22464500D01*
X53247258Y-22464500D01*
X53143800Y-22485079D01*
X53046346Y-22525446D01*
X52958639Y-22584050D01*
X52884050Y-22658639D01*
X52825446Y-22746346D01*
X52785079Y-22843800D01*
X52764500Y-22947258D01*
X52764500Y-23003361D01*
X52400672Y-23003361D01*
X51737264Y-22339954D01*
X51720488Y-22319512D01*
X51638947Y-22252594D01*
X51545919Y-22202869D01*
X51444976Y-22172248D01*
X51366307Y-22164500D01*
X51366305Y-22164500D01*
X51340000Y-22161909D01*
X51313695Y-22164500D01*
X50026305Y-22164500D01*
X50000000Y-22161909D01*
X49973695Y-22164500D01*
X49973693Y-22164500D01*
X49895024Y-22172248D01*
X49794081Y-22202869D01*
X49753224Y-22224708D01*
X49701052Y-22252594D01*
X49671443Y-22276894D01*
X49619512Y-22319512D01*
X49602740Y-22339949D01*
X48929329Y-23013361D01*
X48800000Y-23013361D01*
X48753834Y-23017908D01*
X48709442Y-23031374D01*
X48668530Y-23053242D01*
X48632671Y-23082671D01*
X48603242Y-23118530D01*
X48581374Y-23159442D01*
X48567908Y-23203834D01*
X48563361Y-23250000D01*
X48563361Y-24550000D01*
X48567908Y-24596166D01*
X48581374Y-24640558D01*
X48603242Y-24681470D01*
X48632671Y-24717329D01*
X48668530Y-24746758D01*
X48709442Y-24768626D01*
X48753834Y-24782092D01*
X48800000Y-24786639D01*
X49500000Y-24786639D01*
X49546166Y-24782092D01*
X49590558Y-24768626D01*
X49631470Y-24746758D01*
X49667329Y-24717329D01*
X49696758Y-24681470D01*
X49718626Y-24640558D01*
X49732092Y-24596166D01*
X49736639Y-24550000D01*
X49736639Y-23720671D01*
X50221811Y-23235500D01*
X51118190Y-23235500D01*
X51882000Y-23999311D01*
X51882000Y-24299105D01*
X51612953Y-24568153D01*
X51592511Y-24584929D01*
X51525593Y-24666470D01*
X51475868Y-24759499D01*
X51445247Y-24860442D01*
X51438233Y-24931662D01*
X51434908Y-24965417D01*
X51435543Y-24971862D01*
X51400000Y-24968361D01*
X50340000Y-24968361D01*
X50293834Y-24972908D01*
X50249442Y-24986374D01*
X50208530Y-25008242D01*
X50172671Y-25037671D01*
X50143242Y-25073530D01*
X50121374Y-25114442D01*
X50107908Y-25158834D01*
X50103361Y-25205000D01*
X50103361Y-25855000D01*
X50107908Y-25901166D01*
X50121374Y-25945558D01*
X50143242Y-25986470D01*
X50172671Y-26022329D01*
X50208530Y-26051758D01*
X50249442Y-26073626D01*
X50293834Y-26087092D01*
X50340000Y-26091639D01*
X51400000Y-26091639D01*
X51437500Y-26087946D01*
X51437500Y-26346684D01*
X51434908Y-26372999D01*
X51445248Y-26477975D01*
X51445862Y-26480000D01*
X51445248Y-26482025D01*
X51434908Y-26587001D01*
X51437500Y-26613316D01*
X51437500Y-26872054D01*
X51400000Y-26868361D01*
X50340000Y-26868361D01*
X50293834Y-26872908D01*
X50249442Y-26886374D01*
X50208530Y-26908242D01*
X50172671Y-26937671D01*
X50143242Y-26973530D01*
X50121374Y-27014442D01*
X50107908Y-27058834D01*
X50103361Y-27105000D01*
X50103361Y-27185883D01*
X50096758Y-27173530D01*
X50067329Y-27137671D01*
X50031470Y-27108242D01*
X49990558Y-27086374D01*
X49946166Y-27072908D01*
X49900000Y-27068361D01*
X49300000Y-27068361D01*
X49253834Y-27072908D01*
X49209442Y-27086374D01*
X49168530Y-27108242D01*
X49132671Y-27137671D01*
X49103242Y-27173530D01*
X49081374Y-27214442D01*
X49067908Y-27258834D01*
X49063361Y-27305000D01*
X49063361Y-27805000D01*
X49067908Y-27851166D01*
X49081374Y-27895558D01*
X49103242Y-27936470D01*
X49132671Y-27972329D01*
X49168530Y-28001758D01*
X49209442Y-28023626D01*
X49253834Y-28037092D01*
X49300000Y-28041639D01*
X49571534Y-28041639D01*
X49539442Y-28051374D01*
X49498530Y-28073242D01*
X49462671Y-28102671D01*
X49433242Y-28138530D01*
X49411374Y-28179442D01*
X49397908Y-28223834D01*
X49393361Y-28270000D01*
X49393361Y-28770000D01*
X49397908Y-28816166D01*
X49411374Y-28860558D01*
X49433242Y-28901470D01*
X49462671Y-28937329D01*
X49498530Y-28966758D01*
X49539442Y-28988626D01*
X49543972Y-28990000D01*
X49539442Y-28991374D01*
X49498530Y-29013242D01*
X49462671Y-29042671D01*
X49433242Y-29078530D01*
X49411374Y-29119442D01*
X49408381Y-29129308D01*
X49343189Y-29194500D01*
X48899949Y-29194500D01*
X48896758Y-29188530D01*
X48867329Y-29152671D01*
X48831470Y-29123242D01*
X48790558Y-29101374D01*
X48786028Y-29100000D01*
X48790558Y-29098626D01*
X48831470Y-29076758D01*
X48867329Y-29047329D01*
X48896758Y-29011470D01*
X48918626Y-28970558D01*
X48932092Y-28926166D01*
X48936639Y-28880000D01*
X48936639Y-28380000D01*
X48932092Y-28333834D01*
X48918626Y-28289442D01*
X48896758Y-28248530D01*
X48867329Y-28212671D01*
X48831470Y-28183242D01*
X48790558Y-28161374D01*
X48746166Y-28147908D01*
X48735500Y-28146857D01*
X48735500Y-26970160D01*
X48740558Y-26968626D01*
X48781470Y-26946758D01*
X48817329Y-26917329D01*
X48846758Y-26881470D01*
X48868626Y-26840558D01*
X48882092Y-26796166D01*
X48886639Y-26750000D01*
X48886639Y-25850000D01*
X48882092Y-25803834D01*
X48868626Y-25759442D01*
X48846758Y-25718530D01*
X48817329Y-25682671D01*
X48781470Y-25653242D01*
X48740558Y-25631374D01*
X48696166Y-25617908D01*
X48650000Y-25613361D01*
X47850000Y-25613361D01*
X47803834Y-25617908D01*
X47759442Y-25631374D01*
X47718530Y-25653242D01*
X47682671Y-25682671D01*
X47653242Y-25718530D01*
X47631374Y-25759442D01*
X47617908Y-25803834D01*
X47613361Y-25850000D01*
X47613361Y-25964500D01*
X46986639Y-25964500D01*
X46986639Y-25850000D01*
X46982092Y-25803834D01*
X46968626Y-25759442D01*
X46946758Y-25718530D01*
X46917329Y-25682671D01*
X46881470Y-25653242D01*
X46840558Y-25631374D01*
X46796166Y-25617908D01*
X46750000Y-25613361D01*
X46287830Y-25613361D01*
X45816551Y-25142083D01*
X45806042Y-25129278D01*
X45754956Y-25087352D01*
X45696671Y-25056199D01*
X45633429Y-25037015D01*
X45584138Y-25032160D01*
X45567660Y-25030537D01*
X45551182Y-25032160D01*
X44691082Y-25032160D01*
X44470344Y-24811422D01*
X44434485Y-24781993D01*
X44393573Y-24760125D01*
X44349181Y-24746659D01*
X44303015Y-24742112D01*
X44256849Y-24746659D01*
X44252481Y-24747984D01*
X44239875Y-24706427D01*
X44218007Y-24665515D01*
X44188578Y-24629656D01*
X43835024Y-24276102D01*
X43799165Y-24246673D01*
X43758253Y-24224805D01*
X43713861Y-24211339D01*
X43667695Y-24206792D01*
X43621529Y-24211339D01*
X43577137Y-24224805D01*
X43536225Y-24246673D01*
X43500366Y-24276102D01*
X43279628Y-24496840D01*
X43272098Y-24496840D01*
X43255628Y-24495218D01*
X43239158Y-24496840D01*
X43239151Y-24496840D01*
X43196158Y-24501075D01*
X43189859Y-24501695D01*
X43170675Y-24507515D01*
X43126618Y-24520879D01*
X43068333Y-24552032D01*
X43017247Y-24593958D01*
X43006738Y-24606763D01*
X42704277Y-24909224D01*
X42687780Y-24914228D01*
X42646868Y-24936096D01*
X42611009Y-24965525D01*
X41691770Y-25884764D01*
X41662341Y-25920623D01*
X41640473Y-25961535D01*
X41633824Y-25983455D01*
X41619693Y-26000673D01*
X41592388Y-26051758D01*
X41588540Y-26058958D01*
X41569355Y-26122200D01*
X41562877Y-26187969D01*
X41564500Y-26204447D01*
X41564500Y-26583522D01*
X41562877Y-26600000D01*
X41569355Y-26665769D01*
X41571979Y-26674418D01*
X41588539Y-26729010D01*
X41619692Y-26787295D01*
X41661618Y-26838381D01*
X41674419Y-26848887D01*
X41951110Y-27125578D01*
X41961618Y-27138382D01*
X41974422Y-27148890D01*
X42864501Y-28038970D01*
X42864501Y-28165889D01*
X42814627Y-28170801D01*
X42740147Y-28193395D01*
X42732535Y-28195704D01*
X42656878Y-28236143D01*
X42619436Y-28266871D01*
X42590565Y-28290565D01*
X42576927Y-28307183D01*
X40761636Y-30122475D01*
X40367877Y-30122475D01*
X40375276Y-30111401D01*
X40415643Y-30013947D01*
X40436222Y-29910489D01*
X40436222Y-29805005D01*
X40415643Y-29701547D01*
X40375276Y-29604093D01*
X40316672Y-29516386D01*
X40242083Y-29441797D01*
X40154376Y-29383193D01*
X40056922Y-29342826D01*
X39953464Y-29322247D01*
X39847980Y-29322247D01*
X39744522Y-29342826D01*
X39647068Y-29383193D01*
X39559361Y-29441797D01*
X39484772Y-29516386D01*
X39438257Y-29586000D01*
X38130063Y-29586000D01*
X37669420Y-29125358D01*
X37659582Y-29113370D01*
X37643479Y-29100155D01*
X37674552Y-29053652D01*
X37714919Y-28956198D01*
X37735498Y-28852740D01*
X37735498Y-28747256D01*
X37714919Y-28643798D01*
X37674552Y-28546344D01*
X37615948Y-28458637D01*
X37541359Y-28384048D01*
X37453652Y-28325444D01*
X37356198Y-28285077D01*
X37252740Y-28264498D01*
X37214000Y-28264498D01*
X37214000Y-27401666D01*
X37215519Y-27386245D01*
X37209456Y-27324690D01*
X37191502Y-27265500D01*
X37162344Y-27210952D01*
X37160634Y-27208868D01*
X37123106Y-27163139D01*
X37111125Y-27153307D01*
X36390754Y-26432936D01*
X36404426Y-26425628D01*
X36440285Y-26396199D01*
X36617062Y-26219422D01*
X36646491Y-26183563D01*
X36668359Y-26142651D01*
X36679695Y-26105279D01*
X36717067Y-26093943D01*
X36757979Y-26072075D01*
X36793838Y-26042646D01*
X36970615Y-25865869D01*
X37000044Y-25830010D01*
X37021912Y-25789098D01*
X37033249Y-25751726D01*
X37070621Y-25740389D01*
X37111533Y-25718521D01*
X37147392Y-25689092D01*
X37324169Y-25512315D01*
X37353598Y-25476456D01*
X37375466Y-25435544D01*
X37386802Y-25398172D01*
X37424174Y-25386836D01*
X37465086Y-25364968D01*
X37500945Y-25335539D01*
X37677722Y-25158762D01*
X37707151Y-25122903D01*
X37729019Y-25081991D01*
X37740355Y-25044619D01*
X37766570Y-25036667D01*
X37770860Y-25037090D01*
X37786281Y-25035571D01*
X38663008Y-25035571D01*
X38678429Y-25037090D01*
X38693850Y-25035571D01*
X38693851Y-25035571D01*
X38739984Y-25031027D01*
X38799173Y-25013073D01*
X38853722Y-24983915D01*
X38901535Y-24944677D01*
X38911373Y-24932689D01*
X39611124Y-24232939D01*
X39623106Y-24223106D01*
X39655717Y-24183369D01*
X39747227Y-24274879D01*
X39783086Y-24304308D01*
X39823998Y-24326176D01*
X39861370Y-24337512D01*
X39872706Y-24374884D01*
X39894574Y-24415796D01*
X39924003Y-24451655D01*
X40100780Y-24628432D01*
X40136639Y-24657861D01*
X40177551Y-24679729D01*
X40214923Y-24691066D01*
X40226260Y-24728438D01*
X40248128Y-24769350D01*
X40277557Y-24805209D01*
X40454334Y-24981986D01*
X40490193Y-25011415D01*
X40531105Y-25033283D01*
X40568477Y-25044619D01*
X40579813Y-25081991D01*
X40601681Y-25122903D01*
X40631110Y-25158762D01*
X40807887Y-25335539D01*
X40843746Y-25364968D01*
X40884658Y-25386836D01*
X40922030Y-25398172D01*
X40933366Y-25435544D01*
X40955234Y-25476456D01*
X40984663Y-25512315D01*
X41161440Y-25689092D01*
X41197299Y-25718521D01*
X41238211Y-25740389D01*
X41282603Y-25753855D01*
X41328769Y-25758402D01*
X41374935Y-25753855D01*
X41419327Y-25740389D01*
X41460239Y-25718521D01*
X41496098Y-25689092D01*
X42415337Y-24769853D01*
X42444766Y-24733994D01*
X42466634Y-24693082D01*
X42480100Y-24648690D01*
X42484647Y-24602524D01*
X42480100Y-24556358D01*
X42466634Y-24511966D01*
X42444766Y-24471054D01*
X42415337Y-24435195D01*
X42238560Y-24258418D01*
X42202701Y-24228989D01*
X42161789Y-24207121D01*
X42124417Y-24195785D01*
X42113081Y-24158413D01*
X42091213Y-24117501D01*
X42061784Y-24081642D01*
X41885007Y-23904865D01*
X41854326Y-23879685D01*
X41898511Y-23835500D01*
X43346857Y-23835500D01*
X43347908Y-23846166D01*
X43361374Y-23890558D01*
X43383242Y-23931470D01*
X43412671Y-23967329D01*
X43448530Y-23996758D01*
X43489442Y-24018626D01*
X43533834Y-24032092D01*
X43580000Y-24036639D01*
X44080000Y-24036639D01*
X44126166Y-24032092D01*
X44170558Y-24018626D01*
X44211470Y-23996758D01*
X44247329Y-23967329D01*
X44276758Y-23931470D01*
X44298626Y-23890558D01*
X44312092Y-23846166D01*
X44316639Y-23800000D01*
X44316639Y-23600000D01*
X45761909Y-23600000D01*
X45764500Y-23626307D01*
X45764500Y-23652742D01*
X45769657Y-23678668D01*
X45772248Y-23704976D01*
X45779922Y-23730273D01*
X45785079Y-23756200D01*
X45795196Y-23780624D01*
X45802869Y-23805919D01*
X45815329Y-23829231D01*
X45825446Y-23853654D01*
X45840134Y-23875636D01*
X45852594Y-23898947D01*
X45869363Y-23919380D01*
X45884050Y-23941361D01*
X45892689Y-23950000D01*
X45884050Y-23958639D01*
X45869361Y-23980622D01*
X45852594Y-24001053D01*
X45840135Y-24024362D01*
X45825446Y-24046346D01*
X45815327Y-24070776D01*
X45802869Y-24094083D01*
X45795198Y-24119370D01*
X45785079Y-24143800D01*
X45779920Y-24169736D01*
X45772249Y-24195024D01*
X45769658Y-24221325D01*
X45764500Y-24247258D01*
X45764500Y-24273695D01*
X45761909Y-24300000D01*
X45764500Y-24326305D01*
X45764500Y-24352742D01*
X45769658Y-24378675D01*
X45772249Y-24404976D01*
X45779920Y-24430264D01*
X45785079Y-24456200D01*
X45795198Y-24480630D01*
X45802869Y-24505917D01*
X45815327Y-24529224D01*
X45825446Y-24553654D01*
X45840135Y-24575638D01*
X45852594Y-24598947D01*
X45869361Y-24619377D01*
X45884050Y-24641361D01*
X45902748Y-24660059D01*
X45919513Y-24680487D01*
X45939941Y-24697252D01*
X45958639Y-24715950D01*
X45980623Y-24730639D01*
X46001053Y-24747406D01*
X46024362Y-24759865D01*
X46046346Y-24774554D01*
X46070776Y-24784673D01*
X46094083Y-24797131D01*
X46119370Y-24804802D01*
X46143800Y-24814921D01*
X46169736Y-24820080D01*
X46195024Y-24827751D01*
X46221325Y-24830342D01*
X46247258Y-24835500D01*
X46273695Y-24835500D01*
X46300000Y-24838091D01*
X46326305Y-24835500D01*
X46352742Y-24835500D01*
X46378675Y-24830342D01*
X46404976Y-24827751D01*
X46430264Y-24820080D01*
X46456200Y-24814921D01*
X46480630Y-24804802D01*
X46505917Y-24797131D01*
X46529224Y-24784673D01*
X46553654Y-24774554D01*
X46575638Y-24759865D01*
X46598947Y-24747406D01*
X46619378Y-24730639D01*
X46641361Y-24715950D01*
X46693697Y-24663614D01*
X46703242Y-24681470D01*
X46732671Y-24717329D01*
X46768530Y-24746758D01*
X46809442Y-24768626D01*
X46853834Y-24782092D01*
X46900000Y-24786639D01*
X47600000Y-24786639D01*
X47646166Y-24782092D01*
X47690558Y-24768626D01*
X47731470Y-24746758D01*
X47767329Y-24717329D01*
X47796758Y-24681470D01*
X47818626Y-24640558D01*
X47832092Y-24596166D01*
X47836639Y-24550000D01*
X47836639Y-23250000D01*
X47832092Y-23203834D01*
X47818626Y-23159442D01*
X47796758Y-23118530D01*
X47767329Y-23082671D01*
X47731470Y-23053242D01*
X47690558Y-23031374D01*
X47646166Y-23017908D01*
X47600000Y-23013361D01*
X46900000Y-23013361D01*
X46853834Y-23017908D01*
X46809442Y-23031374D01*
X46768530Y-23053242D01*
X46754812Y-23064500D01*
X46247258Y-23064500D01*
X46221332Y-23069657D01*
X46195024Y-23072248D01*
X46169727Y-23079922D01*
X46143800Y-23085079D01*
X46119376Y-23095196D01*
X46094081Y-23102869D01*
X46070769Y-23115329D01*
X46046346Y-23125446D01*
X46024364Y-23140134D01*
X46001053Y-23152594D01*
X45980620Y-23169363D01*
X45958639Y-23184050D01*
X45939949Y-23202740D01*
X45919512Y-23219512D01*
X45902740Y-23239949D01*
X45884050Y-23258639D01*
X45869363Y-23280620D01*
X45852594Y-23301053D01*
X45840134Y-23324364D01*
X45825446Y-23346346D01*
X45815329Y-23370769D01*
X45802869Y-23394081D01*
X45795196Y-23419376D01*
X45785079Y-23443800D01*
X45779922Y-23469727D01*
X45772248Y-23495024D01*
X45769657Y-23521332D01*
X45764500Y-23547258D01*
X45764500Y-23573693D01*
X45761909Y-23600000D01*
X44316639Y-23600000D01*
X44316639Y-23200000D01*
X44312092Y-23153834D01*
X44298626Y-23109442D01*
X44276758Y-23068530D01*
X44247329Y-23032671D01*
X44211470Y-23003242D01*
X44170558Y-22981374D01*
X44126166Y-22967908D01*
X44080000Y-22963361D01*
X43580000Y-22963361D01*
X43533834Y-22967908D01*
X43489442Y-22981374D01*
X43448530Y-23003242D01*
X43412671Y-23032671D01*
X43383242Y-23068530D01*
X43361374Y-23109442D01*
X43347908Y-23153834D01*
X43346857Y-23164500D01*
X41776012Y-23164500D01*
X41759542Y-23162878D01*
X41743072Y-23164500D01*
X41743065Y-23164500D01*
X41704191Y-23168329D01*
X41693773Y-23169355D01*
X41674589Y-23175175D01*
X41630532Y-23188539D01*
X41572247Y-23219692D01*
X41521161Y-23261618D01*
X41510652Y-23274423D01*
X41379858Y-23405217D01*
X41354677Y-23374535D01*
X41177900Y-23197758D01*
X41142041Y-23168329D01*
X41128370Y-23161022D01*
X41475392Y-22814000D01*
X47684579Y-22814000D01*
X47700000Y-22815519D01*
X47715421Y-22814000D01*
X47715422Y-22814000D01*
X47761555Y-22809456D01*
X47820744Y-22791502D01*
X47875293Y-22762344D01*
X47923106Y-22723106D01*
X47932944Y-22711118D01*
X48482937Y-22161126D01*
X48482941Y-22161121D01*
X48583594Y-22060468D01*
X48585823Y-22061957D01*
X48783371Y-22143785D01*
X48993088Y-22185500D01*
X49206912Y-22185500D01*
X49416629Y-22143785D01*
X49614177Y-22061957D01*
X49791966Y-21943163D01*
X49943163Y-21791966D01*
X50061957Y-21614177D01*
X50143785Y-21416629D01*
X50185500Y-21206912D01*
X50185500Y-20993088D01*
X50143785Y-20783371D01*
X50061957Y-20585823D01*
X49943163Y-20408034D01*
X49791966Y-20256837D01*
X49614177Y-20138043D01*
X49426974Y-20060500D01*
X53853026Y-20060500D01*
X53665823Y-20138043D01*
G37*
X53665823Y-20138043D02*
X53488034Y-20256837D01*
X53336837Y-20408034D01*
X53218043Y-20585823D01*
X53136215Y-20783371D01*
X53094500Y-20993088D01*
X53094500Y-21206912D01*
X53136215Y-21416629D01*
X53218043Y-21614177D01*
X53336837Y-21791966D01*
X53488034Y-21943163D01*
X53665823Y-22061957D01*
X53863371Y-22143785D01*
X54073088Y-22185500D01*
X54286912Y-22185500D01*
X54496629Y-22143785D01*
X54694177Y-22061957D01*
X54696405Y-22060468D01*
X54818872Y-22182935D01*
X54818877Y-22182939D01*
X55330437Y-22694500D01*
X54662843Y-22694500D01*
X54616899Y-22699025D01*
X54572721Y-22712426D01*
X54431299Y-22771005D01*
X54390584Y-22792768D01*
X54354897Y-22822055D01*
X54190463Y-22986489D01*
X54187329Y-22982671D01*
X54151470Y-22953242D01*
X54110558Y-22931374D01*
X54066166Y-22917908D01*
X54020000Y-22913361D01*
X53828757Y-22913361D01*
X53814921Y-22843800D01*
X53774554Y-22746346D01*
X53715950Y-22658639D01*
X53641361Y-22584050D01*
X53553654Y-22525446D01*
X53456200Y-22485079D01*
X53352742Y-22464500D01*
X53247258Y-22464500D01*
X53143800Y-22485079D01*
X53046346Y-22525446D01*
X52958639Y-22584050D01*
X52884050Y-22658639D01*
X52825446Y-22746346D01*
X52785079Y-22843800D01*
X52764500Y-22947258D01*
X52764500Y-23003361D01*
X52400672Y-23003361D01*
X51737264Y-22339954D01*
X51720488Y-22319512D01*
X51638947Y-22252594D01*
X51545919Y-22202869D01*
X51444976Y-22172248D01*
X51366307Y-22164500D01*
X51366305Y-22164500D01*
X51340000Y-22161909D01*
X51313695Y-22164500D01*
X50026305Y-22164500D01*
X50000000Y-22161909D01*
X49973695Y-22164500D01*
X49973693Y-22164500D01*
X49895024Y-22172248D01*
X49794081Y-22202869D01*
X49753224Y-22224708D01*
X49701052Y-22252594D01*
X49671443Y-22276894D01*
X49619512Y-22319512D01*
X49602740Y-22339949D01*
X48929329Y-23013361D01*
X48800000Y-23013361D01*
X48753834Y-23017908D01*
X48709442Y-23031374D01*
X48668530Y-23053242D01*
X48632671Y-23082671D01*
X48603242Y-23118530D01*
X48581374Y-23159442D01*
X48567908Y-23203834D01*
X48563361Y-23250000D01*
X48563361Y-24550000D01*
X48567908Y-24596166D01*
X48581374Y-24640558D01*
X48603242Y-24681470D01*
X48632671Y-24717329D01*
X48668530Y-24746758D01*
X48709442Y-24768626D01*
X48753834Y-24782092D01*
X48800000Y-24786639D01*
X49500000Y-24786639D01*
X49546166Y-24782092D01*
X49590558Y-24768626D01*
X49631470Y-24746758D01*
X49667329Y-24717329D01*
X49696758Y-24681470D01*
X49718626Y-24640558D01*
X49732092Y-24596166D01*
X49736639Y-24550000D01*
X49736639Y-23720671D01*
X50221811Y-23235500D01*
X51118190Y-23235500D01*
X51882000Y-23999311D01*
X51882000Y-24299105D01*
X51612953Y-24568153D01*
X51592511Y-24584929D01*
X51525593Y-24666470D01*
X51475868Y-24759499D01*
X51445247Y-24860442D01*
X51438233Y-24931662D01*
X51434908Y-24965417D01*
X51435543Y-24971862D01*
X51400000Y-24968361D01*
X50340000Y-24968361D01*
X50293834Y-24972908D01*
X50249442Y-24986374D01*
X50208530Y-25008242D01*
X50172671Y-25037671D01*
X50143242Y-25073530D01*
X50121374Y-25114442D01*
X50107908Y-25158834D01*
X50103361Y-25205000D01*
X50103361Y-25855000D01*
X50107908Y-25901166D01*
X50121374Y-25945558D01*
X50143242Y-25986470D01*
X50172671Y-26022329D01*
X50208530Y-26051758D01*
X50249442Y-26073626D01*
X50293834Y-26087092D01*
X50340000Y-26091639D01*
X51400000Y-26091639D01*
X51437500Y-26087946D01*
X51437500Y-26346684D01*
X51434908Y-26372999D01*
X51445248Y-26477975D01*
X51445862Y-26480000D01*
X51445248Y-26482025D01*
X51434908Y-26587001D01*
X51437500Y-26613316D01*
X51437500Y-26872054D01*
X51400000Y-26868361D01*
X50340000Y-26868361D01*
X50293834Y-26872908D01*
X50249442Y-26886374D01*
X50208530Y-26908242D01*
X50172671Y-26937671D01*
X50143242Y-26973530D01*
X50121374Y-27014442D01*
X50107908Y-27058834D01*
X50103361Y-27105000D01*
X50103361Y-27185883D01*
X50096758Y-27173530D01*
X50067329Y-27137671D01*
X50031470Y-27108242D01*
X49990558Y-27086374D01*
X49946166Y-27072908D01*
X49900000Y-27068361D01*
X49300000Y-27068361D01*
X49253834Y-27072908D01*
X49209442Y-27086374D01*
X49168530Y-27108242D01*
X49132671Y-27137671D01*
X49103242Y-27173530D01*
X49081374Y-27214442D01*
X49067908Y-27258834D01*
X49063361Y-27305000D01*
X49063361Y-27805000D01*
X49067908Y-27851166D01*
X49081374Y-27895558D01*
X49103242Y-27936470D01*
X49132671Y-27972329D01*
X49168530Y-28001758D01*
X49209442Y-28023626D01*
X49253834Y-28037092D01*
X49300000Y-28041639D01*
X49571534Y-28041639D01*
X49539442Y-28051374D01*
X49498530Y-28073242D01*
X49462671Y-28102671D01*
X49433242Y-28138530D01*
X49411374Y-28179442D01*
X49397908Y-28223834D01*
X49393361Y-28270000D01*
X49393361Y-28770000D01*
X49397908Y-28816166D01*
X49411374Y-28860558D01*
X49433242Y-28901470D01*
X49462671Y-28937329D01*
X49498530Y-28966758D01*
X49539442Y-28988626D01*
X49543972Y-28990000D01*
X49539442Y-28991374D01*
X49498530Y-29013242D01*
X49462671Y-29042671D01*
X49433242Y-29078530D01*
X49411374Y-29119442D01*
X49408381Y-29129308D01*
X49343189Y-29194500D01*
X48899949Y-29194500D01*
X48896758Y-29188530D01*
X48867329Y-29152671D01*
X48831470Y-29123242D01*
X48790558Y-29101374D01*
X48786028Y-29100000D01*
X48790558Y-29098626D01*
X48831470Y-29076758D01*
X48867329Y-29047329D01*
X48896758Y-29011470D01*
X48918626Y-28970558D01*
X48932092Y-28926166D01*
X48936639Y-28880000D01*
X48936639Y-28380000D01*
X48932092Y-28333834D01*
X48918626Y-28289442D01*
X48896758Y-28248530D01*
X48867329Y-28212671D01*
X48831470Y-28183242D01*
X48790558Y-28161374D01*
X48746166Y-28147908D01*
X48735500Y-28146857D01*
X48735500Y-26970160D01*
X48740558Y-26968626D01*
X48781470Y-26946758D01*
X48817329Y-26917329D01*
X48846758Y-26881470D01*
X48868626Y-26840558D01*
X48882092Y-26796166D01*
X48886639Y-26750000D01*
X48886639Y-25850000D01*
X48882092Y-25803834D01*
X48868626Y-25759442D01*
X48846758Y-25718530D01*
X48817329Y-25682671D01*
X48781470Y-25653242D01*
X48740558Y-25631374D01*
X48696166Y-25617908D01*
X48650000Y-25613361D01*
X47850000Y-25613361D01*
X47803834Y-25617908D01*
X47759442Y-25631374D01*
X47718530Y-25653242D01*
X47682671Y-25682671D01*
X47653242Y-25718530D01*
X47631374Y-25759442D01*
X47617908Y-25803834D01*
X47613361Y-25850000D01*
X47613361Y-25964500D01*
X46986639Y-25964500D01*
X46986639Y-25850000D01*
X46982092Y-25803834D01*
X46968626Y-25759442D01*
X46946758Y-25718530D01*
X46917329Y-25682671D01*
X46881470Y-25653242D01*
X46840558Y-25631374D01*
X46796166Y-25617908D01*
X46750000Y-25613361D01*
X46287830Y-25613361D01*
X45816551Y-25142083D01*
X45806042Y-25129278D01*
X45754956Y-25087352D01*
X45696671Y-25056199D01*
X45633429Y-25037015D01*
X45584138Y-25032160D01*
X45567660Y-25030537D01*
X45551182Y-25032160D01*
X44691082Y-25032160D01*
X44470344Y-24811422D01*
X44434485Y-24781993D01*
X44393573Y-24760125D01*
X44349181Y-24746659D01*
X44303015Y-24742112D01*
X44256849Y-24746659D01*
X44252481Y-24747984D01*
X44239875Y-24706427D01*
X44218007Y-24665515D01*
X44188578Y-24629656D01*
X43835024Y-24276102D01*
X43799165Y-24246673D01*
X43758253Y-24224805D01*
X43713861Y-24211339D01*
X43667695Y-24206792D01*
X43621529Y-24211339D01*
X43577137Y-24224805D01*
X43536225Y-24246673D01*
X43500366Y-24276102D01*
X43279628Y-24496840D01*
X43272098Y-24496840D01*
X43255628Y-24495218D01*
X43239158Y-24496840D01*
X43239151Y-24496840D01*
X43196158Y-24501075D01*
X43189859Y-24501695D01*
X43170675Y-24507515D01*
X43126618Y-24520879D01*
X43068333Y-24552032D01*
X43017247Y-24593958D01*
X43006738Y-24606763D01*
X42704277Y-24909224D01*
X42687780Y-24914228D01*
X42646868Y-24936096D01*
X42611009Y-24965525D01*
X41691770Y-25884764D01*
X41662341Y-25920623D01*
X41640473Y-25961535D01*
X41633824Y-25983455D01*
X41619693Y-26000673D01*
X41592388Y-26051758D01*
X41588540Y-26058958D01*
X41569355Y-26122200D01*
X41562877Y-26187969D01*
X41564500Y-26204447D01*
X41564500Y-26583522D01*
X41562877Y-26600000D01*
X41569355Y-26665769D01*
X41571979Y-26674418D01*
X41588539Y-26729010D01*
X41619692Y-26787295D01*
X41661618Y-26838381D01*
X41674419Y-26848887D01*
X41951110Y-27125578D01*
X41961618Y-27138382D01*
X41974422Y-27148890D01*
X42864501Y-28038970D01*
X42864501Y-28165889D01*
X42814627Y-28170801D01*
X42740147Y-28193395D01*
X42732535Y-28195704D01*
X42656878Y-28236143D01*
X42619436Y-28266871D01*
X42590565Y-28290565D01*
X42576927Y-28307183D01*
X40761636Y-30122475D01*
X40367877Y-30122475D01*
X40375276Y-30111401D01*
X40415643Y-30013947D01*
X40436222Y-29910489D01*
X40436222Y-29805005D01*
X40415643Y-29701547D01*
X40375276Y-29604093D01*
X40316672Y-29516386D01*
X40242083Y-29441797D01*
X40154376Y-29383193D01*
X40056922Y-29342826D01*
X39953464Y-29322247D01*
X39847980Y-29322247D01*
X39744522Y-29342826D01*
X39647068Y-29383193D01*
X39559361Y-29441797D01*
X39484772Y-29516386D01*
X39438257Y-29586000D01*
X38130063Y-29586000D01*
X37669420Y-29125358D01*
X37659582Y-29113370D01*
X37643479Y-29100155D01*
X37674552Y-29053652D01*
X37714919Y-28956198D01*
X37735498Y-28852740D01*
X37735498Y-28747256D01*
X37714919Y-28643798D01*
X37674552Y-28546344D01*
X37615948Y-28458637D01*
X37541359Y-28384048D01*
X37453652Y-28325444D01*
X37356198Y-28285077D01*
X37252740Y-28264498D01*
X37214000Y-28264498D01*
X37214000Y-27401666D01*
X37215519Y-27386245D01*
X37209456Y-27324690D01*
X37191502Y-27265500D01*
X37162344Y-27210952D01*
X37160634Y-27208868D01*
X37123106Y-27163139D01*
X37111125Y-27153307D01*
X36390754Y-26432936D01*
X36404426Y-26425628D01*
X36440285Y-26396199D01*
X36617062Y-26219422D01*
X36646491Y-26183563D01*
X36668359Y-26142651D01*
X36679695Y-26105279D01*
X36717067Y-26093943D01*
X36757979Y-26072075D01*
X36793838Y-26042646D01*
X36970615Y-25865869D01*
X37000044Y-25830010D01*
X37021912Y-25789098D01*
X37033249Y-25751726D01*
X37070621Y-25740389D01*
X37111533Y-25718521D01*
X37147392Y-25689092D01*
X37324169Y-25512315D01*
X37353598Y-25476456D01*
X37375466Y-25435544D01*
X37386802Y-25398172D01*
X37424174Y-25386836D01*
X37465086Y-25364968D01*
X37500945Y-25335539D01*
X37677722Y-25158762D01*
X37707151Y-25122903D01*
X37729019Y-25081991D01*
X37740355Y-25044619D01*
X37766570Y-25036667D01*
X37770860Y-25037090D01*
X37786281Y-25035571D01*
X38663008Y-25035571D01*
X38678429Y-25037090D01*
X38693850Y-25035571D01*
X38693851Y-25035571D01*
X38739984Y-25031027D01*
X38799173Y-25013073D01*
X38853722Y-24983915D01*
X38901535Y-24944677D01*
X38911373Y-24932689D01*
X39611124Y-24232939D01*
X39623106Y-24223106D01*
X39655717Y-24183369D01*
X39747227Y-24274879D01*
X39783086Y-24304308D01*
X39823998Y-24326176D01*
X39861370Y-24337512D01*
X39872706Y-24374884D01*
X39894574Y-24415796D01*
X39924003Y-24451655D01*
X40100780Y-24628432D01*
X40136639Y-24657861D01*
X40177551Y-24679729D01*
X40214923Y-24691066D01*
X40226260Y-24728438D01*
X40248128Y-24769350D01*
X40277557Y-24805209D01*
X40454334Y-24981986D01*
X40490193Y-25011415D01*
X40531105Y-25033283D01*
X40568477Y-25044619D01*
X40579813Y-25081991D01*
X40601681Y-25122903D01*
X40631110Y-25158762D01*
X40807887Y-25335539D01*
X40843746Y-25364968D01*
X40884658Y-25386836D01*
X40922030Y-25398172D01*
X40933366Y-25435544D01*
X40955234Y-25476456D01*
X40984663Y-25512315D01*
X41161440Y-25689092D01*
X41197299Y-25718521D01*
X41238211Y-25740389D01*
X41282603Y-25753855D01*
X41328769Y-25758402D01*
X41374935Y-25753855D01*
X41419327Y-25740389D01*
X41460239Y-25718521D01*
X41496098Y-25689092D01*
X42415337Y-24769853D01*
X42444766Y-24733994D01*
X42466634Y-24693082D01*
X42480100Y-24648690D01*
X42484647Y-24602524D01*
X42480100Y-24556358D01*
X42466634Y-24511966D01*
X42444766Y-24471054D01*
X42415337Y-24435195D01*
X42238560Y-24258418D01*
X42202701Y-24228989D01*
X42161789Y-24207121D01*
X42124417Y-24195785D01*
X42113081Y-24158413D01*
X42091213Y-24117501D01*
X42061784Y-24081642D01*
X41885007Y-23904865D01*
X41854326Y-23879685D01*
X41898511Y-23835500D01*
X43346857Y-23835500D01*
X43347908Y-23846166D01*
X43361374Y-23890558D01*
X43383242Y-23931470D01*
X43412671Y-23967329D01*
X43448530Y-23996758D01*
X43489442Y-24018626D01*
X43533834Y-24032092D01*
X43580000Y-24036639D01*
X44080000Y-24036639D01*
X44126166Y-24032092D01*
X44170558Y-24018626D01*
X44211470Y-23996758D01*
X44247329Y-23967329D01*
X44276758Y-23931470D01*
X44298626Y-23890558D01*
X44312092Y-23846166D01*
X44316639Y-23800000D01*
X44316639Y-23600000D01*
X45761909Y-23600000D01*
X45764500Y-23626307D01*
X45764500Y-23652742D01*
X45769657Y-23678668D01*
X45772248Y-23704976D01*
X45779922Y-23730273D01*
X45785079Y-23756200D01*
X45795196Y-23780624D01*
X45802869Y-23805919D01*
X45815329Y-23829231D01*
X45825446Y-23853654D01*
X45840134Y-23875636D01*
X45852594Y-23898947D01*
X45869363Y-23919380D01*
X45884050Y-23941361D01*
X45892689Y-23950000D01*
X45884050Y-23958639D01*
X45869361Y-23980622D01*
X45852594Y-24001053D01*
X45840135Y-24024362D01*
X45825446Y-24046346D01*
X45815327Y-24070776D01*
X45802869Y-24094083D01*
X45795198Y-24119370D01*
X45785079Y-24143800D01*
X45779920Y-24169736D01*
X45772249Y-24195024D01*
X45769658Y-24221325D01*
X45764500Y-24247258D01*
X45764500Y-24273695D01*
X45761909Y-24300000D01*
X45764500Y-24326305D01*
X45764500Y-24352742D01*
X45769658Y-24378675D01*
X45772249Y-24404976D01*
X45779920Y-24430264D01*
X45785079Y-24456200D01*
X45795198Y-24480630D01*
X45802869Y-24505917D01*
X45815327Y-24529224D01*
X45825446Y-24553654D01*
X45840135Y-24575638D01*
X45852594Y-24598947D01*
X45869361Y-24619377D01*
X45884050Y-24641361D01*
X45902748Y-24660059D01*
X45919513Y-24680487D01*
X45939941Y-24697252D01*
X45958639Y-24715950D01*
X45980623Y-24730639D01*
X46001053Y-24747406D01*
X46024362Y-24759865D01*
X46046346Y-24774554D01*
X46070776Y-24784673D01*
X46094083Y-24797131D01*
X46119370Y-24804802D01*
X46143800Y-24814921D01*
X46169736Y-24820080D01*
X46195024Y-24827751D01*
X46221325Y-24830342D01*
X46247258Y-24835500D01*
X46273695Y-24835500D01*
X46300000Y-24838091D01*
X46326305Y-24835500D01*
X46352742Y-24835500D01*
X46378675Y-24830342D01*
X46404976Y-24827751D01*
X46430264Y-24820080D01*
X46456200Y-24814921D01*
X46480630Y-24804802D01*
X46505917Y-24797131D01*
X46529224Y-24784673D01*
X46553654Y-24774554D01*
X46575638Y-24759865D01*
X46598947Y-24747406D01*
X46619378Y-24730639D01*
X46641361Y-24715950D01*
X46693697Y-24663614D01*
X46703242Y-24681470D01*
X46732671Y-24717329D01*
X46768530Y-24746758D01*
X46809442Y-24768626D01*
X46853834Y-24782092D01*
X46900000Y-24786639D01*
X47600000Y-24786639D01*
X47646166Y-24782092D01*
X47690558Y-24768626D01*
X47731470Y-24746758D01*
X47767329Y-24717329D01*
X47796758Y-24681470D01*
X47818626Y-24640558D01*
X47832092Y-24596166D01*
X47836639Y-24550000D01*
X47836639Y-23250000D01*
X47832092Y-23203834D01*
X47818626Y-23159442D01*
X47796758Y-23118530D01*
X47767329Y-23082671D01*
X47731470Y-23053242D01*
X47690558Y-23031374D01*
X47646166Y-23017908D01*
X47600000Y-23013361D01*
X46900000Y-23013361D01*
X46853834Y-23017908D01*
X46809442Y-23031374D01*
X46768530Y-23053242D01*
X46754812Y-23064500D01*
X46247258Y-23064500D01*
X46221332Y-23069657D01*
X46195024Y-23072248D01*
X46169727Y-23079922D01*
X46143800Y-23085079D01*
X46119376Y-23095196D01*
X46094081Y-23102869D01*
X46070769Y-23115329D01*
X46046346Y-23125446D01*
X46024364Y-23140134D01*
X46001053Y-23152594D01*
X45980620Y-23169363D01*
X45958639Y-23184050D01*
X45939949Y-23202740D01*
X45919512Y-23219512D01*
X45902740Y-23239949D01*
X45884050Y-23258639D01*
X45869363Y-23280620D01*
X45852594Y-23301053D01*
X45840134Y-23324364D01*
X45825446Y-23346346D01*
X45815329Y-23370769D01*
X45802869Y-23394081D01*
X45795196Y-23419376D01*
X45785079Y-23443800D01*
X45779922Y-23469727D01*
X45772248Y-23495024D01*
X45769657Y-23521332D01*
X45764500Y-23547258D01*
X45764500Y-23573693D01*
X45761909Y-23600000D01*
X44316639Y-23600000D01*
X44316639Y-23200000D01*
X44312092Y-23153834D01*
X44298626Y-23109442D01*
X44276758Y-23068530D01*
X44247329Y-23032671D01*
X44211470Y-23003242D01*
X44170558Y-22981374D01*
X44126166Y-22967908D01*
X44080000Y-22963361D01*
X43580000Y-22963361D01*
X43533834Y-22967908D01*
X43489442Y-22981374D01*
X43448530Y-23003242D01*
X43412671Y-23032671D01*
X43383242Y-23068530D01*
X43361374Y-23109442D01*
X43347908Y-23153834D01*
X43346857Y-23164500D01*
X41776012Y-23164500D01*
X41759542Y-23162878D01*
X41743072Y-23164500D01*
X41743065Y-23164500D01*
X41704191Y-23168329D01*
X41693773Y-23169355D01*
X41674589Y-23175175D01*
X41630532Y-23188539D01*
X41572247Y-23219692D01*
X41521161Y-23261618D01*
X41510652Y-23274423D01*
X41379858Y-23405217D01*
X41354677Y-23374535D01*
X41177900Y-23197758D01*
X41142041Y-23168329D01*
X41128370Y-23161022D01*
X41475392Y-22814000D01*
X47684579Y-22814000D01*
X47700000Y-22815519D01*
X47715421Y-22814000D01*
X47715422Y-22814000D01*
X47761555Y-22809456D01*
X47820744Y-22791502D01*
X47875293Y-22762344D01*
X47923106Y-22723106D01*
X47932944Y-22711118D01*
X48482937Y-22161126D01*
X48482941Y-22161121D01*
X48583594Y-22060468D01*
X48585823Y-22061957D01*
X48783371Y-22143785D01*
X48993088Y-22185500D01*
X49206912Y-22185500D01*
X49416629Y-22143785D01*
X49614177Y-22061957D01*
X49791966Y-21943163D01*
X49943163Y-21791966D01*
X50061957Y-21614177D01*
X50143785Y-21416629D01*
X50185500Y-21206912D01*
X50185500Y-20993088D01*
X50143785Y-20783371D01*
X50061957Y-20585823D01*
X49943163Y-20408034D01*
X49791966Y-20256837D01*
X49614177Y-20138043D01*
X49426974Y-20060500D01*
X53853026Y-20060500D01*
X53665823Y-20138043D01*
G36*
X45713361Y-25987829D02*
G01*
X45713361Y-26750000D01*
X45717908Y-26796166D01*
X45731374Y-26840558D01*
X45753242Y-26881470D01*
X45782671Y-26917329D01*
X45818530Y-26946758D01*
X45859442Y-26968626D01*
X45903834Y-26982092D01*
X45950000Y-26986639D01*
X46750000Y-26986639D01*
X46796166Y-26982092D01*
X46840558Y-26968626D01*
X46881470Y-26946758D01*
X46917329Y-26917329D01*
X46946758Y-26881470D01*
X46968626Y-26840558D01*
X46982092Y-26796166D01*
X46986639Y-26750000D01*
X46986639Y-26635500D01*
X47613361Y-26635500D01*
X47613361Y-26750000D01*
X47617908Y-26796166D01*
X47631374Y-26840558D01*
X47653242Y-26881470D01*
X47682671Y-26917329D01*
X47718530Y-26946758D01*
X47759442Y-26968626D01*
X47803834Y-26982092D01*
X47850000Y-26986639D01*
X48064501Y-26986639D01*
X48064500Y-28146857D01*
X48053834Y-28147908D01*
X48009442Y-28161374D01*
X47968530Y-28183242D01*
X47932671Y-28212671D01*
X47903242Y-28248530D01*
X47881374Y-28289442D01*
X47867908Y-28333834D01*
X47863361Y-28380000D01*
X47863361Y-28880000D01*
X47867908Y-28926166D01*
X47881374Y-28970558D01*
X47903242Y-29011470D01*
X47932671Y-29047329D01*
X47968530Y-29076758D01*
X48009442Y-29098626D01*
X48013972Y-29100000D01*
X48009442Y-29101374D01*
X47968530Y-29123242D01*
X47932671Y-29152671D01*
X47903242Y-29188530D01*
X47900051Y-29194500D01*
X45851812Y-29194500D01*
X44897264Y-28239954D01*
X44880488Y-28219512D01*
X44798947Y-28152594D01*
X44705919Y-28102869D01*
X44604976Y-28072248D01*
X44526307Y-28064500D01*
X44526305Y-28064500D01*
X44500000Y-28061909D01*
X44473695Y-28064500D01*
X44070438Y-28064500D01*
X44890211Y-27244727D01*
X44919640Y-27208868D01*
X44941508Y-27167956D01*
X44954974Y-27123564D01*
X44959521Y-27077398D01*
X44954974Y-27031232D01*
X44941508Y-26986840D01*
X44919640Y-26945928D01*
X44890211Y-26910069D01*
X44713434Y-26733292D01*
X44677575Y-26703863D01*
X44636663Y-26681995D01*
X44599291Y-26670659D01*
X44587955Y-26633287D01*
X44566087Y-26592375D01*
X44536658Y-26556516D01*
X44359881Y-26379739D01*
X44324022Y-26350310D01*
X44283110Y-26328442D01*
X44245738Y-26317105D01*
X44234401Y-26279733D01*
X44212533Y-26238821D01*
X44183104Y-26202962D01*
X44006327Y-26026185D01*
X43970468Y-25996756D01*
X43929556Y-25974888D01*
X43892184Y-25963552D01*
X43880848Y-25926180D01*
X43876717Y-25918451D01*
X44035891Y-25918451D01*
X44052369Y-25920074D01*
X44060364Y-25919286D01*
X44064976Y-25923898D01*
X44100835Y-25953327D01*
X44141747Y-25975195D01*
X44186139Y-25988661D01*
X44232305Y-25993208D01*
X44278471Y-25988661D01*
X44322863Y-25975195D01*
X44363775Y-25953327D01*
X44399634Y-25923898D01*
X44620372Y-25703160D01*
X45428692Y-25703160D01*
X45713361Y-25987829D01*
G37*
X45713361Y-25987829D02*
X45713361Y-26750000D01*
X45717908Y-26796166D01*
X45731374Y-26840558D01*
X45753242Y-26881470D01*
X45782671Y-26917329D01*
X45818530Y-26946758D01*
X45859442Y-26968626D01*
X45903834Y-26982092D01*
X45950000Y-26986639D01*
X46750000Y-26986639D01*
X46796166Y-26982092D01*
X46840558Y-26968626D01*
X46881470Y-26946758D01*
X46917329Y-26917329D01*
X46946758Y-26881470D01*
X46968626Y-26840558D01*
X46982092Y-26796166D01*
X46986639Y-26750000D01*
X46986639Y-26635500D01*
X47613361Y-26635500D01*
X47613361Y-26750000D01*
X47617908Y-26796166D01*
X47631374Y-26840558D01*
X47653242Y-26881470D01*
X47682671Y-26917329D01*
X47718530Y-26946758D01*
X47759442Y-26968626D01*
X47803834Y-26982092D01*
X47850000Y-26986639D01*
X48064501Y-26986639D01*
X48064500Y-28146857D01*
X48053834Y-28147908D01*
X48009442Y-28161374D01*
X47968530Y-28183242D01*
X47932671Y-28212671D01*
X47903242Y-28248530D01*
X47881374Y-28289442D01*
X47867908Y-28333834D01*
X47863361Y-28380000D01*
X47863361Y-28880000D01*
X47867908Y-28926166D01*
X47881374Y-28970558D01*
X47903242Y-29011470D01*
X47932671Y-29047329D01*
X47968530Y-29076758D01*
X48009442Y-29098626D01*
X48013972Y-29100000D01*
X48009442Y-29101374D01*
X47968530Y-29123242D01*
X47932671Y-29152671D01*
X47903242Y-29188530D01*
X47900051Y-29194500D01*
X45851812Y-29194500D01*
X44897264Y-28239954D01*
X44880488Y-28219512D01*
X44798947Y-28152594D01*
X44705919Y-28102869D01*
X44604976Y-28072248D01*
X44526307Y-28064500D01*
X44526305Y-28064500D01*
X44500000Y-28061909D01*
X44473695Y-28064500D01*
X44070438Y-28064500D01*
X44890211Y-27244727D01*
X44919640Y-27208868D01*
X44941508Y-27167956D01*
X44954974Y-27123564D01*
X44959521Y-27077398D01*
X44954974Y-27031232D01*
X44941508Y-26986840D01*
X44919640Y-26945928D01*
X44890211Y-26910069D01*
X44713434Y-26733292D01*
X44677575Y-26703863D01*
X44636663Y-26681995D01*
X44599291Y-26670659D01*
X44587955Y-26633287D01*
X44566087Y-26592375D01*
X44536658Y-26556516D01*
X44359881Y-26379739D01*
X44324022Y-26350310D01*
X44283110Y-26328442D01*
X44245738Y-26317105D01*
X44234401Y-26279733D01*
X44212533Y-26238821D01*
X44183104Y-26202962D01*
X44006327Y-26026185D01*
X43970468Y-25996756D01*
X43929556Y-25974888D01*
X43892184Y-25963552D01*
X43880848Y-25926180D01*
X43876717Y-25918451D01*
X44035891Y-25918451D01*
X44052369Y-25920074D01*
X44060364Y-25919286D01*
X44064976Y-25923898D01*
X44100835Y-25953327D01*
X44141747Y-25975195D01*
X44186139Y-25988661D01*
X44232305Y-25993208D01*
X44278471Y-25988661D01*
X44322863Y-25975195D01*
X44363775Y-25953327D01*
X44399634Y-25923898D01*
X44620372Y-25703160D01*
X45428692Y-25703160D01*
X45713361Y-25987829D01*
G36*
X32117059Y-28311123D02*
G01*
X32126893Y-28323106D01*
X32174706Y-28362344D01*
X32229255Y-28391502D01*
X32282271Y-28407583D01*
X32279256Y-28408498D01*
X32224707Y-28437656D01*
X32176894Y-28476894D01*
X32167060Y-28488877D01*
X31563438Y-29092500D01*
X31562092Y-29078834D01*
X31548626Y-29034442D01*
X31526758Y-28993530D01*
X31497329Y-28957671D01*
X31461470Y-28928242D01*
X31420558Y-28906374D01*
X31376166Y-28892908D01*
X31330000Y-28888361D01*
X30270000Y-28888361D01*
X30223834Y-28892908D01*
X30179442Y-28906374D01*
X30138530Y-28928242D01*
X30135500Y-28930729D01*
X30135500Y-28847258D01*
X30114921Y-28743800D01*
X30074554Y-28646346D01*
X30015950Y-28558639D01*
X29941361Y-28484050D01*
X29937767Y-28481648D01*
X29993843Y-28425572D01*
X30052447Y-28337865D01*
X30092814Y-28240411D01*
X30113393Y-28136953D01*
X30113393Y-28051128D01*
X30138530Y-28071758D01*
X30179442Y-28093626D01*
X30223834Y-28107092D01*
X30270000Y-28111639D01*
X31330000Y-28111639D01*
X31376166Y-28107092D01*
X31420558Y-28093626D01*
X31461470Y-28071758D01*
X31497329Y-28042329D01*
X31526758Y-28006470D01*
X31548626Y-27965558D01*
X31562092Y-27921166D01*
X31566639Y-27875000D01*
X31566639Y-27864000D01*
X31669937Y-27864000D01*
X32117059Y-28311123D01*
G37*
X32117059Y-28311123D02*
X32126893Y-28323106D01*
X32174706Y-28362344D01*
X32229255Y-28391502D01*
X32282271Y-28407583D01*
X32279256Y-28408498D01*
X32224707Y-28437656D01*
X32176894Y-28476894D01*
X32167060Y-28488877D01*
X31563438Y-29092500D01*
X31562092Y-29078834D01*
X31548626Y-29034442D01*
X31526758Y-28993530D01*
X31497329Y-28957671D01*
X31461470Y-28928242D01*
X31420558Y-28906374D01*
X31376166Y-28892908D01*
X31330000Y-28888361D01*
X30270000Y-28888361D01*
X30223834Y-28892908D01*
X30179442Y-28906374D01*
X30138530Y-28928242D01*
X30135500Y-28930729D01*
X30135500Y-28847258D01*
X30114921Y-28743800D01*
X30074554Y-28646346D01*
X30015950Y-28558639D01*
X29941361Y-28484050D01*
X29937767Y-28481648D01*
X29993843Y-28425572D01*
X30052447Y-28337865D01*
X30092814Y-28240411D01*
X30113393Y-28136953D01*
X30113393Y-28051128D01*
X30138530Y-28071758D01*
X30179442Y-28093626D01*
X30223834Y-28107092D01*
X30270000Y-28111639D01*
X31330000Y-28111639D01*
X31376166Y-28107092D01*
X31420558Y-28093626D01*
X31461470Y-28071758D01*
X31497329Y-28042329D01*
X31526758Y-28006470D01*
X31548626Y-27965558D01*
X31562092Y-27921166D01*
X31566639Y-27875000D01*
X31566639Y-27864000D01*
X31669937Y-27864000D01*
X32117059Y-28311123D01*
G36*
X32457978Y-25302041D02*
G01*
X32457980Y-27025137D01*
X32456460Y-27040568D01*
X32462523Y-27102122D01*
X32480478Y-27161312D01*
X32509635Y-27215860D01*
X32517136Y-27225000D01*
X32548874Y-27263674D01*
X32560856Y-27273507D01*
X32867678Y-27580329D01*
X32843798Y-27585079D01*
X32746344Y-27625446D01*
X32658637Y-27684050D01*
X32584048Y-27758639D01*
X32565766Y-27786000D01*
X32480062Y-27786000D01*
X32032943Y-27338882D01*
X32023105Y-27326894D01*
X31975292Y-27287656D01*
X31920743Y-27258498D01*
X31861554Y-27240544D01*
X31815421Y-27236000D01*
X31815420Y-27236000D01*
X31799999Y-27234481D01*
X31784578Y-27236000D01*
X31566639Y-27236000D01*
X31566639Y-27225000D01*
X31562092Y-27178834D01*
X31548626Y-27134442D01*
X31526758Y-27093530D01*
X31497329Y-27057671D01*
X31461470Y-27028242D01*
X31420558Y-27006374D01*
X31376166Y-26992908D01*
X31330000Y-26988361D01*
X30477423Y-26988361D01*
X30177944Y-26688882D01*
X30168106Y-26676894D01*
X30120293Y-26637656D01*
X30065744Y-26608498D01*
X30006555Y-26590544D01*
X29960422Y-26586000D01*
X29960421Y-26586000D01*
X29945000Y-26584481D01*
X29929579Y-26586000D01*
X28914000Y-26586000D01*
X28914000Y-26536639D01*
X28980000Y-26536639D01*
X29026166Y-26532092D01*
X29070558Y-26518626D01*
X29111470Y-26496758D01*
X29147329Y-26467329D01*
X29176758Y-26431470D01*
X29198626Y-26390558D01*
X29212092Y-26346166D01*
X29216639Y-26300000D01*
X29216639Y-25700000D01*
X29212092Y-25653834D01*
X29198626Y-25609442D01*
X29176758Y-25568530D01*
X29147329Y-25532671D01*
X29111470Y-25503242D01*
X29070558Y-25481374D01*
X29026166Y-25467908D01*
X28980000Y-25463361D01*
X28480000Y-25463361D01*
X28433834Y-25467908D01*
X28389442Y-25481374D01*
X28348530Y-25503242D01*
X28335500Y-25513936D01*
X28335500Y-25400000D01*
X28334007Y-25384839D01*
X28348530Y-25396758D01*
X28389442Y-25418626D01*
X28433834Y-25432092D01*
X28480000Y-25436639D01*
X28980000Y-25436639D01*
X29026166Y-25432092D01*
X29070558Y-25418626D01*
X29111470Y-25396758D01*
X29147329Y-25367329D01*
X29176758Y-25331470D01*
X29198626Y-25290558D01*
X29212092Y-25246166D01*
X29216639Y-25200000D01*
X29216639Y-24872829D01*
X29513077Y-24576391D01*
X29525882Y-24565882D01*
X29567808Y-24514796D01*
X29598961Y-24456511D01*
X29616103Y-24400000D01*
X29618145Y-24393270D01*
X29619317Y-24381374D01*
X29623000Y-24343978D01*
X29623000Y-24343971D01*
X29624622Y-24327501D01*
X29623000Y-24311031D01*
X29623000Y-24294423D01*
X29680520Y-24276975D01*
X29759251Y-24234892D01*
X29828259Y-24178259D01*
X29884892Y-24109251D01*
X29926975Y-24030520D01*
X29952889Y-23945092D01*
X29961639Y-23856250D01*
X29961639Y-23343750D01*
X29952889Y-23254908D01*
X29926975Y-23169480D01*
X29884892Y-23090749D01*
X29828259Y-23021741D01*
X29774984Y-22978020D01*
X30133958Y-22978020D01*
X32457978Y-25302041D01*
G37*
X32457978Y-25302041D02*
X32457980Y-27025137D01*
X32456460Y-27040568D01*
X32462523Y-27102122D01*
X32480478Y-27161312D01*
X32509635Y-27215860D01*
X32517136Y-27225000D01*
X32548874Y-27263674D01*
X32560856Y-27273507D01*
X32867678Y-27580329D01*
X32843798Y-27585079D01*
X32746344Y-27625446D01*
X32658637Y-27684050D01*
X32584048Y-27758639D01*
X32565766Y-27786000D01*
X32480062Y-27786000D01*
X32032943Y-27338882D01*
X32023105Y-27326894D01*
X31975292Y-27287656D01*
X31920743Y-27258498D01*
X31861554Y-27240544D01*
X31815421Y-27236000D01*
X31815420Y-27236000D01*
X31799999Y-27234481D01*
X31784578Y-27236000D01*
X31566639Y-27236000D01*
X31566639Y-27225000D01*
X31562092Y-27178834D01*
X31548626Y-27134442D01*
X31526758Y-27093530D01*
X31497329Y-27057671D01*
X31461470Y-27028242D01*
X31420558Y-27006374D01*
X31376166Y-26992908D01*
X31330000Y-26988361D01*
X30477423Y-26988361D01*
X30177944Y-26688882D01*
X30168106Y-26676894D01*
X30120293Y-26637656D01*
X30065744Y-26608498D01*
X30006555Y-26590544D01*
X29960422Y-26586000D01*
X29960421Y-26586000D01*
X29945000Y-26584481D01*
X29929579Y-26586000D01*
X28914000Y-26586000D01*
X28914000Y-26536639D01*
X28980000Y-26536639D01*
X29026166Y-26532092D01*
X29070558Y-26518626D01*
X29111470Y-26496758D01*
X29147329Y-26467329D01*
X29176758Y-26431470D01*
X29198626Y-26390558D01*
X29212092Y-26346166D01*
X29216639Y-26300000D01*
X29216639Y-25700000D01*
X29212092Y-25653834D01*
X29198626Y-25609442D01*
X29176758Y-25568530D01*
X29147329Y-25532671D01*
X29111470Y-25503242D01*
X29070558Y-25481374D01*
X29026166Y-25467908D01*
X28980000Y-25463361D01*
X28480000Y-25463361D01*
X28433834Y-25467908D01*
X28389442Y-25481374D01*
X28348530Y-25503242D01*
X28335500Y-25513936D01*
X28335500Y-25400000D01*
X28334007Y-25384839D01*
X28348530Y-25396758D01*
X28389442Y-25418626D01*
X28433834Y-25432092D01*
X28480000Y-25436639D01*
X28980000Y-25436639D01*
X29026166Y-25432092D01*
X29070558Y-25418626D01*
X29111470Y-25396758D01*
X29147329Y-25367329D01*
X29176758Y-25331470D01*
X29198626Y-25290558D01*
X29212092Y-25246166D01*
X29216639Y-25200000D01*
X29216639Y-24872829D01*
X29513077Y-24576391D01*
X29525882Y-24565882D01*
X29567808Y-24514796D01*
X29598961Y-24456511D01*
X29616103Y-24400000D01*
X29618145Y-24393270D01*
X29619317Y-24381374D01*
X29623000Y-24343978D01*
X29623000Y-24343971D01*
X29624622Y-24327501D01*
X29623000Y-24311031D01*
X29623000Y-24294423D01*
X29680520Y-24276975D01*
X29759251Y-24234892D01*
X29828259Y-24178259D01*
X29884892Y-24109251D01*
X29926975Y-24030520D01*
X29952889Y-23945092D01*
X29961639Y-23856250D01*
X29961639Y-23343750D01*
X29952889Y-23254908D01*
X29926975Y-23169480D01*
X29884892Y-23090749D01*
X29828259Y-23021741D01*
X29774984Y-22978020D01*
X30133958Y-22978020D01*
X32457978Y-25302041D01*
G36*
X35059142Y-25282342D02*
G01*
X35045470Y-25289650D01*
X35009611Y-25319079D01*
X34832834Y-25495856D01*
X34803405Y-25531715D01*
X34781537Y-25572627D01*
X34770201Y-25609999D01*
X34732829Y-25621335D01*
X34691917Y-25643203D01*
X34656058Y-25672632D01*
X34479281Y-25849409D01*
X34449852Y-25885268D01*
X34427984Y-25926180D01*
X34416648Y-25963552D01*
X34379276Y-25974888D01*
X34338364Y-25996756D01*
X34302505Y-26026185D01*
X34125728Y-26202962D01*
X34096299Y-26238821D01*
X34074431Y-26279733D01*
X34063094Y-26317105D01*
X34025722Y-26328442D01*
X33984810Y-26350310D01*
X33948951Y-26379739D01*
X33772174Y-26556516D01*
X33742745Y-26592375D01*
X33735437Y-26606046D01*
X33714000Y-26584609D01*
X33714000Y-24614017D01*
X33715519Y-24598596D01*
X33709456Y-24537041D01*
X33691502Y-24477851D01*
X33662344Y-24423303D01*
X33623106Y-24375490D01*
X33611123Y-24365656D01*
X32433641Y-23188175D01*
X32433637Y-23188170D01*
X32429782Y-23184315D01*
X32436202Y-23152040D01*
X32436202Y-23046556D01*
X32415623Y-22943098D01*
X32375256Y-22845644D01*
X32316652Y-22757937D01*
X32272715Y-22714000D01*
X32490801Y-22714000D01*
X35059142Y-25282342D01*
G37*
X35059142Y-25282342D02*
X35045470Y-25289650D01*
X35009611Y-25319079D01*
X34832834Y-25495856D01*
X34803405Y-25531715D01*
X34781537Y-25572627D01*
X34770201Y-25609999D01*
X34732829Y-25621335D01*
X34691917Y-25643203D01*
X34656058Y-25672632D01*
X34479281Y-25849409D01*
X34449852Y-25885268D01*
X34427984Y-25926180D01*
X34416648Y-25963552D01*
X34379276Y-25974888D01*
X34338364Y-25996756D01*
X34302505Y-26026185D01*
X34125728Y-26202962D01*
X34096299Y-26238821D01*
X34074431Y-26279733D01*
X34063094Y-26317105D01*
X34025722Y-26328442D01*
X33984810Y-26350310D01*
X33948951Y-26379739D01*
X33772174Y-26556516D01*
X33742745Y-26592375D01*
X33735437Y-26606046D01*
X33714000Y-26584609D01*
X33714000Y-24614017D01*
X33715519Y-24598596D01*
X33709456Y-24537041D01*
X33691502Y-24477851D01*
X33662344Y-24423303D01*
X33623106Y-24375490D01*
X33611123Y-24365656D01*
X32433641Y-23188175D01*
X32433637Y-23188170D01*
X32429782Y-23184315D01*
X32436202Y-23152040D01*
X32436202Y-23046556D01*
X32415623Y-22943098D01*
X32375256Y-22845644D01*
X32316652Y-22757937D01*
X32272715Y-22714000D01*
X32490801Y-22714000D01*
X35059142Y-25282342D01*
G36*
X59793200Y-23763361D02*
G01*
X58350000Y-23763361D01*
X58303834Y-23767908D01*
X58259442Y-23781374D01*
X58218530Y-23803242D01*
X58182671Y-23832671D01*
X58153242Y-23868530D01*
X58131374Y-23909442D01*
X58117908Y-23953834D01*
X58113361Y-24000000D01*
X58113361Y-25165247D01*
X57430239Y-25848370D01*
X57430975Y-25845944D01*
X57435500Y-25800000D01*
X57435500Y-23130000D01*
X57430975Y-23084056D01*
X57417573Y-23039877D01*
X57371236Y-22928011D01*
X58957851Y-22928011D01*
X59793200Y-23763361D01*
G37*
X59793200Y-23763361D02*
X58350000Y-23763361D01*
X58303834Y-23767908D01*
X58259442Y-23781374D01*
X58218530Y-23803242D01*
X58182671Y-23832671D01*
X58153242Y-23868530D01*
X58131374Y-23909442D01*
X58117908Y-23953834D01*
X58113361Y-24000000D01*
X58113361Y-25165247D01*
X57430239Y-25848370D01*
X57430975Y-25845944D01*
X57435500Y-25800000D01*
X57435500Y-23130000D01*
X57430975Y-23084056D01*
X57417573Y-23039877D01*
X57371236Y-22928011D01*
X58957851Y-22928011D01*
X59793200Y-23763361D01*
D32*
G36*
X57044219Y-23085781D02*
G01*
X57073000Y-23155263D01*
X57073000Y-25622225D01*
X56999446Y-25599913D01*
X56895000Y-25589626D01*
X54745000Y-25589626D01*
X54640554Y-25599913D01*
X54540121Y-25630379D01*
X54447562Y-25679853D01*
X54366433Y-25746433D01*
X54299853Y-25827562D01*
X54275566Y-25873000D01*
X53634259Y-25873000D01*
X53600000Y-25869626D01*
X52556999Y-25869626D01*
X52556999Y-25207317D01*
X52737317Y-25027000D01*
X53700000Y-25027000D01*
X53724776Y-25024560D01*
X53748601Y-25017333D01*
X53890022Y-24958754D01*
X53911979Y-24947017D01*
X53931224Y-24931223D01*
X53947018Y-24911978D01*
X53958754Y-24890022D01*
X54017333Y-24748601D01*
X54024560Y-24724777D01*
X54027000Y-24700000D01*
X54027000Y-24308106D01*
X54066244Y-24213362D01*
X54231224Y-24048382D01*
X54247018Y-24029136D01*
X54258754Y-24007180D01*
X54317333Y-23865758D01*
X54324560Y-23841934D01*
X54327000Y-23817157D01*
X54327000Y-23418106D01*
X54366244Y-23323362D01*
X54593362Y-23096244D01*
X54688106Y-23057000D01*
X56974737Y-23057000D01*
X57044219Y-23085781D01*
G37*
X57044219Y-23085781D02*
X57073000Y-23155263D01*
X57073000Y-25622225D01*
X56999446Y-25599913D01*
X56895000Y-25589626D01*
X54745000Y-25589626D01*
X54640554Y-25599913D01*
X54540121Y-25630379D01*
X54447562Y-25679853D01*
X54366433Y-25746433D01*
X54299853Y-25827562D01*
X54275566Y-25873000D01*
X53634259Y-25873000D01*
X53600000Y-25869626D01*
X52556999Y-25869626D01*
X52556999Y-25207317D01*
X52737317Y-25027000D01*
X53700000Y-25027000D01*
X53724776Y-25024560D01*
X53748601Y-25017333D01*
X53890022Y-24958754D01*
X53911979Y-24947017D01*
X53931224Y-24931223D01*
X53947018Y-24911978D01*
X53958754Y-24890022D01*
X54017333Y-24748601D01*
X54024560Y-24724777D01*
X54027000Y-24700000D01*
X54027000Y-24308106D01*
X54066244Y-24213362D01*
X54231224Y-24048382D01*
X54247018Y-24029136D01*
X54258754Y-24007180D01*
X54317333Y-23865758D01*
X54324560Y-23841934D01*
X54327000Y-23817157D01*
X54327000Y-23418106D01*
X54366244Y-23323362D01*
X54593362Y-23096244D01*
X54688106Y-23057000D01*
X56974737Y-23057000D01*
X57044219Y-23085781D01*
M02*
