G04 #@! TF.GenerationSoftware,KiCad,Pcbnew,5.1.5+dfsg1-2build2*
G04 #@! TF.CreationDate,2020-09-15T00:57:58+02:00*
G04 #@! TF.ProjectId,OtterPillG,4f747465-7250-4696-9c6c-472e6b696361,rev?*
G04 #@! TF.SameCoordinates,Original*
G04 #@! TF.FileFunction,Paste,Top*
G04 #@! TF.FilePolarity,Positive*
%FSLAX46Y46*%
G04 Gerber Fmt 4.6, Leading zero omitted, Abs format (unit mm)*
G04 Created by KiCad (PCBNEW 5.1.5+dfsg1-2build2) date 2020-09-15 00:57:58*
%MOMM*%
%LPD*%
G04 APERTURE LIST*
%ADD10C,0.050000*%
%ADD11R,0.600000X0.500000*%
%ADD12R,0.500000X0.600000*%
%ADD13R,0.700000X1.300000*%
%ADD14R,0.800000X0.900000*%
%ADD15C,0.100000*%
%ADD16R,1.300000X0.700000*%
%ADD17R,0.900000X0.600000*%
%ADD18R,1.050000X0.650000*%
%ADD19R,1.060000X0.650000*%
%ADD20R,1.450000X0.600000*%
%ADD21R,1.450000X0.300000*%
G04 APERTURE END LIST*
D10*
X63200000Y-37100000D02*
G75*
G02X62900000Y-37400000I-300000J0D01*
G01*
X62900000Y-19800000D02*
G75*
G02X63200000Y-20100000I0J-300000D01*
G01*
X20000000Y-20100000D02*
G75*
G02X20300000Y-19800000I300000J0D01*
G01*
X20300000Y-37400000D02*
G75*
G02X20000000Y-37100000I0J300000D01*
G01*
X20000000Y-37100000D02*
X20000000Y-20100000D01*
X62900000Y-37400000D02*
X20300000Y-37400000D01*
X63200000Y-20100000D02*
X63200000Y-37100000D01*
X20300000Y-19800000D02*
X62900000Y-19800000D01*
D11*
X49830000Y-32620000D03*
X49830000Y-33560000D03*
D12*
X53270000Y-28750000D03*
X52330000Y-28750000D03*
D11*
X48400000Y-28630000D03*
X48400000Y-29570000D03*
D13*
X49150000Y-23900000D03*
X47250000Y-23900000D03*
D11*
X49600000Y-26615000D03*
X49600000Y-27555000D03*
X49930000Y-28520000D03*
X49930000Y-29460000D03*
X48800000Y-32625000D03*
X48800000Y-33565000D03*
D12*
X29470000Y-32200000D03*
X28530000Y-32200000D03*
X29670000Y-24900000D03*
X28730000Y-24900000D03*
X28730000Y-26000000D03*
X29670000Y-26000000D03*
X28530000Y-31000000D03*
X29470000Y-31000000D03*
D14*
X47300000Y-28300000D03*
X46350000Y-26300000D03*
X48250000Y-26300000D03*
D15*
G36*
X43626866Y-29340140D02*
G01*
X43803643Y-29163363D01*
X44722882Y-30082602D01*
X44546105Y-30259379D01*
X43626866Y-29340140D01*
G37*
G36*
X43273313Y-29693693D02*
G01*
X43450090Y-29516916D01*
X44369329Y-30436155D01*
X44192552Y-30612932D01*
X43273313Y-29693693D01*
G37*
G36*
X42919759Y-30047247D02*
G01*
X43096536Y-29870470D01*
X44015775Y-30789709D01*
X43838998Y-30966486D01*
X42919759Y-30047247D01*
G37*
G36*
X42566206Y-30400800D02*
G01*
X42742983Y-30224023D01*
X43662222Y-31143262D01*
X43485445Y-31320039D01*
X42566206Y-30400800D01*
G37*
G36*
X42212653Y-30754353D02*
G01*
X42389430Y-30577576D01*
X43308669Y-31496815D01*
X43131892Y-31673592D01*
X42212653Y-30754353D01*
G37*
G36*
X41859099Y-31107907D02*
G01*
X42035876Y-30931130D01*
X42955115Y-31850369D01*
X42778338Y-32027146D01*
X41859099Y-31107907D01*
G37*
G36*
X41505546Y-31461460D02*
G01*
X41682323Y-31284683D01*
X42601562Y-32203922D01*
X42424785Y-32380699D01*
X41505546Y-31461460D01*
G37*
G36*
X41151992Y-31815014D02*
G01*
X41328769Y-31638237D01*
X42248008Y-32557476D01*
X42071231Y-32734253D01*
X41151992Y-31815014D01*
G37*
G36*
X40798439Y-32168567D02*
G01*
X40975216Y-31991790D01*
X41894455Y-32911029D01*
X41717678Y-33087806D01*
X40798439Y-32168567D01*
G37*
G36*
X40444886Y-32522120D02*
G01*
X40621663Y-32345343D01*
X41540902Y-33264582D01*
X41364125Y-33441359D01*
X40444886Y-32522120D01*
G37*
G36*
X40091332Y-32875674D02*
G01*
X40268109Y-32698897D01*
X41187348Y-33618136D01*
X41010571Y-33794913D01*
X40091332Y-32875674D01*
G37*
G36*
X39737779Y-33229227D02*
G01*
X39914556Y-33052450D01*
X40833795Y-33971689D01*
X40657018Y-34148466D01*
X39737779Y-33229227D01*
G37*
G36*
X38394276Y-33052450D02*
G01*
X38571053Y-33229227D01*
X37651814Y-34148466D01*
X37475037Y-33971689D01*
X38394276Y-33052450D01*
G37*
G36*
X38040723Y-32698897D02*
G01*
X38217500Y-32875674D01*
X37298261Y-33794913D01*
X37121484Y-33618136D01*
X38040723Y-32698897D01*
G37*
G36*
X37687169Y-32345343D02*
G01*
X37863946Y-32522120D01*
X36944707Y-33441359D01*
X36767930Y-33264582D01*
X37687169Y-32345343D01*
G37*
G36*
X37333616Y-31991790D02*
G01*
X37510393Y-32168567D01*
X36591154Y-33087806D01*
X36414377Y-32911029D01*
X37333616Y-31991790D01*
G37*
G36*
X36980063Y-31638237D02*
G01*
X37156840Y-31815014D01*
X36237601Y-32734253D01*
X36060824Y-32557476D01*
X36980063Y-31638237D01*
G37*
G36*
X36626509Y-31284683D02*
G01*
X36803286Y-31461460D01*
X35884047Y-32380699D01*
X35707270Y-32203922D01*
X36626509Y-31284683D01*
G37*
G36*
X36272956Y-30931130D02*
G01*
X36449733Y-31107907D01*
X35530494Y-32027146D01*
X35353717Y-31850369D01*
X36272956Y-30931130D01*
G37*
G36*
X35919402Y-30577576D02*
G01*
X36096179Y-30754353D01*
X35176940Y-31673592D01*
X35000163Y-31496815D01*
X35919402Y-30577576D01*
G37*
G36*
X35565849Y-30224023D02*
G01*
X35742626Y-30400800D01*
X34823387Y-31320039D01*
X34646610Y-31143262D01*
X35565849Y-30224023D01*
G37*
G36*
X35212296Y-29870470D02*
G01*
X35389073Y-30047247D01*
X34469834Y-30966486D01*
X34293057Y-30789709D01*
X35212296Y-29870470D01*
G37*
G36*
X34858742Y-29516916D02*
G01*
X35035519Y-29693693D01*
X34116280Y-30612932D01*
X33939503Y-30436155D01*
X34858742Y-29516916D01*
G37*
G36*
X34505189Y-29163363D02*
G01*
X34681966Y-29340140D01*
X33762727Y-30259379D01*
X33585950Y-30082602D01*
X34505189Y-29163363D01*
G37*
G36*
X33585950Y-27077398D02*
G01*
X33762727Y-26900621D01*
X34681966Y-27819860D01*
X34505189Y-27996637D01*
X33585950Y-27077398D01*
G37*
G36*
X33939503Y-26723845D02*
G01*
X34116280Y-26547068D01*
X35035519Y-27466307D01*
X34858742Y-27643084D01*
X33939503Y-26723845D01*
G37*
G36*
X34293057Y-26370291D02*
G01*
X34469834Y-26193514D01*
X35389073Y-27112753D01*
X35212296Y-27289530D01*
X34293057Y-26370291D01*
G37*
G36*
X34646610Y-26016738D02*
G01*
X34823387Y-25839961D01*
X35742626Y-26759200D01*
X35565849Y-26935977D01*
X34646610Y-26016738D01*
G37*
G36*
X35000163Y-25663185D02*
G01*
X35176940Y-25486408D01*
X36096179Y-26405647D01*
X35919402Y-26582424D01*
X35000163Y-25663185D01*
G37*
G36*
X35353717Y-25309631D02*
G01*
X35530494Y-25132854D01*
X36449733Y-26052093D01*
X36272956Y-26228870D01*
X35353717Y-25309631D01*
G37*
G36*
X35707270Y-24956078D02*
G01*
X35884047Y-24779301D01*
X36803286Y-25698540D01*
X36626509Y-25875317D01*
X35707270Y-24956078D01*
G37*
G36*
X36060824Y-24602524D02*
G01*
X36237601Y-24425747D01*
X37156840Y-25344986D01*
X36980063Y-25521763D01*
X36060824Y-24602524D01*
G37*
G36*
X36414377Y-24248971D02*
G01*
X36591154Y-24072194D01*
X37510393Y-24991433D01*
X37333616Y-25168210D01*
X36414377Y-24248971D01*
G37*
G36*
X36767930Y-23895418D02*
G01*
X36944707Y-23718641D01*
X37863946Y-24637880D01*
X37687169Y-24814657D01*
X36767930Y-23895418D01*
G37*
G36*
X37121484Y-23541864D02*
G01*
X37298261Y-23365087D01*
X38217500Y-24284326D01*
X38040723Y-24461103D01*
X37121484Y-23541864D01*
G37*
G36*
X37475037Y-23188311D02*
G01*
X37651814Y-23011534D01*
X38571053Y-23930773D01*
X38394276Y-24107550D01*
X37475037Y-23188311D01*
G37*
G36*
X40657018Y-23011534D02*
G01*
X40833795Y-23188311D01*
X39914556Y-24107550D01*
X39737779Y-23930773D01*
X40657018Y-23011534D01*
G37*
G36*
X41010571Y-23365087D02*
G01*
X41187348Y-23541864D01*
X40268109Y-24461103D01*
X40091332Y-24284326D01*
X41010571Y-23365087D01*
G37*
G36*
X41364125Y-23718641D02*
G01*
X41540902Y-23895418D01*
X40621663Y-24814657D01*
X40444886Y-24637880D01*
X41364125Y-23718641D01*
G37*
G36*
X41717678Y-24072194D02*
G01*
X41894455Y-24248971D01*
X40975216Y-25168210D01*
X40798439Y-24991433D01*
X41717678Y-24072194D01*
G37*
G36*
X42071231Y-24425747D02*
G01*
X42248008Y-24602524D01*
X41328769Y-25521763D01*
X41151992Y-25344986D01*
X42071231Y-24425747D01*
G37*
G36*
X42424785Y-24779301D02*
G01*
X42601562Y-24956078D01*
X41682323Y-25875317D01*
X41505546Y-25698540D01*
X42424785Y-24779301D01*
G37*
G36*
X42778338Y-25132854D02*
G01*
X42955115Y-25309631D01*
X42035876Y-26228870D01*
X41859099Y-26052093D01*
X42778338Y-25132854D01*
G37*
G36*
X43131892Y-25486408D02*
G01*
X43308669Y-25663185D01*
X42389430Y-26582424D01*
X42212653Y-26405647D01*
X43131892Y-25486408D01*
G37*
G36*
X43485445Y-25839961D02*
G01*
X43662222Y-26016738D01*
X42742983Y-26935977D01*
X42566206Y-26759200D01*
X43485445Y-25839961D01*
G37*
G36*
X43838998Y-26193514D02*
G01*
X44015775Y-26370291D01*
X43096536Y-27289530D01*
X42919759Y-27112753D01*
X43838998Y-26193514D01*
G37*
G36*
X44192552Y-26547068D02*
G01*
X44369329Y-26723845D01*
X43450090Y-27643084D01*
X43273313Y-27466307D01*
X44192552Y-26547068D01*
G37*
G36*
X44546105Y-26900621D02*
G01*
X44722882Y-27077398D01*
X43803643Y-27996637D01*
X43626866Y-27819860D01*
X44546105Y-26900621D01*
G37*
G36*
X44543431Y-26067695D02*
G01*
X44967695Y-25643431D01*
X45321249Y-25996985D01*
X44896985Y-26421249D01*
X44543431Y-26067695D01*
G37*
G36*
X43878751Y-25403015D02*
G01*
X44303015Y-24978751D01*
X44656569Y-25332305D01*
X44232305Y-25756569D01*
X43878751Y-25403015D01*
G37*
D12*
X44770000Y-23500000D03*
X43830000Y-23500000D03*
D16*
X54690000Y-29900000D03*
X54690000Y-28000000D03*
D15*
G36*
X43356569Y-24132305D02*
G01*
X42932305Y-24556569D01*
X42578751Y-24203015D01*
X43003015Y-23778751D01*
X43356569Y-24132305D01*
G37*
G36*
X44021249Y-24796985D02*
G01*
X43596985Y-25221249D01*
X43243431Y-24867695D01*
X43667695Y-24443431D01*
X44021249Y-24796985D01*
G37*
D11*
X49800000Y-31470000D03*
X49800000Y-30530000D03*
D16*
X56400000Y-29910000D03*
X56400000Y-28010000D03*
D11*
X53720000Y-24340000D03*
X53720000Y-23400000D03*
D17*
X51180000Y-30090000D03*
X51180000Y-28590000D03*
D13*
X50630000Y-23890000D03*
X52530000Y-23890000D03*
D15*
G36*
X56919504Y-23076204D02*
G01*
X56943773Y-23079804D01*
X56967571Y-23085765D01*
X56990671Y-23094030D01*
X57012849Y-23104520D01*
X57033893Y-23117133D01*
X57053598Y-23131747D01*
X57071777Y-23148223D01*
X57088253Y-23166402D01*
X57102867Y-23186107D01*
X57115480Y-23207151D01*
X57125970Y-23229329D01*
X57134235Y-23252429D01*
X57140196Y-23276227D01*
X57143796Y-23300496D01*
X57145000Y-23325000D01*
X57145000Y-24075000D01*
X57143796Y-24099504D01*
X57140196Y-24123773D01*
X57134235Y-24147571D01*
X57125970Y-24170671D01*
X57115480Y-24192849D01*
X57102867Y-24213893D01*
X57088253Y-24233598D01*
X57071777Y-24251777D01*
X57053598Y-24268253D01*
X57033893Y-24282867D01*
X57012849Y-24295480D01*
X56990671Y-24305970D01*
X56967571Y-24314235D01*
X56943773Y-24320196D01*
X56919504Y-24323796D01*
X56895000Y-24325000D01*
X54745000Y-24325000D01*
X54720496Y-24323796D01*
X54696227Y-24320196D01*
X54672429Y-24314235D01*
X54649329Y-24305970D01*
X54627151Y-24295480D01*
X54606107Y-24282867D01*
X54586402Y-24268253D01*
X54568223Y-24251777D01*
X54551747Y-24233598D01*
X54537133Y-24213893D01*
X54524520Y-24192849D01*
X54514030Y-24170671D01*
X54505765Y-24147571D01*
X54499804Y-24123773D01*
X54496204Y-24099504D01*
X54495000Y-24075000D01*
X54495000Y-23325000D01*
X54496204Y-23300496D01*
X54499804Y-23276227D01*
X54505765Y-23252429D01*
X54514030Y-23229329D01*
X54524520Y-23207151D01*
X54537133Y-23186107D01*
X54551747Y-23166402D01*
X54568223Y-23148223D01*
X54586402Y-23131747D01*
X54606107Y-23117133D01*
X54627151Y-23104520D01*
X54649329Y-23094030D01*
X54672429Y-23085765D01*
X54696227Y-23079804D01*
X54720496Y-23076204D01*
X54745000Y-23075000D01*
X56895000Y-23075000D01*
X56919504Y-23076204D01*
G37*
G36*
X56919504Y-25876204D02*
G01*
X56943773Y-25879804D01*
X56967571Y-25885765D01*
X56990671Y-25894030D01*
X57012849Y-25904520D01*
X57033893Y-25917133D01*
X57053598Y-25931747D01*
X57071777Y-25948223D01*
X57088253Y-25966402D01*
X57102867Y-25986107D01*
X57115480Y-26007151D01*
X57125970Y-26029329D01*
X57134235Y-26052429D01*
X57140196Y-26076227D01*
X57143796Y-26100496D01*
X57145000Y-26125000D01*
X57145000Y-26875000D01*
X57143796Y-26899504D01*
X57140196Y-26923773D01*
X57134235Y-26947571D01*
X57125970Y-26970671D01*
X57115480Y-26992849D01*
X57102867Y-27013893D01*
X57088253Y-27033598D01*
X57071777Y-27051777D01*
X57053598Y-27068253D01*
X57033893Y-27082867D01*
X57012849Y-27095480D01*
X56990671Y-27105970D01*
X56967571Y-27114235D01*
X56943773Y-27120196D01*
X56919504Y-27123796D01*
X56895000Y-27125000D01*
X54745000Y-27125000D01*
X54720496Y-27123796D01*
X54696227Y-27120196D01*
X54672429Y-27114235D01*
X54649329Y-27105970D01*
X54627151Y-27095480D01*
X54606107Y-27082867D01*
X54586402Y-27068253D01*
X54568223Y-27051777D01*
X54551747Y-27033598D01*
X54537133Y-27013893D01*
X54524520Y-26992849D01*
X54514030Y-26970671D01*
X54505765Y-26947571D01*
X54499804Y-26923773D01*
X54496204Y-26899504D01*
X54495000Y-26875000D01*
X54495000Y-26125000D01*
X54496204Y-26100496D01*
X54499804Y-26076227D01*
X54505765Y-26052429D01*
X54514030Y-26029329D01*
X54524520Y-26007151D01*
X54537133Y-25986107D01*
X54551747Y-25966402D01*
X54568223Y-25948223D01*
X54586402Y-25931747D01*
X54606107Y-25917133D01*
X54627151Y-25904520D01*
X54649329Y-25894030D01*
X54672429Y-25885765D01*
X54696227Y-25879804D01*
X54720496Y-25876204D01*
X54745000Y-25875000D01*
X56895000Y-25875000D01*
X56919504Y-25876204D01*
G37*
D18*
X52625000Y-31437000D03*
X56775000Y-31437000D03*
X52625000Y-33587000D03*
X56775000Y-33587000D03*
D19*
X53070000Y-26480000D03*
X53070000Y-25530000D03*
X53070000Y-27430000D03*
X50870000Y-27430000D03*
X50870000Y-26480000D03*
X50870000Y-25530000D03*
X28600000Y-28500000D03*
X28600000Y-29450000D03*
X28600000Y-27550000D03*
X30800000Y-27550000D03*
X30800000Y-28500000D03*
X30800000Y-29450000D03*
D20*
X26369999Y-31770000D03*
X26369999Y-30970000D03*
D21*
X26369999Y-30320000D03*
X26369999Y-29820000D03*
X26369999Y-29320000D03*
X26369999Y-28820000D03*
X26369999Y-28320000D03*
X26369999Y-27820000D03*
X26369999Y-27320000D03*
X26369999Y-26820000D03*
D20*
X26369999Y-26170000D03*
X26369999Y-25370000D03*
D15*
G36*
X27952691Y-33126053D02*
G01*
X27973926Y-33129203D01*
X27994750Y-33134419D01*
X28014962Y-33141651D01*
X28034368Y-33150830D01*
X28052781Y-33161866D01*
X28070024Y-33174654D01*
X28085930Y-33189070D01*
X28100346Y-33204976D01*
X28113134Y-33222219D01*
X28124170Y-33240632D01*
X28133349Y-33260038D01*
X28140581Y-33280250D01*
X28145797Y-33301074D01*
X28148947Y-33322309D01*
X28150000Y-33343750D01*
X28150000Y-33856250D01*
X28148947Y-33877691D01*
X28145797Y-33898926D01*
X28140581Y-33919750D01*
X28133349Y-33939962D01*
X28124170Y-33959368D01*
X28113134Y-33977781D01*
X28100346Y-33995024D01*
X28085930Y-34010930D01*
X28070024Y-34025346D01*
X28052781Y-34038134D01*
X28034368Y-34049170D01*
X28014962Y-34058349D01*
X27994750Y-34065581D01*
X27973926Y-34070797D01*
X27952691Y-34073947D01*
X27931250Y-34075000D01*
X27493750Y-34075000D01*
X27472309Y-34073947D01*
X27451074Y-34070797D01*
X27430250Y-34065581D01*
X27410038Y-34058349D01*
X27390632Y-34049170D01*
X27372219Y-34038134D01*
X27354976Y-34025346D01*
X27339070Y-34010930D01*
X27324654Y-33995024D01*
X27311866Y-33977781D01*
X27300830Y-33959368D01*
X27291651Y-33939962D01*
X27284419Y-33919750D01*
X27279203Y-33898926D01*
X27276053Y-33877691D01*
X27275000Y-33856250D01*
X27275000Y-33343750D01*
X27276053Y-33322309D01*
X27279203Y-33301074D01*
X27284419Y-33280250D01*
X27291651Y-33260038D01*
X27300830Y-33240632D01*
X27311866Y-33222219D01*
X27324654Y-33204976D01*
X27339070Y-33189070D01*
X27354976Y-33174654D01*
X27372219Y-33161866D01*
X27390632Y-33150830D01*
X27410038Y-33141651D01*
X27430250Y-33134419D01*
X27451074Y-33129203D01*
X27472309Y-33126053D01*
X27493750Y-33125000D01*
X27931250Y-33125000D01*
X27952691Y-33126053D01*
G37*
G36*
X29527691Y-33126053D02*
G01*
X29548926Y-33129203D01*
X29569750Y-33134419D01*
X29589962Y-33141651D01*
X29609368Y-33150830D01*
X29627781Y-33161866D01*
X29645024Y-33174654D01*
X29660930Y-33189070D01*
X29675346Y-33204976D01*
X29688134Y-33222219D01*
X29699170Y-33240632D01*
X29708349Y-33260038D01*
X29715581Y-33280250D01*
X29720797Y-33301074D01*
X29723947Y-33322309D01*
X29725000Y-33343750D01*
X29725000Y-33856250D01*
X29723947Y-33877691D01*
X29720797Y-33898926D01*
X29715581Y-33919750D01*
X29708349Y-33939962D01*
X29699170Y-33959368D01*
X29688134Y-33977781D01*
X29675346Y-33995024D01*
X29660930Y-34010930D01*
X29645024Y-34025346D01*
X29627781Y-34038134D01*
X29609368Y-34049170D01*
X29589962Y-34058349D01*
X29569750Y-34065581D01*
X29548926Y-34070797D01*
X29527691Y-34073947D01*
X29506250Y-34075000D01*
X29068750Y-34075000D01*
X29047309Y-34073947D01*
X29026074Y-34070797D01*
X29005250Y-34065581D01*
X28985038Y-34058349D01*
X28965632Y-34049170D01*
X28947219Y-34038134D01*
X28929976Y-34025346D01*
X28914070Y-34010930D01*
X28899654Y-33995024D01*
X28886866Y-33977781D01*
X28875830Y-33959368D01*
X28866651Y-33939962D01*
X28859419Y-33919750D01*
X28854203Y-33898926D01*
X28851053Y-33877691D01*
X28850000Y-33856250D01*
X28850000Y-33343750D01*
X28851053Y-33322309D01*
X28854203Y-33301074D01*
X28859419Y-33280250D01*
X28866651Y-33260038D01*
X28875830Y-33240632D01*
X28886866Y-33222219D01*
X28899654Y-33204976D01*
X28914070Y-33189070D01*
X28929976Y-33174654D01*
X28947219Y-33161866D01*
X28965632Y-33150830D01*
X28985038Y-33141651D01*
X29005250Y-33134419D01*
X29026074Y-33129203D01*
X29047309Y-33126053D01*
X29068750Y-33125000D01*
X29506250Y-33125000D01*
X29527691Y-33126053D01*
G37*
G36*
X27952691Y-23126053D02*
G01*
X27973926Y-23129203D01*
X27994750Y-23134419D01*
X28014962Y-23141651D01*
X28034368Y-23150830D01*
X28052781Y-23161866D01*
X28070024Y-23174654D01*
X28085930Y-23189070D01*
X28100346Y-23204976D01*
X28113134Y-23222219D01*
X28124170Y-23240632D01*
X28133349Y-23260038D01*
X28140581Y-23280250D01*
X28145797Y-23301074D01*
X28148947Y-23322309D01*
X28150000Y-23343750D01*
X28150000Y-23856250D01*
X28148947Y-23877691D01*
X28145797Y-23898926D01*
X28140581Y-23919750D01*
X28133349Y-23939962D01*
X28124170Y-23959368D01*
X28113134Y-23977781D01*
X28100346Y-23995024D01*
X28085930Y-24010930D01*
X28070024Y-24025346D01*
X28052781Y-24038134D01*
X28034368Y-24049170D01*
X28014962Y-24058349D01*
X27994750Y-24065581D01*
X27973926Y-24070797D01*
X27952691Y-24073947D01*
X27931250Y-24075000D01*
X27493750Y-24075000D01*
X27472309Y-24073947D01*
X27451074Y-24070797D01*
X27430250Y-24065581D01*
X27410038Y-24058349D01*
X27390632Y-24049170D01*
X27372219Y-24038134D01*
X27354976Y-24025346D01*
X27339070Y-24010930D01*
X27324654Y-23995024D01*
X27311866Y-23977781D01*
X27300830Y-23959368D01*
X27291651Y-23939962D01*
X27284419Y-23919750D01*
X27279203Y-23898926D01*
X27276053Y-23877691D01*
X27275000Y-23856250D01*
X27275000Y-23343750D01*
X27276053Y-23322309D01*
X27279203Y-23301074D01*
X27284419Y-23280250D01*
X27291651Y-23260038D01*
X27300830Y-23240632D01*
X27311866Y-23222219D01*
X27324654Y-23204976D01*
X27339070Y-23189070D01*
X27354976Y-23174654D01*
X27372219Y-23161866D01*
X27390632Y-23150830D01*
X27410038Y-23141651D01*
X27430250Y-23134419D01*
X27451074Y-23129203D01*
X27472309Y-23126053D01*
X27493750Y-23125000D01*
X27931250Y-23125000D01*
X27952691Y-23126053D01*
G37*
G36*
X29527691Y-23126053D02*
G01*
X29548926Y-23129203D01*
X29569750Y-23134419D01*
X29589962Y-23141651D01*
X29609368Y-23150830D01*
X29627781Y-23161866D01*
X29645024Y-23174654D01*
X29660930Y-23189070D01*
X29675346Y-23204976D01*
X29688134Y-23222219D01*
X29699170Y-23240632D01*
X29708349Y-23260038D01*
X29715581Y-23280250D01*
X29720797Y-23301074D01*
X29723947Y-23322309D01*
X29725000Y-23343750D01*
X29725000Y-23856250D01*
X29723947Y-23877691D01*
X29720797Y-23898926D01*
X29715581Y-23919750D01*
X29708349Y-23939962D01*
X29699170Y-23959368D01*
X29688134Y-23977781D01*
X29675346Y-23995024D01*
X29660930Y-24010930D01*
X29645024Y-24025346D01*
X29627781Y-24038134D01*
X29609368Y-24049170D01*
X29589962Y-24058349D01*
X29569750Y-24065581D01*
X29548926Y-24070797D01*
X29527691Y-24073947D01*
X29506250Y-24075000D01*
X29068750Y-24075000D01*
X29047309Y-24073947D01*
X29026074Y-24070797D01*
X29005250Y-24065581D01*
X28985038Y-24058349D01*
X28965632Y-24049170D01*
X28947219Y-24038134D01*
X28929976Y-24025346D01*
X28914070Y-24010930D01*
X28899654Y-23995024D01*
X28886866Y-23977781D01*
X28875830Y-23959368D01*
X28866651Y-23939962D01*
X28859419Y-23919750D01*
X28854203Y-23898926D01*
X28851053Y-23877691D01*
X28850000Y-23856250D01*
X28850000Y-23343750D01*
X28851053Y-23322309D01*
X28854203Y-23301074D01*
X28859419Y-23280250D01*
X28866651Y-23260038D01*
X28875830Y-23240632D01*
X28886866Y-23222219D01*
X28899654Y-23204976D01*
X28914070Y-23189070D01*
X28929976Y-23174654D01*
X28947219Y-23161866D01*
X28965632Y-23150830D01*
X28985038Y-23141651D01*
X29005250Y-23134419D01*
X29026074Y-23129203D01*
X29047309Y-23126053D01*
X29068750Y-23125000D01*
X29506250Y-23125000D01*
X29527691Y-23126053D01*
G37*
M02*
