G04 #@! TF.GenerationSoftware,KiCad,Pcbnew,5.0.1*
G04 #@! TF.CreationDate,2019-10-23T21:32:48+02:00*
G04 #@! TF.ProjectId,OtterPill,4F7474657250696C6C2E6B696361645F,rev?*
G04 #@! TF.SameCoordinates,Original*
G04 #@! TF.FileFunction,Legend,Bot*
G04 #@! TF.FilePolarity,Positive*
%FSLAX46Y46*%
G04 Gerber Fmt 4.6, Leading zero omitted, Abs format (unit mm)*
G04 Created by KiCad (PCBNEW 5.0.1) date Wed 23 Oct 2019 09:32:48 PM CEST*
%MOMM*%
%LPD*%
G01*
G04 APERTURE LIST*
%ADD10C,0.100000*%
%ADD11C,0.300000*%
%ADD12C,0.050000*%
%ADD13C,0.010000*%
G04 APERTURE END LIST*
D10*
X45250000Y-28983333D02*
X45250000Y-28483333D01*
X45216666Y-28383333D01*
X45150000Y-28316666D01*
X45050000Y-28283333D01*
X44983333Y-28283333D01*
X45883333Y-28283333D02*
X45883333Y-28650000D01*
X45850000Y-28716666D01*
X45783333Y-28750000D01*
X45650000Y-28750000D01*
X45583333Y-28716666D01*
X45883333Y-28316666D02*
X45816666Y-28283333D01*
X45650000Y-28283333D01*
X45583333Y-28316666D01*
X45550000Y-28383333D01*
X45550000Y-28450000D01*
X45583333Y-28516666D01*
X45650000Y-28550000D01*
X45816666Y-28550000D01*
X45883333Y-28583333D01*
X46216666Y-28750000D02*
X46216666Y-28283333D01*
X46216666Y-28683333D02*
X46250000Y-28716666D01*
X46316666Y-28750000D01*
X46416666Y-28750000D01*
X46483333Y-28716666D01*
X46516666Y-28650000D01*
X46516666Y-28283333D01*
X47383333Y-28283333D02*
X47383333Y-28983333D01*
X47383333Y-28650000D02*
X47783333Y-28650000D01*
X47783333Y-28283333D02*
X47783333Y-28983333D01*
X48383333Y-28316666D02*
X48316666Y-28283333D01*
X48183333Y-28283333D01*
X48116666Y-28316666D01*
X48083333Y-28383333D01*
X48083333Y-28650000D01*
X48116666Y-28716666D01*
X48183333Y-28750000D01*
X48316666Y-28750000D01*
X48383333Y-28716666D01*
X48416666Y-28650000D01*
X48416666Y-28583333D01*
X48083333Y-28516666D01*
X48716666Y-28750000D02*
X48716666Y-28283333D01*
X48716666Y-28683333D02*
X48749999Y-28716666D01*
X48816666Y-28750000D01*
X48916666Y-28750000D01*
X48983333Y-28716666D01*
X49016666Y-28650000D01*
X49016666Y-28283333D01*
X49349999Y-28283333D02*
X49349999Y-28750000D01*
X49349999Y-28616666D02*
X49383333Y-28683333D01*
X49416666Y-28716666D01*
X49483333Y-28750000D01*
X49549999Y-28750000D01*
X49783333Y-28283333D02*
X49783333Y-28750000D01*
X49783333Y-28983333D02*
X49749999Y-28950000D01*
X49783333Y-28916666D01*
X49816666Y-28950000D01*
X49783333Y-28983333D01*
X49783333Y-28916666D01*
X50116666Y-28283333D02*
X50116666Y-28983333D01*
X50183333Y-28550000D02*
X50383333Y-28283333D01*
X50383333Y-28750000D02*
X50116666Y-28483333D01*
X51183333Y-28916666D02*
X51216666Y-28950000D01*
X51283333Y-28983333D01*
X51449999Y-28983333D01*
X51516666Y-28950000D01*
X51549999Y-28916666D01*
X51583333Y-28850000D01*
X51583333Y-28783333D01*
X51549999Y-28683333D01*
X51149999Y-28283333D01*
X51583333Y-28283333D01*
X52016666Y-28983333D02*
X52083333Y-28983333D01*
X52149999Y-28950000D01*
X52183333Y-28916666D01*
X52216666Y-28850000D01*
X52249999Y-28716666D01*
X52249999Y-28550000D01*
X52216666Y-28416666D01*
X52183333Y-28350000D01*
X52149999Y-28316666D01*
X52083333Y-28283333D01*
X52016666Y-28283333D01*
X51949999Y-28316666D01*
X51916666Y-28350000D01*
X51883333Y-28416666D01*
X51849999Y-28550000D01*
X51849999Y-28716666D01*
X51883333Y-28850000D01*
X51916666Y-28916666D01*
X51949999Y-28950000D01*
X52016666Y-28983333D01*
X52916666Y-28283333D02*
X52516666Y-28283333D01*
X52716666Y-28283333D02*
X52716666Y-28983333D01*
X52649999Y-28883333D01*
X52583333Y-28816666D01*
X52516666Y-28783333D01*
X53249999Y-28283333D02*
X53383333Y-28283333D01*
X53449999Y-28316666D01*
X53483333Y-28350000D01*
X53549999Y-28450000D01*
X53583333Y-28583333D01*
X53583333Y-28850000D01*
X53549999Y-28916666D01*
X53516666Y-28950000D01*
X53449999Y-28983333D01*
X53316666Y-28983333D01*
X53249999Y-28950000D01*
X53216666Y-28916666D01*
X53183333Y-28850000D01*
X53183333Y-28683333D01*
X53216666Y-28616666D01*
X53249999Y-28583333D01*
X53316666Y-28550000D01*
X53449999Y-28550000D01*
X53516666Y-28583333D01*
X53549999Y-28616666D01*
X53583333Y-28683333D01*
D11*
X44061904Y-32295238D02*
X44442857Y-32295238D01*
X44633333Y-32200000D01*
X44823809Y-32009523D01*
X44919047Y-31628571D01*
X44919047Y-30961904D01*
X44823809Y-30580952D01*
X44633333Y-30390476D01*
X44442857Y-30295238D01*
X44061904Y-30295238D01*
X43871428Y-30390476D01*
X43680952Y-30580952D01*
X43585714Y-30961904D01*
X43585714Y-31628571D01*
X43680952Y-32009523D01*
X43871428Y-32200000D01*
X44061904Y-32295238D01*
X45490476Y-31628571D02*
X46252380Y-31628571D01*
X45776190Y-32295238D02*
X45776190Y-30580952D01*
X45871428Y-30390476D01*
X46061904Y-30295238D01*
X46252380Y-30295238D01*
X46633333Y-31628571D02*
X47395238Y-31628571D01*
X46919047Y-32295238D02*
X46919047Y-30580952D01*
X47014285Y-30390476D01*
X47204761Y-30295238D01*
X47395238Y-30295238D01*
X48823809Y-30390476D02*
X48633333Y-30295238D01*
X48252380Y-30295238D01*
X48061904Y-30390476D01*
X47966666Y-30580952D01*
X47966666Y-31342857D01*
X48061904Y-31533333D01*
X48252380Y-31628571D01*
X48633333Y-31628571D01*
X48823809Y-31533333D01*
X48919047Y-31342857D01*
X48919047Y-31152380D01*
X47966666Y-30961904D01*
X49776190Y-30295238D02*
X49776190Y-31628571D01*
X49776190Y-31247619D02*
X49871428Y-31438095D01*
X49966666Y-31533333D01*
X50157142Y-31628571D01*
X50347619Y-31628571D01*
X51014285Y-31628571D02*
X51014285Y-29628571D01*
X51014285Y-31533333D02*
X51204761Y-31628571D01*
X51585714Y-31628571D01*
X51776190Y-31533333D01*
X51871428Y-31438095D01*
X51966666Y-31247619D01*
X51966666Y-30676190D01*
X51871428Y-30485714D01*
X51776190Y-30390476D01*
X51585714Y-30295238D01*
X51204761Y-30295238D01*
X51014285Y-30390476D01*
X52823809Y-30295238D02*
X52823809Y-31628571D01*
X52823809Y-32295238D02*
X52728571Y-32200000D01*
X52823809Y-32104761D01*
X52919047Y-32200000D01*
X52823809Y-32295238D01*
X52823809Y-32104761D01*
X54061904Y-30295238D02*
X53871428Y-30390476D01*
X53776190Y-30580952D01*
X53776190Y-32295238D01*
X55109523Y-30295238D02*
X54919047Y-30390476D01*
X54823809Y-30580952D01*
X54823809Y-32295238D01*
D10*
X60816666Y-23983333D02*
X60816666Y-24416666D01*
X61083333Y-24183333D01*
X61083333Y-24283333D01*
X61116666Y-24350000D01*
X61150000Y-24383333D01*
X61216666Y-24416666D01*
X61383333Y-24416666D01*
X61450000Y-24383333D01*
X61483333Y-24350000D01*
X61516666Y-24283333D01*
X61516666Y-24083333D01*
X61483333Y-24016666D01*
X61450000Y-23983333D01*
X60816666Y-24616666D02*
X61516666Y-24850000D01*
X60816666Y-25083333D01*
X60816666Y-25250000D02*
X60816666Y-25683333D01*
X61083333Y-25450000D01*
X61083333Y-25550000D01*
X61116666Y-25616666D01*
X61150000Y-25650000D01*
X61216666Y-25683333D01*
X61383333Y-25683333D01*
X61450000Y-25650000D01*
X61483333Y-25616666D01*
X61516666Y-25550000D01*
X61516666Y-25350000D01*
X61483333Y-25283333D01*
X61450000Y-25250000D01*
X61516666Y-26683333D02*
X60816666Y-26683333D01*
X60816666Y-26850000D01*
X60850000Y-26950000D01*
X60916666Y-27016666D01*
X60983333Y-27050000D01*
X61116666Y-27083333D01*
X61216666Y-27083333D01*
X61350000Y-27050000D01*
X61416666Y-27016666D01*
X61483333Y-26950000D01*
X61516666Y-26850000D01*
X61516666Y-26683333D01*
X61516666Y-27383333D02*
X60816666Y-27383333D01*
X60816666Y-27850000D02*
X60816666Y-27983333D01*
X60850000Y-28050000D01*
X60916666Y-28116666D01*
X61050000Y-28150000D01*
X61283333Y-28150000D01*
X61416666Y-28116666D01*
X61483333Y-28050000D01*
X61516666Y-27983333D01*
X61516666Y-27850000D01*
X61483333Y-27783333D01*
X61416666Y-27716666D01*
X61283333Y-27683333D01*
X61050000Y-27683333D01*
X60916666Y-27716666D01*
X60850000Y-27783333D01*
X60816666Y-27850000D01*
X61450000Y-29483333D02*
X61483333Y-29450000D01*
X61516666Y-29350000D01*
X61516666Y-29283333D01*
X61483333Y-29183333D01*
X61416666Y-29116666D01*
X61350000Y-29083333D01*
X61216666Y-29050000D01*
X61116666Y-29050000D01*
X60983333Y-29083333D01*
X60916666Y-29116666D01*
X60850000Y-29183333D01*
X60816666Y-29283333D01*
X60816666Y-29350000D01*
X60850000Y-29450000D01*
X60883333Y-29483333D01*
X61516666Y-30116666D02*
X61516666Y-29783333D01*
X60816666Y-29783333D01*
X61516666Y-30350000D02*
X60816666Y-30350000D01*
X61516666Y-30750000D02*
X61116666Y-30450000D01*
X60816666Y-30750000D02*
X61216666Y-30350000D01*
X60875000Y-31966666D02*
X60841666Y-31900000D01*
X60841666Y-31800000D01*
X60875000Y-31700000D01*
X60941666Y-31633333D01*
X61008333Y-31600000D01*
X61141666Y-31566666D01*
X61241666Y-31566666D01*
X61375000Y-31600000D01*
X61441666Y-31633333D01*
X61508333Y-31700000D01*
X61541666Y-31800000D01*
X61541666Y-31866666D01*
X61508333Y-31966666D01*
X61475000Y-32000000D01*
X61241666Y-32000000D01*
X61241666Y-31866666D01*
X61541666Y-32300000D02*
X60841666Y-32300000D01*
X61541666Y-32700000D01*
X60841666Y-32700000D01*
X61541666Y-33033333D02*
X60841666Y-33033333D01*
X60841666Y-33200000D01*
X60875000Y-33300000D01*
X60941666Y-33366666D01*
X61008333Y-33400000D01*
X61141666Y-33433333D01*
X61241666Y-33433333D01*
X61375000Y-33400000D01*
X61441666Y-33366666D01*
X61508333Y-33300000D01*
X61541666Y-33200000D01*
X61541666Y-33033333D01*
X51191666Y-22850000D02*
X51125000Y-22883333D01*
X51025000Y-22883333D01*
X50925000Y-22850000D01*
X50858333Y-22783333D01*
X50825000Y-22716666D01*
X50791666Y-22583333D01*
X50791666Y-22483333D01*
X50825000Y-22350000D01*
X50858333Y-22283333D01*
X50925000Y-22216666D01*
X51025000Y-22183333D01*
X51091666Y-22183333D01*
X51191666Y-22216666D01*
X51225000Y-22250000D01*
X51225000Y-22483333D01*
X51091666Y-22483333D01*
X51525000Y-22183333D02*
X51525000Y-22883333D01*
X51925000Y-22183333D01*
X51925000Y-22883333D01*
X52258333Y-22183333D02*
X52258333Y-22883333D01*
X52425000Y-22883333D01*
X52525000Y-22850000D01*
X52591666Y-22783333D01*
X52625000Y-22716666D01*
X52658333Y-22583333D01*
X52658333Y-22483333D01*
X52625000Y-22350000D01*
X52591666Y-22283333D01*
X52525000Y-22216666D01*
X52425000Y-22183333D01*
X52258333Y-22183333D01*
X28008333Y-22183333D02*
X28008333Y-22883333D01*
X28275000Y-22883333D01*
X28341666Y-22850000D01*
X28375000Y-22816666D01*
X28408333Y-22750000D01*
X28408333Y-22650000D01*
X28375000Y-22583333D01*
X28341666Y-22550000D01*
X28275000Y-22516666D01*
X28008333Y-22516666D01*
X28941666Y-22550000D02*
X29041666Y-22516666D01*
X29075000Y-22483333D01*
X29108333Y-22416666D01*
X29108333Y-22316666D01*
X29075000Y-22250000D01*
X29041666Y-22216666D01*
X28975000Y-22183333D01*
X28708333Y-22183333D01*
X28708333Y-22883333D01*
X28941666Y-22883333D01*
X29008333Y-22850000D01*
X29041666Y-22816666D01*
X29075000Y-22750000D01*
X29075000Y-22683333D01*
X29041666Y-22616666D01*
X29008333Y-22583333D01*
X28941666Y-22550000D01*
X28708333Y-22550000D01*
X29541666Y-22883333D02*
X29608333Y-22883333D01*
X29675000Y-22850000D01*
X29708333Y-22816666D01*
X29741666Y-22750000D01*
X29775000Y-22616666D01*
X29775000Y-22450000D01*
X29741666Y-22316666D01*
X29708333Y-22250000D01*
X29675000Y-22216666D01*
X29608333Y-22183333D01*
X29541666Y-22183333D01*
X29475000Y-22216666D01*
X29441666Y-22250000D01*
X29408333Y-22316666D01*
X29375000Y-22450000D01*
X29375000Y-22616666D01*
X29408333Y-22750000D01*
X29441666Y-22816666D01*
X29475000Y-22850000D01*
X29541666Y-22883333D01*
X53408333Y-22183333D02*
X53408333Y-22883333D01*
X53675000Y-22883333D01*
X53741666Y-22850000D01*
X53775000Y-22816666D01*
X53808333Y-22750000D01*
X53808333Y-22650000D01*
X53775000Y-22583333D01*
X53741666Y-22550000D01*
X53675000Y-22516666D01*
X53408333Y-22516666D01*
X54341666Y-22550000D02*
X54441666Y-22516666D01*
X54475000Y-22483333D01*
X54508333Y-22416666D01*
X54508333Y-22316666D01*
X54475000Y-22250000D01*
X54441666Y-22216666D01*
X54375000Y-22183333D01*
X54108333Y-22183333D01*
X54108333Y-22883333D01*
X54341666Y-22883333D01*
X54408333Y-22850000D01*
X54441666Y-22816666D01*
X54475000Y-22750000D01*
X54475000Y-22683333D01*
X54441666Y-22616666D01*
X54408333Y-22583333D01*
X54341666Y-22550000D01*
X54108333Y-22550000D01*
X54841666Y-22183333D02*
X54975000Y-22183333D01*
X55041666Y-22216666D01*
X55075000Y-22250000D01*
X55141666Y-22350000D01*
X55175000Y-22483333D01*
X55175000Y-22750000D01*
X55141666Y-22816666D01*
X55108333Y-22850000D01*
X55041666Y-22883333D01*
X54908333Y-22883333D01*
X54841666Y-22850000D01*
X54808333Y-22816666D01*
X54775000Y-22750000D01*
X54775000Y-22583333D01*
X54808333Y-22516666D01*
X54841666Y-22483333D01*
X54908333Y-22450000D01*
X55041666Y-22450000D01*
X55108333Y-22483333D01*
X55141666Y-22516666D01*
X55175000Y-22583333D01*
X30200000Y-22233333D02*
X30200000Y-22933333D01*
X30466666Y-22933333D01*
X30533333Y-22900000D01*
X30566666Y-22866666D01*
X30600000Y-22800000D01*
X30600000Y-22700000D01*
X30566666Y-22633333D01*
X30533333Y-22600000D01*
X30466666Y-22566666D01*
X30200000Y-22566666D01*
X31133333Y-22600000D02*
X31233333Y-22566666D01*
X31266666Y-22533333D01*
X31300000Y-22466666D01*
X31300000Y-22366666D01*
X31266666Y-22300000D01*
X31233333Y-22266666D01*
X31166666Y-22233333D01*
X30900000Y-22233333D01*
X30900000Y-22933333D01*
X31133333Y-22933333D01*
X31200000Y-22900000D01*
X31233333Y-22866666D01*
X31266666Y-22800000D01*
X31266666Y-22733333D01*
X31233333Y-22666666D01*
X31200000Y-22633333D01*
X31133333Y-22600000D01*
X30900000Y-22600000D01*
X31966666Y-22233333D02*
X31566666Y-22233333D01*
X31766666Y-22233333D02*
X31766666Y-22933333D01*
X31700000Y-22833333D01*
X31633333Y-22766666D01*
X31566666Y-22733333D01*
X32233333Y-22866666D02*
X32266666Y-22900000D01*
X32333333Y-22933333D01*
X32500000Y-22933333D01*
X32566666Y-22900000D01*
X32600000Y-22866666D01*
X32633333Y-22800000D01*
X32633333Y-22733333D01*
X32600000Y-22633333D01*
X32200000Y-22233333D01*
X32633333Y-22233333D01*
X35658333Y-22133333D02*
X35658333Y-22833333D01*
X35925000Y-22833333D01*
X35991666Y-22800000D01*
X36025000Y-22766666D01*
X36058333Y-22700000D01*
X36058333Y-22600000D01*
X36025000Y-22533333D01*
X35991666Y-22500000D01*
X35925000Y-22466666D01*
X35658333Y-22466666D01*
X36325000Y-22333333D02*
X36658333Y-22333333D01*
X36258333Y-22133333D02*
X36491666Y-22833333D01*
X36725000Y-22133333D01*
X37258333Y-22833333D02*
X37125000Y-22833333D01*
X37058333Y-22800000D01*
X37025000Y-22766666D01*
X36958333Y-22666666D01*
X36925000Y-22533333D01*
X36925000Y-22266666D01*
X36958333Y-22200000D01*
X36991666Y-22166666D01*
X37058333Y-22133333D01*
X37191666Y-22133333D01*
X37258333Y-22166666D01*
X37291666Y-22200000D01*
X37325000Y-22266666D01*
X37325000Y-22433333D01*
X37291666Y-22500000D01*
X37258333Y-22533333D01*
X37191666Y-22566666D01*
X37058333Y-22566666D01*
X36991666Y-22533333D01*
X36958333Y-22500000D01*
X36925000Y-22433333D01*
X55675000Y-22183333D02*
X55675000Y-22883333D01*
X55941666Y-22883333D01*
X56008333Y-22850000D01*
X56041666Y-22816666D01*
X56075000Y-22750000D01*
X56075000Y-22650000D01*
X56041666Y-22583333D01*
X56008333Y-22550000D01*
X55941666Y-22516666D01*
X55675000Y-22516666D01*
X56341666Y-22383333D02*
X56675000Y-22383333D01*
X56275000Y-22183333D02*
X56508333Y-22883333D01*
X56741666Y-22183333D01*
X57341666Y-22183333D02*
X56941666Y-22183333D01*
X57141666Y-22183333D02*
X57141666Y-22883333D01*
X57075000Y-22783333D01*
X57008333Y-22716666D01*
X56941666Y-22683333D01*
X57775000Y-22883333D02*
X57841666Y-22883333D01*
X57908333Y-22850000D01*
X57941666Y-22816666D01*
X57975000Y-22750000D01*
X58008333Y-22616666D01*
X58008333Y-22450000D01*
X57975000Y-22316666D01*
X57941666Y-22250000D01*
X57908333Y-22216666D01*
X57841666Y-22183333D01*
X57775000Y-22183333D01*
X57708333Y-22216666D01*
X57675000Y-22250000D01*
X57641666Y-22316666D01*
X57608333Y-22450000D01*
X57608333Y-22616666D01*
X57641666Y-22750000D01*
X57675000Y-22816666D01*
X57708333Y-22850000D01*
X57775000Y-22883333D01*
X48383333Y-22183333D02*
X48383333Y-22883333D01*
X48650000Y-22883333D01*
X48716666Y-22850000D01*
X48750000Y-22816666D01*
X48783333Y-22750000D01*
X48783333Y-22650000D01*
X48750000Y-22583333D01*
X48716666Y-22550000D01*
X48650000Y-22516666D01*
X48383333Y-22516666D01*
X49050000Y-22383333D02*
X49383333Y-22383333D01*
X48983333Y-22183333D02*
X49216666Y-22883333D01*
X49450000Y-22183333D01*
X50050000Y-22183333D02*
X49650000Y-22183333D01*
X49850000Y-22183333D02*
X49850000Y-22883333D01*
X49783333Y-22783333D01*
X49716666Y-22716666D01*
X49650000Y-22683333D01*
X38208333Y-22183333D02*
X38208333Y-22883333D01*
X38475000Y-22883333D01*
X38541666Y-22850000D01*
X38575000Y-22816666D01*
X38608333Y-22750000D01*
X38608333Y-22650000D01*
X38575000Y-22583333D01*
X38541666Y-22550000D01*
X38475000Y-22516666D01*
X38208333Y-22516666D01*
X38875000Y-22383333D02*
X39208333Y-22383333D01*
X38808333Y-22183333D02*
X39041666Y-22883333D01*
X39275000Y-22183333D01*
X39841666Y-22883333D02*
X39508333Y-22883333D01*
X39475000Y-22550000D01*
X39508333Y-22583333D01*
X39575000Y-22616666D01*
X39741666Y-22616666D01*
X39808333Y-22583333D01*
X39841666Y-22550000D01*
X39875000Y-22483333D01*
X39875000Y-22316666D01*
X39841666Y-22250000D01*
X39808333Y-22216666D01*
X39741666Y-22183333D01*
X39575000Y-22183333D01*
X39508333Y-22216666D01*
X39475000Y-22250000D01*
X22575000Y-22183333D02*
X22575000Y-22883333D01*
X22841666Y-22883333D01*
X22908333Y-22850000D01*
X22941666Y-22816666D01*
X22975000Y-22750000D01*
X22975000Y-22650000D01*
X22941666Y-22583333D01*
X22908333Y-22550000D01*
X22841666Y-22516666D01*
X22575000Y-22516666D01*
X23508333Y-22550000D02*
X23608333Y-22516666D01*
X23641666Y-22483333D01*
X23675000Y-22416666D01*
X23675000Y-22316666D01*
X23641666Y-22250000D01*
X23608333Y-22216666D01*
X23541666Y-22183333D01*
X23275000Y-22183333D01*
X23275000Y-22883333D01*
X23508333Y-22883333D01*
X23575000Y-22850000D01*
X23608333Y-22816666D01*
X23641666Y-22750000D01*
X23641666Y-22683333D01*
X23608333Y-22616666D01*
X23575000Y-22583333D01*
X23508333Y-22550000D01*
X23275000Y-22550000D01*
X24341666Y-22183333D02*
X23941666Y-22183333D01*
X24141666Y-22183333D02*
X24141666Y-22883333D01*
X24075000Y-22783333D01*
X24008333Y-22716666D01*
X23941666Y-22683333D01*
X24941666Y-22650000D02*
X24941666Y-22183333D01*
X24775000Y-22916666D02*
X24608333Y-22416666D01*
X25041666Y-22416666D01*
X43258333Y-22183333D02*
X43258333Y-22883333D01*
X43525000Y-22883333D01*
X43591666Y-22850000D01*
X43625000Y-22816666D01*
X43658333Y-22750000D01*
X43658333Y-22650000D01*
X43625000Y-22583333D01*
X43591666Y-22550000D01*
X43525000Y-22516666D01*
X43258333Y-22516666D01*
X43925000Y-22383333D02*
X44258333Y-22383333D01*
X43858333Y-22183333D02*
X44091666Y-22883333D01*
X44325000Y-22183333D01*
X44491666Y-22883333D02*
X44925000Y-22883333D01*
X44691666Y-22616666D01*
X44791666Y-22616666D01*
X44858333Y-22583333D01*
X44891666Y-22550000D01*
X44925000Y-22483333D01*
X44925000Y-22316666D01*
X44891666Y-22250000D01*
X44858333Y-22216666D01*
X44791666Y-22183333D01*
X44591666Y-22183333D01*
X44525000Y-22216666D01*
X44491666Y-22250000D01*
X58508333Y-22183333D02*
X58508333Y-22883333D01*
X58775000Y-22883333D01*
X58841666Y-22850000D01*
X58875000Y-22816666D01*
X58908333Y-22750000D01*
X58908333Y-22650000D01*
X58875000Y-22583333D01*
X58841666Y-22550000D01*
X58775000Y-22516666D01*
X58508333Y-22516666D01*
X59175000Y-22383333D02*
X59508333Y-22383333D01*
X59108333Y-22183333D02*
X59341666Y-22883333D01*
X59575000Y-22183333D01*
X59841666Y-22183333D02*
X59975000Y-22183333D01*
X60041666Y-22216666D01*
X60075000Y-22250000D01*
X60141666Y-22350000D01*
X60175000Y-22483333D01*
X60175000Y-22750000D01*
X60141666Y-22816666D01*
X60108333Y-22850000D01*
X60041666Y-22883333D01*
X59908333Y-22883333D01*
X59841666Y-22850000D01*
X59808333Y-22816666D01*
X59775000Y-22750000D01*
X59775000Y-22583333D01*
X59808333Y-22516666D01*
X59841666Y-22483333D01*
X59908333Y-22450000D01*
X60041666Y-22450000D01*
X60108333Y-22483333D01*
X60141666Y-22516666D01*
X60175000Y-22583333D01*
X25125000Y-22183333D02*
X25125000Y-22883333D01*
X25391666Y-22883333D01*
X25458333Y-22850000D01*
X25491666Y-22816666D01*
X25525000Y-22750000D01*
X25525000Y-22650000D01*
X25491666Y-22583333D01*
X25458333Y-22550000D01*
X25391666Y-22516666D01*
X25125000Y-22516666D01*
X26058333Y-22550000D02*
X26158333Y-22516666D01*
X26191666Y-22483333D01*
X26225000Y-22416666D01*
X26225000Y-22316666D01*
X26191666Y-22250000D01*
X26158333Y-22216666D01*
X26091666Y-22183333D01*
X25825000Y-22183333D01*
X25825000Y-22883333D01*
X26058333Y-22883333D01*
X26125000Y-22850000D01*
X26158333Y-22816666D01*
X26191666Y-22750000D01*
X26191666Y-22683333D01*
X26158333Y-22616666D01*
X26125000Y-22583333D01*
X26058333Y-22550000D01*
X25825000Y-22550000D01*
X26891666Y-22183333D02*
X26491666Y-22183333D01*
X26691666Y-22183333D02*
X26691666Y-22883333D01*
X26625000Y-22783333D01*
X26558333Y-22716666D01*
X26491666Y-22683333D01*
X27525000Y-22883333D02*
X27191666Y-22883333D01*
X27158333Y-22550000D01*
X27191666Y-22583333D01*
X27258333Y-22616666D01*
X27425000Y-22616666D01*
X27491666Y-22583333D01*
X27525000Y-22550000D01*
X27558333Y-22483333D01*
X27558333Y-22316666D01*
X27525000Y-22250000D01*
X27491666Y-22216666D01*
X27425000Y-22183333D01*
X27258333Y-22183333D01*
X27191666Y-22216666D01*
X27158333Y-22250000D01*
X40733333Y-22183333D02*
X40733333Y-22883333D01*
X41000000Y-22883333D01*
X41066666Y-22850000D01*
X41100000Y-22816666D01*
X41133333Y-22750000D01*
X41133333Y-22650000D01*
X41100000Y-22583333D01*
X41066666Y-22550000D01*
X41000000Y-22516666D01*
X40733333Y-22516666D01*
X41400000Y-22383333D02*
X41733333Y-22383333D01*
X41333333Y-22183333D02*
X41566666Y-22883333D01*
X41800000Y-22183333D01*
X42333333Y-22650000D02*
X42333333Y-22183333D01*
X42166666Y-22916666D02*
X42000000Y-22416666D01*
X42433333Y-22416666D01*
X33083333Y-22183333D02*
X33083333Y-22883333D01*
X33350000Y-22883333D01*
X33416666Y-22850000D01*
X33450000Y-22816666D01*
X33483333Y-22750000D01*
X33483333Y-22650000D01*
X33450000Y-22583333D01*
X33416666Y-22550000D01*
X33350000Y-22516666D01*
X33083333Y-22516666D01*
X33750000Y-22383333D02*
X34083333Y-22383333D01*
X33683333Y-22183333D02*
X33916666Y-22883333D01*
X34150000Y-22183333D01*
X34316666Y-22883333D02*
X34783333Y-22883333D01*
X34483333Y-22183333D01*
X45783333Y-22183333D02*
X45783333Y-22883333D01*
X46050000Y-22883333D01*
X46116666Y-22850000D01*
X46150000Y-22816666D01*
X46183333Y-22750000D01*
X46183333Y-22650000D01*
X46150000Y-22583333D01*
X46116666Y-22550000D01*
X46050000Y-22516666D01*
X45783333Y-22516666D01*
X46450000Y-22383333D02*
X46783333Y-22383333D01*
X46383333Y-22183333D02*
X46616666Y-22883333D01*
X46850000Y-22183333D01*
X47050000Y-22816666D02*
X47083333Y-22850000D01*
X47150000Y-22883333D01*
X47316666Y-22883333D01*
X47383333Y-22850000D01*
X47416666Y-22816666D01*
X47450000Y-22750000D01*
X47450000Y-22683333D01*
X47416666Y-22583333D01*
X47016666Y-22183333D01*
X47450000Y-22183333D01*
X42341666Y-35041666D02*
X42341666Y-34341666D01*
X42075000Y-34341666D01*
X42008333Y-34375000D01*
X41975000Y-34408333D01*
X41941666Y-34475000D01*
X41941666Y-34575000D01*
X41975000Y-34641666D01*
X42008333Y-34675000D01*
X42075000Y-34708333D01*
X42341666Y-34708333D01*
X41408333Y-34675000D02*
X41308333Y-34708333D01*
X41275000Y-34741666D01*
X41241666Y-34808333D01*
X41241666Y-34908333D01*
X41275000Y-34975000D01*
X41308333Y-35008333D01*
X41375000Y-35041666D01*
X41641666Y-35041666D01*
X41641666Y-34341666D01*
X41408333Y-34341666D01*
X41341666Y-34375000D01*
X41308333Y-34408333D01*
X41275000Y-34475000D01*
X41275000Y-34541666D01*
X41308333Y-34608333D01*
X41341666Y-34641666D01*
X41408333Y-34675000D01*
X41641666Y-34675000D01*
X41008333Y-34341666D02*
X40541666Y-34341666D01*
X40841666Y-35041666D01*
X57258333Y-34375000D02*
X57325000Y-34341666D01*
X57425000Y-34341666D01*
X57525000Y-34375000D01*
X57591666Y-34441666D01*
X57625000Y-34508333D01*
X57658333Y-34641666D01*
X57658333Y-34741666D01*
X57625000Y-34875000D01*
X57591666Y-34941666D01*
X57525000Y-35008333D01*
X57425000Y-35041666D01*
X57358333Y-35041666D01*
X57258333Y-35008333D01*
X57225000Y-34975000D01*
X57225000Y-34741666D01*
X57358333Y-34741666D01*
X56925000Y-35041666D02*
X56925000Y-34341666D01*
X56525000Y-35041666D01*
X56525000Y-34341666D01*
X56191666Y-35041666D02*
X56191666Y-34341666D01*
X56025000Y-34341666D01*
X55925000Y-34375000D01*
X55858333Y-34441666D01*
X55825000Y-34508333D01*
X55791666Y-34641666D01*
X55791666Y-34741666D01*
X55825000Y-34875000D01*
X55858333Y-34941666D01*
X55925000Y-35008333D01*
X56025000Y-35041666D01*
X56191666Y-35041666D01*
X32141666Y-35041666D02*
X32141666Y-34341666D01*
X31875000Y-34341666D01*
X31808333Y-34375000D01*
X31775000Y-34408333D01*
X31741666Y-34475000D01*
X31741666Y-34575000D01*
X31775000Y-34641666D01*
X31808333Y-34675000D01*
X31875000Y-34708333D01*
X32141666Y-34708333D01*
X31208333Y-34675000D02*
X31108333Y-34708333D01*
X31075000Y-34741666D01*
X31041666Y-34808333D01*
X31041666Y-34908333D01*
X31075000Y-34975000D01*
X31108333Y-35008333D01*
X31175000Y-35041666D01*
X31441666Y-35041666D01*
X31441666Y-34341666D01*
X31208333Y-34341666D01*
X31141666Y-34375000D01*
X31108333Y-34408333D01*
X31075000Y-34475000D01*
X31075000Y-34541666D01*
X31108333Y-34608333D01*
X31141666Y-34641666D01*
X31208333Y-34675000D01*
X31441666Y-34675000D01*
X30375000Y-35041666D02*
X30775000Y-35041666D01*
X30575000Y-35041666D02*
X30575000Y-34341666D01*
X30641666Y-34441666D01*
X30708333Y-34508333D01*
X30775000Y-34541666D01*
X29591666Y-35041666D02*
X29591666Y-34341666D01*
X29325000Y-34341666D01*
X29258333Y-34375000D01*
X29225000Y-34408333D01*
X29191666Y-34475000D01*
X29191666Y-34575000D01*
X29225000Y-34641666D01*
X29258333Y-34675000D01*
X29325000Y-34708333D01*
X29591666Y-34708333D01*
X28925000Y-34841666D02*
X28591666Y-34841666D01*
X28991666Y-35041666D02*
X28758333Y-34341666D01*
X28525000Y-35041666D01*
X28191666Y-34641666D02*
X28258333Y-34608333D01*
X28291666Y-34575000D01*
X28325000Y-34508333D01*
X28325000Y-34475000D01*
X28291666Y-34408333D01*
X28258333Y-34375000D01*
X28191666Y-34341666D01*
X28058333Y-34341666D01*
X27991666Y-34375000D01*
X27958333Y-34408333D01*
X27925000Y-34475000D01*
X27925000Y-34508333D01*
X27958333Y-34575000D01*
X27991666Y-34608333D01*
X28058333Y-34641666D01*
X28191666Y-34641666D01*
X28258333Y-34675000D01*
X28291666Y-34708333D01*
X28325000Y-34775000D01*
X28325000Y-34908333D01*
X28291666Y-34975000D01*
X28258333Y-35008333D01*
X28191666Y-35041666D01*
X28058333Y-35041666D01*
X27991666Y-35008333D01*
X27958333Y-34975000D01*
X27925000Y-34908333D01*
X27925000Y-34775000D01*
X27958333Y-34708333D01*
X27991666Y-34675000D01*
X28058333Y-34641666D01*
X47391666Y-35041666D02*
X47391666Y-34341666D01*
X47125000Y-34341666D01*
X47058333Y-34375000D01*
X47025000Y-34408333D01*
X46991666Y-34475000D01*
X46991666Y-34575000D01*
X47025000Y-34641666D01*
X47058333Y-34675000D01*
X47125000Y-34708333D01*
X47391666Y-34708333D01*
X46458333Y-34675000D02*
X46358333Y-34708333D01*
X46325000Y-34741666D01*
X46291666Y-34808333D01*
X46291666Y-34908333D01*
X46325000Y-34975000D01*
X46358333Y-35008333D01*
X46425000Y-35041666D01*
X46691666Y-35041666D01*
X46691666Y-34341666D01*
X46458333Y-34341666D01*
X46391666Y-34375000D01*
X46358333Y-34408333D01*
X46325000Y-34475000D01*
X46325000Y-34541666D01*
X46358333Y-34608333D01*
X46391666Y-34641666D01*
X46458333Y-34675000D01*
X46691666Y-34675000D01*
X46058333Y-34341666D02*
X45625000Y-34341666D01*
X45858333Y-34608333D01*
X45758333Y-34608333D01*
X45691666Y-34641666D01*
X45658333Y-34675000D01*
X45625000Y-34741666D01*
X45625000Y-34908333D01*
X45658333Y-34975000D01*
X45691666Y-35008333D01*
X45758333Y-35041666D01*
X45958333Y-35041666D01*
X46025000Y-35008333D01*
X46058333Y-34975000D01*
X52491666Y-34341666D02*
X52058333Y-34341666D01*
X52291666Y-34608333D01*
X52191666Y-34608333D01*
X52125000Y-34641666D01*
X52091666Y-34675000D01*
X52058333Y-34741666D01*
X52058333Y-34908333D01*
X52091666Y-34975000D01*
X52125000Y-35008333D01*
X52191666Y-35041666D01*
X52391666Y-35041666D01*
X52458333Y-35008333D01*
X52491666Y-34975000D01*
X51858333Y-34341666D02*
X51625000Y-35041666D01*
X51391666Y-34341666D01*
X51225000Y-34341666D02*
X50791666Y-34341666D01*
X51025000Y-34608333D01*
X50925000Y-34608333D01*
X50858333Y-34641666D01*
X50825000Y-34675000D01*
X50791666Y-34741666D01*
X50791666Y-34908333D01*
X50825000Y-34975000D01*
X50858333Y-35008333D01*
X50925000Y-35041666D01*
X51125000Y-35041666D01*
X51191666Y-35008333D01*
X51225000Y-34975000D01*
X55041666Y-35041666D02*
X55041666Y-34341666D01*
X54775000Y-34341666D01*
X54708333Y-34375000D01*
X54675000Y-34408333D01*
X54641666Y-34475000D01*
X54641666Y-34575000D01*
X54675000Y-34641666D01*
X54708333Y-34675000D01*
X54775000Y-34708333D01*
X55041666Y-34708333D01*
X54108333Y-34675000D02*
X54008333Y-34708333D01*
X53975000Y-34741666D01*
X53941666Y-34808333D01*
X53941666Y-34908333D01*
X53975000Y-34975000D01*
X54008333Y-35008333D01*
X54075000Y-35041666D01*
X54341666Y-35041666D01*
X54341666Y-34341666D01*
X54108333Y-34341666D01*
X54041666Y-34375000D01*
X54008333Y-34408333D01*
X53975000Y-34475000D01*
X53975000Y-34541666D01*
X54008333Y-34608333D01*
X54041666Y-34641666D01*
X54108333Y-34675000D01*
X54341666Y-34675000D01*
X53308333Y-34341666D02*
X53641666Y-34341666D01*
X53675000Y-34675000D01*
X53641666Y-34641666D01*
X53575000Y-34608333D01*
X53408333Y-34608333D01*
X53341666Y-34641666D01*
X53308333Y-34675000D01*
X53275000Y-34741666D01*
X53275000Y-34908333D01*
X53308333Y-34975000D01*
X53341666Y-35008333D01*
X53408333Y-35041666D01*
X53575000Y-35041666D01*
X53641666Y-35008333D01*
X53675000Y-34975000D01*
X49941666Y-35041666D02*
X49941666Y-34341666D01*
X49675000Y-34341666D01*
X49608333Y-34375000D01*
X49575000Y-34408333D01*
X49541666Y-34475000D01*
X49541666Y-34575000D01*
X49575000Y-34641666D01*
X49608333Y-34675000D01*
X49675000Y-34708333D01*
X49941666Y-34708333D01*
X49008333Y-34675000D02*
X48908333Y-34708333D01*
X48875000Y-34741666D01*
X48841666Y-34808333D01*
X48841666Y-34908333D01*
X48875000Y-34975000D01*
X48908333Y-35008333D01*
X48975000Y-35041666D01*
X49241666Y-35041666D01*
X49241666Y-34341666D01*
X49008333Y-34341666D01*
X48941666Y-34375000D01*
X48908333Y-34408333D01*
X48875000Y-34475000D01*
X48875000Y-34541666D01*
X48908333Y-34608333D01*
X48941666Y-34641666D01*
X49008333Y-34675000D01*
X49241666Y-34675000D01*
X48241666Y-34575000D02*
X48241666Y-35041666D01*
X48408333Y-34308333D02*
X48575000Y-34808333D01*
X48141666Y-34808333D01*
X37575000Y-35041666D02*
X37575000Y-34341666D01*
X37308333Y-34341666D01*
X37241666Y-34375000D01*
X37208333Y-34408333D01*
X37175000Y-34475000D01*
X37175000Y-34575000D01*
X37208333Y-34641666D01*
X37241666Y-34675000D01*
X37308333Y-34708333D01*
X37575000Y-34708333D01*
X36908333Y-34841666D02*
X36575000Y-34841666D01*
X36975000Y-35041666D02*
X36741666Y-34341666D01*
X36508333Y-35041666D01*
X35908333Y-35041666D02*
X36308333Y-35041666D01*
X36108333Y-35041666D02*
X36108333Y-34341666D01*
X36175000Y-34441666D01*
X36241666Y-34508333D01*
X36308333Y-34541666D01*
X35275000Y-34341666D02*
X35608333Y-34341666D01*
X35641666Y-34675000D01*
X35608333Y-34641666D01*
X35541666Y-34608333D01*
X35375000Y-34608333D01*
X35308333Y-34641666D01*
X35275000Y-34675000D01*
X35241666Y-34741666D01*
X35241666Y-34908333D01*
X35275000Y-34975000D01*
X35308333Y-35008333D01*
X35375000Y-35041666D01*
X35541666Y-35041666D01*
X35608333Y-35008333D01*
X35641666Y-34975000D01*
X39791666Y-35041666D02*
X39791666Y-34341666D01*
X39525000Y-34341666D01*
X39458333Y-34375000D01*
X39425000Y-34408333D01*
X39391666Y-34475000D01*
X39391666Y-34575000D01*
X39425000Y-34641666D01*
X39458333Y-34675000D01*
X39525000Y-34708333D01*
X39791666Y-34708333D01*
X38858333Y-34675000D02*
X38758333Y-34708333D01*
X38725000Y-34741666D01*
X38691666Y-34808333D01*
X38691666Y-34908333D01*
X38725000Y-34975000D01*
X38758333Y-35008333D01*
X38825000Y-35041666D01*
X39091666Y-35041666D01*
X39091666Y-34341666D01*
X38858333Y-34341666D01*
X38791666Y-34375000D01*
X38758333Y-34408333D01*
X38725000Y-34475000D01*
X38725000Y-34541666D01*
X38758333Y-34608333D01*
X38791666Y-34641666D01*
X38858333Y-34675000D01*
X39091666Y-34675000D01*
X38425000Y-34408333D02*
X38391666Y-34375000D01*
X38325000Y-34341666D01*
X38158333Y-34341666D01*
X38091666Y-34375000D01*
X38058333Y-34408333D01*
X38025000Y-34475000D01*
X38025000Y-34541666D01*
X38058333Y-34641666D01*
X38458333Y-35041666D01*
X38025000Y-35041666D01*
X60041666Y-34341666D02*
X59808333Y-35041666D01*
X59575000Y-34341666D01*
X59341666Y-35041666D02*
X59341666Y-34341666D01*
X59008333Y-35041666D02*
X59008333Y-34341666D01*
X58608333Y-35041666D01*
X58608333Y-34341666D01*
X34691666Y-35041666D02*
X34691666Y-34341666D01*
X34425000Y-34341666D01*
X34358333Y-34375000D01*
X34325000Y-34408333D01*
X34291666Y-34475000D01*
X34291666Y-34575000D01*
X34325000Y-34641666D01*
X34358333Y-34675000D01*
X34425000Y-34708333D01*
X34691666Y-34708333D01*
X33758333Y-34675000D02*
X33658333Y-34708333D01*
X33625000Y-34741666D01*
X33591666Y-34808333D01*
X33591666Y-34908333D01*
X33625000Y-34975000D01*
X33658333Y-35008333D01*
X33725000Y-35041666D01*
X33991666Y-35041666D01*
X33991666Y-34341666D01*
X33758333Y-34341666D01*
X33691666Y-34375000D01*
X33658333Y-34408333D01*
X33625000Y-34475000D01*
X33625000Y-34541666D01*
X33658333Y-34608333D01*
X33691666Y-34641666D01*
X33758333Y-34675000D01*
X33991666Y-34675000D01*
X33191666Y-34641666D02*
X33258333Y-34608333D01*
X33291666Y-34575000D01*
X33325000Y-34508333D01*
X33325000Y-34475000D01*
X33291666Y-34408333D01*
X33258333Y-34375000D01*
X33191666Y-34341666D01*
X33058333Y-34341666D01*
X32991666Y-34375000D01*
X32958333Y-34408333D01*
X32925000Y-34475000D01*
X32925000Y-34508333D01*
X32958333Y-34575000D01*
X32991666Y-34608333D01*
X33058333Y-34641666D01*
X33191666Y-34641666D01*
X33258333Y-34675000D01*
X33291666Y-34708333D01*
X33325000Y-34775000D01*
X33325000Y-34908333D01*
X33291666Y-34975000D01*
X33258333Y-35008333D01*
X33191666Y-35041666D01*
X33058333Y-35041666D01*
X32991666Y-35008333D01*
X32958333Y-34975000D01*
X32925000Y-34908333D01*
X32925000Y-34775000D01*
X32958333Y-34708333D01*
X32991666Y-34675000D01*
X33058333Y-34641666D01*
X44891666Y-35041666D02*
X44891666Y-34341666D01*
X44625000Y-34341666D01*
X44558333Y-34375000D01*
X44525000Y-34408333D01*
X44491666Y-34475000D01*
X44491666Y-34575000D01*
X44525000Y-34641666D01*
X44558333Y-34675000D01*
X44625000Y-34708333D01*
X44891666Y-34708333D01*
X43958333Y-34675000D02*
X43858333Y-34708333D01*
X43825000Y-34741666D01*
X43791666Y-34808333D01*
X43791666Y-34908333D01*
X43825000Y-34975000D01*
X43858333Y-35008333D01*
X43925000Y-35041666D01*
X44191666Y-35041666D01*
X44191666Y-34341666D01*
X43958333Y-34341666D01*
X43891666Y-34375000D01*
X43858333Y-34408333D01*
X43825000Y-34475000D01*
X43825000Y-34541666D01*
X43858333Y-34608333D01*
X43891666Y-34641666D01*
X43958333Y-34675000D01*
X44191666Y-34675000D01*
X43191666Y-34341666D02*
X43325000Y-34341666D01*
X43391666Y-34375000D01*
X43425000Y-34408333D01*
X43491666Y-34508333D01*
X43525000Y-34641666D01*
X43525000Y-34908333D01*
X43491666Y-34975000D01*
X43458333Y-35008333D01*
X43391666Y-35041666D01*
X43258333Y-35041666D01*
X43191666Y-35008333D01*
X43158333Y-34975000D01*
X43125000Y-34908333D01*
X43125000Y-34741666D01*
X43158333Y-34675000D01*
X43191666Y-34641666D01*
X43258333Y-34608333D01*
X43391666Y-34608333D01*
X43458333Y-34641666D01*
X43491666Y-34675000D01*
X43525000Y-34741666D01*
X24875000Y-35041666D02*
X24875000Y-34341666D01*
X24608333Y-34341666D01*
X24541666Y-34375000D01*
X24508333Y-34408333D01*
X24475000Y-34475000D01*
X24475000Y-34575000D01*
X24508333Y-34641666D01*
X24541666Y-34675000D01*
X24608333Y-34708333D01*
X24875000Y-34708333D01*
X23941666Y-34675000D02*
X23841666Y-34708333D01*
X23808333Y-34741666D01*
X23775000Y-34808333D01*
X23775000Y-34908333D01*
X23808333Y-34975000D01*
X23841666Y-35008333D01*
X23908333Y-35041666D01*
X24175000Y-35041666D01*
X24175000Y-34341666D01*
X23941666Y-34341666D01*
X23875000Y-34375000D01*
X23841666Y-34408333D01*
X23808333Y-34475000D01*
X23808333Y-34541666D01*
X23841666Y-34608333D01*
X23875000Y-34641666D01*
X23941666Y-34675000D01*
X24175000Y-34675000D01*
X23108333Y-35041666D02*
X23508333Y-35041666D01*
X23308333Y-35041666D02*
X23308333Y-34341666D01*
X23375000Y-34441666D01*
X23441666Y-34508333D01*
X23508333Y-34541666D01*
X22875000Y-34341666D02*
X22441666Y-34341666D01*
X22675000Y-34608333D01*
X22575000Y-34608333D01*
X22508333Y-34641666D01*
X22475000Y-34675000D01*
X22441666Y-34741666D01*
X22441666Y-34908333D01*
X22475000Y-34975000D01*
X22508333Y-35008333D01*
X22575000Y-35041666D01*
X22775000Y-35041666D01*
X22841666Y-35008333D01*
X22875000Y-34975000D01*
X27091666Y-34341666D02*
X26658333Y-34341666D01*
X26891666Y-34608333D01*
X26791666Y-34608333D01*
X26725000Y-34641666D01*
X26691666Y-34675000D01*
X26658333Y-34741666D01*
X26658333Y-34908333D01*
X26691666Y-34975000D01*
X26725000Y-35008333D01*
X26791666Y-35041666D01*
X26991666Y-35041666D01*
X27058333Y-35008333D01*
X27091666Y-34975000D01*
X26458333Y-34341666D02*
X26225000Y-35041666D01*
X25991666Y-34341666D01*
X25825000Y-34341666D02*
X25391666Y-34341666D01*
X25625000Y-34608333D01*
X25525000Y-34608333D01*
X25458333Y-34641666D01*
X25425000Y-34675000D01*
X25391666Y-34741666D01*
X25391666Y-34908333D01*
X25425000Y-34975000D01*
X25458333Y-35008333D01*
X25525000Y-35041666D01*
X25725000Y-35041666D01*
X25791666Y-35008333D01*
X25825000Y-34975000D01*
D12*
X63200000Y-37100000D02*
G75*
G02X62900000Y-37400000I-300000J0D01*
G01*
X62900000Y-19800000D02*
G75*
G02X63200000Y-20100000I0J-300000D01*
G01*
X20000000Y-20100000D02*
G75*
G02X20300000Y-19800000I300000J0D01*
G01*
X20300000Y-37400000D02*
G75*
G02X20000000Y-37100000I0J300000D01*
G01*
X20000000Y-37100000D02*
X20000000Y-20100000D01*
X62900000Y-37400000D02*
X20300000Y-37400000D01*
X63200000Y-20100000D02*
X63200000Y-37100000D01*
X20300000Y-19800000D02*
X62900000Y-19800000D01*
D13*
G04 #@! TO.C,G\002A\002A\002A*
G36*
X26363979Y-30090858D02*
X26467797Y-30038308D01*
X26498494Y-29957835D01*
X26451696Y-29855256D01*
X26414333Y-29813334D01*
X26318388Y-29760589D01*
X26180789Y-29731475D01*
X26035313Y-29728104D01*
X25915739Y-29752588D01*
X25872466Y-29779467D01*
X25826030Y-29874777D01*
X25830027Y-29919167D01*
X26145024Y-29919167D01*
X26152162Y-29866904D01*
X26220910Y-29857912D01*
X26304794Y-29881270D01*
X26350401Y-29921080D01*
X26348091Y-29944770D01*
X26284897Y-29980578D01*
X26201697Y-29970348D01*
X26145345Y-29919987D01*
X26145024Y-29919167D01*
X25830027Y-29919167D01*
X25835713Y-29982290D01*
X25897191Y-30062192D01*
X25903550Y-30065844D01*
X25994139Y-30092135D01*
X26128112Y-30107775D01*
X26191416Y-30109667D01*
X26363979Y-30090858D01*
X26363979Y-30090858D01*
G37*
X26363979Y-30090858D02*
X26467797Y-30038308D01*
X26498494Y-29957835D01*
X26451696Y-29855256D01*
X26414333Y-29813334D01*
X26318388Y-29760589D01*
X26180789Y-29731475D01*
X26035313Y-29728104D01*
X25915739Y-29752588D01*
X25872466Y-29779467D01*
X25826030Y-29874777D01*
X25830027Y-29919167D01*
X26145024Y-29919167D01*
X26152162Y-29866904D01*
X26220910Y-29857912D01*
X26304794Y-29881270D01*
X26350401Y-29921080D01*
X26348091Y-29944770D01*
X26284897Y-29980578D01*
X26201697Y-29970348D01*
X26145345Y-29919987D01*
X26145024Y-29919167D01*
X25830027Y-29919167D01*
X25835713Y-29982290D01*
X25897191Y-30062192D01*
X25903550Y-30065844D01*
X25994139Y-30092135D01*
X26128112Y-30107775D01*
X26191416Y-30109667D01*
X26363979Y-30090858D01*
G36*
X27055688Y-30489892D02*
X27767537Y-30462771D01*
X28422250Y-30382456D01*
X28917705Y-30277544D01*
X29168704Y-30206716D01*
X29364025Y-30131079D01*
X29531975Y-30035099D01*
X29700860Y-29903240D01*
X29852480Y-29764508D01*
X30022340Y-29610412D01*
X30212792Y-29448923D01*
X30386853Y-29311241D01*
X30411648Y-29292817D01*
X30536209Y-29189998D01*
X30698871Y-29039161D01*
X30882839Y-28856748D01*
X31071319Y-28659201D01*
X31174001Y-28546501D01*
X31352853Y-28347761D01*
X31487116Y-28203481D01*
X31587825Y-28104292D01*
X31666012Y-28040821D01*
X31732714Y-28003698D01*
X31798963Y-27983551D01*
X31846732Y-27975161D01*
X32004516Y-27938512D01*
X32156595Y-27883619D01*
X32182668Y-27871183D01*
X32242907Y-27842386D01*
X32299397Y-27825488D01*
X32367632Y-27821825D01*
X32463105Y-27832732D01*
X32601310Y-27859545D01*
X32797741Y-27903601D01*
X32939558Y-27936443D01*
X33337415Y-28031719D01*
X33729795Y-28132014D01*
X34133394Y-28242028D01*
X34564909Y-28366461D01*
X35041035Y-28510010D01*
X35578468Y-28677377D01*
X35632360Y-28694384D01*
X36342216Y-28910939D01*
X37007371Y-29098362D01*
X37622681Y-29255514D01*
X38183002Y-29381259D01*
X38683190Y-29474458D01*
X39118102Y-29533975D01*
X39482593Y-29558672D01*
X39543938Y-29559334D01*
X39720566Y-29554161D01*
X39961711Y-29539868D01*
X40247936Y-29518295D01*
X40559806Y-29491281D01*
X40877881Y-29460663D01*
X41182726Y-29428282D01*
X41454903Y-29395977D01*
X41674976Y-29365586D01*
X41781333Y-29347643D01*
X41932767Y-29326758D01*
X42066570Y-29321549D01*
X42122780Y-29327175D01*
X42226226Y-29322112D01*
X42387220Y-29272057D01*
X42588447Y-29186059D01*
X42763221Y-29099307D01*
X42911538Y-29008520D01*
X43056510Y-28896740D01*
X43221249Y-28747005D01*
X43326500Y-28644458D01*
X43514011Y-28464667D01*
X43721646Y-28274515D01*
X43920635Y-28099947D01*
X44046166Y-27995442D01*
X44241290Y-27837761D01*
X44462127Y-27658110D01*
X44669242Y-27488595D01*
X44723500Y-27443945D01*
X44879748Y-27318931D01*
X45025330Y-27209110D01*
X45139661Y-27129696D01*
X45185358Y-27102636D01*
X45266661Y-27049703D01*
X45392129Y-26954110D01*
X45543419Y-26830306D01*
X45675054Y-26716837D01*
X45890427Y-26540222D01*
X46115154Y-26378980D01*
X46319105Y-26254423D01*
X46356196Y-26235061D01*
X46553891Y-26132995D01*
X46778425Y-26013004D01*
X46983518Y-25899848D01*
X46996767Y-25892361D01*
X47675093Y-25532215D01*
X48434095Y-25174542D01*
X49035698Y-24916327D01*
X49800751Y-24599846D01*
X51643625Y-24649735D01*
X52091004Y-24660559D01*
X52563229Y-24669675D01*
X53042321Y-24676891D01*
X53510302Y-24682014D01*
X53949193Y-24684849D01*
X54341016Y-24685203D01*
X54667792Y-24682884D01*
X54693000Y-24682543D01*
X55045204Y-24677346D01*
X55325791Y-24672099D01*
X55547804Y-24665654D01*
X55724283Y-24656861D01*
X55868272Y-24644571D01*
X55992812Y-24627637D01*
X56110946Y-24604908D01*
X56235716Y-24575237D01*
X56380164Y-24537474D01*
X56400066Y-24532177D01*
X56633037Y-24463927D01*
X56871519Y-24383616D01*
X57083637Y-24302492D01*
X57207774Y-24247131D01*
X57392338Y-24148300D01*
X57554712Y-24047326D01*
X57681954Y-23953849D01*
X57761122Y-23877511D01*
X57779273Y-23827953D01*
X57776201Y-23823692D01*
X57725438Y-23821117D01*
X57613116Y-23838403D01*
X57459071Y-23872100D01*
X57374034Y-23893646D01*
X57061620Y-23953156D01*
X56682867Y-23987147D01*
X56251849Y-23996590D01*
X55782641Y-23982460D01*
X55289319Y-23945729D01*
X54785959Y-23887371D01*
X54286635Y-23808358D01*
X53805422Y-23709663D01*
X53465333Y-23623441D01*
X53228221Y-23559607D01*
X53020912Y-23509690D01*
X52825821Y-23471363D01*
X52625367Y-23442301D01*
X52401966Y-23420176D01*
X52138035Y-23402663D01*
X51815990Y-23387436D01*
X51623833Y-23379805D01*
X51330173Y-23366995D01*
X51057133Y-23352078D01*
X50818625Y-23336052D01*
X50628565Y-23319915D01*
X50500865Y-23304664D01*
X50459946Y-23296348D01*
X50322984Y-23271929D01*
X50127928Y-23258387D01*
X49900589Y-23255280D01*
X49666780Y-23262167D01*
X49452311Y-23278606D01*
X49282996Y-23304155D01*
X49232000Y-23317356D01*
X49074526Y-23348888D01*
X48841917Y-23369302D01*
X48543063Y-23377869D01*
X48491166Y-23378090D01*
X48290224Y-23384093D01*
X48023489Y-23400755D01*
X47702525Y-23426693D01*
X47338897Y-23460520D01*
X46944169Y-23500854D01*
X46529905Y-23546308D01*
X46107671Y-23595498D01*
X45689030Y-23647040D01*
X45285547Y-23699548D01*
X44908786Y-23751639D01*
X44570312Y-23801926D01*
X44281689Y-23849027D01*
X44054482Y-23891555D01*
X43902184Y-23927568D01*
X43823646Y-23943550D01*
X43744947Y-23938382D01*
X43644637Y-23906460D01*
X43501265Y-23842181D01*
X43415351Y-23800404D01*
X43223389Y-23715124D01*
X43022606Y-23640644D01*
X42850202Y-23590463D01*
X42818500Y-23583783D01*
X42702119Y-23570513D01*
X42505206Y-23558978D01*
X42231879Y-23549282D01*
X41886257Y-23541529D01*
X41472458Y-23535824D01*
X40994601Y-23532269D01*
X40738197Y-23531343D01*
X40293351Y-23530497D01*
X39925512Y-23530532D01*
X39627026Y-23531712D01*
X39390237Y-23534302D01*
X39207488Y-23538564D01*
X39071123Y-23544762D01*
X38973487Y-23553159D01*
X38906924Y-23564020D01*
X38863777Y-23577607D01*
X38836390Y-23594184D01*
X38833197Y-23596920D01*
X38821472Y-23609086D01*
X38811815Y-23619794D01*
X38799039Y-23629066D01*
X38777961Y-23636921D01*
X38743395Y-23643378D01*
X38690157Y-23648459D01*
X38613061Y-23652184D01*
X38506924Y-23654571D01*
X38366559Y-23655643D01*
X38186782Y-23655418D01*
X37962408Y-23653916D01*
X37688252Y-23651159D01*
X37359129Y-23647166D01*
X36969855Y-23641957D01*
X36515244Y-23635553D01*
X35990112Y-23627972D01*
X35389274Y-23619237D01*
X34902166Y-23612175D01*
X34519421Y-23607825D01*
X34151852Y-23605884D01*
X33811167Y-23606255D01*
X33509073Y-23608839D01*
X33257277Y-23613542D01*
X33067487Y-23620264D01*
X32956571Y-23628282D01*
X32786320Y-23646397D01*
X32676385Y-23650053D01*
X32603186Y-23636202D01*
X32543145Y-23601797D01*
X32503249Y-23569702D01*
X32373034Y-23495885D01*
X32206223Y-23448424D01*
X32184010Y-23445117D01*
X32097254Y-23439179D01*
X31936281Y-23433596D01*
X31711539Y-23428528D01*
X31433479Y-23424132D01*
X31112549Y-23420567D01*
X30759198Y-23417991D01*
X30383876Y-23416563D01*
X30287833Y-23416404D01*
X29895152Y-23415839D01*
X29510272Y-23415126D01*
X29145750Y-23414300D01*
X28814146Y-23413395D01*
X28528019Y-23412447D01*
X28299929Y-23411489D01*
X28142434Y-23410557D01*
X28128833Y-23410448D01*
X27879149Y-23412091D01*
X27604528Y-23419771D01*
X27349587Y-23432048D01*
X27252054Y-23438775D01*
X27056084Y-23456639D01*
X26929385Y-23475810D01*
X26856598Y-23500070D01*
X26822363Y-23533201D01*
X26817177Y-23545865D01*
X26807984Y-23640432D01*
X26848414Y-23726050D01*
X26944975Y-23806514D01*
X27104175Y-23885620D01*
X27332519Y-23967164D01*
X27636516Y-24054943D01*
X27733744Y-24080551D01*
X27979177Y-24149348D01*
X28235611Y-24229874D01*
X28470380Y-24311425D01*
X28630516Y-24374418D01*
X28991043Y-24529299D01*
X28849736Y-24726566D01*
X28773264Y-24847913D01*
X28665800Y-25040456D01*
X28530495Y-25297913D01*
X28370501Y-25614004D01*
X28188972Y-25982449D01*
X27989058Y-26396966D01*
X27773913Y-26851275D01*
X27645872Y-27125202D01*
X27291297Y-27887237D01*
X26863398Y-28085316D01*
X26635855Y-28183608D01*
X26366681Y-28289245D01*
X26095837Y-28386956D01*
X25937711Y-28439021D01*
X25628941Y-28549165D01*
X25338377Y-28678370D01*
X25080157Y-28818508D01*
X24868419Y-28961450D01*
X24717304Y-29099067D01*
X24664197Y-29171176D01*
X24609113Y-29312421D01*
X24597790Y-29369574D01*
X24728576Y-29369574D01*
X24764086Y-29283022D01*
X24822883Y-29200917D01*
X24928888Y-29095010D01*
X25091035Y-28985120D01*
X25315907Y-28867831D01*
X25610085Y-28739726D01*
X25980154Y-28597388D01*
X25998951Y-28590500D01*
X26366912Y-28453195D01*
X26663268Y-28335695D01*
X26897420Y-28233181D01*
X27078769Y-28140837D01*
X27216719Y-28053846D01*
X27320671Y-27967390D01*
X27400027Y-27876651D01*
X27404771Y-27870198D01*
X27492934Y-27744457D01*
X27565885Y-27626483D01*
X27632771Y-27497541D01*
X27702740Y-27338899D01*
X27784942Y-27131822D01*
X27853161Y-26952010D01*
X27907878Y-26807650D01*
X27957358Y-26682642D01*
X28007318Y-26565938D01*
X28063479Y-26446489D01*
X28131560Y-26313244D01*
X28217280Y-26155155D01*
X28326359Y-25961172D01*
X28464516Y-25720245D01*
X28637469Y-25421325D01*
X28711702Y-25293339D01*
X28868723Y-25026491D01*
X28990833Y-24828235D01*
X29082445Y-24692183D01*
X29147975Y-24611946D01*
X29191836Y-24581137D01*
X29203864Y-24581095D01*
X29292120Y-24602547D01*
X29410269Y-24627929D01*
X29412403Y-24628360D01*
X29509280Y-24660521D01*
X29532352Y-24707218D01*
X29528639Y-24720120D01*
X29479322Y-24902458D01*
X29485766Y-25077146D01*
X29504597Y-25161566D01*
X29550581Y-25303961D01*
X29617499Y-25470687D01*
X29696405Y-25643868D01*
X29778353Y-25805628D01*
X29854395Y-25938092D01*
X29915586Y-26023384D01*
X29947089Y-26045667D01*
X29962729Y-26018118D01*
X29942602Y-25931771D01*
X29884971Y-25781073D01*
X29811748Y-25612792D01*
X29729501Y-25415810D01*
X29660856Y-25225682D01*
X29614456Y-25067851D01*
X29599662Y-24988375D01*
X29595091Y-24865788D01*
X29619883Y-24780574D01*
X29689040Y-24694992D01*
X29733793Y-24650946D01*
X29821574Y-24560322D01*
X29876425Y-24491568D01*
X29885666Y-24471029D01*
X29853653Y-24440059D01*
X29781630Y-24441889D01*
X29705626Y-24472078D01*
X29677121Y-24496740D01*
X29643648Y-24520101D01*
X29586770Y-24523864D01*
X29491363Y-24505475D01*
X29342298Y-24462378D01*
X29195687Y-24415408D01*
X28978485Y-24344695D01*
X28715407Y-24259405D01*
X28441208Y-24170789D01*
X28213500Y-24097445D01*
X27902687Y-23994395D01*
X27629338Y-23897577D01*
X27401676Y-23810356D01*
X27227922Y-23736100D01*
X27116298Y-23678173D01*
X27075028Y-23639942D01*
X27077894Y-23632535D01*
X27145052Y-23608591D01*
X27282725Y-23586861D01*
X27476776Y-23568006D01*
X27713070Y-23552685D01*
X27977468Y-23541560D01*
X28255835Y-23535289D01*
X28534032Y-23534534D01*
X28797924Y-23539955D01*
X28933166Y-23545879D01*
X29166546Y-23555052D01*
X29463934Y-23561485D01*
X29804710Y-23565035D01*
X30168254Y-23565558D01*
X30533947Y-23562912D01*
X30795833Y-23558789D01*
X31233062Y-23551143D01*
X31591845Y-23548381D01*
X31878337Y-23552136D01*
X32098696Y-23564044D01*
X32259080Y-23585737D01*
X32365645Y-23618851D01*
X32424548Y-23665019D01*
X32433763Y-23697255D01*
X39024451Y-23697255D01*
X39047248Y-23679795D01*
X39093166Y-23666963D01*
X39181691Y-23656825D01*
X39343313Y-23649713D01*
X39566524Y-23645424D01*
X39839816Y-23643753D01*
X40151681Y-23644496D01*
X40490611Y-23647450D01*
X40845098Y-23652410D01*
X41203635Y-23659174D01*
X41554713Y-23667535D01*
X41886824Y-23677292D01*
X42188461Y-23688240D01*
X42448115Y-23700174D01*
X42654278Y-23712892D01*
X42795442Y-23726189D01*
X42839739Y-23733351D01*
X43009917Y-23775526D01*
X43169619Y-23823677D01*
X43263073Y-23858630D01*
X43332099Y-23890505D01*
X43353698Y-23908328D01*
X43318285Y-23914118D01*
X43216275Y-23909893D01*
X43067722Y-23899771D01*
X42872199Y-23893705D01*
X42613239Y-23896851D01*
X42311415Y-23907896D01*
X41987299Y-23925526D01*
X41661465Y-23948430D01*
X41354486Y-23975296D01*
X41086934Y-24004810D01*
X40879383Y-24035661D01*
X40850000Y-24041251D01*
X40673823Y-24083375D01*
X40512058Y-24134039D01*
X40398565Y-24182578D01*
X40395204Y-24184501D01*
X40257909Y-24264472D01*
X39950704Y-24100433D01*
X39749782Y-24001568D01*
X39517985Y-23899880D01*
X39305398Y-23817335D01*
X39304833Y-23817136D01*
X39143758Y-23759195D01*
X39053459Y-23721478D01*
X39024451Y-23697255D01*
X32433763Y-23697255D01*
X32441946Y-23725876D01*
X32423997Y-23803056D01*
X32376858Y-23898192D01*
X32335373Y-23967392D01*
X32262783Y-24088416D01*
X32231075Y-24164235D01*
X32235331Y-24220854D01*
X32270629Y-24284275D01*
X32274349Y-24289966D01*
X32357775Y-24386506D01*
X32440309Y-24433325D01*
X32497788Y-24421323D01*
X32493148Y-24374611D01*
X32453629Y-24317510D01*
X32401878Y-24248067D01*
X32390414Y-24180622D01*
X32422274Y-24091525D01*
X32499750Y-23958326D01*
X32616166Y-23770752D01*
X33103000Y-23744040D01*
X33235768Y-23739790D01*
X33443768Y-23737108D01*
X33717580Y-23735955D01*
X34047783Y-23736289D01*
X34424960Y-23738072D01*
X34839688Y-23741263D01*
X35282549Y-23745820D01*
X35744123Y-23751705D01*
X36087500Y-23756816D01*
X36639684Y-23765928D01*
X37113827Y-23774670D01*
X37516550Y-23783291D01*
X37854477Y-23792045D01*
X38134230Y-23801180D01*
X38362431Y-23810949D01*
X38545702Y-23821603D01*
X38690668Y-23833393D01*
X38803949Y-23846569D01*
X38892169Y-23861383D01*
X38902666Y-23863553D01*
X39259280Y-23948548D01*
X39558461Y-24044307D01*
X39827437Y-24162612D01*
X40093434Y-24315247D01*
X40350757Y-24490251D01*
X40562402Y-24631607D01*
X40767953Y-24750026D01*
X40951710Y-24837876D01*
X41097974Y-24887523D01*
X41181178Y-24893970D01*
X41180942Y-24867389D01*
X41112191Y-24804600D01*
X40980582Y-24710225D01*
X40860583Y-24631961D01*
X40702637Y-24530544D01*
X40575186Y-24446301D01*
X40492776Y-24389003D01*
X40469000Y-24368859D01*
X40503026Y-24342715D01*
X40589225Y-24293434D01*
X40642268Y-24265660D01*
X40816697Y-24193727D01*
X41034421Y-24136049D01*
X41304731Y-24091229D01*
X41636921Y-24057874D01*
X42040280Y-24034589D01*
X42228668Y-24027621D01*
X42664681Y-24020828D01*
X43025527Y-24032352D01*
X43319121Y-24064202D01*
X43553375Y-24118387D01*
X43736205Y-24196915D01*
X43875525Y-24301796D01*
X43979248Y-24435039D01*
X44003190Y-24478090D01*
X44067367Y-24567487D01*
X44154285Y-24649656D01*
X44240503Y-24706595D01*
X44302582Y-24720300D01*
X44311529Y-24714916D01*
X44300072Y-24672769D01*
X44242247Y-24594763D01*
X44202023Y-24550768D01*
X44120702Y-24455986D01*
X44072771Y-24379088D01*
X44067333Y-24358515D01*
X44038264Y-24299180D01*
X43965299Y-24213761D01*
X43930898Y-24180614D01*
X43853347Y-24105893D01*
X43815403Y-24061412D01*
X43815639Y-24056000D01*
X43862923Y-24050402D01*
X43978556Y-24035010D01*
X44147056Y-24011932D01*
X44352945Y-23983274D01*
X44440913Y-23970915D01*
X45089966Y-23880929D01*
X45702188Y-23798891D01*
X46271750Y-23725480D01*
X46792821Y-23661369D01*
X47259570Y-23607236D01*
X47666165Y-23563755D01*
X48006777Y-23531603D01*
X48275574Y-23511455D01*
X48466725Y-23503988D01*
X48470000Y-23503971D01*
X48696031Y-23497897D01*
X48920156Y-23483088D01*
X49111793Y-23461991D01*
X49210833Y-23444658D01*
X49456183Y-23406460D01*
X49749342Y-23387008D01*
X50055404Y-23386979D01*
X50339462Y-23407053D01*
X50438500Y-23420765D01*
X50569826Y-23436798D01*
X50764210Y-23453532D01*
X51000075Y-23469432D01*
X51255842Y-23482960D01*
X51391000Y-23488602D01*
X51642027Y-23500561D01*
X51882006Y-23518160D01*
X52128279Y-23543535D01*
X52398187Y-23578823D01*
X52709074Y-23626159D01*
X53078283Y-23687680D01*
X53253666Y-23718045D01*
X53740084Y-23802343D01*
X54154619Y-23872415D01*
X54508617Y-23929558D01*
X54813428Y-23975066D01*
X55080400Y-24010233D01*
X55320881Y-24036356D01*
X55546219Y-24054728D01*
X55767763Y-24066644D01*
X55996860Y-24073400D01*
X56244858Y-24076290D01*
X56396879Y-24076703D01*
X56659242Y-24077436D01*
X56890351Y-24079218D01*
X57077762Y-24081860D01*
X57209033Y-24085170D01*
X57271721Y-24088959D01*
X57275296Y-24090131D01*
X57235918Y-24123654D01*
X57125375Y-24171289D01*
X56955271Y-24229319D01*
X56737211Y-24294029D01*
X56482797Y-24361701D01*
X56255678Y-24416683D01*
X55603166Y-24567866D01*
X53020833Y-24535351D01*
X52397235Y-24527482D01*
X51852547Y-24520664D01*
X51381016Y-24514963D01*
X50976890Y-24510444D01*
X50634418Y-24507173D01*
X50347848Y-24505215D01*
X50111428Y-24504635D01*
X49919406Y-24505500D01*
X49766031Y-24507873D01*
X49645550Y-24511821D01*
X49552212Y-24517409D01*
X49480264Y-24524703D01*
X49423956Y-24533768D01*
X49377536Y-24544669D01*
X49335251Y-24557471D01*
X49291349Y-24572241D01*
X49274333Y-24577955D01*
X49013897Y-24677244D01*
X48695669Y-24819878D01*
X48330982Y-25000313D01*
X47931171Y-25213005D01*
X47623333Y-25385629D01*
X47365099Y-25533177D01*
X47082199Y-25694335D01*
X46804425Y-25852159D01*
X46561570Y-25989705D01*
X46501500Y-26023623D01*
X46199913Y-26197030D01*
X45930326Y-26360413D01*
X45679082Y-26523668D01*
X45432528Y-26696695D01*
X45177009Y-26889392D01*
X44898871Y-27111657D01*
X44584458Y-27373388D01*
X44272552Y-27639381D01*
X44092985Y-27791547D01*
X43870124Y-27977171D01*
X43627074Y-28177183D01*
X43386942Y-28372513D01*
X43277719Y-28460437D01*
X42973918Y-28696736D01*
X42702107Y-28888451D01*
X42447009Y-29041143D01*
X42193341Y-29160374D01*
X41925824Y-29251708D01*
X41629177Y-29320705D01*
X41288121Y-29372929D01*
X40887376Y-29413941D01*
X40596000Y-29436625D01*
X40068244Y-29462880D01*
X39595235Y-29459144D01*
X39151559Y-29422684D01*
X38711804Y-29350771D01*
X38250558Y-29240672D01*
X37939539Y-29151093D01*
X37727515Y-29089881D01*
X37458954Y-29017057D01*
X37159959Y-28939439D01*
X36856629Y-28863846D01*
X36659000Y-28816561D01*
X36354671Y-28740828D01*
X36024599Y-28651314D01*
X35699018Y-28556687D01*
X35408161Y-28465610D01*
X35264545Y-28416859D01*
X34996556Y-28325838D01*
X34703727Y-28232496D01*
X34419360Y-28147107D01*
X34176755Y-28079943D01*
X34150867Y-28073301D01*
X33921489Y-28018361D01*
X33655537Y-27959906D01*
X33368842Y-27900878D01*
X33077232Y-27844216D01*
X32796539Y-27792860D01*
X32542592Y-27749750D01*
X32331222Y-27717825D01*
X32178257Y-27700026D01*
X32126433Y-27697325D01*
X31970483Y-27709996D01*
X31812148Y-27744662D01*
X31666819Y-27794346D01*
X31549888Y-27852073D01*
X31476746Y-27910867D01*
X31462784Y-27963752D01*
X31485762Y-27987704D01*
X31472713Y-28025037D01*
X31407446Y-28110390D01*
X31299582Y-28233950D01*
X31158741Y-28385904D01*
X30994545Y-28556442D01*
X30816614Y-28735749D01*
X30634568Y-28914015D01*
X30458027Y-29081426D01*
X30296613Y-29228171D01*
X30159946Y-29344437D01*
X30139666Y-29360623D01*
X29976820Y-29495109D01*
X29802015Y-29648666D01*
X29695166Y-29747986D01*
X29562670Y-29867414D01*
X29437753Y-29956115D01*
X29298185Y-30024810D01*
X29121734Y-30084222D01*
X28886169Y-30145071D01*
X28857831Y-30151807D01*
X28066485Y-30297639D01*
X27272027Y-30360665D01*
X27053828Y-30363667D01*
X26465098Y-30363667D01*
X25730632Y-30112472D01*
X25467511Y-30019375D01*
X25247944Y-29935466D01*
X25082202Y-29865012D01*
X24980556Y-29812280D01*
X24953833Y-29789717D01*
X24903322Y-29708251D01*
X24832206Y-29597717D01*
X24816249Y-29573366D01*
X24746165Y-29455021D01*
X24728576Y-29369574D01*
X24597790Y-29369574D01*
X24571130Y-29504124D01*
X24562022Y-29594509D01*
X24541839Y-29876834D01*
X25473857Y-30183750D01*
X26405876Y-30490667D01*
X27055688Y-30489892D01*
X27055688Y-30489892D01*
G37*
X27055688Y-30489892D02*
X27767537Y-30462771D01*
X28422250Y-30382456D01*
X28917705Y-30277544D01*
X29168704Y-30206716D01*
X29364025Y-30131079D01*
X29531975Y-30035099D01*
X29700860Y-29903240D01*
X29852480Y-29764508D01*
X30022340Y-29610412D01*
X30212792Y-29448923D01*
X30386853Y-29311241D01*
X30411648Y-29292817D01*
X30536209Y-29189998D01*
X30698871Y-29039161D01*
X30882839Y-28856748D01*
X31071319Y-28659201D01*
X31174001Y-28546501D01*
X31352853Y-28347761D01*
X31487116Y-28203481D01*
X31587825Y-28104292D01*
X31666012Y-28040821D01*
X31732714Y-28003698D01*
X31798963Y-27983551D01*
X31846732Y-27975161D01*
X32004516Y-27938512D01*
X32156595Y-27883619D01*
X32182668Y-27871183D01*
X32242907Y-27842386D01*
X32299397Y-27825488D01*
X32367632Y-27821825D01*
X32463105Y-27832732D01*
X32601310Y-27859545D01*
X32797741Y-27903601D01*
X32939558Y-27936443D01*
X33337415Y-28031719D01*
X33729795Y-28132014D01*
X34133394Y-28242028D01*
X34564909Y-28366461D01*
X35041035Y-28510010D01*
X35578468Y-28677377D01*
X35632360Y-28694384D01*
X36342216Y-28910939D01*
X37007371Y-29098362D01*
X37622681Y-29255514D01*
X38183002Y-29381259D01*
X38683190Y-29474458D01*
X39118102Y-29533975D01*
X39482593Y-29558672D01*
X39543938Y-29559334D01*
X39720566Y-29554161D01*
X39961711Y-29539868D01*
X40247936Y-29518295D01*
X40559806Y-29491281D01*
X40877881Y-29460663D01*
X41182726Y-29428282D01*
X41454903Y-29395977D01*
X41674976Y-29365586D01*
X41781333Y-29347643D01*
X41932767Y-29326758D01*
X42066570Y-29321549D01*
X42122780Y-29327175D01*
X42226226Y-29322112D01*
X42387220Y-29272057D01*
X42588447Y-29186059D01*
X42763221Y-29099307D01*
X42911538Y-29008520D01*
X43056510Y-28896740D01*
X43221249Y-28747005D01*
X43326500Y-28644458D01*
X43514011Y-28464667D01*
X43721646Y-28274515D01*
X43920635Y-28099947D01*
X44046166Y-27995442D01*
X44241290Y-27837761D01*
X44462127Y-27658110D01*
X44669242Y-27488595D01*
X44723500Y-27443945D01*
X44879748Y-27318931D01*
X45025330Y-27209110D01*
X45139661Y-27129696D01*
X45185358Y-27102636D01*
X45266661Y-27049703D01*
X45392129Y-26954110D01*
X45543419Y-26830306D01*
X45675054Y-26716837D01*
X45890427Y-26540222D01*
X46115154Y-26378980D01*
X46319105Y-26254423D01*
X46356196Y-26235061D01*
X46553891Y-26132995D01*
X46778425Y-26013004D01*
X46983518Y-25899848D01*
X46996767Y-25892361D01*
X47675093Y-25532215D01*
X48434095Y-25174542D01*
X49035698Y-24916327D01*
X49800751Y-24599846D01*
X51643625Y-24649735D01*
X52091004Y-24660559D01*
X52563229Y-24669675D01*
X53042321Y-24676891D01*
X53510302Y-24682014D01*
X53949193Y-24684849D01*
X54341016Y-24685203D01*
X54667792Y-24682884D01*
X54693000Y-24682543D01*
X55045204Y-24677346D01*
X55325791Y-24672099D01*
X55547804Y-24665654D01*
X55724283Y-24656861D01*
X55868272Y-24644571D01*
X55992812Y-24627637D01*
X56110946Y-24604908D01*
X56235716Y-24575237D01*
X56380164Y-24537474D01*
X56400066Y-24532177D01*
X56633037Y-24463927D01*
X56871519Y-24383616D01*
X57083637Y-24302492D01*
X57207774Y-24247131D01*
X57392338Y-24148300D01*
X57554712Y-24047326D01*
X57681954Y-23953849D01*
X57761122Y-23877511D01*
X57779273Y-23827953D01*
X57776201Y-23823692D01*
X57725438Y-23821117D01*
X57613116Y-23838403D01*
X57459071Y-23872100D01*
X57374034Y-23893646D01*
X57061620Y-23953156D01*
X56682867Y-23987147D01*
X56251849Y-23996590D01*
X55782641Y-23982460D01*
X55289319Y-23945729D01*
X54785959Y-23887371D01*
X54286635Y-23808358D01*
X53805422Y-23709663D01*
X53465333Y-23623441D01*
X53228221Y-23559607D01*
X53020912Y-23509690D01*
X52825821Y-23471363D01*
X52625367Y-23442301D01*
X52401966Y-23420176D01*
X52138035Y-23402663D01*
X51815990Y-23387436D01*
X51623833Y-23379805D01*
X51330173Y-23366995D01*
X51057133Y-23352078D01*
X50818625Y-23336052D01*
X50628565Y-23319915D01*
X50500865Y-23304664D01*
X50459946Y-23296348D01*
X50322984Y-23271929D01*
X50127928Y-23258387D01*
X49900589Y-23255280D01*
X49666780Y-23262167D01*
X49452311Y-23278606D01*
X49282996Y-23304155D01*
X49232000Y-23317356D01*
X49074526Y-23348888D01*
X48841917Y-23369302D01*
X48543063Y-23377869D01*
X48491166Y-23378090D01*
X48290224Y-23384093D01*
X48023489Y-23400755D01*
X47702525Y-23426693D01*
X47338897Y-23460520D01*
X46944169Y-23500854D01*
X46529905Y-23546308D01*
X46107671Y-23595498D01*
X45689030Y-23647040D01*
X45285547Y-23699548D01*
X44908786Y-23751639D01*
X44570312Y-23801926D01*
X44281689Y-23849027D01*
X44054482Y-23891555D01*
X43902184Y-23927568D01*
X43823646Y-23943550D01*
X43744947Y-23938382D01*
X43644637Y-23906460D01*
X43501265Y-23842181D01*
X43415351Y-23800404D01*
X43223389Y-23715124D01*
X43022606Y-23640644D01*
X42850202Y-23590463D01*
X42818500Y-23583783D01*
X42702119Y-23570513D01*
X42505206Y-23558978D01*
X42231879Y-23549282D01*
X41886257Y-23541529D01*
X41472458Y-23535824D01*
X40994601Y-23532269D01*
X40738197Y-23531343D01*
X40293351Y-23530497D01*
X39925512Y-23530532D01*
X39627026Y-23531712D01*
X39390237Y-23534302D01*
X39207488Y-23538564D01*
X39071123Y-23544762D01*
X38973487Y-23553159D01*
X38906924Y-23564020D01*
X38863777Y-23577607D01*
X38836390Y-23594184D01*
X38833197Y-23596920D01*
X38821472Y-23609086D01*
X38811815Y-23619794D01*
X38799039Y-23629066D01*
X38777961Y-23636921D01*
X38743395Y-23643378D01*
X38690157Y-23648459D01*
X38613061Y-23652184D01*
X38506924Y-23654571D01*
X38366559Y-23655643D01*
X38186782Y-23655418D01*
X37962408Y-23653916D01*
X37688252Y-23651159D01*
X37359129Y-23647166D01*
X36969855Y-23641957D01*
X36515244Y-23635553D01*
X35990112Y-23627972D01*
X35389274Y-23619237D01*
X34902166Y-23612175D01*
X34519421Y-23607825D01*
X34151852Y-23605884D01*
X33811167Y-23606255D01*
X33509073Y-23608839D01*
X33257277Y-23613542D01*
X33067487Y-23620264D01*
X32956571Y-23628282D01*
X32786320Y-23646397D01*
X32676385Y-23650053D01*
X32603186Y-23636202D01*
X32543145Y-23601797D01*
X32503249Y-23569702D01*
X32373034Y-23495885D01*
X32206223Y-23448424D01*
X32184010Y-23445117D01*
X32097254Y-23439179D01*
X31936281Y-23433596D01*
X31711539Y-23428528D01*
X31433479Y-23424132D01*
X31112549Y-23420567D01*
X30759198Y-23417991D01*
X30383876Y-23416563D01*
X30287833Y-23416404D01*
X29895152Y-23415839D01*
X29510272Y-23415126D01*
X29145750Y-23414300D01*
X28814146Y-23413395D01*
X28528019Y-23412447D01*
X28299929Y-23411489D01*
X28142434Y-23410557D01*
X28128833Y-23410448D01*
X27879149Y-23412091D01*
X27604528Y-23419771D01*
X27349587Y-23432048D01*
X27252054Y-23438775D01*
X27056084Y-23456639D01*
X26929385Y-23475810D01*
X26856598Y-23500070D01*
X26822363Y-23533201D01*
X26817177Y-23545865D01*
X26807984Y-23640432D01*
X26848414Y-23726050D01*
X26944975Y-23806514D01*
X27104175Y-23885620D01*
X27332519Y-23967164D01*
X27636516Y-24054943D01*
X27733744Y-24080551D01*
X27979177Y-24149348D01*
X28235611Y-24229874D01*
X28470380Y-24311425D01*
X28630516Y-24374418D01*
X28991043Y-24529299D01*
X28849736Y-24726566D01*
X28773264Y-24847913D01*
X28665800Y-25040456D01*
X28530495Y-25297913D01*
X28370501Y-25614004D01*
X28188972Y-25982449D01*
X27989058Y-26396966D01*
X27773913Y-26851275D01*
X27645872Y-27125202D01*
X27291297Y-27887237D01*
X26863398Y-28085316D01*
X26635855Y-28183608D01*
X26366681Y-28289245D01*
X26095837Y-28386956D01*
X25937711Y-28439021D01*
X25628941Y-28549165D01*
X25338377Y-28678370D01*
X25080157Y-28818508D01*
X24868419Y-28961450D01*
X24717304Y-29099067D01*
X24664197Y-29171176D01*
X24609113Y-29312421D01*
X24597790Y-29369574D01*
X24728576Y-29369574D01*
X24764086Y-29283022D01*
X24822883Y-29200917D01*
X24928888Y-29095010D01*
X25091035Y-28985120D01*
X25315907Y-28867831D01*
X25610085Y-28739726D01*
X25980154Y-28597388D01*
X25998951Y-28590500D01*
X26366912Y-28453195D01*
X26663268Y-28335695D01*
X26897420Y-28233181D01*
X27078769Y-28140837D01*
X27216719Y-28053846D01*
X27320671Y-27967390D01*
X27400027Y-27876651D01*
X27404771Y-27870198D01*
X27492934Y-27744457D01*
X27565885Y-27626483D01*
X27632771Y-27497541D01*
X27702740Y-27338899D01*
X27784942Y-27131822D01*
X27853161Y-26952010D01*
X27907878Y-26807650D01*
X27957358Y-26682642D01*
X28007318Y-26565938D01*
X28063479Y-26446489D01*
X28131560Y-26313244D01*
X28217280Y-26155155D01*
X28326359Y-25961172D01*
X28464516Y-25720245D01*
X28637469Y-25421325D01*
X28711702Y-25293339D01*
X28868723Y-25026491D01*
X28990833Y-24828235D01*
X29082445Y-24692183D01*
X29147975Y-24611946D01*
X29191836Y-24581137D01*
X29203864Y-24581095D01*
X29292120Y-24602547D01*
X29410269Y-24627929D01*
X29412403Y-24628360D01*
X29509280Y-24660521D01*
X29532352Y-24707218D01*
X29528639Y-24720120D01*
X29479322Y-24902458D01*
X29485766Y-25077146D01*
X29504597Y-25161566D01*
X29550581Y-25303961D01*
X29617499Y-25470687D01*
X29696405Y-25643868D01*
X29778353Y-25805628D01*
X29854395Y-25938092D01*
X29915586Y-26023384D01*
X29947089Y-26045667D01*
X29962729Y-26018118D01*
X29942602Y-25931771D01*
X29884971Y-25781073D01*
X29811748Y-25612792D01*
X29729501Y-25415810D01*
X29660856Y-25225682D01*
X29614456Y-25067851D01*
X29599662Y-24988375D01*
X29595091Y-24865788D01*
X29619883Y-24780574D01*
X29689040Y-24694992D01*
X29733793Y-24650946D01*
X29821574Y-24560322D01*
X29876425Y-24491568D01*
X29885666Y-24471029D01*
X29853653Y-24440059D01*
X29781630Y-24441889D01*
X29705626Y-24472078D01*
X29677121Y-24496740D01*
X29643648Y-24520101D01*
X29586770Y-24523864D01*
X29491363Y-24505475D01*
X29342298Y-24462378D01*
X29195687Y-24415408D01*
X28978485Y-24344695D01*
X28715407Y-24259405D01*
X28441208Y-24170789D01*
X28213500Y-24097445D01*
X27902687Y-23994395D01*
X27629338Y-23897577D01*
X27401676Y-23810356D01*
X27227922Y-23736100D01*
X27116298Y-23678173D01*
X27075028Y-23639942D01*
X27077894Y-23632535D01*
X27145052Y-23608591D01*
X27282725Y-23586861D01*
X27476776Y-23568006D01*
X27713070Y-23552685D01*
X27977468Y-23541560D01*
X28255835Y-23535289D01*
X28534032Y-23534534D01*
X28797924Y-23539955D01*
X28933166Y-23545879D01*
X29166546Y-23555052D01*
X29463934Y-23561485D01*
X29804710Y-23565035D01*
X30168254Y-23565558D01*
X30533947Y-23562912D01*
X30795833Y-23558789D01*
X31233062Y-23551143D01*
X31591845Y-23548381D01*
X31878337Y-23552136D01*
X32098696Y-23564044D01*
X32259080Y-23585737D01*
X32365645Y-23618851D01*
X32424548Y-23665019D01*
X32433763Y-23697255D01*
X39024451Y-23697255D01*
X39047248Y-23679795D01*
X39093166Y-23666963D01*
X39181691Y-23656825D01*
X39343313Y-23649713D01*
X39566524Y-23645424D01*
X39839816Y-23643753D01*
X40151681Y-23644496D01*
X40490611Y-23647450D01*
X40845098Y-23652410D01*
X41203635Y-23659174D01*
X41554713Y-23667535D01*
X41886824Y-23677292D01*
X42188461Y-23688240D01*
X42448115Y-23700174D01*
X42654278Y-23712892D01*
X42795442Y-23726189D01*
X42839739Y-23733351D01*
X43009917Y-23775526D01*
X43169619Y-23823677D01*
X43263073Y-23858630D01*
X43332099Y-23890505D01*
X43353698Y-23908328D01*
X43318285Y-23914118D01*
X43216275Y-23909893D01*
X43067722Y-23899771D01*
X42872199Y-23893705D01*
X42613239Y-23896851D01*
X42311415Y-23907896D01*
X41987299Y-23925526D01*
X41661465Y-23948430D01*
X41354486Y-23975296D01*
X41086934Y-24004810D01*
X40879383Y-24035661D01*
X40850000Y-24041251D01*
X40673823Y-24083375D01*
X40512058Y-24134039D01*
X40398565Y-24182578D01*
X40395204Y-24184501D01*
X40257909Y-24264472D01*
X39950704Y-24100433D01*
X39749782Y-24001568D01*
X39517985Y-23899880D01*
X39305398Y-23817335D01*
X39304833Y-23817136D01*
X39143758Y-23759195D01*
X39053459Y-23721478D01*
X39024451Y-23697255D01*
X32433763Y-23697255D01*
X32441946Y-23725876D01*
X32423997Y-23803056D01*
X32376858Y-23898192D01*
X32335373Y-23967392D01*
X32262783Y-24088416D01*
X32231075Y-24164235D01*
X32235331Y-24220854D01*
X32270629Y-24284275D01*
X32274349Y-24289966D01*
X32357775Y-24386506D01*
X32440309Y-24433325D01*
X32497788Y-24421323D01*
X32493148Y-24374611D01*
X32453629Y-24317510D01*
X32401878Y-24248067D01*
X32390414Y-24180622D01*
X32422274Y-24091525D01*
X32499750Y-23958326D01*
X32616166Y-23770752D01*
X33103000Y-23744040D01*
X33235768Y-23739790D01*
X33443768Y-23737108D01*
X33717580Y-23735955D01*
X34047783Y-23736289D01*
X34424960Y-23738072D01*
X34839688Y-23741263D01*
X35282549Y-23745820D01*
X35744123Y-23751705D01*
X36087500Y-23756816D01*
X36639684Y-23765928D01*
X37113827Y-23774670D01*
X37516550Y-23783291D01*
X37854477Y-23792045D01*
X38134230Y-23801180D01*
X38362431Y-23810949D01*
X38545702Y-23821603D01*
X38690668Y-23833393D01*
X38803949Y-23846569D01*
X38892169Y-23861383D01*
X38902666Y-23863553D01*
X39259280Y-23948548D01*
X39558461Y-24044307D01*
X39827437Y-24162612D01*
X40093434Y-24315247D01*
X40350757Y-24490251D01*
X40562402Y-24631607D01*
X40767953Y-24750026D01*
X40951710Y-24837876D01*
X41097974Y-24887523D01*
X41181178Y-24893970D01*
X41180942Y-24867389D01*
X41112191Y-24804600D01*
X40980582Y-24710225D01*
X40860583Y-24631961D01*
X40702637Y-24530544D01*
X40575186Y-24446301D01*
X40492776Y-24389003D01*
X40469000Y-24368859D01*
X40503026Y-24342715D01*
X40589225Y-24293434D01*
X40642268Y-24265660D01*
X40816697Y-24193727D01*
X41034421Y-24136049D01*
X41304731Y-24091229D01*
X41636921Y-24057874D01*
X42040280Y-24034589D01*
X42228668Y-24027621D01*
X42664681Y-24020828D01*
X43025527Y-24032352D01*
X43319121Y-24064202D01*
X43553375Y-24118387D01*
X43736205Y-24196915D01*
X43875525Y-24301796D01*
X43979248Y-24435039D01*
X44003190Y-24478090D01*
X44067367Y-24567487D01*
X44154285Y-24649656D01*
X44240503Y-24706595D01*
X44302582Y-24720300D01*
X44311529Y-24714916D01*
X44300072Y-24672769D01*
X44242247Y-24594763D01*
X44202023Y-24550768D01*
X44120702Y-24455986D01*
X44072771Y-24379088D01*
X44067333Y-24358515D01*
X44038264Y-24299180D01*
X43965299Y-24213761D01*
X43930898Y-24180614D01*
X43853347Y-24105893D01*
X43815403Y-24061412D01*
X43815639Y-24056000D01*
X43862923Y-24050402D01*
X43978556Y-24035010D01*
X44147056Y-24011932D01*
X44352945Y-23983274D01*
X44440913Y-23970915D01*
X45089966Y-23880929D01*
X45702188Y-23798891D01*
X46271750Y-23725480D01*
X46792821Y-23661369D01*
X47259570Y-23607236D01*
X47666165Y-23563755D01*
X48006777Y-23531603D01*
X48275574Y-23511455D01*
X48466725Y-23503988D01*
X48470000Y-23503971D01*
X48696031Y-23497897D01*
X48920156Y-23483088D01*
X49111793Y-23461991D01*
X49210833Y-23444658D01*
X49456183Y-23406460D01*
X49749342Y-23387008D01*
X50055404Y-23386979D01*
X50339462Y-23407053D01*
X50438500Y-23420765D01*
X50569826Y-23436798D01*
X50764210Y-23453532D01*
X51000075Y-23469432D01*
X51255842Y-23482960D01*
X51391000Y-23488602D01*
X51642027Y-23500561D01*
X51882006Y-23518160D01*
X52128279Y-23543535D01*
X52398187Y-23578823D01*
X52709074Y-23626159D01*
X53078283Y-23687680D01*
X53253666Y-23718045D01*
X53740084Y-23802343D01*
X54154619Y-23872415D01*
X54508617Y-23929558D01*
X54813428Y-23975066D01*
X55080400Y-24010233D01*
X55320881Y-24036356D01*
X55546219Y-24054728D01*
X55767763Y-24066644D01*
X55996860Y-24073400D01*
X56244858Y-24076290D01*
X56396879Y-24076703D01*
X56659242Y-24077436D01*
X56890351Y-24079218D01*
X57077762Y-24081860D01*
X57209033Y-24085170D01*
X57271721Y-24088959D01*
X57275296Y-24090131D01*
X57235918Y-24123654D01*
X57125375Y-24171289D01*
X56955271Y-24229319D01*
X56737211Y-24294029D01*
X56482797Y-24361701D01*
X56255678Y-24416683D01*
X55603166Y-24567866D01*
X53020833Y-24535351D01*
X52397235Y-24527482D01*
X51852547Y-24520664D01*
X51381016Y-24514963D01*
X50976890Y-24510444D01*
X50634418Y-24507173D01*
X50347848Y-24505215D01*
X50111428Y-24504635D01*
X49919406Y-24505500D01*
X49766031Y-24507873D01*
X49645550Y-24511821D01*
X49552212Y-24517409D01*
X49480264Y-24524703D01*
X49423956Y-24533768D01*
X49377536Y-24544669D01*
X49335251Y-24557471D01*
X49291349Y-24572241D01*
X49274333Y-24577955D01*
X49013897Y-24677244D01*
X48695669Y-24819878D01*
X48330982Y-25000313D01*
X47931171Y-25213005D01*
X47623333Y-25385629D01*
X47365099Y-25533177D01*
X47082199Y-25694335D01*
X46804425Y-25852159D01*
X46561570Y-25989705D01*
X46501500Y-26023623D01*
X46199913Y-26197030D01*
X45930326Y-26360413D01*
X45679082Y-26523668D01*
X45432528Y-26696695D01*
X45177009Y-26889392D01*
X44898871Y-27111657D01*
X44584458Y-27373388D01*
X44272552Y-27639381D01*
X44092985Y-27791547D01*
X43870124Y-27977171D01*
X43627074Y-28177183D01*
X43386942Y-28372513D01*
X43277719Y-28460437D01*
X42973918Y-28696736D01*
X42702107Y-28888451D01*
X42447009Y-29041143D01*
X42193341Y-29160374D01*
X41925824Y-29251708D01*
X41629177Y-29320705D01*
X41288121Y-29372929D01*
X40887376Y-29413941D01*
X40596000Y-29436625D01*
X40068244Y-29462880D01*
X39595235Y-29459144D01*
X39151559Y-29422684D01*
X38711804Y-29350771D01*
X38250558Y-29240672D01*
X37939539Y-29151093D01*
X37727515Y-29089881D01*
X37458954Y-29017057D01*
X37159959Y-28939439D01*
X36856629Y-28863846D01*
X36659000Y-28816561D01*
X36354671Y-28740828D01*
X36024599Y-28651314D01*
X35699018Y-28556687D01*
X35408161Y-28465610D01*
X35264545Y-28416859D01*
X34996556Y-28325838D01*
X34703727Y-28232496D01*
X34419360Y-28147107D01*
X34176755Y-28079943D01*
X34150867Y-28073301D01*
X33921489Y-28018361D01*
X33655537Y-27959906D01*
X33368842Y-27900878D01*
X33077232Y-27844216D01*
X32796539Y-27792860D01*
X32542592Y-27749750D01*
X32331222Y-27717825D01*
X32178257Y-27700026D01*
X32126433Y-27697325D01*
X31970483Y-27709996D01*
X31812148Y-27744662D01*
X31666819Y-27794346D01*
X31549888Y-27852073D01*
X31476746Y-27910867D01*
X31462784Y-27963752D01*
X31485762Y-27987704D01*
X31472713Y-28025037D01*
X31407446Y-28110390D01*
X31299582Y-28233950D01*
X31158741Y-28385904D01*
X30994545Y-28556442D01*
X30816614Y-28735749D01*
X30634568Y-28914015D01*
X30458027Y-29081426D01*
X30296613Y-29228171D01*
X30159946Y-29344437D01*
X30139666Y-29360623D01*
X29976820Y-29495109D01*
X29802015Y-29648666D01*
X29695166Y-29747986D01*
X29562670Y-29867414D01*
X29437753Y-29956115D01*
X29298185Y-30024810D01*
X29121734Y-30084222D01*
X28886169Y-30145071D01*
X28857831Y-30151807D01*
X28066485Y-30297639D01*
X27272027Y-30360665D01*
X27053828Y-30363667D01*
X26465098Y-30363667D01*
X25730632Y-30112472D01*
X25467511Y-30019375D01*
X25247944Y-29935466D01*
X25082202Y-29865012D01*
X24980556Y-29812280D01*
X24953833Y-29789717D01*
X24903322Y-29708251D01*
X24832206Y-29597717D01*
X24816249Y-29573366D01*
X24746165Y-29455021D01*
X24728576Y-29369574D01*
X24597790Y-29369574D01*
X24571130Y-29504124D01*
X24562022Y-29594509D01*
X24541839Y-29876834D01*
X25473857Y-30183750D01*
X26405876Y-30490667D01*
X27055688Y-30489892D01*
G04 #@! TD*
M02*
